<svg width="34" height="21" viewBox="0 0 34 21" fill="none" xmlns="http://www.w3.org/2000/svg">
<path d="M16.9286 20.4292H9.77199C9.64431 20.4299 9.51792 20.4034 9.40103 20.3516C9.28413 20.2998 9.17936 20.2238 9.09347 20.1284C9.00759 20.0331 8.94249 19.9206 8.90247 19.7983C8.86245 19.6759 8.84836 19.5465 8.86113 19.4183C8.9001 17.3445 9.72341 15.3643 11.1624 13.8831C12.6014 12.402 14.5473 11.532 16.6013 11.4514C18.6554 11.3709 20.6623 12.0858 22.2109 13.4498C23.7595 14.8138 24.7326 16.7236 24.931 18.7881C24.9504 19.0108 24.9504 19.2349 24.931 19.4577C24.938 19.5784 24.9214 19.6994 24.882 19.8136C24.8426 19.9278 24.7813 20.0331 24.7015 20.1233C24.6217 20.2136 24.5251 20.2871 24.4171 20.3396C24.3091 20.3921 24.1919 20.4225 24.0722 20.4292H16.9286ZM16.0048 18.1579C15.9267 18.6043 16.1869 18.6305 16.4862 18.6174H17.1498C18.8284 18.6174 20.5069 18.6174 22.1855 18.6174C23.2525 18.6174 23.2134 18.7881 22.9011 17.6852C22.4969 16.3381 21.6582 15.1659 20.5182 14.3547C19.3783 13.5435 18.0025 13.1398 16.6091 13.2077C15.2158 13.2756 13.8849 13.8111 12.8278 14.7294C11.7706 15.6476 11.0477 16.8959 10.7739 18.276C10.7739 18.5255 10.7739 18.6305 11.0472 18.6305H14.6255C14.7947 18.6305 14.9898 18.6305 14.9898 18.3811C15.0679 18.3811 14.9898 18.5649 15.1199 18.5649C15.25 18.5649 15.12 18.3548 15.2371 18.2235C15.172 18.6043 15.3672 18.6305 15.6404 18.6437C15.9137 18.6568 15.9527 18.3942 15.9787 18.1316L16.0048 18.1579Z" fill="#10DD8E"/>
<path d="M21.8602 5.0285C21.8654 5.68588 21.7417 6.33782 21.4963 6.94682C21.251 7.55583 20.8887 8.10989 20.4305 8.57718C19.9722 9.04447 19.4269 9.41577 18.8259 9.66973C18.225 9.92369 17.5802 10.0553 16.9287 10.057C15.943 10.057 14.9795 9.76209 14.1599 9.20955C13.3404 8.65701 12.7016 7.87167 12.3244 6.95283C11.9472 6.03399 11.8485 5.02293 12.0408 4.04749C12.2331 3.07206 12.7078 2.17607 13.4047 1.47282C14.1017 0.769571 14.9897 0.290649 15.9564 0.0966236C16.9232 -0.0974023 17.9252 0.00217866 18.8358 0.382774C19.7464 0.76337 20.5248 1.40789 21.0724 2.23482C21.62 3.06175 21.9123 4.03396 21.9123 5.0285H21.8602ZM16.9287 8.24517C17.5603 8.24777 18.1784 8.06099 18.7047 7.70854C19.2309 7.35609 19.6416 6.85385 19.8845 6.26555C20.1274 5.67725 20.1916 5.0294 20.069 4.4042C19.9464 3.77901 19.6425 3.20465 19.1959 2.754C18.7493 2.30335 18.18 1.99673 17.5604 1.87304C16.9408 1.74934 16.2988 1.81415 15.7157 2.05923C15.1327 2.30432 14.6349 2.71864 14.2856 3.24962C13.9363 3.78061 13.7512 4.40433 13.7537 5.04163C13.7503 5.4633 13.83 5.88145 13.9883 6.2717C14.1467 6.66195 14.3804 7.01651 14.6759 7.31468C14.9714 7.61286 15.3228 7.84869 15.7096 8.00845C16.0964 8.1682 16.5108 8.24867 16.9287 8.24517Z" fill="#10DD8E"/>
<path d="M6.71417 10.3983C6.0173 10.3957 5.33681 10.1848 4.75863 9.79226C4.18045 9.39973 3.73055 8.84313 3.46565 8.19276C3.20074 7.5424 3.13275 6.82741 3.27027 6.13809C3.4078 5.44877 3.74468 4.81601 4.23835 4.31972C4.73202 3.82344 5.36036 3.48587 6.04403 3.34964C6.7277 3.21341 7.43604 3.28463 8.07962 3.55432C8.7232 3.824 9.27316 4.28004 9.66006 4.86487C10.047 5.4497 10.2534 6.13709 10.2534 6.84024C10.2552 7.30909 10.1647 7.77362 9.98731 8.20695C9.8099 8.64028 9.54905 9.03379 9.21988 9.36471C8.89071 9.69562 8.49976 9.95736 8.06965 10.1348C7.63954 10.3122 7.17882 10.4017 6.71417 10.3983ZM8.44479 6.84024C8.44479 6.3806 8.26382 5.93979 7.94171 5.61478C7.6196 5.28977 7.18272 5.10718 6.72719 5.10718C6.27166 5.10718 5.83478 5.28977 5.51267 5.61478C5.19056 5.93979 5.00959 6.3806 5.00959 6.84024C5.00959 7.29988 5.19056 7.74069 5.51267 8.0657C5.83478 8.39071 6.27166 8.5733 6.72719 8.5733C7.18272 8.5733 7.6196 8.39071 7.94171 8.0657C8.26382 7.74069 8.44479 7.29988 8.44479 6.84024Z" fill="#10DD8E"/>
<path d="M23.5389 6.84025C23.5372 6.37363 23.6268 5.91125 23.8026 5.47965C23.9784 5.04804 24.2369 4.6557 24.5633 4.32514C24.8897 3.99457 25.2776 3.73228 25.7047 3.55331C26.1318 3.37434 26.5897 3.28222 27.0522 3.28223C27.9874 3.28223 28.8843 3.65709 29.5456 4.32435C30.2069 4.99161 30.5784 5.8966 30.5784 6.84025C30.5784 7.7839 30.2069 8.6889 29.5456 9.35616C28.8843 10.0234 27.9874 10.3983 27.0522 10.3983C26.5892 10.4 26.1305 10.3091 25.7027 10.1307C25.2748 9.95239 24.8862 9.69017 24.5595 9.35925C24.2327 9.02834 23.9743 8.6353 23.7991 8.20291C23.6239 7.77052 23.5355 7.30736 23.5389 6.84025ZM28.7437 6.84025C28.7646 6.59733 28.7352 6.35267 28.6574 6.12182C28.5795 5.89098 28.455 5.67898 28.2917 5.49928C28.1283 5.31958 27.9298 5.17609 27.7085 5.07793C27.4873 4.97978 27.2483 4.92909 27.0066 4.92909C26.765 4.92909 26.5259 4.97978 26.3047 5.07793C26.0835 5.17609 25.885 5.31958 25.7216 5.49928C25.5583 5.67898 25.4337 5.89098 25.3559 6.12182C25.2781 6.35267 25.2487 6.59733 25.2695 6.84025C25.3072 7.27892 25.5065 7.68739 25.8281 7.985C26.1497 8.28261 26.5702 8.44773 27.0066 8.44773C27.443 8.44773 27.8636 8.28261 28.1852 7.985C28.5068 7.68739 28.7061 7.27892 28.7437 6.84025Z" fill="#10DD8E"/>
<path d="M25.7769 11.37C27.7777 11.3589 29.7113 12.0984 31.2021 13.4449C32.6929 14.7915 33.6346 16.649 33.8444 18.6567C33.8703 18.9318 33.8703 19.2088 33.8444 19.4839C33.8482 19.6044 33.8271 19.7244 33.7823 19.8363C33.7375 19.9481 33.6702 20.0493 33.5844 20.1333C33.4987 20.2173 33.3965 20.2824 33.2844 20.3243C33.1723 20.3662 33.0528 20.384 32.9335 20.3767C32.7046 20.3698 32.4875 20.2723 32.3292 20.1052C32.171 19.9382 32.0842 19.715 32.0877 19.4839C32.0824 18.4214 31.8093 17.3777 31.294 16.451C30.7963 15.5005 30.0592 14.6991 29.1569 14.1275C28.2546 13.5559 27.2189 13.2342 26.1542 13.195C25.5704 13.1551 24.9839 13.1948 24.4106 13.3131C24.2944 13.3507 24.1717 13.3632 24.0504 13.3499C23.9291 13.3366 23.812 13.2977 23.7065 13.2359C23.601 13.174 23.5096 13.0905 23.4382 12.9907C23.3667 12.8909 23.3168 12.7771 23.2916 12.6567C23.2633 12.5338 23.2607 12.4063 23.2841 12.2823C23.3075 12.1584 23.3563 12.0407 23.4273 11.9369C23.4984 11.8331 23.5901 11.7454 23.6967 11.6794C23.8033 11.6134 23.9224 11.5706 24.0463 11.5538C24.6124 11.4146 25.1945 11.3528 25.7769 11.37Z" fill="#10DD8E"/>
<path d="M0.0130247 19.1161C0.10088 17.2981 0.789124 15.5619 1.96817 14.1843C3.14721 12.8067 4.74924 11.8668 6.51904 11.5143C7.62648 11.2843 8.7687 11.2843 9.87613 11.5143C10.0475 11.5546 10.2033 11.6448 10.3242 11.7738C10.4452 11.9027 10.5259 12.0646 10.5564 12.2395C10.5869 12.4143 10.5658 12.5943 10.4958 12.7571C10.4257 12.92 10.3098 13.0585 10.1624 13.1554C10.0434 13.2248 9.91158 13.2688 9.77503 13.2847C9.63848 13.3005 9.50016 13.2878 9.36868 13.2473C8.20612 12.9867 6.99372 13.0697 5.87674 13.4865C4.75976 13.9034 3.78558 14.6363 3.07086 15.5975C2.24924 16.6457 1.79202 17.9374 1.76966 19.2737C1.76966 19.917 1.43134 20.324 0.910859 20.324C0.390377 20.324 0 19.9433 0 19.2605L0.0130247 19.1161Z" fill="#10DD8E"/>
</svg>
