<svg width="441" height="291" viewBox="0 0 441 291" fill="none" xmlns="http://www.w3.org/2000/svg">
<g clip-path="url(#clip0_48:2941)">
<path d="M291.993 32.1352C292.876 38.0933 291.971 44.1793 289.393 49.6227C286.815 55.066 282.68 59.6219 277.511 62.7134C272.343 65.8049 266.373 67.293 260.359 66.9892C254.344 66.6855 248.555 64.6036 243.724 61.0072C238.893 57.4108 235.237 52.4616 233.221 46.7862C231.204 41.1109 230.917 34.9646 232.395 29.1258C233.873 23.287 237.051 18.0182 241.525 13.9866C245.999 9.95489 251.569 7.3417 257.529 6.47788C265.501 5.31085 273.61 7.35817 280.073 12.1696C286.536 16.9811 290.824 24.1627 291.993 32.1352Z" fill="#F5F5F5"/>
<path d="M284.828 33.1423C285.497 37.6815 284.805 42.3172 282.839 46.4627C280.873 50.6082 277.721 54.0771 273.782 56.4303C269.844 58.7834 265.296 59.915 260.714 59.6818C256.132 59.4487 251.723 57.8614 248.043 55.1207C244.364 52.3799 241.581 48.609 240.045 44.2854C238.51 39.9617 238.292 35.2796 239.418 30.8318C240.545 26.384 242.965 22.3704 246.374 19.2992C249.782 16.2279 254.025 14.2371 258.565 13.5786C264.64 12.6975 270.817 14.2624 275.741 17.93C280.664 21.5975 283.932 27.0682 284.828 33.1423Z" fill="#ECECEC"/>
<path d="M284.719 32.4248C284.582 32.4248 284.335 31.4539 283.712 29.7512C282.843 27.3593 281.606 25.1177 280.046 23.1068C278.979 21.7341 277.764 20.4826 276.424 19.3751C274.874 18.1189 273.17 17.067 271.352 16.2451C270.374 15.7997 269.364 15.4268 268.331 15.1292C267.258 14.8028 266.16 14.5605 265.049 14.4046C263.902 14.2489 262.744 14.1811 261.586 14.2017C260.391 14.232 259.2 14.3483 258.022 14.5495C256.849 14.7642 255.694 15.0645 254.566 15.448C252.408 16.1936 250.376 17.2612 248.538 18.6145C247.67 19.2499 246.849 19.9473 246.082 20.7012C243.416 23.3258 241.428 26.5582 240.286 30.1207C239.513 32.545 239.124 35.0756 239.134 37.6202C239.134 39.4317 239.243 40.4533 239.134 40.475C239.025 40.4967 238.685 39.5186 238.467 37.6565C238.189 35.009 238.407 32.3327 239.112 29.7657C239.591 27.9819 240.282 26.262 241.17 24.6428C242.2 22.7751 243.477 21.0547 244.966 19.5274C245.773 18.701 246.64 17.9356 247.56 17.2376C248.518 16.5051 249.533 15.8509 250.596 15.2813C251.696 14.6838 252.841 14.1749 254.022 13.7596C255.242 13.3395 256.492 13.0126 257.761 12.7815C259.029 12.5611 260.313 12.44 261.601 12.4193C262.851 12.3986 264.102 12.4809 265.339 12.6655C266.534 12.8363 267.714 13.1004 268.867 13.4554C269.973 13.7925 271.05 14.214 272.091 14.7161C275.702 16.4308 278.811 19.0458 281.118 22.3097C282.659 24.4802 283.784 26.9174 284.437 29.4977C284.813 31.3671 284.821 32.4031 284.719 32.4248Z" fill="#E1E1E1"/>
<path d="M266.498 49.7788L267.136 53.7713L263.578 54.3363L262.955 50.4599C259.398 50.8077 255.841 50.2498 253.638 49.0107L254.899 44.359C257.17 45.4648 259.688 45.9641 262.209 45.8082L261.26 39.8592C257.152 39.5331 252.566 38.9246 251.711 33.8308C251.11 30.063 253.334 26.382 258.855 24.8386L258.217 20.8897L261.782 20.3173L262.397 24.2011C264.968 23.9314 267.566 24.2791 269.976 25.2154L268.896 29.8744C267.065 29.1704 265.112 28.838 263.151 28.8964L264.122 34.9538C268.222 35.2436 272.772 35.8669 273.54 40.881C274.149 44.5691 271.954 48.2065 266.498 49.7788ZM260.42 34.6132L259.608 29.5412C257.79 30.2657 257.21 31.4178 257.398 32.5989C257.587 33.7799 258.753 34.3669 260.398 34.6132H260.42ZM267.918 42.2141C267.715 40.9678 266.578 40.4607 264.962 40.1709L265.745 45.0836C267.44 44.4025 268.077 43.3517 267.896 42.2141H267.918Z" fill="#E1E1E1"/>
<path d="M450.752 163.089C450.752 163.089 444.007 159.191 437.037 175.182C430.068 191.174 427.619 200.296 427.619 200.296C427.619 200.296 425.728 203.673 423.366 201.68C421.004 199.687 417.57 193.847 413.853 195.159C409.992 196.521 408.956 200.992 410.093 207.404C411.231 213.817 413.216 227.946 413.39 229.229C413.564 230.511 412.948 232.388 411.122 231.286C409.296 230.185 398.537 219.563 393.807 224.975C389.076 230.388 395.176 247.713 395.806 249.611C396.436 251.509 396.11 252.364 395.219 252.901C394.328 253.437 391.046 249.524 387.858 246.633C384.671 243.742 380.476 240.931 378.005 244.285C375.535 247.64 375.477 260.951 389.365 281.659L396.429 290.847L408.021 289.506C432.596 285.159 442.123 275.87 442.797 271.769C443.471 267.668 438.566 266.581 434.27 266.298C429.973 266.016 424.851 266.363 424.648 265.349C424.445 264.335 424.8 263.509 426.612 262.639C428.423 261.77 445.144 254.147 445.76 246.981C446.376 239.815 431.27 239.438 429.198 238.887C427.126 238.337 428.09 236.576 429.111 235.822C430.133 235.069 441.703 226.685 447.115 223.062C452.527 219.439 455.026 215.592 453.324 211.86C451.679 208.237 445.101 209.853 442.029 209.527C438.957 209.201 440.08 205.506 440.08 205.506C440.08 205.506 444.949 197.405 451.629 181.29C458.308 165.176 450.621 163.002 450.621 163.002" fill="#ECECEC"/>
<path d="M396.856 288.463C401.805 276.645 408.782 260.378 416.555 242.438C424.329 224.497 431.335 208.259 436.349 196.47L442.275 182.508L443.898 178.711L444.325 177.725C444.427 177.508 444.485 177.399 444.485 177.399C444.485 177.399 444.485 177.515 444.362 177.74L443.97 178.74L442.42 182.566C441.072 185.884 439.087 190.673 436.624 196.579C431.676 208.397 424.699 224.656 416.932 242.597C409.166 260.538 402.145 276.783 397.132 288.572" fill="#E1E1E1"/>
<path d="M418.294 203.528C418.443 203.767 418.56 204.026 418.642 204.296C418.845 204.796 419.113 205.527 419.432 206.469C420.069 208.288 420.881 210.817 421.736 213.635C422.591 216.454 423.293 218.903 423.909 220.838C424.163 221.7 424.38 222.425 424.561 223.012C424.663 223.275 424.734 223.55 424.771 223.83C424.621 223.59 424.502 223.332 424.416 223.062C424.221 222.562 423.953 221.83 423.641 220.889C423.018 219.07 422.236 216.541 421.388 213.715L419.215 206.52L418.548 204.346C418.435 204.083 418.35 203.809 418.294 203.528Z" fill="#E1E1E1"/>
<path d="M425.807 223.939C425.807 223.838 430.915 221.925 437.298 219.664C443.681 217.403 448.89 215.657 448.89 215.758C448.89 215.86 443.818 217.78 437.399 220.041C430.98 222.302 425.844 224.04 425.807 223.939Z" fill="#E1E1E1"/>
<path d="M412.636 250.959C412.916 250.893 413.203 250.859 413.491 250.857L415.809 250.72C417.773 250.604 420.475 250.437 423.453 250.14C426.43 249.843 429.118 249.495 431.067 249.227L433.371 248.915C433.652 248.855 433.939 248.831 434.226 248.843C433.958 248.949 433.678 249.024 433.393 249.067C432.857 249.183 432.081 249.336 431.111 249.502C429.169 249.843 426.481 250.227 423.489 250.531C420.497 250.835 417.787 250.959 415.824 251.002C414.838 251.002 414.041 251.002 413.491 251.002C413.205 251.022 412.918 251.007 412.636 250.959Z" fill="#E1E1E1"/>
<path d="M401.783 233.982C401.972 234.168 402.14 234.374 402.283 234.598C402.58 235.011 403.007 235.612 403.515 236.358C404.543 237.858 405.942 239.938 407.463 242.256C408.984 244.575 410.361 246.676 411.31 248.213C411.796 248.981 412.179 249.604 412.44 250.046C412.598 250.268 412.722 250.512 412.81 250.77C412.62 250.582 412.452 250.373 412.31 250.147C412.013 249.741 411.585 249.14 411.078 248.386C410.049 246.894 408.651 244.807 407.13 242.496C405.608 240.184 404.232 238.076 403.283 236.54C402.797 235.772 402.413 235.141 402.152 234.706C401.997 234.483 401.873 234.239 401.783 233.982Z" fill="#E1E1E1"/>
<path d="M387.126 256.35C387.363 256.593 387.574 256.86 387.757 257.147L389.343 259.4C390.669 261.313 392.48 263.965 394.458 266.914C396.436 269.863 398.211 272.544 399.479 274.493L400.964 276.819C401.162 277.093 401.329 277.386 401.464 277.696C401.228 277.457 401.019 277.192 400.841 276.906C400.421 276.305 399.885 275.551 399.247 274.652C397.921 272.74 396.11 270.08 394.132 267.139C392.154 264.197 390.379 261.509 389.112 259.56L387.663 257.234C387.453 256.959 387.273 256.662 387.126 256.35Z" fill="#E1E1E1"/>
<path d="M401.254 277.094C401.606 277.008 401.965 276.957 402.326 276.942L405.268 276.667C407.746 276.428 411.165 276.087 414.94 275.616C418.715 275.145 422.112 274.631 424.568 274.239L427.466 273.783C427.82 273.714 428.179 273.672 428.539 273.66C428.201 273.787 427.852 273.879 427.495 273.935C426.814 274.087 425.822 274.29 424.597 274.515C422.141 274.979 418.743 275.537 414.962 276.008C411.18 276.479 407.717 276.776 405.268 276.942C404.022 277.022 403.015 277.08 402.312 277.094C401.96 277.122 401.606 277.122 401.254 277.094Z" fill="#E1E1E1"/>
<path d="M193.324 212.136L55.2644 169.154C53.5601 168.623 52.1363 167.437 51.3062 165.857C50.476 164.277 50.3075 162.431 50.8378 160.727L77.405 75.4144C77.9369 73.7113 79.1232 72.289 80.7032 71.4602C82.2831 70.6314 84.1275 70.4638 85.8309 70.9944L223.898 114.013C224.741 114.275 225.525 114.7 226.204 115.265C226.883 115.83 227.445 116.523 227.856 117.305C228.267 118.087 228.52 118.943 228.6 119.822C228.681 120.702 228.587 121.589 228.325 122.433L201.772 207.745C201.506 208.588 201.076 209.37 200.507 210.047C199.938 210.724 199.242 211.283 198.458 211.691C197.673 212.098 196.816 212.347 195.935 212.424C195.054 212.5 194.167 212.402 193.324 212.136Z" fill="#E1E1E1"/>
<path d="M200.982 131.888C200.342 133.949 199.105 135.774 197.427 137.132C195.75 138.49 193.707 139.32 191.558 139.517C189.409 139.714 187.25 139.269 185.354 138.238C183.458 137.208 181.909 135.638 180.905 133.728C179.901 131.817 179.486 129.652 179.712 127.506C179.938 125.359 180.796 123.328 182.176 121.669C183.557 120.01 185.398 118.798 187.468 118.186C189.537 117.574 191.742 117.589 193.802 118.23C196.565 119.089 198.874 121.011 200.22 123.572C201.567 126.133 201.841 129.125 200.982 131.888Z" fill="white"/>
<path d="M201.721 143.829C199.026 143.497 196.539 142.21 194.711 140.201C192.883 138.193 191.835 135.596 191.756 132.881C191.678 130.166 192.575 127.513 194.284 125.403C195.993 123.292 198.402 121.864 201.073 121.376C203.745 120.889 206.502 121.375 208.847 122.746C211.191 124.117 212.966 126.283 213.851 128.85C214.737 131.418 214.673 134.218 213.672 136.742C212.67 139.267 210.798 141.349 208.394 142.612C206.347 143.692 204.017 144.117 201.721 143.829ZM204.416 122.172C202.441 121.925 200.437 122.247 198.639 123.1C196.841 123.952 195.323 125.3 194.264 126.985C193.205 128.67 192.648 130.623 192.659 132.613C192.671 134.603 193.249 136.549 194.327 138.222C195.405 139.895 196.938 141.226 198.746 142.058C200.554 142.89 202.561 143.19 204.533 142.921C206.505 142.653 208.359 141.827 209.878 140.542C211.398 139.256 212.519 137.564 213.11 135.663C213.929 133.013 213.664 130.147 212.374 127.691C211.084 125.236 208.874 123.392 206.227 122.563C205.637 122.377 205.031 122.246 204.416 122.172Z" fill="white"/>
<path d="M73.2174 135.96L70.6092 144.337L69.7471 144.068L72.1162 136.475L70.1383 135.866L70.3774 135.098L73.2174 135.96Z" fill="white"/>
<path d="M79.4626 146.257L79.2236 147.018L73.3479 145.17L73.5363 144.554L78.0788 142.228C79.3177 141.59 79.6727 141.083 79.8539 140.511C80.1509 139.54 79.6583 138.728 78.4049 138.337C77.9856 138.179 77.5361 138.117 77.0897 138.156C76.6433 138.195 76.2113 138.333 75.8257 138.562L75.3837 137.837C75.886 137.548 76.4457 137.374 77.023 137.327C77.6002 137.279 78.1809 137.359 78.7237 137.562C80.419 138.091 81.2304 139.286 80.7957 140.692C80.5494 141.489 80.0712 142.141 78.6222 142.866L74.9056 144.786L79.4626 146.257Z" fill="white"/>
<path d="M88.7288 147.561L87.0553 147.039L86.367 149.213L85.5048 148.945L86.1931 146.771L81.4622 145.322L81.6578 144.699L87.8305 140.525L88.7868 140.83L82.817 144.902L86.4394 146.039L87.0408 144.098L87.8812 144.358L87.2799 146.293L88.9534 146.815L88.7288 147.561Z" fill="white"/>
<path d="M101.567 151.561L99.8933 151.039L99.1688 153.213L98.3066 152.945L99.0311 150.771L94.3074 149.322L94.4957 148.699L100.668 144.525L101.625 144.822L95.6549 148.901L99.2774 150.032L99.886 148.097L100.719 148.358L100.118 150.293L101.791 150.814L101.567 151.561Z" fill="white"/>
<path d="M108.971 153.575C108.529 155.024 107.189 155.807 105.146 155.169C104.031 154.863 103.074 154.142 102.473 153.155L103.103 152.604C103.6 153.469 104.417 154.104 105.378 154.372C106.827 154.814 107.769 154.372 108.087 153.343C108.406 152.314 107.964 151.387 105.834 150.72L104.045 150.162L105.784 146.097L110.37 147.546L110.131 148.315L106.305 147.119L105.182 149.698L106.262 150.039C108.79 150.8 109.435 152.09 108.971 153.575Z" fill="white"/>
<path d="M117.252 156.118C116.767 157.684 115.217 158.292 113.586 157.799C111.362 157.111 110.638 155.191 111.456 152.539C112.348 149.691 114.354 148.691 116.637 149.402C117.338 149.587 117.976 149.957 118.484 150.474L117.919 151.061C117.516 150.62 116.992 150.307 116.412 150.162C114.608 149.597 113.087 150.394 112.377 152.669C112.319 152.865 112.253 153.104 112.203 153.394C112.587 153.007 113.077 152.74 113.611 152.626C114.145 152.513 114.701 152.558 115.209 152.756C116.89 153.242 117.745 154.59 117.252 156.118ZM116.39 155.879C116.738 154.778 116.144 153.814 114.847 153.416C113.55 153.017 112.449 153.532 112.123 154.575C111.84 155.495 112.333 156.611 113.782 157.06C114.03 157.173 114.299 157.232 114.571 157.233C114.843 157.233 115.113 157.176 115.361 157.064C115.609 156.952 115.831 156.789 116.011 156.584C116.191 156.38 116.325 156.14 116.405 155.879H116.39Z" fill="white"/>
<path d="M128.699 159.785C128.265 161.183 126.91 161.958 124.888 161.314C123.772 161.005 122.815 160.285 122.208 159.299L122.838 158.749C123.342 159.617 124.167 160.255 125.135 160.524C126.526 160.958 127.489 160.524 127.815 159.509C128.141 158.495 127.627 157.625 126.069 157.14L125.475 156.952L125.671 156.321L128.895 154.147L124.613 152.814L124.852 152.046L130.235 153.72L130.047 154.336L126.75 156.575C128.511 157.22 129.119 158.444 128.699 159.785Z" fill="white"/>
<path d="M137.132 162.299C136.64 163.871 135.097 164.473 133.467 163.987C131.242 163.263 130.511 161.371 131.337 158.727C132.228 155.879 134.235 154.879 136.517 155.582C137.218 155.77 137.856 156.143 138.364 156.662L137.799 157.249C137.396 156.805 136.872 156.49 136.292 156.343C134.488 155.778 132.967 156.582 132.257 158.857C132.199 159.046 132.133 159.292 132.083 159.582C132.467 159.194 132.957 158.928 133.491 158.814C134.025 158.701 134.581 158.746 135.089 158.944C136.756 159.43 137.611 160.77 137.132 162.299ZM136.27 162.06C136.618 160.959 136.024 160.002 134.727 159.596C133.43 159.19 132.329 159.719 132.003 160.756C131.72 161.683 132.213 162.792 133.662 163.241C134.872 163.618 135.93 163.176 136.27 162.06Z" fill="white"/>
<path d="M146.667 158.821L146.478 159.437L140.552 166.11L139.617 165.82L145.413 159.299L141.103 157.959L140.617 159.531L139.77 159.263L140.494 156.93L146.667 158.821Z" fill="white"/>
<path d="M158.643 162.56L158.454 163.169L152.528 169.849L151.593 169.559L157.389 163.038L153.078 161.698L152.593 163.263L151.745 163.002L152.47 160.669L158.643 162.56Z" fill="white"/>
<path d="M165.011 171.168C164.547 172.617 163.004 173.182 161.004 172.559C159.005 171.936 158.056 170.632 158.519 169.146C158.659 168.666 158.961 168.249 159.373 167.965C159.784 167.682 160.281 167.548 160.78 167.588C160.433 167.34 160.176 166.987 160.045 166.581C159.915 166.176 159.918 165.739 160.055 165.335C160.483 163.973 161.91 163.48 163.678 164.031C165.446 164.581 166.373 165.806 165.945 167.168C165.828 167.585 165.578 167.953 165.233 168.214C164.887 168.476 164.466 168.618 164.033 168.617C164.456 168.873 164.782 169.263 164.959 169.725C165.136 170.187 165.155 170.694 165.011 171.168ZM164.127 170.878C164.446 169.849 163.765 168.929 162.279 168.465C160.794 168.001 159.722 168.378 159.382 169.407C159.041 170.436 159.736 171.363 161.214 171.827C162.692 172.291 163.801 171.921 164.127 170.878ZM162.49 167.784C163.794 168.19 164.757 167.842 165.04 166.936C165.322 166.031 164.685 165.154 163.431 164.763C162.178 164.371 161.178 164.697 160.888 165.632C160.599 166.567 161.185 167.378 162.49 167.784Z" fill="white"/>
<path d="M173.763 171.769C172.872 174.617 170.865 175.617 168.583 174.914C167.883 174.726 167.245 174.356 166.735 173.842L167.3 173.255C167.704 173.692 168.224 174.004 168.8 174.153C170.611 174.718 172.133 173.914 172.843 171.639C172.901 171.45 172.966 171.204 173.017 170.914C172.632 171.302 172.143 171.569 171.609 171.682C171.074 171.795 170.519 171.75 170.01 171.552C168.344 171.03 167.489 169.69 167.967 168.161C168.445 166.632 170.003 165.987 171.589 166.472C173.843 167.204 174.567 169.125 173.763 171.769ZM173.089 169.74C173.379 168.813 172.886 167.704 171.437 167.255C171.19 167.145 170.922 167.088 170.651 167.088C170.379 167.089 170.112 167.147 169.865 167.258C169.617 167.37 169.397 167.533 169.217 167.736C169.037 167.939 168.903 168.177 168.822 168.436C168.481 169.538 169.075 170.494 170.372 170.9C171.669 171.306 172.756 170.777 173.075 169.74H173.089Z" fill="white"/>
<path d="M183.522 170.298L180.914 178.674L180.052 178.406L182.421 170.798L180.45 170.182L180.689 169.414L183.522 170.298Z" fill="white"/>
<path d="M189.767 180.595L189.528 181.363L183.652 179.529L183.848 178.921L188.391 176.595C189.622 175.95 189.977 175.443 190.158 174.87C190.463 173.9 189.963 173.088 188.709 172.697C188.291 172.538 187.843 172.476 187.398 172.515C186.952 172.554 186.522 172.693 186.137 172.921L185.688 172.197C186.19 171.908 186.75 171.734 187.327 171.686C187.905 171.639 188.485 171.719 189.028 171.921C190.731 172.45 191.542 173.653 191.1 175.052C190.854 175.856 190.376 176.501 188.927 177.225L185.203 179.138L189.767 180.595Z" fill="white"/>
<path d="M197.794 181.29C197.359 182.696 196.005 183.464 193.983 182.826C192.865 182.518 191.906 181.795 191.303 180.805L191.933 180.254C192.437 181.125 193.261 181.765 194.23 182.036C195.621 182.464 196.584 182.037 196.91 181.015C197.236 179.993 196.722 179.131 195.164 178.645L194.57 178.464L194.766 177.827L197.99 175.653L193.708 174.312L193.947 173.552L199.33 175.225L199.142 175.834L195.845 178.08C197.613 178.725 198.214 179.95 197.794 181.29Z" fill="white"/>
<path d="M130.758 169.975L129.626 173.614L196.733 194.505L197.866 190.866L130.758 169.975Z" fill="white"/>
<path d="M161.187 187.451L160.054 191.09L194.476 201.806L195.609 198.167L161.187 187.451Z" fill="white"/>
<g opacity="0.5">
<path opacity="0.5" d="M101.638 113.803L80.3391 107.173C78.4441 106.583 76.4298 107.641 75.84 109.536L71.4279 123.712C70.8381 125.607 71.896 127.622 73.791 128.212L95.0902 134.842C96.9851 135.432 98.9995 134.374 99.5894 132.479L104.001 118.303C104.591 116.408 103.533 114.393 101.638 113.803Z" fill="#ECECEC"/>
</g>
<path d="M72.167 121.317L72.5872 119.969L87.0771 124.483C87.875 124.709 88.7295 124.614 89.4587 124.219C90.1878 123.824 90.7339 123.16 90.9804 122.368C91.227 121.577 91.1546 120.72 90.7787 119.981C90.4028 119.241 89.7531 118.678 88.968 118.411L74.4781 113.897L74.8984 112.549L89.3882 117.063C90.5157 117.454 91.4468 118.268 91.9846 119.333C92.5225 120.399 92.6247 121.631 92.2698 122.77C91.9149 123.91 91.1306 124.866 90.083 125.437C89.0354 126.009 87.8067 126.15 86.6569 125.831L72.167 121.317Z" fill="#E1E1E1"/>
<path d="M81.9883 127.918L81.5645 129.26L91.4686 132.389L91.8924 131.046L81.9883 127.918Z" fill="#E1E1E1"/>
<path d="M158.155 112.394L85.7351 89.8492L83.8015 96.0619L156.222 118.607L158.155 112.394Z" fill="white"/>
<path d="M108.095 252.589C108.65 256.355 108.076 260.201 106.445 263.641C104.814 267.08 102.199 269.958 98.9314 271.911C95.6639 273.863 91.8907 274.802 88.0894 274.609C84.288 274.416 80.6293 273.1 77.5765 270.826C74.5238 268.552 72.2141 265.424 70.9398 261.837C69.6655 258.25 69.484 254.365 70.4182 250.675C71.3523 246.985 73.3602 243.655 76.1877 241.106C79.0151 238.558 82.535 236.905 86.3018 236.358C88.7984 235.992 91.3428 236.121 93.7894 236.739C96.2361 237.357 98.5371 238.45 100.561 239.957C102.585 241.465 104.292 243.356 105.584 245.523C106.877 247.691 107.73 250.092 108.095 252.589Z" fill="#F5F5F5"/>
<path d="M103.567 253.248C103.991 256.119 103.554 259.052 102.311 261.674C101.068 264.297 99.0755 266.492 96.5848 267.981C94.0941 269.47 91.2176 270.187 88.3195 270.04C85.4213 269.893 82.6318 268.89 80.3041 267.157C77.9765 265.424 76.2152 263.039 75.2435 260.304C74.2717 257.57 74.133 254.608 74.845 251.795C75.557 248.981 77.0876 246.442 79.2431 244.499C81.3987 242.556 84.0822 241.297 86.9539 240.88C88.857 240.6 90.7965 240.697 92.6617 241.168C94.5269 241.638 96.2811 242.471 97.824 243.62C99.3669 244.769 100.668 246.21 101.654 247.862C102.639 249.514 103.289 251.345 103.567 253.248Z" fill="#ECECEC"/>
<path d="M103.487 252.792C103.218 252.252 103.004 251.686 102.849 251.104C102.301 249.59 101.519 248.172 100.531 246.901C99.8524 246.031 99.0797 245.239 98.227 244.539C97.2488 243.745 96.1726 243.08 95.0247 242.561C94.4092 242.271 93.7721 242.028 93.1193 241.836C92.4395 241.632 91.7441 241.484 91.04 241.394C90.3201 241.293 89.5933 241.25 88.8665 241.264C88.1137 241.283 87.3632 241.356 86.6206 241.481C85.8834 241.62 85.157 241.811 84.4471 242.054C83.7543 242.294 83.081 242.587 82.433 242.93C81.8069 243.259 81.2062 243.635 80.6363 244.053C80.0907 244.461 79.5727 244.904 79.0858 245.379C77.394 247.038 76.133 249.085 75.4127 251.343C74.9273 252.878 74.6829 254.479 74.6882 256.089C74.75 256.689 74.75 257.293 74.6882 257.893C74.4208 257.336 74.2774 256.728 74.268 256.111C74.0902 254.438 74.2278 252.747 74.6737 251.125C74.9757 249.995 75.4136 248.905 75.9778 247.879C76.6263 246.698 77.4331 245.611 78.3758 244.648C78.8858 244.126 79.4331 243.641 80.0132 243.198C80.6221 242.736 81.2665 242.321 81.9404 241.959C83.357 241.198 84.8853 240.664 86.4684 240.38C87.2705 240.242 88.0818 240.164 88.8955 240.148C89.6881 240.139 90.4803 240.192 91.2646 240.307C92.0185 240.412 92.7625 240.579 93.4888 240.807C95.4795 241.42 97.3204 242.442 98.8935 243.807C99.7741 244.58 100.562 245.453 101.241 246.408C102.213 247.781 102.923 249.321 103.335 250.951C103.518 251.547 103.57 252.175 103.487 252.792Z" fill="#E1E1E1"/>
<path d="M91.9601 263.769L92.3586 266.291L90.1127 266.653L89.7214 264.197C87.7096 264.458 85.6648 264.144 83.8241 263.291L84.65 260.378C86.0872 261.072 87.6797 261.382 89.2723 261.277L88.6709 257.516C86.0772 257.313 83.1503 256.922 82.6359 253.705C82.2519 251.314 83.6574 248.988 87.1495 248.017L86.751 245.517L89.0042 245.155L89.3954 247.611C91.0197 247.441 92.6611 247.66 94.1843 248.249L93.5033 251.205C92.3491 250.759 91.1177 250.547 89.8808 250.582L90.4894 254.408C93.0831 254.596 95.9666 254.987 96.4737 258.161C96.807 260.48 95.4232 262.777 91.9601 263.769ZM88.1131 254.176L87.5987 250.98C86.454 251.444 86.0845 252.169 86.2004 252.915C86.3163 253.661 87.0698 254.024 88.1131 254.176ZM92.8585 258.987C92.7281 258.197 92.0108 257.871 90.9821 257.69L91.482 260.799C92.5687 260.378 92.9672 259.704 92.8585 258.987Z" fill="#E1E1E1"/>
<path d="M395.509 260.596C394.103 262.603 391.372 261.936 390.104 260.711C388.836 259.487 388.307 257.719 387.815 256.023C386.706 252.154 385.583 248.097 386.409 244.162C386.607 242.968 387.131 241.852 387.923 240.938C388.325 240.486 388.838 240.148 389.412 239.957C389.985 239.766 390.599 239.73 391.191 239.851C392.568 240.213 393.422 241.561 394.038 242.843C395.861 246.631 396.817 250.777 396.835 254.98C396.835 256.936 396.61 258.987 395.509 260.596Z" fill="#FF4F5B"/>
<path d="M395.509 260.596C394.103 262.603 391.372 261.936 390.104 260.711C388.836 259.487 388.307 257.719 387.815 256.023C386.706 252.154 385.583 248.097 386.409 244.162C386.607 242.968 387.131 241.852 387.923 240.938C388.325 240.486 388.838 240.148 389.412 239.957C389.985 239.766 390.599 239.73 391.191 239.851C392.568 240.213 393.422 241.561 394.038 242.843C395.861 246.631 396.817 250.777 396.835 254.98C396.835 256.936 396.61 258.987 395.509 260.596Z" fill="#374142"/>
<path d="M390.242 270.754C387.887 269.654 385.242 269.334 382.693 269.841C381.298 269.965 379.984 270.552 378.961 271.508C378.027 272.537 377.853 274.348 378.925 275.232C379.616 275.694 380.445 275.904 381.273 275.827C383.272 275.827 385.489 275.45 387.069 276.652C387.974 277.341 388.583 278.478 389.669 278.826C390.214 278.953 390.785 278.9 391.296 278.674C391.807 278.448 392.23 278.061 392.502 277.573C393.016 276.57 393.129 275.41 392.821 274.327C392.696 273.572 392.398 272.857 391.951 272.238C391.503 271.618 390.918 271.11 390.242 270.754Z" fill="#374142"/>
<path d="M399.363 263.48C398.64 262.536 398.159 261.43 397.961 260.259C397.762 259.087 397.853 257.884 398.226 256.755C398.991 254.493 400.367 252.486 402.203 250.959C404.281 249.108 406.701 247.681 409.325 246.756C410.343 246.344 411.438 246.159 412.535 246.213C413.081 246.244 413.611 246.408 414.08 246.691C414.548 246.974 414.94 247.367 415.222 247.836C415.947 249.285 415.222 251.002 414.498 252.415C413.127 254.911 411.562 257.295 409.818 259.545C408.412 261.349 406.811 263.168 404.674 263.95C402.536 264.733 400.327 264.675 399.182 263.226" fill="#374142"/>
<path d="M395.603 290.861C395.525 290.563 395.481 290.257 395.473 289.948C395.408 289.282 395.328 288.448 395.234 287.463C395.11 286.246 394.922 285.037 394.669 283.84C394.345 282.372 393.902 280.932 393.343 279.536C392.808 278.14 392.076 276.827 391.169 275.638C390.426 274.67 389.475 273.88 388.387 273.327C387.651 272.962 386.861 272.718 386.047 272.602C385.741 272.593 385.438 272.549 385.142 272.471C385.447 272.437 385.756 272.437 386.062 272.471C386.907 272.536 387.734 272.752 388.503 273.109C389.637 273.652 390.629 274.451 391.401 275.442C392.355 276.645 393.124 277.984 393.683 279.413C394.242 280.823 394.681 282.277 394.995 283.76C395.231 284.981 395.393 286.215 395.48 287.456C395.56 288.514 395.589 289.369 395.603 289.963C395.631 290.262 395.631 290.563 395.603 290.861Z" fill="#1A2E35"/>
<path d="M395.458 288.948C395.44 288.806 395.44 288.663 395.458 288.521V287.311C395.458 286.26 395.458 284.746 395.408 282.869C395.313 279.116 394.987 273.935 394.364 268.247C393.741 262.559 392.915 257.429 392.147 253.756C391.966 252.835 391.785 252.002 391.611 251.277C391.437 250.553 391.314 249.923 391.177 249.415C391.039 248.908 390.974 248.546 390.894 248.241C390.857 248.104 390.833 247.963 390.822 247.821C390.887 247.948 390.938 248.081 390.974 248.22C391.061 248.524 391.177 248.944 391.321 249.379C391.466 249.814 391.64 250.502 391.821 251.227C392.002 251.951 392.205 252.777 392.408 253.698C393.442 258.483 394.221 263.321 394.741 268.189C395.364 273.892 395.647 279.058 395.668 282.847C395.668 284.731 395.668 286.253 395.603 287.304C395.603 287.796 395.552 288.195 395.531 288.514C395.525 288.661 395.5 288.807 395.458 288.948Z" fill="#1A2E35"/>
<path d="M395.407 278.928C395.373 278.508 395.373 278.086 395.407 277.667C395.451 276.855 395.567 275.681 395.791 274.239C396.423 270.502 397.498 266.853 398.994 263.371C400.439 259.847 402.514 256.616 405.116 253.835C405.57 253.358 406.054 252.911 406.565 252.495C406.782 252.307 406.978 252.125 407.18 251.973L407.738 251.589C408.076 251.336 408.432 251.109 408.803 250.908C407.578 251.87 406.414 252.909 405.319 254.016C402.798 256.82 400.776 260.036 399.341 263.523C398.516 265.424 397.816 267.377 397.248 269.37C396.768 270.996 396.372 272.646 396.059 274.312C395.799 275.761 395.647 276.891 395.56 277.696C395.539 278.109 395.488 278.521 395.407 278.928Z" fill="#1A2E35"/>
<path d="M237.989 221.454L125.845 102.818C125.564 102.521 125.344 102.172 125.198 101.79C125.052 101.409 124.983 101.002 124.994 100.593C125.006 100.185 125.098 99.7827 125.265 99.4097C125.432 99.0368 125.671 98.7003 125.968 98.4198L199.569 28.86C199.866 28.579 200.215 28.3592 200.597 28.2133C200.979 28.0673 201.385 27.9982 201.794 28.0096C202.202 28.0211 202.604 28.1129 202.977 28.2799C203.35 28.447 203.687 28.6859 203.967 28.9831L316.112 147.612C316.393 147.909 316.613 148.259 316.759 148.641C316.905 149.023 316.974 149.431 316.963 149.84C316.951 150.249 316.859 150.652 316.692 151.025C316.525 151.399 316.286 151.736 315.988 152.017L242.387 221.577C242.09 221.858 241.741 222.078 241.359 222.224C240.978 222.369 240.571 222.439 240.163 222.427C239.754 222.416 239.352 222.324 238.979 222.157C238.606 221.99 238.27 221.751 237.989 221.454Z" fill="#FF4F5B"/>
<path d="M237.989 221.454L125.845 102.818C125.564 102.521 125.344 102.172 125.198 101.79C125.052 101.409 124.983 101.002 124.994 100.593C125.006 100.185 125.098 99.7827 125.265 99.4097C125.432 99.0368 125.671 98.7003 125.968 98.4198L199.569 28.86C199.866 28.579 200.215 28.3592 200.597 28.2133C200.979 28.0673 201.385 27.9982 201.794 28.0096C202.202 28.0211 202.604 28.1129 202.977 28.2799C203.35 28.447 203.687 28.6859 203.967 28.9831L316.112 147.612C316.393 147.909 316.613 148.259 316.759 148.641C316.905 149.023 316.974 149.431 316.963 149.84C316.951 150.249 316.859 150.652 316.692 151.025C316.525 151.399 316.286 151.736 315.988 152.017L242.387 221.577C242.09 221.858 241.741 222.078 241.359 222.224C240.978 222.369 240.571 222.439 240.163 222.427C239.754 222.416 239.352 222.324 238.979 222.157C238.606 221.99 238.27 221.751 237.989 221.454Z" fill="#021B1E"/>
<path d="M315.293 146.72L204.786 29.8166C204.397 29.4059 203.932 29.0756 203.415 28.8449C202.899 28.6142 202.343 28.4877 201.777 28.4722C201.212 28.4567 200.65 28.5528 200.122 28.7549C199.593 28.957 199.11 29.2611 198.7 29.65L177.791 49.4238C177.583 49.6159 177.426 49.8571 177.335 50.1254C177.244 50.3938 177.221 50.6806 177.269 50.9599C179.356 62.6546 187.724 73.1104 197.686 80.0301C209.734 88.4063 223.999 92.8117 237.569 98.4054C251.139 103.999 264.738 111.354 272.874 123.563C280.546 135.091 282.365 149.38 286.262 162.69C287.314 166.305 288.634 169.836 290.211 173.255C290.326 173.502 290.498 173.719 290.713 173.887C290.928 174.055 291.18 174.17 291.449 174.221C291.717 174.273 291.993 174.26 292.255 174.184C292.518 174.108 292.758 173.971 292.957 173.784L315.119 152.829C315.534 152.441 315.869 151.974 316.102 151.456C316.336 150.938 316.465 150.379 316.481 149.811C316.497 149.243 316.4 148.677 316.196 148.147C315.993 147.616 315.685 147.131 315.293 146.72Z" fill="#374142"/>
<path d="M203.155 63.8429C202.156 64.7921 200.83 64.5674 199.395 63.024L196.562 60.0316L202.358 54.5682L205.032 57.3942C206.394 58.8434 206.481 60.1476 205.597 61.0171C205.338 61.27 205.013 61.4449 204.66 61.5218C204.306 61.5987 203.938 61.5744 203.597 61.4518C203.804 61.8417 203.873 62.2903 203.793 62.7244C203.713 63.1585 203.488 63.5527 203.155 63.8429ZM202.598 56.8508L201.235 58.1404L202.489 59.4664C203.105 60.1185 203.677 60.2562 204.126 59.8287C204.575 59.4012 204.467 58.8288 203.851 58.1766L202.598 56.8508ZM202.025 62.3647C202.511 61.901 202.387 61.3142 201.735 60.6186L200.286 59.0606L198.837 60.4084L200.286 61.9734C200.96 62.6618 201.525 62.8357 202.018 62.3647H202.025Z" fill="white"/>
<path d="M207.372 68.9802L204.836 66.2991L203.112 66.9586L201.815 65.589L210.031 62.6907L211.284 64.0095L207.944 72.0596L206.619 70.6611L207.372 68.9802ZM207.988 67.6034L209.335 64.5892L206.256 65.7701L207.988 67.6034Z" fill="white"/>
<path d="M219.305 72.5016L213.509 77.9722L212.473 76.8708L213.255 70.6684L209.741 73.987L208.495 72.6682L214.291 67.2048L215.334 68.3062L214.545 74.5014L218.051 71.1828L219.305 72.5016Z" fill="white"/>
<path d="M219.073 79.2982H217.529L216.08 80.6821L214.82 79.3488L220.616 73.8856L221.876 75.2187L219.174 77.7693H224.296L225.702 79.2547L220.855 79.2982L220.051 84.863L218.602 83.2979L219.073 79.2982Z" fill="white"/>
<path d="M178.11 85.4859L177.103 84.4281L175.712 85.7469L175.197 85.2034L176.588 83.8846L173.756 80.8849L174.154 80.5154L180.327 80.001L180.899 80.6095L174.908 81.1314L177.081 83.4355L178.313 82.2761L178.813 82.805L177.581 83.9717L178.588 85.0295L178.11 85.4859Z" fill="white"/>
<path d="M181.906 89.2612C181.022 90.1017 179.733 90.1016 178.516 88.8191C177.83 88.1433 177.428 87.2309 177.393 86.2686L178.074 86.1237C178.086 86.9596 178.424 87.7577 179.015 88.3482C179.849 89.2322 180.718 89.3264 181.377 88.7033C182.037 88.0801 182.008 87.254 181.073 86.2758L180.718 85.8918L181.116 85.515L184.355 85.247L181.783 82.5298L182.268 82.0732L185.492 85.486L185.108 85.8483L181.805 86.131C182.819 87.3265 182.754 88.4642 181.906 89.2612Z" fill="white"/>
<path d="M186 93.5216C185.101 94.3694 183.826 94.4056 182.573 93.1158C181.89 92.4384 181.491 91.5264 181.457 90.5653L182.138 90.4204C182.157 91.2372 182.489 92.0155 183.065 92.5941C183.92 93.4999 184.811 93.5578 185.456 92.9492C186.101 92.3405 186.181 91.5001 184.884 90.1306L183.819 89.0002L186.717 86.7612L189.455 89.6595L188.97 90.1234L186.681 87.696L184.819 89.1089L185.464 89.7901C186.999 91.4277 186.941 92.6304 186 93.5216Z" fill="white"/>
<path d="M190.426 98.1735C190.195 98.3878 189.921 98.5519 189.623 98.6552C189.325 98.7585 189.008 98.7989 188.694 98.7737C188.379 98.7485 188.073 98.6583 187.796 98.5089C187.518 98.3594 187.274 98.154 187.079 97.9055C185.746 96.4925 186 94.8043 187.673 93.2174C189.477 91.5147 191.354 91.6089 192.745 93.0508C193.175 93.4711 193.485 93.9989 193.643 94.5796L192.998 94.7752C192.881 94.2929 192.629 93.8535 192.274 93.5072C191.187 92.3624 189.76 92.3261 188.318 93.6884C188.195 93.8043 188.057 93.9493 187.912 94.1159C188.35 93.992 188.814 93.9987 189.248 94.1352C189.682 94.2717 190.066 94.5319 190.354 94.884C191.339 95.9347 191.412 97.2605 190.426 98.1735ZM189.897 97.6518C190.622 96.9924 190.557 96.0506 189.781 95.2318C189.643 95.0471 189.468 94.8927 189.267 94.7784C189.067 94.6641 188.845 94.5921 188.615 94.567C188.386 94.5419 188.153 94.5643 187.933 94.6325C187.712 94.7007 187.508 94.8133 187.333 94.9636C186.746 95.5216 186.652 96.5287 187.521 97.4416C187.655 97.6264 187.827 97.7804 188.026 97.8929C188.224 98.0054 188.445 98.0738 188.672 98.0937C188.9 98.1136 189.129 98.0845 189.344 98.0082C189.559 97.932 189.755 97.8105 189.919 97.6518H189.897Z" fill="white"/>
<path d="M199.7 111.115L200.171 108.267L197.273 108.571L196.7 107.963L200.236 107.608L200.757 104.275L201.33 104.876L200.902 107.55L203.597 107.274L204.155 107.868L200.794 108.202L200.25 111.723L199.7 111.115Z" fill="white"/>
<path d="M203.525 115.187L203.996 112.346L201.098 112.651L200.526 112.042L204.061 111.687L204.583 108.347L205.155 108.955L204.728 111.629L207.423 111.354L207.981 111.94L204.619 112.274L204.083 115.803L203.525 115.187Z" fill="white"/>
<path d="M207.358 119.237L207.829 116.397L204.931 116.701L204.358 116.093L207.894 115.73L208.415 112.397L208.988 113.006L208.56 115.679L211.255 115.397L211.813 115.991L208.452 116.324L207.915 119.853L207.358 119.237Z" fill="white"/>
<path d="M211.183 123.288L211.654 120.44L208.756 120.744L208.184 120.143L211.726 119.78L212.241 116.448L212.82 117.049L212.386 119.73L215.081 119.447L215.639 120.041L212.284 120.375L211.741 123.903L211.183 123.288Z" fill="white"/>
<path d="M224.398 137.265L224.869 134.424L221.971 134.721L221.398 134.12L224.934 133.758L225.455 130.425L226.028 131.033L225.6 133.707L228.295 133.424L228.853 134.019L225.492 134.352L224.955 137.881L224.398 137.265Z" fill="white"/>
<path d="M228.223 141.315L228.694 138.467L225.796 138.772L225.224 138.163L228.759 137.808L229.281 134.468L229.86 135.076L229.426 137.75L232.121 137.475L232.679 138.062L229.324 138.395L228.781 141.924L228.223 141.315Z" fill="white"/>
<path d="M232.048 145.358L232.519 142.518L229.621 142.822L229.042 142.213L232.585 141.858L233.106 138.518L233.679 139.127L233.251 141.801L235.939 141.525L236.504 142.112L233.142 142.445L232.599 145.974L232.048 145.358Z" fill="white"/>
<path d="M235.874 149.409L236.345 146.568L233.447 146.865L232.875 146.264L236.41 145.902L236.932 142.569L237.504 143.177L237.077 145.851L239.764 145.568L240.33 146.163L236.968 146.496L236.425 150.025L235.874 149.409Z" fill="white"/>
<path d="M253.044 156.944L247.741 161.958L247.227 161.415L252.044 156.857L250.864 155.604L251.349 155.147L253.044 156.944Z" fill="white"/>
<path d="M253.776 165.299C252.892 166.132 251.603 166.139 250.393 164.857C249.706 164.178 249.302 163.264 249.262 162.299L249.951 162.154C249.96 162.99 250.298 163.79 250.893 164.378C251.718 165.262 252.588 165.357 253.247 164.733C253.906 164.11 253.877 163.284 252.95 162.306L252.588 161.929L252.994 161.545L256.225 161.277L253.66 158.56L254.146 158.104L257.37 161.516L256.978 161.879L253.675 162.161C254.689 163.357 254.631 164.494 253.776 165.299Z" fill="white"/>
<path d="M258.638 170.697L257.638 169.632L256.239 170.95L255.725 170.407L257.116 169.088L254.291 166.096L254.682 165.719L260.854 165.204L261.434 165.813L255.442 166.342L257.616 168.646L258.848 167.48L259.347 168.016L258.123 169.175L259.123 170.233L258.638 170.697Z" fill="white"/>
<path d="M261.601 175.646L261.115 176.109L257.594 172.385L257.978 172.016L262.224 172.182C263.383 172.226 263.847 172.001 264.209 171.653C264.825 171.074 264.796 170.284 264.028 169.48C263.79 169.194 263.49 168.965 263.151 168.811C262.813 168.656 262.444 168.58 262.072 168.588V167.864C262.554 167.858 263.031 167.959 263.469 168.159C263.908 168.36 264.296 168.655 264.607 169.023C265.629 170.103 265.723 171.298 264.839 172.139C264.332 172.617 263.723 172.863 262.354 172.863L258.877 172.733L261.601 175.646Z" fill="white"/>
<path d="M158.758 89.8915C159.047 89.6512 159.4 89.5008 159.773 89.459C160.146 89.4171 160.524 89.4856 160.858 89.6561C161.193 89.8265 161.47 90.0913 161.656 90.4178C161.842 90.7443 161.927 91.118 161.903 91.4928L161.178 91.4422C161.199 91.277 161.183 91.109 161.13 90.951C161.078 90.7929 160.99 90.6488 160.874 90.5292C160.668 90.3282 160.392 90.2144 160.105 90.2119C159.817 90.2093 159.539 90.3181 159.33 90.5154C159.12 90.7128 158.995 90.9835 158.98 91.271C158.966 91.5584 159.063 91.8404 159.251 92.058C159.364 92.182 159.503 92.2786 159.659 92.3402C159.815 92.4017 159.983 92.4266 160.15 92.413V93.1376C159.771 93.149 159.398 93.0479 159.077 92.8472C158.757 92.6464 158.503 92.3551 158.348 92.0099C158.192 91.6647 158.143 91.2812 158.206 90.908C158.269 90.5348 158.441 90.1886 158.701 89.9133L158.758 89.8915Z" fill="white"/>
<path d="M162.222 95.0071L161.113 93.8332L160.389 94.1231L159.823 93.5217L163.446 92.2537L163.989 92.8334L162.54 96.362L161.961 95.7462L162.222 95.0071ZM162.49 94.3984L163.084 93.087L161.736 93.6015L162.49 94.3984Z" fill="white"/>
<path d="M164.25 98.2387L164.497 97.0865L164.011 96.5721L163.287 97.2389L162.736 96.6592L165.265 94.2607L166.301 95.3549C166.938 96.036 166.989 96.804 166.424 97.3257C166.26 97.4948 166.048 97.6087 165.817 97.6516C165.586 97.6944 165.347 97.6641 165.134 97.5649L164.852 98.898L164.25 98.2387ZM165.786 95.7462L165.337 95.2678L164.453 96.1085L164.902 96.5794C165.243 96.9417 165.583 96.9635 165.859 96.7027C166.134 96.4418 166.127 96.1085 165.793 95.7462H165.786Z" fill="white"/>
<path d="M165.308 98.8548L165.938 98.6374C165.997 99.0446 166.179 99.424 166.46 99.7243C166.793 100.072 167.04 100.101 167.185 99.9562C167.663 99.507 165.946 98.3402 166.887 97.4562C167.315 97.0432 168.003 97.0579 168.684 97.7752C168.98 98.0789 169.188 98.457 169.286 98.8693L168.67 99.1083C168.594 98.7763 168.435 98.4693 168.206 98.2171C167.88 97.8693 167.619 97.8548 167.482 98.0069C167.011 98.4489 168.728 99.6156 167.793 100.5C167.373 100.898 166.677 100.891 165.996 100.166C165.637 99.8105 165.397 99.3526 165.308 98.8548Z" fill="white"/>
<path d="M173.125 102.557L170.597 104.948L170.039 104.361L171.075 103.383L169.988 102.231L168.952 103.217L168.402 102.63L170.93 100.231L171.488 100.818L170.488 101.76L171.575 102.912L172.575 101.97L173.125 102.557Z" fill="white"/>
<path d="M172.314 104.202C172.576 103.925 172.915 103.734 173.288 103.652C173.66 103.57 174.048 103.602 174.402 103.743C174.756 103.885 175.06 104.129 175.273 104.444C175.487 104.76 175.602 105.132 175.602 105.513C175.602 105.895 175.487 106.267 175.273 106.583C175.06 106.898 174.756 107.142 174.402 107.284C174.048 107.425 173.66 107.457 173.288 107.375C172.915 107.293 172.576 107.102 172.314 106.825C172.134 106.657 171.991 106.454 171.894 106.228C171.796 106.003 171.745 105.759 171.745 105.513C171.745 105.268 171.796 105.024 171.894 104.799C171.991 104.573 172.134 104.37 172.314 104.202ZM174.371 106.376C174.523 106.222 174.626 106.027 174.667 105.815C174.708 105.603 174.685 105.384 174.602 105.185C174.519 104.986 174.378 104.816 174.199 104.697C174.019 104.577 173.808 104.513 173.593 104.513C173.377 104.513 173.166 104.577 172.986 104.697C172.807 104.816 172.667 104.986 172.583 105.185C172.5 105.384 172.477 105.603 172.519 105.815C172.56 106.027 172.662 106.222 172.814 106.376C172.913 106.478 173.032 106.559 173.163 106.615C173.294 106.671 173.435 106.699 173.578 106.699C173.721 106.699 173.862 106.671 173.993 106.615C174.124 106.559 174.243 106.478 174.342 106.376H174.371Z" fill="white"/>
<path d="M176.588 106.216L177.146 106.803L175.089 108.745L176.291 110.02L175.813 110.47L174.06 108.615L176.588 106.216Z" fill="white"/>
<path d="M178.66 108.412L179.747 109.557C179.932 109.717 180.081 109.915 180.184 110.136C180.288 110.358 180.344 110.599 180.349 110.843C180.354 111.088 180.308 111.33 180.213 111.556C180.119 111.782 179.978 111.985 179.801 112.153C179.623 112.321 179.412 112.45 179.182 112.532C178.951 112.614 178.706 112.646 178.462 112.628C178.218 112.609 177.981 112.539 177.766 112.424C177.55 112.308 177.362 112.148 177.211 111.955L176.125 110.803L178.66 108.412ZM177.668 111.47C177.756 111.597 177.87 111.703 178.003 111.783C178.135 111.862 178.283 111.911 178.437 111.928C178.59 111.945 178.746 111.929 178.892 111.881C179.039 111.833 179.174 111.754 179.287 111.649C179.401 111.544 179.491 111.417 179.551 111.274C179.61 111.132 179.639 110.978 179.635 110.824C179.63 110.67 179.593 110.518 179.525 110.379C179.457 110.241 179.36 110.118 179.24 110.02L178.733 109.484L177.161 110.97L177.668 111.47Z" fill="white"/>
<path d="M181.276 115.31L180.805 115.759L178.958 113.795L181.486 111.404L183.297 113.317L182.826 113.759L181.566 112.426L181.015 112.948L182.131 114.121L181.674 114.556L180.559 113.382L179.979 113.933L181.276 115.31Z" fill="white"/>
<path d="M182.776 117.839L183.022 116.687L182.544 116.172L181.819 116.839L181.269 116.259L183.797 113.861L184.833 114.955C185.478 115.636 185.558 116.404 184.956 116.926C184.791 117.093 184.579 117.205 184.348 117.246C184.117 117.288 183.879 117.257 183.667 117.158L183.384 118.498L182.776 117.839ZM184.311 115.346L183.862 114.868L182.978 115.701L183.428 116.179C183.768 116.542 184.109 116.563 184.384 116.302C184.659 116.042 184.63 115.708 184.311 115.346Z" fill="white"/>
<path d="M148.623 98.9923L149.963 98.9125C149.891 99.162 149.883 99.4257 149.94 99.679C149.997 99.9323 150.117 100.167 150.289 100.362C150.717 100.811 151.209 100.797 151.738 100.282L154.064 98.1083L152.441 96.391L153.347 95.536L156.027 98.3691L152.861 101.362C151.658 102.499 150.492 102.456 149.405 101.304C149.102 101.007 148.873 100.644 148.737 100.242C148.601 99.8402 148.562 99.412 148.623 98.9923Z" fill="white"/>
<path d="M152.463 103.057C152.55 102.971 152.654 102.903 152.769 102.858C152.884 102.814 153.006 102.793 153.129 102.798C153.252 102.803 153.373 102.833 153.484 102.886C153.595 102.939 153.693 103.015 153.774 103.108C153.863 103.191 153.935 103.292 153.984 103.404C154.032 103.517 154.058 103.638 154.058 103.76C154.058 103.882 154.032 104.003 153.984 104.116C153.935 104.228 153.863 104.329 153.774 104.412C153.687 104.506 153.582 104.58 153.465 104.631C153.348 104.683 153.221 104.709 153.094 104.71C152.966 104.711 152.84 104.685 152.722 104.635C152.605 104.584 152.499 104.511 152.411 104.418C152.323 104.325 152.255 104.215 152.212 104.095C152.168 103.975 152.149 103.848 152.157 103.72C152.164 103.593 152.198 103.468 152.256 103.354C152.313 103.24 152.393 103.139 152.492 103.057H152.463Z" fill="white"/>
<path d="M165.482 108.318L159.099 111.332L157.947 110.122L160.236 105.927L155.889 107.941L154.745 106.731L158.114 100.521L159.215 101.688L156.831 106.035L161.345 103.949L162.337 104.992L159.932 109.376L164.46 107.245L165.482 108.318Z" fill="white"/>
<path d="M165.938 108.796C166.025 108.718 166.127 108.658 166.238 108.621C166.349 108.584 166.466 108.57 166.583 108.579C166.7 108.589 166.813 108.622 166.916 108.676C167.02 108.731 167.111 108.806 167.184 108.897C167.272 108.972 167.344 109.065 167.395 109.169C167.445 109.273 167.474 109.386 167.479 109.502C167.483 109.618 167.464 109.733 167.422 109.841C167.38 109.949 167.317 110.047 167.235 110.129C167.054 110.273 166.825 110.345 166.594 110.33C166.363 110.315 166.145 110.215 165.984 110.049C165.822 109.883 165.728 109.663 165.72 109.431C165.711 109.2 165.789 108.973 165.938 108.796ZM164.931 109.999L165.96 111.086L162.214 114.629L161.186 113.542L164.931 109.999Z" fill="white"/>
<path d="M168.336 110.752L169.365 111.839L164.192 116.723L163.164 115.636L168.336 110.752Z" fill="white"/>
<path d="M170.322 112.846L171.343 113.933L166.177 118.824L165.149 117.737L170.322 112.846Z" fill="white"/>
<path d="M171.879 115.085C171.966 115.006 172.068 114.946 172.179 114.908C172.29 114.87 172.407 114.856 172.524 114.865C172.641 114.875 172.755 114.908 172.858 114.963C172.962 115.019 173.053 115.095 173.125 115.187C173.214 115.261 173.286 115.353 173.337 115.457C173.388 115.561 173.418 115.674 173.423 115.79C173.429 115.906 173.41 116.021 173.369 116.129C173.328 116.237 173.264 116.336 173.183 116.418C173.097 116.501 172.994 116.564 172.881 116.605C172.769 116.645 172.649 116.662 172.53 116.654C172.411 116.646 172.295 116.613 172.189 116.557C172.083 116.502 171.99 116.425 171.915 116.331C171.828 116.254 171.757 116.16 171.708 116.054C171.658 115.948 171.631 115.833 171.628 115.716C171.624 115.599 171.645 115.483 171.688 115.375C171.731 115.266 171.796 115.168 171.879 115.085ZM170.879 116.288L171.908 117.375L168.155 120.918L167.126 119.831L170.879 116.288Z" fill="white"/>
<path d="M174.386 123.222L172.212 125.244L171.249 124.222L171.712 123.78C171.412 123.828 171.105 123.793 170.823 123.679C170.541 123.565 170.295 123.378 170.111 123.135C169.278 122.259 169.278 121.273 169.923 120.657C170.568 120.041 171.488 120.063 172.567 121.208L173.386 122.07C173.85 121.636 173.857 121.099 173.306 120.512C172.939 120.13 172.459 119.876 171.937 119.788L172.328 118.679C173.091 118.87 173.779 119.284 174.306 119.867C175.422 120.983 175.523 122.15 174.386 123.222ZM172.401 123.034L172.785 122.672L172.06 121.947C171.575 121.44 171.234 121.454 170.988 121.693C170.742 121.933 170.749 122.353 171.111 122.737C171.266 122.918 171.474 123.045 171.707 123.099C171.939 123.152 172.182 123.13 172.401 123.034Z" fill="white"/>
<path d="M181.305 130.526L179.131 132.555L178.103 131.468L180.08 129.599C180.689 129.026 180.711 128.49 180.298 128.048C179.885 127.606 179.197 127.519 178.53 128.149L176.661 129.954L175.632 128.867L177.61 126.99C178.219 126.418 178.255 125.896 177.827 125.447C177.4 124.998 176.733 124.918 176.067 125.548L174.183 127.331L173.154 126.244L176.907 122.701L177.885 123.737L177.458 124.142C177.761 124.141 178.061 124.206 178.337 124.331C178.613 124.456 178.86 124.639 179.059 124.867C179.299 125.096 179.476 125.383 179.572 125.701C179.668 126.018 179.681 126.355 179.61 126.679C179.963 126.656 180.317 126.715 180.644 126.849C180.972 126.983 181.264 127.19 181.5 127.454C182.355 128.316 182.457 129.446 181.305 130.526Z" fill="white"/>
<path d="M180.08 132.852L181.203 132.482C181.343 133.098 181.643 133.665 182.073 134.127C182.551 134.627 182.855 134.692 183.065 134.489C183.681 133.91 180.892 132.243 182.413 130.823C183.138 130.149 184.232 130.316 185.26 131.41C185.744 131.901 186.1 132.503 186.297 133.163L185.181 133.533C185.06 133.031 184.81 132.569 184.456 132.193C183.993 131.7 183.645 131.642 183.449 131.823C182.804 132.432 185.572 134.105 184.094 135.504C183.37 136.163 182.29 135.982 181.196 134.859C180.651 134.302 180.266 133.609 180.08 132.852Z" fill="white"/>
<path d="M223.369 174.733C224.977 173.211 226.738 173.24 227.868 174.443C228.998 175.646 228.933 177.399 227.325 178.921C225.716 180.443 223.963 180.421 222.825 179.211C221.688 178.001 221.76 176.262 223.369 174.733ZM226.267 177.783C227.375 176.733 227.462 175.907 226.926 175.341C226.39 174.776 225.571 174.834 224.463 175.878C223.354 176.921 223.267 177.754 223.796 178.312C224.325 178.87 225.144 178.827 226.252 177.776L226.267 177.783Z" fill="white"/>
<path d="M230.752 184.341C229.752 185.283 228.354 185.065 227.383 184.029C226.108 182.689 226.158 181.051 227.738 179.566C229.317 178.08 231.36 178.117 232.715 179.566C233.176 180.028 233.504 180.606 233.664 181.24L232.44 181.609C232.353 181.175 232.139 180.776 231.824 180.464C231.659 180.266 231.452 180.106 231.219 179.995C230.986 179.884 230.732 179.825 230.474 179.821C230.216 179.818 229.96 179.87 229.724 179.975C229.488 180.08 229.278 180.234 229.107 180.428C229.409 180.449 229.704 180.53 229.974 180.667C230.244 180.804 230.484 180.994 230.679 181.225C230.898 181.419 231.074 181.657 231.196 181.922C231.319 182.187 231.386 182.475 231.393 182.767C231.4 183.059 231.346 183.35 231.236 183.621C231.126 183.891 230.961 184.137 230.752 184.341ZM229.658 183.297C229.762 183.199 229.845 183.08 229.9 182.947C229.955 182.815 229.98 182.672 229.976 182.529C229.971 182.385 229.935 182.244 229.872 182.116C229.808 181.987 229.718 181.874 229.607 181.783C229.52 181.667 229.41 181.571 229.285 181.5C229.159 181.429 229.02 181.385 228.876 181.371C228.732 181.357 228.587 181.373 228.45 181.417C228.313 181.462 228.186 181.535 228.078 181.631C227.974 181.733 227.893 181.857 227.84 181.993C227.787 182.13 227.764 182.276 227.773 182.422C227.781 182.568 227.82 182.711 227.888 182.84C227.955 182.97 228.05 183.084 228.165 183.174C228.25 183.287 228.358 183.382 228.482 183.45C228.606 183.519 228.743 183.56 228.884 183.572C229.025 183.584 229.167 183.565 229.3 183.518C229.434 183.47 229.555 183.395 229.658 183.297Z" fill="white"/>
<path d="M237.228 182.522L238.141 183.493L229.404 187.398L228.484 186.435L237.228 182.522Z" fill="white"/>
<path d="M236.606 191.782L235.686 192.652L232.201 188.963L232.925 188.239L236.482 188.442C237.301 188.485 237.627 188.326 237.859 188.101C238.243 187.739 238.214 187.268 237.729 186.746C237.55 186.544 237.324 186.389 237.072 186.294C236.819 186.2 236.547 186.168 236.28 186.203L236.033 184.877C236.542 184.817 237.058 184.884 237.535 185.073C238.012 185.261 238.434 185.565 238.765 185.957C239.793 187.043 239.924 188.297 239.04 189.13C238.731 189.409 238.361 189.612 237.96 189.724C237.559 189.836 237.138 189.853 236.729 189.775L234.606 189.652L236.606 191.782Z" fill="white"/>
<path d="M241.3 196.543L240.576 195.746L239.547 196.717L238.511 195.615L239.532 194.644L237.047 192.021L237.772 191.297L243.039 190.666L244.162 191.855L239.214 192.492L240.452 193.804L241.365 192.941L242.372 194.007L241.46 194.869L242.184 195.666L241.3 196.543Z" fill="white"/>
<path d="M264.194 136.192C266.94 131.961 265.861 126.338 262.173 122.903C261.048 121.845 259.746 120.991 258.326 120.382C254.791 118.933 250.118 119.983 248.263 123.331C246.756 126.063 247.364 129.468 248.422 132.41C249.531 135.489 251.32 138.634 254.378 139.83C257.312 140.982 260.833 139.924 263.028 137.656C263.46 137.204 263.851 136.715 264.194 136.192Z" fill="#10DD8E"/>
<path d="M331.384 137.938H146.109C139.131 137.938 133.474 143.596 133.474 150.575V278.123C133.474 285.102 139.131 290.76 146.109 290.76H331.384C338.362 290.76 344.019 285.102 344.019 278.123V150.575C344.019 143.596 338.362 137.938 331.384 137.938Z" fill="#10DD8E"/>
<path d="M344.019 150.575C344.019 150.575 344.019 150.416 344.019 150.119C344.006 149.665 343.962 149.212 343.889 148.764C343.631 147.001 342.998 145.313 342.034 143.815C341.324 142.712 340.452 141.723 339.447 140.88C338.223 139.889 336.825 139.132 335.325 138.649C334.919 138.511 334.492 138.424 334.064 138.308C333.637 138.192 333.181 138.17 332.724 138.091L331.326 138.025H323.523L247.98 138.083H195.816H147.681C146.395 138.032 145.106 138.105 143.834 138.301C142.57 138.541 141.349 138.969 140.211 139.569C139.076 140.197 138.039 140.988 137.132 141.917C136.223 142.854 135.471 143.933 134.908 145.112C134.323 146.291 133.939 147.56 133.771 148.865C133.646 150.187 133.605 151.516 133.647 152.843V173.262C133.647 184.3 133.647 195.56 133.647 207.042C133.647 229.989 133.647 253.748 133.647 278.051C133.653 281.07 134.749 283.985 136.734 286.26C138.703 288.526 141.431 289.995 144.406 290.39C145.892 290.521 147.385 290.565 148.876 290.521H197.28H263.455H323.335H330.304C331.442 290.557 332.58 290.48 333.702 290.289C334.806 290.082 335.877 289.724 336.883 289.224C337.381 288.974 337.865 288.696 338.332 288.391C338.787 288.074 339.222 287.731 339.636 287.362C340.868 286.277 341.871 284.958 342.587 283.481C343.304 282.004 343.719 280.4 343.809 278.761C343.889 270.066 343.809 261.704 343.86 253.734C343.86 221.852 343.903 196.028 343.918 178.189C343.918 169.269 343.918 162.35 343.954 157.647C343.954 155.299 343.954 153.51 343.954 152.307C343.954 151.104 343.954 150.488 343.954 150.488C343.954 150.488 343.954 151.104 343.954 152.307C343.954 153.51 343.954 155.299 343.954 157.647C343.954 162.35 343.954 169.241 343.954 178.189C343.954 196.028 343.954 221.838 344.019 253.734C344.019 261.704 344.062 270.059 344.019 278.775C343.898 281.009 343.188 283.172 341.961 285.043C341.015 286.46 339.814 287.688 338.419 288.666C337.953 288.977 337.469 289.26 336.97 289.514C335.939 290.03 334.842 290.401 333.709 290.615C332.568 290.804 331.41 290.882 330.254 290.847H323.284H263.404H148.898C147.39 290.89 145.88 290.847 144.377 290.717C141.311 290.31 138.499 288.794 136.473 286.456C134.429 284.113 133.299 281.11 133.292 278V206.991C133.292 195.523 133.292 184.263 133.292 173.211V152.792C133.253 151.448 133.296 150.103 133.423 148.764C133.79 146.079 135 143.579 136.879 141.627C137.811 140.672 138.877 139.859 140.045 139.214C141.218 138.599 142.475 138.159 143.776 137.91L144.754 137.765L145.739 137.707C146.399 137.67 147.036 137.707 147.688 137.707H195.809H247.973L323.516 137.765H329.833H331.282L332.695 137.837C333.152 137.909 333.608 137.967 334.043 138.054C334.477 138.141 334.912 138.265 335.318 138.402C338.107 139.318 340.49 141.178 342.056 143.663C343.019 145.172 343.642 146.873 343.881 148.648C343.95 149.096 343.986 149.549 343.99 150.003C344.019 150.416 344.019 150.575 344.019 150.575Z" fill="#10DD8E"/>
<path d="M336.644 147.344C333.436 146.783 330.568 145.006 328.639 142.382C326.709 139.758 325.867 136.491 326.288 133.261C326.709 130.032 328.361 127.089 330.899 125.048C333.436 123.007 336.664 122.025 339.908 122.306C343.153 122.587 346.163 124.11 348.312 126.558C350.461 129.005 351.581 132.188 351.441 135.441C351.3 138.695 349.908 141.769 347.557 144.022C345.205 146.275 342.074 147.532 338.817 147.532C338.087 147.592 337.353 147.528 336.644 147.344Z" fill="#1A2E35"/>
<path d="M318.916 147.344C321.864 147.092 324.828 147.092 327.776 147.344C324.828 147.595 321.864 147.595 318.916 147.344Z" fill="#1A2E35"/>
<path d="M301.18 147.344C304.13 147.092 307.097 147.092 310.047 147.344C307.097 147.595 304.13 147.595 301.18 147.344Z" fill="#1A2E35"/>
<path d="M283.451 147.344C286.4 147.092 289.364 147.092 292.312 147.344C289.364 147.595 286.4 147.595 283.451 147.344Z" fill="#1A2E35"/>
<path d="M265.716 147.344C268.666 147.092 271.633 147.092 274.583 147.344C271.633 147.595 268.666 147.595 265.716 147.344Z" fill="#1A2E35"/>
<path d="M247.987 147.344C250.935 147.092 253.9 147.092 256.848 147.344C253.9 147.595 250.935 147.595 247.987 147.344Z" fill="#1A2E35"/>
<path d="M230.273 147.344C233.224 147.092 236.191 147.092 239.141 147.344C236.191 147.595 233.224 147.595 230.273 147.344Z" fill="#1A2E35"/>
<path d="M212.516 147.344C215.467 147.092 218.433 147.092 221.384 147.344C218.433 147.595 215.467 147.595 212.516 147.344Z" fill="#1A2E35"/>
<path d="M194.773 147.344C197.724 147.092 200.69 147.092 203.641 147.344C200.69 147.595 197.724 147.595 194.773 147.344Z" fill="#1A2E35"/>
<path d="M177.052 147.344C180.003 147.092 182.969 147.092 185.92 147.344C182.969 147.595 180.003 147.595 177.052 147.344Z" fill="#1A2E35"/>
<path d="M159.324 147.344C162.274 147.092 165.241 147.092 168.192 147.344C165.241 147.595 162.274 147.595 159.324 147.344Z" fill="#1A2E35"/>
<path d="M146.109 151.691C145.923 150.25 145.86 148.796 145.921 147.344L146.109 147.155H146.957H147.775L149.152 147.199C149.184 147.042 149.273 146.903 149.402 146.809C149.531 146.715 149.69 146.671 149.849 146.688C150.008 146.704 150.155 146.778 150.262 146.897C150.369 147.015 150.428 147.169 150.428 147.329C150.428 147.489 150.369 147.643 150.262 147.761C150.155 147.88 150.008 147.955 149.849 147.971C149.69 147.987 149.531 147.944 149.402 147.849C149.273 147.755 149.184 147.616 149.152 147.459L147.775 147.503H146.08L146.268 147.315C146.34 148.775 146.287 150.24 146.109 151.691Z" fill="#1A2E35"/>
<path d="M146.109 167.958C145.858 165.254 145.858 162.532 146.109 159.828C146.36 162.532 146.36 165.254 146.109 167.958Z" fill="#1A2E35"/>
<path d="M146.109 184.21C145.858 181.506 145.858 178.785 146.109 176.08C146.36 178.785 146.36 181.506 146.109 184.21Z" fill="#1A2E35"/>
<path d="M146.109 200.463C145.858 197.759 145.858 195.037 146.109 192.333C146.36 195.037 146.36 197.759 146.109 200.463Z" fill="#1A2E35"/>
<path d="M146.109 216.708C145.858 214.006 145.858 211.287 146.109 208.585C146.36 211.287 146.36 214.006 146.109 216.708Z" fill="#1A2E35"/>
<path d="M146.109 232.96C145.858 230.258 145.858 227.539 146.109 224.838C146.36 227.539 146.36 230.258 146.109 232.96Z" fill="#1A2E35"/>
<path d="M146.109 249.213C145.858 246.511 145.858 243.792 146.109 241.09C146.36 243.792 146.36 246.511 146.109 249.213Z" fill="#1A2E35"/>
<path d="M146.109 265.45C145.858 262.746 145.858 260.025 146.109 257.321C146.36 260.025 146.36 262.746 146.109 265.45Z" fill="#1A2E35"/>
<path d="M150.456 277.935C149.015 278.125 147.561 278.188 146.109 278.123L145.921 277.935V277.044C145.921 276.768 145.921 276.5 145.921 276.232C145.921 275.754 145.921 275.297 145.964 274.848C145.943 274.419 145.987 273.989 146.095 273.573C146.206 273.996 146.253 274.433 146.232 274.87C146.232 275.319 146.232 275.776 146.276 276.254C146.276 276.522 146.276 276.79 146.276 277.065V277.928L146.087 277.739C147.546 277.68 149.008 277.745 150.456 277.935Z" fill="#1A2E35"/>
<path d="M167.967 277.935C165.06 278.186 162.137 278.186 159.229 277.935C162.137 277.684 165.06 277.684 167.967 277.935Z" fill="#1A2E35"/>
<path d="M185.405 277.935C182.498 278.186 179.575 278.186 176.668 277.935C179.575 277.684 182.498 277.684 185.405 277.935Z" fill="#1A2E35"/>
<path d="M202.88 277.935C199.973 278.186 197.05 278.186 194.143 277.935C197.05 277.684 199.973 277.684 202.88 277.935Z" fill="#1A2E35"/>
<path d="M220.355 277.935C217.448 278.186 214.525 278.186 211.618 277.935C214.525 277.684 217.448 277.684 220.355 277.935Z" fill="#1A2E35"/>
<path d="M237.837 277.935C234.928 278.186 232.002 278.186 229.093 277.935C232.002 277.684 234.928 277.684 237.837 277.935Z" fill="#1A2E35"/>
<path d="M255.312 277.935C252.405 278.186 249.482 278.186 246.574 277.935C249.482 277.684 252.405 277.684 255.312 277.935Z" fill="#1A2E35"/>
<path d="M272.787 277.935C269.88 278.186 266.956 278.186 264.049 277.935C266.956 277.684 269.88 277.684 272.787 277.935Z" fill="#1A2E35"/>
<path d="M290.262 277.935C287.355 278.186 284.431 278.186 281.524 277.935C284.431 277.684 287.355 277.684 290.262 277.935Z" fill="#1A2E35"/>
<path d="M307.736 277.935C304.829 278.186 301.906 278.186 298.999 277.935C301.906 277.684 304.829 277.684 307.736 277.935Z" fill="#1A2E35"/>
<path d="M325.182 277.935C322.275 278.186 319.352 278.186 316.445 277.935C319.352 277.684 322.275 277.684 325.182 277.935Z" fill="#1A2E35"/>
<path d="M338.296 277.935C336.858 278.186 335.387 278.186 333.949 277.935C335.387 277.684 336.858 277.684 338.296 277.935Z" fill="#1A2E35"/>
<g opacity="0.3">
<path opacity="0.3" d="M206.126 222.7C206.126 222.7 206.177 229.946 203.953 234.33C201.728 238.713 201.055 240.401 196.425 242.082C191.796 243.764 133.452 250.176 133.452 250.176V230.453L206.126 222.7Z" fill="black"/>
</g>
<g opacity="0.3">
<path opacity="0.3" d="M205.083 195.376C205.083 195.376 205.749 187.985 187.195 185.232C165.967 182.095 133.481 178.232 133.481 178.232V192.268L205.083 195.376Z" fill="black"/>
</g>
<path d="M195.758 188.666H135.401C129.675 188.666 125.033 193.309 125.033 199.035V226.062C125.033 231.789 129.675 236.431 135.401 236.431H195.758C201.484 236.431 206.126 231.789 206.126 226.062V199.035C206.126 193.309 201.484 188.666 195.758 188.666Z" fill="#10DD8E"/>
<path d="M135.408 236.467H134.785C134.177 236.45 133.572 236.37 132.981 236.228C132.017 236.001 131.091 235.64 130.228 235.155C128.896 234.397 127.747 233.355 126.863 232.103C125.979 230.85 125.381 229.419 125.113 227.91C124.962 226.951 124.904 225.981 124.939 225.011C124.939 224.004 124.939 222.968 124.939 221.888C124.939 217.541 124.939 212.664 124.939 207.245C124.939 204.527 124.939 201.687 124.939 198.716C124.988 197.149 125.388 195.614 126.109 194.222C126.83 192.83 127.853 191.617 129.105 190.673C130.419 189.67 131.954 188.997 133.582 188.71C134.413 188.572 135.255 188.514 136.096 188.536H149.137H195.816C197.389 188.536 198.943 188.888 200.363 189.565C201.783 190.241 203.034 191.227 204.025 192.449C205.322 194.059 206.123 196.013 206.329 198.071C206.401 199.093 206.372 200.078 206.379 201.078V206.984C206.379 210.887 206.379 214.72 206.379 218.483V224.055C206.379 224.975 206.379 225.874 206.379 226.808C206.347 227.268 206.289 227.725 206.206 228.178C205.798 230.151 204.837 231.968 203.437 233.416C202.036 234.865 200.252 235.885 198.294 236.358C197.877 236.462 197.453 236.537 197.026 236.583C196.599 236.619 196.171 236.641 195.751 236.655H188.253H170.502L144.797 236.597L137.813 236.561H135.995H135.379H135.995H137.813L144.797 236.525L170.502 236.467H188.253H193.121C194.766 236.424 196.461 236.597 198.084 236.177C199.763 235.776 201.313 234.955 202.589 233.792C203.865 232.629 204.825 231.161 205.38 229.525C206.01 227.852 205.923 226.033 205.923 224.193C205.923 222.352 205.923 220.497 205.923 218.621V201.231C205.923 200.238 205.923 199.231 205.872 198.26C205.762 197.277 205.518 196.314 205.148 195.398C204.767 194.478 204.257 193.616 203.634 192.84C203.003 192.071 202.272 191.391 201.46 190.818C200.619 190.264 199.708 189.826 198.75 189.514C197.775 189.234 196.766 189.083 195.751 189.065H149.072H136.089C135.267 189.043 134.445 189.099 133.633 189.232C132.052 189.505 130.561 190.157 129.286 191.13C128.067 192.043 127.07 193.218 126.368 194.569C125.665 195.92 125.276 197.412 125.229 198.934C125.185 201.883 125.229 204.73 125.229 207.447C125.229 212.867 125.229 217.78 125.229 222.091C125.229 223.171 125.229 224.207 125.229 225.214C125.187 226.171 125.237 227.129 125.381 228.076C125.659 229.516 126.242 230.88 127.089 232.077C127.936 233.274 129.028 234.276 130.293 235.018C131.14 235.514 132.055 235.883 133.01 236.112C133.593 236.264 134.19 236.359 134.792 236.394L135.408 236.467Z" fill="#10DD8E"/>
<path d="M181.696 231.707C191.283 231.707 199.055 223.934 199.055 214.346C199.055 204.757 191.283 196.985 181.696 196.985C172.109 196.985 164.337 204.757 164.337 214.346C164.337 223.934 172.109 231.707 181.696 231.707Z" fill="#1A2E35"/>
<path d="M186.152 228.533C187.619 227.99 189.009 227.259 190.289 226.359C191.657 225.363 192.844 224.137 193.795 222.736C194.99 221.042 195.78 219.096 196.106 217.049C196.431 215.001 196.283 212.907 195.672 210.926C195.208 209.304 194.473 207.773 193.498 206.397C192.559 205.145 191.461 204.022 190.231 203.057C190.231 203.057 190.339 203.1 190.52 203.216C190.786 203.383 191.042 203.565 191.288 203.76C192.201 204.475 193.014 205.308 193.708 206.238C194.752 207.618 195.542 209.174 196.041 210.831C196.684 212.859 196.845 215.008 196.511 217.109C196.178 219.209 195.36 221.203 194.121 222.932C193.138 224.345 191.912 225.572 190.499 226.555C189.55 227.224 188.517 227.765 187.427 228.163C187.13 228.273 186.828 228.367 186.521 228.446C186.402 228.489 186.278 228.518 186.152 228.533Z" fill="#FAFAFA"/>
<path d="M453.454 103.064C454.04 109.385 452.737 115.737 449.71 121.317C446.684 126.896 442.07 131.452 436.453 134.407C430.836 137.362 424.468 138.584 418.156 137.917C411.844 137.25 405.872 134.725 400.996 130.661C396.121 126.598 392.56 121.178 390.766 115.089C388.972 109.001 389.025 102.516 390.919 96.4576C392.812 90.399 396.46 85.0385 401.402 81.0552C406.344 77.0718 412.356 74.6445 418.678 74.0811C427.131 73.318 435.542 75.9419 442.062 81.3762C448.583 86.8106 452.68 94.611 453.454 103.064Z" fill="#10DD8E"/>
<g opacity="0.3">
<path opacity="0.3" d="M445.782 102.985C445.637 102.985 445.434 101.941 444.876 100.086C444.103 97.5042 442.929 95.0592 441.398 92.8406C440.347 91.3321 439.132 89.9445 437.776 88.7033C436.219 87.2929 434.488 86.0876 432.625 85.1166C431.622 84.5865 430.581 84.1335 429.51 83.7616C428.398 83.3667 427.257 83.059 426.097 82.8413C424.903 82.6059 423.691 82.4654 422.475 82.421C421.217 82.3843 419.958 82.4377 418.707 82.5806C417.457 82.7313 416.22 82.9735 415.005 83.3052C412.695 83.9697 410.497 84.9758 408.485 86.2903C407.534 86.9077 406.63 87.5957 405.782 88.3482C404.208 89.7378 402.818 91.323 401.645 93.0652C400.626 94.5926 399.778 96.228 399.117 97.9417C398.166 100.452 397.609 103.094 397.465 105.774C397.364 107.687 397.422 108.76 397.277 108.774C397.132 108.789 396.857 107.745 396.741 105.774C396.599 102.972 396.982 100.168 397.871 97.5068C398.481 95.6551 399.307 93.882 400.334 92.2246C401.529 90.3201 402.974 88.585 404.63 87.0657C407.45 84.4844 410.827 82.5875 414.498 81.5225C415.806 81.1483 417.14 80.8747 418.49 80.7038C419.839 80.5463 421.198 80.493 422.554 80.5445C423.872 80.5957 425.183 80.7556 426.474 81.0226C427.723 81.2684 428.949 81.6173 430.14 82.066C431.285 82.4828 432.397 82.9867 433.465 83.5732C435.437 84.6506 437.253 85.9913 438.863 87.5584C440.258 88.9194 441.487 90.4422 442.521 92.0942C444.02 94.4676 445.064 97.0991 445.601 99.8545C445.941 101.883 445.89 102.97 445.782 102.985Z" fill="black"/>
</g>
<g opacity="0.3">
<path opacity="0.3" d="M425.568 120.201L426.01 124.432L422.229 124.823L421.801 120.708C418.034 120.867 414.317 120.07 412.071 118.657L413.672 113.832C416 115.122 418.625 115.784 421.287 115.752L420.627 109.441C416.324 108.854 411.491 107.941 410.926 102.535C410.513 98.5284 413.064 94.7823 418.968 93.4853L418.534 89.29L422.308 88.8916L422.743 93.0144C425.462 92.8838 428.174 93.4004 430.654 94.5216L429.249 99.369C427.361 98.5231 425.325 98.06 423.257 98.0067L423.924 104.434C428.227 104.977 432.98 105.883 433.538 111.23C433.944 115.165 431.43 118.86 425.568 120.201ZM420.048 103.869L419.49 98.4996C417.534 99.1589 416.853 100.34 416.983 101.586C417.114 102.833 418.331 103.528 420.048 103.869ZM427.496 112.303C427.358 110.977 426.192 110.375 424.503 109.977L425.047 115.194C426.894 114.592 427.626 113.527 427.496 112.317V112.303Z" fill="black"/>
</g>
<path d="M397.182 108.165C397.201 108.23 397.216 108.295 397.226 108.361C397.226 108.506 397.284 108.694 397.327 108.934C397.371 109.173 397.421 109.499 397.479 109.861C397.532 110.287 397.614 110.708 397.726 111.122C398.339 113.784 399.392 116.326 400.841 118.643C401.84 120.235 403.011 121.713 404.333 123.048L405.478 124.084C405.674 124.258 405.862 124.447 406.072 124.613L406.717 125.092C407.151 125.411 407.572 125.758 408.043 126.055L409.492 126.939C411.569 128.111 413.804 128.978 416.128 129.512C421.151 130.661 426.411 130.176 431.139 128.128C433.328 127.179 435.368 125.92 437.196 124.389L438.45 123.258C438.855 122.882 439.174 122.462 439.58 122.07L440.123 121.476C440.297 121.28 440.449 121.063 440.609 120.853L441.543 119.628C442.602 118.074 443.484 116.407 444.173 114.658C445.178 112.114 445.749 109.42 445.861 106.687C445.897 106.26 445.897 105.832 445.861 105.405C445.861 105.035 445.861 104.724 445.861 104.463C445.861 104.202 445.861 104.028 445.861 103.876C445.853 103.811 445.853 103.745 445.861 103.68C445.874 103.745 445.874 103.811 445.861 103.876C445.861 104.028 445.861 104.217 445.905 104.456C445.948 104.695 445.941 105.035 445.963 105.398C445.996 105.827 445.996 106.258 445.963 106.687C445.91 109.445 445.376 112.172 444.383 114.745C443.7 116.527 442.82 118.228 441.761 119.817L440.819 121.07C440.659 121.28 440.507 121.505 440.326 121.708L439.783 122.309C439.406 122.701 439.058 123.135 438.645 123.519L437.377 124.664C435.529 126.226 433.465 127.512 431.248 128.483C426.446 130.572 421.1 131.065 415.998 129.888C413.644 129.337 411.382 128.449 409.281 127.251L407.832 126.36C407.354 126.055 406.934 125.693 406.492 125.367L405.84 124.882C405.63 124.715 405.442 124.519 405.246 124.345L404.094 123.287C402.761 121.926 401.585 120.419 400.588 118.795C399.144 116.447 398.122 113.865 397.566 111.165C397.46 110.749 397.387 110.325 397.349 109.897C397.298 109.528 397.262 109.216 397.233 108.955C397.204 108.694 397.182 108.528 397.168 108.376C397.16 108.305 397.165 108.234 397.182 108.165Z" fill="#1A2E35"/>
<path d="M408.267 197.637C406.673 200.962 404.127 203.74 400.953 205.618C397.779 207.496 394.119 208.389 390.437 208.186C386.755 207.982 383.216 206.69 380.268 204.474C377.321 202.258 375.097 199.216 373.878 195.735C372.66 192.254 372.502 188.49 373.424 184.919C374.346 181.347 376.306 178.13 379.058 175.674C381.809 173.218 385.227 171.634 388.879 171.122C392.531 170.61 396.253 171.193 399.573 172.798C404.016 174.943 407.426 178.763 409.056 183.419C410.686 188.076 410.402 193.189 408.267 197.637Z" fill="#10DD8E"/>
<g opacity="0.3">
<path opacity="0.3" d="M404.464 195.311C404.533 194.73 404.667 194.159 404.862 193.608C405.24 192.093 405.379 190.529 405.275 188.971C405.203 187.907 405.011 186.854 404.703 185.833C404.347 184.666 403.843 183.548 403.203 182.508C402.496 181.362 401.628 180.325 400.624 179.428C400.097 178.953 399.533 178.521 398.936 178.138C398.32 177.744 397.676 177.395 397.009 177.095C396.339 176.804 395.649 176.562 394.944 176.37C394.256 176.189 393.557 176.058 392.85 175.979C392.167 175.907 391.479 175.885 390.793 175.914C390.136 175.94 389.482 176.015 388.836 176.138C387.634 176.358 386.465 176.733 385.359 177.254C384.397 177.713 383.488 178.277 382.649 178.935C381.429 179.906 380.364 181.057 379.49 182.348C378.875 183.276 378.585 183.797 378.505 183.797C378.594 183.207 378.807 182.641 379.128 182.138C379.893 180.7 380.92 179.417 382.157 178.356C383.011 177.612 383.953 176.975 384.96 176.457C386.122 175.859 387.361 175.423 388.641 175.16C390.058 174.867 391.511 174.789 392.952 174.928C393.717 175.004 394.475 175.139 395.219 175.334C395.982 175.537 396.728 175.799 397.451 176.117C398.17 176.439 398.863 176.817 399.523 177.247C400.785 178.07 401.91 179.087 402.855 180.261C403.302 180.812 403.706 181.396 404.065 182.008C404.729 183.142 405.235 184.361 405.572 185.631C405.861 186.726 406.019 187.852 406.043 188.985C406.083 190.616 405.821 192.24 405.268 193.775C405.106 194.336 404.832 194.858 404.464 195.311Z" fill="black"/>
</g>
<g opacity="0.3">
<path opacity="0.3" d="M389.249 197.876L388.206 200.115L386.207 199.187L387.221 197.014C385.467 196.133 383.996 194.777 382.975 193.101L385.207 191.166C385.989 192.501 387.102 193.611 388.438 194.391L389.988 191.043C388.018 189.471 385.873 187.58 387.206 184.717C388.192 182.594 390.582 181.486 393.915 182.594L394.944 180.37L396.951 181.297L395.936 183.471C397.333 184.215 398.532 185.281 399.436 186.58L397.262 188.579C396.575 187.592 395.695 186.754 394.676 186.116L393.096 189.521C395.082 191.072 397.175 192.949 395.864 195.775C394.929 197.854 392.56 198.955 389.249 197.876ZM391.358 188.087L392.676 185.246C391.503 184.993 390.814 185.377 390.503 186.036C390.191 186.695 390.604 187.398 391.358 188.087ZM392.56 194.514C392.886 193.789 392.481 193.166 391.763 192.463L390.474 195.231C391.582 195.47 392.263 195.166 392.56 194.514Z" fill="black"/>
</g>
<path d="M378.672 183.413C378.672 183.413 378.447 184 378.092 185.058C377.62 186.567 377.397 188.143 377.433 189.724C377.458 190.812 377.604 191.893 377.868 192.949C378.192 194.155 378.667 195.317 379.28 196.405C379.965 197.599 380.816 198.69 381.809 199.644C383.964 201.7 386.717 203.019 389.67 203.412C391.037 203.587 392.423 203.565 393.785 203.346C396.103 202.984 398.292 202.039 400.146 200.6C401.399 199.637 402.486 198.474 403.363 197.158C403.971 196.217 404.254 195.659 404.283 195.709C404.238 195.853 404.177 195.992 404.102 196.122C403.921 196.517 403.715 196.899 403.486 197.267C402.645 198.637 401.568 199.846 400.305 200.839C399.437 201.531 398.491 202.12 397.487 202.593C396.332 203.122 395.115 203.501 393.864 203.723C392.468 203.954 391.045 203.981 389.641 203.803C386.609 203.412 383.782 202.058 381.577 199.941C380.56 198.961 379.691 197.838 378.998 196.608C378.381 195.488 377.909 194.296 377.592 193.057C377.33 191.978 377.194 190.871 377.187 189.761C377.173 188.154 377.44 186.558 377.976 185.044C378.121 184.633 378.291 184.231 378.483 183.841C378.525 183.69 378.588 183.546 378.672 183.413Z" fill="#1A2E35"/>
<path d="M100.64 194.97C101.523 200.929 100.618 207.015 98.0396 212.459C95.4615 217.902 91.3261 222.458 86.1572 225.55C80.9883 228.641 75.0183 230.129 69.0032 229.825C62.9882 229.521 57.1987 227.439 52.3679 223.841C47.537 220.244 43.8822 215.294 41.8662 209.618C39.8502 203.942 39.5637 197.796 41.043 191.957C42.5223 186.118 45.7008 180.849 50.1761 176.818C54.6513 172.787 60.222 170.175 66.1827 169.313C74.1539 168.146 82.2621 170.193 88.7239 175.005C95.1857 179.816 99.4719 186.998 100.64 194.97Z" fill="#10DD8E"/>
<g opacity="0.3">
<path opacity="0.3" d="M93.3439 195.296C93.2063 195.296 92.9599 194.325 92.3369 192.623C91.4614 190.232 90.2225 187.991 88.6637 185.978C87.5966 184.608 86.3818 183.359 85.0412 182.254C83.4912 180.998 81.7869 179.946 79.9697 179.124C77.9694 178.211 75.8456 177.598 73.6666 177.305C72.5167 177.149 71.3565 177.082 70.1963 177.102C67.8055 177.148 65.4366 177.569 63.1759 178.348C62.0803 178.73 61.0148 179.192 59.9882 179.732C58.9968 180.252 58.0472 180.848 57.1482 181.515C56.2792 182.149 55.4605 182.849 54.6994 183.609C53.2765 185.004 52.0395 186.578 51.0189 188.29C50.1361 189.792 49.4195 191.386 48.8817 193.043C48.1162 195.469 47.7277 197.998 47.7297 200.542C47.7297 202.361 47.8456 203.376 47.7297 203.397C47.6138 203.419 47.2805 202.441 47.0632 200.579C46.785 197.934 47.0012 195.261 47.7007 192.695C48.7419 188.835 50.7606 185.309 53.5619 182.457C54.3634 181.625 55.2308 180.859 56.1556 180.167C57.1113 179.43 58.1267 178.773 59.1912 178.204C60.2906 177.605 61.4366 177.096 62.6181 176.682C63.8362 176.265 65.0833 175.938 66.3492 175.704C67.6183 175.487 68.9019 175.366 70.1891 175.341C71.4423 175.32 72.695 175.403 73.9347 175.588C75.128 175.757 76.3056 176.024 77.4557 176.385C78.5624 176.715 79.6406 177.134 80.6797 177.638C84.2957 179.351 87.4097 181.966 89.7214 185.232C91.2604 187.403 92.3853 189.84 93.0396 192.42C93.4598 194.238 93.4743 195.282 93.3439 195.296Z" fill="black"/>
</g>
<g opacity="0.3">
<path opacity="0.3" d="M75.1228 212.65L75.7676 216.642L72.2031 217.208L71.5872 213.331C68.0227 213.679 64.4655 213.121 62.263 211.882L63.5236 207.223C65.7969 208.329 68.3177 208.829 70.841 208.672L69.8847 202.731C65.784 202.397 61.1545 201.789 60.3431 196.702C59.7345 192.927 61.9587 189.246 67.4794 187.703L66.849 183.754L70.4063 183.181L71.0294 187.065C73.5978 186.796 76.1933 187.144 78.6003 188.08L77.5209 192.746C75.6925 192.04 73.742 191.705 71.7829 191.76L72.7464 197.818C76.8471 198.108 81.4042 198.731 82.2083 203.752C82.7952 207.484 80.6072 211.107 75.1228 212.65ZM69.0515 197.485L68.2401 192.413C66.4216 193.137 65.842 194.296 66.0231 195.47C66.2043 196.644 67.3997 197.238 69.0515 197.485ZM76.5428 205.085C76.3472 203.839 75.2025 203.332 73.5869 203.042L74.3766 207.955C76.0936 207.281 76.7239 206.23 76.5428 205.085Z" fill="black"/>
</g>
<path d="M47.6138 202.738C47.6419 202.795 47.6614 202.856 47.6718 202.919C47.6718 203.064 47.7442 203.238 47.795 203.455C47.8457 203.672 47.9181 203.991 47.9906 204.332C48.0623 204.733 48.1641 205.127 48.2949 205.513C49.0119 208.002 50.1408 210.353 51.6348 212.469C52.6629 213.923 53.8486 215.26 55.1703 216.454L56.3078 217.382C56.5034 217.534 56.6918 217.7 56.9019 217.845L57.5322 218.265C57.9596 218.541 58.3798 218.853 58.8362 219.113L60.249 219.838C62.2746 220.839 64.4342 221.542 66.6608 221.925C71.4768 222.754 76.4317 222.023 80.8029 219.838C82.8226 218.821 84.6865 217.52 86.3381 215.976L87.4683 214.845C87.8305 214.469 88.1421 214.049 88.4753 213.657L88.9608 213.07C89.1129 212.875 89.2433 212.657 89.3882 212.454L90.2069 211.244C91.131 209.718 91.8796 208.092 92.4383 206.397C93.255 203.94 93.6565 201.364 93.6265 198.774C93.6335 198.368 93.6166 197.961 93.5758 197.557C93.5758 197.217 93.5251 196.919 93.5033 196.666C93.4816 196.412 93.5033 196.26 93.5033 196.115C93.4938 196.053 93.4938 195.989 93.5033 195.927C93.5208 195.986 93.5329 196.047 93.5395 196.108C93.5395 196.253 93.583 196.434 93.612 196.659C93.641 196.883 93.6772 197.202 93.7134 197.55C93.7716 197.955 93.8006 198.365 93.8004 198.774C93.8867 201.387 93.5215 203.995 92.7209 206.484C92.1704 208.203 91.4266 209.853 90.5039 211.404L89.678 212.643C89.5331 212.846 89.4027 213.07 89.2505 213.266L88.7579 213.867C88.4246 214.266 88.1131 214.693 87.7436 215.077L86.6061 216.23C84.9375 217.806 83.0486 219.131 80.9985 220.164C78.7815 221.248 76.4154 221.995 73.9782 222.381C71.5359 222.712 69.0583 222.683 66.6246 222.294C64.3577 221.887 62.1616 221.155 60.1041 220.12L58.6551 219.345C58.1914 219.084 57.7712 218.765 57.3365 218.483L56.699 218.048C56.4889 217.903 56.3005 217.729 56.1049 217.577L54.9457 216.686C53.6114 215.471 52.4203 214.107 51.3957 212.621C49.9067 210.47 48.8012 208.077 48.1282 205.549C48.0102 205.158 47.9206 204.758 47.8602 204.354C47.795 204.013 47.7442 203.716 47.7008 203.47L47.6066 202.926C47.6008 202.863 47.6032 202.8 47.6138 202.738Z" fill="#1A2E35"/>
<path d="M483.202 290.811C483.202 290.919 375.02 290.999 241.612 290.999C108.203 290.999 0 290.919 0 290.811C0 290.702 108.153 290.622 241.612 290.622C375.071 290.622 483.202 290.68 483.202 290.811Z" fill="#1A2E35"/>
<path d="M382.975 0.00720215H383.41H384.685C384.967 0.00720215 385.286 0.00724461 385.627 0.0507195L386.757 0.210106L388.068 0.398504L389.517 0.760795C392.044 1.40272 394.45 2.45269 396.639 3.86928C399.877 5.92644 402.6 8.69779 404.601 11.9709C406.601 15.2441 407.826 18.9321 408.18 22.7519C408.275 23.8966 408.297 25.0462 408.245 26.1937C408.245 26.7806 408.245 27.3674 408.13 27.9543L407.869 29.7295C407.418 32.1702 406.61 34.5313 405.471 36.7364C404.261 39.0461 402.721 41.1672 400.899 43.0329C398.958 44.9425 396.735 46.541 394.306 47.7717C391.795 49.063 389.075 49.8972 386.272 50.2352C385.553 50.3499 384.826 50.4129 384.098 50.4236C383.374 50.4637 382.649 50.4637 381.925 50.4236C377.297 50.238 372.808 48.7924 368.942 46.2428H369.203L360.407 49.7788L359.886 49.9888L360.03 49.4454C360.924 46.2137 361.786 43.0739 362.617 40.0258L362.66 40.2577C360.275 37.0906 358.667 33.4075 357.966 29.505C357.63 27.6899 357.516 25.8408 357.625 23.9982C357.64 23.1113 357.724 22.227 357.879 21.3535L358.074 20.0637C358.154 19.6435 358.284 19.2305 358.386 18.8175C359.889 13.0581 363.389 8.01975 368.261 4.60111C370.056 3.30784 372.021 2.26908 374.1 1.51439L375.419 1.04348L376.665 0.72453L377.809 0.442022C378.179 0.376809 378.534 0.333356 378.86 0.282635C379.527 0.202931 380.113 0.0869556 380.628 0.0579724L381.917 0.014455H382.707H382.975C382.888 0.0377244 382.798 0.0499317 382.707 0.0507195L381.925 0.115995L380.635 0.202853C380.128 0.202853 379.548 0.369592 378.889 0.471033C374.114 1.29492 369.682 3.48773 366.129 6.78317C362.577 10.0786 360.058 14.3348 358.878 19.0347C358.784 19.4405 358.661 19.8391 358.581 20.2594C358.502 20.6796 358.458 21.0999 358.393 21.5201C358.253 22.3805 358.176 23.2498 358.161 24.1213C358.061 25.9284 358.18 27.741 358.516 29.5194C359.217 33.3411 360.805 36.9448 363.153 40.0403L363.233 40.1418V40.2722C362.4 43.3082 361.545 46.4529 360.661 49.6918L360.291 49.3585L369.087 45.8224L369.224 45.7646L369.347 45.8442C373.126 48.3399 377.516 49.7533 382.041 49.9309C382.746 49.9588 383.452 49.9466 384.156 49.8947C384.857 49.8842 385.557 49.8261 386.25 49.7208C388.99 49.3842 391.651 48.57 394.111 47.3151C396.489 46.115 398.669 44.5559 400.573 42.6924C402.357 40.8674 403.87 38.7957 405.065 36.5407C406.185 34.3846 406.981 32.0749 407.427 29.6862C407.521 29.0993 407.608 28.5195 407.695 27.9471C407.782 27.3747 407.775 26.7878 407.818 26.2154C407.871 25.0898 407.852 23.9619 407.76 22.8388C407.43 19.0788 406.246 15.4439 404.298 12.2106C402.351 8.97737 399.692 6.23101 396.523 4.1808C394.373 2.7568 392.008 1.69006 389.517 1.02172L388.068 0.637673L386.764 0.420263L385.649 0.239118C385.308 0.195643 384.996 0.188326 384.714 0.166589L383.446 0.0724781C383.287 0.0712786 383.129 0.0492932 382.975 0.00720215Z" fill="#1A2E35"/>
<path d="M391.242 31.2295C391.143 31.2388 391.043 31.2388 390.945 31.2295H390.09L386.924 31.2802L376.295 31.3743H376.208V31.2875C376.129 30.7223 376.042 30.128 375.955 29.5266C375.23 24.3748 374.557 19.7739 374.129 16.7668L374.194 16.8249H371.362H370.637C370.55 16.8337 370.463 16.8337 370.376 16.8249H370.637H371.362L374.194 16.7741H374.245V16.8319C374.687 19.8317 375.368 24.4256 376.136 29.5774C376.223 30.1788 376.31 30.7729 376.39 31.3381L376.295 31.2512H386.924H390.09H390.945C391.043 31.2346 391.142 31.2273 391.242 31.2295Z" fill="#10DD8E"/>
<path d="M376.513 31.5264H376.15L376.1 31.1714V31.0845L375.882 29.6354L374.078 17.006H370.63C370.325 17.006 370.282 17.0059 370.282 16.8972C370.282 16.861 370.282 16.8609 370.608 16.8464H371.333L373.984 16.8031V16.7378L374.064 16.8031H374.303V16.9334C374.303 16.9697 374.303 17.0058 374.303 17.0493L374.383 17.1146H374.317C374.759 20.1144 375.433 24.6358 376.179 29.6789L376.411 31.2802L386.88 31.2439H390.901C391.242 31.2439 391.285 31.2439 391.285 31.3525C391.285 31.4612 391.285 31.4468 390.901 31.4613H390.046L386.88 31.5119L376.469 31.6062L376.513 31.5264ZM376.513 31.3092H379.345H376.513ZM375.571 26.1719L376.295 31.1281L376.071 29.5556C375.897 28.3963 375.708 27.266 375.542 26.1719H375.571Z" fill="#10DD8E"/>
<path d="M375.839 28.2225H375.897H376.114H376.969L380.171 28.179L391.198 28.0775L391.104 28.1573C391.423 26.3023 391.763 24.288 392.118 22.2085C392.299 21.1361 392.481 20.0854 392.654 19.0855L392.749 19.2014L379.751 19.2449H375.897H374.861H374.593H374.861H375.897L379.751 19.1941L392.749 19.0782H392.865V19.2014C392.691 20.2013 392.51 21.252 392.328 22.3244C391.973 24.4039 391.604 26.411 391.314 28.2731V28.3529H391.234H380.2H376.998H375.846L375.839 28.2225Z" fill="#10DD8E"/>
<path d="M380.193 28.3457H375.912C375.839 28.3457 375.752 28.3456 375.752 28.2514C375.752 28.1572 375.839 28.1573 375.912 28.15H376.991L380.193 28.0993L391.061 28.0051L392.046 22.2085C392.213 21.2158 392.379 20.2449 392.539 19.3102L379.766 19.3464H374.607C374.506 19.3464 374.426 19.3463 374.426 19.2449C374.426 19.1435 374.506 19.1508 374.6 19.1435L375.912 19.1073L379.759 19.0565L392.604 18.9479V18.9116V18.9479H392.952L392.894 19.2957L391.445 27.9906L391.379 28.3384H391.032L380.193 28.3457ZM391.061 28.1283H389.46H391.061ZM392.763 19.2449C392.597 20.1941 392.43 21.1796 392.256 22.1795L391.278 27.9761L392.727 19.2812L392.763 19.2449ZM392.611 19.0492H389.423H392.56H392.611Z" fill="#10DD8E"/>
<path d="M380.055 35.3524C380.02 35.2359 379.991 35.1173 379.969 34.9974C379.873 34.6848 379.677 34.4124 379.411 34.222C379.201 34.0685 378.953 33.9762 378.695 33.9551C378.436 33.9339 378.176 33.9848 377.944 34.1023C377.713 34.2197 377.518 34.3991 377.382 34.6204C377.247 34.8417 377.175 35.0964 377.175 35.3561C377.175 35.6158 377.247 35.8704 377.382 36.0917C377.518 36.313 377.713 36.4924 377.944 36.6098C378.176 36.7273 378.436 36.7783 378.695 36.7572C378.953 36.736 379.201 36.6435 379.411 36.49C379.675 36.2979 379.866 36.0221 379.954 35.7074C379.976 35.5875 380.005 35.4689 380.041 35.3524C380.071 35.4762 380.071 35.6054 380.041 35.7292C379.974 36.0745 379.783 36.3835 379.505 36.5987C379.303 36.7576 379.065 36.8642 378.812 36.9084C378.559 36.9527 378.3 36.9334 378.056 36.8523C377.748 36.7434 377.482 36.5416 377.293 36.2749C377.105 36.0083 377.004 35.6899 377.004 35.3634C377.004 35.0368 377.105 34.7183 377.293 34.4516C377.482 34.185 377.748 33.9832 378.056 33.8742C378.303 33.7833 378.57 33.7577 378.83 33.7996C379.09 33.8415 379.335 33.9495 379.541 34.1134C379.821 34.3255 380.014 34.6319 380.085 34.9756C380.107 35.1016 380.097 35.2312 380.055 35.3524Z" fill="#10DD8E"/>
<path d="M378.541 37.0333C378.356 37.0326 378.173 37.0006 377.998 36.939C377.673 36.8228 377.392 36.6091 377.194 36.3269C376.995 36.0448 376.888 35.7083 376.888 35.3632C376.888 35.0181 376.995 34.6814 377.194 34.3993C377.392 34.1171 377.673 33.9034 377.998 33.7872C378.217 33.7036 378.452 33.6682 378.686 33.6835C378.92 33.6988 379.148 33.7644 379.354 33.8758C379.56 33.9872 379.74 34.1419 379.881 34.3292C380.022 34.5165 380.121 34.7319 380.172 34.9609C380.193 35.0905 380.193 35.2227 380.172 35.3522C380.193 35.4817 380.193 35.614 380.172 35.7435C380.099 36.11 379.899 36.4388 379.606 36.671C379.305 36.9127 378.928 37.0409 378.541 37.0333ZM378.223 33.9031C378.16 33.9158 378.1 33.9352 378.042 33.9611C377.751 34.0628 377.499 34.2523 377.321 34.5035C377.142 34.7547 377.047 35.0552 377.047 35.3632C377.047 35.6712 377.142 35.9716 377.321 36.2227C377.499 36.4739 377.751 36.6634 378.042 36.7651L378.223 36.8231L378.042 36.7651C377.754 36.6601 377.506 36.4695 377.33 36.2187C377.155 35.9679 377.061 35.6692 377.061 35.3632C377.061 35.0571 377.155 34.7585 377.33 34.5077C377.506 34.2569 377.754 34.0661 378.042 33.9611L378.223 33.9031ZM378.578 34.0407C378.417 34.0421 378.257 34.0716 378.107 34.1277C377.933 34.1974 377.777 34.3032 377.647 34.438C377.518 34.5728 377.419 34.7337 377.356 34.9098C377.293 35.0859 377.269 35.2733 377.284 35.4596C377.3 35.6459 377.354 35.8268 377.445 35.9903C377.535 36.1538 377.66 36.2961 377.809 36.408C377.959 36.5198 378.131 36.5986 378.313 36.639C378.496 36.6794 378.685 36.6804 378.868 36.6422C379.051 36.604 379.223 36.5274 379.375 36.4173C379.62 36.2393 379.798 35.9842 379.882 35.6928C379.882 35.5696 379.932 35.4827 379.947 35.4175C379.961 35.3523 379.947 35.3812 379.947 35.3595C379.947 35.3377 379.947 35.3161 379.947 35.2944C379.935 35.2036 379.916 35.1138 379.889 35.0262C379.796 34.7358 379.613 34.4822 379.367 34.3016C379.137 34.1353 378.861 34.0441 378.578 34.0407Z" fill="#10DD8E"/>
<path d="M389.662 35.2944C389.626 35.1779 389.597 35.0593 389.575 34.9394C389.479 34.6268 389.283 34.3544 389.017 34.164C388.808 34.0105 388.56 33.918 388.301 33.8969C388.042 33.8758 387.783 33.9268 387.551 34.0443C387.32 34.1617 387.125 34.3409 386.989 34.5622C386.853 34.7835 386.781 35.0382 386.781 35.2979C386.781 35.5577 386.853 35.8124 386.989 36.0337C387.125 36.255 387.32 36.4342 387.551 36.5516C387.783 36.6691 388.042 36.7201 388.301 36.699C388.56 36.6779 388.808 36.5854 389.017 36.4319C389.282 36.2397 389.473 35.9641 389.561 35.6494C389.583 35.5295 389.612 35.4109 389.648 35.2944C389.678 35.4182 389.678 35.5472 389.648 35.671C389.576 36.0144 389.386 36.3221 389.112 36.5407C388.91 36.6997 388.672 36.8067 388.42 36.8522C388.167 36.8977 387.907 36.8802 387.663 36.8014C387.352 36.694 387.083 36.4924 386.893 36.2249C386.702 35.9574 386.6 35.6371 386.6 35.3087C386.6 34.9803 386.702 34.6603 386.893 34.3928C387.083 34.1252 387.352 33.9237 387.663 33.8162C387.905 33.7319 388.164 33.7095 388.418 33.7513C388.671 33.7931 388.909 33.8975 389.112 34.0552C389.391 34.2674 389.584 34.5739 389.655 34.9176C389.691 35.0404 389.693 35.1704 389.662 35.2944Z" fill="#10DD8E"/>
<path d="M388.162 36.9754C387.977 36.9752 387.794 36.9434 387.619 36.8813C387.294 36.765 387.013 36.5511 386.815 36.269C386.616 35.9869 386.509 35.6503 386.509 35.3053C386.509 34.9602 386.616 34.6236 386.815 34.3415C387.013 34.0594 387.294 33.8455 387.619 33.7293C387.881 33.6342 388.163 33.6078 388.438 33.6521C388.713 33.6965 388.972 33.8104 389.191 33.9829C389.486 34.2113 389.689 34.5378 389.764 34.9032C389.788 35.0325 389.788 35.1652 389.764 35.2945C389.785 35.424 389.785 35.5561 389.764 35.6856C389.691 36.0521 389.491 36.3809 389.198 36.6131C388.905 36.8484 388.539 36.9762 388.162 36.9754ZM387.836 33.8526C387.777 33.8628 387.718 33.8796 387.663 33.9032C387.373 34.0067 387.122 34.1974 386.945 34.4491C386.767 34.7007 386.672 35.0009 386.672 35.3088C386.672 35.6167 386.767 35.9171 386.945 36.1687C387.122 36.4204 387.373 36.6111 387.663 36.7146C387.731 36.7391 387.801 36.756 387.873 36.7652C387.801 36.7527 387.731 36.7334 387.663 36.7074C387.375 36.6024 387.127 36.4115 386.952 36.1608C386.776 35.91 386.682 35.6113 386.682 35.3053C386.682 34.9992 386.776 34.7006 386.952 34.4498C387.127 34.199 387.375 34.0081 387.663 33.9032L387.836 33.8526ZM388.191 33.9902C388.033 33.9887 387.875 34.0181 387.728 34.0771C387.477 34.1712 387.261 34.3396 387.108 34.5596C386.956 34.7797 386.873 35.041 386.873 35.3088C386.875 35.5544 386.944 35.7949 387.075 36.0031C387.205 36.2114 387.39 36.3792 387.611 36.4882C387.831 36.5972 388.077 36.6429 388.321 36.6202C388.566 36.5974 388.799 36.5073 388.996 36.3596C389.241 36.1816 389.42 35.9265 389.503 35.635C389.53 35.5476 389.55 35.4578 389.561 35.3668C389.561 35.3668 389.561 35.3235 389.561 35.3017C389.561 35.28 389.561 35.2582 389.561 35.2437C389.537 35.0475 389.473 34.8581 389.374 34.6874C389.274 34.5166 389.14 34.3681 388.981 34.2509C388.758 34.0863 388.49 33.9953 388.213 33.9902H388.191Z" fill="#10DD8E"/>
</g>
<defs>
<clipPath id="clip0_48:2941">
<rect width="483.195" height="290.97" fill="white"/>
</clipPath>
</defs>
</svg>
