<svg width="540" height="542" viewBox="0 0 540 542" fill="none" xmlns="http://www.w3.org/2000/svg">
<path d="M369.861 50.0226C417.256 28.2087 493.834 35.2418 530.71 91.0429C566.858 145.752 484.134 207.024 508.884 331.909C522.202 399.076 546.551 422.452 531.687 463.803C516.357 506.455 470.875 536.011 430.027 546.349C345.767 567.687 309.066 500.229 214.35 523.577C181.784 531.615 170.671 543.41 136.424 543.503C128.224 543.503 64.3474 543.765 30.961 506.502C-20.8428 448.691 64.7952 372.139 48.541 194.735C45.8194 165.086 40.1901 131.901 58.5145 97.2979C83.8988 49.3547 137.366 33.0117 157.958 26.2573C208.076 9.83291 284.409 7.48066 304.838 42.7048C311.474 54.088 341.045 63.2644 369.861 50.0226Z" fill="#F4F4F4"/>
<path d="M343 269.655C345.209 266.681 347.384 258.266 347.07 255.838C344.826 239.687 342.581 209.179 329.467 197.97C327.228 196.059 316.138 203.626 312.911 203.081C304.67 206.193 302.001 207.779 292.708 206.896C265.276 204.277 263.2 148.087 221.399 170.94C190.775 187.678 179.528 215.869 144.757 177.462C109.987 139.056 13.6603 103.28 1.7619 167.554C-5.05959 204.445 48.6866 212.019 60.8641 246.093C72.4426 278.471 99.7868 286.648 135.825 275.91C171.863 265.171 169.979 287.601 184.477 314.741C201.923 347.34 243.934 312.72 261.979 295.081C276.483 280.881 323.076 254.502 343 269.655Z" fill="url(#paint0_linear_48:3115)"/>
<path d="M339.004 228.263L338.731 227.525C224.708 269.196 98.2807 238.793 0.546616 146.188L0 146.769C46.3199 190.658 101.188 221.689 158.761 236.528C219.207 252.133 281.554 249.258 339.004 228.263Z" fill="#FCFDFE"/>
<path d="M190.13 329.121C204.564 299.246 240.968 261.083 271.29 244.049L270.9 243.364C240.462 260.467 203.912 298.781 189.42 328.778L190.13 329.121Z" fill="#FCFDFE"/>
<path d="M316.516 236.191L316.464 235.401C298.436 236.667 280.408 228.774 263.009 211.943C250.215 199.602 238.002 182.835 226.767 162.101L226.075 162.479C237.38 183.282 249.622 200.113 262.456 212.507C280.06 229.483 298.244 237.469 316.516 236.191Z" fill="#FCFDFE"/>
<path d="M150.655 234.094V233.31C116.53 233.943 87.3885 254.868 68.9536 272.309L69.4945 272.89C87.8131 255.536 116.78 234.71 150.655 234.094Z" fill="#FCFDFE"/>
<path d="M78.3686 204.509L78.8745 203.928C49.3205 179.362 40.2833 140.078 37.5268 118.85L36.7476 118.949C39.5099 140.235 48.611 179.739 78.3686 204.509Z" fill="#FCFDFE"/>
<path d="M314.382 423.811C332.925 412.118 351.244 399.979 369.338 387.396C369.791 387.541 357.178 341.596 326.67 328.075C266.771 302.254 276.593 250.907 274.052 224.191C271.831 185.941 249.587 153.337 215.939 167.577C178.295 182.678 144.409 124.385 126.381 65.6857C119.507 36.2055 79.1946 14.5774 50.2279 18.4047C20.3657 21.6338 1.84353 50.2836 17.8883 107.995C33.5899 176.08 96.2454 193.619 127.172 217.553C157.575 241.028 129.812 283.181 173.224 296.719C210.315 309.38 251.215 312.173 252.64 348.071C253.564 383.772 267.504 407.131 314.382 423.811Z" fill="#FDC864"/>
<path d="M343.04 414.17C342.877 413.781 283.723 331.542 211.833 257.795C200.987 245.518 189.687 233.287 178.76 221.462C117.919 155.59 60.4511 93.3716 51.1872 0L49.8845 0.127754C59.1892 93.9349 116.808 156.31 177.824 222.345C188.745 234.169 200.039 246.395 210.896 258.678C283.13 332.861 341.557 414.199 341.86 414.75L343.04 414.17Z" fill="#BEB8F2"/>
<path d="M122.81 160.236L123.345 159.04C90.3429 144.294 48.181 121.237 25.5299 108.843C7.1997 98.8191 7.15321 98.8481 6.58911 99.214L6.93802 99.7599L6.89152 100.399C7.73476 100.596 15.3123 104.743 24.9193 109.987C47.5704 122.387 89.7613 145.467 122.81 160.236Z" fill="#BEB8F2"/>
<path d="M101.479 129.287C93.611 99.2839 96.9433 75.7508 101.13 61.2952C105.684 45.5504 112.441 36.2464 113.471 35.5495L113.186 35.1313L113.331 34.324C112.941 34.2543 112.639 34.4924 112.22 34.9513C106.161 41.5257 86.3766 76.8602 100.217 129.618L101.479 129.287Z" fill="#BEB8F2"/>
<path d="M255.751 307.487L256.873 306.819C225.354 253.788 240.241 184.699 248.103 157.454C248.338 156.744 248.532 156.02 248.685 155.288L247.388 155.149L248.04 155.218L247.388 155.143C247.388 155.305 247.126 156.136 246.847 157.094C241.304 176.018 237.872 195.495 236.612 215.172C234.466 251.447 240.904 282.507 255.751 307.487Z" fill="#BEB8F2"/>
<path d="M143.316 275.98L143.013 275.399L143.071 276.044L142.403 275.637L142.6 274.882C143.374 274.429 194.613 255.06 235.374 282.868L234.641 283.948C194.294 256.425 143.781 275.759 143.316 275.98ZM143.007 275.399L142.949 274.749L143.007 275.399Z" fill="#BEB8F2"/>
<path d="M333.189 400.812C327.728 389.632 323.204 368.462 332.648 331.049C333.183 328.923 333.183 328.923 333.003 328.633L331.898 329.33L332.45 328.981H331.799C331.799 329.132 331.596 329.876 331.38 330.724C321.837 368.521 326.461 390.004 332.014 401.375L333.189 400.812Z" fill="#BEB8F2"/>
<path d="M317.452 382.227L318.453 381.39C303.571 363.723 268.678 361.435 249.203 361.644C248.58 361.644 248.185 361.644 248.039 361.644L247.964 362.945C248.121 362.945 248.545 362.945 249.214 362.945C268.463 362.736 302.949 364.966 317.452 382.227Z" fill="#BEB8F2"/>
<path d="M218.928 509.214C222.944 507.871 226.534 505.492 229.334 502.316C232.133 499.141 234.042 495.284 234.868 491.135L246.719 432.569L348.082 436.164L360.556 497.18C362.301 505.724 355.323 514.296 347.257 517.444L304.851 534.013C296.97 537.095 288.485 538.323 280.054 537.603L190.432 529.948C189.154 529.833 187.956 529.28 187.039 528.384C186.122 527.487 185.544 526.302 185.402 525.029C185.099 522.392 183.262 519.43 185.762 518.6L218.928 509.214Z" fill="#97A6B7"/>
<path d="M217.927 505.654C221.922 504.344 225.499 502.003 228.295 498.868C231.091 495.733 233.008 491.914 233.85 487.801L245.69 429.967L344.581 433.521L357.032 493.771C357.878 497.858 357.244 502.111 355.244 505.775C353.244 509.438 350.008 512.275 346.111 513.779L303.746 530.14C295.866 533.183 287.396 534.397 278.978 533.688L189.42 526.138C188.15 526.031 186.956 525.488 186.042 524.602C185.127 523.716 184.547 522.541 184.401 521.277C184.252 520.014 184.546 518.739 185.232 517.667C185.918 516.596 186.954 515.795 188.164 515.399L217.927 505.654Z" fill="url(#paint1_linear_48:3115)"/>
<path d="M56.0549 391.845V129.223C56.0935 126.587 57.138 124.064 58.9751 122.17C60.8122 120.276 63.3036 119.153 65.9412 119.031L517.724 100.893C524.604 100.62 530.245 105.365 530.245 111.44V401.678L56.0549 391.845Z" fill="url(#paint2_linear_48:3115)"/>
<path d="M516.276 151.833V378.551C516.276 384.207 511.043 388.691 504.646 388.511L75.8743 376.315C73.4041 376.24 71.0579 375.217 69.3246 373.458C67.5913 371.698 66.6044 369.339 66.5696 366.871V164.685L516.276 151.833Z" fill="white"/>
<path d="M66.5864 164.685V141.454C66.6244 139.033 67.5883 136.718 69.2805 134.984C70.9726 133.25 73.265 132.228 75.6875 132.127L504.866 116.138C511.123 115.906 516.253 120.244 516.253 125.791V151.81L66.5864 164.685Z" fill="#FAA600"/>
<path d="M484.902 134.183C484.902 136.128 486.681 137.667 488.874 137.58C491.066 137.493 492.857 135.873 492.857 133.921C492.857 131.97 491.072 130.437 488.874 130.518C486.676 130.599 484.902 132.231 484.902 134.183Z" fill="#9D3060"/>
<path d="M467.77 134.741C467.77 136.681 469.515 138.225 471.701 138.127C473.888 138.028 475.638 136.425 475.638 134.485C475.638 132.545 473.894 131.03 471.701 131.099C469.509 131.169 467.77 132.807 467.77 134.741Z" fill="#9D3060"/>
<path d="M450.841 135.298C450.841 137.221 452.585 138.731 454.726 138.661C456.866 138.591 458.616 136.971 458.616 135.043C458.616 133.114 456.871 131.604 454.726 131.68C452.58 131.755 450.841 133.37 450.841 135.298Z" fill="#9D3060"/>
<path d="M530.25 401.677V459.645C530.25 465.72 524.609 470.453 517.73 470.163L65.9468 451.084C63.3081 450.956 60.8174 449.829 58.981 447.932C57.1445 446.036 56.1003 443.512 56.0605 440.874V390.16L530.25 401.677Z" fill="url(#paint3_linear_48:3115)"/>
<path d="M80.7994 366.633L496.416 377.807C497.155 377.834 497.891 377.712 498.582 377.45C499.272 377.188 499.904 376.791 500.439 376.282C500.973 375.773 501.401 375.162 501.696 374.485C501.991 373.809 502.147 373.08 502.156 372.342V167.281C502.147 166.546 501.991 165.819 501.695 165.146C501.4 164.472 500.971 163.864 500.436 163.359C499.9 162.854 499.268 162.462 498.578 162.206C497.887 161.95 497.152 161.835 496.416 161.869L80.7994 173.385C79.4105 173.441 78.0977 174.034 77.1384 175.039C76.1791 176.043 75.6484 177.381 75.6586 178.769V361.319C75.6519 362.699 76.1858 364.028 77.1463 365.021C78.1067 366.014 79.4177 366.592 80.7994 366.633Z" fill="#F4F7FA"/>
<path d="M414.006 187.452L489.008 185.884V174.506L414.006 176.219V187.452Z" fill="#D8DEE8"/>
<path d="M414.006 203.046L489.008 201.681V190.298L414.006 191.808V203.046Z" fill="#D8DEE8"/>
<path d="M414.006 296.963L489.008 296.812V215.015L414.006 216.212V296.963Z" fill="#D8DEE8"/>
<path d="M474.114 359.652L487.269 359.815C487.304 359.816 487.34 359.811 487.373 359.798C487.407 359.786 487.437 359.767 487.463 359.743C487.489 359.718 487.51 359.689 487.525 359.657C487.539 359.624 487.547 359.589 487.548 359.553V356.65C487.546 356.577 487.516 356.507 487.464 356.456C487.412 356.405 487.342 356.377 487.269 356.377L474.114 356.231C474.078 356.23 474.043 356.235 474.009 356.248C473.975 356.26 473.944 356.279 473.918 356.303C473.891 356.327 473.87 356.357 473.855 356.389C473.839 356.422 473.831 356.457 473.829 356.493V359.397C473.835 359.467 473.868 359.533 473.921 359.581C473.974 359.628 474.043 359.654 474.114 359.652Z" fill="#D8DEE8"/>
<path d="M434.808 365.629L487.268 366.372C487.304 366.374 487.34 366.368 487.373 366.356C487.406 366.343 487.437 366.324 487.463 366.3C487.489 366.276 487.51 366.246 487.524 366.214C487.539 366.181 487.547 366.146 487.548 366.111V363.207C487.546 363.134 487.516 363.064 487.464 363.013C487.412 362.962 487.341 362.934 487.268 362.934L434.808 362.243C434.772 362.242 434.737 362.248 434.705 362.261C434.672 362.273 434.642 362.292 434.617 362.317C434.591 362.341 434.571 362.37 434.557 362.402C434.543 362.434 434.535 362.469 434.534 362.504V365.385C434.541 365.452 434.573 365.514 434.624 365.559C434.674 365.604 434.74 365.629 434.808 365.629Z" fill="#D8DEE8"/>
<path d="M488.065 320.084C488.473 320.302 488.808 320.634 489.029 321.04C489.25 321.445 489.348 321.906 489.31 322.366C489.197 322.812 488.963 323.217 488.633 323.538C488.304 323.859 487.892 324.083 487.443 324.184C486.385 324.463 486.036 323.83 484.89 323.917C483.145 324.051 481.802 325.659 481.232 326.896C480.662 328.133 481.11 328.377 480.75 329.748C480.121 332.158 478.156 333.633 476.277 335.045C474.713 336.206 472.323 337.647 471.887 337.223C471.736 337.072 471.887 336.723 471.957 336.514C472.288 335.678 473.05 335.486 474.085 334.708C474.818 334.156 475.742 333.459 475.591 332.902C475.44 332.344 474.271 332.007 473.399 332.245C472.708 332.494 472.143 333.003 471.823 333.662C471.625 333.988 471.66 334.417 471.48 334.435C471.299 334.452 471.212 334.278 471.154 334.127C470.991 333.744 471.27 333.372 471.375 333.076C471.614 332.396 471.055 331.653 470.497 330.915C469.566 329.684 469.02 329.673 467.589 328.232C466.624 327.268 466.141 326.769 466.083 326.072C465.996 324.87 467.089 323.981 467.246 323.836C468.13 323.116 469.619 322.628 470.259 323.15C470.898 323.673 470.224 324.504 470.898 325.177C471.157 325.401 471.469 325.554 471.803 325.623C472.138 325.692 472.485 325.675 472.811 325.572C473.203 325.463 473.553 325.238 473.814 324.927C474.076 324.616 474.237 324.234 474.277 323.83C474.303 323.603 474.279 323.374 474.208 323.158C474.137 322.941 474.019 322.742 473.864 322.575C473.73 322.448 473.405 322.186 472.311 322.14C470.77 322.076 470.45 322.546 469.526 322.355C468.758 322.192 467.828 321.617 467.839 321.054C467.839 320.397 469.142 320.334 470.619 318.858C471.201 318.278 471.666 317.807 471.625 317.18C471.573 316.291 470.549 315.589 470.346 315.438C469.549 314.892 468.84 314.45 468.84 314.45C468.642 314.323 468.351 314.143 468.386 313.974C468.421 313.806 468.566 313.788 468.84 313.713C469.345 313.576 469.874 313.546 470.392 313.626C471.439 313.846 471.771 314.317 473.044 314.967C473.851 315.396 474.711 315.715 475.603 315.914C476.952 316.199 477.411 315.966 478.08 316.431C478.749 316.895 478.516 317.256 479.179 317.947C479.842 318.638 480.715 318.911 482.023 319.288C482.973 319.558 483.947 319.733 484.931 319.811C486.902 319.968 487.298 319.654 488.065 320.084Z" fill="#D8DEE8"/>
<path d="M466.165 314.276C467.59 314.631 468.823 314.938 469.073 315.74C469.141 315.968 469.142 316.211 469.077 316.44C469.012 316.67 468.884 316.876 468.707 317.035C467.962 317.616 466.834 316.681 466.02 317.209C465.578 317.488 465.746 317.86 465.246 319.921C464.909 321.298 464.636 321.954 464.083 322.547C463.787 322.883 463.362 323.354 462.949 323.278C462.327 323.162 462.56 322.001 461.583 321.164C461.24 320.874 461.176 320.984 459.541 320.258C458.588 319.834 458.105 319.619 458 319.439C457.46 318.528 458.896 317.43 458.314 316.344C458.21 316.141 458.192 316.245 457.454 315.397C456.61 314.422 456.616 314.271 456.64 314.195C456.733 313.882 457.366 313.858 458.995 313.678C461.699 313.388 461.903 313.243 462.717 313.417C463.252 313.533 463.391 313.649 464.537 313.934C465.467 314.143 465.566 314.12 466.165 314.276Z" fill="#D8DEE8"/>
<path d="M469.764 337.21C470.048 337.437 470.284 337.718 470.457 338.038C470.629 338.357 470.736 338.708 470.771 339.069C470.928 340.01 470.637 340.625 470.084 342.17C469.637 343.256 469.287 344.38 469.038 345.527C468.956 346.358 469.119 346.503 469.764 349.761C470.247 352.183 470.299 352.816 469.858 353.246C469.212 353.896 467.816 353.827 467.758 353.652C467.7 353.478 468.031 353.501 468.264 353.228C468.77 352.619 468.404 351.596 468.305 351.329C467.927 350.272 467.206 349.819 466.031 348.768C464.641 347.525 463.734 346.712 463.071 345.51C462.41 344.423 462.124 343.15 462.257 341.886C462.389 340.914 462.781 339.995 463.391 339.226C464.218 338.205 465.348 337.473 466.618 337.135C467.526 336.926 468.805 336.543 469.764 337.21Z" fill="#D8DEE8"/>
<path d="M456.267 331.154C456.826 332.062 457.268 333.038 457.581 334.057C457.779 334.9 457.971 336.805 456.947 337.542C456.017 338.204 454.947 337.298 453.644 338.036C453.049 338.429 452.592 338.997 452.336 339.662C451.574 341.125 451.934 341.933 451.609 343.815C451.458 344.703 450.975 347.514 449.759 347.706C448.748 347.863 447.643 346.132 447.462 345.841C446.974 345.069 446.782 344.273 446.427 342.705C445.945 340.591 446.125 340.295 445.613 339.703C444.962 338.93 444.171 338.843 443.996 338.105C443.964 337.872 443.979 337.634 444.041 337.406C444.103 337.179 444.21 336.966 444.357 336.781C445.032 335.678 445.974 335.8 446.607 334.737C446.968 334.127 447.067 333.395 446.922 333.326C446.776 333.256 446.421 333.703 446.247 333.906C445.7 334.574 445.764 334.812 445.433 335.149C445.171 335.362 444.87 335.52 444.546 335.613C444.223 335.707 443.883 335.735 443.549 335.695C443.025 335.631 442.089 335.353 441.973 334.783C441.885 334.354 442.316 333.889 442.827 333.337C443.24 332.89 443.554 332.698 443.502 332.611C443.45 332.524 443.083 332.611 442.106 332.948C441.129 333.285 440.525 333.453 440.449 333.494C440.094 333.686 439.786 333.941 438.792 335.498C437.797 337.054 437.407 337.861 437.175 337.792C437.064 337.792 437.082 337.542 436.995 336.81C436.872 335.713 436.803 335.155 436.506 334.754C436.356 334.535 436.157 334.354 435.923 334.226C435.689 334.099 435.429 334.029 435.163 334.023C434.831 334.057 434.43 334.545 433.645 335.509C432.86 336.473 432.604 336.787 432.081 337.037C431.911 337.148 431.718 337.22 431.517 337.248C431.316 337.276 431.111 337.26 430.917 337.199C430.705 337.041 430.55 336.817 430.478 336.562C430.405 336.307 430.419 336.035 430.516 335.788C430.737 335.207 431.336 335.138 431.319 334.772C431.319 334.249 430.045 333.901 429.94 333.866C429.132 333.651 428.923 333.866 428.51 333.645C428.208 333.408 427.981 333.089 427.855 332.727C427.729 332.364 427.71 331.974 427.8 331.601C427.957 330.84 428.498 330.567 428.335 330.236C428.173 329.905 427.754 330.056 426.911 329.847C426.11 329.739 425.371 329.36 424.817 328.772C424.529 328.312 424.376 327.781 424.375 327.239C424.323 326.788 424.323 326.332 424.375 325.88C424.474 324.875 424.707 324.811 424.596 324.515C424.358 323.876 423.2 324.051 420.996 323.447C419.74 323.098 418.827 322.686 418.74 322.866C418.653 323.046 420.101 323.644 420.2 324.701C420.275 325.497 419.537 326.304 419.223 326.229C418.909 326.153 419.153 325.532 418.693 324.608C418.491 324.125 418.152 323.711 417.716 323.418C417.059 323.017 416.675 323.296 416.082 322.866C415.605 322.517 415.728 322.25 415.332 321.884C414.431 321.065 412.907 321.635 412.814 321.304C412.721 320.973 413.896 320.142 415.419 319.95C416.774 319.776 416.978 320.328 418.513 320.339C419.385 320.339 420.444 320.014 422.549 319.364C423.482 319.004 424.461 318.775 425.457 318.684C426.207 318.644 426.23 318.748 427.015 318.684C428.029 318.698 429.024 318.402 429.865 317.836C430.539 317.29 430.336 316.971 430.894 316.64C431.79 316.117 433.017 316.553 434.064 316.942C435.2 317.4 436.28 317.984 437.285 318.684C438.826 319.66 439.344 320.148 440.193 320.055C440.827 319.979 440.955 319.666 441.67 319.672C442.252 319.672 442.432 319.881 443.601 320.357C444.77 320.833 445.346 321.042 445.805 320.938C446.573 320.804 446.602 320.305 447.427 319.997C448.253 319.689 449.172 319.91 450.178 320.212C451.446 320.583 452.69 320.949 453.295 321.954C453.9 322.959 453.342 323.998 454.063 324.486C454.644 324.893 455.272 324.37 455.808 324.794C456.47 325.299 456.273 326.571 456.174 327.245C455.965 328.563 455.453 328.888 455.627 329.818C455.758 330.298 455.975 330.751 456.267 331.154Z" fill="#D8DEE8"/>
<path d="M443.997 342.235C444.311 342.235 444.846 343.397 444.718 344.558C444.718 344.628 444.601 345.511 444.311 345.54C444.02 345.569 443.758 344.843 443.729 344.767C443.591 344.383 443.543 343.971 443.589 343.565C443.607 343.373 443.683 342.264 443.997 342.235Z" fill="#D8DEE8"/>
<path d="M432.569 339.378C432.569 339.43 432.505 339.517 432.249 339.709C431.793 340.112 431.267 340.429 430.696 340.644C430.219 340.795 429.033 341.079 428.777 340.644C428.614 340.382 428.847 339.86 429.225 339.621C429.603 339.383 429.923 339.592 430.876 339.546C431.83 339.5 432.511 339.25 432.569 339.378Z" fill="#D8DEE8"/>
<path d="M429.225 337.136C429.423 337.136 429.37 337.536 429.76 338.332C429.94 338.704 430.039 338.802 429.981 338.913C429.82 339.077 429.603 339.176 429.373 339.189C429.143 339.203 428.917 339.132 428.736 338.988C428.388 338.68 428.545 338.123 428.603 337.925C428.707 337.571 428.992 337.101 429.225 337.136Z" fill="#D8DEE8"/>
<path d="M425.218 340.22C424.954 340.552 424.598 340.8 424.195 340.934C423.98 341.027 422.38 341.689 421.973 341.178C421.909 341.059 421.88 340.924 421.888 340.788C421.896 340.653 421.942 340.522 422.02 340.412C422.218 340.086 422.601 340.011 423.183 339.866C424.928 339.43 425.352 339.221 425.509 339.413C425.666 339.604 425.3 340.109 425.218 340.22Z" fill="#D8DEE8"/>
<path d="M428.201 335.637C428.411 335.701 428.393 336.618 428.021 337.338C427.823 337.716 427.468 338.163 427.306 338.105C427.143 338.047 427.224 337.391 427.352 336.944C427.55 336.305 427.98 335.579 428.201 335.637Z" fill="#D8DEE8"/>
<path d="M426.509 331.328C426.509 331.113 425.928 331.16 425.218 330.747C424.51 330.318 423.939 329.695 423.573 328.953C423.491 328.778 423.41 328.558 423.352 328.569C423.293 328.581 423.247 329.121 423.352 329.591C423.446 330.019 423.635 330.421 423.903 330.767C424.172 331.113 424.513 331.396 424.904 331.595C425.124 331.712 425.37 331.772 425.62 331.769C426.032 331.734 426.509 331.525 426.509 331.328Z" fill="#D8DEE8"/>
<path d="M428.021 343.82C428.992 344.628 429.527 344.488 429.673 344.941C429.818 345.394 429.167 345.685 429.045 346.724C428.969 347.375 429.178 347.741 429.004 347.833C428.736 347.979 428.295 347.119 427.259 346.794C426.582 346.589 425.852 346.643 425.212 346.945C424.695 347.235 424.765 347.526 423.921 348.211C423.386 348.658 423.107 348.885 422.758 348.838C422.177 348.768 421.886 348.014 421.688 347.555C421.345 346.831 421.253 346.013 421.427 345.232C421.537 344.779 421.618 344.889 423.171 342.821C423.596 342.24 423.753 342.002 424.148 341.851C424.737 341.666 425.375 341.716 425.928 341.991C426.339 342.222 426.715 342.512 427.044 342.85C427.678 343.443 427.637 343.501 428.021 343.82Z" fill="#D8DEE8"/>
<path d="M476.301 327.082C477.674 326.247 478.76 325.013 479.412 323.545C479.732 322.779 480.674 320.531 479.482 319.207C478.813 318.599 477.943 318.262 477.039 318.26C476.539 318.208 474.998 318.063 474.027 318.934C472.48 320.322 473.591 323.22 473.812 323.801C474.33 325.098 475.19 326.232 476.301 327.082Z" fill="url(#paint4_linear_48:3115)"/>
<path d="M474.887 321.472C474.9 321.945 475.099 322.394 475.443 322.721C475.786 323.048 476.245 323.225 476.719 323.214C476.954 323.221 477.189 323.181 477.408 323.097C477.628 323.013 477.829 322.887 477.999 322.724C478.17 322.562 478.306 322.368 478.401 322.153C478.496 321.938 478.547 321.707 478.551 321.472C478.546 321.237 478.494 321.006 478.399 320.791C478.304 320.576 478.168 320.382 477.998 320.221C477.827 320.059 477.627 319.932 477.408 319.848C477.188 319.763 476.954 319.723 476.719 319.729C476.484 319.722 476.25 319.762 476.03 319.846C475.811 319.93 475.61 320.057 475.439 320.219C475.269 320.381 475.133 320.575 475.038 320.79C474.943 321.005 474.892 321.237 474.887 321.472Z" fill="#F4F7FA"/>
<path d="M426.817 345.534C428.16 344.71 429.216 343.493 429.841 342.049C430.155 341.294 431.068 339.087 429.911 337.774C429.264 337.178 428.419 336.841 427.538 336.828C427.05 336.776 425.555 336.624 424.631 337.478C423.125 338.837 424.206 341.701 424.427 342.275C424.917 343.556 425.743 344.681 426.817 345.534Z" fill="url(#paint5_linear_48:3115)"/>
<path d="M425.416 339.993C425.416 340.225 425.462 340.454 425.552 340.668C425.642 340.882 425.773 341.075 425.939 341.238C426.105 341.4 426.301 341.528 426.517 341.613C426.733 341.698 426.963 341.74 427.195 341.736C427.655 341.745 428.1 341.573 428.433 341.256C428.766 340.94 428.961 340.505 428.975 340.045C428.975 339.814 428.929 339.584 428.839 339.371C428.749 339.157 428.617 338.963 428.452 338.801C428.286 338.639 428.089 338.511 427.874 338.425C427.658 338.34 427.427 338.298 427.195 338.303C426.736 338.294 426.291 338.466 425.957 338.783C425.624 339.099 425.429 339.534 425.416 339.993Z" fill="#F4F7FA"/>
<path d="M437.983 333.843C439.329 333.017 440.39 331.802 441.025 330.358C441.339 329.597 442.257 327.379 441.094 326.066C440.444 325.465 439.591 325.129 438.704 325.125C438.216 325.073 436.71 324.928 435.762 325.787C434.244 327.158 435.331 330.027 435.552 330.602C436.054 331.882 436.894 333.002 437.983 333.843Z" fill="url(#paint6_linear_48:3115)"/>
<path d="M436.599 328.29C436.602 328.52 436.652 328.748 436.744 328.959C436.836 329.17 436.97 329.36 437.136 329.52C437.303 329.679 437.499 329.804 437.715 329.887C437.93 329.97 438.159 330.009 438.39 330.003C438.619 330.009 438.848 329.97 439.062 329.888C439.277 329.806 439.473 329.682 439.639 329.524C439.806 329.366 439.939 329.176 440.032 328.967C440.125 328.757 440.176 328.531 440.181 328.302C440.181 328.069 440.134 327.838 440.044 327.624C439.953 327.409 439.821 327.215 439.654 327.053C439.487 326.891 439.289 326.763 439.072 326.678C438.855 326.594 438.623 326.553 438.39 326.559C438.158 326.553 437.927 326.593 437.711 326.677C437.494 326.761 437.297 326.888 437.13 327.049C436.963 327.21 436.83 327.403 436.739 327.616C436.648 327.829 436.6 328.058 436.599 328.29Z" fill="#F4F7FA"/>
<path d="M465.048 346.48C466.411 345.661 467.49 344.445 468.142 342.996C468.462 342.235 469.392 339.999 468.212 338.675C467.548 338.07 466.685 337.729 465.786 337.717C465.286 337.664 463.757 337.507 462.792 338.373C461.25 339.749 462.355 342.642 462.576 343.222C463.094 344.51 463.947 345.635 465.048 346.48Z" fill="url(#paint7_linear_48:3115)"/>
<path d="M463.647 340.882C463.659 341.353 463.857 341.801 464.198 342.127C464.539 342.453 464.995 342.632 465.467 342.624C465.699 342.633 465.931 342.596 466.148 342.515C466.366 342.434 466.565 342.31 466.734 342.151C466.903 341.992 467.038 341.801 467.132 341.589C467.226 341.377 467.277 341.148 467.282 340.917C467.271 340.446 467.074 339.998 466.734 339.672C466.394 339.345 465.939 339.166 465.467 339.174C465.235 339.164 465.003 339.2 464.784 339.281C464.566 339.362 464.366 339.486 464.197 339.645C464.027 339.804 463.891 339.995 463.797 340.208C463.702 340.42 463.651 340.649 463.647 340.882Z" fill="#F4F7FA"/>
<path d="M412.75 282.583L490.508 282.229V279.18L412.75 279.575V282.583Z" fill="#F4F7FA"/>
<path d="M478.377 293.635C478.377 293.635 483.925 290.075 482.68 287.45C481.436 284.825 479.278 285.864 478.15 286.666C476.225 285.533 475.434 285.952 474.527 286.416C473.62 286.881 472.381 289.924 478.377 293.635Z" fill="#FC78AC"/>
<path d="M418.217 293.867L468.468 293.734V286.131L418.217 286.329V293.867Z" fill="#F4F7FA"/>
<path d="M92.6804 358.014L401.59 358.014V174.506L92.6804 174.506V358.014Z" fill="#D8DEE8"/>
<path style="mix-blend-mode:multiply" opacity="0.29" d="M225.813 167.259C226.159 167.26 226.5 167.178 226.807 167.02C227.029 166.921 227.227 166.776 227.388 166.594C227.549 166.412 227.669 166.197 227.74 165.965C227.811 165.733 227.831 165.488 227.8 165.248C227.768 165.007 227.686 164.776 227.557 164.57L172.462 110.383C172.162 109.96 171.719 109.659 171.215 109.536C170.71 109.413 170.178 109.477 169.717 109.715C169.495 109.814 169.296 109.959 169.135 110.141C168.973 110.323 168.853 110.537 168.782 110.769C168.711 111.002 168.691 111.247 168.722 111.488C168.754 111.729 168.838 111.96 168.967 112.166L224.062 166.353C224.256 166.637 224.517 166.869 224.823 167.027C225.128 167.185 225.469 167.265 225.813 167.259Z" fill="url(#paint8_linear_48:3115)"/>
<path opacity="0.22" d="M292.324 143.574C328.099 139.33 364.127 149.116 392.821 170.871L443.671 100.655C443.984 100.239 444.438 99.9509 444.948 99.8441C445.459 99.7373 445.99 99.819 446.445 100.074C446.662 100.182 446.854 100.335 447.007 100.524C447.16 100.712 447.27 100.931 447.33 101.166C447.39 101.401 447.399 101.646 447.355 101.885C447.312 102.123 447.218 102.35 447.079 102.548L395.903 173.241C428.847 199.532 450.608 240.849 450.608 289.71C450.608 380.746 375.084 445.881 292.33 436.379C219.207 428.004 165.879 362.922 165.879 290.192C165.879 217.461 219.207 152.205 292.324 143.574Z" fill="#374142"/>
<path d="M146.153 290.191C146.153 362.922 199.469 428.004 272.598 436.402C355.346 445.903 430.888 380.769 430.888 289.732C430.888 198.695 355.357 133.805 272.61 143.574C199.469 152.204 146.153 217.46 146.153 290.191Z" fill="#021B1E"/>
<path d="M134.703 292.509C134.703 365.239 188.019 430.321 261.148 438.719C343.895 448.221 419.426 383.087 419.426 292.05C419.426 201.013 343.895 136.123 261.148 145.891C188.019 154.528 134.703 219.778 134.703 292.509Z" fill="white"/>
<path d="M155.894 292.474C155.894 232.032 200.842 178.508 261.153 172.671C327.851 166.218 387.569 219.505 387.569 292.102C387.569 364.699 327.851 418.177 261.153 411.939C200.848 406.3 155.894 352.921 155.894 292.474ZM168.537 292.474C168.537 345.655 208.338 392.152 261.148 396.433C318.796 401.114 369.751 354.512 369.751 292.142C369.751 229.773 318.796 183.334 261.148 188.183C208.338 192.65 168.537 239.274 168.537 292.456V292.474Z" fill="#10DD8E"/>
<path d="M190.816 292.421C190.816 252.028 221.37 217.239 261.148 214.719C303.6 212.03 340.336 246.702 340.336 292.177C340.336 337.652 303.612 372.441 261.148 369.891C221.37 367.504 190.816 332.808 190.816 292.421ZM204.244 292.421C204.244 325.096 229.122 352.868 261.148 354.396C294.877 356.01 323.71 328.156 323.71 292.253C323.71 256.349 294.889 228.565 261.148 230.284C229.122 231.869 204.244 259.723 204.244 292.398V292.421Z" fill="#10DD8E"/>
<path d="M230.89 292.351C230.89 309.775 244.266 324.184 261.13 324.59C278.489 325.009 292.912 310.536 292.912 292.253C292.912 273.97 278.484 259.543 261.13 260.02C244.254 260.478 230.89 274.951 230.89 292.351Z" fill="#10DD8E"/>
<path d="M210.24 176.998C210.544 176.996 210.845 176.933 211.124 176.812C211.35 176.723 211.555 176.588 211.726 176.416C211.898 176.243 212.031 176.037 212.117 175.81C212.204 175.583 212.242 175.34 212.229 175.098C212.216 174.855 212.153 174.618 212.043 174.402L172.498 110.481C172.225 110.042 171.801 109.717 171.306 109.566C170.81 109.415 170.277 109.449 169.805 109.662C169.579 109.751 169.375 109.886 169.204 110.058C169.034 110.23 168.901 110.436 168.815 110.662C168.728 110.889 168.69 111.13 168.702 111.372C168.715 111.614 168.777 111.851 168.886 112.067L208.431 175.993C208.616 176.305 208.882 176.563 209.199 176.74C209.517 176.916 209.876 177.005 210.24 176.998Z" fill="#893976"/>
<path d="M357.916 183.056C358.206 183.06 358.493 183.004 358.76 182.892C359.027 182.78 359.269 182.614 359.469 182.405L446.927 102.757C447.093 102.582 447.218 102.372 447.295 102.143C447.372 101.914 447.398 101.671 447.372 101.431C447.346 101.191 447.269 100.96 447.145 100.753C447.021 100.545 446.853 100.367 446.653 100.231C446.231 99.926 445.713 99.7824 445.193 99.826C444.674 99.8697 444.187 100.098 443.821 100.469L356.369 180.117C356.202 180.292 356.075 180.501 355.997 180.73C355.919 180.959 355.892 181.202 355.918 181.442C355.943 181.682 356.021 181.914 356.145 182.122C356.269 182.329 356.437 182.507 356.637 182.643C357.008 182.914 357.456 183.058 357.916 183.056Z" fill="#893976"/>
<path d="M73.2399 247.608C73.0887 247.504 101.026 250.646 101.026 250.646L89.7382 232.642C85.9408 226.59 60.3122 225.672 54.0897 226.143L53.7815 228.35L73.2399 247.608Z" fill="url(#paint9_linear_48:3115)"/>
<path d="M194.078 284.889L254.942 292.979C255.448 293.043 255.605 291.916 255.111 291.777L195.433 275.294L194.078 284.889Z" fill="url(#paint10_linear_48:3115)"/>
<path d="M70.1573 263.894C69.9886 263.934 98.0714 271.583 98.0714 271.583L82.4744 284.122C77.2405 288.333 52.7866 279.041 47.0352 276.148L47.3492 273.941L70.1573 263.894Z" fill="url(#paint11_linear_48:3115)"/>
<path d="M73.3382 264.527C73.1754 264.568 101.118 272.187 101.118 272.187L85.5855 284.697C80.3516 288.902 74.0419 289.744 68.4649 286.939L47.0234 276.148L73.3382 264.527Z" fill="#10DD8E"/>
<path d="M75.7401 247.527C75.5889 247.423 104.067 251.291 104.067 251.291L92.8316 233.333C89.0574 227.293 83.3176 223.994 77.2812 224.436L54.0776 226.137L75.7401 247.527Z" fill="#10DD8E"/>
<path d="M169.834 290.917L186.274 294.071C192.049 295.18 197.643 289.332 198.818 281.021C199.981 272.71 196.312 264.974 190.554 263.731L174.172 260.188L169.834 290.917Z" fill="#10DD8E"/>
<g style="mix-blend-mode:multiply" opacity="0.3">
<path style="mix-blend-mode:multiply" opacity="0.3" d="M183.378 282.728C189.287 281.224 194.317 277.501 198.463 273.081C199.079 275.682 199.2 278.375 198.818 281.02C197.655 289.331 192.049 295.18 186.274 294.071L169.834 290.917L171.108 281.892C174.995 283.507 179.307 283.801 183.378 282.728Z" fill="url(#paint12_linear_48:3115)"/>
</g>
<path d="M67.5986 263.046L169.834 290.924C176.231 292.085 180.592 261.356 174.172 260.2L69.8376 247.197L67.5986 263.046Z" fill="url(#paint13_linear_48:3115)"/>
<g style="mix-blend-mode:multiply" opacity="0.3">
<path style="mix-blend-mode:multiply" opacity="0.3" d="M99.7463 266.24C120.257 268.924 124.13 262.883 142.053 268.232C158.575 273.163 166.158 281.538 175.422 283.106C174.062 287.851 172.073 291.324 169.834 290.918L67.5986 263.04L68.4651 256.878C78.3386 261.611 88.8936 264.77 99.7463 266.24Z" fill="url(#paint14_linear_48:3115)"/>
</g>
<path d="M66.7086 254.77C66.0864 259.19 66.476 262.947 67.5809 263.168C68.6858 263.389 70.0815 259.991 70.7038 255.583C71.326 251.175 70.9364 247.417 69.8373 247.191C68.7382 246.964 67.3309 250.35 66.7086 254.77Z" fill="url(#paint15_linear_48:3115)"/>
<defs>
<linearGradient id="paint0_linear_48:3115" x1="12.5269" y1="233.021" x2="667.699" y2="217.214" gradientUnits="userSpaceOnUse">
<stop stop-color="#FFC444"/>
<stop offset="1" stop-color="#F36F56"/>
</linearGradient>
<linearGradient id="paint1_linear_48:3115" x1="272.389" y1="453.401" x2="270.852" y2="511.108" gradientUnits="userSpaceOnUse">
<stop stop-color="#444B8C"/>
<stop offset="1" stop-color="#26264F"/>
</linearGradient>
<linearGradient id="paint2_linear_48:3115" x1="-316309" y1="999052" x2="-374635" y2="676254" gradientUnits="userSpaceOnUse">
<stop stop-color="#444B8C"/>
<stop offset="1" stop-color="#26264F"/>
</linearGradient>
<linearGradient id="paint3_linear_48:3115" x1="-536826" y1="272804" x2="-150167" y2="272804" gradientUnits="userSpaceOnUse">
<stop/>
<stop offset="1" stop-color="#26264F"/>
</linearGradient>
<linearGradient id="paint4_linear_48:3115" x1="480.069" y1="320.961" x2="473.218" y2="320.961" gradientUnits="userSpaceOnUse">
<stop stop-color="#FF9085"/>
<stop offset="1" stop-color="#FB6FBB"/>
</linearGradient>
<linearGradient id="paint5_linear_48:3115" x1="-5950.7" y1="28767.6" x2="-5874.72" y2="28767.6" gradientUnits="userSpaceOnUse">
<stop stop-color="#FF9085"/>
<stop offset="1" stop-color="#FB6FBB"/>
</linearGradient>
<linearGradient id="paint6_linear_48:3115" x1="-6128.36" y1="28611.3" x2="-6051.13" y2="28611.3" gradientUnits="userSpaceOnUse">
<stop stop-color="#FF9085"/>
<stop offset="1" stop-color="#FB6FBB"/>
</linearGradient>
<linearGradient id="paint7_linear_48:3115" x1="-6525.1" y1="28972.1" x2="-6445.46" y2="28972.1" gradientUnits="userSpaceOnUse">
<stop stop-color="#FF9085"/>
<stop offset="1" stop-color="#FB6FBB"/>
</linearGradient>
<linearGradient id="paint8_linear_48:3115" x1="227.819" y1="138.371" x2="168.7" y2="138.371" gradientUnits="userSpaceOnUse">
<stop stop-color="#FB6FBB"/>
<stop offset="1" stop-color="#FF9085"/>
</linearGradient>
<linearGradient id="paint9_linear_48:3115" x1="76349.9" y1="76505.6" x2="72283.4" y2="75406.2" gradientUnits="userSpaceOnUse">
<stop stop-color="#FFC444"/>
<stop offset="1" stop-color="#F36F56"/>
</linearGradient>
<linearGradient id="paint10_linear_48:3115" x1="130123" y1="58115.5" x2="123729" y2="56578.9" gradientUnits="userSpaceOnUse">
<stop stop-color="#444B8C"/>
<stop offset="1" stop-color="#26264F"/>
</linearGradient>
<linearGradient id="paint11_linear_48:3115" x1="86305.8" y1="69548" x2="82209.1" y2="68440.4" gradientUnits="userSpaceOnUse">
<stop stop-color="#FFC444"/>
<stop offset="1" stop-color="#F36F56"/>
</linearGradient>
<linearGradient id="paint12_linear_48:3115" x1="199.325" y1="268.088" x2="193.161" y2="321.819" gradientUnits="userSpaceOnUse">
<stop stop-color="#AB316D"/>
<stop offset="1" stop-color="#792D3D"/>
</linearGradient>
<linearGradient id="paint13_linear_48:3115" x1="193045" y1="141063" x2="192460" y2="145308" gradientUnits="userSpaceOnUse">
<stop stop-color="#444B8C"/>
<stop offset="1" stop-color="#26264F"/>
</linearGradient>
<linearGradient id="paint14_linear_48:3115" x1="-32163.7" y1="144837" x2="-51289.6" y2="147458" gradientUnits="userSpaceOnUse">
<stop stop-color="#444B8C"/>
<stop offset="1" stop-color="#26264F"/>
</linearGradient>
<linearGradient id="paint15_linear_48:3115" x1="6279.27" y1="60387.3" x2="6233.34" y2="60393.6" gradientUnits="userSpaceOnUse">
<stop stop-color="#444B8C"/>
<stop offset="1" stop-color="#26264F"/>
</linearGradient>
</defs>
</svg>
