<svg width="452" height="372" viewBox="0 0 452 372" fill="none" xmlns="http://www.w3.org/2000/svg">
<g clip-path="url(#clip0_48:3203)">
<path d="M336.595 78.5133H286.817V150.664H336.595V78.5133Z" fill="#E1E1E1"/>
<path d="M334.103 78.5133H284.325V150.664H334.103V78.5133Z" fill="#F5F5F5"/>
<path d="M327.919 86.3248H290.509V142.842H327.919V86.3248Z" fill="white"/>
<path d="M327.909 142.842V142.574C327.909 142.386 327.909 142.118 327.909 141.771C327.909 141.056 327.909 140.024 327.909 138.664C327.909 135.964 327.909 132.013 327.909 127.021C327.909 117.095 327.91 102.941 327.85 86.3249L327.969 86.4441H290.569L290.698 86.305C290.698 107.626 290.698 127.289 290.698 142.823L290.598 142.723L317.825 142.773H325.349H327.999H327.344H325.359H317.865L290.569 142.823H290.459V142.714C290.459 127.18 290.459 107.517 290.459 86.196V86.0569H328.177V86.186C328.177 102.842 328.178 116.956 328.118 126.971C328.118 131.934 328.118 135.905 328.118 138.585C328.118 139.924 328.118 140.957 328.118 141.661V142.446C328.061 142.584 327.991 142.717 327.909 142.842Z" fill="#E1E1E1"/>
<path d="M334.242 78.5133C333.981 78.9674 333.682 79.3988 333.349 79.8035C332.773 80.5678 331.949 81.6199 331.016 82.7812C330.083 83.9425 329.2 84.9253 328.555 85.64C328.221 86.0418 327.856 86.4167 327.463 86.7615C327.74 86.3207 328.055 85.9054 328.406 85.5208L330.798 82.6324L333.19 79.7242C333.501 79.2878 333.854 78.8823 334.242 78.5133Z" fill="#E1E1E1"/>
<path d="M328.108 142.664C329.966 145.622 332.154 148.359 334.629 150.823L328.108 142.664Z" fill="white"/>
<path d="M334.629 150.823C334.214 150.535 333.831 150.202 333.488 149.83C332.823 149.155 331.939 148.183 331.026 147.051C330.113 145.919 329.379 144.838 328.862 144.073C328.566 143.653 328.313 143.205 328.108 142.733C328.442 143.121 328.747 143.532 329.021 143.964C329.567 144.738 330.341 145.791 331.245 146.942C332.148 148.093 333.001 149.056 333.627 149.761C333.987 150.09 334.322 150.445 334.629 150.823Z" fill="#E1E1E1"/>
<path d="M284.315 150.605L290.837 142.555L284.315 150.605Z" fill="white"/>
<path d="M290.837 142.555C289.855 143.977 288.801 145.349 287.68 146.664C286.628 148.045 285.505 149.37 284.315 150.634C285.292 149.208 286.346 147.837 287.472 146.525C288.524 145.144 289.647 143.819 290.837 142.555Z" fill="#E1E1E1"/>
<path d="M284.315 78.5133C285.441 79.7134 286.498 80.9758 287.482 82.2949C288.55 83.5597 289.544 84.8854 290.459 86.2652C289.334 85.0651 288.277 83.8027 287.293 82.4836C285.586 80.3297 284.266 78.553 284.315 78.5133Z" fill="#E1E1E1"/>
<path d="M316.266 97.7991H303.74V133.363H316.266V97.7991Z" fill="#E1E1E1"/>
<path d="M237.575 280.405C235.311 281.152 233.221 282.349 231.43 283.923C229.639 285.497 228.184 287.417 227.152 289.566C225.123 293.886 224.105 298.611 224.175 303.383C224.056 312.584 228.046 322.391 232.671 330.341C241.148 324.644 244.384 313.249 245.664 307.363C247.649 298.053 245.664 280.017 237.584 280.405" fill="#F5F5F5"/>
<path d="M221.882 344.178C223.758 339.215 222.338 333.309 218.844 329.289C217.041 327.332 214.866 325.753 212.446 324.645C210.026 323.538 207.41 322.923 204.75 322.837C202.298 322.708 199.578 323.086 197.941 324.912C197.222 325.811 196.756 326.886 196.592 328.026C196.428 329.165 196.572 330.328 197.008 331.394C197.917 333.515 199.368 335.36 201.216 336.744C207.301 341.706 214.12 345.448 221.882 344.158" fill="#F5F5F5"/>
<path d="M228.244 366.293C228.373 366.293 228.344 363.97 227.976 360.218C227.726 358.009 227.216 355.836 226.458 353.746C225.606 351.179 224.592 348.67 223.42 346.233C221.24 341.763 217.995 337.898 213.971 334.977C212.724 334.125 211.394 333.404 210.001 332.823C209.506 332.579 208.971 332.424 208.422 332.366C208.353 332.535 210.556 333.359 213.504 335.562C217.273 338.565 220.324 342.369 222.438 346.699C223.593 349.096 224.617 351.555 225.505 354.064C226.286 356.083 226.851 358.179 227.192 360.317C227.808 364 228.086 366.312 228.244 366.293Z" fill="#E1E1E1"/>
<path d="M237.882 294.281C237.571 295.252 237.342 296.249 237.197 297.259C236.81 299.244 236.304 302.023 235.708 305.507C234.517 312.455 232.969 322.123 231.53 332.823C230.09 343.523 229.048 353.24 228.453 360.297C228.155 363.821 227.947 366.67 227.837 368.645C227.726 369.667 227.706 370.697 227.778 371.722C228.019 370.725 228.175 369.709 228.244 368.685C228.483 366.531 228.8 363.722 229.177 360.367C229.961 353.34 231.103 343.642 232.542 332.962C233.981 322.281 235.411 312.792 236.423 305.616C236.9 302.261 237.287 299.462 237.584 297.328C237.771 296.323 237.871 295.303 237.882 294.281Z" fill="#E1E1E1"/>
<path d="M232.959 349.121C235.304 344.017 238.831 339.545 243.248 336.076C247.665 332.606 252.845 330.239 258.359 329.17C261.158 328.654 264.612 328.753 266.151 331.155C267.69 333.557 266.34 336.753 264.642 339.096C261.019 343.832 256.075 347.389 250.433 349.318C244.79 351.247 238.703 351.462 232.939 349.935" fill="#F5F5F5"/>
<path d="M254.468 336.565C253.927 336.591 253.394 336.704 252.89 336.902C251.898 337.18 250.458 337.657 248.721 338.312C244.129 339.986 239.883 342.489 236.195 345.697C234.208 347.532 232.532 349.677 231.232 352.049C230.192 353.995 229.427 356.076 228.959 358.233C228.64 359.675 228.454 361.144 228.403 362.62C228.318 363.156 228.318 363.702 228.403 364.238C228.612 364.238 228.701 361.945 229.614 358.412C230.172 356.337 230.979 354.337 232.016 352.456C233.316 350.202 234.953 348.16 236.87 346.401C240.478 343.282 244.563 340.761 248.97 338.937C252.384 337.508 254.528 336.734 254.468 336.565Z" fill="#E1E1E1"/>
<path d="M426.751 106.454C426.751 106.454 416.348 103.387 412.14 127.299C407.931 151.21 407.594 164.382 407.594 164.382C407.594 164.382 406.135 169.573 402.284 167.647C398.432 165.721 391.901 158.942 387.276 161.94C382.482 165.046 382.551 171.439 386.194 179.737C389.837 188.035 397.112 206.536 397.787 208.204C398.462 209.872 398.224 212.621 395.395 211.738C392.566 210.854 374.551 199.985 369.886 208.849C365.221 217.713 379.186 239.192 380.665 241.604C382.144 244.016 381.975 245.247 380.943 246.26C379.911 247.272 374.184 243.054 368.933 240.175C363.682 237.297 357.022 234.885 354.818 240.175C352.615 245.465 356.804 263.521 382.432 287.055L394.998 297.179L410.214 291.581C442.046 277.605 451.903 261.962 451.526 256.176C451.148 250.389 444.101 250.538 438.195 251.56C432.289 252.582 425.51 254.726 424.865 253.426C424.22 252.126 424.468 250.885 426.632 249.118C428.796 247.351 448.945 231.55 447.476 221.654C446.007 211.757 425.371 216.194 422.413 216.115C419.455 216.035 420.15 213.346 421.292 212.006C422.433 210.666 435.356 195.509 441.481 188.829C447.605 182.149 449.749 176.124 446.225 171.637C442.831 167.3 434.443 171.637 430.175 172.173C425.907 172.709 426.205 167.369 426.205 167.369C426.205 167.369 430.175 154.803 433.917 130.802C437.659 106.802 426.582 106.375 426.582 106.375" fill="#F5F5F5"/>
<path d="M422.949 127.865C422.949 127.865 422.949 128.043 422.949 128.381L422.741 129.86C422.542 131.18 422.264 133.095 421.897 135.537C421.163 140.5 420.031 147.607 418.612 156.381C415.783 174 411.664 198.298 407.008 225.128C402.353 251.957 398.174 276.246 395.246 293.844C393.787 302.628 392.606 309.725 391.792 314.688L390.8 320.356C390.68 320.981 390.601 321.468 390.541 321.825C390.482 322.182 390.432 322.321 390.432 322.321C390.432 322.321 390.432 322.152 390.482 321.815L390.69 320.336C390.879 319.016 391.167 317.1 391.534 314.649C392.269 309.686 393.39 302.589 394.81 293.804C397.648 276.186 401.758 251.878 406.423 225.048C411.088 198.219 415.247 173.94 418.185 156.342C419.634 147.557 420.815 140.46 421.639 135.497L422.632 129.83L422.89 128.361C422.9 128.033 422.949 127.865 422.949 127.865Z" fill="#E1E1E1"/>
<path d="M396.05 171.816C396.326 172.093 396.566 172.403 396.765 172.739C397.202 173.355 397.758 174.258 398.532 175.379C399.991 177.633 401.926 180.789 403.991 184.313C406.056 187.836 407.832 190.943 409.242 193.365L410.85 196.105C411.067 196.415 411.25 196.748 411.396 197.097C411.116 196.825 410.872 196.518 410.671 196.184C410.234 195.568 409.678 194.665 408.914 193.534C407.475 191.261 405.589 188.074 403.515 184.551L398.204 175.528L396.586 172.799C396.37 172.493 396.19 172.164 396.05 171.816Z" fill="#E1E1E1"/>
<path d="M412.894 196.988C412.815 196.859 419.158 192.591 427.059 187.439C434.96 182.288 441.431 178.228 441.521 178.347C441.61 178.466 435.257 182.754 427.356 187.896C419.455 193.037 412.974 197.117 412.894 196.988Z" fill="#E1E1E1"/>
<path d="M403.902 237.862C404.259 237.686 404.636 237.55 405.023 237.455L408.12 236.513C410.74 235.709 414.344 234.597 418.284 233.217C422.225 231.837 425.748 230.497 428.289 229.495L431.267 228.314C431.626 228.139 432.006 228.012 432.399 227.937C432.071 228.165 431.718 228.355 431.347 228.502C430.662 228.84 429.649 229.306 428.369 229.852C425.858 230.944 422.344 232.364 418.443 233.733C414.542 235.103 410.85 236.175 408.209 236.88C406.879 237.227 405.807 237.495 405.063 237.664C404.685 237.775 404.295 237.841 403.902 237.862Z" fill="#E1E1E1"/>
<path d="M383.653 218.448C383.973 218.633 384.266 218.86 384.526 219.123C385.072 219.579 385.837 220.254 386.78 221.108C388.656 222.805 391.226 225.167 394.045 227.798C396.864 230.428 399.395 232.84 401.212 234.607C402.115 235.48 402.849 236.205 403.336 236.711C403.61 236.958 403.856 237.235 404.07 237.535C403.749 237.356 403.455 237.132 403.197 236.87C402.651 236.403 401.887 235.728 400.944 234.885C399.068 233.197 396.497 230.835 393.678 228.195C390.859 225.554 388.328 223.152 386.512 221.396C385.608 220.512 384.874 219.787 384.387 219.281C383.901 218.775 383.623 218.477 383.653 218.448Z" fill="#E1E1E1"/>
<path d="M371.136 253.525C371.531 253.781 371.9 254.073 372.238 254.399L375.127 256.93C377.549 259.084 380.874 262.081 384.516 265.426C388.159 268.771 391.465 271.819 393.797 274.042L396.566 276.702C396.933 276.995 397.266 277.328 397.559 277.695C397.165 277.434 396.794 277.142 396.447 276.821C395.693 276.146 394.72 275.303 393.559 274.29C391.137 272.136 387.822 269.129 384.179 265.794C380.536 262.459 377.231 259.402 374.898 257.168L372.129 254.518C371.763 254.225 371.43 253.892 371.136 253.525Z" fill="#E1E1E1"/>
<path d="M397.063 276.97C397.515 276.747 397.987 276.564 398.472 276.424L402.353 275.084C405.639 273.953 410.165 272.375 415.108 270.499C420.051 268.623 424.498 266.816 427.704 265.486L431.495 263.908C431.952 263.694 432.427 263.522 432.915 263.392C432.498 263.676 432.052 263.916 431.585 264.106C430.711 264.533 429.441 265.099 427.853 265.834C424.686 267.263 420.259 269.129 415.296 271.005C410.334 272.881 405.787 274.409 402.472 275.452C400.815 275.968 399.495 276.365 398.502 276.623C398.035 276.785 397.553 276.902 397.063 276.97Z" fill="#E1E1E1"/>
<path d="M77.61 318.44C100.529 305.368 107.973 277.893 109.373 252.712C109.611 248.503 110.474 244.126 108.827 240.274C107.179 236.423 102.742 233.475 98.8314 234.894C95.5857 236.076 93.8685 239.57 91.8833 242.408C89.192 246.189 85.4859 249.131 81.1932 250.895C78.3941 252.027 75.0194 252.572 72.5181 250.895C69.0837 248.562 69.1135 243.53 69.5403 239.371C70.2947 231.602 71.0523 223.837 71.8132 216.075C72.2202 211.916 72.6272 207.658 71.6941 203.579C70.7611 199.499 68.23 195.569 64.3689 194.1C60.5077 192.63 55.4356 194.457 54.185 198.467C53.6788 200.134 53.8574 201.921 53.5895 203.638C53.3215 205.355 52.3289 207.202 50.6117 207.539C48.8945 207.877 47.3462 206.546 46.2146 205.206C42.2939 200.601 39.872 194.913 37.6387 189.266C35.4054 183.618 33.2614 177.871 29.7774 172.918C26.2934 167.965 21.2313 163.836 15.2957 162.992C9.36003 162.148 2.66006 165.215 0.615341 170.933C-1.42938 176.65 1.44914 182.943 4.74452 188.045C9.62969 195.609 15.584 202.426 22.4223 208.284C23.6432 209.336 24.9833 210.477 25.3406 212.065C25.9858 214.924 23.1073 217.445 20.2785 218.1C17.0724 218.854 13.7373 218.219 10.4519 218.308C7.16642 218.398 3.50378 219.5 2.00498 222.467C-0.099294 226.567 3.05706 231.401 6.29288 234.607C12.7778 241.11 20.3364 246.446 28.6359 250.379C31.6137 251.778 34.7304 253.059 37.0134 255.441C39.2963 257.823 40.4377 261.704 38.6709 264.503C36.9041 267.302 32.9835 267.898 29.8271 267.005C26.6707 266.111 23.9609 264.106 21.003 262.677C15.4743 259.987 8.03993 259.699 3.92072 264.315C1.21097 267.352 0.585529 271.858 1.44908 275.848C2.31262 279.839 4.42686 283.412 6.81898 286.767C15.0177 298.38 25.9758 308.127 38.8397 313.954C51.7036 319.78 63.9024 322.152 77.5504 318.529" fill="#F5F5F5"/>
<path d="M76.2402 337.091C76.1403 325.341 74.9137 313.628 72.5775 302.112C69.6657 288.053 65.9439 274.173 61.4309 260.543L57.9568 249.803C56.8054 246.279 55.6639 242.786 54.3339 239.431C51.7766 233.004 48.8639 226.724 45.6091 220.621C42.5421 214.775 39.4253 209.336 36.4674 204.273C33.5095 199.211 30.641 194.546 27.8618 190.377C23.5012 183.823 18.6254 177.626 13.2807 171.846C11.4047 169.801 9.88608 168.262 8.84387 167.23L7.65269 166.069C7.52382 165.929 7.38085 165.802 7.22595 165.692C7.33776 165.843 7.46051 165.986 7.5932 166.119L8.7347 167.339C9.72728 168.402 11.2161 169.98 13.0623 172.044C18.305 177.891 23.1026 184.122 27.415 190.685C30.1546 194.834 32.9835 199.509 35.9215 204.581C38.8596 209.653 41.9465 215.103 44.9838 220.939C48.2095 227.029 51.099 233.292 53.6391 239.699C54.9493 243.024 56.0809 246.498 57.2323 250.031C58.3836 253.565 59.535 257.138 60.7063 260.771C65.1964 274.374 68.9277 288.215 71.8828 302.231C74.2414 313.7 75.5175 325.364 75.6943 337.071" fill="#E1E1E1"/>
<path d="M54.1255 239.381C54.3766 238.824 54.5663 238.242 54.6912 237.644C55.0188 236.512 55.4357 234.855 55.9122 232.81C56.9048 228.711 58.0263 223.014 59.267 216.721C60.5077 210.428 61.7286 204.76 62.7609 200.69C63.2671 198.655 63.6939 197.008 64.0116 195.876C64.2114 195.298 64.3446 194.698 64.4086 194.09C64.1198 194.629 63.8902 195.198 63.7238 195.787C63.3268 196.899 62.8106 198.517 62.2349 200.541C61.0736 204.591 59.7535 210.269 58.5127 216.572C57.272 222.874 56.2199 228.403 55.3861 232.691C54.999 234.676 54.6615 236.265 54.3935 237.575C54.2333 238.164 54.1433 238.77 54.1255 239.381Z" fill="#E1E1E1"/>
<path d="M1.45911 224.462C2.14885 224.675 2.8565 224.825 3.57331 224.909C4.93315 225.157 6.90844 225.505 9.33034 226.021C14.194 227.013 20.8542 228.582 28.1298 230.656C35.4054 232.731 41.9168 234.914 46.572 236.612C48.9046 237.445 50.7805 238.17 52.0808 238.666C52.7364 238.971 53.4216 239.207 54.1256 239.371C53.4962 238.979 52.8316 238.647 52.1404 238.378C50.8798 237.793 49.0337 236.989 46.711 236.086C42.0955 234.24 35.594 231.986 28.2986 229.892C22.0919 228.093 15.7974 226.612 9.43951 225.455C6.98783 225.018 4.99274 224.75 3.61305 224.592C2.90135 224.475 2.17959 224.432 1.45911 224.462Z" fill="#E1E1E1"/>
<path d="M72.0119 301.07C72.1802 300.881 72.3236 300.67 72.4386 300.445L73.5306 298.589C74.5232 296.981 75.7738 294.618 77.3421 291.641C80.4985 285.745 84.5879 277.457 88.9751 268.245C93.3623 259.034 97.3823 250.716 100.4 244.761L103.993 237.714C104.38 236.939 104.708 236.314 104.985 235.788C105.113 235.571 105.21 235.337 105.273 235.093C105.106 235.28 104.962 235.486 104.846 235.709L103.755 237.565C102.762 239.183 101.511 241.535 99.9332 244.513C96.7868 250.419 92.6972 258.707 88.31 267.918C83.9228 277.129 79.9028 285.437 76.8854 291.402C75.4064 294.291 74.1955 296.673 73.2922 298.45C72.8952 299.214 72.5776 299.849 72.2997 300.375C72.0217 300.901 71.9821 301.05 72.0119 301.07Z" fill="#E1E1E1"/>
<path d="M2.90833 271.591C3.11344 271.744 3.34107 271.864 3.58321 271.948L5.56838 272.831L12.9632 275.998C19.2165 278.678 27.8519 282.479 37.2815 286.688C46.711 290.896 55.3961 294.628 61.699 297.169C64.8454 298.44 67.4062 299.452 69.1929 300.147L71.2476 300.901C71.4868 301 71.7366 301.07 71.992 301.11C71.7802 300.962 71.5499 300.841 71.3071 300.752L69.3219 299.869L61.9272 296.703C55.674 294.023 47.0881 290.221 37.609 286.013C28.1298 281.804 19.5043 278.072 13.2014 275.531C10.045 274.261 7.48407 273.248 5.69742 272.553L3.64283 271.809C3.40787 271.706 3.16119 271.633 2.90833 271.591Z" fill="#E1E1E1"/>
<path d="M148.083 19.0377V100.965H30.4227L26.1843 19.6134L148.083 19.0377Z" fill="#E1E1E1"/>
<path d="M26.1842 19.6134L26.1842 100.787L143.845 100.787V19.6134L26.1842 19.6134Z" fill="white"/>
<path d="M144.401 101.353H25.6185V19.1072H144.401V101.353ZM26.7402 100.231H143.289V20.1693H26.7402V100.231Z" fill="#E1E1E1"/>
<path d="M131.1 29.6981H38.9291V90.7022H131.1V29.6981Z" fill="white"/>
<path d="M131.1 29.698H130.644H129.304H124.242L105.254 29.7676L38.8994 29.8968L39.1575 29.6287C39.1575 48.2694 39.1575 68.925 39.1575 90.6328L38.8696 90.3449L131.041 90.4045L130.812 90.6328C130.862 72.0715 130.902 56.885 130.932 46.2545C130.932 40.9541 130.932 36.8149 130.991 33.9761C130.991 32.5766 130.991 31.4947 130.991 30.7502C130.991 30.0058 130.991 29.6287 130.991 29.6287C130.991 29.6287 130.991 29.9859 130.991 30.7006C130.991 31.4152 130.991 32.4971 130.991 33.8867C130.991 36.7056 130.991 40.8348 131.051 46.1055C131.051 56.736 131.12 72.012 131.17 90.6328V90.871H130.942L38.7704 90.9306H38.4725V90.6328C38.4725 68.925 38.4725 48.2694 38.4725 29.6287V29.3607H38.7406L105.244 29.4996L124.182 29.5691H129.145H130.425L131.1 29.698Z" fill="#E1E1E1"/>
<path d="M26.1843 19.3851C26.8928 19.7464 27.5587 20.186 28.1695 20.6954C29.3705 21.5689 31.0083 22.7995 32.7751 24.2189C34.5419 25.6383 36.1002 26.9684 37.2019 27.9709C37.8307 28.4779 38.3971 29.0576 38.8894 29.698C38.7802 29.827 35.9116 27.4946 32.4178 24.6657C28.9239 21.8369 26.0751 19.5241 26.1843 19.3851Z" fill="#E1E1E1"/>
<path d="M143.845 19.6134C139.842 23.2738 135.583 26.6438 131.1 29.698C133.039 27.7987 135.109 26.0378 137.294 24.4275C139.36 22.6687 141.549 21.0599 143.845 19.6134Z" fill="#E1E1E1"/>
<path d="M143.756 100.807C139.382 97.2599 135.008 93.7131 130.634 90.1663L143.756 100.807Z" fill="white"/>
<path d="M130.634 90.1663C132.989 91.714 135.241 93.4149 137.373 95.2581C139.626 96.9589 141.758 98.8129 143.756 100.807C139.139 97.5709 134.754 94.0154 130.634 90.1663Z" fill="#E1E1E1"/>
<path d="M26.1843 100.787C30.1443 97.1669 34.3569 93.8333 38.7902 90.8114C38.8994 90.9404 36.1499 93.273 32.6659 96.0324C30.622 97.7703 28.4559 99.3592 26.1843 100.787Z" fill="#E1E1E1"/>
<path d="M57.6392 48.706V69.1334H115.636V48.706H57.6392Z" fill="#E1E1E1"/>
<path d="M419.783 0H356.873V91.1885H419.783V0Z" fill="#E1E1E1"/>
<path d="M416.636 0H353.727V91.1885H416.636V0Z" fill="#F5F5F5"/>
<path d="M408.815 9.87622H361.538V81.3124H408.815V9.87622Z" fill="white"/>
<path d="M408.815 81.3123C408.815 81.3123 408.815 81.1933 408.815 80.965V79.9724C408.815 79.0692 408.815 77.759 408.815 76.0021C408.815 72.5777 408.815 67.5948 408.815 61.292C408.815 48.6862 408.815 30.8494 408.736 9.84633L408.894 10.0053H361.568L361.737 9.8364C361.737 36.785 361.737 61.6293 361.737 81.3023L361.608 81.1635L396.02 81.243H405.529H408.021H408.884H408.051H405.579H396.1L361.608 81.3123H361.469V81.1734C361.469 61.5302 361.469 36.6859 361.469 9.70748V9.53882H409.113V9.69754C409.113 30.7502 409.053 48.6166 409.033 61.2423C409.033 67.5253 409.033 72.5081 409.033 75.9226C409.033 77.61 409.033 78.9003 409.033 79.8035V80.7961C408.825 81.2031 408.815 81.3123 408.815 81.3123Z" fill="#E1E1E1"/>
<path d="M416.805 0C416.486 0.578204 416.11 1.12335 415.684 1.62773C414.959 2.62031 413.917 3.94047 412.706 5.37972C411.495 6.81896 410.413 8.0896 409.599 8.99285C409.181 9.50471 408.715 9.97649 408.209 10.4022C408.563 9.8453 408.965 9.32044 409.41 8.83389L412.388 5.16138L415.366 1.47894C415.805 0.947538 416.286 0.452916 416.805 0Z" fill="#E1E1E1"/>
<path d="M409.053 81.084C411.408 84.8197 414.174 88.2791 417.301 91.3971L409.053 81.084Z" fill="white"/>
<path d="M417.302 91.3971C416.778 91.0109 416.296 90.5718 415.862 90.0868C414.767 88.9729 413.73 87.8034 412.755 86.5829C411.776 85.3611 410.862 84.0887 410.016 82.7713C409.629 82.2441 409.296 81.6787 409.023 81.084C409.456 81.5691 409.851 82.0868 410.205 82.6325C410.899 83.6251 411.872 84.9452 413.014 86.3646C414.155 87.784 415.237 89.0347 415.991 89.9181C416.467 90.3752 416.905 90.8698 417.302 91.3971Z" fill="#E1E1E1"/>
<path d="M353.707 91.1191L361.945 80.9551L353.707 91.1191Z" fill="white"/>
<path d="M361.945 80.9551C360.714 82.7508 359.388 84.4803 357.975 86.1363C356.646 87.866 355.224 89.5227 353.717 91.0993C354.952 89.3036 356.278 87.5711 357.687 85.9081C359.02 84.1845 360.441 82.5312 361.945 80.9551Z" fill="#E1E1E1"/>
<path d="M353.717 0C356.47 3.11616 359.051 6.38007 361.449 9.77703C360.04 8.25468 358.715 6.65755 357.478 4.99272C356.136 3.39686 354.88 1.73022 353.717 0Z" fill="#E1E1E1"/>
<path d="M394.085 24.3778H378.253V69.3219H394.085V24.3778Z" fill="#E1E1E1"/>
<path d="M433.034 371.742C433.034 371.891 336.346 372 217.098 372C97.8487 372 1.14148 371.891 1.14148 371.742C1.14148 371.593 97.809 371.484 217.098 371.484C336.386 371.484 433.034 371.603 433.034 371.742Z" fill="#1A2E35"/>
<path d="M311.72 199.985C312.458 202.983 312.372 206.123 311.472 209.076C310.572 212.029 308.892 214.683 306.609 216.76C303.581 219.44 299.661 220.989 296.881 223.937C295.167 225.9 293.991 228.275 293.469 230.829C292.947 233.383 293.097 236.029 293.904 238.508C294.743 240.973 296.076 243.243 297.819 245.178C299.563 247.113 301.682 248.673 304.048 249.763C307.269 251.268 310.801 251.99 314.355 251.869C317.908 251.749 321.383 250.789 324.495 249.069C332.168 244.731 336.634 236.026 337.766 227.281C338.897 218.537 337.121 209.683 334.788 201.177" fill="#1A2E35"/>
<path d="M408.487 354.183C416.428 352.883 423.882 355.305 431.743 357.042C433.831 357.66 436.034 357.779 438.175 357.389C441.58 356.516 444.002 353.2 444.528 349.726C444.958 346.683 444.251 343.587 442.543 341.031C441.859 339.929 440.928 339.001 439.823 338.322C438.637 337.733 437.343 337.395 436.021 337.329C431.205 336.951 426.374 337.862 422.026 339.969C417.695 342.083 413.765 344.934 410.413 348.396C408.745 350.064 409.252 351.98 408.507 354.223" fill="#1A2E35"/>
<path d="M247.421 226.021C246.146 218.449 246.304 210.705 247.887 203.192C248.557 199.518 249.904 196.001 251.858 192.819C252.528 191.635 253.542 190.683 254.766 190.09C255.658 189.794 256.615 189.752 257.529 189.967C258.444 190.183 259.281 190.648 259.947 191.31C260.8 192.186 261.459 193.232 261.882 194.38C262.304 195.527 262.48 196.751 262.399 197.971C262.213 200.409 261.615 202.799 260.632 205.038C257.555 212.879 252.692 219.39 247.471 225.981" fill="#1A2E35"/>
<path d="M401.341 254.717C403.147 255.997 443.029 341.945 443.029 341.945C439.821 340.574 436.268 340.228 432.855 340.952L430.691 341.528C426.802 342.566 423.112 344.243 419.773 346.491L408.388 354.193C407.938 353.934 407.556 353.571 407.274 353.134C406.993 352.697 406.82 352.199 406.77 351.682V351.354L375.831 298.251L401.341 254.717Z" fill="#374142"/>
<path d="M251.56 117.919L262.201 178.397C265.625 186.536 305.566 235.848 305.566 235.848L292.355 278.271L239.907 206.556C235.042 201.346 232.393 194.448 232.522 187.32L234.577 122.703L251.56 117.919Z" fill="#FFBF9D"/>
<path d="M308.187 226.368L335.572 228.443L359.454 232.145C359.454 232.145 401.341 243.153 401.341 247.739C401.341 249.267 389.896 285.685 383.474 307.502C381.892 312.8 380.603 318.182 379.613 323.622L401.291 371.742H298.291V327.612C298.291 327.612 291.343 269.724 292.564 261.813C293.784 253.903 308.187 226.368 308.187 226.368Z" fill="#374142"/>
<path d="M238.607 93.4813C238.765 87.3216 239.392 81.1829 240.483 75.1185C240.642 74.255 240.989 73.2128 241.853 73.1334C242.925 72.9944 243.471 74.3742 243.609 75.4462C244.56 82.7559 244.258 90.1741 242.716 97.3823" fill="#FF9A6C"/>
<path d="M250.786 221.594C262.528 211.092 262.935 192.898 261.923 178.417C261.725 177.358 261.889 176.264 262.389 175.31C263.501 173.712 266.23 174.317 267.352 175.925C268.474 177.533 268.345 179.647 268.275 181.593C268.881 179.945 271.461 179.955 272.672 181.226C273.883 182.496 274.092 184.412 274.231 186.189C274.36 187.797 274.489 189.414 274.628 191.032L308.951 223.787C308.951 223.787 309.944 220.81 312.415 222.527C314.887 224.244 316.564 227.867 316.564 227.867L292.375 280.662L247.481 226.07C248.345 224.417 249.46 222.907 250.786 221.594Z" fill="#374142"/>
<path d="M297.368 258.081C293.791 262.661 291.116 267.879 289.487 273.456C287.872 279.065 288.052 285.038 290.003 290.539C291.503 294.352 293.968 297.71 297.155 300.285C300.342 302.86 304.144 304.563 308.187 305.229" fill="#374142"/>
<path d="M408.487 354.183L407.187 371.742H432.627L438.582 340.724C430.83 340.291 423.184 342.686 417.063 347.463L408.487 354.183Z" fill="#FFBF9D"/>
<path d="M262.737 217.624C262.884 217.146 263.069 216.681 263.292 216.234C263.689 215.361 264.225 214.07 264.831 212.462C265.436 210.854 266.082 208.909 266.687 206.725C267.315 204.342 267.816 201.926 268.186 199.489C268.529 197.051 268.737 194.596 268.811 192.134C268.866 190.122 268.82 188.107 268.672 186.099C268.553 184.392 268.414 183.002 268.275 182.049C268.183 181.555 268.139 181.053 268.146 180.551C268.294 181.031 268.404 181.522 268.474 182.02C268.731 183.359 268.92 184.711 269.039 186.069C269.233 188.088 269.316 190.116 269.288 192.144C269.225 197.117 268.504 202.06 267.144 206.844C266.585 208.794 265.922 210.712 265.158 212.591C264.503 214.199 263.918 215.47 263.461 216.323C263.261 216.779 263.018 217.214 262.737 217.624Z" fill="#1A2E35"/>
<path d="M270.25 208.442C270.551 207.585 270.902 206.746 271.303 205.931C272.145 203.915 272.81 201.829 273.288 199.698C273.773 197.567 274.075 195.398 274.191 193.216C274.183 192.304 274.236 191.392 274.35 190.486C274.538 191.387 274.608 192.308 274.558 193.226C274.537 197.679 273.519 202.071 271.58 206.08C271.243 206.922 270.796 207.717 270.25 208.442Z" fill="#1A2E35"/>
<path d="M310.539 235.897C310.46 235.897 310.867 235.202 311.115 234.031C311.388 232.5 311.3 230.926 310.857 229.435C310.378 227.937 309.801 226.471 309.13 225.048C308.811 224.463 308.58 223.835 308.445 223.182C308.839 223.712 309.172 224.285 309.438 224.889C310.223 226.288 310.859 227.765 311.333 229.296C311.808 230.865 311.846 232.533 311.443 234.121C311.311 234.785 310.998 235.399 310.539 235.897Z" fill="#1A2E35"/>
<path d="M304.564 305.815C304.411 305.751 304.268 305.668 304.137 305.567L302.956 304.792C301.963 304.107 300.484 303.105 298.757 301.745C296.716 300.173 294.849 298.386 293.189 296.415C291.146 293.975 289.674 291.109 288.881 288.027C288.126 284.944 287.935 281.749 288.315 278.598C288.61 276.04 289.179 273.521 290.013 271.084C290.708 269 291.402 267.362 291.899 266.25C292.157 265.694 292.355 265.258 292.504 264.97C292.571 264.819 292.654 264.676 292.752 264.543C292.57 265.152 292.348 265.749 292.087 266.33C291.641 267.461 291.005 269.109 290.36 271.193C289.59 273.62 289.061 276.117 288.782 278.648C288.442 281.742 288.643 284.873 289.377 287.898C290.158 290.908 291.584 293.713 293.556 296.117C295.185 298.076 297.007 299.865 298.996 301.457C300.673 302.847 302.102 303.889 303.075 304.633L304.197 305.487C304.445 305.686 304.574 305.795 304.564 305.815Z" fill="#1A2E35"/>
<path d="M360.794 315.631C360.794 315.631 360.645 315.701 360.357 315.79C360.069 315.879 359.632 316.018 359.067 316.128C357.468 316.476 355.839 316.668 354.203 316.703C348.749 316.876 343.368 315.409 338.756 312.493C334.143 309.578 330.51 305.346 328.326 300.346C327.658 298.848 327.137 297.288 326.768 295.69C326.629 295.134 326.579 294.698 326.52 294.39C326.491 294.236 326.491 294.078 326.52 293.924C326.52 293.924 326.699 294.539 327.006 295.641C327.447 297.2 328.014 298.72 328.704 300.187C330.937 305.063 334.538 309.186 339.07 312.054C343.602 314.923 348.87 316.414 354.233 316.346C355.853 316.338 357.469 316.199 359.067 315.929C359.637 315.8 360.213 315.701 360.794 315.631Z" fill="#1A2E35"/>
<path d="M376.586 334.927C376.447 334.927 377.767 329.398 379.563 322.669C381.36 315.939 382.859 310.51 382.998 310.549C383.137 310.589 381.817 316.068 380.02 322.798C378.223 329.527 376.725 334.957 376.586 334.927Z" fill="#1A2E35"/>
<path d="M390.482 323.274C390.353 323.344 386.363 316.822 381.549 308.703C376.735 300.584 372.963 293.944 373.082 293.874C373.201 293.805 377.191 300.316 382.015 308.435C386.839 316.554 390.601 323.195 390.482 323.274Z" fill="#1A2E35"/>
<path d="M428.537 339.344C428.537 339.443 427.098 339.563 424.825 340.138C423.503 340.474 422.206 340.902 420.944 341.419C419.405 342.07 417.918 342.84 416.497 343.722C415.096 344.624 413.768 345.636 412.527 346.749C411.515 347.674 410.57 348.669 409.698 349.727C408.209 351.523 407.475 352.784 407.396 352.705C407.506 352.381 407.659 352.073 407.852 351.791C408.316 350.981 408.836 350.205 409.41 349.469C410.259 348.37 411.195 347.34 412.21 346.392C414.693 344.056 417.601 342.216 420.776 340.972C422.064 340.465 423.392 340.063 424.746 339.771C425.657 339.561 426.583 339.421 427.515 339.354C427.854 339.301 428.198 339.298 428.537 339.344Z" fill="#1A2E35"/>
<path d="M433.401 333.369C433.401 333.468 431.803 333.279 429.252 333.498C427.767 333.631 426.296 333.89 424.855 334.272C423.09 334.753 421.375 335.401 419.733 336.207C418.109 337.054 416.567 338.051 415.128 339.185C413.957 340.113 412.868 341.139 411.872 342.252C410.175 344.158 409.371 345.548 409.281 345.488C409.42 345.139 409.596 344.806 409.807 344.496C410.025 344.115 410.263 343.747 410.522 343.394C410.856 342.916 411.214 342.455 411.594 342.014C412.567 340.847 413.651 339.776 414.83 338.818C417.725 336.441 421.117 334.745 424.756 333.855C426.229 333.484 427.735 333.255 429.252 333.17C429.897 333.11 430.483 333.17 430.999 333.17C431.437 333.172 431.874 333.198 432.309 333.25C432.677 333.242 433.044 333.283 433.401 333.369Z" fill="#1A2E35"/>
<g opacity="0.3">
<path opacity="0.3" d="M327.542 296.038C325.2 300.465 327.155 305.864 329.289 310.4C330.947 313.914 332.783 317.477 335.801 319.929C337.285 321.14 339.004 322.03 340.849 322.545C342.694 323.059 344.626 323.187 346.523 322.919C348.42 322.652 350.24 321.995 351.871 320.99C353.502 319.986 354.908 318.654 356 317.08C349.672 316.986 343.522 314.98 338.356 311.325C333.19 307.671 329.251 302.539 327.056 296.603" fill="black"/>
</g>
<g opacity="0.3">
<path opacity="0.3" d="M373.102 293.874C371.325 298.132 372.665 303.959 374.531 308.177C376.397 312.396 378.382 317.11 376.883 321.488C376.502 322.266 376.301 323.122 376.298 323.989C376.407 324.842 377.29 325.666 378.094 325.269C378.51 324.977 378.798 324.537 378.898 324.039C380.308 319.79 381.721 315.545 383.137 311.304" fill="black"/>
</g>
<path d="M279.184 237.803C279.334 235.137 279.665 232.484 280.176 229.862C280.514 227.224 281.024 224.611 281.705 222.041C281.189 227.33 280.341 232.581 279.164 237.763L279.184 237.803Z" fill="#FAFAFA"/>
<path d="M268.752 235.609C268.623 235.689 266.915 233.307 264.553 230.567C262.191 227.827 260.106 225.773 260.215 225.664C263.66 228.406 266.556 231.773 268.752 235.59V235.609Z" fill="#FAFAFA"/>
<path d="M277.725 210.04C277.426 210.68 277.049 211.28 276.603 211.827C275.849 212.879 274.757 214.308 273.466 215.797C272.176 217.286 270.955 218.616 270.032 219.539C269.572 220.072 269.041 220.54 268.454 220.929C268.354 220.83 270.528 218.477 273.079 215.46C275.63 212.442 277.605 209.951 277.725 210.04Z" fill="#FAFAFA"/>
<path d="M274.221 197.544C274.072 197.603 273.516 196.343 272.414 195.082C271.313 193.822 270.161 193.097 270.231 192.938C271.218 193.323 272.096 193.944 272.788 194.747C273.48 195.55 273.965 196.51 274.201 197.544H274.221Z" fill="#FAFAFA"/>
<path d="M265.168 205.246C264.358 205.628 263.482 205.854 262.588 205.911C261.72 206.138 260.816 206.192 259.927 206.07C261.605 205.462 263.385 205.182 265.168 205.246Z" fill="#FAFAFA"/>
<path d="M288.008 216.274C288.03 214.729 287.921 213.185 287.68 211.658C287.271 210.164 286.73 208.709 286.062 207.311C287.116 208.514 287.85 209.962 288.197 211.523C288.544 213.085 288.493 214.708 288.047 216.244L288.008 216.274Z" fill="#FAFAFA"/>
<path d="M300.207 229.396C298.383 226.468 295.924 223.988 293.01 222.14C294.652 222.777 296.141 223.752 297.381 225.002C298.62 226.252 299.583 227.749 300.207 229.396Z" fill="#FAFAFA"/>
<path d="M280.623 252.166C279.186 252.8 277.612 253.059 276.047 252.92C274.474 252.945 272.919 252.58 271.521 251.858C271.521 251.709 273.506 252.334 276.057 252.404C278.608 252.473 280.593 252.017 280.623 252.166Z" fill="#FAFAFA"/>
<path d="M289.814 256.88C289.675 256.821 290.449 254.538 291.095 251.639C291.74 248.741 292.028 246.339 292.186 246.359C292.276 248.175 292.078 249.994 291.601 251.748C291.285 253.544 290.682 255.277 289.814 256.88Z" fill="#FAFAFA"/>
<path d="M309.894 257.645C308.327 256.315 306.876 254.854 305.557 253.277C304.108 251.812 302.78 250.232 301.586 248.552C303.154 249.882 304.605 251.344 305.924 252.92C307.369 254.388 308.697 255.968 309.894 257.645Z" fill="#FAFAFA"/>
<path d="M319.254 280.841C318.059 279.983 316.972 278.983 316.018 277.863C314.938 276.865 313.975 275.746 313.15 274.529C315.423 276.388 317.472 278.506 319.254 280.841Z" fill="#FAFAFA"/>
<path d="M301.864 283.055C299.474 285.401 296.532 287.108 293.308 288.017C293.308 287.878 295.293 287.025 297.646 285.625C299.998 284.226 301.775 282.935 301.864 283.055Z" fill="#FAFAFA"/>
<path d="M309.864 305.12C309.715 305.12 310.311 302.479 310.609 299.164C310.907 295.849 310.817 293.209 310.966 293.209C311.343 295.172 311.396 297.184 311.125 299.164C311.031 301.205 310.605 303.216 309.864 305.12Z" fill="#FAFAFA"/>
<path d="M339.949 287.184C338.31 286.18 336.856 284.901 335.652 283.402C334.324 282.012 333.252 280.4 332.485 278.638C332.614 278.558 333.984 280.712 336.049 283.065C338.113 285.417 340.049 287.104 339.949 287.184Z" fill="#FAFAFA"/>
<path d="M350.938 296.544C350.828 296.454 352.327 294.39 354.014 291.74C355.702 289.089 356.943 286.866 357.072 286.926C355.639 290.483 353.559 293.744 350.938 296.544Z" fill="#FAFAFA"/>
<path d="M349.329 273.635C345.94 273.072 342.615 272.174 339.404 270.955C341.115 271.159 342.803 271.525 344.446 272.047C346.123 272.41 347.759 272.942 349.329 273.635Z" fill="#FAFAFA"/>
<path d="M341.319 313.954C341.147 312.39 341.147 310.813 341.319 309.249C341.32 307.675 341.5 306.107 341.855 304.574C342.015 307.712 341.828 310.857 341.299 313.954H341.319Z" fill="#FAFAFA"/>
<path d="M348.247 327.8C349.459 324.641 349.918 321.242 349.588 317.875C350.177 319.515 350.324 321.281 350.014 322.996C349.862 324.726 349.252 326.384 348.247 327.8Z" fill="#FAFAFA"/>
<path d="M330.292 324.713C329.785 321.284 330.457 317.785 332.197 314.788C332.346 314.847 331.423 316.942 330.907 319.691C330.391 322.441 330.45 324.703 330.292 324.713Z" fill="#FAFAFA"/>
<path d="M313.924 331.711C312.31 330.585 310.756 329.376 309.269 328.088C307.67 326.939 306.136 325.703 304.673 324.386C308.124 326.324 311.246 328.797 313.924 331.711Z" fill="#FAFAFA"/>
<path d="M325.011 312.237C323.157 313.51 321.209 314.641 319.185 315.621C317.242 316.751 315.214 317.726 313.12 318.54C314.976 317.272 316.923 316.144 318.946 315.165C320.887 314.03 322.915 313.051 325.011 312.237Z" fill="#FAFAFA"/>
<path d="M359.454 355.94C359.243 356.011 359.028 356.064 358.809 356.099C358.392 356.178 357.816 356.337 356.942 356.446C354.644 356.798 352.319 356.947 349.994 356.893C346.527 356.824 343.082 356.337 339.731 355.444C331.442 353.282 324.011 348.642 318.43 342.143C316.157 339.521 314.207 336.635 312.624 333.547C311.551 331.475 310.661 329.313 309.964 327.086C309.696 326.302 309.567 325.676 309.447 325.259C309.381 325.046 309.338 324.827 309.318 324.604C309.42 324.803 309.5 325.013 309.557 325.229C309.705 325.636 309.864 326.222 310.152 327.026C310.92 329.211 311.852 331.335 312.941 333.379C316.546 340.153 321.851 345.873 328.336 349.975C334.869 353.999 342.336 356.257 350.004 356.526C352.324 356.612 354.647 356.519 356.952 356.248C357.776 356.168 358.402 356.039 358.838 356C359.04 355.956 359.247 355.936 359.454 355.94Z" fill="#1A2E35"/>
<path d="M329.805 350.798C329.55 349.22 329.71 347.603 330.271 346.106C330.831 344.609 331.772 343.284 333.001 342.262C332.125 343.531 331.37 344.88 330.748 346.292C330.288 347.76 329.972 349.269 329.805 350.798Z" fill="#FAFAFA"/>
<path d="M321.627 347.384C320.688 348.115 319.824 348.936 319.046 349.836C318.404 350.841 317.859 351.904 317.418 353.012C317.451 351.754 317.874 350.537 318.628 349.529C319.381 348.521 320.429 347.772 321.627 347.384Z" fill="#FAFAFA"/>
<path d="M353.042 366.084C351.401 366.043 349.809 365.518 348.466 364.576C347.033 363.779 345.864 362.582 345.101 361.131C346.238 362.215 347.456 363.21 348.744 364.109C350.125 364.874 351.562 365.534 353.042 366.084Z" fill="#FAFAFA"/>
<path d="M357.925 338.59C357.817 340.081 357.188 341.486 356.148 342.56C355.255 343.751 353.979 344.599 352.535 344.962C353.7 344.163 354.781 343.249 355.761 342.233C356.609 341.098 357.334 339.877 357.925 338.59Z" fill="#FAFAFA"/>
<path d="M371.811 359.086C371.692 358.987 373.002 357.329 374.213 355.047C375.424 352.764 376.07 350.749 376.199 350.798C375.636 353.955 374.095 356.855 371.792 359.086H371.811Z" fill="#FAFAFA"/>
<path d="M390.164 361.796C390.224 361.945 388.417 362.66 386.601 364.159C384.784 365.657 383.703 367.255 383.564 367.136C384.138 365.77 385.075 364.586 386.273 363.712C387.367 362.725 388.715 362.062 390.164 361.796Z" fill="#FAFAFA"/>
<path d="M376.169 338.282C376.02 338.332 375.176 335.433 373.32 332.217C371.464 329.001 369.489 326.738 369.608 326.639C370.156 327.02 370.635 327.489 371.027 328.029C373.115 330.472 374.709 333.297 375.722 336.347C375.973 336.964 376.124 337.617 376.169 338.282Z" fill="#FAFAFA"/>
<path d="M378.918 308.723C377.4 309.344 375.819 309.799 374.204 310.083C372.633 310.532 371.019 310.815 369.39 310.926C370.906 310.311 372.483 309.858 374.094 309.576C375.669 309.126 377.285 308.84 378.918 308.723Z" fill="#FAFAFA"/>
<path d="M370.501 299.899C369.362 298.851 368.343 297.679 367.464 296.405C366.448 295.238 365.563 293.963 364.824 292.604C365.969 293.644 366.992 294.813 367.871 296.087C368.883 297.259 369.765 298.537 370.501 299.899Z" fill="#FAFAFA"/>
<path d="M391.345 294.589C389.739 294.641 388.133 294.437 386.591 293.983C385.009 293.693 383.481 293.157 382.065 292.395C383.633 292.664 385.184 293.025 386.71 293.477C388.274 293.762 389.822 294.133 391.345 294.589Z" fill="#FAFAFA"/>
<path d="M406.234 294.331C406.665 292.927 407.172 291.549 407.753 290.201C408.177 288.793 408.684 287.411 409.271 286.062C408.919 289.018 407.879 291.85 406.234 294.331Z" fill="#FAFAFA"/>
<path d="M402.919 314.5C399.84 313.812 397.06 312.165 394.978 309.795C395.087 309.676 396.646 311.035 398.829 312.326C401.013 313.616 402.969 314.351 402.919 314.5Z" fill="#FAFAFA"/>
<path d="M412.597 313.904C413.157 309.944 414.053 306.039 415.277 302.231C414.716 306.191 413.82 310.097 412.597 313.904Z" fill="#FAFAFA"/>
<path d="M404.517 336.436C403.216 335.089 402.04 333.627 401.003 332.069C399.831 330.61 398.798 329.045 397.916 327.394C400.387 330.201 402.596 333.227 404.517 336.436Z" fill="#FAFAFA"/>
<path d="M418.304 327.8C418.165 327.87 417.252 326.073 415.823 324.068C414.393 322.063 413.023 320.604 413.123 320.495C414.374 321.366 415.437 322.48 416.249 323.77C417.193 324.965 417.892 326.335 418.304 327.8Z" fill="#FAFAFA"/>
<path d="M431.218 325.875C431.098 325.954 429.798 323.999 428.041 321.716C426.913 320.387 425.853 319.002 424.865 317.567C426.248 318.66 427.459 319.955 428.458 321.408C429.591 322.754 430.521 324.259 431.218 325.875Z" fill="#FAFAFA"/>
<path d="M428.18 334.441C428.002 333.245 427.602 332.094 426.999 331.046C426.272 330.089 425.378 329.272 424.359 328.634C424.359 328.575 424.805 328.634 425.431 328.942C426.237 329.371 426.921 330 427.416 330.768C427.923 331.533 428.231 332.414 428.309 333.329C428.369 334.024 428.25 334.441 428.18 334.441Z" fill="#FAFAFA"/>
<path d="M418.145 346.183C418.076 346.183 418.145 345.915 418.016 345.558C417.924 345.113 417.682 344.714 417.331 344.426C416.967 344.157 416.523 344.021 416.071 344.039C415.703 344.039 415.475 344.128 415.435 344.039C415.396 343.95 415.584 343.771 416.011 343.652C416.292 343.578 416.585 343.571 416.869 343.629C417.153 343.688 417.42 343.811 417.649 343.989C417.874 344.172 418.056 344.402 418.183 344.662C418.31 344.923 418.378 345.208 418.383 345.498C418.334 345.975 418.145 346.203 418.145 346.183Z" fill="#FAFAFA"/>
<path d="M314.837 364.953C312.98 364.234 311.293 363.135 309.884 361.727C308.476 360.318 307.377 358.631 306.658 356.774C308.683 360.122 311.489 362.928 314.837 364.953Z" fill="#FAFAFA"/>
<path d="M251.659 118.594C250.071 103.497 247.183 89.2927 246.399 74.4933C246.427 74.1224 246.379 73.7495 246.258 73.3978C246.137 73.0461 245.945 72.7231 245.694 72.4485C245.478 72.3222 245.238 72.2412 244.99 72.2103C244.741 72.1795 244.489 72.1996 244.249 72.2692C244.008 72.3389 243.784 72.4564 243.591 72.6153C243.397 72.7741 243.238 72.9707 243.123 73.193C242.687 74.121 242.512 75.1506 242.617 76.1707C242.629 84.0407 241.286 91.854 238.647 99.2681C236.939 104.082 234.676 108.698 233.396 113.631C232.115 118.564 234.517 120.241 236.741 124.837" fill="#FFBF9D"/>
<path d="M200.978 58.8105C200.879 58.9197 195.3 54.3837 188.501 48.6664C181.702 42.9491 176.283 38.2442 176.372 38.135C176.461 38.0258 182.04 42.5619 188.839 48.2791C195.638 53.9964 201.067 58.6914 200.978 58.8105Z" fill="#1A2E35"/>
<path d="M229.277 52.0013C229.138 52.0013 228.572 43.1873 228.026 32.2987C227.48 21.4101 227.142 12.576 227.291 12.566C227.44 12.5561 227.996 21.3803 228.542 32.2788C229.088 43.1774 229.425 52.0013 229.277 52.0013Z" fill="#1A2E35"/>
<path d="M211.251 45.6985C211.112 45.6985 209.375 40.7355 207.36 34.4524C205.345 28.1694 203.837 23.0973 203.966 23.0576C204.095 23.0179 205.842 28.0206 207.857 34.2937C209.872 40.5668 211.39 45.6588 211.251 45.6985Z" fill="#1A2E35"/>
<path d="M195.181 68.1111C192.568 67.1916 190.012 66.1143 187.529 64.8852C184.973 63.8052 182.487 62.5685 180.084 61.1826C182.698 62.1021 185.254 63.1794 187.737 64.4085C190.293 65.4861 192.78 66.7229 195.181 68.1111Z" fill="#1A2E35"/>
<path d="M169.067 56.7061C169.067 56.8451 168.223 56.8649 167.22 56.7061C166.218 56.5473 165.424 56.3687 165.444 56.2297C165.464 56.0907 166.287 56.0709 167.29 56.2297C168.292 56.3885 169.087 56.5672 169.067 56.7061Z" fill="#1A2E35"/>
<path d="M204.611 16.6457C204.472 16.6457 204.353 15.8416 204.353 14.8391C204.353 13.8366 204.472 13.0228 204.611 13.0228C204.75 13.0228 204.869 13.8366 204.869 14.8391C204.869 15.8416 204.74 16.6457 204.611 16.6457Z" fill="#1A2E35"/>
<path d="M264.384 30.6607C264.493 30.76 259.918 36.0108 254.161 42.3931C248.404 48.7754 243.659 53.8772 243.55 53.778C243.441 53.6787 248.026 48.4381 253.774 42.0458C259.521 35.6536 264.295 30.5714 264.384 30.6607Z" fill="#1A2E35"/>
<path d="M271.67 23.4448C271.769 23.5441 271.243 24.2387 270.498 24.9831C269.754 25.7276 269.049 26.2638 268.95 26.1645C268.851 26.0652 269.377 25.3704 270.131 24.6259C270.886 23.8815 271.571 23.3456 271.67 23.4448Z" fill="#1A2E35"/>
<path d="M289.358 48.8846C288.937 49.193 288.488 49.4622 288.018 49.6887C287.134 50.1751 285.834 50.8599 284.226 51.6739C281 53.3017 276.494 55.4257 271.402 57.5399C266.31 59.6541 261.625 61.3415 258.2 62.5028C256.483 63.0686 255.094 63.4955 254.121 63.7833C253.629 63.9636 253.12 64.0932 252.602 64.1703C253.072 63.9381 253.56 63.7457 254.061 63.5948L258.032 62.1556C261.416 60.9347 266.082 59.1777 271.154 57.0933C276.226 55.0089 280.762 52.9145 284.057 51.376L287.909 49.5496C288.374 49.2923 288.859 49.07 289.358 48.8846Z" fill="#1A2E35"/>
<path d="M274.846 73.2924C274.002 73.6714 273.12 73.9607 272.216 74.1558C270.558 74.6124 268.245 75.1483 265.675 75.595C263.104 76.0416 260.712 76.2898 259.034 76.409C258.116 76.5257 257.187 76.5424 256.265 76.4586C257.166 76.252 258.082 76.1128 259.004 76.0418C260.692 75.8334 262.975 75.5158 265.595 75.0492C268.216 74.5827 270.459 74.136 272.126 73.7787C273.016 73.535 273.927 73.3722 274.846 73.2924Z" fill="#1A2E35"/>
<path d="M288.038 70.8504C286.147 71.1945 284.21 71.1945 282.32 70.8504C284.21 70.5063 286.147 70.5063 288.038 70.8504Z" fill="#1A2E35"/>
<path d="M236.78 124.817C234.813 123.31 233.289 121.3 232.366 119C231.444 116.7 231.159 114.194 231.54 111.745C232.036 108.767 233.525 106.067 234.686 103.288C235.847 100.509 236.771 97.4219 236.046 94.4938C235.654 93.4066 235.391 92.2774 235.262 91.129C235.216 90.5537 235.383 89.9815 235.731 89.5207C236.078 89.0599 236.582 88.7423 237.148 88.6277C237.584 88.6647 238.005 88.8021 238.379 89.0295C238.752 89.2568 239.068 89.5679 239.302 89.938C241.287 92.3301 242.795 99.3178 241.813 104.529" fill="#FFBF9D"/>
<path d="M241.813 104.529C241.813 104.529 241.922 103.735 241.972 102.286C242.034 100.242 241.864 98.197 241.466 96.1912C241.202 94.8099 240.806 93.4573 240.284 92.1516C240 91.4452 239.626 90.778 239.173 90.1664C238.965 89.8393 238.692 89.5584 238.371 89.3415C238.05 89.1246 237.688 88.9764 237.307 88.9058C236.917 88.9221 236.544 89.066 236.245 89.3153C235.945 89.5646 235.736 89.9054 235.649 90.2854C235.435 91.1355 235.494 92.0317 235.818 92.8463C236.143 93.7563 236.373 94.6978 236.503 95.6554C236.598 96.6484 236.562 97.6498 236.393 98.6332C235.709 102.663 233.555 105.919 232.423 109.144C231.858 110.65 231.555 112.241 231.53 113.849C231.525 115.249 231.732 116.641 232.145 117.979C232.747 119.926 233.763 121.72 235.123 123.239C236.116 124.311 236.761 124.778 236.731 124.827C236.558 124.735 236.395 124.626 236.245 124.5C235.792 124.164 235.37 123.788 234.984 123.378C233.526 121.885 232.435 120.074 231.798 118.088C231.35 116.719 231.116 115.289 231.103 113.849C231.112 112.191 231.404 110.546 231.967 108.986C233.058 105.69 235.182 102.435 235.838 98.5537C235.997 97.6095 236.034 96.6485 235.947 95.6949C235.818 94.7649 235.595 93.8504 235.282 92.9653C234.93 92.0559 234.878 91.0579 235.133 90.1167C235.281 89.6471 235.551 89.2256 235.917 88.8959C236.1 88.7253 236.316 88.5942 236.551 88.5106C236.787 88.4269 237.037 88.3925 237.287 88.4095C237.733 88.4864 238.158 88.6549 238.535 88.9043C238.913 89.1538 239.235 89.4787 239.48 89.8586C239.957 90.518 240.341 91.2392 240.622 92.0025C241.147 93.3357 241.532 94.7195 241.773 96.1318C242.147 98.1672 242.267 100.241 242.131 102.306C242.086 102.865 242.013 103.421 241.912 103.973C241.904 104.162 241.871 104.349 241.813 104.529Z" fill="#FF9A6C"/>
<path d="M371.583 185.146C371.91 186.567 372.68 187.847 373.783 188.8C374.886 189.753 376.264 190.33 377.717 190.447C379.172 190.516 380.62 190.216 381.928 189.573C383.235 188.931 384.358 187.968 385.192 186.774C386.831 184.34 387.494 181.377 387.048 178.476C386.472 174.297 383.693 170.278 379.663 169.037C375.633 167.796 370.62 170.029 369.509 174.079L364.863 180.561L371.583 185.146Z" fill="#1A2E35"/>
<path d="M366.094 172.412C366.543 168.819 366.266 165.173 365.28 161.69C364.293 158.206 362.617 154.957 360.351 152.133C358.085 149.31 355.275 146.97 352.087 145.253C348.9 143.536 345.4 142.477 341.796 142.138C327.393 140.768 314.589 151.498 312.425 165.811C310.529 178.357 308.902 191.023 308.961 195.589C309.14 209.485 317.259 214.865 320.545 216.482C321.728 216.909 322.952 217.212 324.197 217.386C324.222 217.39 324.244 217.404 324.258 217.425C324.273 217.445 324.28 217.47 324.277 217.495L321.19 233.376C319.8 243.808 325.617 253.119 336.078 254.637C346.54 256.156 354.689 248.146 356.287 237.704L366.094 172.412Z" fill="#FFBF9D"/>
<path d="M314.817 173.95C315.046 174.278 316.882 173.295 319.224 173.642C321.567 173.99 323.125 175.419 323.413 175.161C323.701 174.903 323.413 174.506 322.688 173.841C321.774 172.99 320.62 172.443 319.383 172.273C318.161 172.096 316.915 172.308 315.82 172.878C315.026 173.295 314.698 173.771 314.817 173.95Z" fill="#1A2E35"/>
<path d="M335.701 178.447C335.939 178.774 337.766 177.791 340.118 178.139C342.471 178.486 344.009 179.906 344.307 179.657C344.446 179.548 344.307 179.002 343.582 178.337C342.665 177.491 341.513 176.944 340.277 176.769C339.055 176.586 337.807 176.798 336.714 177.374C335.91 177.821 335.592 178.298 335.701 178.447Z" fill="#1A2E35"/>
<path d="M327.582 189.543C326.401 188.978 325.154 188.561 323.87 188.303C323.274 188.154 322.728 187.945 322.689 187.528C322.727 186.903 322.956 186.304 323.344 185.811L325.785 181.504C329.19 175.36 331.741 170.277 331.503 170.138C331.264 169.999 328.297 174.873 324.882 181.057C324.058 182.566 323.264 184.035 322.52 185.395C322.036 186.064 321.804 186.883 321.865 187.707C321.924 187.926 322.031 188.129 322.179 188.3C322.327 188.472 322.511 188.609 322.718 188.7C323.036 188.836 323.37 188.933 323.711 188.988C324.972 189.337 326.273 189.523 327.582 189.543Z" fill="#1A2E35"/>
<path d="M324.286 217.435C324.286 217.435 333.22 219.5 345.577 214.338C345.577 214.338 340.257 225.802 323.463 221.723L324.286 217.435Z" fill="#FF9A6C"/>
<path d="M327.751 195.35C328.277 194.866 328.916 194.521 329.609 194.348C330.303 194.175 331.029 194.178 331.721 194.358C332.231 194.482 332.711 194.707 333.134 195.019C333.556 195.331 333.913 195.723 334.183 196.174C334.44 196.612 334.556 197.118 334.515 197.624C334.474 198.131 334.278 198.612 333.954 199.003C333.518 199.372 332.98 199.6 332.412 199.659C331.843 199.717 331.27 199.603 330.768 199.33C329.716 198.779 328.785 198.023 328.029 197.107C327.788 196.883 327.596 196.613 327.463 196.313C327.395 196.171 327.372 196.012 327.395 195.857C327.418 195.701 327.486 195.556 327.592 195.439" fill="#FF9A6C"/>
<path d="M334.252 192.174C333.875 192.095 333.498 194.646 331.056 196.144C328.614 197.643 325.934 196.958 325.865 197.316C325.805 197.474 326.401 197.901 327.542 198.1C329.031 198.336 330.557 198.041 331.85 197.266C333.095 196.522 333.999 195.322 334.371 193.921C334.619 192.859 334.431 192.184 334.252 192.174Z" fill="#1A2E35"/>
<path d="M337.319 170.804C337.458 171.479 339.85 171.518 342.56 172.253C345.27 172.987 347.384 174.059 347.831 173.543C348.029 173.295 347.731 172.63 346.927 171.885C345.838 170.953 344.55 170.281 343.163 169.92C341.775 169.558 340.323 169.518 338.917 169.801C337.855 170.059 337.269 170.486 337.319 170.804Z" fill="#1A2E35"/>
<path d="M317.19 166.684C317.527 167.28 319.175 166.962 321.16 167.22C323.145 167.478 324.703 168.094 325.13 167.598C325.339 167.35 325.13 166.774 324.505 166.168C323.628 165.419 322.547 164.948 321.401 164.817C320.255 164.687 319.096 164.901 318.073 165.434C317.348 165.88 317.041 166.396 317.19 166.684Z" fill="#1A2E35"/>
<path d="M309.705 162.704C312.574 167.081 321.686 164.372 327.185 161.364C330.058 163.194 333.531 163.832 336.867 163.142C340.203 162.453 343.139 160.491 345.051 157.672C348.198 161.642 354.59 160.352 356.962 155.835C359.335 151.319 357.955 145.096 354.779 141.145C351.602 137.195 346.888 135.19 342.262 134.346C331.344 132.361 319.353 136.569 312.792 146.485C309.815 151.061 307.949 157.225 309.745 162.704" fill="#1A2E35"/>
<path d="M340.019 135.904C340.019 136.103 337.428 135.607 333.369 136.282C328.079 137.159 323.23 139.767 319.582 143.696C316.118 147.805 313.821 152.769 312.931 158.069C312.623 160.271 312.51 162.497 312.594 164.719C312.371 164.148 312.244 163.544 312.217 162.932C312.048 161.281 312.075 159.615 312.296 157.969C313.015 152.478 315.3 147.309 318.877 143.081C322.642 138.988 327.726 136.349 333.239 135.626C334.885 135.405 336.551 135.378 338.202 135.547C338.823 135.567 339.437 135.687 340.019 135.904Z" fill="#375A64"/>
<path d="M325.19 156.292C325.026 155.789 324.952 155.262 324.971 154.733C324.919 153.294 325.07 151.854 325.418 150.456C325.948 148.11 326.952 145.898 328.37 143.955C329.787 142.012 331.587 140.38 333.658 139.159C335.73 137.938 338.03 137.154 340.416 136.856C342.802 136.557 345.224 136.75 347.533 137.423C348.926 137.805 350.261 138.372 351.503 139.11C351.982 139.359 352.409 139.696 352.764 140.103C351.033 139.284 349.232 138.619 347.384 138.118C342.888 136.972 338.123 137.651 334.125 140.005C330.128 142.359 327.223 146.197 326.043 150.684C325.071 154.029 325.378 156.302 325.19 156.292Z" fill="#375A64"/>
<path d="M351.503 151.548C350.427 155.433 349.808 159.43 349.657 163.459C349.512 167.509 350.771 171.485 353.22 174.715C357.052 179.33 363.444 180.739 369.34 181.861C372.5 173.994 373.45 165.414 372.089 157.046C371.424 152.987 370.104 148.848 367.245 145.89C365.123 143.793 362.363 142.46 359.401 142.1C356.438 141.741 353.441 142.376 350.878 143.905" fill="#1A2E35"/>
<path d="M354.789 170.764C353.23 174.119 353.349 178 353.885 181.682C354.421 185.365 355.344 188.968 355.315 192.66C355.285 196.353 354.104 200.273 351.205 202.586C350.323 203.172 349.496 203.836 348.734 204.571C348.362 204.944 348.113 205.422 348.023 205.94C347.932 206.459 348.004 206.993 348.228 207.47C348.774 208.373 350.451 208.353 350.689 207.33L350.54 207.589C350.394 207.837 350.315 208.119 350.312 208.407C350.31 208.695 350.383 208.979 350.525 209.229C350.667 209.48 350.872 209.689 351.121 209.835C351.369 209.981 351.652 210.058 351.94 210.06C352.953 210.011 353.945 209.756 354.855 209.308C355.765 208.861 356.573 208.232 357.23 207.46C359.126 205.266 359.881 202.318 360.377 199.469C361.905 190.695 361.608 181.603 364.03 173.057" fill="#1A2E35"/>
<path d="M321.13 228.324C321.817 231.308 323.137 234.109 325.003 236.538C326.868 238.967 329.234 240.965 331.94 242.399C334.646 243.832 337.629 244.666 340.686 244.844C343.743 245.022 346.803 244.54 349.657 243.431C354.789 241.446 358.938 237.575 362.948 233.793C363.662 238.099 363.463 242.506 362.365 246.73C361.266 250.954 359.292 254.9 356.571 258.313C353.849 261.725 350.441 264.527 346.567 266.537C342.693 268.548 338.44 269.721 334.083 269.982C327.503 270.379 320.435 268.374 316.296 263.243C313.538 259.521 312.137 254.968 312.326 250.339C312.527 245.736 313.403 241.188 314.926 236.84C316.108 233.088 317.904 228.9 321.755 227.857" fill="#10DD8E"/>
<path d="M368.218 182.139C372.189 184.273 374.303 188.74 375.067 193.147C375.831 197.554 375.444 202.08 375.633 206.537C375.822 210.993 376.625 215.678 379.504 219.142C382.482 222.835 387.196 224.582 391.415 226.835C400.676 231.798 408.289 240.265 411.068 250.409C413.847 260.553 411.326 272.245 403.733 279.541C396.785 286.151 386.76 288.474 377.201 288.474C370.372 288.474 362.878 287.005 358.62 281.675C354.362 276.345 354.65 268.871 356.149 262.3C357.647 255.729 360.357 249.396 360.466 242.607C359.447 246.779 357.671 250.729 355.225 254.26C354.531 255.252 353.33 256.344 352.248 255.769C351.166 255.193 351.503 253.337 352.059 252.096C360.288 233.803 357.419 196.928 362.293 176.729" fill="#1A2E35"/>
<path d="M361.439 180.044C361.687 179.965 371.285 178.149 370.055 187.638C368.824 197.127 359.543 193.931 359.563 193.663C359.583 193.395 361.439 180.044 361.439 180.044Z" fill="#FFBF9D"/>
<path d="M362.928 190.437C362.977 190.437 363.087 190.576 363.345 190.744C363.716 190.963 364.156 191.031 364.575 190.933C365.628 190.695 366.68 189.206 366.948 187.509C367.078 186.696 367.024 185.865 366.789 185.077C366.739 184.768 366.614 184.477 366.425 184.228C366.237 183.979 365.99 183.78 365.707 183.648C365.529 183.584 365.334 183.582 365.155 183.642C364.975 183.701 364.82 183.818 364.714 183.975C364.556 184.223 364.595 184.422 364.536 184.432C364.476 184.442 364.357 184.243 364.536 183.866C364.613 183.635 364.772 183.441 364.982 183.32C365.13 183.231 365.294 183.174 365.465 183.152C365.636 183.13 365.81 183.143 365.975 183.191C366.355 183.319 366.696 183.543 366.965 183.84C367.234 184.137 367.423 184.498 367.513 184.888C367.812 185.762 367.89 186.696 367.742 187.608C367.434 189.514 366.223 191.171 364.764 191.39C364.5 191.434 364.229 191.416 363.973 191.339C363.716 191.261 363.481 191.126 363.285 190.943C362.918 190.675 362.898 190.457 362.928 190.437Z" fill="#FF9A6C"/>
<path d="M311.313 248.771C311.777 247.741 312.314 246.746 312.921 245.793C314.305 243.503 315.452 241.079 316.346 238.557C317.217 236.034 317.513 233.348 317.21 230.696C317.017 229.607 316.761 228.53 316.445 227.47C316.632 227.712 316.777 227.984 316.872 228.274C317.196 229.035 317.429 229.831 317.567 230.646C317.991 233.355 317.742 236.126 316.842 238.716C315.941 241.276 314.731 243.716 313.239 245.982C312.683 246.855 312.246 247.55 311.879 248.017C311.512 248.483 311.343 248.791 311.313 248.771Z" fill="#1A2E35"/>
<path d="M316.157 237.823C316.008 237.823 315.74 237.009 314.887 236.443C314.033 235.877 313.179 235.877 313.16 235.728C313.14 235.58 313.368 235.56 313.755 235.55C314.268 235.553 314.768 235.716 315.185 236.016C315.608 236.307 315.933 236.718 316.117 237.197C316.247 237.565 316.217 237.803 316.157 237.823Z" fill="#FAFAFA"/>
<path d="M322.282 237.803C321.551 236.962 320.747 236.188 319.879 235.49C318.899 234.945 317.869 234.497 316.802 234.15C317.394 234.074 317.995 234.116 318.571 234.273C319.147 234.429 319.686 234.698 320.157 235.063C321.195 235.665 321.957 236.648 322.282 237.803Z" fill="#FAFAFA"/>
<path d="M326.143 257.942C326.153 256.574 326.343 255.212 326.708 253.893C326.9 252.529 327.263 251.195 327.79 249.922C327.574 252.647 327.02 255.334 326.143 257.923V257.942Z" fill="#FAFAFA"/>
<path d="M341.627 260.98C341.41 259.564 341.367 258.128 341.498 256.702C341.457 255.269 341.587 253.836 341.885 252.434C342.102 253.849 342.146 255.286 342.014 256.711C342.056 258.144 341.926 259.577 341.627 260.98Z" fill="#FAFAFA"/>
<path d="M25.4697 305.09L10.1641 371.742L42.5322 371.841L57.4904 313.229L25.4697 305.09Z" fill="#C78976"/>
<path d="M184.432 223.202C181.355 219.083 177.821 215.122 176.193 210.239C175.409 207.877 175.101 205.375 174.268 203.033C173.434 200.69 171.915 198.407 169.593 197.524C167.27 196.641 165.513 197.524 163.994 199.191L152.887 231.679L159.29 256.632C165.682 255.193 173.692 253.486 179.657 250.796C185.623 248.106 189.583 243.798 190 237.257C190.288 232.125 187.509 227.331 184.432 223.202Z" fill="#1A2E35"/>
<path d="M83.3471 217.465C83.3471 217.465 44.7357 234.269 39.9117 241.853C35.0877 249.436 19.2263 303.502 19.2263 303.502L59.9222 315.463L59.2473 371.742H159.012L158.188 272.484L145.632 217.624C145.632 217.624 123.606 216.204 121.562 215.202C119.517 214.199 83.3471 217.465 83.3471 217.465Z" fill="#10DD8E"/>
<path d="M220.562 79.873C220.879 77.6 219.291 75.0986 220.433 73.1035C221.194 72.0754 222.283 71.3369 223.52 71.0093C224.117 70.7307 224.766 70.5787 225.425 70.5627C225.754 70.5574 226.077 70.6485 226.354 70.8249C226.631 71.0014 226.85 71.2555 226.984 71.5553C227.056 71.934 227.025 72.3253 226.892 72.6872C226.759 73.0492 226.53 73.368 226.229 73.6098C225.619 74.0795 225.11 74.6667 224.731 75.3369C224.334 76.3294 224.731 79.3074 225.088 80.2205C226.416 83.6844 227.514 87.2323 228.373 90.8411" fill="#C78976"/>
<path d="M212.413 80.6473C212.552 77.203 215.39 63.6343 215.49 60.1901C217.822 60.9047 219.172 63.3863 219.609 65.7884C220.046 68.1904 219.827 70.662 220.234 73.0641C220.79 76.29 222.467 79.1982 224.204 81.9973C225.942 84.7964 227.649 87.645 228.413 90.8213C229.177 93.9975 232.056 102.256 229.813 104.638" fill="#C78976"/>
<path d="M211.767 103.884L197.961 169.473C197.474 172.451 145.632 217.663 145.632 217.663L155.865 258.568L223.42 192.531C228.287 187.317 230.935 180.416 230.805 173.285L229.664 111.745L211.767 103.884Z" fill="#C78976"/>
<path d="M209.405 81.074L211.767 103.903L229.634 111.765C229.634 111.765 229.852 110.147 230.626 102.236C231.48 93.521 222.1 89.779 217.921 83.3768C216.135 80.6274 216.611 75.5653 215.222 69.2922C215.063 68.5676 214.07 64.1803 213.534 61.8279C213.256 60.5191 212.489 59.3655 211.39 58.602C210.586 58.066 209.663 57.798 208.998 58.602C208.333 59.406 209.405 81.074 209.405 81.074Z" fill="#C78976"/>
<path d="M220.562 107.715C222.547 105.998 223.033 102.921 222.279 100.37C221.37 97.8569 219.931 95.5685 218.06 93.6602C216.194 91.7549 214.625 89.58 213.405 87.2084C212.651 85.5012 212.294 83.6152 211.42 81.9377C210.547 80.2603 209.068 78.7217 207.192 78.6522C208.69 88.0917 208.651 93.5409 211.718 103.884" fill="#C78976"/>
<path d="M209.068 89.392C208.989 89.1449 208.926 88.8929 208.879 88.6377C208.75 88.0322 208.591 87.3176 208.403 86.4739C207.986 84.4887 207.41 81.9574 206.824 79.0492L206.765 78.7714H207.053C207.665 78.7489 208.276 78.8478 208.85 79.0625C209.424 79.2771 209.95 79.6033 210.398 80.0221C211.754 81.3223 212.721 82.9758 213.187 84.7962C213.585 86.22 214.11 87.6054 214.755 88.9355C215.241 89.8052 215.827 90.6147 216.502 91.3474C216.753 91.6255 216.954 91.9443 217.098 92.2903C216.828 92.0395 216.579 91.7673 216.353 91.4763C215.607 90.7821 214.963 89.987 214.438 89.1141C213.734 87.7846 213.165 86.3881 212.74 84.9453C212.268 83.221 211.343 81.6546 210.06 80.4091C209.255 79.6546 208.186 79.245 207.082 79.2677L207.311 78.9699C208.502 84.9254 209.276 89.402 209.068 89.392Z" fill="#8A503F"/>
<path d="M217.088 83.625C215.818 77.4475 214.89 71.2045 214.308 64.9247C215.022 67.9968 215.572 71.1048 215.956 74.2352C216.501 77.3427 216.879 80.4771 217.088 83.625Z" fill="#8A503F"/>
<path d="M222.775 84.3595C222.775 84.3595 222.845 84.4589 222.914 84.707H222.755C222.017 82.5841 221.417 80.4157 220.959 78.2155C220.532 76.2998 220.214 74.5528 220.026 73.2526C219.879 72.5714 219.818 71.8743 219.847 71.178C219.996 71.178 220.601 74.2649 221.455 78.0764C222.14 81.1633 222.775 83.764 222.904 84.6375H222.755C222.745 84.4786 222.755 84.3595 222.775 84.3595Z" fill="#8A503F"/>
<path d="M226.299 96.9355C225.888 96.5333 225.504 96.1058 225.147 95.6553C223.259 93.6492 220.696 92.4119 217.951 92.1812C217.377 92.1858 216.803 92.1492 216.234 92.0719C216.787 91.8589 217.38 91.7708 217.971 91.8138C219.401 91.8345 220.809 92.1678 222.097 92.7902C223.385 93.4126 224.521 94.309 225.425 95.4168C225.832 95.8474 226.131 96.3677 226.299 96.9355Z" fill="#8A503F"/>
<path d="M213.385 105.69C212.9 104.834 212.508 103.929 212.214 102.99C211.39 100.765 210.704 98.4909 210.159 96.1811C209.609 93.8911 209.191 91.5712 208.909 89.233C208.739 88.2501 208.683 87.251 208.74 86.2552C208.983 87.205 209.162 88.1701 209.276 89.1438C209.564 90.9205 210.02 93.3821 210.656 96.0919C211.291 98.8016 212.016 101.174 212.552 102.901C212.894 103.81 213.172 104.742 213.385 105.69Z" fill="#8A503F"/>
<path d="M133.522 218.825C134.405 217.471 135.775 216.51 137.348 216.14C138.921 215.77 140.576 216.021 141.969 216.839C149.255 210.884 156.709 205.107 163.994 199.181C161.622 211.092 160.024 227.698 165.354 238.587C165.354 238.587 172.074 251.084 182.774 249.168L173.235 258.558L158.148 272.504" fill="#10DD8E"/>
<path d="M131.15 224.403C131.246 222.817 131.727 221.278 132.552 219.921C133.377 218.563 134.521 217.427 135.885 216.611C133.642 218.741 132.007 221.431 131.15 224.403Z" fill="#1A2E35"/>
<path d="M139.021 231.698C138.607 231.034 138.324 230.296 138.187 229.525C137.757 227.685 137.706 225.777 138.038 223.917C138.364 222.055 139.07 220.281 140.113 218.706C140.502 218.028 141.018 217.432 141.632 216.949C141.701 217.008 141.125 217.683 140.421 218.934C139.504 220.516 138.869 222.246 138.545 224.046C138.234 225.849 138.234 227.692 138.545 229.495C138.793 230.835 139.101 231.669 139.021 231.698Z" fill="#1A2E35"/>
<path d="M175.499 257.238C174.762 257.692 173.958 258.027 173.116 258.23C170.823 258.786 168.422 258.71 166.168 258.012C162.822 256.956 159.894 254.872 157.801 252.056C155.286 248.609 153.589 244.634 152.838 240.433C151.436 232.869 151.036 225.153 151.647 217.485C151.875 214.507 152.213 212.184 152.481 210.537C152.61 209.723 152.729 209.097 152.818 208.671C152.849 208.451 152.902 208.235 152.977 208.026C152.984 208.249 152.964 208.472 152.917 208.69L152.679 210.566C152.471 212.194 152.193 214.537 152.014 217.514C151.511 225.15 151.958 232.818 153.344 240.344C154.086 244.47 155.745 248.378 158.198 251.778C160.205 254.561 163.034 256.644 166.287 257.734C168.484 258.441 170.826 258.568 173.087 258.101C173.906 257.858 174.711 257.57 175.499 257.238Z" fill="#FAFAFA"/>
<path d="M60.091 332.168C59.952 332.168 59.8329 318.053 59.8329 300.653C59.8329 283.253 59.952 269.139 60.091 269.139C60.2299 269.139 60.359 283.243 60.359 300.653C60.359 318.063 60.2399 332.168 60.091 332.168Z" fill="#1A2E35"/>
<path d="M59.2968 258.25C59.1876 258.25 59.2174 256.841 58.7311 254.647C58.4413 253.365 58.0257 252.115 57.4903 250.915C56.177 247.972 54.1956 245.375 51.7035 243.331C50.684 242.501 49.5872 241.769 48.4281 241.148C46.4429 240.155 45.0632 239.758 45.093 239.659C45.4318 239.676 45.7662 239.743 46.0856 239.857C46.4647 239.952 46.8362 240.075 47.1973 240.225C47.6811 240.397 48.1549 240.596 48.6166 240.82C49.8232 241.41 50.9643 242.126 52.0212 242.954C53.2963 243.997 54.4545 245.175 55.4754 246.468C56.4616 247.787 57.291 249.216 57.9469 250.726C58.4739 251.964 58.8634 253.255 59.1083 254.577C59.2101 255.082 59.2797 255.593 59.3167 256.106C59.3681 256.491 59.3881 256.879 59.3763 257.267C59.3878 257.597 59.361 257.927 59.2968 258.25Z" fill="#1A2E35"/>
<path d="M127.318 217.028C127.387 217.306 127.44 217.588 127.477 217.872C127.616 218.676 127.702 219.488 127.735 220.304C127.86 223.332 127.44 226.357 126.495 229.237C125.1 233.507 122.624 237.343 119.308 240.374C115.139 244.001 109.909 246.183 104.398 246.597C98.8874 247.01 93.3905 245.631 88.7268 242.667C84.9954 240.17 81.9728 236.75 79.9524 232.741C78.597 230.051 77.7362 227.139 77.4114 224.145C77.3206 223.334 77.2841 222.519 77.3022 221.703C77.2826 221.419 77.2826 221.134 77.3022 220.85C77.3488 221.128 77.3721 221.411 77.3717 221.693C77.3717 222.249 77.4511 223.073 77.5802 224.115C78.0759 227.78 79.3479 231.297 81.3112 234.431C83.2745 237.565 85.8838 240.244 88.965 242.289C93.5489 245.17 98.9353 246.505 104.334 246.1C109.732 245.694 114.859 243.569 118.961 240.036C121.698 237.552 123.876 234.514 125.349 231.124C126.823 227.734 127.558 224.069 127.507 220.373C127.507 219.321 127.428 218.507 127.348 217.951C127.307 217.645 127.297 217.336 127.318 217.028Z" fill="#1A2E35"/>
<path d="M59.2373 303.145C59.2373 303.284 50.9988 300.693 40.9341 297.368C30.8693 294.043 22.7401 291.234 22.7798 291.095C22.8195 290.956 31.0182 293.546 41.0929 296.872C51.1676 300.197 59.287 302.986 59.2373 303.145Z" fill="#FAFAFA"/>
<path d="M157.175 289.368C157.175 289.516 135.339 289.725 108.291 289.834C81.2429 289.943 59.3961 289.923 59.3961 289.784C59.3961 289.645 81.2329 289.427 108.291 289.318C135.349 289.209 157.175 289.229 157.175 289.368Z" fill="#FAFAFA"/>
<path d="M157.672 298.023C157.672 298.162 135.676 298.281 108.539 298.281C81.4017 298.281 59.3961 298.162 59.3961 298.023C59.3961 297.884 81.3918 297.765 108.539 297.765C135.686 297.765 157.672 297.864 157.672 298.023Z" fill="#FAFAFA"/>
<path d="M144.192 308.514C144.127 308.79 144.037 309.058 143.924 309.318C143.693 309.874 143.395 310.628 143.031 311.581L142.376 313.209C142.118 313.805 141.81 314.43 141.493 315.115C140.838 316.465 140.163 318.033 139.22 319.681C138.763 320.505 138.287 321.378 137.8 322.281C137.314 323.185 136.698 324.078 136.123 325.031C135.001 326.947 133.602 328.872 132.152 330.927C125.755 339.724 117.936 347.393 109.015 353.617C106.931 355.007 104.986 356.367 103.06 357.458C102.067 358.014 101.194 358.59 100.281 359.076L97.6503 360.446C95.9827 361.349 94.4045 361.995 93.0347 362.63C92.3498 362.928 91.7147 363.225 91.1191 363.474L89.4813 364.089L87.1983 364.943C86.9386 365.052 86.6696 365.139 86.3944 365.201C86.6379 365.059 86.8937 364.939 87.1587 364.843L89.402 363.91L91.0297 363.245C91.6153 362.987 92.2407 362.68 92.9156 362.362C94.2655 361.717 95.8338 361.042 97.4815 360.119L100.082 358.719C100.985 358.233 101.889 357.647 102.841 357.091C104.767 355.99 106.703 354.62 108.797 353.23C117.644 346.999 125.421 339.373 131.825 330.649C133.264 328.664 134.664 326.679 135.795 324.803C136.371 323.86 136.976 322.976 137.483 322.083L138.932 319.502C139.924 317.884 140.589 316.326 141.264 314.986C141.592 314.311 141.909 313.696 142.177 313.11C142.445 312.524 142.664 311.988 142.872 311.502C143.279 310.569 143.607 309.825 143.865 309.279C143.958 309.017 144.068 308.762 144.192 308.514Z" fill="#1A2E35"/>
<g opacity="0.3">
<path opacity="0.3" d="M140.162 317.15C133.492 325.269 126.505 331.155 116.708 334.947C112.013 336.753 107.1 337.994 102.554 340.148C98.0076 342.302 93.7296 345.548 91.6352 350.143C90.057 353.697 90.8213 359.077 94.613 359.851C96.086 360.03 97.5798 359.8 98.9307 359.186C118.326 352.148 131.08 334.371 140.093 317.15" fill="black"/>
</g>
<path d="M70.7413 140.51C66.5526 143.795 66.2647 149.939 66.4732 155.26C66.6816 160.58 66.7412 166.635 62.89 170.307C59.7137 173.335 54.1553 174.456 53.2421 178.754C53.011 179.767 53.1034 180.826 53.5064 181.784C53.9093 182.741 54.6023 183.548 55.488 184.09C56.3737 184.633 57.4073 184.884 58.4432 184.808C59.4791 184.732 60.465 184.333 61.2621 183.667C59.9221 187.032 60.5276 191.34 63.3962 193.593C66.2647 195.846 71.2773 194.774 72.3294 191.32C72.1532 191.897 72.0973 192.503 72.1654 193.102C72.2334 193.701 72.4239 194.28 72.7249 194.802C73.0259 195.324 73.4312 195.779 73.9153 196.138C74.3995 196.497 74.9524 196.753 75.5396 196.889C76.1267 197.025 76.7356 197.04 77.3284 196.931C77.9213 196.822 78.4856 196.592 78.986 196.256C79.4864 195.92 79.9123 195.485 80.2374 194.977C80.5624 194.47 80.7796 193.901 80.8755 193.305" fill="#1A2E35"/>
<path d="M131.547 179.032C131.747 179.729 132.088 180.378 132.548 180.938C133.009 181.498 133.58 181.957 134.226 182.287C134.872 182.617 135.579 182.81 136.303 182.856C137.027 182.901 137.752 182.797 138.434 182.55C139.116 182.303 139.74 181.919 140.267 181.421C140.794 180.923 141.213 180.322 141.498 179.655C141.783 178.988 141.928 178.27 141.923 177.544C141.919 176.819 141.766 176.102 141.473 175.439C140.639 173.374 138.495 171.816 138.435 169.603C138.306 166.923 141.125 165.146 143.597 164.104C146.068 163.062 148.967 161.672 149.364 159.022C149.761 156.371 147.528 154.337 145.681 152.52C143.835 150.704 142.058 147.944 143.359 145.701C144.024 144.56 145.344 143.944 146.198 142.942C148.123 140.718 147.349 136.986 145.125 135.091C142.902 133.195 139.716 132.758 136.808 133.105C133.899 133.453 131.12 134.545 128.271 135.249C123.544 136.382 118.633 136.522 113.849 135.659C109.066 134.796 104.513 132.95 100.479 130.237" fill="#1A2E35"/>
<path d="M73.6 160.977L83.8137 220.175C84.2416 222.649 85.1542 225.014 86.4992 227.135C87.8442 229.255 89.595 231.089 91.651 232.531C93.707 233.973 96.0276 234.994 98.4795 235.536C100.931 236.078 103.466 236.13 105.938 235.689C110.626 234.849 114.83 232.285 117.722 228.5C120.614 224.716 121.983 219.986 121.562 215.242C121.095 209.991 120.698 205.643 120.698 205.643C120.698 205.643 135.527 201.832 134.247 186.784C133.621 179.499 131.13 164.6 128.708 151.141C127.452 144.174 123.62 137.936 117.974 133.667C112.327 129.398 105.281 127.412 98.2358 128.103L96.7867 128.242C93.092 128.82 89.5507 130.133 86.3721 132.103C83.1935 134.074 80.442 136.661 78.2805 139.713C76.1189 142.765 74.591 146.219 73.7871 149.871C72.9832 153.523 72.9196 157.3 73.6 160.977Z" fill="#C78976"/>
<path d="M125.552 160.888C125.611 161.449 125.449 162.01 125.101 162.453C124.752 162.896 124.244 163.186 123.686 163.26C123.415 163.308 123.137 163.302 122.869 163.241C122.601 163.181 122.347 163.067 122.123 162.907C121.9 162.747 121.71 162.544 121.566 162.31C121.422 162.075 121.326 161.815 121.284 161.543C121.224 160.984 121.385 160.424 121.731 159.981C122.078 159.538 122.583 159.248 123.14 159.171C123.411 159.123 123.69 159.129 123.958 159.189C124.227 159.25 124.482 159.363 124.706 159.523C124.931 159.683 125.121 159.886 125.266 160.12C125.411 160.355 125.509 160.616 125.552 160.888Z" fill="#1A2E35"/>
<path d="M126.197 158.833C125.959 159.131 124.212 158.089 121.899 158.317C119.586 158.545 118.008 159.875 117.73 159.617C117.452 159.359 117.81 158.972 118.504 158.357C119.436 157.565 120.591 157.083 121.81 156.977C123.012 156.857 124.221 157.121 125.264 157.731C126.028 158.208 126.326 158.694 126.197 158.833Z" fill="#1A2E35"/>
<path d="M102.911 163.528C102.97 164.087 102.81 164.647 102.463 165.09C102.117 165.533 101.612 165.823 101.055 165.9C100.783 165.948 100.505 165.942 100.236 165.882C99.9672 165.821 99.7131 165.708 99.4886 165.548C99.264 165.388 99.0735 165.185 98.9283 164.95C98.7831 164.716 98.6861 164.455 98.6428 164.183C98.5836 163.622 98.7454 163.061 99.0939 162.618C99.4425 162.175 99.9501 161.885 100.509 161.811C100.78 161.763 101.058 161.769 101.326 161.83C101.594 161.89 101.848 162.004 102.071 162.164C102.295 162.324 102.485 162.527 102.629 162.761C102.773 162.995 102.869 163.256 102.911 163.528Z" fill="#1A2E35"/>
<path d="M103.497 161.473C103.258 161.781 101.511 160.739 99.1987 160.967C96.886 161.195 95.3077 162.525 95.0298 162.267C94.7518 162.009 95.1092 161.622 95.804 161.007C96.736 160.215 97.8911 159.733 99.1093 159.627C100.312 159.501 101.523 159.766 102.564 160.382C103.328 160.858 103.616 161.334 103.497 161.473Z" fill="#1A2E35"/>
<path d="M113.571 177.821C113.571 177.682 114.961 177.295 117.264 176.769C117.849 176.65 118.395 176.481 118.455 176.064C118.447 175.45 118.249 174.854 117.889 174.357L115.705 170.029C112.648 163.855 110.385 158.764 110.633 158.644C110.881 158.525 113.611 163.429 116.589 169.563L118.703 173.93C119.141 174.606 119.331 175.413 119.239 176.213C119.175 176.436 119.062 176.641 118.907 176.813C118.752 176.985 118.56 177.119 118.345 177.206C118.025 177.324 117.692 177.404 117.353 177.444C116.112 177.723 114.842 177.849 113.571 177.821Z" fill="#1A2E35"/>
<path d="M103.219 152.352C103.05 153.007 100.707 152.927 98.0274 153.523C95.3474 154.118 93.2233 155.071 92.8064 154.515C92.6178 154.267 92.9453 153.632 93.799 152.937C94.9031 152.069 96.1947 151.471 97.5708 151.19C98.9444 150.888 100.37 150.918 101.73 151.279C102.732 151.597 103.278 152.044 103.219 152.352Z" fill="#1A2E35"/>
<path d="M124.698 152.213C124.341 152.778 122.713 152.391 120.777 152.55C118.842 152.709 117.274 153.255 116.807 152.738C116.609 152.49 116.807 151.935 117.482 151.369C118.376 150.68 119.454 150.273 120.58 150.198C121.706 150.124 122.828 150.386 123.805 150.952C124.579 151.419 124.847 151.945 124.698 152.213Z" fill="#1A2E35"/>
<path d="M88.3299 142.872L88.2605 142.952C86.0448 145.073 84.7328 147.967 84.5978 151.031C84.6031 151.134 84.6031 151.237 84.5978 151.339C84.4291 155.696 84.9651 160.054 84.7467 164.401C84.5283 168.749 83.4763 173.255 80.5978 176.521C79.4067 177.861 77.1833 178.923 75.9723 177.603C75.554 177.046 75.3027 176.381 75.2477 175.687C73.4313 165.404 69.6992 156.481 68.6669 145.632C68.5197 144.18 68.7211 142.713 69.2546 141.355C69.788 139.996 70.638 138.784 71.734 137.82C73.8482 135.974 76.4488 134.019 79.089 134.971C81.7293 135.924 85.4614 140.321 87.6054 142.128" fill="#1A2E35"/>
<path d="M79.3371 167.29C79.0691 167.211 68.6966 165.245 70.0267 175.499C71.3567 185.752 81.3817 182.308 81.3619 182.01C81.342 181.712 79.3371 167.29 79.3371 167.29Z" fill="#C78976"/>
<path d="M77.6894 178.536C77.6894 178.536 77.5207 178.675 77.2428 178.853C76.8405 179.095 76.3594 179.17 75.9027 179.062C74.7711 178.804 73.6396 177.196 73.3419 175.36C73.2097 174.481 73.2673 173.584 73.5106 172.729C73.5672 172.396 73.7031 172.081 73.907 171.812C74.1108 171.542 74.3766 171.326 74.6818 171.181C74.8799 171.103 75.0988 171.096 75.3013 171.161C75.5039 171.227 75.6778 171.36 75.7935 171.538C75.9722 171.806 75.9325 172.025 75.9921 172.035C76.0517 172.044 76.1906 171.826 76.0516 171.419C75.9618 171.171 75.7903 170.961 75.5652 170.824C75.2625 170.657 74.9079 170.611 74.5727 170.694C74.1619 170.832 73.7935 171.074 73.5031 171.395C73.2128 171.717 73.0102 172.108 72.915 172.531C72.5806 173.486 72.4952 174.511 72.6669 175.509C72.9944 177.563 74.3047 179.36 75.8432 179.598C76.129 179.644 76.4216 179.625 76.6986 179.54C76.9756 179.456 77.2297 179.309 77.4412 179.112C77.739 178.784 77.7688 178.546 77.6894 178.536Z" fill="#8A503F"/>
<path d="M78.8904 136.599C75.9127 132.728 82.3149 126.137 87.2381 124.043C92.1613 121.949 99.149 123.765 104.32 124.946C107.606 125.7 110.931 126.862 114.246 126.395C116.469 125.951 118.613 125.178 120.609 124.103C122.605 123.009 124.804 122.333 127.07 122.117C128.203 122.031 129.337 122.256 130.35 122.769C131.363 123.281 132.217 124.062 132.817 125.026C133.88 127.011 132.936 129.989 130.733 130.534C131.41 130.074 132.189 129.784 133.003 129.69C133.817 129.596 134.641 129.701 135.405 129.995C136.17 130.289 136.852 130.763 137.393 131.378C137.934 131.993 138.318 132.73 138.512 133.526C138.707 134.322 138.705 135.153 138.508 135.948C138.311 136.743 137.925 137.479 137.382 138.092C136.839 138.705 136.155 139.177 135.39 139.469C134.624 139.76 133.8 139.862 132.986 139.766C134.346 138.515 136.768 140.133 136.768 141.969C136.768 143.805 135.239 145.314 133.631 146.207C129.522 148.52 124.46 148.401 119.864 147.339C115.269 146.277 110.931 144.361 106.375 143.17C101.819 141.979 94.1564 139.835 89.8883 141.82C86.7418 143.289 84.8559 147.428 82.9402 146.783C82.0299 146.403 81.2209 145.816 80.578 145.068C79.9351 144.32 79.4763 143.432 79.2379 142.475C78.7978 140.549 78.6737 138.565 78.8706 136.599" fill="#1A2E35"/>
<path d="M79.4662 169.047C79.5985 174.495 80.2231 179.92 81.3322 185.255C82.6028 190.556 84.9055 195.727 88.717 199.608C93.7295 204.7 100.201 209.534 107.239 210.735C114.931 212.006 124.341 210.398 130.604 205.772C133.582 203.569 135.736 198.824 134.813 195.231C136.073 194.635 137.152 193.714 137.939 192.563C138.726 191.411 139.192 190.071 139.289 188.68C139.438 185.901 137.751 182.427 135.547 182.059C137.205 181.781 137.671 179.161 137.046 177.682C136.421 176.203 134.247 175.756 132.599 176.074C130.973 176.498 129.461 177.278 128.172 178.357C126.881 179.433 125.427 180.298 123.864 180.918C118.544 182.645 113.154 177.94 107.566 178.168C102.514 178.367 98.0176 182.566 93.005 181.861C91.6127 181.595 90.292 181.038 89.1291 180.227C87.9662 179.417 86.987 178.37 86.2554 177.156C84.7169 174.794 85.382 166.029 84.7765 163.26" fill="#1A2E35"/>
<g opacity="0.6">
<path opacity="0.6" d="M120.013 192.68C119.595 192.582 119.184 192.456 118.782 192.303C117.81 192.025 116.787 191.974 115.792 192.155C114.797 192.336 113.857 192.743 113.045 193.345C112.42 193.802 112.053 194.169 112.053 194.119C112.053 194.07 112.251 193.633 112.866 193.077C113.674 192.354 114.668 191.869 115.735 191.678C116.805 191.488 117.907 191.594 118.921 191.985C119.656 192.283 120.043 192.631 120.013 192.68Z" fill="#375A64"/>
</g>
<path d="M109.144 181.275C109.521 181.216 109.77 183.727 112.122 185.246C114.474 186.764 117.085 186.288 117.145 186.635C117.145 186.784 116.599 187.181 115.477 187.32C114.007 187.493 112.524 187.141 111.288 186.328C110.114 185.533 109.289 184.318 108.986 182.933C108.757 181.891 108.976 181.275 109.144 181.275Z" fill="white"/>
<path d="M101.68 209.058C101.908 209.108 102.128 209.188 102.335 209.296C102.752 209.445 103.377 209.673 104.201 209.901C106.536 210.532 108.932 210.909 111.348 211.023C113.002 211.12 114.662 211.087 116.311 210.924C118.21 210.755 120.087 210.385 121.909 209.822C123.927 209.227 125.852 208.352 127.626 207.221C129.558 206.056 131.244 204.525 132.589 202.715C134.193 200.586 134.904 197.916 134.574 195.271V195.062L134.763 194.983C135.995 194.409 137.06 193.531 137.86 192.432C138.249 191.913 138.582 191.354 138.852 190.764C139.088 190.19 139.238 189.585 139.299 188.968C139.403 187.849 139.24 186.722 138.824 185.678C138.408 184.634 137.751 183.704 136.907 182.963L136.768 182.844L136.877 182.695C137.325 182.127 137.617 181.452 137.725 180.736C137.833 180.021 137.753 179.29 137.492 178.615C137.288 178.103 136.98 177.639 136.587 177.253C136.194 176.867 135.725 176.567 135.21 176.372C134.552 176.109 133.84 176.01 133.135 176.084C132.659 176.144 132.41 176.233 132.401 176.203C132.63 176.093 132.874 176.016 133.125 175.975C133.849 175.857 134.591 175.929 135.279 176.183C135.834 176.371 136.343 176.674 136.772 177.073C137.202 177.472 137.542 177.957 137.77 178.496C138.066 179.223 138.167 180.015 138.063 180.794C137.958 181.572 137.652 182.309 137.175 182.933V182.665C138.084 183.437 138.794 184.417 139.246 185.52C139.699 186.624 139.88 187.819 139.775 189.007C139.73 189.69 139.572 190.361 139.309 190.993C139.044 191.616 138.711 192.209 138.316 192.759C137.471 193.938 136.336 194.878 135.021 195.489L135.17 195.191C135.567 197.971 134.854 200.795 133.185 203.053C131.803 204.916 130.07 206.49 128.083 207.688C126.266 208.839 124.294 209.725 122.227 210.318C120.368 210.877 118.454 211.236 116.519 211.39C114.841 211.523 113.155 211.523 111.477 211.39C109.042 211.24 106.633 210.803 104.301 210.09C103.665 209.893 103.042 209.658 102.435 209.385C102.172 209.305 101.919 209.195 101.68 209.058Z" fill="#375A64"/>
<path d="M56.6863 182.883C56.4963 182.831 56.3179 182.744 56.1603 182.625C55.7131 182.29 55.3691 181.836 55.1678 181.315C54.8313 180.476 54.7619 179.554 54.9692 178.675C55.2809 177.508 55.9811 176.482 56.9543 175.767C58.0963 174.906 59.3701 174.235 60.7262 173.781C62.2459 173.304 63.7152 172.679 65.1133 171.915C66.5846 170.984 67.7375 169.627 68.4187 168.024C69.1705 166.301 69.5688 164.445 69.5899 162.565C69.6693 158.684 68.776 155.002 68.6768 151.577C68.5775 148.153 69.173 144.957 70.7314 142.813C71.8978 141.093 73.6702 139.877 75.6943 139.408C76.2431 139.299 76.8052 139.272 77.3619 139.329C77.554 139.344 77.7437 139.381 77.9276 139.438C77.1922 139.403 76.4554 139.46 75.734 139.607C73.7867 140.123 72.0977 141.339 70.9895 143.021C69.5304 145.106 68.9249 148.202 69.1035 151.557C69.2822 154.912 70.0961 158.595 70.0961 162.575C70.0718 164.524 69.6567 166.448 68.8753 168.233C68.1456 169.924 66.9159 171.351 65.3515 172.322C63.9237 173.093 62.4204 173.715 60.8652 174.178C59.5438 174.593 58.2971 175.216 57.1727 176.025C56.2543 176.68 55.5803 177.623 55.2571 178.705C55.0407 179.53 55.0788 180.402 55.3662 181.206C55.6163 181.891 56.0788 182.479 56.6863 182.883Z" fill="#375A64"/>
<path d="M131.1 130.366C131.243 130.283 131.392 130.213 131.547 130.157C131.736 130.074 131.932 130.008 132.133 129.959C132.402 129.879 132.678 129.823 132.957 129.79C133.883 129.689 134.82 129.8 135.697 130.115C136.574 130.43 137.368 130.94 138.019 131.607C138.67 132.479 139.141 133.473 139.405 134.529C139.669 135.586 139.721 136.684 139.557 137.76C139.362 139.096 138.902 140.378 138.203 141.533C137.504 142.687 136.581 143.689 135.488 144.48C132.974 146.311 129.97 147.348 126.862 147.458C123.485 147.58 120.107 147.209 116.837 146.356C111.648 145.082 106.726 142.901 102.296 139.914C100.399 138.614 98.4083 137.456 96.3401 136.45C94.5275 135.612 92.576 135.114 90.5831 134.981C87.6801 134.781 84.7737 135.32 82.1362 136.55C80.2801 137.423 79.3968 138.177 79.3571 138.118C80.175 137.415 81.0829 136.824 82.0569 136.361C84.7059 135.047 87.651 134.446 90.603 134.614C92.6602 134.721 94.6796 135.209 96.5585 136.053C98.6566 137.056 100.677 138.214 102.603 139.517C107.001 142.447 111.874 144.59 117.006 145.85C120.224 146.694 123.547 147.069 126.872 146.962C129.881 146.878 132.799 145.908 135.259 144.173C136.315 143.423 137.211 142.469 137.893 141.368C138.574 140.267 139.029 139.04 139.23 137.76C139.405 136.726 139.373 135.667 139.136 134.645C138.899 133.622 138.462 132.657 137.85 131.805C137.232 131.159 136.479 130.658 135.646 130.337C134.812 130.016 133.917 129.884 133.026 129.949C132.375 130.04 131.731 130.179 131.1 130.366Z" fill="#375A64"/>
<path d="M125.84 121.621C125.839 122.402 125.68 123.176 125.373 123.894C124.516 125.871 123.02 127.503 121.125 128.529C119.847 129.273 118.444 129.778 116.986 130.018C115.314 130.262 113.615 130.262 111.943 130.018C108.4 129.572 104.737 128.182 100.886 126.981C97.0348 125.78 93.1538 125.065 89.7492 125.8C86.7227 126.458 83.9816 128.056 81.9177 130.366C80.5046 131.902 79.4234 133.713 78.7415 135.686C78.2849 137.095 78.1955 137.919 78.1359 137.909C78.1291 137.709 78.1492 137.509 78.1956 137.314C78.2706 136.743 78.3901 136.179 78.5529 135.626C79.341 133.09 80.7805 130.805 82.7277 128.999C84.6749 127.193 87.0618 125.929 89.65 125.333C93.1836 124.549 97.1737 125.274 101.035 126.485C104.896 127.696 108.539 129.085 112.013 129.542C113.658 129.785 115.33 129.785 116.976 129.542C118.37 129.321 119.715 128.854 120.946 128.162C122.799 127.195 124.286 125.652 125.184 123.765C125.459 123.069 125.678 122.352 125.84 121.621Z" fill="#375A64"/>
<path d="M213.445 317.14C214.842 317.376 216.178 317.892 217.372 318.656C218.565 319.42 219.593 320.417 220.393 321.587C221.972 323.946 222.991 326.635 223.371 329.448C224.274 334.857 222.815 340.992 220.81 346.093C215.301 343.503 212.363 337.091 211.083 333.736C209.097 328.445 208.601 317.636 213.405 317.14" fill="#10DD8E"/>
<path d="M228.969 353.697C228.139 352.344 227.683 350.795 227.646 349.209C227.61 347.622 227.994 346.054 228.76 344.664C229.547 343.287 230.602 342.08 231.861 341.115C233.121 340.15 234.56 339.447 236.096 339.046C236.78 338.785 237.512 338.676 238.243 338.727C238.973 338.779 239.684 338.989 240.324 339.344C240.861 339.771 241.275 340.334 241.521 340.975C241.767 341.615 241.837 342.31 241.724 342.987C241.474 344.338 240.875 345.601 239.987 346.649C237.118 350.352 233.654 353.419 228.969 353.697Z" fill="#10DD8E"/>
<path d="M227.569 370.809C227.455 370.442 227.395 370.061 227.391 369.677C227.311 368.943 227.222 367.871 227.143 366.551C226.891 363.097 227.104 359.625 227.778 356.228C228.481 352.794 230.1 349.615 232.463 347.027C233.191 346.266 234.011 345.599 234.905 345.042C235.203 344.813 235.539 344.639 235.897 344.525C234.771 345.371 233.718 346.311 232.751 347.334C230.542 349.925 229.022 353.032 228.334 356.367C227.682 359.72 227.415 363.137 227.54 366.551C227.635 367.968 227.645 369.39 227.569 370.809Z" fill="#1A2E35"/>
<path d="M214.725 325.339C215.009 325.906 215.242 326.497 215.42 327.105C215.827 328.247 216.413 329.924 217.068 331.999C218.428 336.148 220.204 341.925 222.031 348.327C223.857 354.729 225.326 360.585 226.339 364.834C226.845 366.958 227.232 368.675 227.49 369.876C227.65 370.488 227.759 371.112 227.817 371.742C227.58 371.153 227.391 370.545 227.252 369.925C226.914 368.645 226.458 366.948 225.922 364.962C224.8 360.744 223.242 354.918 221.445 348.516C219.648 342.113 217.931 336.326 216.681 332.148L215.212 327.185C214.999 326.584 214.836 325.966 214.725 325.339Z" fill="#1A2E35"/>
<path d="M221.614 358.828C220.238 355.779 218.156 353.102 215.539 351.018C212.922 348.935 209.846 347.505 206.566 346.848C204.899 346.53 202.844 346.57 201.911 347.999C200.978 349.429 201.782 351.325 202.785 352.704C204.924 355.545 207.857 357.687 211.214 358.861C214.571 360.034 218.201 360.185 221.644 359.295" fill="#10DD8E"/>
<path d="M208.422 351.622C208.79 351.608 209.158 351.649 209.514 351.742C209.944 351.801 210.368 351.89 210.785 352.009C211.34 352.139 211.887 352.302 212.423 352.496C213.834 352.988 215.191 353.623 216.472 354.392C218.041 355.339 219.502 356.454 220.83 357.717C222.134 359.004 223.295 360.429 224.294 361.965C225.083 363.221 225.748 364.551 226.279 365.935C226.489 366.468 226.671 367.012 226.825 367.563C226.96 367.975 227.062 368.396 227.133 368.824C227.23 369.18 227.28 369.547 227.281 369.916C227.162 369.916 226.865 368.397 225.872 366.104C225.292 364.765 224.595 363.479 223.788 362.263C222.782 360.785 221.635 359.409 220.363 358.154C219.066 356.923 217.653 355.819 216.145 354.858C214.902 354.082 213.594 353.418 212.234 352.873C209.951 352.019 208.393 351.761 208.422 351.622Z" fill="#1A2E35"/>
</g>
<defs>
<clipPath id="clip0_48:3203">
<rect width="451.546" height="372" fill="white"/>
</clipPath>
</defs>
</svg>
