<svg width="348" height="397" viewBox="0 0 348 397" fill="none" xmlns="http://www.w3.org/2000/svg">
<g clip-path="url(#clip0_131_272)">
<path d="M7.6962 98.5479C7.6962 98.5479 -3.62876 99.814 2.04419 124.79C7.71714 149.767 12.7434 162.689 12.7434 162.689C12.7434 162.689 13.4422 168.329 8.92679 168.025C4.41137 167.722 -4.62994 163.84 -7.93568 168.611C-11.304 173.592 -8.63437 179.776 -1.67875 186.399C5.27687 193.023 19.8347 207.965 21.1486 209.314C22.4626 210.664 23.3699 213.437 20.2623 213.73C17.1546 214.023 -4.76554 210.832 -5.62065 221.358C-6.47576 231.884 15.7468 247.035 18.1453 248.741C20.5438 250.446 20.8983 251.733 20.3039 253.146C19.7095 254.558 12.462 252.79 6.1946 252.099C-0.0727587 251.409 -7.44559 251.807 -7.44559 257.907C-7.44559 264.007 4.02545 279.775 38.4386 292.185L54.7379 296.883L67.1892 285.227C92.3316 258.639 95.5226 239.397 92.78 233.956C90.0374 228.515 83.3008 231.507 77.9928 234.919C72.6849 238.33 66.991 243.174 65.8335 242.18C64.676 241.186 64.4153 239.868 65.8335 237.262C67.2517 234.657 80.2974 211.104 74.7913 202.084C69.2852 193.064 51.161 205.799 48.262 206.939C45.3629 208.08 44.9458 205.181 45.4985 203.402C46.0512 201.624 52.402 181.628 55.6244 172.629C58.8467 163.631 58.4503 156.934 53.2154 153.983C48.1577 151.158 41.7444 158.776 37.886 161.067C34.0275 163.359 32.0878 158.012 32.0878 158.012C32.0878 158.012 30.7947 144.2 24.6734 119.297C18.552 94.3939 7.61282 98.5583 7.61282 98.5583" fill="#FAA600"/>
<path d="M12.7332 120.95C12.7332 120.95 12.7956 121.128 12.8895 121.463C12.9833 121.798 13.1293 122.342 13.2962 122.991C13.6508 124.351 14.1514 126.328 14.7979 128.85C16.091 133.956 17.9264 141.343 20.1163 150.478C24.5483 168.758 30.4506 194.059 36.8744 222.017C43.2982 249.975 49.138 275.307 53.4657 293.608C55.6348 302.732 57.3868 310.13 58.6069 315.268L60.0042 321.158L60.3483 322.697C60.4213 323.042 60.4525 323.23 60.4525 323.23C60.4525 323.23 60.3901 323.052 60.2962 322.718C60.2024 322.383 60.0564 321.839 59.8895 321.19C59.535 319.819 59.0343 317.852 58.3878 315.32C57.0947 310.224 55.2593 302.837 53.0694 293.702C48.6374 275.423 42.7351 250.122 36.3113 222.153C29.8876 194.184 24.0477 168.873 19.72 150.572C17.5509 141.448 15.7989 134.05 14.5788 128.913C13.974 126.37 13.5361 124.393 13.1815 123.011L12.8374 121.484C12.7644 121.128 12.7332 120.95 12.7332 120.95Z" fill="#E1E1E1"/>
<path d="M4.57812 174.649C4.95003 174.806 5.30047 175.01 5.62095 175.256C6.28835 175.664 7.23737 176.302 8.40533 177.097C10.7412 178.688 13.9009 180.969 17.3318 183.553L26.1124 190.208C27.1552 191.003 28.052 191.662 28.782 192.217C29.1252 192.44 29.4434 192.7 29.731 192.991C29.3578 192.841 29.0069 192.64 28.6882 192.395C28.0103 191.976 27.0614 191.348 25.9039 190.543C23.5888 188.921 20.4604 186.598 17.019 184.013L8.20712 177.432L5.52713 175.433C5.17916 175.213 4.86028 174.949 4.57812 174.649Z" fill="#E1E1E1"/>
<path d="M31.1493 192.227C31.0137 192.133 35.4145 185.395 40.9727 177.16C46.531 168.925 51.1507 162.333 51.2758 162.417C51.4009 162.501 47.0106 169.25 41.4524 177.484C35.8941 185.719 31.2849 192.311 31.1493 192.227Z" fill="#E1E1E1"/>
<path d="M39.0852 235.62C39.3569 235.299 39.6649 235.011 40.0029 234.762L42.6204 232.585C44.8312 230.733 47.8345 228.18 51.1194 225.261C54.4043 222.342 57.2407 219.569 59.2951 217.549L61.7354 215.174C61.6461 215.045 61.6081 214.887 61.6288 214.732C61.6496 214.577 61.7276 214.435 61.8475 214.334C61.9675 214.233 62.1206 214.181 62.2768 214.188C62.433 214.195 62.5809 214.261 62.6914 214.372C62.8019 214.482 62.8671 214.631 62.8741 214.788C62.881 214.944 62.8292 215.098 62.7289 215.218C62.6287 215.339 62.4871 215.417 62.3322 215.438C62.1772 215.459 62.0201 215.421 61.8917 215.331C61.3599 215.938 60.5778 216.796 59.5871 217.842C57.5953 219.935 54.7693 222.75 51.5052 225.69C48.2412 228.63 45.1544 231.162 42.8811 232.93C41.734 233.809 40.7954 234.51 40.1385 234.971C39.8159 235.23 39.462 235.449 39.0852 235.62Z" fill="#E1E1E1"/>
<path d="M11.5652 225.03C11.953 225.071 12.3325 225.17 12.6914 225.323C13.4005 225.553 14.4225 225.888 15.6738 226.37C18.187 227.249 21.6388 228.462 25.4451 229.896C29.2514 231.329 32.6719 232.616 35.1538 233.579C36.3843 234.071 37.3854 234.468 38.0736 234.761C38.4418 234.886 38.7923 235.059 39.1165 235.274C38.7302 235.219 38.3521 235.117 37.9902 234.971C37.2811 234.751 36.2592 234.406 35.0078 233.924C32.4946 233.056 29.0429 231.832 25.2366 230.398C21.4303 228.965 18.0098 227.688 15.5383 226.715C14.2973 226.223 13.2962 225.826 12.6183 225.533C12.2503 225.404 11.8973 225.235 11.5652 225.03Z" fill="#E1E1E1"/>
<path d="M13.7236 264.227C14.2149 264.313 14.6968 264.446 15.1627 264.624L18.9899 265.901C22.2122 267.01 26.6442 268.569 31.5038 270.327C36.3633 272.085 40.8162 273.707 44.0176 274.91L47.7822 276.354C48.2491 276.512 48.6995 276.715 49.1274 276.961C48.6391 276.881 48.1604 276.752 47.6987 276.574L43.8716 275.287C40.6493 274.24 36.2173 272.629 31.3578 270.871C26.4982 269.113 22.0454 267.491 18.8439 266.288L15.0794 264.834C14.6077 264.679 14.1533 264.476 13.7236 264.227Z" fill="#E1E1E1"/>
<path d="M48.387 276.427C48.7349 276.027 49.1151 275.656 49.5236 275.318L52.746 272.43C55.4678 269.992 59.2011 266.612 63.1742 262.762C67.1474 258.911 70.7659 255.343 73.3313 252.748L76.3658 249.609C76.7176 249.221 77.109 248.87 77.5338 248.563C77.2219 249.004 76.873 249.417 76.4909 249.798C75.8235 250.572 74.8329 251.671 73.5816 253.01C71.0892 255.689 67.5749 259.288 63.5287 263.159C59.4826 267.031 55.7075 270.358 52.9232 272.713C51.5258 273.895 50.3788 274.805 49.5758 275.465C49.2117 275.823 48.8135 276.146 48.387 276.427Z" fill="#E1E1E1"/>
<path d="M152.242 131.748C152.242 131.748 141.699 127.406 134.733 152.037C127.767 176.668 125.994 190.438 125.994 190.438C125.994 190.438 123.908 195.67 120.091 193.295C116.275 190.919 110.174 183.04 105.023 185.688C99.6835 188.429 99.0577 195.105 101.967 204.239C104.877 213.374 110.529 233.537 111.029 235.337C111.53 237.137 111.029 240.014 108.151 238.779C105.273 237.545 87.5972 224.204 81.7991 233.004C76.001 241.803 88.2541 265.827 89.5367 268.475C90.8194 271.122 90.517 272.43 89.3282 273.382C88.1394 274.334 82.6228 269.291 77.4296 265.712C72.2363 262.134 65.604 258.88 62.6841 264.237C59.7642 269.594 62.2879 288.931 86.5022 316.377L98.5467 328.347L115.055 324.162C149.822 312.945 161.825 297.605 161.982 291.494C162.138 285.384 154.828 284.787 148.54 285.216C142.251 285.645 134.983 287.162 134.409 285.729C133.836 284.295 134.263 283.019 136.724 281.397C139.185 279.775 161.929 265.388 161.408 254.851C160.887 244.314 138.893 246.732 135.807 246.334C132.72 245.936 133.721 243.195 135.077 241.898C136.432 240.6 151.543 226.119 158.676 219.778C165.809 213.437 168.677 207.358 165.486 202.262C162.357 197.355 153.159 200.954 148.644 201.1C144.129 201.247 145.025 195.628 145.025 195.628C145.025 195.628 150.5 182.883 157.018 158.116C163.535 133.349 151.97 131.717 151.97 131.717" fill="#F0C86A"/>
<path d="M145.964 153.795C145.939 153.975 145.905 154.153 145.86 154.329C145.766 154.695 145.641 155.197 145.484 155.856C145.14 157.227 144.629 159.194 143.993 161.726C142.69 166.822 140.75 174.178 138.31 183.26C133.461 201.425 126.536 226.464 118.799 254.087C111.061 281.711 104.064 306.74 99.1101 324.883C96.6386 333.934 94.6469 341.269 93.2599 346.365L91.6539 352.203C91.4766 352.852 91.3306 353.355 91.2263 353.721C91.1797 353.895 91.1241 354.066 91.0596 354.234C91.0596 354.234 91.0596 354.045 91.1743 353.7C91.289 353.355 91.3828 352.831 91.5497 352.172C91.8938 350.812 92.3943 348.834 93.0408 346.313C94.3444 341.217 96.2841 333.861 98.7138 324.779C103.573 306.604 110.498 281.565 118.235 253.931C125.973 226.296 132.96 201.289 137.924 183.156C140.385 174.094 142.387 166.77 143.774 161.664C144.462 159.152 144.994 157.185 145.37 155.825C145.557 155.176 145.693 154.674 145.797 154.308C145.902 153.942 145.964 153.795 145.964 153.795Z" fill="#E1E1E1"/>
<path d="M113.125 196.978C113.38 197.301 113.597 197.652 113.772 198.024C114.168 198.715 114.7 199.73 115.336 200.985C116.619 203.507 118.298 207.023 120.081 210.947C121.864 214.87 123.387 218.271 124.597 221.012C125.139 222.216 125.639 223.231 125.984 224.057C126.176 224.42 126.33 224.802 126.442 225.198C126.173 224.882 125.948 224.53 125.775 224.152C125.389 223.461 124.857 222.446 124.232 221.18C122.97 218.648 121.343 215.1 119.56 211.177L114.971 201.153C114.429 199.96 113.929 198.945 113.574 198.118C113.38 197.757 113.23 197.374 113.125 196.978Z" fill="#E1E1E1"/>
<path d="M128.038 225.156C127.965 225.01 135.046 221.211 143.858 216.67C152.669 212.129 159.886 208.55 159.959 208.697C160.032 208.843 152.941 212.642 144.129 217.183C135.317 221.724 128.1 225.334 128.038 225.156Z" fill="#E1E1E1"/>
<path d="M114.231 267.083C114.625 266.937 115.034 266.835 115.451 266.78L118.788 266.12C121.604 265.566 125.493 264.781 129.759 263.766C134.024 262.751 137.851 261.673 140.614 260.941L143.899 260.031C144.291 259.884 144.702 259.792 145.119 259.759C144.753 259.963 144.365 260.125 143.962 260.24C143.211 260.512 142.106 260.899 140.729 261.286C137.986 262.165 134.17 263.274 129.884 264.289C125.598 265.304 121.698 266.026 118.861 266.487C117.432 266.706 116.285 266.874 115.482 266.958C115.072 267.053 114.652 267.095 114.231 267.083Z" fill="#E1E1E1"/>
<path d="M95.1577 244.545C95.1577 244.545 95.4811 244.807 96.0025 245.34C96.5239 245.874 97.2434 246.669 98.0881 247.663C99.8818 249.641 102.259 252.392 104.971 255.458C107.682 258.524 110.028 261.328 111.728 263.369C112.583 264.415 113.261 265.221 113.73 265.807C113.996 266.091 114.221 266.412 114.398 266.759C114.086 266.524 113.802 266.254 113.553 265.953C113.042 265.42 112.312 264.624 111.467 263.63C109.684 261.663 107.296 258.901 104.585 255.835C101.874 252.769 99.5376 249.975 97.8274 247.925C96.9723 246.878 96.2944 246.072 95.8356 245.487C95.5703 245.203 95.3425 244.887 95.1577 244.545Z" fill="#E1E1E1"/>
<path d="M78.2954 279.974C78.6787 280.285 79.0282 280.636 79.3382 281.02L82.0912 283.982C84.3854 286.503 87.5347 290.009 90.9865 293.912C94.4382 297.814 97.5354 301.362 99.7566 303.946L102.364 307.033C102.704 307.393 103.005 307.789 103.26 308.215C102.877 307.904 102.528 307.553 102.218 307.169L99.475 304.208C97.1704 301.686 94.0315 298.181 90.5797 294.278C87.128 290.375 84.0309 286.838 81.8097 284.243L79.1922 281.157C78.8515 280.796 78.5508 280.4 78.2954 279.974Z" fill="#E1E1E1"/>
<path d="M102.875 307.357C103.373 307.172 103.885 307.028 104.407 306.928L108.579 305.945C112.124 305.118 117.026 303.956 122.396 302.513C127.767 301.069 132.605 299.666 136.099 298.62L140.27 297.375C140.771 297.195 141.288 297.066 141.813 296.988C141.344 297.238 140.852 297.441 140.343 297.595C139.384 297.951 137.986 298.432 136.255 299.007C132.793 300.158 127.913 301.644 122.584 303.078C117.255 304.511 112.27 305.62 108.693 306.353C106.91 306.709 105.461 306.981 104.449 307.148C103.933 307.274 103.405 307.344 102.875 307.357Z" fill="#E1E1E1"/>
<path d="M178.855 227.374L193.308 280.424L246.117 208.885L233.686 396.475H158.28L136.297 397.521C136.297 397.521 139.561 367.962 140.896 351.262C141.157 348.123 142.241 329.498 147.591 311.961C158.864 275.14 178.855 227.374 178.855 227.374Z" fill="#FAFAFA"/>
<path d="M195.873 310.391C196.061 310.632 187.531 317.517 176.863 325.762C166.195 334.007 157.351 340.516 157.174 340.275C156.997 340.034 165.517 333.139 176.185 324.894C186.853 316.649 195.696 310.14 195.873 310.391Z" fill="#1A2E35"/>
<path d="M327.112 201.509L286.056 181.691L269.955 162.48L247.17 186.242L186.78 395.962H290.342L303.628 359.988L327.112 221.023V201.509Z" fill="#10DD8E"/>
<path d="M142.356 399.007L139.582 354.495L264.721 333.223C264.721 333.223 286.088 229.634 299.259 212.663C311.408 196.967 327.259 202.429 327.259 202.429C327.259 202.429 341.524 212.244 338.114 249.818C336.331 269.49 329.157 337.712 326.56 362.343C325.939 368.245 323.992 373.93 320.866 378.969C317.347 384.648 312.442 389.333 306.616 392.581C300.789 395.829 294.234 397.533 287.569 397.531L142.356 399.007Z" fill="#10DD8E"/>
<path d="M285.118 359.089C284.93 359.089 284.753 357.111 283.846 354.066C282.685 350.099 280.714 346.419 278.059 343.257C275.404 340.096 272.122 337.523 268.423 335.703C265.586 334.29 263.647 333.777 263.699 333.61C263.751 333.443 265.784 333.736 268.746 335.012C272.668 336.695 276.144 339.274 278.896 342.544C281.649 345.814 283.601 349.685 284.597 353.846C285.337 357.048 285.233 359.089 285.118 359.089Z" fill="#10DD8E"/>
<g opacity="0.2">
<path opacity="0.2" d="M282.834 184.715C281.646 197.838 279.149 210.808 275.378 223.43L265.993 220.667C269.861 226.213 270.331 233.579 268.808 240.171C267.286 246.763 263.959 252.727 260.674 258.702C245.115 286.758 229.549 314.811 213.977 342.86L261.018 235.619L259.798 215.791L268.86 213.855L282.834 184.715Z" fill="#10DD8E"/>
</g>
<g opacity="0.2">
<path opacity="0.2" d="M264.272 331.978C270.019 331.642 275.704 333.308 280.368 336.694C285.031 340.08 288.385 344.979 289.863 350.561C290.319 351.864 290.344 353.28 289.936 354.6C289.708 355.244 289.242 355.776 288.636 356.088C288.029 356.399 287.326 356.466 286.672 356.274C285.784 355.718 285.131 354.854 284.837 353.846C282.762 349.163 279.767 344.948 276.031 341.453C272.295 337.958 267.895 335.255 263.094 333.505" fill="#10DD8E"/>
</g>
<path d="M214.3 341.792C214.455 341.199 214.664 340.621 214.926 340.066L216.949 335.221C218.795 330.931 221.381 324.894 224.562 317.433C231.132 302.408 240.131 281.857 250.069 259.058L260.497 235.316V235.567C260.08 228.525 259.684 221.881 259.319 215.739V215.331L259.715 215.247L268.788 213.343L268.485 213.573L279.769 190.679L282.897 184.401L283.752 182.779C283.838 182.583 283.95 182.4 284.086 182.235C284.044 182.444 283.97 182.645 283.867 182.831C283.669 183.281 283.429 183.877 283.126 184.505L280.186 190.878C277.526 196.465 273.793 204.344 269.236 213.95L269.153 214.138H268.934L259.882 216.126L260.257 215.634C260.654 221.766 261.081 228.41 261.54 235.452V235.578L261.478 235.693L251.049 259.455C240.986 282.161 231.882 302.711 225.25 317.695L217.314 335.305C216.386 337.304 215.646 338.884 215.103 340.066C214.877 340.66 214.609 341.237 214.3 341.792Z" fill="#10DD8E"/>
<path d="M142.262 397.531C142.201 397.292 142.166 397.046 142.158 396.799C142.158 396.245 142.043 395.533 141.97 394.623C141.824 392.635 141.626 389.83 141.365 386.252C140.875 378.927 140.187 368.412 139.28 355.468V355.112L139.624 355.05L230.13 338.371L263.5 332.292L263.083 332.679C270.383 304.72 276.786 280.445 281.333 263.086C283.637 254.506 285.504 247.642 286.755 242.839C287.391 240.537 287.892 238.727 288.246 237.43L288.653 236.038C288.758 235.724 288.81 235.567 288.83 235.578C288.822 235.741 288.794 235.902 288.747 236.059C288.664 236.436 288.559 236.896 288.434 237.482C288.108 238.793 287.666 240.611 287.11 242.933C285.89 247.747 284.159 254.642 281.99 263.264C277.537 280.644 271.301 304.951 264.116 332.951L264.032 333.286H263.699L230.328 339.396L139.77 355.782L140.103 355.364C140.802 368.317 141.376 378.823 141.772 386.178C141.939 389.757 142.074 392.572 142.168 394.549C142.168 395.46 142.22 396.171 142.241 396.726C142.278 396.993 142.285 397.263 142.262 397.531Z" fill="#10DD8E"/>
<path d="M320.803 198.035C320.803 198.233 318.718 198.547 315.516 199.74C311.355 201.311 307.543 203.691 304.301 206.744C301.058 209.796 298.448 213.461 296.62 217.528C295.223 220.667 294.774 222.76 294.535 222.76C294.489 222.249 294.542 221.733 294.691 221.243C294.953 219.883 295.344 218.551 295.859 217.266C297.553 212.992 300.166 209.145 303.511 206C306.857 202.855 310.853 200.489 315.214 199.071C316.526 198.637 317.878 198.336 319.25 198.171C320.251 197.951 320.793 197.951 320.803 198.035Z" fill="#1A2E35"/>
<path d="M84.2393 150.865C87.9413 144.001 86.3249 116.336 92.0187 117.288C99.3184 118.543 92.5715 147.632 92.1126 150.3C91.6538 152.968 95.4809 153.607 95.7625 151.19C96.1692 147.726 100.424 113.856 107.598 115.771C111.572 116.817 109.747 124.141 109.747 124.141C109.747 124.141 103.573 156.966 106.994 157.75C110.414 158.535 113.032 139.606 114.554 132.721C116.014 126.119 120.3 123.304 121.927 126.757C124.315 131.864 119.737 148.396 118.371 155.009C117.005 161.622 113.605 180.843 122.876 173.341C132.147 165.838 142.043 163.484 145.119 164.687C148.196 165.891 147.528 170.631 143.962 171.573C141.083 172.326 136.662 175.067 133.377 177.265C130.795 179.198 128.44 181.42 126.359 183.888C123.584 186.949 121.339 190.453 119.716 194.257C118.392 197.248 116.45 199.922 114.02 202.105C111.59 204.287 108.726 205.928 105.617 206.918L100.194 232.784L65.1035 225.24L72.9351 197.878C75.782 179.901 74.2073 155.741 74.2282 144.744C74.2282 127.218 76.5433 127.082 78.5559 127.553C83.0401 128.547 80.6624 157.53 84.2393 150.865Z" fill="#FFD2BE"/>
<path d="M83.2903 174.366C84.8947 174.989 86.4554 175.72 87.9621 176.553C91.5338 178.765 94.3073 182.065 95.8772 185.97C96.3465 187.164 96.6958 188.401 96.92 189.664L97.0347 190.271L97.5353 189.967C100.353 188.317 103.427 187.153 106.629 186.525C109.027 186.054 110.508 186.002 110.498 185.886C109.182 185.681 107.84 185.713 106.535 185.981C103.228 186.446 100.041 187.547 97.1494 189.224L97.7646 189.528C97.5514 188.198 97.202 186.893 96.7218 185.635C95.8166 183.401 94.5126 181.352 92.8739 179.587C91.546 178.177 90.0088 176.98 88.3168 176.04C87.189 175.419 85.9918 174.934 84.7503 174.596C84.2796 174.439 83.7862 174.362 83.2903 174.366Z" fill="#E09074"/>
<path d="M78.6288 198.997C78.5036 199.175 81.9658 201.467 86.8149 202.973C91.664 204.48 95.804 204.585 95.804 204.375C95.804 204.166 91.7996 203.654 87.0652 202.157C82.3308 200.661 78.7539 198.767 78.6288 198.997Z" fill="#E09074"/>
<path d="M205.665 173.519L178.854 227.374L193.318 280.424L231.809 239.616L269.747 168.883L205.665 173.519Z" fill="#FFD2BE"/>
<path d="M180.429 178.573C180.429 178.573 142.324 192.175 142.324 194.686C135.588 199.991 113.125 254.328 106.045 264.635L85.6679 294.77L102.76 227.803L65.1451 216.701C65.1451 216.701 33.0367 294.581 29.1261 311.919C26.7694 322.166 26.9772 332.839 29.7309 342.985L29.9395 342.807C32.3557 350.565 37.3222 357.271 44.0279 361.83C59.9831 372.084 74.8642 374.02 90.0998 362.719C98.7448 356.316 108.6 348.604 117.63 341.384L119.998 397.594H140.771C140.771 394.455 140.145 355.918 140.145 355.918C142.833 346.801 144.923 337.518 146.402 328.127C148.289 314.87 179.24 227.845 179.24 227.845L203.225 181.429L203.788 164.259L180.429 178.573Z" fill="#10DD8E"/>
<path d="M119.591 397.123C119.49 396.546 119.431 395.962 119.414 395.376C119.33 394.131 119.226 392.446 119.101 390.333C118.872 385.844 118.548 379.503 118.141 371.687C117.432 355.803 116.452 333.893 115.347 309.356V309.22C115.795 306.897 116.275 304.427 116.755 301.895C121.791 276.103 126.349 252.717 129.665 235.755C131.354 227.385 132.731 220.563 133.7 215.739L134.858 210.308C134.983 209.743 135.098 209.262 135.181 208.896C135.215 208.735 135.264 208.577 135.327 208.425C135.355 208.588 135.355 208.754 135.327 208.917C135.265 209.304 135.192 209.775 135.108 210.35C134.868 211.69 134.555 213.489 134.159 215.823C133.262 220.667 132.011 227.5 130.457 235.913C127.224 252.937 122.772 276.302 117.86 302.115C117.38 304.616 116.901 307.096 116.452 309.439V309.303C117.422 333.84 118.277 355.751 118.903 371.645C119.163 379.471 119.372 385.812 119.518 390.301C119.518 392.394 119.601 394.11 119.633 395.355C119.66 395.945 119.646 396.536 119.591 397.123Z" fill="#10DD8E"/>
<path d="M140.885 347.223C140.906 346.629 140.972 346.038 141.084 345.455C141.271 344.209 141.522 342.546 141.845 340.443C142.564 335.985 143.586 329.718 144.827 322.016C147.476 306.384 151.084 284.965 155.12 261.328L162.482 218.951V218.878L175.33 189.653L179.001 181.481L180.043 179.389C180.142 179.134 180.276 178.895 180.44 178.677C180.385 178.945 180.297 179.205 180.179 179.452C179.96 180.017 179.668 180.749 179.314 181.638C178.479 183.647 177.332 186.431 175.883 189.915L163.369 219.307V219.192L156.152 261.6C151.981 285.237 148.279 306.593 145.547 322.289C144.15 329.958 143.013 336.205 142.21 340.652C141.803 342.744 141.49 344.398 141.251 345.632C141.17 346.171 141.048 346.703 140.885 347.223Z" fill="#10DD8E"/>
<path d="M67.888 340.976C67.742 340.872 69.3689 338.528 71.6527 334.541C74.6098 329.343 77.1652 323.924 79.2965 318.333C81.4033 312.729 83.145 306.993 84.5106 301.163C85.5535 296.684 86.054 293.838 86.2313 293.891C86.2886 294.565 86.2535 295.245 86.1271 295.91C85.9915 297.197 85.7099 299.049 85.2719 301.33C84.1106 307.259 82.4465 313.076 80.2976 318.72C78.1578 324.377 75.4756 329.813 72.2888 334.949C71.3232 336.505 70.279 338.01 69.1603 339.459C68.4199 340.485 67.9506 341.029 67.888 340.976Z" fill="#10DD8E"/>
<g opacity="0.2">
<path opacity="0.2" d="M70.7556 337.869C70.4127 337.943 70.0912 338.095 69.815 338.312C69.5387 338.529 69.3149 338.806 69.1604 339.122C69.0059 339.438 68.9247 339.785 68.9229 340.137C68.921 340.489 68.9986 340.837 69.1497 341.154C69.5111 341.775 70.0544 342.269 70.7057 342.569C71.357 342.868 72.0846 342.959 72.7892 342.828C74.1954 342.532 75.4831 341.826 76.4911 340.799C79.7239 337.816 81.6427 333.662 82.9671 329.456C86.179 319.233 86.3354 308.32 86.4605 297.595C83.4556 311.59 78.1706 324.992 70.8182 337.262" fill="#10DD8E"/>
</g>
<g opacity="0.2">
<path opacity="0.2" d="M117.036 342.87C110.591 332.585 108.506 320.573 109.35 308.456C110.487 292.112 118.413 277.17 124.315 261.893C120.915 277.955 118.976 293.891 115.889 309.335C115.889 309.335 117.537 332.281 117.578 342.462" fill="#10DD8E"/>
</g>
<g opacity="0.2">
<path opacity="0.2" d="M143.315 332.626C144.963 308.173 146.621 283.657 150.938 259.529C155.256 235.4 163.619 210.402 175.476 188.973C172.41 198.662 162.962 219.004 162.962 219.004C162.962 219.004 149.301 291.201 143.378 327.635" fill="#10DD8E"/>
</g>
<path d="M140.239 360.742L143.659 398.661L125.806 398.599L110.018 398.337C104 398.993 97.938 399.154 91.8936 398.818C91.3931 398.818 91.0907 398.703 91.0594 398.63C90.1219 398.504 89.1994 398.283 88.3064 397.971H88.2229C86.6065 397.374 84.9485 396.338 85.1988 394.549C85.9809 389.119 89.2032 388.679 89.2032 388.679L90.8196 388.564L90.955 388.093C88.5044 388.093 86.4398 388.031 85.3448 387.915C84.8442 387.863 84.5522 387.8 84.5105 387.727C84.4688 387.654 78.1806 386.974 78.6603 383.615C79.4528 378.174 82.6647 377.745 82.6647 377.745L87.8788 377.389C85.3447 377.389 83.2069 377.337 82.0911 377.211C81.5801 377.159 81.2882 377.096 81.2464 377.023C81.2047 376.95 74.9165 376.27 75.4067 372.911C76.1888 367.48 79.4111 367.041 79.4111 367.041L83.7179 366.748C81.6323 366.748 79.9742 366.674 79.0252 366.57C78.5142 366.57 78.2222 366.455 78.1805 366.382C78.1388 366.308 71.8506 365.628 72.3407 362.269C73.1228 356.828 76.3348 356.399 76.3348 356.399C76.3348 356.399 86.2937 355.688 93.1346 355.353C93.1346 355.353 100.883 348.343 103.938 348.667C108.506 349.148 135.046 358.984 135.046 358.984L140.239 360.742Z" fill="#FFD2BE"/>
<path d="M106.754 387.528C106.754 387.842 102.77 388.229 97.9107 388.386C93.0511 388.543 89.1301 388.386 89.151 388.104C89.1718 387.821 93.1345 387.403 98.0045 387.246C102.874 387.089 106.775 387.214 106.754 387.528Z" fill="#E09074"/>
<path d="M106.806 376.782C106.806 377.096 101.196 377.557 94.2297 377.829C87.2637 378.101 81.6325 378.028 81.6116 377.714C81.5908 377.4 87.2325 376.939 94.1985 376.667C101.165 376.395 106.796 376.468 106.806 376.782Z" fill="#E09074"/>
<g opacity="0.78">
<path opacity="0.78" d="M105.909 365.859C105.909 366.172 100.288 366.633 93.3327 366.905C86.3771 367.177 80.725 367.104 80.7146 366.779C80.7042 366.455 86.3355 366.016 93.2911 365.733C100.247 365.451 105.899 365.545 105.909 365.859Z" fill="#E09074"/>
</g>
<path d="M90.2878 355.583C91.6097 355.843 92.9565 355.952 94.3027 355.907L103.97 356.221L113.637 356.567C114.974 356.722 116.325 356.722 117.662 356.567C116.364 356.201 115.026 355.994 113.678 355.949C111.207 355.698 107.786 355.458 104.001 355.332C100.215 355.206 96.7846 355.206 94.3027 355.332C92.9592 355.255 91.6114 355.339 90.2878 355.583Z" fill="#E09074"/>
<path d="M287.276 46.6803C291.761 35.7355 305.953 30.7551 317.028 34.8254C328.103 38.8957 335.497 50.3009 336.842 62.0304C337.488 67.8167 336.769 73.9902 333.453 78.772C329.97 83.7945 323.994 86.6718 317.956 87.5193C312.527 88.286 306.993 87.5884 301.921 85.4982C296.85 83.4079 292.424 80.0003 289.1 75.6258C285.775 71.2513 283.671 66.0677 283.005 60.6073C282.338 55.1469 283.132 49.6066 285.306 44.5562" fill="#1A2E35"/>
<path d="M332.337 48.1349C332.399 48.1349 332.128 48.6998 331.544 49.5787C330.696 50.8198 329.744 51.9857 328.697 53.0631C325.229 56.6696 320.957 59.3988 316.233 61.0267C311.508 62.6547 306.467 63.1349 301.522 62.4279C300.037 62.2178 298.572 61.8854 297.142 61.4339C296.099 61.0991 295.609 60.8478 295.63 60.7746C295.65 60.7013 297.913 61.3083 301.615 61.6536C306.432 62.1281 311.295 61.5571 315.872 59.9791C320.45 58.4011 324.635 55.8532 328.145 52.5085C330.856 49.9555 332.18 48.0198 332.337 48.1349Z" fill="#375A64"/>
<path d="M337.05 60.6178C337.05 60.6701 336.654 61.0783 335.83 61.7584C334.659 62.7182 333.434 63.6089 332.16 64.4264C327.94 67.1759 323.264 69.1463 318.353 70.2441C315.632 70.7934 312.856 71.0149 310.083 70.9035C307.822 70.7758 305.581 70.4039 303.399 69.7943C301.934 69.394 300.51 68.858 299.144 68.1933C298.619 67.9996 298.129 67.7203 297.694 67.3667C297.778 67.1679 299.926 68.1725 303.597 69.0305C305.739 69.5295 307.926 69.8135 310.125 69.8781C312.813 69.935 315.499 69.6926 318.134 69.1559C322.925 68.0748 327.519 66.2535 331.753 63.7568C335.027 61.8525 336.936 60.4608 337.05 60.6178Z" fill="#375A64"/>
<path d="M172.879 79.3579C146.683 21.5471 208.992 -7.48885 242.998 2.13755C274.95 11.1989 288.58 27.1556 293.836 48.5953C299.092 70.035 298.852 93.2848 290.468 113.72C286.296 123.796 278.892 134.03 268.11 135.285" fill="#1A2E35"/>
<path d="M204.164 222.247C203.716 194.624 203.392 156.683 203.382 156.84C203.382 156.84 179.72 152.895 174.819 121.913C172.379 106.511 173.15 81.2517 174.454 60.6072C175.622 42.0241 187.886 19.2138 206.343 21.1809L263.97 35.8298C266.675 36.115 269.175 37.4085 270.974 39.4547C272.774 41.5009 273.743 44.1507 273.689 46.8793L269.935 166.487" fill="#FFD2BE"/>
<path d="M188.522 82.612C188.501 83.6411 188.881 84.6377 189.579 85.3914C190.278 86.145 191.241 86.5966 192.265 86.6508C192.766 86.6965 193.27 86.6415 193.749 86.4885C194.228 86.3356 194.672 86.0879 195.054 85.7602C195.436 85.4326 195.748 85.0314 195.973 84.5805C196.198 84.1297 196.331 83.6383 196.364 83.1352C196.389 82.1057 196.012 81.1072 195.312 80.354C194.612 79.6008 193.645 79.1529 192.62 79.1066C192.12 79.0594 191.616 79.1132 191.137 79.265C190.658 79.4168 190.215 79.6634 189.833 79.9902C189.45 80.3171 189.138 80.7176 188.912 81.1679C188.687 81.6182 188.554 82.1092 188.522 82.612Z" fill="#1A2E35"/>
<path d="M231.277 82.6224C231.254 83.6512 231.632 84.6481 232.332 85.4007C233.031 86.1533 233.996 86.6018 235.021 86.6507C235.521 86.6965 236.026 86.6414 236.504 86.4885C236.983 86.3355 237.427 86.0878 237.809 85.7602C238.191 85.4325 238.503 85.0313 238.728 84.5805C238.953 84.1296 239.086 83.6383 239.119 83.1351C239.145 82.1056 238.767 81.1071 238.067 80.354C237.367 79.6008 236.4 79.1528 235.375 79.1066C234.874 79.0593 234.369 79.1136 233.89 79.266C233.411 79.4184 232.966 79.6658 232.584 79.9938C232.202 80.3217 231.889 80.7235 231.665 81.175C231.44 81.6265 231.308 82.1188 231.277 82.6224Z" fill="#1A2E35"/>
<path d="M205.686 104.554C205.686 104.303 203.058 103.853 198.772 103.298C197.729 103.183 196.687 102.963 196.468 102.252C196.249 101.54 196.666 100.285 197.198 99.0186C198.24 96.3818 199.283 93.609 200.41 90.7106C204.883 78.866 208.116 69.1349 207.636 68.957C207.157 68.7791 203.152 78.238 198.689 90.0722C197.646 92.9916 196.603 95.7748 195.56 98.443C195.143 99.6882 194.445 101.09 194.997 102.733C195.155 103.116 195.398 103.459 195.707 103.734C196.016 104.01 196.383 104.211 196.781 104.324C197.386 104.487 198.01 104.575 198.637 104.585C202.996 104.826 205.676 104.826 205.686 104.554Z" fill="#1A2E35"/>
<path d="M203.288 156.966C217.826 157.185 232.139 153.353 244.635 145.895C244.635 145.895 234.207 167.45 203.288 164.552V156.966Z" fill="#E09074"/>
<path d="M267.775 85.9289C268.224 85.7092 284.304 78.6044 284.461 97.1248C284.617 115.645 266.044 112.035 266.013 111.502C265.982 110.968 267.775 85.9289 267.775 85.9289Z" fill="#FFD2BE"/>
<path d="M271.592 104.418C271.676 104.355 271.926 104.638 272.468 104.889C273.241 105.199 274.104 105.199 274.877 104.889C276.817 104.146 278.433 101.017 278.485 97.6792C278.52 96.089 278.195 94.5116 277.536 93.0649C277.358 92.4875 277.043 91.9622 276.618 91.534C276.193 91.1057 275.671 90.7871 275.096 90.6059C274.724 90.5119 274.33 90.5516 273.984 90.7178C273.637 90.884 273.359 91.1664 273.198 91.5163C272.958 92.029 273.083 92.4056 272.979 92.437C272.875 92.4684 272.583 92.1231 272.729 91.3906C272.827 90.9312 273.077 90.5185 273.438 90.2189C273.943 89.8302 274.579 89.6539 275.211 89.7271C275.972 89.8706 276.685 90.2075 277.28 90.7058C277.875 91.204 278.333 91.8469 278.61 92.5732C279.413 94.1713 279.814 95.9422 279.778 97.7316C279.695 101.467 277.828 104.983 275.159 105.788C274.664 105.938 274.142 105.974 273.631 105.894C273.121 105.814 272.634 105.621 272.208 105.328C271.634 104.826 271.53 104.449 271.592 104.418Z" fill="#E09074"/>
<path d="M206.948 116.461C207.495 118.07 208.267 119.592 209.242 120.981C209.737 121.672 210.372 122.249 211.106 122.675C211.839 123.1 212.654 123.365 213.497 123.451C214.4 123.455 215.29 123.23 216.083 122.797C216.877 122.363 217.547 121.735 218.033 120.971C218.991 119.422 219.433 117.609 219.295 115.792C219.222 114.159 218.482 112.213 216.865 112.025C216.183 112.001 215.506 112.149 214.895 112.454L206.396 115.917" fill="#E09074"/>
<path d="M210.348 123.514C210.348 123.252 212.256 124.006 214.874 122.959C216.364 122.374 217.586 121.256 218.305 119.82C218.711 118.95 218.931 118.005 218.951 117.044C218.971 116.083 218.79 115.129 218.419 114.243C218.225 113.789 217.976 113.36 217.679 112.967C217.335 112.611 217.397 112.632 217.032 112.684C216.667 112.736 216.125 113.04 215.666 113.218L214.279 113.793C212.454 114.526 210.807 115.174 209.42 115.697C206.636 116.744 204.873 117.288 204.79 117.089C204.706 116.89 206.323 116.043 208.961 114.703C210.306 114.055 211.902 113.312 213.695 112.496L215.072 111.878C215.578 111.637 216.096 111.424 216.626 111.24C217.036 111.105 217.478 111.105 217.888 111.24C218.257 111.405 218.58 111.661 218.826 111.983C219.208 112.483 219.526 113.027 219.775 113.605C220.238 114.69 220.454 115.866 220.409 117.046C220.364 118.225 220.058 119.38 219.514 120.427C218.594 122.118 217.047 123.378 215.207 123.932C214.013 124.316 212.736 124.363 211.516 124.068C210.703 123.89 210.306 123.598 210.348 123.514Z" fill="#1A2E35"/>
<path d="M288.486 73.2368C286.588 73.1008 271.321 75.0784 272.521 103.581C273.647 130.169 292.24 124.32 298.174 114.306C303.795 104.826 307.049 74.5343 288.486 73.2368Z" fill="#375A64"/>
<path d="M297.924 76.5745C297.867 76.3275 297.843 76.0744 297.851 75.8212C297.851 75.2666 297.799 74.555 297.757 73.6552C297.705 71.688 297.632 68.9571 297.538 65.546C297.392 58.5564 297.204 48.8045 296.975 37.619L297.319 37.9539H289.446L289.8 37.5981C289.852 39.6907 289.915 41.9509 289.977 44.2215C290.238 54.9047 290.488 64.8554 290.697 73.1844V73.4355H290.468C287.242 74.1872 284.376 76.0357 282.354 78.6672C280.831 80.7198 279.732 83.0571 279.122 85.5418C278.705 87.1366 278.426 88.7644 278.287 90.4072C278.287 90.9722 278.204 91.4536 278.194 91.7047C278.204 91.8545 278.204 92.0048 278.194 92.1545C278.165 92.0059 278.165 91.8533 278.194 91.7047C278.194 91.4117 278.194 90.9618 278.194 90.3967C278.263 88.732 278.494 87.0781 278.882 85.458C279.45 82.9039 280.532 80.4933 282.062 78.3742C284.119 75.6155 287.068 73.6619 290.405 72.8495L290.175 73.1529C289.946 64.7822 289.654 54.8733 289.352 44.1901C289.289 41.9195 289.237 39.6803 289.174 37.5666V37.2006H297.746V37.5352C297.861 48.7521 297.976 58.4621 298.049 65.4622C298.049 68.8733 298.049 71.6147 298.049 73.5819C298.049 74.4817 298.049 75.1933 298.049 75.7479C298.037 76.0271 297.995 76.3044 297.924 76.5745Z" fill="#375A64"/>
<path d="M288.476 37.6401C288.476 37.6401 280.498 18.8895 261.467 9.6398C254.197 5.99767 246.558 3.15249 238.681 1.15381C238.681 1.15381 249.777 -1.48285 267.744 6.53218C275.899 10.1735 284.127 14.903 289.56 22.0287C293.012 26.5489 297.329 35.3695 297.319 37.6401H288.476Z" fill="#375A64"/>
<path d="M286.453 122.237C286.265 122.215 286.081 122.162 285.91 122.08C285.417 121.88 284.942 121.634 284.492 121.348C282.842 120.255 281.473 118.784 280.498 117.058C279.09 114.476 278.251 111.622 278.037 108.687C277.729 105.147 277.729 101.586 278.037 98.0456C278.335 94.5156 278.921 91.016 279.789 87.5821C280.415 84.736 281.444 81.9946 282.845 79.4415C283.832 77.7228 285.212 76.2633 286.87 75.1828C287.322 74.896 287.8 74.6543 288.299 74.4609C288.466 74.3802 288.646 74.3307 288.83 74.3145C288.83 74.3773 288.132 74.6282 287.026 75.413C285.48 76.5461 284.202 78.0073 283.283 79.6926C281.97 82.2345 281.012 84.9455 280.436 87.7495C279.603 91.1633 279.038 94.6375 278.746 98.1399C278.46 101.639 278.46 105.156 278.746 108.655C278.921 111.503 279.684 114.282 280.988 116.817C281.892 118.509 283.161 119.978 284.701 121.118C285.754 121.913 286.484 122.174 286.453 122.237Z" fill="#1A2E35"/>
<path d="M226.875 117.715L208.681 121.297C207.72 121.486 207.094 122.42 207.283 123.385L208.202 128.087C208.391 129.051 209.322 129.679 210.283 129.49L228.478 125.909C229.438 125.719 230.065 124.785 229.876 123.821L228.957 119.118C228.768 118.154 227.836 117.526 226.875 117.715Z" fill="#375A64"/>
<path d="M227.638 120.092L292.512 99.6676C293.283 99.4247 294.119 99.4987 294.837 99.8733C295.554 100.248 296.094 100.893 296.339 101.666C296.466 102.059 296.513 102.473 296.477 102.885C296.44 103.296 296.321 103.696 296.126 104.06C295.931 104.424 295.664 104.744 295.342 105.002C295.021 105.259 294.65 105.449 294.253 105.558L227.919 123.545L227.638 120.092Z" fill="#375A64"/>
<path d="M275.586 111.104C276.28 110.792 276.998 110.54 277.735 110.351L283.668 108.53C286.161 107.766 289.216 106.95 292.449 105.883C293.226 105.596 293.937 105.151 294.534 104.575C295.119 103.964 295.447 103.151 295.452 102.304C295.449 101.892 295.318 101.49 295.077 101.157C294.836 100.823 294.497 100.573 294.107 100.442C293.212 100.22 292.274 100.249 291.395 100.525L271.947 106.803L266.024 108.645C265.308 108.901 264.572 109.094 263.823 109.22C264.495 108.886 265.192 108.606 265.909 108.383L271.759 106.291C276.723 104.606 283.533 102.262 291.197 99.8034C292.213 99.4875 293.298 99.4656 294.326 99.7405C294.849 99.9235 295.302 100.264 295.625 100.715C295.948 101.167 296.124 101.707 296.13 102.262C296.126 103.295 295.722 104.286 295.004 105.025C294.321 105.669 293.511 106.161 292.626 106.469C289.279 107.515 286.286 108.268 283.752 108.99L277.755 110.581C277.049 110.818 276.323 110.993 275.586 111.104Z" fill="#1A2E35"/>
<path d="M241.549 73.5193C241.049 74.3041 236.606 71.8764 231.121 72.8705C225.636 73.8645 222.226 77.579 221.496 77.0035C221.141 76.7628 221.496 75.3922 222.987 73.7181C224.996 71.5545 227.655 70.1102 230.558 69.6058C233.462 69.1013 236.45 69.5644 239.067 70.9244C240.986 72.0022 241.789 73.174 241.549 73.5193Z" fill="#E09074"/>
<path d="M240.912 74.2204C239.886 74.0271 238.872 73.7685 237.878 73.4461C235.475 72.8814 232.976 72.8705 230.568 73.4142C228.161 73.9578 225.907 75.042 223.977 76.5851C222.486 77.757 221.704 78.6777 221.568 78.5836C221.433 78.4894 222.027 77.3907 223.477 75.9886C225.387 74.1686 227.753 72.9013 230.323 72.3211C232.894 71.7408 235.573 71.8693 238.076 72.6927C239.984 73.331 240.985 74.1053 240.912 74.2204Z" fill="#1A2E35"/>
<path d="M243.791 61.7583C243.342 63.2545 238.629 63.1393 233.018 63.4113C227.408 63.6834 222.663 64.0079 222.131 62.5535C221.892 61.842 222.851 60.7641 224.78 59.7805C227.294 58.5994 230.025 57.9545 232.799 57.8866C235.579 57.7359 238.358 58.1781 240.954 59.184C242.915 60.0107 243.958 61.0363 243.791 61.7583Z" fill="#1A2E35"/>
<path d="M197.239 76.7838C196.812 77.0245 195.978 76.2293 194.643 75.3085C192.965 74.1322 191.043 73.3524 189.022 73.0276C184.236 72.2323 180.398 74.4609 179.845 73.6762C179.585 73.3413 180.231 72.2428 181.931 71.186C184.22 69.8418 186.903 69.3351 189.523 69.7524C192.195 70.1224 194.621 71.5176 196.29 73.6448C197.49 75.3084 197.604 76.5745 197.239 76.7838Z" fill="#E09074"/>
<path d="M197.761 79.0961C197.605 79.1903 196.895 78.1231 195.404 76.7942C193.477 75.0551 191.131 73.8509 188.598 73.3003C186.065 72.7498 183.433 72.872 180.961 73.6552C179.042 74.2306 177.958 74.9004 177.833 74.7539C177.708 74.6074 178.709 73.7075 180.669 72.9123C183.249 71.8626 186.084 71.6187 188.805 72.2123C191.525 72.806 194.003 74.2096 195.915 76.2396C197.386 77.7987 197.907 79.0333 197.761 79.0961Z" fill="#1A2E35"/>
<path d="M249.506 19.695C246.169 24.7384 242.78 29.876 241.059 35.6832C239.338 41.4904 239.474 48.1454 242.863 53.1574C246.117 57.9497 251.696 60.4818 256.764 63.2441C261.832 66.0065 267.036 69.8361 268.298 75.4968C268.694 77.2651 267.932 83.4491 269.257 84.6838C271.082 86.3789 274.273 85.3324 275.649 83.2711C277.026 81.2098 277.923 74.3982 277.965 71.9079L278.288 48.7626C278.382 42.2229 278.288 35.4427 275.472 29.5518C271.52 21.317 263.344 18.6801 251.404 19.2661" fill="#1A2E35"/>
<path d="M173.714 66.111C174.621 58.237 177.649 50.7599 182.473 44.483C187.354 38.2028 194.392 33.9723 202.214 32.6173C210.004 31.435 217.856 33.601 225.729 34.0509C233.603 34.5009 242.55 32.565 246.648 25.8265C247.931 23.7338 248.536 20.7831 246.899 18.9415C246.238 18.2879 245.455 17.7722 244.594 17.4243C234.154 12.3289 222.451 10.4293 210.942 11.9624C199.534 13.6575 188.626 19.4439 181.462 28.5053C174.298 37.5666 171.169 49.9344 173.985 61.1513" fill="#1A2E35"/>
<path d="M169.01 54.5174C168.833 54.1907 168.709 53.8373 168.645 53.471C168.349 52.4831 168.14 51.4715 168.019 50.4472C167.544 46.6663 167.9 42.827 169.062 39.1989C170.779 33.7773 173.998 28.9578 178.343 25.3034C183.69 20.8865 190.123 17.9951 196.968 16.9326C203.775 15.894 210.72 16.2067 217.407 17.8533C220.311 18.5414 223.171 19.4082 225.969 20.4484C228.607 21.4216 230.964 22.5409 233.217 23.0955C237.763 24.0372 241.653 24.6129 244.187 24.0792C245.511 23.8005 246.745 23.1922 247.774 22.3107C247.591 22.6217 247.35 22.8951 247.065 23.1164C246.26 23.7925 245.305 24.2661 244.281 24.4977C241.601 25.1778 237.732 24.728 233.018 23.8491C230.672 23.2736 228.273 22.2271 225.719 21.3063C222.939 20.3204 220.105 19.4995 217.23 18.8475C210.667 17.2883 203.866 17.0077 197.197 18.0208C190.544 19.0659 184.285 21.8562 179.052 26.1091C174.809 29.6194 171.624 34.2463 169.855 39.471C168.651 42.9927 168.186 46.7261 168.489 50.4367C168.708 53.0735 169.114 54.4964 169.01 54.5174Z" fill="#375A64"/>
<path d="M203.121 5.79974C203.743 5.57275 204.398 5.44552 205.06 5.42294C206.857 5.24574 208.666 5.24574 210.462 5.42294C216.449 6.00262 222.144 8.29015 226.876 12.015C229.619 14.2019 231.902 16.5665 234.322 18.2198C236.489 19.6471 238.917 20.6287 241.465 21.1077C243.174 21.5019 244.933 21.6221 246.679 21.4635C247.91 21.3066 248.536 20.9821 248.577 21.0658C248.062 21.5119 247.427 21.7958 246.752 21.882C244.961 22.2275 243.121 22.2275 241.329 21.882C238.64 21.4937 236.063 20.538 233.769 19.0778C231.204 17.3932 228.868 15.0178 226.209 12.8938C221.616 9.29739 216.153 6.9933 210.379 6.21818C205.978 5.59037 203.173 6.00901 203.121 5.79974Z" fill="#375A64"/>
<path d="M296.62 62.679C296.526 62.679 296.193 61.936 295.306 60.7537C293.992 59.1178 292.308 57.8195 290.395 56.966C287.559 55.6979 284.478 55.0762 281.374 55.1454C277.534 55.357 273.718 55.889 269.966 56.7358C266.13 57.5771 262.195 57.8763 258.276 57.6251C255.074 57.3396 251.932 56.578 248.953 55.3651C246.951 54.558 245.045 53.5298 243.27 52.2993C242.59 51.8959 241.977 51.3874 241.455 50.7927C241.57 50.6043 244.208 52.7597 249.234 54.6327C252.169 55.7164 255.24 56.3786 258.359 56.5997C262.187 56.7921 266.024 56.472 269.768 55.6476C273.579 54.7919 277.461 54.2841 281.364 54.1304C284.612 54.0886 287.825 54.805 290.749 56.2231C292.72 57.1678 294.413 58.61 295.661 60.4085C295.982 60.9062 296.251 61.4356 296.464 61.9885C296.6 62.4594 296.662 62.6581 296.62 62.679Z" fill="#375A64"/>
<path d="M293.273 47.8001C293.189 47.8001 292.866 47.0781 291.959 45.9375C290.628 44.3841 288.933 43.1867 287.026 42.4531C284.179 41.3992 281.115 41.0721 278.11 41.501C274.679 41.8359 270.988 42.8717 266.994 43.5937C263 44.3157 258.943 44.5355 255.523 43.4159C252.477 42.4669 249.724 40.7524 247.524 38.4353C246.04 36.9224 244.846 35.1492 244 33.2036C243.769 32.6765 243.584 32.1303 243.447 31.5712C243.342 31.184 243.311 30.9852 243.343 30.9747C243.572 30.8387 244.323 34.2499 248.067 37.9331C250.239 40.0566 252.895 41.6154 255.804 42.4741C259.068 43.5204 262.906 43.2798 266.827 42.5474C270.748 41.8149 274.492 40.7895 278.037 40.4547C281.2 40.0593 284.411 40.4881 287.36 41.6998C289.347 42.5369 291.068 43.905 292.334 45.655C292.819 46.2811 293.142 47.0182 293.273 47.8001Z" fill="#375A64"/>
<path d="M213.956 260.167C214.081 260.05 214.213 259.942 214.352 259.842C214.613 259.623 215.02 259.33 215.531 258.911C217.036 257.679 218.474 256.365 219.838 254.977C222.007 252.75 224.035 250.388 225.907 247.904C228.139 245.005 230.506 241.542 233.113 237.67C238.327 229.927 244.417 220.51 250.841 209.649C254.084 204.219 257.421 198.432 260.789 192.311L263.323 187.665C264.146 186.041 265.116 184.496 266.222 183.051C267.384 181.564 268.937 180.433 270.706 179.786C271.612 179.421 272.6 179.309 273.564 179.462C274.082 179.577 274.556 179.838 274.93 180.215C275.281 180.61 275.531 181.084 275.66 181.597V181.701V181.806C275.434 182.453 275.079 183.048 274.617 183.553C274.133 184.076 273.47 184.397 272.761 184.453C271.429 184.451 270.137 184.002 269.09 183.176C267.961 182.396 267.118 181.264 266.692 179.956C266.266 178.648 266.281 177.235 266.733 175.936C267.207 174.601 268.174 173.499 269.434 172.86C270.665 172.216 272.079 172.016 273.439 172.294C274.15 172.405 274.823 172.695 275.392 173.138C275.961 173.581 276.409 174.162 276.692 174.827C276.834 175.209 276.866 175.625 276.783 176.025C276.7 176.425 276.506 176.793 276.223 177.087C275.698 177.603 275.041 177.965 274.325 178.133C273.115 178.418 271.846 178.293 270.714 177.778C269.582 177.264 268.652 176.388 268.068 175.287C267.502 174.157 267.372 172.856 267.703 171.635C268.018 170.447 268.675 169.377 269.591 168.559C270.496 167.735 271.674 167.277 272.896 167.272C273.51 167.283 274.113 167.439 274.656 167.726C275.2 168.013 275.668 168.424 276.025 168.925C276.385 169.478 276.523 170.147 276.411 170.798C276.352 171.121 276.23 171.43 276.051 171.705C275.872 171.98 275.639 172.216 275.368 172.399C274.87 172.742 274.299 172.96 273.7 173.036C273.102 173.113 272.494 173.045 271.926 172.839C271.384 172.594 270.898 172.239 270.499 171.796C270.1 171.353 269.798 170.831 269.611 170.265C269.233 169.187 269.056 168.048 269.09 166.906C269.034 164.66 269.613 162.443 270.759 160.513C271.376 159.549 272.315 158.837 273.407 158.504C273.952 158.384 274.516 158.373 275.065 158.472C275.614 158.57 276.139 158.777 276.609 159.079C277.116 159.362 277.535 159.781 277.819 160.289C278.102 160.797 278.239 161.375 278.215 161.957C278.149 162.529 277.915 163.068 277.544 163.508C277.173 163.947 276.681 164.267 276.129 164.426C275.605 164.603 275.047 164.649 274.501 164.559C273.956 164.47 273.441 164.248 273.001 163.913C272.164 163.23 271.607 162.262 271.436 161.193C271.256 160.141 271.346 159.061 271.697 158.054C271.947 157.089 272.296 156.152 272.74 155.26C273.175 154.342 273.867 153.571 274.732 153.042C275.565 152.529 276.502 152.21 277.474 152.11C277.98 152.038 278.496 152.107 278.966 152.309C279.41 152.548 279.793 152.888 280.081 153.303C280.378 153.706 280.587 154.165 280.697 154.653C280.838 155.173 280.775 155.728 280.519 156.202C280.244 156.626 279.845 156.955 279.376 157.142C278.908 157.329 278.392 157.367 277.902 157.248C276.988 157.091 276.146 156.652 275.493 155.992C274.223 154.718 273.479 153.011 273.407 151.211C273.274 149.485 273.73 147.765 274.7 146.335C275.164 145.642 275.777 145.063 276.494 144.64C277.199 144.241 277.99 144.022 278.799 144.001C279.605 143.952 280.402 144.19 281.051 144.671C281.374 144.924 281.631 145.253 281.798 145.629C281.965 146.005 282.038 146.416 282.01 146.826C281.896 147.587 281.536 148.289 280.986 148.826C280.436 149.363 279.727 149.704 278.966 149.798C278.261 149.833 277.56 149.667 276.946 149.319C276.331 148.971 275.827 148.455 275.493 147.831C274.817 146.698 274.514 145.38 274.627 144.064C274.888 141.511 276.171 139.512 276.932 137.587L279.237 132.355L282.459 125.031L283.314 123.148C283.406 122.929 283.511 122.716 283.627 122.509C283.627 122.509 283.554 122.739 283.377 123.179C283.199 123.618 282.928 124.225 282.584 125.083C281.865 126.789 280.832 129.269 279.456 132.408C278.778 133.998 278.017 135.756 277.203 137.692C276.39 139.627 275.201 141.657 274.982 144.054C274.889 145.281 275.181 146.506 275.816 147.559C276.11 148.109 276.553 148.565 277.093 148.874C277.634 149.183 278.25 149.333 278.872 149.306C279.522 149.219 280.127 148.925 280.598 148.467C281.069 148.01 281.381 147.413 281.489 146.764C281.503 146.434 281.44 146.107 281.304 145.806C281.168 145.506 280.964 145.243 280.707 145.037C280.145 144.629 279.459 144.433 278.767 144.482C278.035 144.507 277.32 144.708 276.682 145.068C276.039 145.463 275.488 145.991 275.065 146.617C274.175 147.947 273.76 149.54 273.887 151.137C273.957 152.791 274.641 154.359 275.806 155.532C276.379 156.085 277.107 156.45 277.891 156.578C278.261 156.677 278.652 156.659 279.012 156.528C279.372 156.397 279.683 156.159 279.904 155.846C280.043 155.472 280.079 155.068 280.007 154.675C279.936 154.283 279.76 153.917 279.497 153.617C279.265 153.282 278.957 153.007 278.6 152.812C278.228 152.658 277.82 152.611 277.422 152.675C276.533 152.743 275.676 153.038 274.933 153.533C274.19 154.027 273.585 154.705 273.178 155.501C272.757 156.352 272.428 157.247 272.198 158.169C271.884 159.057 271.798 160.011 271.947 160.942C272.09 161.855 272.566 162.683 273.282 163.265C273.639 163.531 274.055 163.707 274.495 163.776C274.935 163.845 275.385 163.806 275.806 163.662C276.236 163.551 276.623 163.311 276.916 162.975C277.208 162.639 277.392 162.222 277.443 161.779C277.45 161.324 277.333 160.877 277.105 160.484C276.877 160.092 276.547 159.769 276.15 159.55C275.352 159.039 274.386 158.863 273.459 159.058C272.529 159.355 271.732 159.97 271.207 160.795C270.146 162.61 269.615 164.687 269.674 166.791C269.642 167.858 269.805 168.921 270.154 169.93C270.307 170.401 270.556 170.836 270.884 171.207C271.213 171.578 271.614 171.877 272.062 172.085C272.523 172.251 273.015 172.306 273.5 172.246C273.986 172.186 274.45 172.013 274.857 171.74C275.05 171.607 275.215 171.437 275.343 171.239C275.471 171.042 275.558 170.822 275.601 170.59C275.643 170.359 275.64 170.121 275.591 169.891C275.542 169.661 275.449 169.443 275.316 169.25C275.02 168.847 274.636 168.518 274.193 168.289C273.749 168.06 273.259 167.938 272.761 167.931C271.718 167.94 270.715 168.335 269.945 169.04C269.081 169.704 268.473 170.647 268.225 171.71C267.976 172.772 268.103 173.889 268.582 174.868C269.062 175.848 269.865 176.631 270.855 177.083C271.845 177.535 272.961 177.629 274.012 177.348C274.596 177.215 275.133 176.926 275.566 176.511C275.756 176.318 275.886 176.075 275.941 175.809C275.997 175.544 275.975 175.268 275.879 175.015C275.634 174.465 275.255 173.986 274.778 173.62C274.301 173.255 273.74 173.015 273.146 172.922C271.953 172.657 270.704 172.828 269.624 173.403C268.545 173.978 267.704 174.921 267.255 176.061C266.846 177.21 266.83 178.462 267.207 179.621C267.585 180.78 268.335 181.78 269.34 182.465C270.26 183.191 271.392 183.596 272.563 183.616C273.112 183.53 273.622 183.277 274.025 182.892C274.427 182.506 274.703 182.007 274.815 181.461V181.67C274.736 181.278 274.547 180.917 274.27 180.629C273.992 180.342 273.639 180.14 273.251 180.048C272.41 179.919 271.55 180.017 270.759 180.33C269.111 180.937 267.666 181.996 266.587 183.386C265.506 184.793 264.559 186.299 263.761 187.885L261.206 192.531C257.821 198.642 254.487 204.417 251.206 209.858C244.699 220.709 238.556 230.105 233.29 237.817C230.662 241.678 228.253 245.141 225.99 248.008C224.089 250.486 222.027 252.835 219.817 255.04C218.049 256.952 216.085 258.671 213.956 260.167Z" fill="#1A2E35"/>
<path d="M180.273 64.8554C180.273 64.8554 190.899 56.3275 201.129 64.4263C201.098 64.4263 192.38 46.513 180.273 64.8554Z" fill="#1A2E35"/>
<path d="M243.353 290.186C243.677 290.029 243.955 289.79 244.16 289.493C244.364 289.196 244.489 288.851 244.521 288.492L245.043 282.925C245.075 282.587 245.025 282.245 244.897 281.931L239.797 284.317C239.97 284.72 239.999 285.171 239.877 285.593C239.755 286.015 239.491 286.381 239.13 286.629C238.882 286.797 238.594 286.898 238.296 286.922L237.785 292.708C238.024 292.695 238.257 292.635 238.473 292.53L243.385 290.176L243.353 290.186Z" fill="#1A2E35"/>
<path d="M239.286 285.331C239.352 285.014 239.292 284.684 239.119 284.411C239.039 284.277 238.931 284.161 238.804 284.071C238.676 283.981 238.532 283.918 238.379 283.887C238.225 283.856 238.067 283.855 237.913 283.885C237.759 283.915 237.613 283.976 237.483 284.064C237.353 284.152 237.241 284.264 237.155 284.396C237.069 284.527 237.01 284.675 236.981 284.829C236.912 285.141 236.967 285.468 237.135 285.74C237.302 286.011 237.569 286.206 237.878 286.284H238.014H238.087C238.328 286.292 238.566 286.222 238.765 286.085C239.034 285.906 239.221 285.628 239.286 285.31V285.331Z" fill="#1A2E35"/>
<path d="M236.387 284.704C236.432 284.467 236.524 284.241 236.656 284.04C236.789 283.839 236.959 283.667 237.158 283.532C237.355 283.398 237.576 283.305 237.809 283.26C238.043 283.215 238.282 283.219 238.514 283.27C238.872 283.352 239.196 283.542 239.442 283.814L239.547 283.741L244.573 281.387C244.464 281.259 244.342 281.143 244.208 281.041L239.818 277.819C239.534 277.609 239.199 277.48 238.848 277.447C238.497 277.414 238.144 277.477 237.826 277.63L232.904 279.974C232.582 280.133 232.306 280.372 232.103 280.669C231.901 280.966 231.778 281.311 231.746 281.669L231.225 287.246C231.191 287.603 231.249 287.963 231.393 288.291C231.537 288.619 231.763 288.904 232.049 289.119L236.449 292.352C236.658 292.506 236.896 292.617 237.148 292.677L237.659 286.87C237.213 286.737 236.833 286.44 236.597 286.038C236.361 285.636 236.286 285.159 236.387 284.704Z" fill="#1A2E35"/>
<path d="M243.301 295.983C243.495 295.849 243.715 295.756 243.946 295.711C244.178 295.666 244.416 295.67 244.646 295.722C244.878 295.771 245.097 295.867 245.29 296.004C245.484 296.14 245.648 296.315 245.772 296.517C245.879 296.692 245.956 296.882 246.002 297.082L250.475 294.989C250.402 294.905 250.318 294.831 250.225 294.77L245.835 291.536C245.55 291.328 245.215 291.201 244.865 291.168C244.514 291.135 244.161 291.197 243.843 291.348L238.921 293.702C238.783 293.766 238.653 293.847 238.535 293.943L242.623 296.789C242.765 296.456 243 296.173 243.301 295.973V295.983Z" fill="#1A2E35"/>
<path d="M244.01 298.725C244.164 298.757 244.323 298.758 244.478 298.728C244.632 298.697 244.779 298.637 244.91 298.549C245.041 298.461 245.153 298.349 245.24 298.217C245.328 298.086 245.388 297.938 245.418 297.783C245.482 297.467 245.426 297.139 245.261 296.862C245.178 296.729 245.068 296.614 244.939 296.524C244.81 296.434 244.664 296.371 244.51 296.339H244.375C244.111 296.313 243.845 296.379 243.624 296.527C243.428 296.661 243.274 296.848 243.182 297.067C243.089 297.286 243.062 297.527 243.102 297.762C243.143 297.996 243.25 298.214 243.411 298.388C243.572 298.563 243.78 298.687 244.01 298.746V298.725Z" fill="#1A2E35"/>
<path d="M251.226 287.759C251.162 287.705 251.103 287.645 251.049 287.581L246.148 289.946C246.295 290.222 246.502 290.462 246.753 290.647L251.143 293.88C251.261 293.962 251.387 294.032 251.518 294.089L252.04 288.188C251.735 288.122 251.453 287.974 251.226 287.759Z" fill="#1A2E35"/>
<path d="M253.594 286.273C253.584 286.115 253.543 285.961 253.473 285.819C253.403 285.677 253.306 285.551 253.187 285.447C253 285.276 252.761 285.173 252.509 285.154H252.332C252.177 285.165 252.026 285.208 251.887 285.28C251.749 285.352 251.627 285.451 251.529 285.572C251.325 285.821 251.224 286.139 251.247 286.46C251.271 286.782 251.416 287.082 251.654 287.298C251.77 287.402 251.905 287.481 252.052 287.529C252.199 287.578 252.355 287.595 252.509 287.581C252.819 287.539 253.101 287.379 253.295 287.133C253.49 286.887 253.582 286.575 253.552 286.263L253.594 286.273Z" fill="#1A2E35"/>
<path d="M258.912 282.569L254.511 279.346C254.228 279.136 253.892 279.008 253.541 278.975C253.191 278.941 252.837 279.005 252.52 279.158L247.608 281.502C247.284 281.659 247.006 281.898 246.801 282.195C246.597 282.492 246.472 282.837 246.44 283.197L245.918 288.774C245.898 288.965 245.898 289.158 245.918 289.35L250.715 287.037C250.651 286.862 250.613 286.679 250.601 286.493C250.575 286.001 250.739 285.517 251.059 285.143C251.213 284.963 251.401 284.815 251.612 284.709C251.824 284.603 252.054 284.541 252.29 284.526C252.528 284.514 252.765 284.551 252.989 284.632C253.213 284.713 253.419 284.838 253.594 285C253.77 285.161 253.912 285.356 254.012 285.573C254.112 285.79 254.168 286.024 254.177 286.263C254.206 286.723 254.063 287.178 253.776 287.538C253.489 287.898 253.078 288.137 252.624 288.209L252.134 294.215C252.491 294.247 252.85 294.185 253.176 294.037L258.098 291.683C258.42 291.524 258.696 291.284 258.899 290.988C259.102 290.691 259.225 290.346 259.256 289.988L259.778 284.421C259.813 284.062 259.756 283.701 259.612 283.371C259.468 283.041 259.241 282.754 258.954 282.538L258.912 282.569Z" fill="#1A2E35"/>
<path d="M250.789 295.544L246.033 297.762C246.038 297.814 246.038 297.867 246.033 297.919C245.95 298.355 245.709 298.745 245.357 299.013C245.004 299.281 244.566 299.41 244.125 299.373C244.052 299.384 243.979 299.384 243.906 299.373C243.675 299.324 243.455 299.228 243.262 299.092C243.068 298.955 242.904 298.78 242.78 298.578C242.588 298.264 242.49 297.9 242.498 297.532L238.129 294.498C237.933 294.791 237.815 295.129 237.785 295.481L237.263 301.048C237.228 301.407 237.287 301.77 237.433 302.1C237.579 302.43 237.808 302.716 238.097 302.931L242.488 306.154C242.771 306.364 243.107 306.492 243.457 306.525C243.808 306.559 244.162 306.495 244.479 306.342L249.402 303.998C249.723 303.84 249.999 303.6 250.202 303.303C250.405 303.006 250.528 302.662 250.559 302.303L251.081 296.726C251.116 296.333 251.04 295.938 250.862 295.586H250.809L250.789 295.544Z" fill="#1A2E35"/>
</g>
<defs>
<clipPath id="clip0_131_272">
<rect width="348" height="398.68" fill="white" transform="translate(0 0.320374)"/>
</clipPath>
</defs>
</svg>
