<svg width="87" height="53" viewBox="0 0 87 53" fill="none" xmlns="http://www.w3.org/2000/svg">
<path d="M43.4912 52.4855H25.105C24.777 52.4872 24.4523 52.4192 24.1519 52.2861C23.8516 52.1529 23.5825 51.9576 23.3618 51.7127C23.1412 51.4678 22.9739 51.1788 22.8711 50.8645C22.7683 50.5502 22.7321 50.2176 22.7649 49.8883C22.865 44.5605 24.9802 39.473 28.6772 35.6677C32.3742 31.8625 37.3732 29.6275 42.6503 29.4206C47.9275 29.2136 53.0834 31.0504 57.0619 34.5546C61.0405 38.0588 63.5406 42.9653 64.0502 48.2692C64.1001 48.8415 64.1001 49.4171 64.0502 49.9894C64.0683 50.2996 64.0255 50.6103 63.9243 50.9038C63.8231 51.1973 63.6655 51.4677 63.4605 51.6996C63.2556 51.9315 63.0073 52.1203 62.7299 52.2551C62.4524 52.39 62.1513 52.4683 61.8438 52.4855H43.4912ZM41.1177 46.6501C40.9171 47.7969 41.5857 47.8644 42.3546 47.8307H44.0595C48.3719 47.8307 52.6843 47.8307 56.9967 47.8307C59.7379 47.8307 59.6375 48.2692 58.8352 45.4358C57.7966 41.975 55.6419 38.9635 52.7133 36.8794C49.7847 34.7953 46.25 33.7581 42.6704 33.9325C39.0909 34.1069 35.6716 35.4829 32.9556 37.842C30.2396 40.201 28.3824 43.408 27.679 46.9537C27.679 47.5946 27.6791 47.8644 28.3811 47.8644H37.5742C38.0088 47.8644 38.5102 47.8644 38.5102 47.2235C38.7108 47.2235 38.5101 47.6958 38.8444 47.6958C39.1787 47.6958 38.8445 47.1561 39.1454 46.8188C38.9782 47.7969 39.4797 47.8644 40.1817 47.8981C40.8837 47.9319 40.9839 47.2573 41.0508 46.5827L41.1177 46.6501Z" fill="#1A2E35"/>
<path d="M56.1617 12.9188C56.1749 14.6077 55.8572 16.2826 55.2268 17.8472C54.5964 19.4118 53.6658 20.8352 52.4884 22.0357C51.311 23.2363 49.9101 24.1902 48.3662 24.8426C46.8222 25.4951 45.1658 25.8332 43.4919 25.8376C40.9596 25.8376 38.4842 25.0799 36.3787 23.6604C34.2732 22.2408 32.6322 20.2232 31.6631 17.8626C30.694 15.502 30.4405 12.9045 30.9345 10.3985C31.4285 7.89246 32.6479 5.59056 34.4385 3.78384C36.2291 1.97711 38.5105 0.746711 40.9941 0.248237C43.4777 -0.250237 46.052 0.00559722 48.3916 0.983389C50.7311 1.96118 52.7308 3.61702 54.1376 5.7415C55.5445 7.86598 56.2953 10.3637 56.2953 12.9188H56.1617ZM43.4919 21.1828C45.1146 21.1894 46.7027 20.7096 48.0547 19.8041C49.4067 18.8986 50.4616 17.6083 51.0857 16.0969C51.7097 14.5855 51.8747 12.9211 51.5597 11.3149C51.2448 9.7087 50.4641 8.2331 49.3167 7.07534C48.1692 5.91757 46.7068 5.12983 45.1149 4.81204C43.5231 4.49425 41.8736 4.66075 40.3757 5.2904C38.8778 5.92006 37.5989 6.98449 36.7015 8.34865C35.8041 9.71281 35.3285 11.3152 35.3352 12.9525C35.3262 14.0358 35.5311 15.1101 35.9379 16.1127C36.3446 17.1153 36.9451 18.0262 37.7043 18.7922C38.4635 19.5583 39.3663 20.1642 40.36 20.5746C41.3536 20.985 42.4183 21.1918 43.4919 21.1828Z" fill="#1A2E35"/>
<path d="M17.25 26.7145C15.4597 26.7079 13.7114 26.1661 12.226 25.1576C10.7406 24.1492 9.58477 22.7192 8.90421 21.0483C8.22365 19.3775 8.04896 17.5406 8.40228 15.7696C8.7556 13.9987 9.62109 12.3731 10.8894 11.0981C12.1577 9.82304 13.7719 8.9558 15.5284 8.60581C17.2848 8.25583 19.1046 8.4388 20.758 9.13164C22.4115 9.82448 23.8244 10.9961 24.8184 12.4986C25.8123 14.0011 26.3428 15.7671 26.3428 17.5736C26.3473 18.7781 26.1149 19.9715 25.6591 21.0848C25.2033 22.198 24.5332 23.209 23.6875 24.0592C22.8418 24.9093 21.8374 25.5818 20.7324 26.0376C19.6274 26.4934 18.4438 26.7235 17.25 26.7145ZM21.6962 17.5736C21.6962 16.3927 21.2313 15.2602 20.4037 14.4252C19.5762 13.5902 18.4538 13.1211 17.2835 13.1211C16.1132 13.1211 14.9908 13.5902 14.1633 14.4252C13.3357 15.2602 12.8708 16.3927 12.8708 17.5736C12.8708 18.7544 13.3357 19.8869 14.1633 20.7219C14.9908 21.5569 16.1132 22.026 17.2835 22.026C18.4538 22.026 19.5762 21.5569 20.4037 20.7219C21.2313 19.8869 21.6962 18.7544 21.6962 17.5736Z" fill="#1A2E35"/>
<path d="M60.4736 17.5736C60.4692 16.3748 60.6995 15.1869 61.1511 14.078C61.6028 12.9692 62.2669 11.9612 63.1055 11.112C63.9441 10.2627 64.9406 9.58885 66.0378 9.12907C67.1351 8.66928 68.3115 8.43261 69.4996 8.43262C71.9023 8.43262 74.2066 9.39568 75.9055 11.1099C77.6045 12.8242 78.5589 15.1492 78.5589 17.5736C78.5589 19.9979 77.6045 22.323 75.9055 24.0372C74.2066 25.7515 71.9023 26.7145 69.4996 26.7145C68.3102 26.719 67.1318 26.4854 66.0325 26.0272C64.9332 25.569 63.935 24.8953 63.0955 24.0452C62.256 23.195 61.5921 22.1853 61.1421 21.0744C60.692 19.9635 60.4648 18.7736 60.4736 17.5736ZM73.8454 17.5736C73.899 16.9495 73.8234 16.3209 73.6235 15.7279C73.4236 15.1348 73.1036 14.5902 72.684 14.1285C72.2644 13.6668 71.7542 13.2982 71.1859 13.046C70.6175 12.7938 70.0034 12.6636 69.3826 12.6636C68.7617 12.6636 68.1476 12.7938 67.5793 13.046C67.011 13.2982 66.5009 13.6668 66.0813 14.1285C65.6616 14.5902 65.3416 15.1348 65.1417 15.7279C64.9417 16.3209 64.8662 16.9495 64.9198 17.5736C65.0166 18.7006 65.5286 19.75 66.3549 20.5146C67.1811 21.2792 68.2615 21.7034 69.3826 21.7034C70.5037 21.7034 71.5841 21.2792 72.4104 20.5146C73.2366 19.75 73.7486 18.7006 73.8454 17.5736Z" fill="#1A2E35"/>
<path d="M66.2239 29.2108C71.3642 29.1823 76.3317 31.0821 80.1618 34.5416C83.9919 38.001 86.4113 42.7731 86.9501 47.9313C87.0169 48.638 87.0169 49.3496 86.9501 50.0563C86.96 50.366 86.9057 50.6743 86.7907 50.9616C86.6757 51.2489 86.5026 51.5088 86.2823 51.7247C86.062 51.9406 85.7995 52.1078 85.5116 52.2154C85.2236 52.3231 84.9165 52.3689 84.61 52.35C84.0218 52.3323 83.4642 52.0818 83.0576 51.6526C82.651 51.2234 82.4281 50.65 82.4371 50.0563C82.4235 47.3266 81.7218 44.6452 80.398 42.2646C79.1194 39.8226 77.2256 37.7637 74.9075 36.2952C72.5893 34.8267 69.9287 34.0003 67.1933 33.8994C65.6934 33.7968 64.1867 33.899 62.7138 34.203C62.4153 34.2994 62.1 34.3316 61.7884 34.2974C61.4768 34.2632 61.1758 34.1634 60.9048 34.0045C60.6339 33.8455 60.399 33.6309 60.2154 33.3746C60.0318 33.1183 59.9035 32.8259 59.8389 32.5164C59.7662 32.2007 59.7596 31.8731 59.8197 31.5547C59.8797 31.2363 60.005 30.934 60.1875 30.6672C60.3701 30.4005 60.6058 30.1752 60.8796 30.0057C61.1535 29.8362 61.4594 29.7263 61.7778 29.6831C63.2322 29.3255 64.7276 29.1666 66.2239 29.2108Z" fill="#1A2E35"/>
<path d="M0.033462 49.1112C0.259173 44.4405 2.02735 39.9802 5.05644 36.4409C8.08553 32.9016 12.2013 30.4869 16.7481 29.5813C19.5933 28.9905 22.5278 28.9905 25.3729 29.5813C25.8131 29.6849 26.2134 29.9167 26.5241 30.2479C26.8348 30.5792 27.0422 30.9952 27.1206 31.4444C27.1989 31.8935 27.1447 32.356 26.9648 32.7744C26.7848 33.1927 26.487 33.5485 26.1083 33.7976C25.8027 33.976 25.464 34.089 25.1131 34.1296C24.7623 34.1702 24.407 34.1376 24.0692 34.0337C21.0824 33.364 17.9676 33.5774 15.098 34.6483C12.2284 35.7191 9.72558 37.6021 7.88938 40.0715C5.77854 42.7644 4.6039 46.0831 4.54645 49.516C4.54645 51.1688 3.67727 52.2145 2.3401 52.2145C1.00292 52.2145 0 51.2363 0 49.4823L0.033462 49.1112Z" fill="#1A2E35"/>
</svg>
