<svg width="329" height="315" viewBox="0 0 329 315" fill="none" xmlns="http://www.w3.org/2000/svg">
<g clip-path="url(#clip0_312_1938)">
<path d="M220.727 121.089C220.727 121.089 235.522 125.951 241.841 162.818C247.837 197.771 260.858 215.144 260.858 215.144L310.746 223.845L287.245 265.355L219.415 241.583L215.867 172.17L220.727 121.089Z" fill="#10DD8E"/>
<path d="M130.69 120.19C130.69 120.19 108.343 123.113 102.073 145.773C95.803 168.432 88.9556 221.731 88.9556 221.731L48.0959 290.907L75.2183 307.764L115.719 252.91C120.427 246.644 123.502 239.306 124.669 231.557C125.087 228.603 125.211 225.615 125.04 222.636L124.068 205.67L130.69 120.19Z" fill="#10DD8E"/>
<path d="M125.265 121.393L117.19 177.39C116.024 185.487 116.606 193.74 118.897 201.593L128.849 235.707C128.849 235.707 120.343 254.867 131.48 261.563C133.667 262.876 188.434 263.751 188.434 263.751H212.537L221.28 178.854L220.727 121.126C220.727 121.126 200.623 113.797 192.736 112.922C187.79 112.369 166.367 111.665 148.82 113.281L125.265 121.393Z" fill="#10DD8E"/>
<path d="M103.045 231.963C102.845 232.109 100.7 228.67 96.7387 225.82C95.0741 224.584 93.2513 223.576 91.3191 222.824C89.8366 222.217 88.9252 221.791 88.9556 221.688C88.9859 221.585 89.9581 221.815 91.5195 222.296C93.5728 222.908 95.5005 223.881 97.2125 225.17C101.326 228.135 103.24 231.897 103.045 231.963Z" fill="#10DD8E"/>
<path d="M122.33 150.597C122.165 151.48 121.929 152.347 121.625 153.192C121.364 154.012 121.048 155.015 120.762 156.23C120.477 157.446 120.058 158.752 119.766 160.265C118.983 163.784 118.415 167.348 118.065 170.936C117.68 175.332 117.578 179.749 117.761 184.158C118.191 192.179 119.307 200.148 121.096 207.979C121.771 211.017 122.342 213.448 122.767 215.101C123.021 215.96 123.205 216.838 123.32 217.726C122.964 216.902 122.678 216.051 122.464 215.18C121.947 213.527 121.291 211.114 120.544 208.106C118.579 200.27 117.376 192.263 116.953 184.195C116.771 179.748 116.897 175.293 117.33 170.863C117.717 167.25 118.346 163.666 119.213 160.137C119.541 158.618 119.985 157.288 120.325 156.103C120.665 154.918 121.017 153.921 121.327 153.107C121.593 152.244 121.928 151.405 122.33 150.597Z" fill="#10DD8E"/>
<path d="M220.484 153.83C220.613 154.695 220.672 155.569 220.66 156.443C220.727 158.126 220.77 160.563 220.794 163.571C220.837 169.593 220.727 177.918 220.302 187.1C219.877 196.281 219.226 204.582 218.631 210.58C218.333 213.576 218.06 215.994 217.841 217.665C217.773 218.538 217.635 219.403 217.428 220.254C217.395 219.379 217.429 218.504 217.531 217.635C217.665 215.812 217.847 213.424 218.06 210.525C218.509 204.528 219.075 196.233 219.5 187.063C219.925 177.894 220.107 169.587 220.223 163.571C220.271 160.666 220.314 158.26 220.35 156.443C220.327 155.57 220.372 154.696 220.484 153.83Z" fill="#10DD8E"/>
<g opacity="0.3">
<path opacity="0.3" d="M198.587 220.394C199.723 222.253 197.949 225.79 193.526 229.509C190.932 231.644 188.088 233.456 185.056 234.905C181.357 236.671 177.476 238.029 173.482 238.952C169.483 239.849 165.398 240.306 161.3 240.313C157.939 240.317 154.591 239.909 151.33 239.098C145.722 237.639 142.593 235.221 142.823 233.021C143.054 230.821 146.39 229.15 151.33 227.692C156.269 226.233 162.795 224.83 169.952 223.219C177.109 221.609 183.586 220.023 188.665 219.19C193.745 218.358 197.42 218.461 198.587 220.394Z" fill="#10DD8E"/>
</g>
<path d="M200.823 222.563C200.304 223.25 199.729 223.892 199.103 224.483C198.419 225.226 197.687 225.922 196.91 226.568C195.92 227.47 194.882 228.318 193.799 229.108L191.916 230.481C191.254 230.955 190.512 231.362 189.771 231.83C188.186 232.811 186.549 233.706 184.868 234.51C180.992 236.319 176.935 237.712 172.765 238.666C168.57 239.548 164.293 239.982 160.006 239.961C158.143 239.932 156.283 239.804 154.434 239.578C153.565 239.462 152.721 239.401 151.919 239.25L149.628 238.794C148.317 238.529 147.021 238.194 145.746 237.791C144.77 237.528 143.812 237.201 142.878 236.813C142.065 236.535 141.275 236.193 140.515 235.792C140.581 235.61 143.954 237.111 149.744 238.223L152.016 238.624C152.806 238.758 153.644 238.806 154.501 238.903C156.332 239.098 158.171 239.2 160.012 239.207C164.23 239.181 168.435 238.733 172.564 237.87C176.677 236.924 180.684 235.571 184.528 233.829C186.19 233.05 187.812 232.188 189.388 231.247C190.13 230.797 190.871 230.408 191.533 229.952L193.429 228.634C198.265 225.2 200.707 222.423 200.823 222.563Z" fill="#10DD8E"/>
<path d="M223.759 122.87C223.96 123.021 221.663 126.041 220.053 130.362C218.443 134.682 218.133 138.462 217.884 138.438C217.635 138.414 217.598 134.531 219.299 130.082C221.001 125.634 223.625 122.73 223.759 122.87Z" fill="#10DD8E"/>
<g opacity="0.5">
<path opacity="0.5" d="M229.155 179.212C225.928 180.385 227.265 179.996 225.868 182.725C224.47 185.453 224.045 188.868 225.515 191.554C226.779 193.875 229.234 195.309 231.731 196.196C234.708 197.254 238.286 197.594 240.814 195.686C243.341 193.778 244.01 190.017 243.105 186.942C242.661 185.477 241.931 184.115 240.957 182.936C239.983 181.756 238.784 180.781 237.43 180.069C236.069 179.372 234.584 178.952 233.06 178.835C231.536 178.719 230.004 178.906 228.553 179.388" fill="#10DD8E"/>
<path opacity="0.5" d="M189.492 211.862C188.343 209.759 183.088 208.532 181.156 209.948C180.462 210.924 180.089 212.092 180.089 213.29C180.089 214.488 180.462 215.656 181.156 216.632C181.904 217.571 182.953 218.224 184.126 218.479C185.299 218.735 186.525 218.578 187.596 218.036C188.629 217.432 189.396 216.462 189.747 215.318C190.099 214.175 190.007 212.941 189.492 211.862Z" fill="#10DD8E"/>
<path opacity="0.5" d="M116.856 217.422C115.707 215.319 110.446 214.092 108.514 215.514C107.821 216.491 107.449 217.658 107.449 218.856C107.449 220.053 107.821 221.221 108.514 222.198C109.264 223.137 110.314 223.789 111.488 224.044C112.662 224.3 113.888 224.144 114.96 223.602C115.993 222.997 116.761 222.026 117.112 220.881C117.463 219.737 117.372 218.502 116.856 217.422Z" fill="#10DD8E"/>
<path opacity="0.5" d="M136.067 125.987C133.082 126.411 130.241 127.543 127.782 129.29C125.324 131.036 123.319 133.346 121.935 136.025C121.003 137.706 120.549 139.61 120.623 141.531C120.671 142.487 120.962 143.416 121.466 144.23C121.971 145.044 122.674 145.717 123.509 146.186C126.042 147.443 129.056 146.107 131.498 144.679C133.671 143.498 135.67 142.024 137.44 140.297C139.219 138.553 140.376 136.273 140.733 133.808C140.89 132.579 140.732 131.33 140.272 130.18C139.813 129.03 139.069 128.015 138.109 127.233C136.122 125.768 133.06 125.768 131.316 127.518" fill="#10DD8E"/>
<path opacity="0.5" d="M93.3119 243.4C90.3261 243.826 87.4853 244.959 85.0268 246.707C82.5684 248.454 80.5635 250.764 79.1797 253.445C78.2477 255.123 77.7938 257.025 77.8673 258.944C77.9183 259.9 78.2095 260.828 78.7139 261.641C79.2184 262.455 79.9198 263.128 80.7533 263.599C83.293 264.857 86.3066 263.52 88.749 262.092C90.9208 260.91 92.9202 259.436 94.6912 257.71C96.4687 255.966 97.6236 253.686 97.9781 251.221C98.1386 249.993 97.9816 248.744 97.5221 247.594C97.0626 246.444 96.3159 245.431 95.3534 244.652C93.3727 243.181 90.3105 243.181 88.5668 244.931" fill="#10DD8E"/>
<path opacity="0.5" d="M200.708 126.74C197.481 127.913 198.818 127.524 197.427 130.253C196.035 132.981 195.604 136.39 197.068 139.082C198.338 141.403 200.793 142.837 203.284 143.718C206.261 144.776 209.846 145.116 212.367 143.214C214.889 141.312 215.569 137.545 214.658 134.47C214.215 133.006 213.486 131.644 212.513 130.465C211.54 129.285 210.342 128.31 208.989 127.597C207.627 126.901 206.141 126.482 204.616 126.365C203.091 126.248 201.558 126.436 200.106 126.917" fill="#10DD8E"/>
<path opacity="0.5" d="M187.772 166.549C188.021 168.949 187.985 167.97 189.595 169.392C191.205 170.814 193.459 171.683 195.543 171.143C197.366 170.675 198.739 169.253 199.766 167.703C200.981 165.85 201.844 163.45 200.981 161.426C200.118 159.402 197.664 158.278 195.416 158.388C194.342 158.44 193.29 158.704 192.32 159.167C191.35 159.629 190.482 160.279 189.765 161.08C189.058 161.888 188.519 162.828 188.179 163.846C187.839 164.864 187.705 165.94 187.784 167.01" fill="#10DD8E"/>
<path opacity="0.5" d="M97.474 191.518C97.7231 193.918 97.6866 192.94 99.2967 194.355C100.907 195.771 103.167 196.652 105.251 196.111C107.043 195.644 108.441 194.216 109.474 192.666C110.689 190.843 111.545 188.412 110.689 186.389C109.832 184.365 107.371 183.241 105.117 183.351C104.045 183.401 102.994 183.664 102.025 184.126C101.056 184.587 100.188 185.236 99.4729 186.037C98.7646 186.844 98.2242 187.784 97.8831 188.802C97.542 189.82 97.407 190.896 97.4861 191.967" fill="#10DD8E"/>
<path opacity="0.5" d="M166.191 161.432C165.917 160.978 165.518 160.613 165.042 160.379C164.566 160.145 164.032 160.053 163.506 160.113C162.456 160.249 161.443 160.588 160.522 161.11L159.38 163.309C159.654 163.794 160.025 164.216 160.47 164.55C160.914 164.885 161.423 165.124 161.964 165.253C162.505 165.381 163.067 165.397 163.614 165.299C164.162 165.201 164.683 164.991 165.146 164.683C166.106 163.941 166.707 162.538 166.191 161.432Z" fill="#10DD8E"/>
<path opacity="0.5" d="M115.355 160.453C115.08 159.999 114.681 159.634 114.205 159.4C113.729 159.166 113.196 159.074 112.669 159.135C111.62 159.271 110.607 159.609 109.686 160.131L108.544 162.331C108.818 162.815 109.189 163.238 109.634 163.572C110.078 163.906 110.587 164.145 111.129 164.273C111.67 164.402 112.232 164.417 112.779 164.318C113.327 164.219 113.848 164.008 114.31 163.698C115.3 162.963 115.902 161.559 115.355 160.453Z" fill="#10DD8E"/>
<path opacity="0.5" d="M213.661 202.486C213.388 202.032 212.99 201.667 212.515 201.433C212.04 201.2 211.508 201.107 210.982 201.167C209.93 201.303 208.915 201.642 207.992 202.164L206.85 204.363C207.124 204.848 207.495 205.27 207.94 205.604C208.384 205.938 208.893 206.178 209.434 206.306C209.975 206.435 210.537 206.451 211.084 206.353C211.632 206.255 212.153 206.045 212.616 205.737C213.612 204.983 214.19 203.592 213.661 202.486Z" fill="#10DD8E"/>
<path opacity="0.5" d="M138.011 249.95C137.736 249.497 137.337 249.133 136.861 248.899C136.385 248.665 135.853 248.573 135.326 248.631C134.276 248.769 133.263 249.11 132.343 249.634L131.2 251.828C131.474 252.312 131.845 252.734 132.29 253.068C132.734 253.403 133.243 253.642 133.784 253.771C134.325 253.9 134.887 253.916 135.435 253.818C135.982 253.72 136.504 253.51 136.966 253.201C137.957 252.484 138.558 251.074 138.011 249.95Z" fill="#10DD8E"/>
<path opacity="0.5" d="M177.194 185.246C174.819 182.208 171.046 180.604 167.279 179.832C162.764 179.99 159.514 182.925 156.397 186.2C155.012 187.659 153.827 189.53 153.967 191.542C154.118 193.753 155.832 195.546 157.679 196.78C159.843 198.206 162.288 199.151 164.849 199.551C167.41 199.95 170.026 199.795 172.522 199.095C174.551 198.605 176.378 197.499 177.753 195.929C180.165 192.915 179.558 188.272 177.194 185.246Z" fill="#10DD8E"/>
<path opacity="0.5" d="M201.054 183.715C200.185 182.129 196.193 181.205 194.753 182.275C194.224 183.014 193.939 183.9 193.939 184.809C193.939 185.718 194.224 186.604 194.753 187.343C195.318 188.052 196.11 188.544 196.995 188.738C197.88 188.932 198.805 188.815 199.614 188.406C200.401 187.95 200.987 187.213 201.254 186.343C201.521 185.473 201.449 184.535 201.054 183.715Z" fill="#10DD8E"/>
<path opacity="0.5" d="M173.731 251.81C172.862 250.224 168.87 249.294 167.424 250.363C166.898 251.104 166.616 251.989 166.616 252.897C166.616 253.805 166.898 254.691 167.424 255.431C167.99 256.139 168.781 256.631 169.666 256.825C170.551 257.018 171.476 256.902 172.285 256.495C173.072 256.039 173.657 255.304 173.925 254.435C174.194 253.567 174.124 252.629 173.731 251.81Z" fill="#10DD8E"/>
<path opacity="0.5" d="M235.662 153.605C234.793 152.019 230.801 151.095 229.361 152.165C228.833 152.905 228.55 153.79 228.55 154.699C228.55 155.607 228.833 156.493 229.361 157.233C229.926 157.941 230.718 158.433 231.603 158.626C232.488 158.82 233.412 158.703 234.222 158.296C235.002 157.834 235.583 157.097 235.849 156.229C236.115 155.362 236.048 154.426 235.662 153.605Z" fill="#10DD8E"/>
<path opacity="0.5" d="M142.83 210.124C142.259 209.647 141.598 209.289 140.886 209.072C140.174 208.855 139.426 208.783 138.686 208.86H138.741C135.867 208.86 133.485 209.997 133.23 212.695C133.113 214.05 133.312 215.414 133.812 216.68C134.311 217.945 135.098 219.077 136.11 219.987C137.671 221.366 139.962 222.144 141.864 221.299C143.364 220.631 144.294 219.093 144.744 217.501C145.436 214.888 144.835 211.88 142.83 210.124Z" fill="#10DD8E"/>
<path opacity="0.5" d="M210.866 238.241C210.259 236.235 209.001 234.291 207.069 233.47C205.137 232.65 202.743 233.148 200.993 234.382C199.289 235.694 197.961 237.431 197.141 239.419C196.042 241.637 195.507 244.092 195.586 246.566C195.744 249.027 199.419 251.816 202.269 251.001C204.35 251.176 206.42 250.548 208.053 249.245C211.115 246.663 212.051 242.051 210.866 238.241Z" fill="#10DD8E"/>
<path opacity="0.5" d="M132.075 163.571C128.849 164.744 130.186 164.355 128.788 167.083C127.391 169.812 126.966 173.227 128.436 175.913C129.7 178.234 132.154 179.668 134.652 180.555C137.629 181.613 141.207 181.953 143.735 180.045C146.262 178.137 146.931 174.375 146.025 171.301C145.582 169.836 144.852 168.474 143.878 167.294C142.904 166.115 141.705 165.14 140.351 164.428C138.99 163.731 137.505 163.311 135.981 163.194C134.457 163.077 132.925 163.265 131.474 163.747" fill="#10DD8E"/>
</g>
<path d="M186.29 313.458C186.29 313.458 245.468 329.864 247.838 330.679C251.404 331.931 250.803 344.995 245.255 344.789C242.631 344.691 199.802 346.387 194.395 346.046C188.987 345.706 172.656 339.277 172.656 339.277L186.29 313.458Z" fill="#047C6C"/>
<path d="M200.033 324.049C200.142 324.049 200.641 322.421 200.671 319.644C200.658 318.017 200.454 316.398 200.063 314.819C199.834 313.884 199.539 312.966 199.182 312.072C199.002 311.512 198.675 311.011 198.235 310.62C197.938 310.396 197.572 310.283 197.201 310.302C196.83 310.321 196.477 310.47 196.205 310.723C195.745 311.164 195.464 311.759 195.416 312.394C195.354 312.914 195.327 313.438 195.337 313.962C195.349 314.937 195.471 315.907 195.701 316.855C196.095 318.441 196.708 319.965 197.524 321.382C198.903 323.782 200.1 325.028 200.179 324.942C200.258 324.857 199.328 323.472 198.144 321.06C197.453 319.66 196.933 318.183 196.594 316.66C196.405 315.771 196.309 314.865 196.309 313.956C196.309 313.044 196.309 311.908 196.855 311.471C196.952 311.362 197.086 311.294 197.231 311.281C197.376 311.269 197.52 311.313 197.633 311.404C197.931 311.69 198.154 312.045 198.283 312.437C198.637 313.288 198.937 314.161 199.182 315.05C199.592 316.562 199.853 318.111 199.96 319.674C200.142 322.354 199.875 324.025 200.033 324.049Z" fill="#047C6C"/>
<g opacity="0.3">
<path opacity="0.3" d="M186.29 313.458C186.29 313.458 245.468 329.864 247.838 330.679C251.404 331.931 250.803 344.995 245.255 344.789C242.631 344.691 199.802 346.387 194.395 346.046C188.987 345.706 172.656 339.277 172.656 339.277L186.29 313.458Z" fill="#047C6C"/>
</g>
<path d="M133.758 261.958L114.492 284.375C114.492 284.375 50.35 264.869 34.1884 265.762C18.0268 266.655 4.79377 273.139 1.65259 286.265C-1.48859 299.39 -1.91996 317.505 16.9332 330.077C35.7864 342.65 129.487 349.608 129.487 349.608H166.549L227.149 269.694L221.827 265.306L133.758 261.958Z" fill="#1A2E35"/>
<path d="M146.657 313.804C146.253 313.844 145.846 313.844 145.442 313.804C144.646 313.737 143.462 313.743 141.961 313.53C137.701 313.043 133.494 312.175 129.39 310.936C123.308 309.097 117.382 306.779 111.667 304.002C105.178 300.964 98.2638 297.178 91.0093 293.277C84.2177 289.551 77.2283 286.198 70.0721 283.232C64.2303 280.821 58.1603 279.005 51.9541 277.812C47.7686 277.022 43.5148 276.652 39.2557 276.706C37.7489 276.67 36.5824 276.834 35.7864 276.84C35.382 276.871 34.9757 276.871 34.5713 276.84C34.9703 276.745 35.377 276.686 35.7864 276.664C36.5824 276.603 37.7489 276.39 39.2679 276.372C43.5557 276.199 47.8497 276.488 52.0756 277.235C58.3395 278.354 64.469 280.126 70.3638 282.522C77.5621 285.461 84.587 288.809 91.4042 292.548C98.6951 296.455 105.573 300.235 112.013 303.316C117.686 306.105 123.559 308.465 129.584 310.377C133.652 311.651 137.815 312.596 142.034 313.202C143.522 313.464 144.695 313.506 145.485 313.622C145.88 313.654 146.271 313.715 146.657 313.804Z" fill="#375A64"/>
<path d="M190.494 343.069C202.409 338.384 267.918 317.547 291.109 290.737C310.418 268.418 279.705 248.438 279.705 248.438C279.705 248.438 258.16 247.751 250.972 248.438C243.785 249.124 140.976 318.617 140.976 318.617C140.976 318.617 158.936 353.636 158.487 354.985L190.494 343.069Z" fill="#1A2E35"/>
<path d="M222.75 265.355C222.667 265.441 222.573 265.516 222.471 265.58L221.602 266.187L218.242 268.381L205.799 276.311L164.587 302.21L142.198 316.186L142.343 315.73C147.107 327.203 151.178 336.999 154.082 343.975C155.473 347.402 156.585 350.136 157.381 352.087C157.733 352.986 157.989 353.703 158.232 354.25C158.339 354.497 158.425 354.753 158.487 355.016C158.337 354.791 158.213 354.551 158.116 354.299L157.162 352.178L153.663 344.151L141.657 316.016L141.529 315.724L141.803 315.56L164.156 301.547L205.471 275.843L218.054 268.126L221.493 266.066L222.398 265.543C222.504 265.461 222.623 265.398 222.75 265.355Z" fill="#375A64"/>
<path d="M132.233 296.26C132.191 296.358 131.018 295.975 129.196 295.118C126.825 293.989 124.565 292.64 122.445 291.089C120.328 289.543 118.361 287.801 116.57 285.887C115.203 284.417 114.486 283.402 114.559 283.335C114.747 283.165 118.022 286.878 122.919 290.439C127.816 294 132.337 296.035 132.233 296.26Z" fill="#375A64"/>
<path d="M160.23 263.137C160.346 263.137 160.352 264.711 160.388 267.238C160.425 269.766 160.522 273.254 160.868 277.089C161.215 280.923 161.743 284.381 162.163 286.86C162.582 289.339 162.861 290.901 162.77 290.925C162.679 290.949 162.193 289.449 161.628 286.969C160.903 283.735 160.39 280.457 160.091 277.156C159.795 273.857 159.711 270.542 159.842 267.232C159.927 264.692 160.115 263.131 160.23 263.137Z" fill="#375A64"/>
<path d="M169.308 266.619C169.308 266.582 169.618 266.546 170.116 266.728C170.822 267.014 171.42 267.516 171.823 268.162C172.139 268.644 172.346 269.189 172.43 269.758C172.514 270.328 172.472 270.909 172.309 271.462C172.057 272.143 171.603 272.732 171.009 273.15C170.414 273.568 169.706 273.795 168.98 273.801C168.254 273.87 167.525 273.709 166.895 273.342C166.265 272.975 165.766 272.419 165.468 271.753C165.277 271.205 165.219 270.618 165.298 270.043C165.377 269.467 165.592 268.919 165.924 268.442C166.352 267.794 166.999 267.322 167.746 267.111C168.269 266.989 168.56 267.074 168.56 267.111C168.615 267.245 167.303 267.238 166.434 268.745C166.189 269.152 166.039 269.608 165.995 270.08C165.95 270.553 166.013 271.029 166.179 271.474C166.434 271.981 166.838 272.398 167.336 272.67C167.834 272.943 168.403 273.057 168.968 272.999C169.537 272.998 170.094 272.829 170.568 272.512C171.041 272.195 171.41 271.745 171.629 271.219C171.775 270.764 171.827 270.283 171.78 269.808C171.733 269.332 171.588 268.871 171.355 268.454C170.499 266.929 169.229 266.752 169.308 266.619Z" fill="#375A64"/>
<path d="M143.881 263.769C144.14 264.136 144.33 264.548 144.44 264.984C144.825 266.16 145.008 267.393 144.98 268.63C144.954 270.468 144.54 272.28 143.765 273.947C142.837 276.013 141.368 277.789 139.512 279.088C137.609 280.329 135.403 281.028 133.133 281.111C131.299 281.196 129.468 280.89 127.762 280.212C126.613 279.773 125.546 279.142 124.608 278.346C123.952 277.775 123.66 277.399 123.691 277.368C123.794 277.228 125.113 278.693 127.944 279.677C129.594 280.248 131.342 280.484 133.084 280.37C135.209 280.254 137.267 279.581 139.05 278.419C140.797 277.205 142.194 275.554 143.103 273.631C143.862 272.06 144.302 270.354 144.397 268.612C144.567 265.585 143.711 263.811 143.881 263.769Z" fill="#375A64"/>
<path d="M205.003 275.971C205.003 276.062 204.037 276.129 202.573 275.63C200.662 274.952 199.023 273.673 197.901 271.984C196.798 270.277 196.282 268.257 196.43 266.23C196.558 264.692 197.038 263.829 197.093 263.866C197.147 263.902 196.977 264.796 196.995 266.248C197.017 268.125 197.564 269.959 198.575 271.541C199.62 273.1 201.078 274.337 202.786 275.114C204.104 275.703 205.021 275.843 205.003 275.971Z" fill="#375A64"/>
<path d="M273.125 231.459C273.125 231.459 283.138 217.003 285.331 215.782C287.524 214.56 306.049 210.799 307.477 211.497C308.905 212.196 329.617 219.063 326.792 221.22C323.967 223.377 309.555 218.382 309.555 218.382L307.41 219.075C307.41 219.075 319.908 223.061 322.369 225.03C324.635 226.853 323.323 229.752 321.014 229.156C318.705 228.561 307.903 224.708 307.167 225.067C306.432 225.425 318.821 229.928 320.072 230.931C321.755 232.304 321.439 235.622 319.131 235.105C317.77 234.801 306.195 229.861 306.195 229.861C306.195 229.861 315.187 234.996 315.917 235.938C317.132 237.524 315.692 239.432 313.693 238.66C312.32 238.131 306.062 233.89 304.221 233.191C304.221 233.191 302.398 233.398 300.217 236.746C298.035 240.094 285.064 247.447 285.064 247.447L273.125 231.459Z" fill="#B66955"/>
<path d="M277.943 232.419C279.055 233.817 281.23 233.847 282.882 233.167C284.535 232.486 285.92 231.258 287.512 230.462C292.3 228.074 298.418 229.745 303.084 227.126C303.741 226.762 304.427 226.106 304.208 225.395C303.99 224.684 303.182 224.538 302.495 224.447L284.918 222.21" fill="#B66955"/>
<path d="M284.918 222.21C285.559 222.136 286.207 222.15 286.844 222.253C288.059 222.35 289.851 222.52 292.051 222.757L299.749 223.632L301.973 223.894C302.671 224.033 303.649 223.894 304.464 224.823C304.638 225.066 304.734 225.355 304.741 225.653C304.747 225.952 304.663 226.245 304.5 226.494C304.236 226.909 303.875 227.253 303.449 227.497C302.69 227.927 301.885 228.269 301.049 228.518C297.665 229.496 294.366 229.271 291.577 229.733C290.249 229.901 288.955 230.267 287.737 230.821C286.613 231.362 285.635 232.073 284.663 232.644C282.755 233.859 280.689 234.102 279.474 233.634C278.259 233.167 277.9 232.419 277.943 232.419C278.435 232.79 278.988 233.072 279.577 233.252C280.732 233.543 282.506 233.252 284.286 232.036C285.203 231.459 286.157 230.706 287.36 230.08C288.645 229.455 290.018 229.03 291.431 228.822C294.36 228.305 297.628 228.481 300.751 227.564C301.509 227.338 302.241 227.03 302.932 226.646C303.54 226.276 303.941 225.704 303.668 225.431C303.394 225.158 302.604 224.969 301.845 224.878L299.627 224.58L291.954 223.493C289.766 223.164 288.004 222.885 286.789 222.672C286.148 222.6 285.519 222.445 284.918 222.21Z" fill="#8E3823"/>
<path d="M326.725 221.263C326.725 221.384 325.219 221.767 322.691 221.749C321.209 221.727 319.732 221.564 318.28 221.263C316.682 220.831 314.944 220.315 313.116 219.774L309.239 218.559H309.482C303.953 219.634 299.925 220.266 299.876 220.041C299.828 219.817 303.777 218.826 309.294 217.611H309.403L309.537 217.653L313.389 218.784L318.487 220.333C319.885 220.667 321.307 220.895 322.74 221.014C325.17 221.232 326.713 221.111 326.725 221.263Z" fill="#8E3823"/>
<path d="M235.844 71.8381C231.718 66.8978 226.675 61.8299 226.499 55.3887C226.408 51.9676 227.654 48.0968 225.6 45.3866C223.82 42.9985 220.271 42.6216 218.26 40.4158C215.587 37.4808 216.741 32.8322 215.83 28.9614C214.828 24.7564 211.225 21.5114 207.166 20.0165C203.107 18.5217 198.66 18.546 194.346 19.0443L190.312 107.702C192.28 105.551 197.402 104.664 200.124 105.685C202.846 106.706 205.404 108.401 208.308 108.644C214.834 109.179 219.427 102.653 224.998 99.2255C230.321 95.9563 237.63 94.9112 240.552 89.3936C243.566 83.7058 239.969 76.7662 235.844 71.8381Z" fill="#1A2E35"/>
<path d="M223.65 99.906C224.418 99.729 225.153 99.4273 225.825 99.0127C226.581 98.5039 227.175 97.7889 227.538 96.9527C227.997 95.8472 228.016 94.6084 227.593 93.489C227.18 92.2068 226.019 91.2953 224.646 90.4142C223.896 89.9514 223.226 89.3685 222.665 88.6885C222.078 87.8971 221.784 86.9262 221.833 85.9419C221.942 83.9487 222.969 82.2168 223.625 80.3877C223.993 79.4914 224.199 78.5367 224.233 77.5682C224.219 76.59 223.924 75.6364 223.382 74.8216C222.289 73.1323 220.581 71.9291 218.989 70.7624C217.362 69.6912 215.872 68.4237 214.554 66.9887C212.374 64.4776 210.906 61.4291 210.301 58.1593C209.878 55.9758 209.878 53.7315 210.301 51.548C210.41 50.9576 210.564 50.3765 210.763 49.81C210.896 49.4211 210.975 49.2024 211.006 49.2328C211.036 49.2632 210.805 50.0714 210.611 51.6028C210.322 53.7489 210.412 55.9291 210.878 58.0439C211.538 61.1829 213.004 64.096 215.131 66.4966C216.425 67.8844 217.884 69.1087 219.475 70.1426C221.079 71.3154 222.86 72.5307 224.093 74.3962C224.711 75.3349 225.044 76.4322 225.053 77.5561C225.026 78.622 224.806 79.6741 224.403 80.6611C223.698 82.5571 222.708 84.2585 222.611 85.9721C222.556 86.7898 222.79 87.6007 223.273 88.263C223.779 88.8899 224.382 89.4316 225.059 89.8673C225.731 90.3054 226.363 90.8015 226.949 91.35C227.5 91.8946 227.916 92.5605 228.164 93.2945C228.602 94.5474 228.539 95.9215 227.988 97.1289C227.56 98.0186 226.879 98.7626 226.031 99.2679C225.506 99.5821 224.924 99.7887 224.318 99.8756C224.1 99.9376 223.872 99.948 223.65 99.906Z" fill="#375A64"/>
<path d="M191.333 119.607L191.059 104.731C191.059 104.731 205.835 102.544 209.232 83.3718C210.921 73.8375 210.72 58.1476 210.137 45.3198C209.615 33.7742 197.378 22.028 185.883 23.0428L148.48 29.4719V35.6761L149.513 120.245C149.578 125.747 151.81 131.002 155.724 134.869C159.637 138.737 164.918 140.906 170.42 140.905C173.199 140.908 175.951 140.355 178.514 139.281C181.077 138.206 183.401 136.631 185.348 134.648C187.295 132.665 188.828 130.313 189.855 127.73C190.883 125.148 191.385 122.386 191.333 119.607Z" fill="#B66955"/>
<path d="M204.207 58.6397C204.196 59.2809 203.937 59.8929 203.483 60.3464C203.03 60.7998 202.418 61.0594 201.777 61.0703C201.462 61.09 201.147 61.0465 200.85 60.9422C200.552 60.8378 200.279 60.6749 200.045 60.463C199.812 60.2511 199.623 59.9946 199.491 59.7086C199.358 59.4226 199.284 59.1127 199.274 58.7977C199.283 58.156 199.542 57.5432 199.996 57.0894C200.45 56.6355 201.062 56.3764 201.704 56.367C202.018 56.3482 202.333 56.3925 202.63 56.4971C202.928 56.6018 203.201 56.7647 203.434 56.9765C203.667 57.1882 203.856 57.4443 203.988 57.73C204.121 58.0156 204.196 58.3249 204.207 58.6397Z" fill="#1A2E35"/>
<path d="M206.595 53.4139C206.285 53.7299 204.438 52.3139 201.783 52.2714C199.128 52.2289 197.165 53.5232 196.88 53.1951C196.74 53.0492 197.062 52.472 197.925 51.8704C199.087 51.0965 200.46 50.6996 201.856 50.734C203.236 50.7565 204.574 51.2161 205.678 52.0466C206.48 52.6847 206.747 53.2741 206.595 53.4139Z" fill="#1A2E35"/>
<path d="M179.843 57.9286C179.834 58.5704 179.575 59.1831 179.121 59.637C178.667 60.0908 178.055 60.3499 177.413 60.3593C177.098 60.379 176.783 60.3353 176.486 60.231C176.188 60.1266 175.915 59.9638 175.681 59.7519C175.448 59.54 175.259 59.2834 175.127 58.9974C174.994 58.7114 174.92 58.4017 174.91 58.0866C174.91 57.442 175.166 56.8238 175.621 56.3679C176.077 55.9121 176.695 55.656 177.34 55.656C177.655 55.6363 177.97 55.6798 178.267 55.7842C178.565 55.8885 178.838 56.0515 179.072 56.2633C179.305 56.4752 179.494 56.7318 179.626 57.0179C179.759 57.3039 179.832 57.6136 179.843 57.9286Z" fill="#1A2E35"/>
<path d="M180.505 53.4443C180.196 53.7603 178.349 52.3444 175.693 52.3079C173.038 52.2714 171.076 53.5597 170.79 53.2255C170.657 53.0796 170.973 52.5085 171.835 51.9069C172.996 51.1301 174.37 50.733 175.766 50.7705C177.147 50.7883 178.485 51.2461 179.588 52.0771C180.39 52.7151 180.657 53.3045 180.505 53.4443Z" fill="#1A2E35"/>
<path d="M189.783 73.2965C189.783 73.1446 191.43 72.8892 194.109 72.5915C194.784 72.5368 195.428 72.4154 195.549 71.9536C195.671 71.4917 195.452 70.7382 195.136 69.9361L193.222 64.7405C190.573 57.3452 188.665 51.2687 188.969 51.1654C189.273 51.0621 191.661 56.9686 194.31 64.3638C194.948 66.1868 195.561 67.9247 196.132 69.5897C196.375 70.3675 196.801 71.2487 196.436 72.2574C196.335 72.4951 196.18 72.7063 195.984 72.8749C195.788 73.0434 195.556 73.1648 195.306 73.2296C194.928 73.321 194.541 73.3679 194.152 73.3693C191.46 73.4605 189.789 73.4484 189.783 73.2965Z" fill="#1A2E35"/>
<path d="M191.059 104.719C182.007 104.705 173.136 102.181 165.431 97.4268C165.431 97.4268 171.872 110.856 191.144 109.398L191.059 104.719Z" fill="#8E3823"/>
<path d="M188.55 79.6709C188.057 79.026 187.408 78.5173 186.663 78.193C185.919 77.8687 185.105 77.7395 184.297 77.8175C183.712 77.8608 183.141 78.0213 182.619 78.2896C182.097 78.5579 181.635 78.9285 181.259 79.3793C180.896 79.8149 180.675 80.3517 180.627 80.917C180.579 81.4822 180.707 82.0486 180.992 82.5391C181.69 83.56 183.179 83.8213 184.455 83.481C185.716 83.0612 186.881 82.3939 187.882 81.5183C188.183 81.3097 188.445 81.0482 188.653 80.7465C188.751 80.6011 188.803 80.4296 188.803 80.2543C188.803 80.0789 188.751 79.9075 188.653 79.762" fill="#8E3823"/>
<path d="M181.946 74.992C182.377 74.992 182.328 77.8541 184.759 79.9445C187.189 82.0348 190.257 81.7674 190.275 82.1745C190.312 82.3508 189.583 82.7215 188.283 82.7337C186.596 82.7232 184.966 82.121 183.677 81.0322C182.442 79.9853 181.662 78.4992 181.502 76.8879C181.411 75.6786 181.745 74.9738 181.946 74.992Z" fill="#1A2E35"/>
<path d="M181.38 43.059C181.107 43.7761 178.464 43.3872 175.341 43.7032C172.218 44.0192 169.691 44.8274 169.265 44.1772C169.089 43.8612 169.539 43.1926 170.566 42.512C171.928 41.6641 173.474 41.1537 175.074 41.0233C176.67 40.857 178.282 41.0758 179.776 41.6614C180.931 42.1293 181.496 42.737 181.38 43.059Z" fill="#1A2E35"/>
<path d="M205.756 45.7144C205.276 46.3221 203.46 45.6537 201.26 45.5868C199.061 45.52 197.196 45.915 196.776 45.2769C196.6 44.967 196.898 44.3715 197.724 43.8125C198.816 43.1388 200.089 42.8183 201.37 42.8949C202.659 42.9395 203.903 43.3833 204.93 44.165C205.72 44.803 205.963 45.4227 205.756 45.7144Z" fill="#1A2E35"/>
<path d="M158.293 52.1252C164.611 44.3714 182.596 30.4377 191.357 26.6033C192.761 25.9957 194.067 24.6892 194.93 24.6892C196.772 25.6527 198.501 26.8207 200.082 28.1711C204.748 32.2607 208.454 41.8679 210.253 47.8048C212.841 40.4095 212.003 29.7936 206.862 23.881C201.722 17.9684 196.272 14.6931 188.447 14.3042C180.621 13.9153 174.734 15.6714 168.069 19.7732C165.426 21.4017 155.917 29.3256 153.231 33.8831L158.293 52.1252Z" fill="#375A64"/>
<path d="M191.94 14.6811C193.234 14.8269 184.51 7.66871 179.072 6.69037C173.565 5.73014 167.899 6.91515 163.238 10.0021C160.134 12.0864 157.539 14.991 154.094 16.4555C151.469 17.5675 148.553 17.7559 145.819 18.5702C142.207 19.7064 139.011 21.885 136.632 24.8322C134.254 27.7794 132.8 31.3638 132.452 35.1351C132.215 38.3253 132.799 41.5156 132.847 44.718C132.896 47.9204 132.306 51.3294 130.143 53.6871C128.266 55.7288 125.508 56.6647 123.162 58.1413C120.392 59.948 118.198 62.5109 116.839 65.5263C115.48 68.5418 115.013 71.8835 115.495 75.1559C116.066 78.6561 117.725 82.2534 116.515 85.5834C115.713 87.771 113.818 89.3508 112.53 91.3014C111.281 93.2714 110.654 95.5713 110.73 97.9024C110.806 100.233 111.581 102.488 112.955 104.372C116.212 104.731 118.776 107.174 121.303 109.234C123.831 111.294 127.075 113.232 130.216 112.308C134.293 111.093 136.225 105.661 140.43 105.059C144.634 104.457 147.563 108.845 151.457 110.315C155.893 111.998 161.087 109.471 163.767 105.551C166.446 101.632 167.102 96.6915 167.2 91.9456C167.321 85.9783 166.562 79.6768 163.026 74.8702C160.492 71.4247 156.47 68.4655 156.415 64.1875C156.36 60.0919 160.091 56.847 160.717 52.7938C161.27 49.239 159.362 45.836 157.879 42.5546C156.397 39.2733 153.675 34.4302 155.747 31.4891C155.771 31.5073 169.946 12.2383 191.94 14.6811Z" fill="#1A2E35"/>
<path d="M193.672 17.9015C193.726 17.8347 194.346 18.2115 194.887 19.2141C195.218 19.8777 195.399 20.6061 195.417 21.3476C195.435 22.0891 195.289 22.8254 194.99 23.5042C194.675 24.1762 194.216 24.771 193.646 25.2466C193.076 25.7222 192.409 26.067 191.691 26.2569C190.591 26.5243 189.905 26.3116 189.917 26.2204C189.929 26.1293 190.585 26.0928 191.515 25.7161C192.714 25.2426 193.692 24.3362 194.255 23.1761C194.758 21.988 194.797 20.6544 194.364 19.4389C194.012 18.491 193.575 17.9866 193.672 17.9015Z" fill="#1A2E35"/>
<path d="M199.055 26.1115C199 26.3121 197.718 26.0811 196.497 25.1089C195.276 24.1366 194.735 22.9638 194.923 22.8605C195.112 22.7572 195.883 23.614 196.995 24.4769C198.107 25.3398 199.134 25.8928 199.055 26.1115Z" fill="#1A2E35"/>
<path d="M186.356 21.074C186.393 20.8491 187.529 20.8856 188.829 20.5271C190.13 20.1685 191.096 19.5974 191.26 19.7797C191.424 19.962 190.555 20.9099 189.054 21.3049C187.553 21.6999 186.302 21.2806 186.356 21.074Z" fill="#1A2E35"/>
<path d="M186.502 17.5495C186.533 17.3308 187.651 17.3186 189 17.5495C190.348 17.7804 191.43 18.0964 191.375 18.3212C191.32 18.546 190.221 18.5521 188.878 18.3212C187.535 18.0903 186.466 17.7683 186.502 17.5495Z" fill="#1A2E35"/>
<path d="M199.498 18.7406C199.498 18.9593 199.067 19.1781 198.496 19.2207C197.925 19.2632 197.451 19.1173 197.433 18.8925C197.414 18.6677 197.864 18.455 198.435 18.4124C199.006 18.3699 199.486 18.5218 199.498 18.7406Z" fill="#1A2E35"/>
<path d="M199.644 20.9401C199.644 21.1589 198.988 21.3412 198.168 21.3412C197.348 21.3412 196.691 21.1589 196.691 20.9401C196.691 20.7214 197.354 20.5391 198.168 20.5391C198.982 20.5391 199.644 20.7153 199.644 20.9401Z" fill="#1A2E35"/>
<path d="M165.784 33.8711C165.948 34.0473 163.961 36.1135 161.907 39.006C159.854 41.8985 158.578 44.4749 158.365 44.3716C158.153 44.2683 159.149 41.4974 161.251 38.5381C163.353 35.5788 165.65 33.7131 165.784 33.8711Z" fill="#1A2E35"/>
<path d="M166.489 28.1531C166.671 28.305 164.32 31.1914 161.932 35.1047C159.544 39.0181 157.976 42.3967 157.758 42.2995C157.539 42.2023 158.791 38.6535 161.245 34.6855C163.7 30.7174 166.337 28.0072 166.489 28.1531Z" fill="#1A2E35"/>
<path d="M114.644 55.5526C114.644 55.5526 114.468 55.4068 114.182 55.0725C113.797 54.551 113.499 53.9701 113.301 53.3528C112.941 52.2033 112.849 50.9863 113.033 49.7957C113.218 48.6051 113.673 47.4728 114.364 46.4862C116.078 43.8975 120.088 42.3662 124.019 43.4478C126.03 43.934 127.707 45.3438 129.426 46.4862C130.264 47.0878 131.202 47.5364 132.197 47.811C132.684 47.9251 133.191 47.9297 133.681 47.8246C134.17 47.7196 134.63 47.5074 135.028 47.2033C135.82 46.54 136.379 45.6417 136.626 44.6388C136.865 43.634 136.918 42.5943 136.784 41.5703C136.541 39.5224 136.049 37.4685 135.994 35.4936C135.775 31.5438 136.766 27.8492 138.722 25.4914C140.201 23.5841 142.345 22.3041 144.725 21.9062C145.364 21.8132 146.013 21.8132 146.651 21.9062C146.875 21.9295 147.094 21.9869 147.301 22.0763C146.458 22.0433 145.614 22.0921 144.78 22.2222C142.531 22.7219 140.537 24.0165 139.166 25.8682C137.386 28.1287 136.486 31.6532 136.735 35.4815C136.808 37.4138 137.294 39.3644 137.568 41.5581C137.841 43.7518 137.513 46.3161 135.514 47.9082C135.022 48.2791 134.455 48.5373 133.852 48.6643C133.25 48.7914 132.626 48.7842 132.027 48.6434C130.935 48.3453 129.906 47.8534 128.989 47.1912C127.203 45.9758 125.659 44.6693 123.818 44.2074C120.173 43.1501 116.448 44.5113 114.826 46.8508C114.161 47.7685 113.708 48.8219 113.498 49.9354C113.288 51.049 113.326 52.1953 113.611 53.2921C113.861 54.0855 114.207 54.8448 114.644 55.5526Z" fill="#1A2E35"/>
<path d="M232.8 56.999C232.8 57.0354 232.563 56.9321 232.144 56.9503C231.84 56.9842 231.548 57.0826 231.286 57.2387C231.024 57.3949 230.799 57.6052 230.625 57.8557C230.324 58.2154 230.159 58.6693 230.159 59.138C230.159 59.6067 230.324 60.0606 230.625 60.4202C231.048 60.8755 231.6 61.19 232.207 61.3215C232.815 61.4529 233.448 61.395 234.021 61.1555C234.695 60.8 235.268 60.2788 235.686 59.6411C236.104 59.0033 236.352 58.2698 236.409 57.5095C236.609 55.8384 236.093 54.0215 235.424 52.1985C234.756 50.3755 233.778 48.4856 232.065 47.41C231.186 46.8964 230.165 46.683 229.154 46.8024C228.059 46.9533 226.977 47.1951 225.922 47.5254C224.801 47.8869 223.624 48.0454 222.447 47.9934C221.848 47.9383 221.267 47.765 220.736 47.4833C220.205 47.2017 219.735 46.8173 219.354 46.3527C217.878 44.5297 217.677 42.1538 217.908 40.1789C218.139 38.204 218.588 36.3505 218.613 34.6308C218.631 33.0373 218.314 31.4577 217.683 29.9944C216.764 27.849 215.263 26.0031 213.351 24.6652C211.978 23.7415 211.085 23.4499 211.115 23.377C211.342 23.4022 211.563 23.4616 211.771 23.5532C212.382 23.7775 212.968 24.0625 213.521 24.4039C215.579 25.6897 217.209 27.557 218.206 29.7695C218.906 31.2951 219.272 32.9524 219.281 34.6308C219.281 36.4538 218.831 38.2768 218.643 40.2396C218.455 42.2023 218.686 44.2685 219.962 45.8363C220.277 46.2204 220.667 46.5373 221.107 46.7679C221.548 46.9986 222.03 47.1385 222.526 47.1792C223.607 47.2219 224.687 47.0717 225.715 46.7356C226.815 46.3943 227.941 46.1464 229.081 45.9943C230.263 45.8635 231.456 46.1216 232.478 46.7295C234.465 48.0056 235.418 50.0776 236.123 51.931C236.828 53.7844 237.338 55.729 237.077 57.5884C237 58.4584 236.699 59.2936 236.204 60.0133C235.709 60.7329 235.036 61.3126 234.252 61.6962C233.571 61.9727 232.82 62.0269 232.107 61.8513C231.393 61.6756 230.753 61.279 230.278 60.718C230.087 60.4825 229.945 60.2111 229.861 59.92C229.776 59.6288 229.751 59.3237 229.786 59.0226C229.851 58.5245 230.062 58.057 230.394 57.6796C230.6 57.4078 230.866 57.1877 231.172 57.0368C231.478 56.886 231.815 56.8085 232.156 56.8106C232.385 56.8047 232.61 56.8706 232.8 56.999Z" fill="#1A2E35"/>
<path d="M106.478 82.284C106.478 82.2414 106.691 82.3872 107.086 82.3872C107.372 82.3653 107.648 82.2721 107.889 82.116C108.13 81.96 108.328 81.7462 108.465 81.494C108.682 81.1578 108.759 80.7496 108.678 80.3576C108.616 80.1292 108.509 79.9156 108.363 79.7297C108.217 79.5438 108.035 79.3894 107.827 79.2759C107.311 78.989 106.714 78.8828 106.13 78.9742C105.547 79.0655 105.011 79.3493 104.607 79.7803C103.603 80.8809 103.052 82.3198 103.064 83.8092C103.045 84.615 103.256 85.4095 103.671 86.1001C104.135 86.7999 104.84 87.3039 105.652 87.5159C106.54 87.7568 107.478 87.7352 108.354 87.4537C109.229 87.1722 110.004 86.643 110.585 85.93C111.851 84.3241 112.521 82.3291 112.481 80.2847C112.424 78.1869 112.221 76.0955 111.873 74.0258C111.556 72.0263 111.605 69.9856 112.019 68.0039C112.491 66.207 113.44 64.5713 114.766 63.2701C115.893 62.1462 117.199 61.2161 118.63 60.5174C120.691 59.5543 122.865 58.8522 125.1 58.4271C125.896 58.2199 126.71 58.0896 127.531 58.0381C126.757 58.3289 125.963 58.5625 125.155 58.737C122.984 59.2672 120.877 60.0334 118.873 61.0218C117.523 61.7281 116.293 62.6427 115.227 63.732C114.014 64.9668 113.15 66.5019 112.724 68.1801C112.356 70.0763 112.329 72.023 112.645 73.9286C113.003 76.0358 113.206 78.1662 113.253 80.303C113.289 82.5351 112.546 84.7099 111.15 86.4525C110.447 87.2818 109.522 87.8933 108.483 88.2148C107.491 88.5018 106.438 88.5018 105.445 88.2148C104.465 87.9432 103.62 87.3201 103.07 86.4646C102.594 85.6565 102.362 84.728 102.401 83.791C102.419 82.1335 103.071 80.5459 104.224 79.355C104.721 78.8568 105.37 78.5393 106.068 78.4534C106.767 78.3675 107.473 78.5181 108.076 78.881C108.327 79.0326 108.544 79.2337 108.714 79.4719C108.884 79.7101 109.004 79.9804 109.066 80.2665C109.106 80.5077 109.097 80.7542 109.041 80.9919C108.984 81.2297 108.882 81.4541 108.738 81.652C108.566 81.9317 108.323 82.1611 108.034 82.3169C107.745 82.4727 107.42 82.5493 107.092 82.5391C106.862 82.5362 106.642 82.4448 106.478 82.284Z" fill="#1A2E35"/>
<path d="M160.042 8.95076C159.942 8.75572 159.859 8.55241 159.793 8.3431C159.52 7.79711 159.061 7.36628 158.499 7.12777C157.605 6.75355 156.611 6.69565 155.68 6.96369C155.076 7.10035 154.526 7.41572 154.104 7.86873C153.681 8.32174 153.405 8.89144 153.31 9.50376C152.812 12.2504 155.99 15.7141 159.769 15.0396C161.726 14.707 163.55 13.8287 165.03 12.5056C166.63 11.0434 168.068 9.41364 169.32 7.64427C170.611 5.82516 172.105 4.15946 173.773 2.67963C175.374 1.26558 177.357 0.356517 179.473 0.0667152C181.416 -0.099798 183.357 0.40649 184.971 1.50079C186.359 2.42279 187.532 3.63318 188.41 5.04953C189.609 7.10686 190.399 9.37659 190.737 11.7338C190.877 12.5542 190.944 13.1983 190.98 13.6358C191.014 13.8573 191.014 14.0828 190.98 14.3042C190.752 13.4776 190.565 12.64 190.421 11.7946C189.97 9.52526 189.122 7.35316 187.918 5.37769C187.057 4.05923 185.927 2.93865 184.601 2.09021C183.115 1.1005 181.336 0.648138 179.558 0.808048C177.595 1.10303 175.761 1.96709 174.284 3.29337C172.667 4.74613 171.22 6.37691 169.97 8.15469C168.681 9.97354 167.196 11.6446 165.541 13.1376C163.945 14.5537 161.975 15.4799 159.866 15.8052C158.895 15.95 157.903 15.8684 156.968 15.567C156.033 15.2655 155.181 14.7523 154.477 14.0672C153.836 13.494 153.344 12.7737 153.044 11.9681C152.743 11.1625 152.643 10.2959 152.751 9.44293C152.874 8.68398 153.249 7.98841 153.815 7.46802C154.313 7.01822 154.92 6.70617 155.576 6.56261C156.604 6.29958 157.692 6.41163 158.645 6.87861C159.249 7.17618 159.716 7.69363 159.951 8.32485C160.025 8.52482 160.056 8.73805 160.042 8.95076Z" fill="#1A2E35"/>
<path d="M183.744 14.2374C183.744 14.2374 183.683 14.1341 183.61 13.9335C183.52 13.6305 183.382 13.3434 183.203 13.0828C182.493 12.0953 181.483 11.3642 180.323 10.9985C178.498 10.3706 176.57 10.0963 174.642 10.1903C173.445 10.2123 172.256 10.3941 171.106 10.7311C169.851 11.1887 168.686 11.8656 167.667 12.7304C165.25 14.6678 163.185 17.0071 161.561 19.6456C161.13 20.3658 160.759 21.1197 160.449 21.9C160.149 22.7842 159.667 23.5957 159.034 24.2821C157.694 25.6593 156.019 26.6645 154.173 27.1989C153.237 27.4695 152.283 27.6726 151.318 27.8066C150.387 28.005 149.484 28.3129 148.626 28.7241C146.838 29.5547 145.301 30.8442 144.172 32.4613C143.035 34.15 142.465 36.157 142.544 38.1915C142.627 40.3315 142.883 42.4612 143.31 44.5598C143.644 46.7231 143.978 48.9472 143.601 51.147C143.264 53.3314 142.169 55.3275 140.509 56.7861C137.325 59.6664 133.339 60.8331 130.544 63.3002C129.137 64.4083 128.057 65.8788 127.421 67.5539C126.92 69.1561 127.069 70.891 127.835 72.3848C128.515 73.8918 129.463 75.2286 130.119 76.7052C130.837 78.1115 131.076 79.7141 130.8 81.2688C130.374 82.6479 129.472 83.8305 128.254 84.6048C127.246 85.2717 126.282 86.0025 125.368 86.7925C123.703 88.3238 123.49 90.4385 123.612 91.9759C123.732 93.1962 123.966 94.4026 124.311 95.5793C124.446 95.9764 124.554 96.3825 124.633 96.7946C124.569 96.7033 124.52 96.6029 124.487 96.4969C124.408 96.2963 124.292 95.9925 124.153 95.5914C123.736 94.4111 123.451 93.1884 123.302 91.9455C123.194 91.0384 123.243 90.1195 123.448 89.2292C123.703 88.1557 124.26 87.1775 125.052 86.4097C125.967 85.5913 126.933 84.8321 127.944 84.1369C129.045 83.4277 129.859 82.3512 130.241 81.0986C130.471 79.6674 130.23 78.2002 129.554 76.9179C128.946 75.5264 127.956 74.1895 127.233 72.6217C126.378 70.9779 126.204 69.0639 126.747 67.2925C127.409 65.4818 128.557 63.8883 130.064 62.6865C133.005 60.0918 137.003 58.8947 139.974 56.1602C141.502 54.8165 142.507 52.9766 142.811 50.9646C143.158 48.935 142.848 46.7899 142.514 44.6448C142.08 42.5023 141.824 40.3276 141.748 38.1429C141.667 35.9466 142.289 33.7817 143.522 31.963C144.733 30.2386 146.379 28.8653 148.292 27.9827C149.21 27.5471 150.177 27.2228 151.172 27.0166C152.112 26.8951 153.044 26.7124 153.96 26.4696C155.686 25.9795 157.255 25.0523 158.517 23.7777C159.098 23.1616 159.539 22.428 159.811 21.6266C160.144 20.8147 160.54 20.0303 160.996 19.281C162.678 16.584 164.821 14.2041 167.327 12.2503C168.411 11.3588 169.645 10.6693 170.973 10.2146C172.17 9.88271 173.406 9.7131 174.649 9.7103C176.629 9.65161 178.602 9.97977 180.457 10.6765C181.655 11.0918 182.678 11.8988 183.361 12.9674C183.531 13.2479 183.648 13.5567 183.708 13.8789C183.739 13.9956 183.752 14.1167 183.744 14.2374Z" fill="#375A64"/>
<g opacity="0.3">
<path opacity="0.3" d="M121.188 243.57C112.621 221.087 112.341 195.346 117.603 171.866C116.333 184.402 118.277 196.853 120.884 209.182C123.314 220.728 126.279 220.868 124.177 233.72C123.886 235.469 123.441 237.19 122.846 238.861L121.188 243.57Z" fill="black"/>
</g>
<path d="M156.257 262.183C156.257 261.679 156.455 261.196 156.809 260.838C157.163 260.48 157.643 260.275 158.147 260.269L213.108 259.576L234.805 192.295C235.161 191.192 235.866 190.235 236.812 189.565C237.758 188.896 238.896 188.551 240.054 188.583L323.481 190.928C324.334 190.953 325.168 191.181 325.915 191.593C326.662 192.006 327.3 192.59 327.775 193.299C328.25 194.007 328.55 194.819 328.648 195.666C328.747 196.514 328.642 197.373 328.342 198.171L302.137 267.7L158.141 264.097C157.638 264.089 157.159 263.884 156.807 263.526C156.454 263.168 156.257 262.685 156.257 262.183Z" fill="#375A64"/>
<path d="M279.523 226.252C278.544 224.429 274.413 223.821 272.426 225.34C271.161 226.065 270.233 227.259 269.844 228.664C269.279 230.888 270.537 233.525 272.718 234.206C274.899 234.886 277.196 233.726 278.581 231.994C279.863 230.378 280.501 228.075 279.523 226.252Z" fill="white"/>
</g>
<defs>
<clipPath id="clip0_312_1938">
<rect width="328.688" height="356" fill="white"/>
</clipPath>
</defs>
</svg>
