<svg width="105" height="104" viewBox="0 0 105 104" fill="none" xmlns="http://www.w3.org/2000/svg">
<g clip-path="url(#clip0_131_361)">
<!-- ALA IZQ -->
<path d="M12.8619 56.0106C12.7299 56.0114 12.5982 55.9986 12.4689 55.9722L1.68682 53.9C1.34216 53.833 1.01986 53.6801 0.74988 53.4553C0.479902 53.2306 0.270888 52.9413 0.142234 52.6142C0.0135797 52.2871 -0.0305795 51.9327 0.0138436 51.584C0.0582668 51.2353 0.189931 50.9034 0.396467 50.6191C4.4835 45.1148 9.32498 40.2151 14.7782 36.0645C25.9533 27.4167 37.2258 19.7475 52.1677 20.9317C52.7211 20.9751 53.2347 21.2369 53.5954 21.6595C53.9561 22.0821 54.1345 22.6309 54.0911 23.1851C54.0478 23.7393 53.7863 24.2536 53.3643 24.6148C52.9423 24.976 52.3942 25.1545 51.8408 25.111C38.3875 24.0383 27.8419 31.2582 17.3277 39.3905C13.0847 42.6361 9.2206 46.3501 5.80839 50.4624L13.2654 51.8939C13.7706 51.9964 14.22 52.2826 14.527 52.6973C14.8341 53.112 14.9768 53.6258 14.928 54.1397C14.8792 54.6536 14.6422 55.1312 14.2626 55.4805C13.883 55.8298 13.3877 56.026 12.8722 56.0314L12.8619 56.0106Z" fill="black"/> 
<!-- CUERPO -->
<path d="M48.9053 82.6435C48.352 82.643 47.8217 82.4225 47.4307 82.0305L23.0841 57.6509C22.7506 57.3159 22.5404 56.8776 22.488 56.4075C22.4356 55.9375 22.544 55.4635 22.7954 55.0631C35.3165 35.1101 49.5454 22.0009 59.2841 14.5198C68.6692 7.37775 79.5685 2.49207 91.1398 0.240331C93.0097 -0.127612 94.9413 -0.0294155 96.7644 0.526285C98.5874 1.08198 100.246 2.07816 101.594 3.42698C102.942 4.77579 103.938 6.43587 104.494 8.26098C105.051 10.0861 105.15 12.0202 104.784 13.8929C102.538 25.4838 97.6588 36.4019 90.5242 45.8024C83.0498 55.5542 69.9583 69.8128 50.0323 82.3439C49.6927 82.549 49.3018 82.6529 48.9053 82.6435ZM27.2125 55.8851L49.1976 77.9069C67.8123 65.926 80.1108 52.5033 87.1991 43.2495C93.9459 34.3648 98.5608 24.045 100.687 13.0884C100.925 11.8879 100.864 10.6472 100.509 9.47597C100.154 8.30473 99.5169 7.23894 98.6534 6.37282C97.7898 5.5067 96.7265 4.86687 95.5574 4.50983C94.3883 4.15279 93.1495 4.08953 91.9502 4.32565C81.0049 6.45535 70.6953 11.0778 61.8194 17.8355C52.5781 24.923 39.1736 37.2347 27.2125 55.8851Z" fill="black"/>
<!-- ALA DER -->
<path d="M54.2511 104C54.0143 104.003 53.7789 103.964 53.5555 103.885C53.2287 103.771 52.9352 103.578 52.7015 103.323C52.4677 103.068 52.3011 102.758 52.2164 102.422L49.6184 92.04C49.5108 91.5125 49.6107 90.9637 49.8972 90.5082C50.1838 90.0526 50.6348 89.7254 51.1564 89.5947C51.678 89.464 52.2298 89.5399 52.6969 89.8067C53.1639 90.0734 53.5102 90.5104 53.6634 91.0265L55.4651 98.2255C59.1478 95.0228 62.498 91.4557 65.4646 87.5786C73.5824 77.057 80.7682 66.5006 79.7247 53.0187C79.6895 52.7383 79.7113 52.4536 79.7891 52.1819C79.8669 51.9102 79.9989 51.6571 80.1772 51.438C80.3554 51.2189 80.5763 51.0382 80.8262 50.907C81.0762 50.7758 81.3502 50.6967 81.6316 50.6745C81.913 50.6524 82.1958 50.6875 82.4632 50.778C82.7306 50.8685 82.9769 51.0124 83.1872 51.2009C83.3975 51.3895 83.5674 51.6187 83.6867 51.8749C83.8059 52.1311 83.872 52.4089 83.8809 52.6913C85.0565 67.6674 77.4014 78.9377 68.7688 90.128C64.9435 95.1569 60.49 99.6737 55.5172 103.568C55.1539 103.847 54.709 103.999 54.2511 104Z" fill="black"/>
<!-- Punta -->
<path d="M98.075 30.7671C97.9749 30.7671 97.875 30.7601 97.7759 30.7463C91.8593 29.8744 86.3807 27.1168 82.152 22.8824C77.9233 18.6479 75.1695 13.1619 74.2988 7.23732L78.4272 6.64526C79.1695 11.6761 81.5094 16.334 85.1004 19.9299C88.6915 23.5259 93.3431 25.8688 98.3671 26.6121C98.8848 26.6918 99.3538 26.9635 99.6807 27.3733C100.008 27.7831 100.169 28.3011 100.132 28.8243C100.095 29.3476 99.8632 29.8378 99.4822 30.1977C99.1011 30.5576 98.5988 30.7609 98.075 30.7671Z" fill="black"/>
<!--  -->
<path d="M58.8736 75.8415C58.3208 75.842 57.7903 75.6228 57.3988 75.2321L29.8698 47.6656C29.6647 47.4743 29.5003 47.2437 29.3862 46.9873C29.2722 46.731 29.2108 46.4543 29.2059 46.1737C29.2009 45.8931 29.2526 45.6144 29.3575 45.3542C29.4625 45.094 29.6186 44.8576 29.8168 44.6591C30.0149 44.4607 30.251 44.3043 30.5109 44.1992C30.7707 44.0941 31.0491 44.0425 31.3293 44.0474C31.6095 44.0524 31.8857 44.1138 32.1417 44.228C32.3977 44.3423 32.6281 44.5069 32.8192 44.7122L60.3482 72.2786C60.6385 72.5711 60.8359 72.9429 60.9156 73.3475C60.9953 73.752 60.9537 74.1711 60.796 74.552C60.6384 74.9329 60.3717 75.2585 60.0296 75.488C59.6875 75.7175 59.2853 75.8405 58.8736 75.8415Z" fill="black"/>
<path d="M22.8024 92.1654C20.3322 92.1334 17.8812 91.726 15.5332 90.9569C15.2121 90.856 14.9199 90.6789 14.6819 90.4406C14.4439 90.2022 14.267 89.9098 14.1663 89.5882C12.3125 83.6674 12.5908 78.5233 14.9906 74.3265C18.5905 68.0296 25.6439 66.3161 25.9431 66.2638C26.2141 66.1892 26.4975 66.1702 26.7761 66.208C27.0547 66.2457 27.3227 66.3394 27.5642 66.4835C27.8058 66.6275 28.0158 66.819 28.1816 67.0464C28.3474 67.2737 28.4655 67.5322 28.529 67.8064C28.5926 68.0807 28.6002 68.3649 28.5513 68.6421C28.5024 68.9193 28.3981 69.1838 28.2446 69.4197C28.0911 69.6555 27.8917 69.8578 27.6582 70.0146C27.4246 70.1713 27.1618 70.2792 26.8856 70.3317C26.8369 70.3317 21.2617 71.7248 18.5905 76.4336C16.9419 79.3417 16.6914 82.9847 17.8392 87.279C22.1416 88.4318 25.7936 88.1741 28.7012 86.5058C33.428 83.7962 34.7532 78.276 34.7636 78.2202C34.9065 77.6999 35.2447 77.2551 35.7077 76.9789C36.1707 76.7027 36.7224 76.6166 37.2474 76.7386C37.7723 76.8606 38.2299 77.1812 38.5241 77.6333C38.8184 78.0854 38.9265 78.634 38.8259 79.1642C38.7563 79.4602 37.0626 86.5268 30.7742 90.1315C28.3427 91.5019 25.5924 92.2036 22.8024 92.1654Z" fill="black"/>
<path d="M71.8746 40.1429C70.2656 40.1424 68.7066 39.5834 67.4629 38.5611C66.2193 37.5388 65.368 36.1165 65.0541 34.5362C64.7402 32.956 64.9831 31.3156 65.7414 29.8946C66.4996 28.4735 67.7263 27.3597 69.2127 26.7427C70.699 26.1257 72.3531 26.0437 73.893 26.5107C75.4329 26.9778 76.7636 27.965 77.6582 29.3041C78.5529 30.6433 78.9564 32.2515 78.7998 33.8551C78.6433 35.4586 77.9364 36.9582 76.7996 38.0985C76.1549 38.7489 75.3875 39.2647 74.5421 39.6156C73.6966 39.9666 72.7898 40.1458 71.8746 40.1429ZM71.8746 30.3736C71.3197 30.3683 70.776 30.5291 70.3132 30.8356C69.8503 31.142 69.4896 31.58 69.2772 32.0933C69.0648 32.6066 69.0105 33.1718 69.1213 33.7162C69.2321 34.2606 69.5031 34.7594 69.8991 35.1485C70.4315 35.657 71.1389 35.9407 71.8746 35.9407C72.6103 35.9407 73.3178 35.657 73.8502 35.1485C74.2462 34.7594 74.517 34.2606 74.6278 33.7162C74.7386 33.1718 74.6845 32.6066 74.4721 32.0933C74.2597 31.58 73.8988 31.142 73.436 30.8356C72.9731 30.5291 72.4294 30.3683 71.8746 30.3736Z" fill="rgb(9, 186, 139)"/>
<path d="M57.2633 54.7741C55.6541 54.7737 54.0947 54.2145 52.851 53.192C51.6073 52.1694 50.7562 50.7467 50.4425 49.1662C50.1289 47.5857 50.3721 45.9452 51.1308 44.5242C51.8896 43.1031 53.1169 41.9894 54.6037 41.3729C56.0904 40.7563 57.7447 40.6751 59.2846 41.1429C60.8245 41.6107 62.1548 42.5986 63.0489 43.9384C63.943 45.2782 64.3457 46.8869 64.1881 48.4905C64.0305 50.0942 63.3225 51.5936 62.1848 52.7332C61.5398 53.3821 60.7729 53.8967 59.9281 54.247C59.0834 54.5973 58.1777 54.7765 57.2633 54.7741ZM57.2633 45.0223C56.7085 45.0169 56.1646 45.1778 55.7018 45.4842C55.2389 45.7907 54.8782 46.2286 54.6658 46.7419C54.4534 47.2552 54.3993 47.8204 54.5101 48.3649C54.6209 48.9093 54.8917 49.4081 55.2877 49.7972C55.8187 50.307 56.5258 50.5916 57.2615 50.5916C57.9971 50.5916 58.7044 50.307 59.2354 49.7972C59.6312 49.4083 59.9019 48.9098 60.0129 48.3657C60.1238 47.8216 60.0697 47.2568 59.8578 46.7436C59.6459 46.2304 59.2857 45.7924 58.8234 45.4857C58.3611 45.179 57.8179 45.0176 57.2633 45.0223Z" fill="rgb(9, 186, 139)"/>
</g>
<defs>
<clipPath id="clip0_131_361">
<rect width="105" height="104" fill="white"/>
</clipPath>
</defs>
</svg>
