<svg width="120" height="263" viewBox="0 0 120 263" fill="none" xmlns="http://www.w3.org/2000/svg">
<g clip-path="url(#clip0_89:692)">
<path d="M44.7065 0H74.7017C86.5578 0.00115782 97.9279 4.70534 106.311 13.0778C114.694 21.4503 119.404 32.8053 119.404 44.6451V174.573C119.404 178.228 118.683 181.847 117.282 185.224C115.882 188.6 113.829 191.669 111.241 194.253C108.653 196.837 105.58 198.888 102.199 200.286C98.8174 201.685 95.1932 202.405 91.5332 202.405H27.8705C20.4788 202.405 13.3898 199.473 8.16308 194.253C2.93635 189.033 0 181.954 0 174.573V44.6451C0 32.8045 4.71013 21.4488 13.0942 13.0763C21.4783 4.70367 32.8496 0 44.7065 0V0Z" fill="#FAA600"/>
<g style="mix-blend-mode:multiply">
<g style="mix-blend-mode:multiply">
<path d="M59.7019 262.025C92.6743 262.025 119.404 235.332 119.404 202.405C119.404 169.478 92.6743 142.785 59.7019 142.785C26.7294 142.785 0 169.478 0 202.405C0 235.332 26.7294 262.025 59.7019 262.025Z" fill="#B0A3A3"/>
</g>
</g>
<path d="M59.7019 262.025C92.6743 262.025 119.404 235.332 119.404 202.405C119.404 169.478 92.6743 142.785 59.7019 142.785C26.7294 142.785 0 169.478 0 202.405C0 235.332 26.7294 262.025 59.7019 262.025Z" fill="url(#paint0_radial_89:692)"/>
<path d="M99.0274 241.682C120.748 219.992 120.748 184.824 99.0275 163.134C77.3071 141.443 42.0913 141.443 20.3709 163.134C-1.34946 184.824 -1.34942 219.992 20.371 241.682C42.0914 263.373 77.307 263.373 99.0274 241.682Z" fill="url(#paint1_linear_89:692)"/>
<path d="M51.8421 119H68.9421V48.8H51.8421V119Z" fill="#FFC444"/>
<path d="M51.8421 119H50.8421V120H51.8421V119ZM68.9421 119V120H69.9421V119H68.9421ZM68.9421 48.8H69.9421V47.8H68.9421V48.8ZM51.8421 48.8V47.8H50.8421V48.8H51.8421ZM51.8421 120H68.9421V118H51.8421V120ZM69.9421 119V48.8H67.9421V119H69.9421ZM68.9421 47.8H51.8421V49.8H68.9421V47.8ZM50.8421 48.8V119H52.8421V48.8H50.8421Z" fill="#FFE6B8"/>
</g>
<defs>
<radialGradient id="paint0_radial_89:692" cx="0" cy="0" r="1" gradientUnits="userSpaceOnUse" gradientTransform="translate(50.0051 168.264) scale(137.866 137.677)">
<stop stop-color="white"/>
<stop offset="1" stop-color="#C4BBBB"/>
</radialGradient>
<linearGradient id="paint1_linear_89:692" x1="4.07989" y1="202.405" x2="115.321" y2="202.405" gradientUnits="userSpaceOnUse">
<stop stop-color="#C4BBBB"/>
<stop offset="1" stop-color="white"/>
</linearGradient>
<clipPath id="clip0_89:692">
<rect width="119.404" height="262.025" fill="white"/>
</clipPath>
</defs>
</svg>
