<svg width="262" height="466" viewBox="0 0 262 466" fill="none" xmlns="http://www.w3.org/2000/svg">
<g clip-path="url(#clip0_89:404)">
<path d="M101.522 44.928C70.4436 23.8827 28.0941 15.4498 -1.81952 60.741C-21.3216 90.2154 -11.4443 133.39 17.5168 157.294C52.7306 186.352 89.8276 180.171 122.617 140.729C145.168 113.555 140.386 71.2424 101.522 44.928Z" fill="#10DD8E"/>
<path d="M22.5925 150.474C-3.39177 129.037 -10.9462 91.0191 5.75274 65.7497C16.0175 50.2095 28.7023 40.8517 43.4574 37.9205C59.6505 34.69 78.47 39.6269 96.4127 51.775C113.198 63.1416 123.77 78.7933 126.191 95.8578C127.238 102.995 126.761 110.274 124.789 117.214C122.818 124.155 119.398 130.6 114.755 136.124C106.279 146.326 97.4811 153.935 88.4501 158.991C66.8954 171.068 44.2294 168.334 22.5925 150.474ZM94.1938 55.0594C86.7783 49.9123 78.602 45.9578 69.9617 43.3398C60.9345 40.7204 52.2749 40.2002 44.2196 41.8021C30.549 44.5151 18.7117 53.3011 9.05019 67.9201C-6.56942 91.5543 0.639725 127.217 25.1187 147.425C39.5561 159.309 54.297 164.156 68.9861 161.767C83.6753 159.379 98.0963 149.924 111.691 133.57C115.978 128.469 119.136 122.518 120.957 116.109C122.778 109.7 123.221 102.979 122.256 96.3885C119.993 80.4413 109.983 65.7774 94.1772 55.0298L94.1938 55.0594Z" fill="#30262A"/>
<path d="M67.2992 140.956L66.4143 136.317C66.2814 135.525 65.8604 134.811 65.2323 134.312C64.6042 133.812 63.8133 133.563 63.0121 133.612C59.4042 133.914 55.7717 133.544 52.3 132.519C51.5554 132.258 50.925 131.747 50.517 131.072C50.1089 130.397 49.9488 129.601 50.064 128.821L50.209 127.689C50.2485 127.237 50.3869 126.8 50.6143 126.408C50.8418 126.016 51.1528 125.678 51.5253 125.42C51.8977 125.161 52.3225 124.987 52.7694 124.911C53.2164 124.835 53.6747 124.858 54.1117 124.979C57.944 126.103 61.9893 126.298 65.913 125.549C72.926 124.171 75.2108 118.467 74.0358 112.249C72.8945 106.265 69.9889 103.612 62.0105 101.806C51.0464 99.4639 40.0695 96.4383 38.272 86.9705C36.6982 78.7194 39.8767 69.432 51.5065 66.7236C52.89 66.3964 53.4749 64.5907 53.1966 63.1029L52.2262 58.0152C52.0396 57.1748 52.1932 56.2944 52.6535 55.5666C53.1139 54.8387 53.8435 54.3224 54.6831 54.1304C55.1015 54.0602 55.5296 54.0735 55.9427 54.1696C56.3557 54.2658 56.7456 54.4429 57.0897 54.6906C57.4339 54.9384 57.7254 55.252 57.9475 55.6132C58.1696 55.9744 58.3179 56.3761 58.3837 56.795L59.189 61.0317C59.3137 61.8132 59.7209 62.5219 60.3333 63.0232C60.9458 63.5246 61.7209 63.7838 62.5121 63.7518C65.2249 63.5299 67.9557 63.752 70.5966 64.4094C71.3889 64.6433 72.0686 65.1581 72.5083 65.8571C72.948 66.5562 73.1177 67.3917 72.9854 68.207L72.8221 69.271C72.7733 69.7054 72.6328 70.1245 72.41 70.5007C72.1871 70.8768 71.887 71.2014 71.5294 71.4531C71.1718 71.7048 70.7649 71.8778 70.3356 71.9607C69.9063 72.0435 69.4643 72.0343 69.0389 71.9338C65.7679 71.1334 62.3595 71.0716 59.061 71.7528C51.4086 73.275 49.4903 78.8518 50.3125 83.2056C51.3893 88.8659 56.829 88.3101 66.2377 90.5507C77.3771 93.0671 85.0334 98.2435 87.705 107.708C90.5459 117.788 86.2554 126.132 74.1999 130.635C73.546 130.954 73.0214 131.488 72.7138 132.147C72.4062 132.806 72.3341 133.55 72.5098 134.256L73.5373 139.672C73.7239 140.512 73.5709 141.393 73.1116 142.122C72.6522 142.85 71.9237 143.369 71.0844 143.563L71.003 143.609C70.5853 143.679 70.1581 143.665 69.7457 143.57C69.3334 143.474 68.944 143.298 68.6 143.052C68.2559 142.805 67.9638 142.493 67.7406 142.134C67.5174 141.774 67.3674 141.374 67.2992 140.956Z" fill="#30262A"/>
<path d="M92.8371 306.481C70.4517 266.497 28.839 233.882 -28.5698 266.023C-65.9533 286.952 -78.8757 338.972 -60.3782 380.842C-37.8877 431.738 5.96625 445.708 63.3735 421.456C102.848 404.714 120.811 356.447 92.8371 306.481Z" fill="#10DD8E"/>
<path d="M57.2728 412.141C6.97923 433.422 -31.5021 420.723 -51.0989 376.386C-67.6976 338.812 -55.103 293.627 -23.0167 275.664C0.0238789 262.764 21.8773 260.78 41.9386 269.778C62.345 278.922 75.8011 297.239 83.5034 310.997C95.6205 332.64 98.5522 355.449 91.7727 375.233C86.9208 389.598 76.8922 401.644 63.6422 409.022C61.5779 410.178 59.4516 411.219 57.2728 412.141ZM-46.6934 374.435C-37.4795 395.272 -24.0153 408.702 -6.66382 414.354C10.6876 420.006 31.5987 417.781 55.3941 407.707C62.817 404.624 69.4958 399.99 74.983 394.117C80.4702 388.244 84.6391 381.267 87.2104 373.654C93.5495 355.186 90.7276 333.755 79.2944 313.334C44.8871 251.876 -2.0874 269.422 -20.6828 279.832C-50.6412 296.644 -62.3189 339.068 -46.6934 374.435Z" fill="#30262A"/>
<path d="M45.7409 387.145L42.2185 382.592C41.6482 381.802 40.8033 381.255 39.8497 381.056C38.8961 380.858 37.9025 381.023 37.064 381.519C33.3542 383.861 29.2339 385.478 24.9218 386.284C23.9703 386.418 23.0022 386.214 22.1856 385.708C21.3691 385.203 20.7558 384.426 20.4524 383.515L19.9884 382.2C19.7838 381.687 19.6935 381.135 19.7237 380.584C19.754 380.032 19.9041 379.494 20.1635 379.006C20.423 378.518 20.7856 378.093 21.2261 377.759C21.6666 377.426 22.1745 377.192 22.7144 377.075C27.4722 376.171 31.943 374.135 35.7485 371.139C42.5759 365.693 41.8944 358.236 37.2202 352.129C32.7116 346.231 28.1139 344.954 18.5366 347.417C5.43245 350.951 -8.07376 353.767 -15.1861 344.434C-21.4027 336.303 -23.0625 324.404 -12.0188 314.983C-10.6988 313.864 -11.04 311.517 -12.1781 310.092L-16.0103 305.09C-16.6695 304.271 -16.984 303.228 -16.8873 302.181C-16.7906 301.134 -16.2903 300.165 -15.4922 299.48C-15.0821 299.17 -14.6141 298.946 -14.1158 298.821C-13.6175 298.695 -13.0991 298.671 -12.5914 298.75C-12.0837 298.828 -11.597 299.008 -11.1602 299.278C-10.7233 299.548 -10.3452 299.903 -10.0483 300.322L-6.85519 304.496C-6.29789 305.277 -5.47093 305.823 -4.53404 306.03C-3.59714 306.236 -2.61675 306.088 -1.78226 305.615C1.01255 303.867 4.07622 302.592 7.28557 301.841C8.27401 301.652 9.29728 301.835 10.159 302.354C11.0206 302.873 11.6601 303.692 11.9547 304.654L12.375 305.926C12.5623 306.424 12.6425 306.956 12.6102 307.487C12.5779 308.019 12.4338 308.537 12.1874 309.009C11.9411 309.481 11.5981 309.896 11.1806 310.226C10.7632 310.557 10.2807 310.796 9.76475 310.927C5.79071 311.879 2.08064 313.71 -1.09176 316.286C-8.49082 322.188 -7.52649 329.351 -4.25311 333.616C0.00466976 339.188 5.6066 335.585 16.9277 332.777C30.2887 329.372 41.4163 330.737 49.4862 339.572C58.1087 349.012 58.0192 360.48 47.4992 372.088C46.324 373.378 46.5202 375.554 47.6625 376.986L51.734 382.312C52.3932 383.131 52.7078 384.174 52.6111 385.221C52.5144 386.268 52.014 387.236 51.2159 387.921L51.1122 387.98C50.2873 388.576 49.2602 388.823 48.2544 388.667C47.2486 388.511 46.3453 387.964 45.7409 387.145Z" fill="#30262A"/>
<g clip-path="url(#clip1_89:404)">
<path d="M164.928 192.743C144.171 178.687 115.885 173.054 95.9052 203.305C82.8796 222.991 89.4767 251.828 108.82 267.793C132.34 287.202 157.117 283.073 179.018 256.73C194.08 238.58 190.886 210.319 164.928 192.743Z" fill="#10DD8E"/>
<path d="M112.21 263.238C94.8549 248.92 89.8092 223.528 100.963 206.65C107.819 196.271 116.291 190.021 126.146 188.063C136.961 185.905 149.531 189.203 161.515 197.316C172.726 204.908 179.788 215.362 181.405 226.76C182.104 231.527 181.785 236.388 180.468 241.024C179.152 245.66 176.868 249.964 173.767 253.654C168.105 260.468 162.229 265.55 156.197 268.927C141.8 276.994 126.662 275.167 112.21 263.238ZM160.033 199.51C155.08 196.072 149.619 193.431 143.848 191.683C137.819 189.933 132.035 189.586 126.655 190.655C117.524 192.467 109.618 198.336 103.165 208.1C92.7325 223.886 97.5475 247.705 113.897 261.202C123.54 269.139 133.386 272.377 143.197 270.782C153.008 269.186 162.64 262.871 171.72 251.948C174.583 248.541 176.693 244.566 177.909 240.286C179.125 236.005 179.421 231.516 178.776 227.114C177.265 216.463 170.579 206.669 160.022 199.49L160.033 199.51Z" fill="#30262A"/>
<path d="M142.07 256.881L141.479 253.783C141.39 253.254 141.109 252.777 140.69 252.443C140.27 252.11 139.742 251.943 139.207 251.976C136.797 252.178 134.371 251.931 132.052 251.246C131.555 251.072 131.134 250.73 130.861 250.279C130.589 249.829 130.482 249.297 130.559 248.776L130.655 248.02C130.682 247.718 130.774 247.426 130.926 247.164C131.078 246.902 131.286 246.677 131.535 246.504C131.783 246.332 132.067 246.216 132.366 246.165C132.664 246.114 132.97 246.129 133.262 246.21C135.822 246.961 138.524 247.091 141.144 246.591C145.828 245.67 147.354 241.86 146.57 237.707C145.807 233.711 143.867 231.939 138.538 230.733C131.215 229.168 123.883 227.147 122.683 220.824C121.631 215.313 123.754 209.11 131.522 207.301C132.446 207.082 132.837 205.876 132.651 204.882L132.003 201.484C131.878 200.923 131.981 200.335 132.288 199.849C132.596 199.363 133.083 199.018 133.644 198.89C133.923 198.843 134.209 198.851 134.485 198.916C134.761 198.98 135.021 199.098 135.251 199.264C135.481 199.429 135.676 199.639 135.824 199.88C135.972 200.121 136.071 200.389 136.115 200.669L136.653 203.499C136.736 204.021 137.008 204.494 137.418 204.829C137.827 205.164 138.344 205.337 138.873 205.316C140.685 205.168 142.509 205.316 144.272 205.755C144.802 205.911 145.256 206.255 145.549 206.722C145.843 207.189 145.956 207.747 145.868 208.291L145.759 209.002C145.726 209.292 145.632 209.572 145.484 209.823C145.335 210.075 145.134 210.291 144.895 210.46C144.657 210.628 144.385 210.743 144.098 210.799C143.811 210.854 143.516 210.848 143.232 210.781C141.047 210.246 138.771 210.205 136.568 210.66C131.457 211.676 130.175 215.401 130.725 218.309C131.444 222.09 135.077 221.719 141.361 223.215C148.801 224.896 153.915 228.353 155.699 234.675C157.597 241.407 154.731 246.98 146.679 249.988C146.242 250.201 145.892 250.557 145.687 250.997C145.481 251.438 145.433 251.935 145.55 252.406L146.237 256.023C146.361 256.585 146.259 257.173 145.952 257.66C145.645 258.147 145.159 258.493 144.598 258.623L144.544 258.653C144.265 258.7 143.98 258.691 143.704 258.627C143.429 258.563 143.169 258.446 142.939 258.281C142.709 258.116 142.514 257.908 142.365 257.668C142.216 257.428 142.116 257.16 142.07 256.881Z" fill="#30262A"/>
</g>
</g>
<defs>
<clipPath id="clip0_89:404">
<rect width="315.314" height="356.548" fill="white" transform="translate(-188 154.033) rotate(-29.2424)"/>
</clipPath>
<clipPath id="clip1_89:404">
<rect width="210.602" height="238.142" fill="white" transform="translate(-28.4468 265.615) rotate(-29.2424)"/>
</clipPath>
</defs>
</svg>
