<svg width="68" height="55" viewBox="0 0 68 55" fill="none" xmlns="http://www.w3.org/2000/svg">
<g clip-path="url(#clip0_89:761)">
<path d="M15.2615 54.9998C14.9072 54.9998 14.5674 54.8574 14.3169 54.6038C14.0663 54.3501 13.9255 54.0062 13.9255 53.6475V44.5259C13.9255 44.1673 14.0663 43.8233 14.3169 43.5697C14.5674 43.3161 14.9072 43.1736 15.2615 43.1736C15.6159 43.1736 15.9557 43.3161 16.2062 43.5697C16.4568 43.8233 16.5975 44.1673 16.5975 44.5259V53.6475C16.5975 54.0062 16.4568 54.3501 16.2062 54.6038C15.9557 54.8574 15.6159 54.9998 15.2615 54.9998Z" fill="#1A2E35"/>
<path d="M36.9625 54.9998C36.6081 54.9998 36.2684 54.8574 36.0178 54.6038C35.7673 54.3501 35.6265 54.0062 35.6265 53.6475V44.5259C35.6265 44.1673 35.7673 43.8233 36.0178 43.5697C36.2684 43.3161 36.6081 43.1736 36.9625 43.1736C37.3168 43.1736 37.6566 43.3161 37.9071 43.5697C38.1577 43.8233 38.2984 44.1673 38.2984 44.5259V53.6475C38.2984 54.0062 38.1577 54.3501 37.9071 54.6038C37.6566 54.8574 37.3168 54.9998 36.9625 54.9998Z" fill="#1A2E35"/>
<path d="M25.8469 35.898C22.5804 35.898 19.7325 33.8154 17.664 29.8597C16.2415 27.0536 15.5148 23.9394 15.5464 20.7855V20.4699C15.5426 19.2254 15.8681 18.0025 16.4892 16.9283C17.1102 15.8542 18.0041 14.9681 19.0779 14.3619C20.6365 13.4874 23.1237 12.446 26.0674 12.446C29.1246 12.446 31.8233 13.7984 33.549 14.9254C34.5121 15.5595 35.3023 16.4284 35.847 17.4524C36.3917 18.4764 36.6734 19.6226 36.6663 20.7855C36.6982 23.965 35.9596 27.1038 34.5153 29.9274C32.4022 33.9303 29.463 35.9926 26.054 35.8957L25.8469 35.898ZM26.0696 15.1485C23.6938 15.1485 21.6586 16.0072 20.3716 16.7262C19.7147 17.0978 19.1684 17.6409 18.7897 18.299C18.411 18.9571 18.2137 19.7061 18.2184 20.4677V20.7833C18.1871 23.4961 18.8068 26.1761 20.0242 28.5931C21.6564 31.7147 23.696 33.2925 26.0763 33.191C28.5256 33.2609 30.5474 31.7328 32.1729 28.6517C33.4116 26.2204 34.0424 23.5187 34.0099 20.7833C34.0145 20.0706 33.8419 19.3683 33.508 18.7408C33.1742 18.1134 32.6898 17.581 32.0994 17.1927C30.6744 16.2619 28.4722 15.1485 26.0674 15.1485H26.0696Z" fill="#1A2E35"/>
<path d="M47.145 55H5.07892C4.72459 55 4.38479 54.8575 4.13424 54.6039C3.8837 54.3503 3.74292 54.0063 3.74292 53.6476V49.07C4.01235 38.9274 10.2871 31.0071 18.0292 31.0071H21.0641C21.4183 31.0074 21.7579 31.1501 22.0082 31.4038C23.2373 32.6502 24.5511 33.2452 26.0808 33.1911C27.6595 33.2452 28.9999 32.6502 30.229 31.4038C30.4793 31.1501 30.8189 31.0074 31.1731 31.0071H34.2014C41.9435 31.0071 48.2294 38.9251 48.4877 49.0384V53.6544C48.4868 53.832 48.4514 54.0077 48.3834 54.1714C48.3155 54.3352 48.2163 54.4837 48.0916 54.6087C47.967 54.7336 47.8192 54.8325 47.6568 54.8997C47.4944 54.9668 47.3204 55.0009 47.145 55ZM6.41268 52.2953H45.8112V49.07C45.5885 40.6155 40.3759 33.7095 34.1947 33.7095H31.6987C30.0443 35.2196 28.1494 35.9634 26.0741 35.8935C24.0545 35.9454 22.1797 35.2174 20.5253 33.7095H18.0292C11.848 33.7095 6.63758 40.6155 6.41268 49.1038V52.2953Z" fill="#1A2E35"/>
<path d="M48.9776 38.5082C48.6233 38.5082 48.2835 38.3658 48.0329 38.1122C47.7824 37.8585 47.6416 37.5146 47.6416 37.1559C47.6416 36.7972 47.7824 36.4532 48.0329 36.1996C48.2835 35.946 48.6233 35.8035 48.9776 35.8035C51.8667 35.8033 54.704 35.0283 57.201 33.5574C59.698 32.0865 61.7655 29.9723 63.193 27.4298C64.6205 24.8874 65.3571 22.0075 65.3279 19.0833C65.2986 16.159 64.5046 13.2949 63.0265 10.7822C61.5485 8.26951 59.4392 6.19803 56.9133 4.77861C54.3874 3.35919 51.5351 2.64251 48.6466 2.70144C45.7582 2.76037 42.9368 3.59282 40.4694 5.11411C38.0021 6.63539 35.9769 8.7912 34.6001 11.3621C34.4241 11.6636 34.1395 11.8842 33.8061 11.9776C33.4727 12.0711 33.1165 12.0299 32.8125 11.8629C32.5085 11.6959 32.2803 11.416 32.176 11.0821C32.0717 10.7483 32.0993 10.3865 32.2532 10.0729C33.855 7.08242 36.2109 4.57487 39.0811 2.80544C41.9513 1.03602 45.2334 0.0678564 48.5934 -0.000505267C51.9533 -0.0688669 55.2712 0.765041 58.2093 2.41629C61.1474 4.06754 63.601 6.47717 65.3202 9.40006C67.0395 12.323 67.963 15.6547 67.997 19.0563C68.0309 22.4579 67.174 25.8078 65.5135 28.7653C63.8529 31.7227 61.448 34.1821 58.5434 35.8931C55.6388 37.6041 52.3383 38.5056 48.9776 38.506V38.5082Z" fill="#1A2E35"/>
<path d="M48.9776 9.55657C48.6233 9.55657 48.2834 9.4141 48.0329 9.16049C47.7823 8.90687 47.6416 8.56289 47.6416 8.20423V6.02691C47.6416 5.66824 47.7823 5.32432 48.0329 5.0707C48.2834 4.81709 48.6233 4.67456 48.9776 4.67456C49.3319 4.67456 49.6717 4.81709 49.9222 5.0707C50.1728 5.32432 50.3136 5.66824 50.3136 6.02691V8.20423C50.3136 8.56289 50.1728 8.90687 49.9222 9.16049C49.6717 9.4141 49.3319 9.55657 48.9776 9.55657Z" fill="#1A2E35"/>
<path d="M56.6908 12.7933C56.4272 12.7926 56.1696 12.713 55.9506 12.5645C55.7316 12.416 55.5609 12.2052 55.46 11.9587C55.359 11.7122 55.3324 11.441 55.3834 11.1792C55.4344 10.9174 55.5608 10.6768 55.7467 10.4875L57.2675 8.94812C57.5222 8.7195 57.8536 8.59793 58.1939 8.60828C58.5342 8.61862 58.8578 8.76007 59.0985 9.00376C59.3392 9.24744 59.479 9.57494 59.4892 9.91941C59.4994 10.2639 59.3793 10.5993 59.1535 10.8572L57.6326 12.3966C57.3829 12.6497 57.0442 12.7923 56.6908 12.7933Z" fill="#1A2E35"/>
<path d="M62.0348 20.6053H59.8838C59.5295 20.6053 59.1897 20.4629 58.9391 20.2092C58.6886 19.9556 58.5479 19.6116 58.5479 19.253C58.5479 18.8943 58.6886 18.5503 58.9391 18.2967C59.1897 18.0431 59.5295 17.9006 59.8838 17.9006H62.0348C62.3891 17.9006 62.7289 18.0431 62.9795 18.2967C63.23 18.5503 63.3708 18.8943 63.3708 19.253C63.3708 19.6116 63.23 19.9556 62.9795 20.2092C62.7289 20.4629 62.3891 20.6053 62.0348 20.6053Z" fill="#1A2E35"/>
<path d="M58.2182 29.9567C57.8643 29.9569 57.5247 29.8151 57.2741 29.5622L55.7532 28.0228C55.619 27.8999 55.5109 27.7506 55.4354 27.5841C55.3599 27.4176 55.3187 27.2373 55.3141 27.0542C55.3096 26.8711 55.3418 26.6889 55.4089 26.5187C55.476 26.3486 55.5766 26.194 55.7045 26.0644C55.8324 25.9348 55.9849 25.8328 56.1529 25.7647C56.321 25.6966 56.5009 25.6637 56.6818 25.6681C56.8627 25.6725 57.0409 25.7141 57.2054 25.7903C57.37 25.8665 57.5176 25.9758 57.6392 26.1115L59.16 27.6509C59.3457 27.84 59.4721 28.0805 59.5232 28.342C59.5743 28.6036 59.5478 28.8747 59.4471 29.1211C59.3465 29.3675 59.1761 29.5782 58.9574 29.7269C58.7387 29.8756 58.4816 29.9555 58.2182 29.9567Z" fill="#1A2E35"/>
<path d="M48.9776 33.8312C48.6233 33.8312 48.2834 33.6888 48.0329 33.4352C47.7823 33.1815 47.6416 32.8376 47.6416 32.4789V30.2994C47.6416 29.9407 47.7823 29.5967 48.0329 29.3431C48.2834 29.0895 48.6233 28.947 48.9776 28.947C49.3319 28.947 49.6717 29.0895 49.9222 29.3431C50.1728 29.5967 50.3136 29.9407 50.3136 30.2994V32.4789C50.3136 32.8376 50.1728 33.1815 49.9222 33.4352C49.6717 33.6888 49.3319 33.8312 48.9776 33.8312Z" fill="#1A2E35"/>
<path d="M39.7391 29.9567C39.4755 29.956 39.218 29.8764 38.9989 29.7279C38.7799 29.5794 38.6093 29.3686 38.5083 29.1221C38.4074 28.8756 38.3807 28.6044 38.4317 28.3426C38.4828 28.0808 38.6091 27.8402 38.795 27.6509L40.3158 26.1115C40.5691 25.8726 40.9041 25.7426 41.2502 25.7487C41.5963 25.7549 41.9265 25.8968 42.1713 26.1446C42.416 26.3924 42.5562 26.7267 42.5623 27.077C42.5685 27.4274 42.44 27.7664 42.204 28.0228L40.6832 29.5622C40.4326 29.8151 40.093 29.957 39.7391 29.9567Z" fill="#1A2E35"/>
<path d="M37.3966 20.6053H36.0606C35.7063 20.6053 35.3665 20.4629 35.1159 20.2092C34.8654 19.9556 34.7246 19.6116 34.7246 19.253C34.7246 18.8943 34.8654 18.5503 35.1159 18.2967C35.3665 18.0431 35.7063 17.9006 36.0606 17.9006H37.3966C37.7509 17.9006 38.0907 18.0431 38.3412 18.2967C38.5918 18.5503 38.7326 18.8943 38.7326 19.253C38.7326 19.6116 38.5918 19.9556 38.3412 20.2092C38.0907 20.4629 37.7509 20.6053 37.3966 20.6053Z" fill="#1A2E35"/>
<path d="M41.2599 12.7933C40.9057 12.7929 40.5662 12.6502 40.3158 12.3966L38.795 10.8572C38.661 10.7341 38.553 10.5847 38.4778 10.4181C38.4025 10.2515 38.3614 10.0712 38.3571 9.88803C38.3527 9.70489 38.3852 9.52273 38.4525 9.35267C38.5198 9.18261 38.6205 9.02816 38.7485 8.8987C38.8766 8.76924 39.0293 8.66749 39.1974 8.59957C39.3655 8.53165 39.5454 8.49899 39.7263 8.5036C39.9073 8.50822 40.0854 8.55002 40.2499 8.62642C40.4144 8.70283 40.5618 8.81228 40.6833 8.94811L42.204 10.4875C42.3899 10.6767 42.5163 10.9174 42.5673 11.1792C42.6183 11.441 42.5917 11.7122 42.4908 11.9587C42.3898 12.2052 42.2191 12.416 42.0001 12.5645C41.7811 12.713 41.5236 12.7926 41.2599 12.7933Z" fill="#1A2E35"/>
<path d="M53.9987 20.6053H48.9776C48.6233 20.6053 48.2834 20.4628 48.0329 20.2092C47.7824 19.9556 47.6416 19.6116 47.6416 19.253V14.4949C47.6416 14.1363 47.7824 13.7923 48.0329 13.5387C48.2834 13.285 48.6233 13.1426 48.9776 13.1426C49.3319 13.1426 49.6717 13.285 49.9222 13.5387C50.1728 13.7923 50.3136 14.1363 50.3136 14.4949V17.9006H53.9987C54.353 17.9006 54.6928 18.0431 54.9434 18.2967C55.1939 18.5503 55.3347 18.8943 55.3347 19.253C55.3347 19.6116 55.1939 19.9556 54.9434 20.2092C54.6928 20.4628 54.353 20.6053 53.9987 20.6053Z" fill="#1A2E35"/>
<path d="M60.0129 54.9999H1.336C0.981668 54.9999 0.641844 54.8574 0.391297 54.6038C0.140749 54.3502 0 54.0062 0 53.6475C0 53.2888 0.140749 52.9449 0.391297 52.6913C0.641844 52.4376 0.981668 52.2952 1.336 52.2952H60.0129C60.3673 52.2952 60.7071 52.4376 60.9576 52.6913C61.2082 52.9449 61.3489 53.2888 61.3489 53.6475C61.3489 54.0062 61.2082 54.3502 60.9576 54.6038C60.7071 54.8574 60.3673 54.9999 60.0129 54.9999Z" fill="#1A2E35"/>
</g>
<defs>
<clipPath id="clip0_89:761">
<rect width="68" height="55" fill="white"/>
</clipPath>
</defs>
</svg>
