<svg width="598" height="404" viewBox="0 0 598 404" fill="none" xmlns="http://www.w3.org/2000/svg">
<g clip-path="url(#clip0_155:1632)">
<g opacity="0.6">
<path opacity="0.6" d="M365.25 336.668C365.25 336.668 425.446 124.236 482.506 142.726C539.565 161.217 410.614 276.145 395.043 338.539L365.25 336.668Z" fill="#B2C9C6"/>
</g>
<path d="M426.198 299.562C426.198 299.562 508.241 157.697 553.602 181.866C598.964 206.035 473.349 264.496 451.032 306.569L426.198 299.562Z" fill="#CFD3A3"/>
<path d="M440.063 303.605C454.945 274.267 481.078 247.757 500.383 230.684C521.308 212.174 538.929 200.465 539.105 200.349L538.379 199.253C538.204 199.369 520.506 211.127 499.511 229.717C480.12 246.866 453.865 273.506 438.884 303.026L440.063 303.605Z" fill="#C4C695"/>
<path d="M586.235 302.188C566.539 307.817 571.85 337.834 548.712 333.725C529.143 330.235 527.407 328.566 521.105 334.549C518.956 336.61 517.109 338.966 515.622 341.546C513.823 344.629 510.259 349.231 504.477 350.639C469.164 359.248 416.839 309.655 452.199 278.105C454.75 275.827 458.616 274.76 462.909 273.8C486.196 268.585 494.237 278.9 510.948 249.959C527.658 221.018 555.438 259.111 571.125 256.674C586.812 254.237 600.408 248.595 613.802 264.499C627.197 280.403 605.931 296.569 586.235 302.188Z" fill="#B2C9C6"/>
<g opacity="0.5">
<path opacity="0.5" d="M466.107 315.777L465.285 314.711C465.756 314.347 513.496 278.287 616.95 269.059L617.069 270.4C514.006 279.585 466.567 315.417 466.107 315.777Z" fill="#74A1BD"/>
<path opacity="0.5" d="M527.947 271.555C513.472 260.158 510.424 250.555 510.302 250.154L511.59 249.76C511.62 249.856 514.675 259.389 528.782 270.495L527.947 271.555Z" fill="#74A1BD"/>
<path opacity="0.5" d="M531.267 285.896C526.983 279.386 526.705 269.615 530.465 257.641C532.259 252.028 534.598 246.604 537.449 241.446L538.615 242.108C538.453 242.386 522.544 270.171 532.393 285.155L531.267 285.896Z" fill="#74A1BD"/>
<path opacity="0.5" d="M558.38 281.771C556.664 280.516 555.73 279.688 555.687 279.651L556.584 278.658C556.78 278.833 576.538 296.208 603.837 293.602L603.967 294.926C581.968 297.042 564.774 286.439 558.38 281.771Z" fill="#74A1BD"/>
<path opacity="0.5" d="M573.858 311.963C567.159 305.41 564.913 298.572 564.224 293.989C563.465 288.999 564.293 285.595 564.33 285.453L565.635 285.784C565.605 285.916 562.534 299.012 574.802 311.006L573.858 311.963Z" fill="#74A1BD"/>
</g>
<path d="M305.198 404C473.755 404 610.397 384.791 610.397 361.096C610.397 337.4 473.755 318.191 305.198 318.191C136.642 318.191 0 337.4 0 361.096C0 384.791 136.642 404 305.198 404Z" fill="#1A2E35"/>
<path d="M434.404 375.619V370.738L504.805 370.294L504.706 375.619H434.404Z" fill="#10DD8E"/>
<path d="M437.164 370.599C443.571 365.195 458.185 360.44 483.327 363.689C499.7 365.804 508.254 372.225 503.536 377.814C497.792 384.612 481.074 387.026 456.446 384.768C439.493 383.228 429.157 377.357 437.164 370.599Z" fill="#10DD8E"/>
<path d="M437.164 365.9C443.571 360.496 458.185 355.741 483.327 358.99C499.7 361.102 508.254 367.526 503.536 373.116C497.792 379.914 481.074 382.328 456.446 380.069C439.493 378.53 429.157 372.659 437.164 365.9Z" fill="#10DD8E"/>
<path d="M472.404 379.748C468.167 379.748 463.512 379.52 458.47 379.059C447.868 378.093 440.58 375.185 439.403 371.473C439.013 370.235 439.105 368.285 441.772 366.036C445.211 363.135 455.962 356.741 481.455 360.033C491.338 361.311 498.414 364.51 499.918 368.384C500.521 369.933 500.197 371.513 498.984 372.947C495.201 377.424 485.948 379.748 472.404 379.748ZM442.481 366.877C440.712 368.367 440.03 369.804 440.45 371.142C441.467 374.377 448.58 377.056 458.569 377.967C479.361 379.864 493.415 377.831 498.143 372.238C499.097 371.112 499.349 369.95 498.895 368.781C497.57 365.334 490.655 362.331 481.313 361.122C471.586 359.867 463.032 359.927 455.882 361.298C448.617 362.692 444.585 365.102 442.481 366.877Z" fill="#30262A"/>
<path d="M463.287 375.718L463.771 375.006C463.95 374.745 463.496 374.486 462.737 374.4C461.154 374.236 459.586 373.953 458.046 373.553C457.45 373.39 457.317 373.106 457.715 372.89L457.996 372.741C458.493 372.477 459.57 372.41 460.315 372.612C462.053 373.051 463.827 373.333 465.616 373.453C469.111 373.715 471.228 373.056 471.878 372.106C472.527 371.155 471.679 370.622 468.376 369.851C463.81 368.811 459.368 367.672 460.358 366.208C461.22 364.943 464.453 363.837 470.297 364.222C470.993 364.265 471.622 364.046 471.762 363.818L472.292 363.036C472.48 362.758 473.319 362.586 474.16 362.645C475.005 362.708 475.532 362.976 475.343 363.265L474.902 363.927C474.73 364.182 475.154 364.44 475.896 364.526C477.098 364.656 478.291 364.861 479.467 365.142C480.13 365.304 480.279 365.606 479.835 365.834L479.557 365.976C478.84 366.241 478.061 366.287 477.317 366.109C475.827 365.764 474.312 365.542 472.785 365.447C468.999 365.165 467.047 365.831 466.593 366.496C466.004 367.367 468.581 367.645 472.471 368.566C477.062 369.642 479.593 370.867 479.004 372.381C478.374 373.993 474.813 374.887 468.439 374.745C467.73 374.728 467.113 374.917 466.971 375.145L466.404 375.977C466.216 376.255 465.381 376.43 464.536 376.367H464.486C463.628 376.275 463.098 375.996 463.287 375.718Z" fill="#30262A"/>
<path d="M103.06 389.613V384.732L173.461 384.288L173.362 389.613H103.06Z" fill="#10DD8E"/>
<path d="M105.82 384.593C112.224 379.189 126.837 374.434 151.983 377.682C168.356 379.798 176.91 386.218 172.192 391.808C166.447 398.606 149.733 401.02 125.105 398.762C108.149 397.222 97.809 391.351 105.82 384.593Z" fill="#10DD8E"/>
<path d="M105.82 379.894C112.224 374.487 126.837 369.735 151.983 372.983C168.356 375.096 176.91 381.52 172.192 387.109C166.447 393.904 149.733 396.321 125.105 394.063C108.149 392.523 97.809 386.652 105.82 379.894Z" fill="#10DD8E"/>
<path d="M141.057 393.742C136.819 393.742 132.165 393.513 127.122 393.053C116.521 392.086 109.232 389.179 108.059 385.467C107.668 384.228 107.761 382.278 110.425 380.03C113.867 377.129 124.618 370.735 150.108 374.026C159.994 375.304 167.07 378.503 168.574 382.377C169.174 383.927 168.852 385.506 167.637 386.94C163.857 391.414 154.603 393.742 141.057 393.742ZM111.134 380.871C109.368 382.361 108.685 383.798 109.106 385.136C110.123 388.371 117.236 391.05 127.222 391.96C148.017 393.858 162.071 391.824 166.798 386.232C167.749 385.106 168.004 383.944 167.55 382.775C166.225 379.328 159.311 376.324 149.969 375.116C140.242 373.861 131.684 373.92 124.538 375.291C117.273 376.685 113.238 379.093 111.134 380.871Z" fill="#30262A"/>
<path d="M131.956 389.712L132.44 389C132.615 388.738 132.165 388.48 131.403 388.394C129.82 388.229 128.252 387.946 126.711 387.546C126.118 387.384 125.986 387.099 126.38 386.884L126.665 386.735C127.159 386.47 128.235 386.404 128.984 386.602C130.722 387.044 132.496 387.327 134.285 387.447C137.777 387.708 139.897 387.049 140.546 386.096C141.196 385.142 140.344 384.616 137.045 383.844C132.479 382.804 128.037 381.665 129.024 380.202C129.885 378.937 133.119 377.831 138.963 378.215C139.662 378.258 140.288 378.04 140.43 377.811L140.961 377.029C141.149 376.751 141.988 376.579 142.829 376.639C143.671 376.702 144.201 376.97 144.012 377.258L143.571 377.92C143.399 378.175 143.823 378.433 144.565 378.52C145.767 378.649 146.96 378.855 148.136 379.136C148.799 379.298 148.948 379.599 148.504 379.828L148.223 379.97C147.507 380.234 146.728 380.28 145.986 380.102C144.496 379.757 142.981 379.536 141.454 379.44C137.664 379.159 135.716 379.821 135.262 380.49C134.673 381.361 137.25 381.639 141.139 382.559C145.731 383.636 148.262 384.861 147.673 386.374C147.043 387.987 143.482 388.881 137.108 388.738C136.399 388.722 135.782 388.91 135.637 389.139L135.073 389.97C134.885 390.248 134.046 390.424 133.205 390.361H133.155C132.287 390.265 131.754 389.99 131.956 389.712Z" fill="#30262A"/>
<path d="M473.985 345.688V340.202L551.595 339.705L551.486 345.688H473.985Z" fill="#10DD8E"/>
<path d="M477.026 340.046C484.089 333.97 500.2 328.622 527.917 332.274C545.969 334.652 555.414 341.877 550.186 348.168C543.855 355.811 525.425 358.526 498.275 356C479.594 354.251 468.197 347.648 477.026 340.046Z" fill="#10DD8E"/>
<path d="M477.026 334.761C484.089 328.681 500.2 323.337 527.917 326.99C545.969 329.367 555.414 336.592 550.186 342.884C543.855 350.526 525.425 353.241 498.275 350.712C479.594 348.966 468.197 342.36 477.026 334.761Z" fill="#10DD8E"/>
<path d="M516.043 350.344C511.329 350.344 506.141 350.079 500.512 349.556C488.88 348.473 480.826 345.218 479.501 341.066C479.054 339.668 479.143 337.466 482.098 334.923L482.496 335.387L482.098 334.923C485.892 331.662 497.745 324.466 525.856 328.172C536.699 329.599 544.495 333.178 546.194 337.506C546.884 339.261 546.526 341.052 545.201 342.678C542.428 346.026 537.107 348.307 529.388 349.466C524.967 350.086 520.507 350.379 516.043 350.344ZM511.239 328.37C506.683 328.336 502.134 328.741 497.656 329.579C489.649 331.148 485.206 333.854 482.887 335.85C480.922 337.542 480.17 339.162 480.657 340.692C481.813 344.317 489.649 347.314 500.615 348.337C506.21 348.86 511.368 349.119 516.036 349.119C530.488 349.119 540.294 346.652 544.233 341.9C545.297 340.615 545.558 339.288 545.045 337.953C543.531 334.099 535.931 330.735 525.684 329.384C520.896 328.732 516.071 328.393 511.239 328.37Z" fill="#30262A"/>
<path d="M505.826 345.811L506.359 345.009C506.555 344.718 506.054 344.427 505.216 344.33C503.471 344.143 501.742 343.824 500.045 343.377C499.382 343.191 499.243 342.87 499.697 342.625L500.008 342.456C500.551 342.162 501.741 342.096 502.549 342.311C504.459 342.805 506.409 343.123 508.377 343.261C512.23 343.552 514.565 342.814 515.281 341.741C515.997 340.668 515.059 340.086 511.421 339.208C506.389 338.039 501.482 336.758 502.579 335.125C503.53 333.698 507.095 332.456 513.528 332.87C514.297 332.92 514.976 332.675 515.145 332.42L515.732 331.542C515.94 331.211 516.861 331.032 517.789 331.102C518.72 331.172 519.303 331.483 519.094 331.794L518.607 332.526C518.418 332.814 518.886 333.105 519.707 333.188C521.033 333.332 522.348 333.563 523.643 333.88C524.369 334.062 524.541 334.403 524.051 334.658L523.742 334.821C523.202 335.099 522.086 335.152 521.274 334.966C519.633 334.576 517.962 334.324 516.278 334.211C512.101 333.897 509.954 334.642 509.45 335.393C508.788 336.37 511.663 336.685 515.93 337.711C520.993 338.923 523.782 340.304 523.133 342.016C522.44 343.831 518.511 344.837 511.484 344.665C510.702 344.645 510.037 344.86 509.868 345.115L509.245 346.052C509.036 346.364 508.112 346.559 507.184 346.489H507.131C506.2 346.427 505.617 346.115 505.826 345.811Z" fill="#30262A"/>
<path d="M468.068 336.178V330.691L545.681 330.195L545.568 336.178H468.068Z" fill="#10DD8E"/>
<path d="M471.109 330.536C478.172 324.456 494.283 319.112 522 322.764C540.052 325.142 549.481 332.367 544.273 338.658C537.938 346.301 519.508 349.016 492.362 346.486C473.68 344.741 462.28 338.135 471.109 330.536Z" fill="#10DD8E"/>
<path d="M471.109 325.251C478.172 319.172 494.283 313.827 522 317.479C540.052 319.857 549.481 327.082 544.273 333.374C537.938 341.016 519.508 343.731 492.362 341.202C473.68 339.457 462.28 332.851 471.109 325.251Z" fill="#10DD8E"/>
<path d="M510.129 340.844C505.412 340.844 500.224 340.582 494.595 340.059C482.963 338.976 474.912 335.722 473.584 331.569C473.14 330.172 473.226 327.97 476.181 325.427C479.975 322.162 491.829 314.969 519.939 318.675C530.786 320.102 538.578 323.682 540.277 328.01C540.967 329.764 540.609 331.552 539.284 333.182C536.511 336.529 531.19 338.811 523.467 339.97C519.049 340.588 514.591 340.88 510.129 340.844ZM476.98 326.354C475.015 328.046 474.263 329.665 474.75 331.195C475.906 334.817 483.742 337.818 494.707 338.841C517.627 340.977 533.118 338.692 538.326 332.403C539.39 331.119 539.651 329.791 539.141 328.456C537.624 324.602 530.027 321.238 519.78 319.887C509.059 318.473 499.627 318.539 491.749 320.082C483.742 321.648 479.299 324.357 476.98 326.354Z" fill="#30262A"/>
<path d="M499.909 336.291L500.442 335.49C500.637 335.198 500.141 334.91 499.302 334.827C497.557 334.64 495.828 334.321 494.131 333.874C493.468 333.688 493.329 333.367 493.78 333.122L494.091 332.953C494.638 332.658 495.824 332.592 496.632 332.807C498.543 333.301 500.494 333.619 502.463 333.758C506.313 334.049 508.648 333.311 509.364 332.238C510.079 331.165 509.145 330.582 505.504 329.705C500.472 328.532 495.565 327.254 496.665 325.619C497.613 324.195 501.177 322.97 507.615 323.367C508.38 323.417 509.059 323.171 509.231 322.917L509.814 322.039C510.023 321.724 510.944 321.529 511.875 321.599C512.803 321.668 513.386 321.98 513.177 322.291L512.69 323.023C512.501 323.311 512.972 323.599 513.79 323.685C515.117 323.829 516.433 324.06 517.729 324.377C518.451 324.559 518.624 324.9 518.133 325.155L517.825 325.314C517.285 325.595 516.169 325.645 515.357 325.463C513.717 325.072 512.047 324.82 510.364 324.708C506.187 324.377 504.037 325.138 503.536 325.89C502.874 326.867 505.746 327.181 510.016 328.208C515.075 329.42 517.865 330.797 517.216 332.513C516.523 334.327 512.597 335.334 505.567 335.162C504.789 335.142 504.123 335.357 503.95 335.612L503.341 336.539C503.132 336.854 502.211 337.049 501.28 336.98H501.227C500.286 336.917 499.697 336.605 499.909 336.291Z" fill="#30262A"/>
<path d="M475.688 327.989V322.503L553.301 322.006L553.188 327.989H475.688Z" fill="#10DD8E"/>
<path d="M478.729 322.347C485.792 316.267 501.903 310.92 529.62 314.572C547.672 316.953 557.101 324.175 551.89 330.466C545.559 338.109 527.129 340.824 499.982 338.294C481.3 336.539 469.9 329.946 478.729 322.347Z" fill="#10DD8E"/>
<path d="M478.729 317.062C485.792 310.983 501.903 305.635 529.62 309.287C547.672 311.665 557.101 318.89 551.89 325.181C545.559 332.827 527.129 335.542 499.982 333.013C481.3 331.264 469.9 324.662 478.729 317.062Z" fill="#10DD8E"/>
<path d="M517.749 332.642C513.031 332.642 507.843 332.38 502.215 331.854C490.583 330.771 482.532 327.519 481.204 323.364C480.756 321.966 480.846 319.768 483.801 317.224C487.594 313.96 499.448 306.767 527.559 310.47C538.405 311.9 546.198 315.476 547.897 319.807C548.586 321.562 548.228 323.35 546.903 324.979C544.13 328.324 538.806 330.609 531.087 331.768C526.669 332.386 522.21 332.678 517.749 332.642ZM512.949 310.671C508.393 310.636 503.844 311.04 499.365 311.877C491.358 313.446 486.915 316.155 484.596 318.152C482.631 319.84 481.879 321.463 482.366 322.993C483.523 326.615 491.358 329.615 502.324 330.639C525.243 332.771 540.735 330.486 545.943 324.198C547.006 322.917 547.268 321.589 546.757 320.254C545.24 316.397 537.643 313.032 527.396 311.681C522.607 311.032 517.781 310.695 512.949 310.671Z" fill="#30262A"/>
<path d="M473.995 316.774V311.287L551.605 310.791L551.495 316.774H473.995Z" fill="#10DD8E"/>
<path d="M477.036 311.132C484.1 305.052 500.207 299.708 527.927 303.36C545.976 305.738 555.408 312.963 550.197 319.254C543.862 326.897 525.436 329.612 498.286 327.082C479.604 325.337 468.224 318.731 477.036 311.132Z" fill="#10DD8E"/>
<path d="M477.036 305.847C484.1 299.767 500.207 294.42 527.927 298.072C545.976 300.453 555.408 307.675 550.197 313.966C543.862 321.609 525.436 324.324 498.286 321.794C479.604 320.049 468.224 313.446 477.036 305.847Z" fill="#10DD8E"/>
<path d="M516.053 321.426C511.335 321.426 506.147 321.165 500.522 320.642C488.886 319.556 480.836 316.304 479.511 312.148C479.063 310.751 479.153 308.552 482.105 306.009C485.898 302.744 497.755 295.552 525.863 299.257C536.709 300.685 544.501 304.261 546.204 308.592C546.893 310.347 546.536 312.135 545.194 313.764C542.421 317.112 537.1 319.393 529.378 320.552C524.964 321.17 520.51 321.462 516.053 321.426ZM482.903 306.936C480.939 308.628 480.19 310.248 480.674 311.777C481.833 315.4 489.665 318.4 500.634 319.423C523.554 321.559 539.042 319.271 544.253 312.983C545.317 311.701 545.578 310.373 545.065 309.039C543.551 305.181 535.951 301.817 525.704 300.469C514.983 299.055 505.551 299.122 497.676 300.665C489.668 302.231 485.222 304.94 482.903 306.936Z" fill="#30262A"/>
<path d="M505.836 316.887L506.369 316.085C506.561 315.794 506.064 315.506 505.226 315.423C503.481 315.235 501.752 314.918 500.055 314.473C499.392 314.287 499.253 313.966 499.703 313.721L500.015 313.552C500.561 313.258 501.751 313.188 502.559 313.407C504.469 313.9 506.419 314.218 508.387 314.357C512.24 314.648 514.575 313.907 515.288 312.837C516 311.767 515.069 311.181 511.431 310.304C506.399 309.132 501.492 307.854 502.589 306.218C503.54 304.794 507.101 303.552 513.538 303.966C514.307 304.016 514.983 303.771 515.155 303.512L515.742 302.635C515.947 302.324 516.871 302.128 517.799 302.198C518.727 302.267 519.313 302.579 519.104 302.89L518.617 303.622C518.425 303.906 518.895 304.198 519.717 304.284C521.043 304.43 522.357 304.663 523.653 304.979C524.375 305.158 524.551 305.499 524.06 305.754L523.749 305.916C523.212 306.198 522.092 306.264 521.284 306.066C519.643 305.674 517.972 305.421 516.288 305.31C512.111 304.996 509.96 305.741 509.46 306.493C508.798 307.469 511.67 307.784 515.94 308.81C521.003 310.022 523.792 311.4 523.143 313.115C522.447 314.926 518.521 315.933 511.494 315.764C510.712 315.748 510.047 315.96 509.874 316.218L509.251 317.152C509.043 317.466 508.122 317.662 507.194 317.592H507.138C506.21 317.509 505.627 317.201 505.836 316.887Z" fill="#30262A"/>
<path d="M27.1367 366.679V361.192L104.747 360.695L104.634 366.679H27.1367Z" fill="#10DD8E"/>
<path d="M30.1778 361.043C37.2378 354.963 53.3488 349.619 81.0685 353.271C99.1176 355.649 108.55 362.874 103.338 369.165C97.004 376.808 78.5772 379.523 51.4273 376.997C32.7454 375.242 21.3487 368.636 30.1778 361.043Z" fill="#10DD8E"/>
<path d="M30.1778 355.745C37.2378 349.665 53.3488 344.321 81.0685 347.973C99.1176 350.351 108.55 357.576 103.338 363.867C97.004 371.51 78.5772 374.225 51.4273 371.695C32.7454 369.957 21.3487 363.361 30.1778 355.745Z" fill="#10DD8E"/>
<path d="M69.195 371.331C64.4773 371.331 59.2892 371.069 53.6638 370.546C42.0286 369.463 33.978 366.208 32.6528 362.056C32.2056 360.659 32.295 358.457 35.2469 355.913L35.6478 356.377L35.2469 355.913C39.0402 352.649 50.8974 345.457 79.0048 349.162C89.8515 350.589 97.6436 354.169 99.3464 358.496C100.036 360.251 99.6777 362.039 98.3525 363.669C95.5796 367.016 90.2589 369.298 82.5364 370.457C78.1168 371.075 73.6576 371.367 69.195 371.331ZM64.3879 349.361C59.8318 349.326 55.283 349.731 50.8047 350.569C42.7972 352.139 38.3511 354.844 36.0321 356.841C34.0675 358.533 33.3187 360.152 33.8024 361.682C34.962 365.304 42.7939 368.304 53.7631 369.328C59.3588 369.851 64.5171 370.109 69.1851 370.109C83.6363 370.109 93.4427 367.642 97.3819 362.89C98.4453 361.606 98.707 360.278 98.1935 358.943C96.6795 355.089 89.0795 351.725 78.8325 350.374C74.0448 349.722 69.2197 349.384 64.3879 349.361Z" fill="#30262A"/>
<path d="M58.9778 366.791L59.5112 365.99C59.7034 365.698 59.2064 365.41 58.3683 365.327C56.6228 365.14 54.894 364.822 53.1967 364.374C52.5341 364.188 52.3949 363.867 52.8455 363.622L53.1569 363.453C53.7036 363.159 54.8929 363.092 55.7013 363.308C57.6107 363.801 59.5614 364.119 61.5288 364.258C65.3818 364.549 67.7175 363.811 68.4298 362.738C69.1421 361.665 68.2111 361.082 64.5701 360.205C59.5377 359.033 54.6312 357.755 55.7311 356.119C56.682 354.695 60.2434 353.453 66.664 353.867C67.4326 353.917 68.1084 353.672 68.2807 353.417L68.8638 352.539C69.0725 352.225 69.9968 352.029 70.9245 352.099C71.8521 352.169 72.4385 352.48 72.2298 352.791L71.7428 353.523C71.5506 353.811 72.021 354.099 72.8426 354.185C74.1683 354.329 75.4831 354.56 76.7785 354.877C77.5007 355.059 77.673 355.4 77.186 355.655L76.8746 355.814C76.3345 356.096 75.2181 356.162 74.4064 355.963C72.7662 355.573 71.0961 355.32 69.4137 355.208C65.236 354.894 63.0859 355.639 62.5857 356.39C61.9231 357.367 64.7954 357.682 69.0659 358.708C74.1281 359.92 76.9176 361.298 76.2683 363.013C75.5726 364.828 71.6301 365.834 64.6198 365.662C63.838 365.642 63.1721 365.857 62.9998 366.112L62.3769 367.046C62.1682 367.361 61.2472 367.556 60.3196 367.486H60.2633C59.3522 367.417 58.7691 367.106 58.9778 366.791Z" fill="#30262A"/>
<path d="M21.2197 357.169V351.682L98.8296 351.185L98.7203 357.169H21.2197Z" fill="#10DD8E"/>
<path d="M24.2609 351.526C31.3241 345.447 47.4517 340.102 75.1516 343.755C93.204 346.132 102.649 353.357 97.4214 359.649C91.087 367.291 72.6602 370.007 45.5103 367.477C26.8284 365.732 15.4318 359.126 24.2609 351.526Z" fill="#10DD8E"/>
<path d="M24.2609 346.241C31.3241 340.162 47.4517 334.818 75.1516 338.47C93.204 340.847 102.649 348.073 97.4214 354.364C91.087 362.006 72.6602 364.722 45.5103 362.192C26.8284 360.447 15.4318 353.841 24.2609 346.241Z" fill="#10DD8E"/>
<path d="M63.2779 361.821C58.5602 361.821 53.3832 361.559 47.7467 361.036C36.1115 359.953 28.061 356.698 26.7358 352.543C26.2885 351.149 26.378 348.947 29.3331 346.403C33.1232 343.139 44.977 335.946 73.091 339.652C83.9343 341.079 91.7298 344.658 93.4294 348.986C94.1184 350.741 93.7606 352.529 92.4355 354.158C89.6625 357.506 84.3419 359.788 76.6226 360.947C72.2019 361.565 67.7416 361.857 63.2779 361.821ZM30.1481 347.331C28.1802 349.023 27.4315 350.642 27.9185 352.172C29.0747 355.794 36.9099 358.794 47.8759 359.817C70.7951 361.953 86.2833 359.665 91.4946 353.38C92.558 352.096 92.8198 350.768 92.3062 349.433C90.7922 345.576 83.1923 342.211 72.9452 340.864C62.2244 339.45 52.7957 339.516 44.9174 341.059C36.9099 342.625 32.4639 345.334 30.1481 347.331Z" fill="#30262A"/>
<path d="M53.0608 357.281L53.5942 356.48C53.7897 356.189 53.2894 355.9 52.4513 355.818C50.7058 355.63 48.9771 355.311 47.2797 354.864C46.6171 354.679 46.4779 354.357 46.9285 354.112L47.2598 353.943C47.8031 353.649 48.9925 353.579 49.8009 353.798C51.7103 354.292 53.6609 354.61 55.6284 354.748C59.4814 355.04 61.817 354.301 62.5293 353.228C63.2416 352.155 62.3107 351.573 58.673 350.695C53.6406 349.523 48.7341 348.245 49.8307 346.609C50.7815 345.185 54.3463 343.943 60.7635 344.357C61.5321 344.407 62.2113 344.162 62.3802 343.907L62.9667 343.026C63.1754 342.715 64.0964 342.519 65.024 342.589C65.9549 342.659 66.538 342.97 66.3293 343.281L65.8423 344.013C65.6501 344.298 66.1206 344.589 66.9422 344.675C68.268 344.819 69.5828 345.05 70.878 345.367C71.6036 345.549 71.7759 345.89 71.2855 346.145L70.9774 346.304C70.4374 346.586 69.3209 346.652 68.5093 346.453C66.8682 346.061 65.1969 345.809 63.5133 345.698C59.3356 345.384 57.1888 346.129 56.6853 346.88C56.0227 347.874 58.8983 348.172 63.1654 349.198C68.2277 350.41 71.0172 351.788 70.3678 353.503C69.6754 355.318 65.7462 356.321 58.7194 356.152C57.9375 356.132 57.2717 356.347 57.0994 356.602L56.4799 357.536C56.2711 357.851 55.3468 358.046 54.4191 357.977H54.3662C53.4385 357.907 52.8521 357.596 53.0608 357.281Z" fill="#30262A"/>
<path d="M28.8398 348.98V343.493L106.45 342.993L106.34 348.98H28.8398Z" fill="#10DD8E"/>
<path d="M31.881 343.337C38.9442 337.258 55.0519 331.91 82.7716 335.562C100.821 337.943 110.269 345.165 105.041 351.456C98.7071 359.099 80.2803 361.814 53.1304 359.284C34.4485 357.539 23.0519 350.936 31.881 343.337Z" fill="#10DD8E"/>
<path d="M31.881 338.052C38.9442 331.973 55.0519 326.625 82.7716 330.277C100.821 332.655 110.269 339.88 105.041 346.172C98.7071 353.817 80.2803 356.533 53.1304 354.003C34.4485 352.254 23.0519 345.652 31.881 338.052Z" fill="#10DD8E"/>
<path d="M70.8975 353.632C66.1799 353.632 60.9917 353.371 55.3663 352.844C43.7311 351.761 35.6806 348.506 34.3554 344.354C33.9082 342.957 33.9976 340.758 36.9528 338.215C40.7428 334.95 52.6 327.758 80.7073 331.46C91.554 332.89 99.3494 336.466 101.049 340.797C101.738 342.552 101.38 344.341 100.055 345.97C97.2821 349.314 91.9615 351.599 84.2422 352.755C79.8218 353.376 75.3613 353.669 70.8975 353.632ZM66.0904 331.662C61.5344 331.626 56.9856 332.03 52.5072 332.867C44.4997 334.437 40.0537 337.145 37.7379 339.139C35.77 340.831 35.0213 342.45 35.5083 343.983C36.6645 347.606 44.4964 350.606 55.4657 351.629C78.3816 353.761 93.8731 351.476 99.0844 345.188C100.148 343.907 100.41 342.579 99.8961 341.245C98.382 337.387 90.7821 334.023 80.535 332.672C75.7471 332.022 70.9221 331.685 66.0904 331.662Z" fill="#30262A"/>
<path d="M27.1431 337.764V332.277L104.756 331.781L104.644 337.764H27.1431Z" fill="#10DD8E"/>
<path d="M30.1847 332.122C37.248 326.042 53.3756 320.698 81.0754 324.35C99.1278 326.728 108.557 333.953 103.349 340.244C97.0141 347.887 78.584 350.602 51.4374 348.072C32.7555 346.327 21.3556 339.721 30.1847 332.122Z" fill="#10DD8E"/>
<path d="M30.1847 326.837C37.248 320.758 53.3756 315.41 81.0754 319.062C99.1278 321.443 108.557 328.665 103.349 334.956C97.0141 342.599 78.584 345.314 51.4374 342.784C32.7555 341.039 21.3556 334.437 30.1847 326.837Z" fill="#10DD8E"/>
<path d="M69.2046 342.417C64.4869 342.417 59.2988 342.155 53.6701 341.632C42.0382 340.546 33.9877 337.294 32.6592 333.138C32.2152 331.741 32.3013 329.542 35.2565 326.999C39.0499 323.734 50.907 316.542 79.0143 320.244C89.861 321.675 97.6532 325.251 99.3527 329.582C100.042 331.337 99.684 333.125 98.3588 334.754C95.5859 338.102 90.2652 340.384 82.5427 341.542C78.1242 342.161 73.6661 342.453 69.2046 342.417ZM36.055 327.93C34.0904 329.622 33.3383 331.241 33.8253 332.771C34.9816 336.393 42.8168 339.393 53.7827 340.417C76.7019 342.552 92.1934 340.264 97.4014 333.976C98.4649 332.695 98.7266 331.367 98.2164 330.032C96.6991 326.175 89.1024 322.811 78.8553 321.46C68.1345 320.049 58.7025 320.115 50.8242 321.658C42.8167 323.224 38.374 325.933 36.055 327.93Z" fill="#30262A"/>
<path d="M58.9843 337.864L59.5177 337.062C59.7131 336.771 59.2162 336.483 58.378 336.383C56.6326 336.196 54.9038 335.878 53.2065 335.43C52.5439 335.248 52.4047 334.927 52.8553 334.682L53.1667 334.513C53.7133 334.218 54.8994 334.148 55.7077 334.367C57.6186 334.859 59.5702 335.177 61.5386 335.317C65.3882 335.605 67.7239 334.867 68.4395 333.798C69.1551 332.728 68.2209 332.142 64.5799 331.261C59.5475 330.092 54.6409 328.814 55.7409 327.178C56.6884 325.754 60.2531 324.509 66.6737 324.927C67.439 324.976 68.1181 324.731 68.2904 324.473L68.8735 323.595C69.0822 323.284 70.0033 323.085 70.9342 323.158C71.8618 323.228 72.4449 323.539 72.2362 323.85L71.7492 324.582C71.5604 324.867 72.0308 325.158 72.8491 325.244C74.1754 325.392 75.4911 325.623 76.7882 325.936C77.5104 326.119 77.6827 326.46 77.1924 326.715L76.8843 326.877C76.3443 327.158 75.2278 327.208 74.4161 327.026C72.7762 326.634 71.106 326.381 69.4235 326.271C65.2458 325.94 63.0957 326.701 62.5954 327.453C61.9328 328.43 64.8052 328.744 69.0756 329.771C74.1345 330.983 76.9241 332.36 76.2747 334.076C75.5823 335.887 71.6564 336.894 64.6296 336.725C63.8477 336.708 63.1818 336.92 63.0096 337.178L62.3867 338.112C62.178 338.443 61.257 338.622 60.326 338.552H60.273C59.362 338.499 58.7756 338.195 58.9843 337.864Z" fill="#30262A"/>
<path d="M112.419 345.811V340.046L191.298 339.523L191.186 345.811H112.419Z" fill="#10DD8E"/>
<path d="M115.51 339.884C122.69 333.5 139.062 327.884 167.233 331.718C185.58 334.218 195.161 341.804 189.867 348.407C183.43 356.433 164.688 359.288 137.108 356.629C118.121 354.801 106.539 347.864 115.51 339.884Z" fill="#10DD8E"/>
<path d="M115.51 334.331C122.69 327.946 139.062 322.334 167.233 326.168C185.58 328.665 195.161 336.251 189.867 342.857C183.43 350.884 164.688 353.735 137.108 351.079C118.121 349.251 106.539 342.314 115.51 334.331Z" fill="#10DD8E"/>
<path d="M155.167 350.685C150.369 350.685 145.106 350.41 139.377 349.861C127.626 348.728 119.449 345.341 118.038 341.016C117.554 339.539 117.617 337.215 120.652 334.519C124.508 331.089 136.554 323.529 165.142 327.42C176.075 328.91 183.986 332.632 185.785 337.135C186.527 338.996 186.186 340.9 184.791 342.632C181.972 346.149 176.559 348.549 168.707 349.765C164.223 350.415 159.697 350.723 155.167 350.685ZM121.069 334.989L121.49 335.46C119.466 337.261 118.707 338.999 119.237 340.625C120.473 344.403 128.428 347.536 139.496 348.602C162.78 350.844 178.52 348.443 183.811 341.844C184.914 340.466 185.186 339.039 184.609 337.602C183.006 333.582 175.296 330.079 164.97 328.662C154.077 327.178 144.496 327.248 136.478 328.867C128.345 330.523 123.829 333.357 121.474 335.45L121.069 334.989Z" fill="#30262A"/>
<path d="M120.235 337.013V331.251L199.114 330.728L199.001 337.013H120.235Z" fill="#10DD8E"/>
<path d="M123.343 331.086C130.522 324.701 146.895 319.085 175.065 322.923C193.409 325.42 202.993 333.006 197.699 339.609C191.262 347.639 172.52 350.49 144.94 347.834C125.937 346.006 114.354 339.069 123.343 331.086Z" fill="#10DD8E"/>
<path d="M123.343 325.536C130.522 319.152 146.895 313.536 175.065 317.37C193.409 319.87 202.993 327.456 197.699 334.059C191.262 342.085 172.52 344.936 144.94 342.281C125.937 340.453 114.354 333.516 123.343 325.536Z" fill="#10DD8E"/>
<path d="M162.982 341.89C158.185 341.89 152.922 341.614 147.192 341.062C135.441 339.933 127.265 336.543 125.853 332.218C125.37 330.745 125.433 328.42 128.467 325.721L128.885 326.191L128.467 325.721C132.324 322.291 144.37 314.734 172.957 318.625C183.89 320.112 191.802 323.834 193.601 328.337C194.343 330.201 194.001 332.102 192.607 333.837C189.787 337.354 184.374 339.751 176.522 340.97C172.039 341.619 167.512 341.927 162.982 341.89ZM158.095 318.814C153.47 318.777 148.852 319.202 144.31 320.082C136.177 321.738 131.661 324.569 129.306 326.665C127.281 328.466 126.523 330.201 127.053 331.827C128.289 335.609 136.243 338.741 147.312 339.804C170.595 342.049 186.332 339.649 191.626 333.046C192.729 331.668 193.001 330.241 192.425 328.804C190.821 324.787 183.112 321.281 172.785 319.864C167.918 319.184 163.01 318.833 158.095 318.814Z" fill="#30262A"/>
<path d="M116.176 326.225V320.46L195.055 319.94L194.942 326.225H116.176Z" fill="#10DD8E"/>
<path d="M119.271 320.314C126.446 313.93 142.819 308.314 170.989 312.152C189.337 314.648 198.921 322.235 193.624 328.837C187.187 336.864 168.445 339.718 140.865 337.062C121.881 335.215 110.296 328.281 119.271 320.314Z" fill="#10DD8E"/>
<path d="M119.271 314.748C126.446 308.363 142.819 302.747 170.989 306.582C189.337 309.082 198.921 316.668 193.624 323.271C187.187 331.297 168.445 334.148 140.865 331.493C121.881 329.665 110.296 322.728 119.271 314.748Z" fill="#10DD8E"/>
<path d="M158.924 331.099C154.13 331.099 148.855 330.824 143.134 330.274C131.386 329.142 123.21 325.754 121.795 321.43C121.315 319.956 121.374 317.632 124.409 314.933C128.265 311.503 140.311 303.943 168.899 307.837C179.832 309.324 187.743 313.046 189.542 317.549C190.287 319.413 189.946 321.314 188.548 323.049C185.729 326.566 180.319 328.963 172.464 330.181C167.98 330.83 163.454 331.136 158.924 331.099ZM124.83 315.403L125.247 315.877C123.223 317.678 122.467 319.413 122.998 321.039C124.233 324.821 132.184 327.95 143.256 329.016C166.54 331.258 182.277 328.857 187.568 322.258C188.674 320.88 188.942 319.453 188.369 318.016C186.762 313.999 179.053 310.493 168.727 309.075C157.837 307.592 148.256 307.662 140.235 309.281C132.102 310.936 127.586 313.767 125.23 315.864L124.83 315.403Z" fill="#30262A"/>
<path d="M148.538 326.344L149.081 325.503C149.28 325.195 148.773 324.89 147.921 324.787C146.145 324.594 144.387 324.262 142.664 323.794C142.001 323.599 141.849 323.264 142.309 323.006L142.64 322.83C143.197 322.519 144.403 322.446 145.225 322.675C147.164 323.19 149.147 323.523 151.148 323.668C155.064 323.973 157.443 323.195 158.165 322.072C158.887 320.95 157.94 320.32 154.243 319.423C149.127 318.195 144.151 316.85 145.258 315.118C146.222 313.622 149.843 312.317 156.386 312.754C157.165 312.807 157.854 312.549 158.043 312.281L158.636 311.357C158.848 311.026 159.785 310.824 160.729 310.897C161.674 310.969 162.267 311.297 162.055 311.625L161.558 312.393C161.365 312.695 161.842 312.999 162.677 313.099C164.026 313.254 165.363 313.497 166.679 313.827C167.412 314.019 167.587 314.377 167.09 314.645L166.759 314.814C166.212 315.109 165.066 315.178 164.251 314.969C162.585 314.558 160.887 314.292 159.176 314.175C154.932 313.844 152.745 314.628 152.238 315.416C151.576 316.443 154.484 316.774 158.821 317.86C163.966 319.132 166.802 320.579 166.143 322.367C165.437 324.271 161.445 325.327 154.302 325.158C153.51 325.138 152.831 325.364 152.646 325.632L152.013 326.625C151.801 326.956 150.863 327.158 149.919 327.085H149.866C148.922 326.996 148.326 326.671 148.538 326.344Z" fill="#30262A"/>
<path d="M114.215 316.234V310.473L193.09 309.949L192.978 316.234H114.215Z" fill="#10DD8E"/>
<path d="M117.306 310.311C124.482 303.923 140.855 298.31 169.025 302.145C187.372 304.645 196.957 312.228 191.659 318.834C185.222 326.86 166.481 329.711 138.903 327.056C119.917 325.228 108.331 318.291 117.306 310.311Z" fill="#10DD8E"/>
<path d="M117.306 304.751C124.482 298.367 140.855 292.751 169.025 296.589C187.372 299.085 196.957 306.672 191.659 313.274C185.222 321.301 166.481 324.155 138.903 321.499C119.917 319.675 108.331 312.741 117.306 304.751Z" fill="#10DD8E"/>
<path d="M156.959 321.112C152.165 321.112 146.891 320.837 141.169 320.284C129.422 319.155 121.245 315.764 119.831 311.443C119.35 309.966 119.413 307.642 122.444 304.943L122.865 305.416L122.444 304.943C126.301 301.513 138.347 293.956 166.934 297.847C177.867 299.337 185.779 303.059 187.578 307.559C188.323 309.423 187.982 311.324 186.584 313.059C183.764 316.576 178.354 318.976 170.503 320.191C166.018 320.841 161.49 321.149 156.959 321.112ZM152.076 298.036C147.449 298 142.83 298.425 138.287 299.304C130.154 300.959 125.638 303.794 123.286 305.887C121.258 307.688 120.503 309.426 121.033 311.049C122.269 314.831 130.22 317.963 141.292 319.029C164.576 321.271 180.312 318.87 185.603 312.271C186.71 310.893 186.978 309.466 186.405 308.029C184.798 304.009 177.089 300.506 166.762 299.089C161.896 298.408 156.989 298.056 152.076 298.036Z" fill="#30262A"/>
<path d="M146.573 316.34L147.116 315.499C147.315 315.195 146.808 314.89 145.957 314.787C144.181 314.592 142.423 314.26 140.699 313.794C140.036 313.599 139.884 313.261 140.344 313.006L140.676 312.827C141.232 312.516 142.438 312.446 143.26 312.675C145.199 313.192 147.182 313.524 149.183 313.668C153.099 313.973 155.478 313.198 156.2 312.072C156.923 310.946 155.975 310.32 152.278 309.423C147.162 308.194 142.186 306.85 143.293 305.118C144.257 303.622 147.878 302.317 154.421 302.754C155.2 302.804 155.889 302.549 156.078 302.277L156.671 301.357C156.883 301.026 157.82 300.82 158.765 300.893C159.709 300.969 160.302 301.294 160.09 301.621L159.593 302.39C159.401 302.691 159.878 302.996 160.713 303.098C162.061 303.252 163.398 303.495 164.715 303.827C165.447 304.016 165.622 304.373 165.125 304.641L164.794 304.81C164.247 305.108 163.101 305.175 162.286 304.966C160.62 304.556 158.922 304.291 157.211 304.174C152.967 303.843 150.78 304.625 150.273 305.416C149.611 306.443 152.52 306.771 156.86 307.857C162.001 309.132 164.837 310.579 164.178 312.363C163.472 314.267 159.48 315.327 152.341 315.155C151.546 315.138 150.866 315.36 150.684 315.632L150.051 316.625C149.839 316.956 148.902 317.161 147.958 317.085H147.905C146.957 317.003 146.361 316.671 146.573 316.34Z" fill="#30262A"/>
<path d="M121.958 307.635V301.87L200.836 301.347L200.724 307.635H121.958Z" fill="#10DD8E"/>
<path d="M125.048 301.708C132.227 295.324 148.6 289.708 176.77 293.542C195.114 296.042 204.699 303.628 199.405 310.231C192.968 318.258 174.226 321.109 146.646 318.453C127.649 316.625 116.077 309.688 125.048 301.708Z" fill="#10DD8E"/>
<path d="M125.048 296.141C132.227 289.757 148.6 284.145 176.77 287.979C195.114 290.476 204.699 298.062 199.405 304.665C192.968 312.695 174.226 315.546 146.646 312.89C127.649 311.075 116.077 304.138 125.048 296.141Z" fill="#10DD8E"/>
<path d="M164.705 312.509C159.908 312.509 154.644 312.234 148.915 311.685C137.164 310.552 128.988 307.165 127.576 302.84C127.093 301.363 127.155 299.039 130.187 296.34C134.043 292.913 146.089 285.353 174.677 289.244C185.61 290.734 193.524 294.456 195.323 298.956C196.065 300.82 195.724 302.724 194.329 304.456C191.507 307.973 186.097 310.373 178.245 311.589C173.761 312.238 169.235 312.546 164.705 312.509ZM130.608 296.804L131.028 297.274C129.004 299.075 128.245 300.814 128.776 302.436C130.011 306.218 137.962 309.35 149.034 310.416C172.318 312.658 188.055 310.258 193.349 303.658C194.452 302.281 194.724 300.854 194.147 299.416C192.544 295.397 184.834 291.893 174.508 290.476C163.615 288.993 154.034 289.062 146.016 290.681C137.886 292.337 133.371 295.171 131.015 297.264L130.608 296.804Z" fill="#30262A"/>
<path d="M120.235 295.857V290.092L199.114 289.569L199.001 295.857H120.235Z" fill="#10DD8E"/>
<path d="M123.343 289.93C130.522 283.545 146.895 277.929 175.065 281.764C193.409 284.264 202.993 291.85 197.699 298.453C191.262 306.479 172.52 309.33 144.94 306.675C125.937 304.847 114.354 297.91 123.343 289.93Z" fill="#10DD8E"/>
<path d="M123.343 284.377C130.522 277.992 146.895 272.376 175.065 276.214C193.409 278.711 202.993 286.297 197.699 292.9C191.262 300.93 172.52 303.781 144.94 301.125C125.937 299.297 114.354 292.36 123.343 284.377Z" fill="#10DD8E"/>
<path d="M162.982 300.731C158.185 300.731 152.922 300.456 147.192 299.906C135.441 298.774 127.265 295.386 125.853 291.062C125.37 289.585 125.433 287.26 128.467 284.562C132.32 281.135 144.37 273.575 172.957 277.466C183.89 278.956 191.802 282.678 193.601 287.178C194.343 289.042 194.001 290.946 192.607 292.678C189.787 296.194 184.374 298.595 176.522 299.81C172.039 300.46 167.512 300.767 162.982 300.731ZM129.306 285.499C127.281 287.3 126.523 289.039 127.053 290.665C128.289 294.443 136.243 297.575 147.312 298.641C170.595 300.883 186.332 298.483 191.626 291.883C192.729 290.506 193.001 289.078 192.425 287.641C190.821 283.621 183.112 280.118 172.785 278.701C161.892 277.217 152.311 277.287 144.294 278.906C136.16 280.562 131.645 283.396 129.289 285.489L129.306 285.499Z" fill="#30262A"/>
<path d="M152.596 295.973L153.139 295.132C153.335 294.827 152.831 294.522 151.976 294.42C150.202 294.225 148.445 293.892 146.722 293.426C146.059 293.231 145.907 292.893 146.364 292.638L146.696 292.459C147.252 292.148 148.458 292.078 149.28 292.307C151.219 292.824 153.202 293.156 155.203 293.3C159.119 293.605 161.498 292.83 162.217 291.704C162.936 290.579 161.995 289.953 158.294 289.055C153.182 287.827 148.203 286.486 149.309 284.767C150.277 283.27 153.898 281.966 160.438 282.403C161.22 282.453 161.909 282.198 162.094 281.926L162.691 281.006C162.903 280.674 163.837 280.469 164.781 280.542C165.725 280.618 166.318 280.943 166.106 281.27L165.609 282.039C165.417 282.34 165.894 282.645 166.729 282.747C168.077 282.901 169.413 283.144 170.728 283.476C171.463 283.665 171.639 284.022 171.142 284.29L170.811 284.463C170.264 284.757 169.118 284.823 168.303 284.615C166.637 284.205 164.939 283.94 163.227 283.823C158.98 283.492 156.797 284.274 156.287 285.065C155.624 286.092 158.536 286.423 162.873 287.506C168.018 288.78 170.85 290.227 170.191 292.012C169.489 293.92 165.497 294.992 158.354 294.804C157.562 294.787 156.883 295.009 156.697 295.28L156.068 296.274C155.856 296.605 154.918 296.81 153.974 296.737H153.918C152.977 296.628 152.384 296.304 152.596 295.973Z" fill="#30262A"/>
<path d="M355.874 340.175V334.301L436.293 333.768L436.177 340.175H355.874Z" fill="#10DD8E"/>
<path d="M359.027 334.132C366.343 327.625 383.037 321.9 411.757 325.811C430.462 328.357 440.248 336.076 434.832 342.824C428.269 351.006 409.176 353.917 381.046 351.208C361.688 349.344 349.877 342.271 359.027 334.132Z" fill="#10DD8E"/>
<path d="M359.027 328.473C366.343 321.966 383.037 316.241 411.757 320.152C430.462 322.698 440.248 330.417 434.832 337.165C428.269 345.347 409.176 348.255 381.046 345.546C361.688 343.685 349.877 336.612 359.027 328.473Z" fill="#10DD8E"/>
<path d="M399.456 345.149C394.566 345.149 389.186 344.87 383.358 344.307C371.378 343.155 363.043 339.698 361.602 335.291C361.112 333.788 361.174 331.417 364.252 328.668C368.185 325.172 380.486 317.466 409.61 321.433C420.758 322.953 428.825 326.748 430.657 331.337C431.416 333.238 431.068 335.175 429.664 336.943C426.788 340.529 421.272 342.976 413.268 344.228C408.694 344.885 404.076 345.193 399.456 345.149ZM365.124 329.629C363.056 331.466 362.284 333.235 362.828 334.89C364.087 338.748 372.193 341.94 383.481 343.026C407.218 345.311 423.263 342.864 428.66 336.135C429.786 334.731 430.061 333.274 429.475 331.811C427.838 327.715 419.976 324.142 409.451 322.708C398.346 321.195 388.579 321.264 380.42 322.917C372.137 324.595 367.522 327.493 365.124 329.629Z" fill="#30262A"/>
<path d="M355.874 333.701V327.824L436.293 327.291L436.177 333.701H355.874Z" fill="#10DD8E"/>
<path d="M359.027 327.658C366.343 321.149 383.037 315.407 411.757 319.334C430.462 321.88 440.248 329.615 434.832 336.347C428.269 344.533 409.176 347.44 381.046 344.732C361.688 342.867 349.877 335.798 359.027 327.658Z" fill="#10DD8E"/>
<path d="M359.027 321.999C366.343 315.489 383.037 309.764 411.757 313.675C430.462 316.221 440.248 323.956 434.832 330.688C428.269 338.874 409.176 341.781 381.046 339.072C361.688 337.201 349.877 330.135 359.027 321.999Z" fill="#10DD8E"/>
<path d="M399.456 338.672C394.566 338.672 389.186 338.39 383.358 337.831C371.378 336.675 363.043 333.221 361.602 328.814C361.112 327.311 361.174 324.94 364.252 322.191C368.185 318.695 380.486 310.989 409.61 314.956C420.758 316.473 428.825 320.254 430.657 324.857C431.416 326.758 431.068 328.698 429.664 330.466C426.788 334.049 421.272 336.496 413.268 337.751C408.694 338.408 404.076 338.716 399.456 338.672ZM365.124 323.152C363.056 324.986 362.284 326.758 362.828 328.413C364.087 332.268 372.193 335.46 383.481 336.549C407.218 338.834 423.263 336.387 428.66 329.655C429.786 328.251 430.061 326.798 429.475 325.334C427.838 321.235 419.976 317.662 409.451 316.228C398.346 314.718 388.579 314.787 380.42 316.436C372.137 318.115 367.522 321.013 365.124 323.152Z" fill="#30262A"/>
<path d="M360.694 324.731V318.857L441.113 318.324L440.997 324.731H360.694Z" fill="#10DD8E"/>
<path d="M363.845 318.691C371.163 312.181 387.857 306.44 416.577 310.367C435.279 312.913 445.052 320.648 439.652 327.38C433.089 335.562 413.997 338.473 385.863 335.764C366.515 333.89 354.698 326.827 363.845 318.691Z" fill="#10DD8E"/>
<path d="M363.845 313.029C371.163 306.522 387.857 300.797 416.577 304.708C435.279 307.254 445.052 314.973 439.652 321.721C433.089 329.903 413.997 332.811 385.863 330.102C366.515 328.241 354.698 321.168 363.845 313.029Z" fill="#10DD8E"/>
<path d="M404.283 329.705C399.396 329.705 394.012 329.423 388.185 328.86C376.208 327.708 367.87 324.251 366.432 319.844C365.938 318.34 366.004 315.969 369.082 313.221C373.011 309.721 385.316 302.016 414.44 305.983C425.588 307.503 433.656 311.297 435.488 315.887C436.246 317.787 435.898 319.724 434.494 321.493C431.618 325.079 426.102 327.526 418.098 328.777C413.523 329.437 408.905 329.747 404.283 329.705ZM399.313 306.175C394.596 306.139 389.887 306.573 385.256 307.469C376.974 309.148 372.362 312.046 369.96 314.181C367.896 316.019 367.124 317.787 367.664 319.446C368.927 323.301 377.033 326.493 388.321 327.579C412.058 329.864 428.103 327.416 433.5 320.688C434.623 319.284 434.898 317.827 434.315 316.363C432.678 312.267 424.816 308.695 414.291 307.261C409.322 306.562 404.311 306.199 399.293 306.175H399.313Z" fill="#30262A"/>
<path d="M355.675 314.582V308.705L436.091 308.171L435.978 314.582H355.675Z" fill="#10DD8E"/>
<path d="M358.825 308.539C366.144 302.029 382.835 296.304 411.558 300.214C430.26 302.761 440.03 310.496 434.633 317.228C428.07 325.413 408.974 328.321 380.843 325.612C361.486 323.748 349.678 316.671 358.825 308.539Z" fill="#10DD8E"/>
<path d="M358.825 302.88C366.144 296.37 382.835 290.628 411.558 294.555C430.26 297.102 440.03 304.837 434.633 311.569C428.07 319.754 408.974 322.662 380.843 319.953C361.486 318.089 349.678 311.016 358.825 302.88Z" fill="#10DD8E"/>
<path d="M399.254 319.552C394.364 319.552 388.998 319.272 383.156 318.711C371.176 317.556 362.841 314.102 361.403 309.695C360.909 308.188 360.972 305.82 364.054 303.072C367.983 299.575 380.287 291.87 409.411 295.837C420.56 297.353 428.627 301.135 430.459 305.738C431.218 307.638 430.87 309.579 429.465 311.347C426.589 314.93 421.073 317.377 413.066 318.632C408.492 319.289 403.875 319.597 399.254 319.552ZM394.284 296.026C389.568 295.989 384.859 296.422 380.227 297.317C371.945 298.996 367.333 301.893 364.931 304.029C362.867 305.867 362.096 307.638 362.636 309.294C363.894 313.148 372.001 316.34 383.289 317.43C407.029 319.715 423.074 317.268 428.468 310.536C429.594 309.132 429.869 307.678 429.283 306.214C427.646 302.115 419.788 298.542 409.259 297.108C404.294 296.411 399.288 296.049 394.275 296.026H394.284Z" fill="#30262A"/>
<path d="M355.675 308.105V302.231L436.091 301.698L435.978 308.105H355.675Z" fill="#10DD8E"/>
<path d="M358.825 302.062C366.144 295.555 382.835 289.83 411.558 293.741C430.26 296.287 440.03 304.022 434.633 310.754C428.07 318.936 408.974 321.847 380.843 319.138C361.486 317.274 349.678 310.201 358.825 302.062Z" fill="#10DD8E"/>
<path d="M358.825 296.403C366.144 289.896 382.835 284.171 411.558 288.082C430.26 290.628 440.03 298.347 434.633 305.095C428.07 313.277 408.974 316.185 380.843 313.476C361.486 311.615 349.678 304.542 358.825 296.403Z" fill="#10DD8E"/>
<path d="M399.254 313.076C394.364 313.076 388.998 312.795 383.156 312.234C371.176 311.082 362.841 307.625 361.403 303.218C360.909 301.715 360.972 299.344 364.054 296.595C367.983 293.099 380.287 285.393 409.411 289.36C420.56 290.88 428.627 294.675 430.459 299.264C431.218 301.165 430.87 303.102 429.465 304.87C426.589 308.456 421.073 310.903 413.066 312.155C408.492 312.812 403.875 313.12 399.254 313.076ZM394.284 289.549C389.567 289.513 384.859 289.947 380.227 290.844C371.945 292.522 367.333 295.42 364.931 297.556C362.867 299.393 362.096 301.162 362.636 302.817C363.894 306.675 372.001 309.867 383.289 310.953C407.029 313.238 423.074 310.791 428.468 304.062C429.594 302.658 429.869 301.201 429.283 299.738C427.646 295.642 419.788 292.069 409.259 290.635C404.294 289.937 399.288 289.574 394.275 289.549H394.284Z" fill="#30262A"/>
<path d="M355.675 299.138V293.261L436.091 292.728L435.978 299.138H355.675Z" fill="#10DD8E"/>
<path d="M358.825 293.095C366.144 286.585 382.835 280.86 411.558 284.771C430.26 287.32 440.03 295.052 434.633 301.784C428.07 309.969 408.974 312.877 380.843 310.168C361.486 308.304 349.678 301.234 358.825 293.095Z" fill="#10DD8E"/>
<path d="M358.825 287.436C366.144 280.926 382.835 275.201 411.558 279.111C430.26 281.658 440.03 289.393 434.633 296.125C428.07 304.311 408.974 307.218 380.843 304.509C361.486 302.645 349.678 295.572 358.825 287.436Z" fill="#10DD8E"/>
<path d="M399.254 304.109C394.364 304.109 388.998 303.828 383.156 303.267C371.176 302.112 362.841 298.658 361.403 294.251C360.909 292.748 360.972 290.377 364.054 287.628C367.983 284.132 380.287 276.426 409.411 280.393C420.56 281.91 428.627 285.691 430.459 290.294C431.218 292.194 430.87 294.135 429.465 295.903C426.589 299.486 421.073 301.933 413.066 303.188C408.492 303.845 403.875 304.153 399.254 304.109ZM394.284 280.582C389.567 280.545 384.858 280.979 380.227 281.877C371.945 283.552 367.333 286.449 364.931 288.588C362.867 290.423 362.096 292.195 362.636 293.85C363.894 297.705 372.001 300.897 383.289 301.986C407.029 304.271 423.074 301.824 428.468 295.095C429.594 293.688 429.869 292.234 429.283 290.771C427.646 286.671 419.788 283.098 409.259 281.665C404.294 280.966 399.288 280.603 394.275 280.579L394.284 280.582Z" fill="#30262A"/>
<path d="M356.625 288.138V282.261L437.045 281.731L436.929 288.138H356.625Z" fill="#10DD8E"/>
<path d="M359.776 282.095C367.095 275.585 383.789 269.863 412.509 273.774C431.211 276.32 441.001 284.039 435.584 290.787C429.021 298.969 409.928 301.877 381.794 299.168C362.44 297.307 350.629 290.234 359.776 282.095Z" fill="#10DD8E"/>
<path d="M359.776 276.436C367.095 269.926 383.789 264.201 412.509 268.112C431.211 270.661 441.001 278.376 435.584 285.125C429.021 293.31 409.928 296.218 381.794 293.509C362.44 291.645 350.629 284.575 359.776 276.436Z" fill="#10DD8E"/>
<path d="M400.208 293.108C395.318 293.108 389.938 292.83 384.107 292.267C372.13 291.115 363.792 287.658 362.354 283.251C361.86 281.747 361.926 279.376 365.004 276.628C368.933 273.131 381.238 265.426 410.362 269.393C421.51 270.913 429.577 274.708 431.409 279.297C432.168 281.198 431.82 283.135 430.416 284.903C427.54 288.489 422.024 290.933 414.02 292.188C409.446 292.845 404.829 293.153 400.208 293.108ZM365.872 277.598C363.808 279.433 363.036 281.204 363.576 282.86C364.838 286.714 372.945 289.91 384.233 290.996C407.97 293.281 424.015 290.834 429.412 284.105C430.535 282.701 430.81 281.244 430.227 279.78C428.59 275.684 420.729 272.108 410.203 270.678C399.095 269.165 389.331 269.234 381.168 270.886C372.886 272.562 368.274 275.463 365.872 277.598Z" fill="#30262A"/>
<path d="M389.62 288.257L390.17 287.4C390.372 287.088 389.858 286.777 388.987 286.675C387.178 286.474 385.386 286.133 383.63 285.655C382.947 285.456 382.798 285.112 383.265 284.85L383.597 284.671C384.16 284.34 385.392 284.28 386.231 284.512C388.207 285.041 390.229 285.382 392.27 285.529C396.246 285.843 398.681 285.052 399.42 283.903C400.158 282.754 399.194 282.118 395.421 281.191C390.206 279.936 385.134 278.569 386.264 276.817C387.258 275.29 390.938 273.959 397.607 274.406C398.402 274.459 399.105 274.194 399.284 273.919L399.887 272.982C400.105 272.651 401.059 272.436 402.023 272.512C402.984 272.585 403.591 272.919 403.375 273.254L402.868 274.035C402.673 274.343 403.16 274.655 404.008 274.757C405.382 274.914 406.745 275.162 408.086 275.499C408.838 275.694 409.017 276.059 408.51 276.333L408.179 276.506C407.619 276.807 406.45 276.876 405.621 276.661C403.923 276.244 402.191 275.974 400.446 275.853C396.116 275.522 393.89 276.317 393.373 277.121C392.711 278.168 395.663 278.502 400.085 279.608C405.33 280.906 408.222 282.383 407.546 284.204C406.831 286.145 402.759 287.224 395.48 287.052C394.669 287.032 393.98 287.261 393.801 287.535L393.155 288.529C392.939 288.86 391.985 289.075 391.021 288.999H390.965C390.007 288.926 389.401 288.595 389.62 288.257Z" fill="#30262A"/>
<path d="M357.503 277.953V272.078L437.919 271.545L437.803 277.953H357.503Z" fill="#10DD8E"/>
<path d="M360.654 271.913C367.972 265.403 384.663 259.678 413.383 263.588C432.088 266.135 441.875 273.87 436.462 280.602C429.899 288.787 410.803 291.695 382.672 288.986C363.314 287.122 351.507 280.049 360.654 271.913Z" fill="#10DD8E"/>
<path d="M360.654 266.254C367.972 259.744 384.663 254.019 413.383 257.929C432.088 260.476 441.875 268.194 436.462 274.943C429.899 283.128 410.803 286.035 382.672 283.327C363.314 281.462 351.507 274.39 360.654 266.254Z" fill="#10DD8E"/>
<path d="M401.083 282.926C396.196 282.926 390.813 282.645 384.985 282.082C373.006 280.929 364.67 277.476 363.229 273.068C362.739 271.562 362.801 269.191 365.896 266.446C369.825 262.949 382.129 255.244 411.254 259.211C422.402 260.727 430.469 264.509 432.298 269.112C433.06 271.012 432.712 272.953 431.304 274.717C428.428 278.304 422.912 280.751 414.905 282.002C410.328 282.659 405.707 282.968 401.083 282.926ZM396.114 259.399C391.397 259.363 386.688 259.796 382.057 260.691C373.774 262.37 369.162 265.267 366.761 267.403C364.697 269.241 363.925 271.012 364.465 272.668C365.724 276.522 373.83 279.714 385.118 280.8C408.859 283.088 424.9 280.638 430.297 273.909C431.423 272.506 431.698 271.052 431.112 269.585C429.475 265.489 421.617 261.916 411.088 260.482C406.124 259.781 401.117 259.414 396.104 259.386L396.114 259.399Z" fill="#30262A"/>
<path d="M390.494 278.075L391.048 277.218C391.25 276.906 390.716 276.595 389.865 276.492C388.054 276.291 386.262 275.948 384.505 275.469C383.825 275.274 383.676 274.929 384.144 274.668L384.475 274.486C385.041 274.155 386.27 274.098 387.125 274.33C389.102 274.859 391.124 275.199 393.165 275.347C397.14 275.658 399.579 274.866 400.318 273.721C401.056 272.575 400.089 271.936 396.319 271.005C391.104 269.754 386.029 268.383 387.158 266.635C388.152 265.108 391.836 263.777 398.505 264.221C399.3 264.274 400.003 264.012 400.178 263.737L400.785 262.797C401 262.466 401.957 262.25 402.918 262.327C403.882 262.403 404.485 262.734 404.27 263.068L403.766 263.853C403.568 264.158 404.055 264.469 404.906 264.575C406.281 264.73 407.643 264.978 408.984 265.317C409.733 265.509 409.912 265.876 409.405 266.148L409.074 266.32C408.517 266.621 407.348 266.691 406.519 266.479C404.821 266.061 403.09 265.79 401.345 265.671C397.014 265.34 394.788 266.131 394.268 266.936C393.605 267.982 396.561 268.32 400.983 269.426C406.228 270.724 409.117 272.201 408.444 274.019C407.725 275.963 403.657 277.039 396.375 276.867C395.567 276.847 394.874 277.075 394.699 277.35L394.053 278.343C393.837 278.674 392.883 278.89 391.919 278.817H391.863C390.885 278.744 390.279 278.41 390.494 278.075Z" fill="#30262A"/>
<path d="M376.143 265.164V259.287L456.562 258.754L456.446 265.164H376.143Z" fill="#10DD8E"/>
<path d="M379.296 259.121C386.611 252.611 403.306 246.886 432.026 250.797C450.731 253.343 460.517 261.062 455.101 267.81C448.541 275.996 429.445 278.903 401.314 276.194C381.957 274.33 370.159 267.257 379.296 259.121Z" fill="#10DD8E"/>
<path d="M379.296 253.462C386.611 246.952 403.306 241.227 432.026 245.138C450.731 247.684 460.517 255.419 455.101 262.151C448.541 270.337 429.445 273.244 401.314 270.535C381.957 268.658 370.159 261.598 379.296 253.462Z" fill="#10DD8E"/>
<path d="M419.725 270.135C414.835 270.135 409.455 269.853 403.627 269.29C391.647 268.138 383.312 264.684 381.871 260.277C381.381 258.77 381.443 256.403 384.521 253.654C388.454 250.158 400.755 242.452 429.879 246.419C441.031 247.936 449.094 251.717 450.927 256.32C451.685 258.221 451.337 260.161 449.933 261.926C447.06 265.512 441.541 267.959 433.537 269.211C428.963 269.867 424.346 270.176 419.725 270.135ZM414.755 246.608C410.039 246.572 405.33 247.004 400.698 247.899C392.416 249.578 387.801 252.476 385.402 254.611C383.338 256.449 382.563 258.221 383.107 259.876C384.366 263.731 392.472 266.923 403.76 268.009C427.497 270.294 443.542 267.85 448.939 261.118C450.065 259.714 450.34 258.26 449.754 256.813C448.117 252.714 440.259 249.141 429.73 247.707C424.766 247.004 419.759 246.637 414.746 246.608H414.755Z" fill="#30262A"/>
<path d="M363.643 256.724V250.85L444.059 250.317L443.946 256.724H363.643Z" fill="#10DD8E"/>
<path d="M366.793 250.684C374.112 244.174 390.802 238.449 419.526 242.36C438.228 244.906 447.998 252.641 442.601 259.373C436.038 267.558 416.942 270.466 388.811 267.757C369.454 265.893 357.646 258.82 366.793 250.684Z" fill="#10DD8E"/>
<path d="M366.793 245.025C374.112 238.515 390.802 232.79 419.526 236.701C438.228 239.247 447.998 246.982 442.601 253.714C436.038 261.896 416.942 264.807 388.811 262.098C369.454 260.234 357.646 253.161 366.793 245.025Z" fill="#10DD8E"/>
<path d="M407.222 261.704C402.332 261.704 396.966 261.423 391.124 260.86C379.144 259.708 370.809 256.254 369.371 251.847C368.877 250.34 368.94 247.969 372.021 245.224C375.95 241.727 388.255 234.022 417.379 237.989C428.527 239.505 436.595 243.287 438.427 247.889C439.185 249.79 438.837 251.731 437.433 253.496C434.557 257.082 429.041 259.529 421.033 260.78C416.46 261.437 411.842 261.746 407.222 261.704ZM402.252 238.194C397.535 238.158 392.826 238.59 388.195 239.485C379.913 241.164 375.301 244.062 372.899 246.197C370.835 248.035 370.063 249.807 370.603 251.462C371.862 255.317 379.969 258.509 391.256 259.595C414.997 261.88 431.042 259.433 436.436 252.704C437.562 251.3 437.837 249.846 437.251 248.38C435.614 244.283 427.756 240.711 417.227 239.277C412.263 238.572 407.256 238.202 402.242 238.171L402.252 238.194Z" fill="#30262A"/>
<path d="M396.633 256.846L397.187 255.989C397.389 255.678 396.872 255.366 396.004 255.264C394.193 255.062 392.401 254.72 390.644 254.24C389.981 254.045 389.815 253.701 390.282 253.439L390.614 253.257C391.18 252.926 392.413 252.87 393.248 253.101C395.226 253.629 397.249 253.969 399.29 254.118C403.266 254.429 405.701 253.638 406.44 252.492C407.179 251.346 406.211 250.707 402.441 249.777C397.226 248.525 392.171 247.154 393.281 245.403C394.275 243.879 397.959 242.548 404.628 242.992C405.423 243.045 406.125 242.783 406.284 242.509L406.891 241.568C407.106 241.237 408.063 241.022 409.024 241.098C409.988 241.174 410.591 241.505 410.376 241.84L409.872 242.624C409.673 242.929 410.16 243.24 411.012 243.346C412.386 243.501 413.749 243.749 415.09 244.088C415.839 244.28 416.018 244.648 415.511 244.919L415.18 245.091C414.623 245.393 413.453 245.462 412.625 245.25C410.927 244.832 409.196 244.562 407.45 244.442C403.12 244.111 400.894 244.903 400.374 245.707C399.711 246.754 402.666 247.091 407.089 248.197C412.334 249.495 415.223 250.972 414.55 252.79C413.831 254.734 409.763 255.81 402.481 255.638C401.673 255.618 400.98 255.846 400.805 256.121L400.142 257.115C399.927 257.446 398.972 257.661 398.008 257.588H397.952C397.024 257.515 396.418 257.181 396.633 256.846Z" fill="#30262A"/>
<path d="M390.011 324.092C390.011 305.36 398.343 285.406 425.248 285.406C442.767 285.406 457.768 301.383 459.53 320.019C461.674 342.672 448.816 356.413 423.492 359.215C406.062 361.142 390.011 347.506 390.011 324.092Z" fill="#10DD8E"/>
<path d="M420.907 354.847C414.707 354.862 408.723 352.567 404.124 348.41C397.753 342.708 394.245 333.98 394.245 323.837C394.245 317.393 395.388 308.168 400.841 300.827C406.201 293.612 414.394 289.953 425.191 289.953C440.229 289.953 453.746 303.559 455.339 320.284C457.205 340.016 446.01 352.231 423.816 354.685C422.851 354.794 421.879 354.848 420.907 354.847ZM425.191 291.933C416.478 291.933 396.213 295.042 396.213 323.847C396.213 333.423 399.489 341.629 405.436 346.953C407.875 349.155 410.757 350.81 413.888 351.808C417.019 352.805 420.327 353.122 423.591 352.738C434.093 351.579 441.988 348.205 447.06 342.715C452.132 337.225 454.246 329.751 453.355 320.476C451.877 304.728 439.238 291.923 425.191 291.923V291.933Z" fill="#30262A"/>
<path d="M425.048 343.453L424.717 341.135C424.673 340.74 424.481 340.375 424.18 340.114C423.88 339.853 423.492 339.714 423.094 339.725C421.302 339.818 419.51 339.572 417.81 338.999C417.446 338.855 417.144 338.588 416.956 338.244C416.768 337.901 416.705 337.503 416.779 337.119L416.879 336.556C416.908 336.333 416.986 336.119 417.106 335.928C417.226 335.738 417.386 335.576 417.576 335.454C417.765 335.332 417.978 335.252 418.201 335.221C418.424 335.189 418.651 335.206 418.866 335.271C420.745 335.898 422.747 336.065 424.704 335.758C428.229 335.178 429.475 332.38 429.011 329.268C428.58 326.264 427.195 324.89 423.283 323.854C417.902 322.499 412.532 320.807 411.85 316.056C411.253 311.913 413.039 307.337 418.863 306.181C419.559 306.042 419.887 305.152 419.781 304.403L419.416 301.853C419.344 301.43 419.44 300.994 419.683 300.64C419.926 300.285 420.297 300.039 420.718 299.953C420.927 299.925 421.139 299.939 421.342 299.995C421.545 300.05 421.735 300.146 421.9 300.276C422.066 300.406 422.204 300.567 422.306 300.751C422.408 300.935 422.472 301.138 422.494 301.347L422.799 303.473C422.842 303.863 423.028 304.223 423.321 304.484C423.614 304.745 423.993 304.888 424.386 304.887C425.728 304.823 427.07 304.98 428.361 305.35C428.753 305.478 429.083 305.747 429.287 306.104C429.491 306.462 429.554 306.882 429.465 307.284L429.362 307.827C429.329 308.042 429.251 308.248 429.133 308.43C429.015 308.613 428.86 308.769 428.678 308.888C428.496 309.007 428.29 309.087 428.075 309.121C427.861 309.156 427.641 309.145 427.431 309.089C425.823 308.634 424.134 308.546 422.488 308.83C418.664 309.459 417.584 312.208 417.896 314.393C418.303 317.231 421.02 317.066 425.625 318.324C431.068 319.778 434.765 322.483 435.895 327.264C437.085 332.354 434.762 336.426 428.689 338.466C428.027 338.695 427.662 339.499 427.768 340.244L428.159 342.96C428.232 343.384 428.136 343.82 427.892 344.174C427.648 344.529 427.276 344.775 426.854 344.86H426.804C426.596 344.885 426.385 344.868 426.184 344.811C425.982 344.753 425.794 344.656 425.631 344.525C425.468 344.394 425.332 344.232 425.232 344.048C425.132 343.864 425.069 343.661 425.048 343.453Z" fill="#30262A"/>
<path d="M197.463 306.794C186.981 320.403 164.125 356.993 172.397 369.556C180.67 382.119 230.656 379.311 238.833 374.646C247.009 369.98 226.502 311.817 219.816 304.486C213.13 297.155 204.778 297.291 197.463 306.794Z" fill="#10DD8E"/>
<path d="M200.051 355.235L200.485 353.215C200.564 352.868 200.517 352.505 200.351 352.191C200.186 351.876 199.914 351.631 199.584 351.5C198.08 350.948 196.689 350.125 195.482 349.072C195.23 348.833 195.067 348.516 195.018 348.172C194.969 347.828 195.038 347.478 195.214 347.178L195.462 346.754C195.558 346.583 195.691 346.434 195.851 346.32C196.012 346.206 196.196 346.129 196.389 346.095C196.583 346.06 196.782 346.07 196.972 346.122C197.162 346.174 197.338 346.268 197.487 346.397C198.822 347.555 200.411 348.384 202.125 348.817C205.183 349.566 207.048 347.711 207.628 345.013C208.188 342.407 207.472 340.804 204.59 338.602C200.614 335.622 196.725 332.38 197.613 328.258C198.381 324.668 201.23 321.546 206.339 322.629C206.952 322.758 207.492 322.142 207.631 321.493L208.105 319.281C208.137 319.098 208.206 318.923 208.308 318.767C208.41 318.612 208.542 318.479 208.697 318.376C208.852 318.273 209.026 318.203 209.209 318.169C209.392 318.136 209.58 318.14 209.761 318.181C210.126 318.285 210.437 318.525 210.628 318.852C210.82 319.179 210.877 319.568 210.788 319.936L210.394 321.781C210.314 322.121 210.357 322.479 210.516 322.791C210.675 323.103 210.939 323.348 211.262 323.483C212.388 323.904 213.442 324.499 214.383 325.248C214.661 325.484 214.845 325.812 214.902 326.172C214.959 326.532 214.886 326.901 214.694 327.211L214.449 327.619C214.353 327.781 214.222 327.921 214.067 328.03C213.912 328.138 213.735 328.211 213.549 328.246C213.363 328.28 213.171 328.274 212.988 328.228C212.804 328.182 212.633 328.097 212.484 327.979C211.316 327.056 209.959 326.399 208.509 326.056C205.196 325.241 203.477 327.115 203.069 329.009C202.542 331.473 204.812 332.278 208.194 334.903C212.203 337.98 214.403 341.473 213.866 345.758C213.296 350.334 210.162 352.857 204.59 352.417C203.967 352.37 203.437 352.903 203.294 353.552L202.791 355.907C202.759 356.09 202.689 356.264 202.588 356.42C202.486 356.576 202.353 356.709 202.199 356.812C202.044 356.915 201.869 356.985 201.686 357.018C201.503 357.052 201.316 357.048 201.134 357.006H201.091C200.721 356.905 200.405 356.663 200.21 356.332C200.016 356.001 199.959 355.607 200.051 355.235Z" fill="#131F2D"/>
<path d="M222.162 286.383C222.162 286.383 211.56 287.916 210.567 294.645C209.573 301.373 219.843 296.016 226.684 297.811C233.526 299.605 229.666 294.291 228.119 290.751C226.572 287.211 226.707 285.91 222.162 286.383Z" fill="#10DD8E"/>
<path d="M252.048 217.333C252.048 217.333 240.281 212.955 236.987 215.015C233.694 217.075 226.585 224.79 226.055 219.651C225.747 216.7 232.846 208.853 234.559 206.429C236.272 204.005 236.825 200.985 239.721 200.333C242.904 199.614 256.557 211.8 256.557 211.8C255.595 212.767 254.73 213.827 253.973 214.962C252.115 217.727 252.048 217.333 252.048 217.333Z" fill="#2F1A31"/>
<path d="M337.285 273.353C328.393 273.353 308.498 263.542 289.876 251.711C273.179 241.115 257.515 228.863 251.747 220.641C248.878 216.552 255.448 209.84 258.568 208.426C267.358 204.452 281.232 214.823 298.682 221.959C313.759 228.128 326.299 234.565 326.299 234.565L337.285 273.353Z" fill="#2D5E6B"/>
<path d="M337.285 273.353C328.393 273.353 308.498 263.542 289.876 251.711L298.682 221.959C313.759 228.128 326.299 234.565 326.299 234.565L337.285 273.353Z" fill="#2D5E6B"/>
<path d="M221.237 239.323C221.237 239.323 208.95 236.747 205.998 239.283C203.046 241.82 197.172 250.502 195.867 245.499C195.121 242.631 200.969 233.81 202.304 231.161C203.639 228.512 203.732 225.439 206.495 224.363C209.536 223.174 224.855 233.191 224.855 233.191C224.047 234.289 223.35 235.465 222.775 236.701C221.363 239.701 221.237 239.323 221.237 239.323Z" fill="#2F1A31"/>
<path d="M223.063 229.717C218.239 231.426 213.889 238.525 216.457 242.105C226.916 256.674 274.855 280.486 291.39 277.986L293.805 244.704C293.805 244.704 232.048 226.535 223.063 229.717Z" fill="#2D5E6B"/>
<path d="M330.072 18.8246C330.515 18.7754 330.92 18.553 331.198 18.2061C331.477 17.8592 331.607 17.4161 331.56 16.9736L330.023 2.73509C329.974 2.29223 329.752 1.88669 329.405 1.60734C329.058 1.32799 328.614 1.19765 328.171 1.24501C327.729 1.29418 327.324 1.51613 327.046 1.86232C326.767 2.2085 326.637 2.65082 326.683 3.09273L328.22 17.3313C328.269 17.7743 328.491 18.1803 328.838 18.4601C329.185 18.74 329.629 18.871 330.072 18.8246Z" fill="#F7B686"/>
<path d="M325.785 19.2849C326.227 19.2357 326.632 19.014 326.911 18.6679C327.191 18.3218 327.322 17.8794 327.276 17.4372L325.553 1.49677C325.505 1.05479 325.283 0.650013 324.937 0.371284C324.59 0.0925549 324.147 -0.0374388 323.705 0.00992028C323.263 0.0591164 322.858 0.280996 322.579 0.627068C322.299 0.973139 322.168 1.4154 322.214 1.85764L323.933 17.7948C323.983 18.2373 324.205 18.6424 324.552 18.9216C324.899 19.2008 325.342 19.3314 325.785 19.2849Z" fill="#F7B686"/>
<path d="M325.53 27.7056L325.958 27.285C326.338 26.9053 326.554 26.3906 326.557 25.853C326.56 25.3154 326.351 24.7983 325.974 24.4142L318.321 16.6789C317.942 16.2967 317.427 16.0805 316.888 16.0774C316.35 16.0743 315.832 16.2846 315.449 16.6624L315.025 17.0797C314.646 17.4612 314.433 17.9773 314.433 18.5151C314.433 19.053 314.646 19.569 315.025 19.9506L322.674 27.6889C323.054 28.0645 323.565 28.2766 324.099 28.2797C324.633 28.2828 325.147 28.0767 325.53 27.7056Z" fill="#F7B686"/>
<path d="M321.508 19.7452C321.95 19.6969 322.356 19.4753 322.635 19.1291C322.914 18.7828 323.045 18.3399 322.999 17.8975L321.621 5.12254C321.572 4.67969 321.35 4.27414 321.003 3.99479C320.656 3.71544 320.212 3.5851 319.769 3.63246C319.327 3.68163 318.922 3.90358 318.644 4.24977C318.365 4.59595 318.235 5.03827 318.281 5.48018L319.659 18.2584C319.709 18.7 319.931 19.1043 320.277 19.3829C320.623 19.6615 321.066 19.7917 321.508 19.7452Z" fill="#F7B686"/>
<path d="M333.839 26.6294C333.839 26.6294 337.785 17.8809 334.621 11.8411C333.524 9.74839 320.975 11.4537 320.077 13.9404C319.179 16.4272 320.952 24.9637 320.952 24.9637L333.839 26.6294Z" fill="#F7B686"/>
<path d="M334.309 18.3777C334.751 18.3285 335.154 18.1069 335.433 17.7615C335.712 17.416 335.842 16.9745 335.797 16.5332L334.419 3.78471C334.37 3.34338 334.149 2.93916 333.803 2.66053C333.457 2.38189 333.015 2.25161 332.573 2.29803C332.132 2.34639 331.727 2.56758 331.449 2.91324C331.17 3.2589 331.039 3.70081 331.086 4.14236L332.461 16.8942C332.511 17.3352 332.733 17.7386 333.079 18.0164C333.426 18.2943 333.868 18.4242 334.309 18.3777Z" fill="#F7B686"/>
<path d="M251.71 119.915C251.71 119.915 251.564 104.305 278.794 97.0107C299.765 91.3815 318.046 95.3385 326.898 112.186C334.617 126.885 337.109 140.379 341.608 177.938C341.608 177.938 281.136 178.422 265.303 194.204C265.303 194.204 266.072 161.018 252.89 128.746C251.719 125.959 251.311 122.911 251.71 119.915Z" fill="#1A2E35"/>
<path d="M212.481 59.9673C221.874 78.0337 259.049 101.441 270.604 99.7955C273.089 99.4412 254.891 133.478 254.262 132.289C251.108 126.329 248.686 123.935 243.61 120.11C226.999 107.59 204.375 90.865 197.752 72.8648L212.481 59.9673Z" fill="#1A2E35"/>
<path d="M284.379 96.2358C284.379 96.2358 322.147 72.6794 319.828 29.6161C319.795 28.9966 319.891 28.3769 320.109 27.7962C320.328 27.2155 320.665 26.6864 321.099 26.2426C321.533 25.7988 322.054 25.4498 322.629 25.2177C323.205 24.9856 323.823 24.8754 324.443 24.8941L332.726 25.1459C333.46 25.1664 334.165 25.4338 334.728 25.905C335.291 26.3761 335.678 27.0234 335.827 27.7419C337.463 35.6227 341.127 61.4408 328.979 97.61C327.73 101.322 324.97 107.213 329.582 117.68L284.379 96.2358Z" fill="#1A2E35"/>
<path d="M287.607 101.243C287.786 107.094 286.802 149.554 221.513 153.561C217.464 153.811 213.581 155.254 210.351 157.707L201.459 164.462C201.198 164.66 200.987 164.918 200.845 165.214C200.703 165.51 200.634 165.836 200.643 166.164C200.652 166.492 200.739 166.814 200.897 167.102C201.055 167.389 201.28 167.635 201.552 167.819L209.877 173.448C215.218 177.065 221.632 178.757 228.062 178.246C241.536 177.187 264.919 173.048 280.984 157.594C300.064 139.239 294.567 111.037 291.668 100.613C291.564 100.236 291.354 99.8961 291.064 99.6333C290.773 99.3705 290.414 99.1957 290.028 99.129C289.642 99.0624 289.245 99.1067 288.883 99.2569C288.521 99.4072 288.209 99.6571 287.984 99.9775C287.722 100.346 287.59 100.791 287.607 101.243Z" fill="#10DD8E"/>
<path d="M265.304 194.203C266.019 197.882 283.525 196.614 304.728 192.376C325.931 188.137 342.317 181.617 341.605 177.938C340.893 174.26 322.108 171.256 300.912 175.495C279.715 179.733 264.588 190.528 265.304 194.203Z" fill="#2F1A31"/>
<path d="M313 250.634C319.004 230.691 303.257 208.995 303.456 195.591C303.456 195.591 303.125 182.972 308.783 182.28C327.336 180.011 340.846 179.733 340.846 179.733C341.254 180.26 365.783 219.469 349.235 264.552C340.415 288.582 311.251 256.432 313 250.634Z" fill="#2D5E6B"/>
<path d="M270.849 248.919C281.924 231.28 265.717 209.035 269.461 196.161C269.461 196.161 275.458 188.525 297.87 182.829C327.379 175.333 340.846 179.733 340.846 179.733C341.081 180.303 331.434 224.717 307.991 262.327C306.056 265.429 304.227 268.949 302.101 271.929C287.229 292.767 267.626 254.049 270.849 248.919Z" fill="#2D5E6B"/>
<path d="M307.991 262.562C307.951 262.562 307.911 262.551 307.875 262.532C307.847 262.517 307.822 262.496 307.802 262.471C307.782 262.446 307.767 262.417 307.759 262.386C307.75 262.355 307.748 262.322 307.753 262.291C307.758 262.259 307.769 262.228 307.786 262.201C307.921 261.959 321.465 237.605 321.906 200.3C321.91 200.238 321.936 200.18 321.98 200.137C322.024 200.093 322.082 200.068 322.144 200.065C322.175 200.065 322.206 200.072 322.235 200.084C322.264 200.096 322.29 200.114 322.312 200.137C322.334 200.159 322.351 200.186 322.362 200.215C322.374 200.244 322.38 200.275 322.379 200.306C322.222 215.668 319.776 230.92 315.124 245.562C311.675 256.237 308.23 262.373 308.196 262.449C308.175 262.484 308.145 262.513 308.109 262.533C308.073 262.552 308.032 262.562 307.991 262.562Z" fill="#2F1A31"/>
<path d="M278.549 93.2757L277.886 86.0107L277.694 83.8948L276.564 71.4609L281.534 82.2457L284.515 88.716L285.46 90.7657C286.102 92.1564 287.086 92.0902 288.643 92.8981C289.276 93.2293 293.242 95.12 290.717 97.7558C287.567 101.041 279.311 101.431 275.186 99.1863C275.216 99.1731 278.764 95.6234 278.549 93.2757Z" fill="#F7B686"/>
<path d="M283.657 63.6893C284.897 65.4992 285.742 67.5489 286.139 69.7059C286.821 73.3483 280.026 66.5172 280.026 66.5172L283.657 63.6893Z" fill="#56335B"/>
<path d="M286.944 70.5107C283.425 64.3914 276.455 61.7921 271.372 64.7093C266.29 67.6265 265.028 74.9512 268.547 81.0704C272.065 87.1897 279.035 89.789 284.118 86.875C289.2 83.9611 290.459 76.6332 286.944 70.5107Z" fill="#F7B686"/>
<path d="M266.91 77.7888L271.456 75.3417C271.952 75.079 272.382 74.708 272.715 74.2563C273.047 73.8045 273.274 73.2837 273.377 72.7324C273.709 70.8119 274.57 69.5502 279.066 67.8913C284.761 65.7919 287.083 60.9375 286.48 57.7454C285.864 54.5004 282.173 53.6528 279.934 56.2389C277.694 58.825 277.472 54.8283 274.61 55.5766C269.262 56.9674 269.925 61.2555 265.727 62.8349C260.228 64.9045 252.201 73.037 260.758 80.696L266.91 77.7888Z" fill="#2F1A31"/>
<path d="M278.058 75.0836C278.077 75.0563 278.089 75.0252 278.095 74.9925C278.1 74.9599 278.098 74.9264 278.088 74.8947C278.08 74.8677 278.066 74.8428 278.047 74.8211C278.029 74.7995 278.006 74.7817 277.981 74.7688C277.956 74.7558 277.928 74.748 277.9 74.7458C277.872 74.7435 277.843 74.7469 277.816 74.7557C277.316 74.8817 276.872 75.1709 276.555 75.5775C276.237 75.9841 276.065 76.485 276.064 77.0008C276.06 77.0574 276.079 77.1131 276.116 77.1559C276.154 77.1986 276.206 77.225 276.263 77.2293C276.382 77.2293 276.458 77.1464 276.495 77.0306C276.76 76.2647 277.271 75.608 277.949 75.1629C277.993 75.1495 278.032 75.1216 278.058 75.0836Z" fill="#060633"/>
<path d="M278.247 77.9875C278.562 78.3915 279.052 78.5372 279.347 78.3187C279.642 78.1001 279.629 77.5803 279.314 77.173C279 76.7657 278.509 76.6233 278.214 76.8418C277.919 77.0604 277.933 77.5968 278.247 77.9875Z" fill="#060633"/>
<path d="M285.168 71.4642C285.191 71.449 285.21 71.4276 285.221 71.4025C285.233 71.3773 285.238 71.3493 285.234 71.3218C285.232 71.2672 285.213 71.2147 285.179 71.1719C285.145 71.1291 285.098 71.0981 285.045 71.0835C284.849 71.0196 284.641 70.9967 284.435 71.0164C284.229 71.036 284.029 71.0978 283.848 71.1978C283.667 71.2977 283.509 71.4339 283.382 71.5976C283.256 71.7614 283.165 71.9491 283.114 72.1496C283.101 72.2019 283.105 72.2571 283.125 72.3071C283.145 72.3571 283.181 72.3994 283.227 72.4279C283.245 72.4412 283.266 72.4503 283.289 72.4546C283.311 72.4588 283.334 72.4581 283.357 72.4525C283.379 72.4468 283.399 72.4363 283.417 72.4217C283.435 72.4072 283.449 72.3889 283.459 72.3682C283.649 72.1161 283.889 71.9067 284.166 71.7538C284.442 71.6009 284.747 71.5079 285.062 71.4807C285.08 71.4857 285.099 71.4868 285.117 71.484C285.135 71.4811 285.153 71.4744 285.168 71.4642Z" fill="#060633"/>
<path d="M284.194 74.2491C284.33 74.7424 284.731 75.0636 285.089 74.9676C285.446 74.8716 285.632 74.3881 285.496 73.8914C285.36 73.3947 284.959 73.0768 284.602 73.1761C284.244 73.2755 284.062 73.7524 284.194 74.2491Z" fill="#060633"/>
<path d="M260.755 80.6928C260.755 80.6928 266.947 86.4113 271.807 84.9974C271.807 84.9974 265.827 81.1597 272.397 74.6133C272.397 74.6166 264.651 76.4808 260.755 80.6928Z" fill="#56335B"/>
<path d="M268.914 81.9014C270.17 82.1232 271.35 81.3947 271.548 80.2755C271.747 79.1562 270.886 78.0636 269.637 77.8418C268.388 77.6199 267.202 78.3483 267.003 79.4675C266.804 80.5867 267.659 81.6729 268.914 81.9014Z" fill="#F7B686"/>
<path d="M272.396 74.6165C272.396 74.6165 274.209 80.8118 275.878 81.4343C277.548 82.0569 285.725 79.2556 288.855 76.2854C289.659 78.1163 289.781 80.1739 289.2 82.0871C288.62 84.0002 287.374 85.6431 285.688 86.7191C284.513 87.4501 283.223 87.9764 281.872 88.2755C279.079 88.8914 276.1 88.8582 274.03 86.8847C273.4 86.2853 272.486 81.3682 272.486 81.3682C272.486 81.3682 271.75 78.5669 269.637 77.8218C269.637 77.8351 270.77 75.5006 272.396 74.6165Z" fill="#56335B"/>
<path d="M287.772 79.2523C285.89 80.6225 283.801 81.6823 281.583 82.3914C281.583 82.3914 283.346 85.2789 286.473 83.2723C288.289 82.0968 287.772 79.2523 287.772 79.2523Z" fill="white"/>
<path d="M278.353 56.1892C278.08 56.184 277.812 56.1088 277.576 55.9708C277.34 55.8328 277.144 55.6368 277.005 55.4012L277.26 55.2654C277.283 55.3084 277.826 56.2951 279.099 55.7223L279.218 55.9873C278.947 56.1153 278.653 56.1842 278.353 56.1892Z" fill="#2F1A31"/>
<path d="M280.006 65.676L279.917 65.5635C279.97 65.5204 285.218 61.2985 284.187 58.1263C283.899 57.229 283.525 56.7124 283.018 56.5468C282.219 56.2819 281.245 56.9773 280.384 57.5899L280 57.8613L279.917 57.7422L280.301 57.4707C281.189 56.8383 282.196 56.1229 283.064 56.411C283.611 56.5932 284.022 57.1394 284.326 58.0832C284.76 59.4375 284.151 61.1826 282.557 63.1296C281.788 64.056 280.934 64.9085 280.006 65.676Z" fill="white"/>
<path d="M263.852 64.8946L263.816 64.7556C267.033 63.9112 268.934 62.3018 269.962 61.0965C270.596 60.3848 271.096 59.5635 271.436 58.6727L271.572 58.7157C271.558 58.7621 270.081 63.2622 263.852 64.8946Z" fill="white"/>
<path d="M284.24 97.8386C284.24 97.8386 288.64 95.1002 290.204 95.9181C291.767 96.736 292.221 102.236 290.137 103.282C288.054 104.329 282.392 99.6764 284.24 97.8386Z" fill="#1A2E35"/>
<path d="M208.366 70.4277C203.622 75.7258 199.378 74.9013 197.765 72.8648C196.151 70.8284 198.259 66.441 202.496 63.0601C206.733 59.6793 210.871 57.9308 212.494 59.9673C214.118 62.0037 211.987 66.3946 208.366 70.4277Z" fill="#2F1A31"/>
<path d="M211.944 50.6263L211.328 50.4708C210.773 50.3288 210.184 50.4125 209.69 50.7036C209.197 50.9947 208.839 51.4693 208.694 52.0237L208.201 53.9442L203.119 42.5898C202.854 42.0774 202.46 41.6429 201.976 41.3293C201.492 41.0157 200.935 40.8339 200.359 40.8018C200.147 40.8014 199.938 40.8541 199.752 40.9552C199.565 41.0562 199.407 41.2024 199.292 41.3803C199.177 41.5581 199.108 41.762 199.092 41.9733C199.075 42.1846 199.112 42.3965 199.199 42.5898L202.612 50.2058C202.28 50.2588 201.949 50.3284 201.618 50.4079L197.202 40.5435C197.024 40.1261 196.699 39.7889 196.288 39.5964C195.877 39.4039 195.41 39.3698 194.975 39.5005C194.738 39.5797 194.52 39.7075 194.336 39.8756C194.151 40.0438 194.003 40.2486 193.902 40.4771C193.801 40.7056 193.749 40.9525 193.749 41.2022C193.749 41.452 193.801 41.6991 193.902 41.9276L198.179 51.4873C197.868 51.6065 197.559 51.7323 197.251 51.8614L193.759 44.0634C193.581 43.6463 193.256 43.3092 192.846 43.1163C192.435 42.9233 191.968 42.888 191.533 43.017C191.296 43.0961 191.077 43.224 190.892 43.3924C190.707 43.5608 190.559 43.766 190.458 43.9948C190.357 44.2237 190.305 44.4711 190.305 44.7213C190.306 44.9715 190.358 45.2189 190.46 45.4476L194.038 53.4409C193.743 53.6131 193.465 53.7721 193.203 53.9609L190.221 47.3383C190.027 46.9069 189.67 46.5698 189.228 46.401C188.786 46.2322 188.295 46.2453 187.862 46.4376C187.431 46.6321 187.095 46.9895 186.927 47.4313C186.758 47.8731 186.772 48.3635 186.965 48.7952L191.739 59.4643C193.147 63.5007 196.542 66.8219 198.434 68.4345C198.884 68.8185 199.422 69.0857 200 69.2122C200.578 69.3387 201.178 69.3206 201.747 69.1597C203.831 68.5835 207.227 67.0139 210.278 62.7456C210.663 62.1998 210.958 61.5962 211.153 60.9576L213.501 53.2556C213.641 52.7007 213.556 52.1128 213.265 51.6203C212.973 51.1279 212.498 50.7706 211.944 50.6263Z" fill="#F7B686"/>
<path d="M286.729 95.8584C286.729 95.8584 279.897 95.2889 278.095 93.3982C276.293 91.5075 271.161 98.312 271.675 99.8054C272.188 101.299 286.066 106.696 286.55 105.435C287.034 104.173 288.637 96.9048 286.729 95.8584Z" fill="#2D5E6B"/>
<path d="M286.728 95.8584C286.728 95.8584 287.06 93.2954 286.275 92.1531C286.275 92.1531 285.685 91.1233 286.659 90.9511C287.633 90.7789 293.762 93.0371 294.511 94.0239C295.259 95.0107 296.694 100.166 295.117 100.978C293.54 101.789 288.037 97.2922 287.418 96.8684C287.241 96.7543 287.09 96.6061 286.971 96.4327C286.853 96.2593 286.77 96.064 286.728 95.8584Z" fill="#2D5E6B"/>
<path d="M289.448 103.491C288.64 103.455 287.852 103.221 287.156 102.809L287.278 102.607C287.295 102.607 288.809 103.534 290.121 103.17C291.433 102.806 291.446 99.8386 291.446 99.8088H291.685C291.685 99.938 291.638 102.988 290.191 103.392C289.949 103.459 289.699 103.493 289.448 103.491Z" fill="#2F1A31"/>
<path d="M310.89 162.942C310.871 163.351 310.695 163.738 310.399 164.021C310.102 164.304 309.708 164.462 309.298 164.462C308.888 164.462 308.494 164.304 308.197 164.021C307.901 163.738 307.725 163.351 307.706 162.942C307.706 162.064 308.22 161.243 309.097 161.243C310.34 161.243 310.89 162.064 310.89 162.942Z" fill="#A5B9EF"/>
<path d="M305.622 142.081C305.622 142.289 305.581 142.496 305.501 142.689C305.421 142.882 305.304 143.057 305.157 143.205C305.009 143.352 304.834 143.469 304.641 143.549C304.448 143.629 304.241 143.67 304.032 143.67C303.823 143.67 303.617 143.629 303.424 143.549C303.231 143.469 303.055 143.352 302.908 143.205C302.76 143.057 302.643 142.882 302.563 142.689C302.483 142.496 302.442 142.289 302.442 142.081C302.442 141.203 302.952 140.379 303.83 140.379C305.072 140.379 305.622 141.203 305.622 142.081Z" fill="#A5B9EF"/>
<path d="M300.765 126.604C300.765 127.025 300.598 127.429 300.3 127.728C300.001 128.026 299.597 128.193 299.175 128.193C298.753 128.193 298.349 128.026 298.051 127.728C297.753 127.429 297.585 127.025 297.585 126.604C297.585 125.726 298.095 124.902 298.973 124.902C300.215 124.908 300.765 125.733 300.765 126.604Z" fill="#A5B9EF"/>
<path d="M287.547 285.463C270.982 306.986 234.814 364.867 247.9 384.738C260.987 404.609 340.051 400.169 352.985 392.788C365.919 385.407 333.478 293.41 322.906 281.81C312.335 270.211 299.119 270.436 287.547 285.463Z" fill="#10DD8E"/>
<path d="M291.641 362.086L292.327 358.89C292.453 358.343 292.379 357.768 292.117 357.271C291.856 356.773 291.425 356.386 290.903 356.178C288.524 355.306 286.327 354.004 284.419 352.337C284.023 351.961 283.765 351.462 283.687 350.921C283.61 350.381 283.717 349.829 283.992 349.357L284.389 348.695C284.539 348.421 284.748 348.185 285.001 348.003C285.254 347.822 285.545 347.699 285.852 347.645C286.159 347.59 286.474 347.606 286.774 347.689C287.074 347.773 287.352 347.923 287.586 348.129C289.692 349.957 292.196 351.268 294.898 351.956C299.735 353.142 302.687 350.208 303.605 345.94C304.489 341.817 303.356 339.284 298.797 335.797C292.503 331.095 286.357 325.956 287.759 319.44C288.978 313.757 293.48 308.82 301.567 310.522C302.531 310.724 303.386 309.751 303.608 308.728L304.356 305.231C304.407 304.943 304.516 304.669 304.675 304.425C304.835 304.18 305.042 303.97 305.284 303.807C305.527 303.645 305.8 303.533 306.087 303.478C306.374 303.423 306.668 303.427 306.954 303.489C307.533 303.651 308.026 304.031 308.331 304.549C308.635 305.067 308.725 305.683 308.584 306.267L307.954 309.181C307.828 309.72 307.896 310.286 308.147 310.779C308.398 311.273 308.816 311.661 309.326 311.877C311.109 312.539 312.776 313.481 314.262 314.668C314.703 315.041 314.996 315.559 315.088 316.129C315.179 316.699 315.062 317.283 314.759 317.774L314.368 318.416C314.218 318.676 314.014 318.9 313.769 319.074C313.523 319.247 313.244 319.365 312.948 319.419C312.653 319.473 312.35 319.463 312.059 319.389C311.768 319.315 311.497 319.178 311.264 318.989C309.424 317.528 307.285 316.488 304.999 315.943C299.752 314.658 297.048 317.618 296.386 320.615C295.547 324.513 299.142 325.787 304.489 329.94C310.83 334.807 314.312 340.331 313.464 347.112C312.559 354.344 307.603 358.337 298.771 357.642C297.777 357.566 296.949 358.413 296.727 359.44L295.928 363.162C295.877 363.449 295.769 363.724 295.61 363.968C295.45 364.213 295.243 364.422 295 364.585C294.758 364.748 294.485 364.86 294.198 364.915C293.911 364.969 293.616 364.966 293.331 364.904L293.261 364.887C292.679 364.723 292.184 364.339 291.881 363.816C291.579 363.292 291.493 362.672 291.641 362.086Z" fill="#131F2D"/>
<path d="M326.614 253.177C326.614 253.177 309.867 255.605 308.283 266.25C306.699 276.896 322.946 268.413 333.776 271.254C344.606 274.095 338.494 265.688 336.049 260.088C333.604 254.489 333.776 252.432 326.614 253.177Z" fill="#10DD8E"/>
</g>
<defs>
<clipPath id="clip0_155:1632">
<rect width="618" height="404" fill="white"/>
</clipPath>
</defs>
</svg>
