<svg width="25" height="23" viewBox="0 0 25 23" fill="none" xmlns="http://www.w3.org/2000/svg">
<path d="M12.521 22.8996H1.76657C1.68557 22.9132 1.60278 22.906 1.52479 22.8787C1.44679 22.8514 1.37573 22.8047 1.31726 22.7423C1.2588 22.6799 1.21454 22.6036 1.18799 22.5194C1.16143 22.4352 1.15334 22.3455 1.16432 22.2573C1.16432 18.7533 1.16432 15.2493 1.16432 11.7454C1.17044 11.7092 1.16962 11.672 1.16196 11.6362C1.1543 11.6003 1.13995 11.5666 1.11979 11.537C1.09962 11.5074 1.07407 11.4827 1.04473 11.4643C1.01539 11.4459 0.982882 11.4342 0.949222 11.43C0.759916 11.3784 0.573258 11.3161 0.390003 11.2431C0.271257 11.2176 0.165638 11.1447 0.0939673 11.0387C0.0222968 10.9328 -0.0102372 10.8015 0.00282627 10.6708V6.31423C0.0228092 5.77994 0.210973 5.26927 0.535888 4.8675C0.860803 4.46573 1.3028 4.19719 1.78807 4.10673C2.19586 4.06571 2.60629 4.06571 3.01409 4.10673H7.24058C7.40189 4.10673 7.36962 4.01329 7.36962 3.90817C7.32454 3.39304 7.34992 2.87349 7.44491 2.36643C7.54033 1.80197 7.78559 1.28012 8.15054 0.865081C8.51549 0.450047 8.98422 0.159937 9.49901 0.0304513C9.77738 -0.0101504 10.0595 -0.0101504 10.3379 0.0304513C11.865 0.0304513 13.3921 0.0304513 14.9085 0.0304513C15.5468 0.0238695 16.167 0.261271 16.6605 0.701118C17.1539 1.14097 17.4893 1.75525 17.6079 2.43651C17.6919 2.94502 17.7171 3.46294 17.6831 3.97825C17.6831 4.13009 17.6831 4.17681 17.866 4.17681C18.9414 4.17681 20.1136 4.17681 21.2428 4.17681C21.8343 4.17681 22.4366 4.17681 23.0281 4.17681C23.5535 4.2252 24.0443 4.48155 24.4071 4.89714C24.77 5.31273 24.9796 5.8586 24.9962 6.43102V10.8343C25.0118 10.9686 24.9792 11.1042 24.9051 11.213C24.8309 11.3218 24.7211 11.3953 24.5983 11.4183L24.0282 11.6169C23.8884 11.6169 23.8347 11.722 23.8347 11.8972C23.8347 14.9924 23.8347 18.0759 23.8347 21.171V22.339C23.8475 22.4281 23.8408 22.5192 23.8151 22.605C23.7894 22.6907 23.7454 22.7686 23.6867 22.8324C23.628 22.8961 23.5562 22.9439 23.4773 22.9719C23.3983 22.9998 23.3144 23.0071 23.2324 22.9931L12.521 22.8996ZM12.521 5.09952H2.19674C2.04331 5.09798 1.89111 5.12946 1.74895 5.19217C1.60678 5.25487 1.47749 5.34754 1.3685 5.46483C1.2595 5.58211 1.17299 5.7217 1.11395 5.87551C1.0549 6.02932 1.0245 6.19431 1.02451 6.36095V10.1686C1.01827 10.2196 1.03046 10.2712 1.05855 10.3125C1.08663 10.3539 1.12839 10.3819 1.17506 10.3905L2.36882 10.7993L6.11137 12.1074L11.2735 13.8828C11.6211 14.0329 11.9813 14.1463 12.3489 14.2215C12.7729 14.2412 13.1955 14.1573 13.5857 13.9762L18.4359 12.2826L23.8132 10.4139C23.953 10.4139 24.0067 10.2971 23.996 10.1452V6.44271C24.0085 6.26177 23.9853 6.08001 23.9279 5.90961C23.8705 5.73921 23.7802 5.58411 23.6631 5.4547C23.546 5.3253 23.4047 5.22458 23.2488 5.15929C23.0929 5.09401 22.926 5.06566 22.7592 5.07616L12.521 5.09952ZM22.813 16.8495V12.0958C22.813 11.8855 22.813 11.8855 22.6194 11.9556L21.4472 12.3527L14.887 14.6887C14.8618 14.6915 14.8375 14.6999 14.8155 14.7134C14.7935 14.7269 14.7744 14.7452 14.7592 14.7671C14.744 14.7891 14.7332 14.8142 14.7275 14.8409C14.7217 14.8676 14.7211 14.8953 14.7257 14.9223V17.34C14.731 17.4527 14.709 17.5648 14.6619 17.6653C14.6147 17.7658 14.5439 17.851 14.4568 17.9123L12.8544 19.0803C12.7598 19.1723 12.6372 19.2231 12.5102 19.2231C12.3833 19.2231 12.2607 19.1723 12.1661 19.0803L10.5852 17.9123C10.4862 17.8478 10.4056 17.7547 10.3524 17.6433C10.2992 17.5319 10.2756 17.4067 10.2841 17.2816C10.2841 16.4991 10.2841 15.7282 10.2841 14.9457C10.2841 14.7588 10.2303 14.7004 10.0798 14.642L5.89627 13.182L2.33655 11.9322C2.21826 11.9322 2.16449 11.9322 2.17524 12.0607V21.5565C2.17524 21.8017 2.17523 21.8017 2.40108 21.8017H22.5549C22.7915 21.8017 22.7915 21.8017 22.7915 21.5331L22.813 16.8495ZM12.521 4.00162H16.5324C16.6292 4.00162 16.6722 4.00161 16.6722 3.86145C16.6722 3.56946 16.6722 3.28914 16.6722 2.99715C16.6781 2.58899 16.5854 2.18628 16.4033 1.82915C16.2805 1.56203 16.0941 1.33555 15.8633 1.17327C15.6326 1.01099 15.366 0.918845 15.0913 0.906442C14.0159 0.906442 12.9404 0.906442 11.865 0.906442H10.3486C10.142 0.87121 9.9315 0.87121 9.72485 0.906442C9.4263 0.987009 9.1531 1.15303 8.93369 1.38721C8.71428 1.62139 8.55669 1.91516 8.47733 2.23795C8.38041 2.75255 8.34785 3.279 8.38054 3.80305C8.38054 3.93153 8.46658 3.93153 8.55262 3.93153H12.564L12.521 4.00162ZM11.2735 16.0552C11.2735 16.3706 11.2735 16.6743 11.2735 16.978C11.2681 17.0134 11.2737 17.0497 11.2892 17.0814C11.3048 17.113 11.3295 17.1382 11.3595 17.1532L12.3704 17.9357C12.4042 17.9694 12.4483 17.988 12.4941 17.988C12.5399 17.988 12.5841 17.9694 12.6178 17.9357L13.6932 17.1532C13.7193 17.1342 13.7401 17.1078 13.7534 17.077C13.7666 17.0461 13.7719 17.0118 13.7685 16.978V15.3311C13.7685 15.0391 13.7685 15.0391 13.5104 15.1325C13.0711 15.3106 12.5971 15.3629 12.1338 15.2844C11.8919 15.2377 11.6543 15.1673 11.4241 15.0741C11.338 15.0741 11.3165 15.0741 11.3272 15.1676L11.2735 16.0552Z" fill="#10DD8E"/>
</svg>
