<svg width="460" height="455" viewBox="0 0 460 455" fill="none" xmlns="http://www.w3.org/2000/svg">
<g clip-path="url(#clip0_155:1688)">
<path d="M13.5062 224.09C19.6772 248.26 42.3053 331.893 119.494 390.829C241.275 483.796 432.18 464.405 457.437 404.403C469.16 376.569 437.062 359.397 428.708 281.584C420.889 208.616 446.007 194.895 436.112 151.021C416.67 64.8015 294.967 9.38802 198.321 1.7118C168.071 -0.692451 69.4131 -8.5281 25.7932 50.1877C-15.2697 105.491 2.29935 180.211 13.5062 224.09Z" fill="#F4F4F4"/>
<path d="M267.624 367.3L311.062 379.176C311.062 379.176 325.335 359.117 318.985 340.471C306.032 302.426 340.246 293.733 354.024 287.948C374.814 279.223 387.095 263.964 369.569 247.105C349.741 228.019 379.528 199.793 415.135 190.544C449.978 181.492 453.997 114.312 376.786 126.976C330.675 134.54 325.22 179.76 317.036 201.94C308.852 224.12 274.557 216.762 278.521 247.678C281.918 274.085 295.957 296.502 277.184 308.885C258.41 321.269 251.987 339.133 267.624 367.3Z" fill="url(#paint0_linear_155:1688)"/>
<g style="mix-blend-mode:soft-light" opacity="0.5">
<g style="mix-blend-mode:soft-light" opacity="0.5">
<path d="M285.332 376.474L286.279 376.555C286.331 375.975 291.578 317.216 314.34 260.542C335.308 208.332 375.862 147.253 449.986 152.768L450.056 151.821C417.061 149.365 387.859 159.671 363.265 182.456C343.616 200.659 326.858 226.816 313.456 260.206C290.64 317.011 285.384 375.886 285.332 376.474Z" fill="#BEB8F2"/>
</g>
<g style="mix-blend-mode:soft-light" opacity="0.5">
<path d="M353.399 192.421L354.34 192.557C358.849 161.221 382.14 121.328 382.389 120.928L381.57 120.447C381.332 120.847 357.934 160.902 353.399 192.421Z" fill="#BEB8F2"/>
</g>
<g style="mix-blend-mode:soft-light" opacity="0.5">
<path d="M370.2 177.688C406.338 166.89 432.666 184.009 432.927 184.183L433.454 183.392C433.188 183.215 406.508 165.844 369.928 176.779L370.2 177.688Z" fill="#BEB8F2"/>
</g>
<g style="mix-blend-mode:soft-light" opacity="0.5">
<path d="M301.476 298.405C323.554 257.95 385.273 263.422 385.869 263.526L386.095 262.602C385.516 262.446 322.917 257.136 300.642 297.942L301.476 298.405Z" fill="#BEB8F2"/>
</g>
<g style="mix-blend-mode:soft-light" opacity="0.5">
<path d="M306.202 279.997L307.152 280.055C308.968 250.7 284.069 223.352 283.817 223.08L283.12 223.726C283.369 223.995 307.992 251.053 306.202 279.997Z" fill="#BEB8F2"/>
</g>
<g style="mix-blend-mode:soft-light" opacity="0.5">
<path d="M287.316 367.329C293.238 350.853 320.908 344.092 321.197 344.025L320.977 343.101C319.819 343.376 292.523 350.053 286.424 367.007L287.316 367.329Z" fill="#BEB8F2"/>
</g>
<g style="mix-blend-mode:soft-light" opacity="0.5">
<path d="M288.364 353.399L289.311 353.491C290.663 339.715 274.777 319.6 269.559 313.004C268.82 312.072 268.183 311.266 268.111 311.098L267.259 311.521C267.378 311.759 267.798 312.295 268.826 313.595C273.972 320.127 289.679 340.004 288.364 353.399Z" fill="#BEB8F2"/>
</g>
</g>
<path d="M312.683 198.507C319.686 205.914 318.249 215.696 316.098 222.61C315.156 222.88 314.684 223.277 313.798 223.769C305.8 228.114 301.462 228.265 292.902 231.3C291.06 231.955 285.069 232.23 282.613 232.169L278.038 232.013C278.038 232.013 264.138 213.118 273.94 204.066C283.742 195.014 272.819 175.389 268.308 164.283C265.539 157.461 266.457 153.455 265.84 150.784C259.325 122.521 248.535 116.751 252.062 106.256C255.951 94.6694 270.213 98.3917 275.11 86.0142C280.641 72.0377 266.173 57.9163 274.36 45.8603C275.764 43.792 277.256 41.7065 280.068 39.9076C286.992 35.4641 294.44 38.0711 298.022 30.2529C305.206 14.5384 321.82 4.95616 336.589 14.9005C351.163 24.7174 346.2 53.8059 320.549 83.2623C304.694 106.297 305.953 111.508 311.49 123.497C315.371 131.898 331.448 152.096 321.443 164.778C311.438 177.46 304.691 190.04 312.683 198.507Z" fill="#10DD8E"/>
<path d="M312.71 231.237L278.976 232.581C278.976 232.581 264.129 213.121 273.94 204.069C283.751 195.017 272.82 175.392 268.308 164.286C256.07 134.146 293.079 126.802 280.708 86.8542C277.415 76.2321 267.294 57.0474 274.36 45.8633C282.414 33.1179 293.418 40.3102 298.016 30.2558C305.201 14.5413 321.814 4.96194 336.583 14.9034C351.158 24.7203 346.194 53.8088 320.543 83.2652C304.688 106.3 305.948 111.511 311.485 123.5C315.365 131.901 331.443 152.099 321.438 164.781C311.433 177.463 304.68 190.023 312.684 198.49C324.866 211.392 312.71 231.237 312.71 231.237Z" fill="#10DD8E"/>
<g style="mix-blend-mode:soft-light" opacity="0.5">
<g style="mix-blend-mode:soft-light" opacity="0.5">
<path d="M297.555 230.339L296.892 230.446C296.275 226.802 295.702 223.117 295.186 219.496C291.378 192.696 290.408 166.487 292.308 141.619C293.918 120.546 297.605 100.124 303.263 80.9276C307.681 65.8226 313.498 51.1627 320.638 37.1384C325.335 27.9046 330.712 19.0327 336.724 10.5961C337.729 9.19407 338.841 7.81229 339.91 6.47691C341.34 4.69545 342.823 2.85604 344.062 0.955811L344.641 1.27165C343.385 3.19794 341.893 5.05182 340.451 6.84197C339.383 8.17155 338.276 9.54744 337.283 10.935C331.289 19.3462 325.928 28.191 321.243 37.3962C314.119 51.3878 308.316 66.0138 303.909 81.084C298.259 100.24 294.581 120.618 292.977 141.654C291.08 166.487 292.047 192.635 295.85 219.407C296.365 223.022 296.939 226.7 297.555 230.339Z" fill="#10DD8E"/>
</g>
<g style="mix-blend-mode:soft-light" opacity="0.5">
<path d="M298.059 104.683L297.399 104.596C301.951 78.2366 278.402 38.4795 278.165 38.0827L278.744 37.7758C278.99 38.1755 302.646 78.1034 298.059 104.683Z" fill="#10DD8E"/>
</g>
<g style="mix-blend-mode:soft-light" opacity="0.5">
<path d="M292.279 179.389L291.61 179.372C292.45 161.146 322.017 138.954 322.306 138.734L322.72 139.215C322.436 139.435 293.107 161.447 292.279 179.389Z" fill="#10DD8E"/>
</g>
<g style="mix-blend-mode:soft-light" opacity="0.5">
<path d="M292.766 189.753L292.103 189.846C290.365 178.08 281.229 162.991 266.35 147.357C265.6 146.569 265.6 146.569 265.583 146.454L266.243 146.352L265.913 146.404L266.202 146.242C266.246 146.3 266.529 146.598 266.857 146.94C281.814 162.663 291.022 177.868 292.766 189.753Z" fill="#10DD8E"/>
</g>
<g style="mix-blend-mode:soft-light" opacity="0.5">
<path d="M296.53 223.673L295.867 223.587C298.051 210.606 316.202 200.627 316.384 200.526L316.717 201.062C316.535 201.16 298.662 210.989 296.53 223.673Z" fill="#10DD8E"/>
</g>
<g style="mix-blend-mode:soft-light" opacity="0.5">
<path d="M296.597 230.66C291.095 221.478 282.572 213.5 270.505 206.27L270.876 205.749C283.039 213.034 291.642 221.081 297.182 230.35L296.597 230.66Z" fill="#10DD8E"/>
</g>
<g style="mix-blend-mode:soft-light" opacity="0.5">
<path d="M317.276 45.478L316.622 45.3564C320.033 30.8121 319.992 14.8513 319.978 9.60831C319.978 8.33956 319.978 7.89058 320.004 7.73706L320.664 7.83267C320.644 7.95144 320.644 8.67846 320.647 9.59671C320.661 14.8571 320.702 30.8671 317.276 45.478Z" fill="#10DD8E"/>
</g>
<g style="mix-blend-mode:soft-light" opacity="0.5">
<path d="M307.975 68.4197L307.396 68.13C314.765 55.906 343.683 48.1081 344.911 47.7808L345.085 48.3775C344.784 48.4528 315.208 56.4245 307.975 68.4197Z" fill="#10DD8E"/>
</g>
</g>
<path d="M312.695 296.16C310.378 296.143 311.676 284.052 303.257 269.768C301.155 266.2 291.037 245.94 274.07 247.339L264.193 248.153C260.498 241.12 258.32 233.803 267.937 229.803C282.871 223.589 279.833 197.789 274.371 189.18C267.613 178.526 252.412 153.408 275.342 143.461C294.431 135.18 308.539 133.517 306.73 109.199C304.92 84.8816 316.891 68.1647 340.286 66.8612C364.901 65.4882 380.869 32.4399 402.237 40.3421C439.469 54.1072 414.941 111.062 374.585 131.489C334.228 151.917 360.465 163.463 364.229 183.094C364.592 185.8 364.634 188.54 364.354 191.257C362.13 212.478 340.981 218.593 327.556 237.343C309.246 262.912 316.593 296.192 312.695 296.16Z" fill="#1A2E35"/>
<path d="M320.039 247.846L266.773 253.727C262.785 246.954 257.193 234.264 267.931 229.794C282.865 223.581 279.827 197.78 274.365 189.171C267.607 178.517 252.406 153.4 275.336 143.453C294.425 135.171 308.533 133.508 306.723 109.19C304.914 84.8728 316.885 68.1561 340.28 66.8526C364.895 65.4795 380.863 32.4311 402.231 40.3333C439.463 54.0984 414.935 111.053 374.579 131.481C334.222 151.908 360.459 163.454 364.223 183.085C369.36 209.885 329.945 208.683 321.142 220.49C314.247 229.753 317.253 241.048 320.039 247.846Z" fill="#1A2E35"/>
<g style="mix-blend-mode:soft-light" opacity="0.5">
<g style="mix-blend-mode:soft-light" opacity="0.5">
<path d="M293.976 242.719L292.818 242.632C299.42 162.684 347.097 86.1503 417.246 42.897L417.88 43.8152C348.024 86.8773 300.547 163.095 293.976 242.719Z" fill="#1A2E35"/>
</g>
<g style="mix-blend-mode:soft-light" opacity="0.5">
<path d="M301.529 199.414L300.37 199.547C296.339 168.263 264.821 147.134 264.502 146.923L265.168 146.025C265.499 146.236 297.434 167.637 301.529 199.414Z" fill="#1A2E35"/>
</g>
<g style="mix-blend-mode:soft-light" opacity="0.5">
<path d="M295.615 228.036L294.532 227.636C306.892 197.89 367.441 186.932 368.049 186.825L368.263 187.902C367.658 188.009 307.737 198.858 295.615 228.036Z" fill="#1A2E35"/>
</g>
<g style="mix-blend-mode:soft-light" opacity="0.5">
<path d="M333.771 126.944L332.656 126.632C340.289 102.331 319.752 68.6456 319.543 68.3067L320.545 67.7534C320.757 68.0952 341.546 102.195 333.771 126.944Z" fill="#1A2E35"/>
</g>
<g style="mix-blend-mode:soft-light" opacity="0.5">
<path d="M365.833 85.9823L365.109 85.1133C389.055 67.1306 430.205 70.821 430.616 70.8615L430.5 71.9536C430.08 71.9246 389.405 68.2806 365.833 85.9823Z" fill="#1A2E35"/>
</g>
</g>
<path d="M273.795 94.0553L10.3901 118.141C26.3172 127.976 50.9318 147.687 65.7584 187.618C94.9455 266.24 62.5181 339.469 97.5953 392.35C106.929 406.42 127.052 431.902 158.141 438.147L409.699 403.842C327.327 379.953 304.983 334.785 300.689 296.279C296.377 257.631 308.643 211.406 293.947 149.211C287.938 123.775 279.737 105.474 273.795 94.0553Z" fill="#10DD8E"/>
<path d="M42.9536 51.1757L275 36.5996C285.425 45.4258 300.04 61.1171 309.57 88.2591C331.503 150.726 305.953 212.504 313.335 273.221C318.04 311.941 337.46 360.449 407.023 392.872L157.852 425.5C140.688 418.925 117.814 405.255 104.568 373.452C90.535 339.735 100.361 316.926 95.5246 210.948C92.1248 136.356 85.4326 106.937 71.4892 83.3521C61.8547 67.0003 50.9751 57.1081 42.9536 51.1757Z" fill="white"/>
<path d="M296.51 267.512C296.56 268.122 296.612 268.733 296.666 269.346C296.693 269.623 296.61 269.9 296.434 270.117C296.259 270.334 296.005 270.473 295.728 270.504L114.295 290.436C114.147 290.453 113.996 290.438 113.854 290.393C113.711 290.347 113.58 290.271 113.469 290.171C113.358 290.071 113.269 289.948 113.209 289.811C113.149 289.674 113.118 289.526 113.12 289.376C113.12 288.762 113.12 288.139 113.134 287.514C113.136 287.253 113.233 287.003 113.407 286.809C113.581 286.615 113.82 286.492 114.078 286.462L295.337 266.547C295.478 266.532 295.62 266.545 295.756 266.585C295.891 266.625 296.018 266.692 296.127 266.782C296.236 266.872 296.326 266.983 296.392 267.108C296.458 267.234 296.498 267.371 296.51 267.512Z" fill="#D8DEE8"/>
<path d="M295.783 247.977V249.831C295.785 250.093 295.689 250.346 295.515 250.542C295.34 250.738 295.1 250.862 294.839 250.891L114.351 270.119C114.203 270.135 114.054 270.12 113.913 270.074C113.772 270.029 113.642 269.954 113.531 269.855C113.421 269.757 113.332 269.636 113.271 269.5C113.21 269.365 113.179 269.219 113.178 269.071C113.178 268.456 113.178 267.836 113.178 267.211C113.177 266.948 113.274 266.693 113.449 266.497C113.624 266.301 113.866 266.176 114.128 266.148L294.622 246.919C294.769 246.905 294.918 246.921 295.058 246.968C295.199 247.015 295.328 247.09 295.438 247.19C295.547 247.289 295.634 247.411 295.694 247.546C295.754 247.682 295.784 247.829 295.783 247.977Z" fill="#D8DEE8"/>
<path d="M299.102 286.847C299.217 287.453 299.333 288.055 299.455 288.658C299.484 288.802 299.483 288.95 299.452 289.093C299.42 289.237 299.36 289.372 299.273 289.491C299.187 289.61 299.077 289.709 298.95 289.783C298.823 289.857 298.683 289.904 298.537 289.921L114.049 310.777C113.9 310.794 113.748 310.779 113.605 310.732C113.462 310.686 113.33 310.61 113.219 310.509C113.107 310.408 113.018 310.284 112.958 310.146C112.898 310.008 112.869 309.858 112.871 309.708C112.871 309.094 112.878 308.473 112.894 307.845C112.896 307.587 112.994 307.338 113.167 307.146C113.34 306.954 113.578 306.832 113.835 306.803L297.943 285.978C298.211 285.949 298.479 286.023 298.694 286.184C298.909 286.345 299.055 286.582 299.102 286.847Z" fill="#D8DEE8"/>
<path d="M268.927 388.921L352.588 378.203C352.767 378.18 352.949 378.203 353.116 378.271C353.283 378.338 353.43 378.448 353.543 378.588C353.996 379.134 354.551 379.587 355.177 379.921C355.379 380.024 355.543 380.188 355.645 380.391C355.747 380.594 355.781 380.824 355.743 381.048C355.705 381.271 355.596 381.477 355.433 381.634C355.269 381.792 355.06 381.893 354.835 381.922L272.732 392.44L268.927 388.921Z" fill="#D8DEE8"/>
<path d="M153.728 403.679L248.222 391.574C249.448 392.76 250.68 393.937 251.917 395.105L156.89 407.271C156.681 407.299 156.468 407.264 156.279 407.17C155.287 406.683 154.31 406.178 153.349 405.655C153.156 405.545 153.003 405.377 152.911 405.176C152.818 404.975 152.791 404.749 152.833 404.532C152.874 404.314 152.983 404.115 153.144 403.962C153.304 403.809 153.509 403.71 153.728 403.679Z" fill="#D8DEE8"/>
<path d="M296.464 228.305L296.351 230.177C296.338 230.428 296.235 230.666 296.061 230.849C295.887 231.031 295.654 231.145 295.404 231.17L114.125 249.862C113.98 249.876 113.833 249.859 113.695 249.814C113.557 249.768 113.429 249.695 113.32 249.598C113.212 249.501 113.124 249.382 113.063 249.25C113.002 249.117 112.969 248.974 112.966 248.828C112.955 248.214 112.943 247.596 112.932 246.974C112.928 246.714 113.02 246.461 113.19 246.264C113.361 246.067 113.597 245.94 113.855 245.906L295.291 227.199C295.443 227.182 295.598 227.198 295.743 227.247C295.889 227.295 296.022 227.375 296.133 227.48C296.245 227.586 296.332 227.714 296.389 227.856C296.447 227.999 296.472 228.152 296.464 228.305Z" fill="#D8DEE8"/>
<path d="M321.524 343.121C321.901 343.701 322.283 344.262 322.668 344.83C322.771 344.98 322.833 345.154 322.849 345.336C322.866 345.517 322.835 345.699 322.76 345.865C322.685 346.031 322.569 346.175 322.423 346.283C322.276 346.391 322.104 346.459 321.924 346.481L121.967 370.947C121.743 370.974 121.517 370.93 121.32 370.821C121.124 370.712 120.967 370.543 120.872 370.338C120.603 369.759 120.336 369.154 120.076 368.554C120.009 368.402 119.979 368.237 119.987 368.072C119.996 367.906 120.043 367.745 120.125 367.601C120.206 367.457 120.321 367.334 120.459 367.242C120.597 367.15 120.754 367.091 120.918 367.071L320.517 342.652C320.712 342.628 320.909 342.659 321.088 342.742C321.266 342.825 321.417 342.957 321.524 343.121Z" fill="#D8DEE8"/>
<path d="M311.236 324.713C311.508 325.292 311.786 325.872 312.07 326.451C312.144 326.603 312.181 326.77 312.177 326.939C312.173 327.109 312.129 327.274 312.048 327.423C311.968 327.571 311.852 327.698 311.713 327.793C311.573 327.888 311.412 327.948 311.244 327.969L115.747 351.302C115.479 351.331 115.211 351.257 114.996 351.096C114.781 350.934 114.635 350.697 114.588 350.433C114.478 349.816 114.377 349.196 114.278 348.57C114.257 348.429 114.265 348.286 114.3 348.148C114.336 348.01 114.398 347.881 114.485 347.768C114.571 347.655 114.68 347.561 114.803 347.49C114.927 347.42 115.064 347.376 115.205 347.359L310.164 324.09C310.385 324.069 310.608 324.118 310.8 324.23C310.992 324.341 311.144 324.51 311.236 324.713Z" fill="#D8DEE8"/>
<path d="M303.897 305.934C304.088 306.53 304.279 307.124 304.476 307.715C304.526 307.864 304.542 308.023 304.522 308.18C304.503 308.336 304.449 308.486 304.365 308.619C304.28 308.752 304.167 308.864 304.033 308.948C303.9 309.031 303.749 309.084 303.593 309.103L114.038 331.143C113.891 331.161 113.742 331.147 113.601 331.104C113.46 331.06 113.33 330.988 113.218 330.891C113.107 330.794 113.017 330.675 112.954 330.542C112.891 330.408 112.857 330.263 112.853 330.115C112.842 329.501 112.831 328.878 112.821 328.247C112.817 327.984 112.911 327.728 113.085 327.53C113.258 327.332 113.498 327.206 113.76 327.175L302.768 305.198C303.012 305.17 303.258 305.229 303.464 305.363C303.67 305.497 303.823 305.699 303.897 305.934Z" fill="#D8DEE8"/>
<path d="M298.045 208.567C297.987 209.189 297.929 209.815 297.871 210.444C297.848 210.689 297.74 210.919 297.567 211.093C297.394 211.268 297.166 211.378 296.921 211.403L113.589 229.652C113.445 229.666 113.3 229.65 113.163 229.605C113.025 229.56 112.898 229.488 112.79 229.393C112.681 229.297 112.593 229.181 112.532 229.05C112.47 228.919 112.436 228.777 112.431 228.633C112.409 228.019 112.389 227.402 112.37 226.782C112.36 226.512 112.453 226.249 112.63 226.045C112.807 225.842 113.054 225.714 113.323 225.687L296.895 207.403C297.051 207.389 297.208 207.409 297.355 207.463C297.502 207.517 297.635 207.602 297.745 207.714C297.855 207.825 297.938 207.959 297.99 208.107C298.042 208.255 298.061 208.412 298.045 208.567Z" fill="#D8DEE8"/>
<path d="M292.575 91.1094C292.805 91.0915 293.034 91.1492 293.228 91.2736C293.422 91.3981 293.57 91.5826 293.649 91.7989C293.875 92.4014 294.095 93.0067 294.309 93.6208C294.362 93.7742 294.379 93.9377 294.359 94.0986C294.338 94.2595 294.281 94.4137 294.192 94.5491C294.103 94.6845 293.984 94.7976 293.844 94.8798C293.704 94.9619 293.547 95.0109 293.386 95.0229L100.656 109.706C100.412 109.724 100.168 109.656 99.9676 109.515C99.767 109.373 99.6216 109.166 99.556 108.93C99.3881 108.322 99.2172 107.722 99.0435 107.125C98.999 106.974 98.9889 106.815 99.0139 106.659C99.0389 106.503 99.0984 106.355 99.1881 106.225C99.2778 106.096 99.3953 105.988 99.5321 105.909C99.6689 105.831 99.8216 105.784 99.9788 105.772L292.575 91.1094Z" fill="#D8DEE8"/>
<path d="M299.093 110.842C299.221 111.456 299.342 112.07 299.464 112.684C299.492 112.831 299.488 112.982 299.454 113.127C299.419 113.273 299.355 113.409 299.264 113.528C299.173 113.647 299.059 113.745 298.927 113.817C298.796 113.889 298.652 113.932 298.503 113.944L105.139 129.488C104.877 129.508 104.617 129.43 104.408 129.27C104.2 129.109 104.058 128.877 104.01 128.619C103.9 128.006 103.788 127.399 103.674 126.797C103.646 126.651 103.649 126.5 103.683 126.355C103.717 126.211 103.781 126.075 103.871 125.957C103.961 125.838 104.076 125.741 104.206 125.67C104.337 125.599 104.481 125.557 104.63 125.545L297.964 110.004C298.222 109.983 298.478 110.056 298.686 110.21C298.894 110.364 299.039 110.589 299.093 110.842Z" fill="#D8DEE8"/>
<path d="M284.353 75.3514L93.6886 89.8522C93.4693 89.8683 93.2504 89.8155 93.0625 89.7013C92.8746 89.5871 92.727 89.417 92.6403 89.2149C90.5301 84.364 88.121 79.6488 85.4268 75.0965C84.0928 72.8352 82.7037 70.6327 81.2596 68.4892C81.1547 68.3348 81.0924 68.1554 81.0789 67.9692C81.0655 67.783 81.1014 67.5966 81.1831 67.4288C81.2648 67.261 81.3893 67.1178 81.5441 67.0135C81.6989 66.9093 81.8785 66.8477 82.0647 66.8352L269.688 54.1854C269.842 54.1754 269.995 54.1984 270.138 54.2528C270.282 54.3073 270.412 54.392 270.52 54.5011C276.198 60.2821 281.127 66.7537 285.193 73.764C285.282 73.9194 285.331 74.0952 285.335 74.2746C285.338 74.4541 285.296 74.6314 285.212 74.79C285.128 74.9487 285.005 75.0833 284.855 75.1815C284.705 75.2797 284.532 75.3382 284.353 75.3514Z" fill="#D8DEE8"/>
<path d="M299.976 188.821L299.794 190.698C299.769 190.943 299.66 191.172 299.486 191.346C299.312 191.52 299.083 191.629 298.838 191.653L112.775 209.509C112.632 209.521 112.488 209.505 112.352 209.46C112.215 209.416 112.089 209.344 111.981 209.25C111.873 209.155 111.785 209.04 111.722 208.911C111.66 208.782 111.624 208.641 111.617 208.498C111.588 207.878 111.559 207.264 111.53 206.65C111.517 206.377 111.609 206.11 111.788 205.904C111.966 205.698 112.217 205.569 112.489 205.543L298.821 187.662C298.976 187.648 299.133 187.668 299.28 187.721C299.427 187.774 299.56 187.859 299.671 187.97C299.781 188.08 299.866 188.214 299.918 188.361C299.971 188.508 299.991 188.665 299.976 188.821Z" fill="#D8DEE8"/>
<path d="M301.665 169.143C301.621 169.767 301.576 170.391 301.532 171.015C301.514 171.266 301.407 171.503 301.23 171.683C301.053 171.863 300.818 171.974 300.567 171.997L111.684 189.42C111.542 189.433 111.399 189.418 111.264 189.374C111.128 189.331 111.003 189.261 110.894 189.169C110.786 189.076 110.698 188.962 110.635 188.835C110.571 188.708 110.534 188.569 110.525 188.427C110.485 187.807 110.447 187.193 110.407 186.578C110.39 186.303 110.481 186.032 110.66 185.823C110.84 185.614 111.094 185.483 111.368 185.457L300.504 168.011C300.657 167.996 300.812 168.015 300.958 168.066C301.104 168.118 301.236 168.2 301.347 168.308C301.457 168.416 301.543 168.546 301.598 168.69C301.653 168.835 301.676 168.989 301.665 169.143Z" fill="#D8DEE8"/>
<path d="M302.501 149.536C302.501 150.157 302.493 150.78 302.475 151.404C302.471 151.667 302.37 151.919 302.191 152.111C302.011 152.303 301.767 152.422 301.505 152.444L110.204 169.355C110.064 169.368 109.923 169.353 109.79 169.311C109.656 169.269 109.531 169.201 109.424 169.112C109.316 169.022 109.227 168.911 109.162 168.787C109.098 168.663 109.058 168.527 109.045 168.387C108.993 167.77 108.938 167.156 108.886 166.548C108.872 166.409 108.886 166.268 108.927 166.134C108.968 166 109.035 165.875 109.125 165.767C109.214 165.66 109.324 165.571 109.448 165.506C109.572 165.441 109.708 165.401 109.847 165.389L301.34 148.461C301.489 148.447 301.639 148.465 301.78 148.513C301.921 148.561 302.051 148.638 302.16 148.739C302.27 148.84 302.357 148.964 302.416 149.101C302.475 149.238 302.504 149.386 302.501 149.536Z" fill="#D8DEE8"/>
<path d="M301.85 130.096C301.902 130.716 301.949 131.333 301.995 131.953C302.014 132.232 301.923 132.507 301.741 132.719C301.559 132.931 301.3 133.062 301.022 133.085L108.131 149.376C107.857 149.399 107.586 149.314 107.373 149.141C107.161 148.968 107.023 148.719 106.99 148.446C106.914 147.829 106.836 147.221 106.761 146.613C106.742 146.471 106.753 146.327 106.792 146.19C106.831 146.052 106.897 145.924 106.987 145.813C107.077 145.702 107.188 145.61 107.315 145.543C107.441 145.477 107.58 145.437 107.722 145.425L300.701 129.126C300.84 129.114 300.98 129.129 301.113 129.172C301.246 129.214 301.37 129.282 301.477 129.372C301.583 129.462 301.671 129.573 301.735 129.697C301.799 129.821 301.839 129.957 301.85 130.096Z" fill="#D8DEE8"/>
<path d="M247.295 402.054L213.793 381.3C202.659 374.348 191.496 367.41 180.575 360.154C177.865 358.329 175.122 356.495 172.606 354.531C172.299 354.285 171.995 354.036 171.723 353.793C171.587 353.668 171.459 353.546 171.361 353.439C171.317 353.39 171.271 353.338 171.262 353.323C171.254 353.309 171.277 353.338 171.277 353.349C171.3 353.389 171.317 353.43 171.329 353.474C171.365 353.581 171.381 353.694 171.375 353.807C171.369 354.042 171.291 354.269 171.152 354.459C171.053 354.59 170.928 354.698 170.785 354.778C170.726 354.808 170.665 354.832 170.602 354.85L170.533 354.864C170.533 354.864 170.507 354.864 170.533 354.864H170.599C170.753 354.878 170.905 354.899 171.057 354.928C171.398 354.992 171.769 355.087 172.137 355.192C173.647 355.643 175.121 356.208 176.547 356.881C179.429 358.19 182.116 359.89 184.534 361.932C186.882 363.96 188.863 366.44 189.746 369.241C190.676 372.045 190.256 375.02 188.907 377.731C187.557 380.442 185.524 382.945 183.486 385.552C182.418 386.876 181.427 388.26 180.517 389.697C179.501 391.252 178.805 392.994 178.47 394.821C178.321 395.809 178.333 396.815 178.505 397.799C178.596 398.287 178.729 398.767 178.902 399.233C179.057 399.695 179.251 400.144 179.481 400.574C180.381 402.207 181.605 403.639 183.077 404.783C185.883 407.037 189.092 408.476 192.344 409.51C195.609 410.527 198.981 411.16 202.393 411.399C209.175 411.894 216.122 410.982 222.495 408.3C225.654 406.932 228.621 405.161 231.325 403.031C234.035 400.93 236.487 398.517 238.631 395.841C239.727 394.479 240.704 393.025 241.55 391.496C242.477 389.892 243.122 388.141 243.458 386.32C243.643 385.269 243.611 384.192 243.366 383.153C243.294 382.867 243.197 382.588 243.076 382.319L242.891 381.908C242.818 381.769 242.714 381.618 242.624 381.468C242.237 380.893 241.716 380.421 241.107 380.092C240.121 379.585 239.03 379.318 237.922 379.312C237.009 379.283 236.096 379.329 235.191 379.449C231.73 379.877 228.554 380.74 225.359 381.563C222.174 382.432 219.029 383.301 215.858 384.098C212.687 384.894 209.505 385.636 206.302 386.282C203.099 386.928 199.859 387.423 196.612 387.82C190.117 388.618 183.581 389.041 177.037 389.089C170.5 389.16 163.966 388.81 157.475 388.04C157.253 388.013 157.027 388.03 156.812 388.09C156.596 388.15 156.394 388.253 156.218 388.391C156.042 388.529 155.895 388.701 155.785 388.896C155.675 389.092 155.605 389.307 155.579 389.529C155.552 389.752 155.569 389.977 155.63 390.193C155.69 390.409 155.793 390.611 155.931 390.787C156.07 390.963 156.242 391.11 156.437 391.22C156.632 391.33 156.847 391.4 157.07 391.426C157.135 391.431 157.201 391.431 157.267 391.426C163.895 391.45 170.504 391.386 177.095 391.064C180.39 390.888 183.685 390.72 186.969 390.418C188.614 390.294 190.253 390.129 191.892 389.978C193.531 389.827 195.173 389.639 196.815 389.419C203.357 388.622 209.907 387.756 216.411 386.586C219.66 386.007 222.898 385.352 226.115 384.715C227.722 384.388 229.318 384.04 230.908 383.741C232.498 383.443 234.073 383.136 235.599 382.983C236.324 382.901 237.053 382.871 237.783 382.893C238.327 382.881 238.868 382.992 239.364 383.217C239.781 383.298 240.157 384.477 239.917 385.758C239.644 387.171 239.136 388.528 238.414 389.772C237.668 391.122 236.806 392.404 235.839 393.605C233.874 396.065 231.626 398.284 229.141 400.218C226.683 402.164 223.983 403.784 221.108 405.038C215.357 407.48 208.926 408.337 202.624 407.935C199.474 407.744 196.356 407.188 193.334 406.278C190.343 405.368 187.45 404.062 185.11 402.222C182.77 400.383 181.149 397.863 181.586 395.27C181.848 393.857 182.387 392.51 183.17 391.305C184.009 389.962 184.921 388.665 185.901 387.42C187.867 384.831 190.024 382.189 191.551 378.985C192.347 377.354 192.852 375.597 193.042 373.791C193.221 371.954 193.01 370.099 192.422 368.349C191.847 366.642 190.992 365.044 189.891 363.618C188.832 362.231 187.62 360.968 186.277 359.853C183.641 357.678 180.718 355.878 177.59 354.502C176.034 353.794 174.427 353.203 172.783 352.735C172.357 352.622 171.931 352.515 171.465 352.446C171.212 352.4 170.957 352.37 170.701 352.356C170.621 352.351 170.54 352.351 170.46 352.356C170.358 352.358 170.255 352.365 170.153 352.379C170.079 352.388 170.005 352.403 169.933 352.423C169.821 352.451 169.712 352.493 169.609 352.547C169.414 352.642 169.245 352.784 169.117 352.958C168.947 353.188 168.852 353.464 168.844 353.749C168.844 353.914 168.87 354.078 168.92 354.236C168.949 354.327 168.986 354.415 169.03 354.5C169.083 354.601 169.144 354.697 169.212 354.789C169.301 354.913 169.397 355.031 169.502 355.142C169.684 355.334 169.858 355.49 170.029 355.644C170.37 355.933 170.703 356.223 171.042 356.472C173.733 358.517 176.481 360.299 179.243 362.109C184.769 365.698 190.352 369.165 195.949 372.615C201.547 376.065 207.162 379.478 212.797 382.855C224.071 389.61 235.341 396.362 246.71 402.952C246.831 403.023 246.975 403.043 247.11 403.008C247.245 402.972 247.361 402.885 247.431 402.764C247.503 402.65 247.528 402.514 247.503 402.382C247.478 402.251 247.404 402.133 247.295 402.054Z" fill="#1A2E35"/>
</g>
<defs>
<linearGradient id="paint0_linear_155:1688" x1="416.947" y1="126.397" x2="264.533" y2="347.775" gradientUnits="userSpaceOnUse">
<stop stop-color="#FFC444"/>
<stop offset="1" stop-color="#F36F56"/>
</linearGradient>
<clipPath id="clip0_155:1688">
<rect width="460" height="455" fill="white"/>
</clipPath>
</defs>
</svg>
