<svg width="579" height="364" viewBox="0 0 579 364" fill="none" xmlns="http://www.w3.org/2000/svg">
<g clip-path="url(#clip0_48:160)">
<g opacity="0.8">
<path opacity="0.8" d="M18.9964 353.297C18.9964 359.213 144.23 364 298.717 364C453.205 364 578.43 359.213 578.43 353.297C578.43 349.645 530.556 346.392 457.493 344.49C462.588 340.431 473.037 331.225 468.319 327.35C461.59 321.818 451.785 343.393 451.517 343.991C451.601 343.515 454.171 330.373 448.747 331.715C444.658 332.736 445.111 340.301 445.617 344.175C406.289 343.247 360.501 342.641 311.407 342.595C311.929 339.349 312.987 330.12 308.446 328.984C303.021 327.634 305.591 340.776 305.684 341.26C305.407 340.661 295.61 319.087 288.874 324.626C283.795 328.792 296.3 339.15 300.766 342.595H298.717C144.23 342.595 18.9964 347.39 18.9964 353.297Z" fill="#D1C0B2"/>
</g>
<path d="M357.08 283.004L357.256 284.263L357.456 285.751L357.693 287.523L358.706 294.927L358.814 295.717L359.865 303.474L359.98 304.295L364.161 335.022L364.276 335.851L366.424 351.701H410.962L411.575 347.198L411.69 346.384L412.02 343.968L412.128 343.17L413.984 329.513L414.115 328.57L418.273 297.996L418.404 297.029L419.156 291.505L420.314 283.004H357.08Z" fill="#7FDBBB"/>
<path d="M406.09 316.793C406.492 319.337 407.402 321.773 408.765 323.959C410.128 326.144 411.916 328.033 414.023 329.513L414.145 328.577C408.882 324.695 405.798 317.836 406.957 311.33C407.557 308.325 408.915 305.524 410.902 303.191C412.889 300.859 415.44 299.073 418.311 298.004L418.442 297.037C416.66 297.663 414.981 298.553 413.463 299.676C410.79 301.586 408.69 304.19 407.391 307.207C406.091 310.224 405.641 313.539 406.09 316.793Z" fill="#8A8EFD"/>
<path d="M358.698 294.927L358.806 295.694C364.176 295.119 369.225 296.807 373.675 299.845C377.511 302.446 381.347 305.637 386.196 305.645C388.347 305.668 390.465 305.113 392.329 304.037C394.192 302.961 395.732 301.404 396.788 299.529C397.843 297.654 398.375 295.53 398.329 293.379C398.282 291.227 397.658 289.128 396.522 287.301C396.466 287.204 396.372 287.134 396.264 287.106C396.155 287.078 396.04 287.094 395.943 287.151C395.847 287.208 395.776 287.301 395.748 287.41C395.72 287.518 395.737 287.634 395.794 287.73C397.284 290.203 397.772 293.152 397.157 295.972C396.542 298.793 394.871 301.271 392.487 302.898C388.052 305.798 383.05 304.954 378.746 302.285C374.657 299.745 371.074 296.599 366.332 295.38C363.836 294.766 361.249 294.612 358.698 294.927Z" fill="#8A8EFD"/>
<path d="M357.248 284.271L357.456 285.751C357.884 286.405 358.364 287.023 358.89 287.6C361.505 290.551 365.179 292.35 369.113 292.606C373.047 292.862 376.922 291.553 379.897 288.966C380.561 288.402 381.177 287.784 381.738 287.117C382.091 286.703 381.493 286.096 381.14 286.518C380.398 287.4 379.556 288.193 378.631 288.882C375.932 290.96 372.568 291.985 369.168 291.765C365.768 291.544 362.565 290.094 360.156 287.685C359.18 286.732 358.338 285.651 357.655 284.47C357.617 284.398 357.557 284.34 357.484 284.304C357.411 284.268 357.329 284.256 357.248 284.271Z" fill="#8A8EFD"/>
<path d="M359.865 303.482L359.98 304.303C361.612 304.343 363.193 304.878 364.514 305.837C365.826 306.825 366.828 308.168 367.402 309.707C367.975 311.245 368.097 312.916 367.752 314.522C367.184 317.077 365.603 319.363 365.565 322.048C365.609 324.187 366.452 326.232 367.928 327.78C371.588 331.915 377.311 332.751 381.585 335.996C383.751 337.673 385.259 340.059 385.842 342.735C386.426 345.412 386.048 348.209 384.776 350.635C384.572 351.001 384.347 351.354 384.101 351.694H385.129C385.329 351.379 385.521 351.042 385.697 350.704C386.851 348.334 387.23 345.661 386.78 343.064C386.329 340.467 385.073 338.077 383.188 336.234C378.585 331.938 371.158 331.516 367.606 325.969C365.527 322.731 366.839 319.754 368.036 316.494C368.539 315.26 368.789 313.936 368.769 312.604C368.749 311.271 368.461 309.956 367.92 308.737C367.201 307.198 366.065 305.89 364.642 304.961C363.218 304.033 361.564 303.52 359.865 303.482Z" fill="#8A8EFD"/>
<path d="M372.401 344.083C372.431 345.658 372.014 347.209 371.2 348.557C370.385 349.905 369.206 350.995 367.798 351.702H369.417C370.686 350.794 371.705 349.578 372.376 348.169C373.047 346.76 373.349 345.204 373.253 343.646C373.08 341.338 372.055 339.177 370.378 337.583C368.7 335.99 366.49 335.077 364.176 335.022L364.292 335.858C366.432 335.952 368.457 336.853 369.962 338.378C371.466 339.904 372.337 341.941 372.401 344.083Z" fill="#8A8EFD"/>
<path d="M375.646 318.059C376.061 321.764 379.559 323.905 382.245 325.953C385.781 328.646 389.219 331.6 391.812 335.244C395.157 339.94 396.952 346.316 395.257 351.701H396.116C397.589 346.645 396.292 340.784 393.454 336.211C391.23 332.812 388.468 329.799 385.275 327.288C383.741 326.03 382.145 324.864 380.58 323.659C378.708 322.225 376.79 320.468 376.49 317.997C375.815 312.573 382.82 311.729 386.648 311.99C390.477 312.251 394.643 313.578 397.006 316.893C399.254 320.046 399.691 324.097 400.389 327.81C401.157 331.746 402.284 335.728 404.732 338.965C406.559 341.364 409.105 343.116 411.997 343.968L412.105 343.201C410.777 342.855 409.525 342.264 408.414 341.459C404.379 338.544 402.492 333.695 401.509 328.992C400.742 325.416 400.428 321.672 398.84 318.335C398.124 316.854 397.113 315.536 395.869 314.46C394.624 313.385 393.173 312.576 391.605 312.082C388.13 310.889 384.386 310.718 380.818 311.591C377.91 312.397 375.286 314.79 375.646 318.059Z" fill="#8A8EFD"/>
<path d="M402.913 351.702H403.788C404.066 350.181 404.931 348.83 406.197 347.942C406.976 347.417 407.864 347.075 408.794 346.942C409.724 346.809 410.673 346.889 411.568 347.175L411.675 346.354C410.548 345.978 409.342 345.906 408.179 346.145C407.015 346.383 405.935 346.924 405.046 347.712C403.904 348.761 403.152 350.168 402.913 351.702Z" fill="#8A8EFD"/>
<path d="M357.08 283.004L357.256 284.263L357.456 285.751L357.693 287.523L358.898 287.6L360.156 287.677L378.639 288.881L379.897 288.958L419.156 291.505L420.314 283.004H357.08Z" fill="#272737"/>
<path d="M351.441 283.38C376.231 285.49 401.155 285.49 425.945 283.38V276.614H351.441V283.38Z" fill="#7FDBBB"/>
<path d="M387.738 226.56C387.738 226.56 411.176 226.56 412.089 202.554C412.135 201.296 412.135 199.991 412.089 198.656C410.294 200.119 408.801 201.917 407.693 203.95C405.131 208.354 401.555 213.295 398.103 211.431C394.65 209.566 401.54 201.15 407.31 196.992C409.035 195.824 410.467 194.272 411.491 192.457C410.402 184.831 407.893 176.913 404.156 171.136C401.494 177.45 397.251 185.913 394.321 183.734C391.167 181.379 395.671 171.159 398.724 165.114C396.677 163.521 394.181 162.611 391.589 162.513C388.153 162.429 384.808 163.62 382.198 165.858C380.489 167.287 378.993 168.954 377.756 170.806C380.618 174.581 385.72 181.954 384.017 184.294C382.482 186.435 376.958 181.946 373.529 178.778C371.77 183.155 370.371 187.668 369.348 192.273C370.449 196.275 372.609 199.906 375.6 202.784C381.539 208.369 379.912 212.796 376.851 211.653C372.401 209.988 370.713 199.669 368.412 196.877C364.261 221.144 387.738 226.56 387.738 226.56ZM404.271 187.01H404.34C406.005 186.542 407.409 188.184 405.66 190.608C403.911 193.033 400.236 197.352 397.911 197.375C394.904 197.406 401.939 187.708 404.271 187.002V187.01ZM379.605 197.199C377.534 198.234 376.168 197.137 375.148 194.352C374.38 192.235 375.731 191.122 377.388 191.583H377.465C379.797 192.296 380.917 196.531 379.605 197.191V197.199Z" fill="#047C6C"/>
<path d="M390.254 190.861C388.198 201.372 388.866 212.213 389.648 222.824C390.484 234.155 391.612 245.503 391.183 256.881C390.977 263.345 390.116 269.771 388.612 276.061C388.572 276.158 388.497 276.236 388.403 276.281C388.309 276.327 388.201 276.336 388.1 276.308C388 276.28 387.913 276.216 387.856 276.128C387.799 276.04 387.776 275.934 387.792 275.831C393.354 253.298 388.229 230.358 388.06 207.587C387.949 201.908 388.409 196.233 389.433 190.646C389.541 190.109 390.362 190.34 390.254 190.877V190.861Z" fill="#272737"/>
<path d="M398.901 262.029C398.901 262.029 417.828 275.839 432.72 257.011C433.487 256.021 434.254 254.963 435.022 253.858C432.71 253.973 430.445 254.544 428.354 255.538C423.682 257.587 417.874 259.459 416.202 255.922C414.529 252.385 425.04 249.646 432.168 249.699C434.248 249.776 436.317 249.369 438.213 248.51C441.842 241.705 444.474 233.833 444.865 226.967C438.996 230.496 430.572 234.831 429.521 231.34C428.354 227.573 438.021 221.98 444.052 218.896C443.339 216.404 441.863 214.199 439.832 212.589C437.107 210.493 433.701 209.481 430.273 209.75C428.049 209.894 425.857 210.359 423.766 211.131C423.843 215.865 423.628 224.834 420.866 225.708C418.335 226.522 416.547 219.655 415.649 215.075C411.646 217.571 407.856 220.394 404.317 223.514C402.843 227.395 402.445 231.602 403.167 235.69C404.701 243.7 400.742 246.324 398.947 243.592C396.331 239.626 401.057 230.296 400.827 226.668C383.135 243.823 398.901 262.029 398.901 262.029ZM435.574 239.841H435.643C437.262 240.447 437.415 242.587 434.584 243.524C431.753 244.46 426.229 245.771 424.342 244.421C421.894 242.672 433.28 239.035 435.574 239.841ZM409.657 233.527C407.356 233.143 406.911 231.447 407.724 228.601C408.345 226.422 410.102 226.299 411.169 227.688L411.215 227.742C412.688 229.683 411.092 233.764 409.657 233.527Z" fill="#047C6C"/>
<path d="M422.025 234.662C416.516 239.733 411.054 244.989 406.604 251.034C403.297 255.709 400.482 260.712 398.203 265.965C396.515 269.655 394.911 273.391 393.262 277.104C393.039 277.603 392.303 277.166 392.495 276.667C395.203 270.575 397.719 264.392 400.888 258.476C403.746 253.237 407.246 248.373 411.307 243.999C414.498 240.523 417.913 237.255 421.388 234.025C421.787 233.657 422.393 234.255 421.994 234.631L422.025 234.662Z" fill="#272737"/>
<path d="M378.263 230.995C378.056 234.624 382.866 243.915 380.265 247.873C378.485 250.612 374.542 248.027 375.984 240.002C376.677 235.909 376.25 231.704 374.749 227.834C371.191 224.741 367.383 221.949 363.363 219.486C362.496 224.09 360.755 230.949 358.215 230.158C355.453 229.291 355.146 220.33 355.215 215.581C353.118 214.831 350.925 214.384 348.702 214.254C345.273 214.006 341.875 215.04 339.165 217.154C337.141 218.779 335.679 220.998 334.984 223.499C341.037 226.568 350.742 232.069 349.607 235.836C348.548 239.334 340.101 235.069 334.209 231.57C334.639 238.475 337.331 246.285 341.006 253.052C342.908 253.899 344.98 254.293 347.06 254.203C354.187 254.096 364.706 256.758 363.072 260.341C361.438 263.924 355.599 262.059 350.919 260.041C348.82 259.065 346.549 258.51 344.236 258.407C345.004 259.512 345.771 260.563 346.538 261.545C361.568 280.289 380.396 266.333 380.396 266.333C380.396 266.333 396.047 248.042 378.263 230.995ZM354.839 248.948C352.96 250.313 347.413 249.032 344.589 248.119C341.766 247.206 341.896 245.05 343.508 244.444H343.577C345.871 243.592 357.279 247.183 354.839 248.948ZM367.882 232.153L367.928 232.092C368.987 230.734 370.744 230.811 371.381 232.982C372.209 235.828 371.772 237.524 369.486 237.923C368.013 238.168 366.394 234.102 367.851 232.153H367.882Z" fill="#047C6C"/>
<path d="M357.693 238.537C369.079 249.961 378.125 263.203 386.848 276.667C387.155 277.135 386.411 277.565 386.081 277.105C377.373 263.694 368.381 250.513 357.049 239.143C356.658 238.751 357.264 238.145 357.647 238.537H357.693Z" fill="#272737"/>
<path d="M351.441 276.613C351.441 277.304 368.12 277.856 388.697 277.856C409.274 277.856 425.945 277.304 425.945 276.613C425.945 275.923 409.266 275.378 388.697 275.378C368.128 275.378 351.441 275.931 351.441 276.613Z" fill="#272737"/>
<path d="M271.435 323.353C268.827 325.954 266.052 328.381 263.126 330.618C248.134 342.126 227.412 350.382 199.876 353.136C59.076 367.23 12.5594 301.18 1.16619 199.562C-3.89747 154.296 7.95609 124.374 22.6484 105.194C24.1828 103.191 25.7172 101.296 27.3361 99.5161C28.226 98.511 29.1467 97.5291 30.0827 96.5701C39.4798 86.9711 51.0473 79.7723 63.8097 75.5809C76.572 71.3896 90.1552 70.3284 103.414 72.4869C124.589 75.9701 143.815 87.2789 159.421 109.874C184.378 146.017 157.372 179.691 225.678 200.337C271.435 214.139 321.335 273.568 271.435 323.353Z" fill="#FDC864"/>
<path d="M55.8843 103.92C55.8843 103.92 39.2357 139.542 58.4622 204.932C77.6887 270.322 103.145 265.174 119.594 265.174C148.327 265.174 206.528 238.107 217.898 216.778C229.268 195.449 207.809 194.183 167.622 191.03C127.435 187.877 97.4523 89.8106 55.8843 103.92Z" fill="#DB9437"/>
<path d="M91.9897 292.695C92.3168 292.695 92.632 292.572 92.872 292.349C119.909 266.64 144.882 260.709 145.127 260.655C145.3 260.628 145.466 260.565 145.613 260.47C145.761 260.376 145.888 260.252 145.985 260.107C146.083 259.962 146.151 259.798 146.183 259.626C146.215 259.454 146.211 259.277 146.173 259.106C146.134 258.935 146.06 258.774 145.957 258.633C145.853 258.492 145.722 258.373 145.571 258.285C145.419 258.196 145.252 258.14 145.078 258.119C144.904 258.098 144.728 258.112 144.56 258.162C144.299 258.223 137.992 259.697 128.21 264.423C114.576 271.16 102.062 279.959 91.1074 290.508C90.9207 290.683 90.7911 290.911 90.7358 291.161C90.6804 291.411 90.7017 291.672 90.797 291.91C90.8923 292.148 91.0571 292.351 91.2699 292.494C91.4827 292.637 91.7335 292.712 91.9897 292.71V292.695Z" fill="#DB9437"/>
<path d="M96.7388 276.69C96.9926 276.691 97.2408 276.616 97.4523 276.476C97.6211 276.361 110.94 267.561 130.98 265.374C131.313 265.332 131.616 265.16 131.824 264.897C132.033 264.633 132.129 264.299 132.093 263.965C132.056 263.631 131.891 263.324 131.631 263.112C131.371 262.899 131.038 262.797 130.704 262.827C109.989 265.09 96.5853 273.974 96.0253 274.335C95.885 274.429 95.7646 274.549 95.671 274.689C95.5773 274.829 95.5122 274.986 95.4794 275.152C95.4466 275.317 95.4468 275.487 95.4799 275.653C95.513 275.818 95.5784 275.975 95.6723 276.115C95.7903 276.29 95.9489 276.434 96.1347 276.534C96.3205 276.634 96.5277 276.688 96.7388 276.69Z" fill="#DB9437"/>
<path d="M271.435 323.352C268.827 325.953 266.051 328.381 263.126 330.618C245.794 341.029 224.657 347.873 201.372 350.566C194.134 351.398 186.854 351.813 179.568 351.809C159.451 351.822 139.457 348.689 120.308 342.525C70.8835 326.513 35.2308 292.272 19.9017 246.093C11.4623 220.775 7.373 196.155 7.62618 172.908C7.72702 154.927 10.751 137.081 16.5796 120.07C18.3548 115.006 20.4037 110.043 22.7174 105.201C24.2518 103.199 25.7863 101.304 27.4051 99.5236C28.2951 98.5186 29.2158 97.5367 30.1518 96.5776C25.6433 104.355 21.8947 112.548 18.958 121.044C10.1273 146.478 3.5369 188.675 22.3338 245.296C37.3943 290.692 72.4793 324.365 121.113 340.116C172.786 356.849 232.544 350.09 269.824 323.237C270.064 323.066 270.356 322.984 270.65 323.005C270.944 323.026 271.222 323.149 271.435 323.352Z" fill="#DB9437"/>
<path d="M153.95 116.779C153.95 116.779 176.422 169.333 168.351 182.138C162.873 190.831 153.774 188.974 146.278 173.108C135.737 150.782 129.706 127.144 129.706 127.144L153.95 116.779Z" fill="#FD9772"/>
<path d="M125.563 99.9689C127.52 113.579 137.563 133.412 137.563 133.412C141.667 133.519 145.759 132.922 149.662 131.647C150.137 131.486 150.582 131.317 151.02 131.141C157.472 128.563 159.82 124.689 159.82 124.689C158.756 121.466 157.707 118.436 156.674 115.597C156.505 115.152 156.344 114.707 156.191 114.277C155.055 111.209 153.943 108.375 152.853 105.777C152.674 105.347 152.498 104.925 152.324 104.511C150.651 100.56 149.033 97.0995 147.498 94.069L146.838 92.7799C139.097 77.8959 133.642 74.29 133.642 74.29C125.195 77.9036 123.607 86.3354 125.563 99.9689Z" fill="#6359CC"/>
<path d="M138.514 100.513C141.583 100.245 143.731 98.4497 145.664 96.2018C146.248 95.5266 146.854 94.7824 147.498 94.0535L146.838 92.7646C144.345 95.496 142.012 98.7643 138.514 99.0789C137.601 99.2016 137.563 100.598 138.514 100.513Z" fill="#8A8EFD"/>
<path d="M142.749 115.352C145.695 113.188 149.025 108.063 152.853 105.761C152.674 105.332 152.498 104.91 152.324 104.495C148.449 106.889 145.143 111.822 142.02 114.109C141.284 114.653 141.997 115.896 142.749 115.352Z" fill="#8A8EFD"/>
<path d="M149.662 131.632C150.137 131.471 150.582 131.302 151.02 131.126C149.716 128.314 149.579 125.099 150.638 122.186C151.698 119.274 153.868 116.899 156.674 115.582C156.505 115.137 156.344 114.692 156.191 114.262C153.031 115.71 150.572 118.349 149.349 121.602C148.126 124.856 148.238 128.461 149.662 131.632Z" fill="#8A8EFD"/>
<path d="M54.8563 114.645C55.7232 120.829 56.5211 126.768 57.3421 132.522C57.3421 132.652 57.3804 132.79 57.4034 132.913C57.4725 133.435 57.5492 133.941 57.6259 134.447C57.9175 136.504 58.2244 138.544 58.5312 140.585C58.6156 141.138 58.7 141.682 58.7921 142.219C58.9149 143.04 59.0453 143.854 59.1834 144.667C59.2601 145.158 59.3368 145.641 59.4212 146.125C59.9199 149.124 60.4416 152.078 61.0094 155.001C61.0784 155.339 61.1475 155.669 61.2088 155.991C61.3086 156.52 61.416 157.034 61.5234 157.526C61.5325 157.593 61.5453 157.659 61.5618 157.725C61.6615 158.224 61.7689 158.722 61.8763 159.221C62.7203 163.195 63.6563 167.108 64.715 170.983C65.0143 172.087 65.3365 173.192 65.6664 174.297C65.8659 174.987 66.073 175.678 66.2878 176.368L66.4029 176.744C68.2136 182.537 72.7171 196.493 77.144 208.515C77.3051 208.975 77.4739 209.436 77.6504 209.888C78.6631 212.612 79.6758 215.22 80.6425 217.56C80.8267 218.013 81.0108 218.458 81.1949 218.888C82.283 221.64 83.5649 224.311 85.031 226.882H85.2075C85.8289 227.043 86.4504 227.197 87.0795 227.335C87.5782 227.45 88.0846 227.557 88.614 227.657C91.5677 228.26 94.555 228.685 97.5597 228.931C100.984 229.208 104.423 229.275 107.856 229.13C108.493 229.13 109.122 229.069 109.759 229.03H109.912C112.014 228.892 114.101 228.683 116.173 228.401C116.94 228.301 117.707 228.186 118.474 228.064C124.932 227.017 131.268 225.323 137.386 223.008C137.9 222.816 138.422 222.609 138.921 222.402C140.455 221.798 141.961 221.154 143.44 220.468C143.946 220.238 144.46 220 144.974 219.755C150.228 217.274 155.203 214.239 159.812 210.702C160.357 210.28 160.886 209.85 161.408 209.413C162.838 208.236 164.207 206.989 165.512 205.676L165.681 205.507C167.417 203.773 169.008 201.9 170.438 199.907C169.602 198.196 168.727 196.301 167.814 194.26C167.73 194.068 167.653 193.884 167.561 193.692C166.748 191.866 165.904 189.933 165.06 187.93C163.065 183.235 161.009 178.179 159.075 173.292C158.83 172.655 158.577 172.018 158.308 171.389C155.339 163.817 152.723 156.812 151.127 152.339C150.713 151.173 150.309 150.02 149.915 148.879C149.746 148.403 149.585 147.927 149.432 147.452C149.339 147.183 149.247 146.922 149.163 146.685C148.554 144.879 147.987 143.115 147.46 141.391C146.933 139.667 146.439 138.028 145.979 136.473L145.749 135.637C145.687 135.437 145.634 135.23 145.572 135.031C145.35 134.263 145.143 133.458 144.928 132.683C144.667 131.716 144.414 130.757 144.161 129.813L143.815 128.44C143.437 126.906 143.084 125.415 142.757 123.967L142.665 123.538C142.496 122.77 142.335 122.065 142.181 121.343C140.931 115.413 140.11 110.157 139.534 105.523C139.458 104.871 139.381 104.234 139.312 103.605C138.545 96.8921 138.33 91.5598 138.038 87.4091C138.038 86.9181 137.969 86.4425 137.931 85.9822C137.809 84.1349 137.553 82.299 137.164 80.489C137.023 79.878 136.83 79.2799 136.588 78.7013C136.222 77.8145 135.765 76.9685 135.223 76.1771C134.741 75.4896 134.179 74.8613 133.55 74.3051C132.378 73.2962 131.009 72.5411 129.53 72.0878C129.108 71.9497 128.678 71.8269 128.233 71.7272C125.088 70.96 121.489 70.96 117.853 70.584C117.039 70.492 116.234 70.3846 115.421 70.2465L114.393 70.0547C114.065 69.9831 113.735 69.9063 113.403 69.8245C112.981 69.7171 112.559 69.602 112.137 69.4716C109.799 68.7671 107.633 67.5835 105.777 65.9961L105.731 65.9577C105.51 65.7622 105.247 65.6205 104.962 65.5434C104.677 65.4662 104.378 65.4557 104.089 65.5128L82.668 69.9013C82.2745 69.9774 81.9164 70.1794 81.6476 70.4767C80.3641 71.8596 78.9765 73.1421 77.4969 74.3128C77.3205 74.4586 77.1363 74.5967 76.9445 74.7425C76.7527 74.8883 76.7297 74.9112 76.6146 74.9879C75.9165 75.5173 75.1339 76.0621 74.313 76.6145C73.492 77.1669 72.7785 77.5657 71.9192 78.0337C71.643 78.1795 71.3745 78.333 71.0906 78.4711C69.49 79.3093 67.84 80.0498 66.1497 80.6885L65.9733 80.7574C65.0832 81.087 64.2254 81.498 63.4108 81.985C61.4814 83.1439 59.8207 84.7 58.5389 86.5499C57.6589 87.8199 56.9278 89.1869 56.36 90.6239C53.9356 96.5392 53.4599 104.695 54.8563 114.645Z" fill="#6359CC"/>
<path d="M65.6664 174.297C65.8659 174.988 66.073 175.678 66.2878 176.369C72.4256 179.837 79.8523 179.614 86.7726 178.318C100.429 175.786 114.554 170.868 124.85 161.209C130.22 156.176 133.381 149.792 137.639 143.908C139.83 140.813 142.702 138.262 146.033 136.45L145.803 135.614C145.741 135.414 145.687 135.207 145.626 135.008C143.69 135.899 141.911 137.096 140.355 138.552C134.839 143.724 132.054 151.05 127.159 156.736C122.431 162.052 116.673 166.353 110.234 169.379C103.588 172.526 96.5862 174.86 89.3812 176.33C81.5555 178.041 72.5483 179.1 65.6664 174.297Z" fill="#8A8EFD"/>
<path d="M135.668 173.752C138.445 178.877 144.521 182.061 150.283 180.588C152.193 180.081 153.971 179.166 155.494 177.907C157.017 176.647 158.249 175.073 159.106 173.292C158.861 172.655 158.607 172.018 158.339 171.389C156.712 175.908 152.424 179.422 147.475 179.537C141.851 179.668 136.558 175.003 135.668 169.517C134.609 163.003 139.373 157.242 144.053 153.344C145.956 151.771 147.966 150.337 149.946 148.879C149.777 148.403 149.616 147.928 149.462 147.452C145.741 150.183 141.928 152.823 138.921 156.336C134.847 161.17 132.445 167.806 135.668 173.752Z" fill="#8A8EFD"/>
<path d="M80.6655 217.576C80.8497 218.029 81.0338 218.474 81.2179 218.904C93.0178 213.449 99.9151 200.49 109.429 192.051C116.088 186.159 124.129 182.775 133.12 184.164C141.683 185.491 149.094 190.302 155.631 195.718C156.329 196.309 157.357 195.296 156.643 194.705C149.915 189.105 142.312 184.171 133.504 182.783C126.251 181.626 118.834 183.344 112.827 187.57C106.69 191.782 101.964 197.598 97.1531 203.206C92.4577 208.692 87.3097 214.454 80.6655 217.576Z" fill="#8A8EFD"/>
<path d="M75.4715 189.381C79.2308 188.46 85.8136 187.279 87.1562 192.45C88.0999 196.102 85.4377 200.268 83.2664 202.999C81.5387 205.164 79.4648 207.027 77.1287 208.515C77.2898 208.975 77.4586 209.436 77.635 209.888C81.3326 207.594 84.3974 204.41 86.5501 200.628C88.4298 197.298 90.0486 192.542 86.9951 189.365C83.9416 186.189 78.947 187.064 75.0495 188C74.1902 188.199 74.5738 189.603 75.4715 189.381Z" fill="#8A8EFD"/>
<path d="M61.5234 157.51C61.5325 157.578 61.5453 157.644 61.5618 157.71C61.6615 158.209 61.7689 158.707 61.8763 159.206C69.0652 161.554 78.0723 159.022 85.0924 157.771C103.13 154.549 122.203 149.508 135.023 135.483C138.18 131.895 140.779 127.853 142.734 123.492C142.565 122.725 142.404 122.019 142.25 121.298C140.631 125.186 138.513 128.848 135.951 132.192C130.489 139.028 123.116 144.138 115.236 147.782C106.137 151.994 96.2785 154.265 86.4657 156.06C81.264 157.019 75.9625 158.155 70.6917 158.569C67.5949 158.905 64.4621 158.544 61.5234 157.51Z" fill="#8A8EFD"/>
<path d="M63.4338 81.9544C66.3648 82.03 69.2883 82.2862 72.1878 82.7216C86.1742 84.9158 99.6773 94.9971 114.262 91.5369C124.014 89.2353 128.924 80.98 129.607 72.0266C129.185 71.8885 128.755 71.7658 128.31 71.666C128.011 77.2284 125.955 82.5682 121.474 86.3889C114.515 92.3349 104.557 91.2837 96.4243 88.7595C87.6089 86.0205 79.4073 82.1462 70.1393 81.003C68.8197 80.8342 67.4847 80.7115 66.1574 80.6271L65.9809 80.696C65.095 81.0363 64.2424 81.4576 63.4338 81.9544Z" fill="#8A8EFD"/>
<path d="M57.4034 132.913C57.4725 133.435 57.5492 133.941 57.6259 134.448C60.8481 132.477 64.3697 131.044 68.0525 130.205C84.0183 126.461 102.9 131.264 116.648 120.17C123.124 114.937 125.026 107.127 128.003 99.7386C129.706 95.5265 132.016 91.0844 135.928 88.5296C136.614 88.0741 137.344 87.6886 138.107 87.3788C138.107 86.8878 138.038 86.412 138 85.9517C134.064 87.6626 130.619 91.2608 128.64 94.9588C124.251 103.137 123.269 113.019 115.635 119.157C108.393 124.949 98.6799 126.284 89.7188 126.768C80.305 127.282 70.4922 127.059 61.6462 130.773C60.1842 131.387 58.7665 132.102 57.4034 132.913Z" fill="#8A8EFD"/>
<path d="M79.2539 109.943C83.6195 106.198 89.0067 103.846 94.721 103.191C99.0328 102.715 104.833 103.79 104.695 109.26C104.595 114.323 99.0251 118.328 95.0432 120.492C89.8877 123.292 83.9902 124.423 78.1644 123.729C77.2591 123.622 77.2514 122.195 78.1644 122.295C82.5368 122.838 86.9757 122.311 91.0997 120.76C95.2504 119.18 99.9918 116.295 102.27 112.321C103.859 109.567 103.421 106.145 100.184 104.979C98.0277 104.211 95.5419 104.449 93.3324 104.81C88.4849 105.633 83.9511 107.754 80.2129 110.948C79.507 111.546 78.4943 110.533 79.2002 109.935L79.2539 109.943Z" fill="#8A8EFD"/>
<path d="M59.1834 144.636C59.2601 145.127 59.3368 145.611 59.4212 146.094C66.3567 146.741 73.3335 146.82 80.2819 146.332C94.9435 145.204 109.39 140.754 120.991 131.494C126.371 127.26 130.854 121.997 134.179 116.011C135.936 112.804 136.987 109.106 139.112 106.137C139.266 105.922 139.435 105.708 139.603 105.493C139.527 104.841 139.45 104.204 139.381 103.575C137.809 105.325 136.553 107.334 135.668 109.513C132.491 116.518 128.671 122.671 122.962 127.926C117.347 133.011 110.846 137.021 103.782 139.757C89.6574 145.327 74.2209 145.956 59.1834 144.636Z" fill="#8A8EFD"/>
<path d="M144.821 130.236C144.677 130.236 144.538 130.185 144.428 130.092C144.319 130 144.246 129.871 144.222 129.729C141.957 115.918 138.701 102.288 134.478 88.9438C134.43 88.7902 134.444 88.6238 134.517 88.4802C134.59 88.3367 134.717 88.2275 134.87 88.1766C134.946 88.1504 135.026 88.1399 135.106 88.1455C135.187 88.1511 135.265 88.1729 135.336 88.2094C135.408 88.2459 135.471 88.2965 135.523 88.3581C135.575 88.4197 135.613 88.491 135.637 88.5679C139.875 101.968 143.146 115.654 145.427 129.522C145.451 129.682 145.413 129.844 145.32 129.976C145.227 130.108 145.086 130.198 144.928 130.228L144.821 130.236Z" fill="#341E82"/>
<path d="M180.473 303.689L176.43 327.135L194.176 328.202L202.907 302.814L180.473 303.689Z" fill="#FD9772"/>
<path d="M235.767 354.348L172.348 354.87C171.823 353.77 171.531 352.574 171.489 351.356C171.044 345.986 172.686 337.423 173.476 332.015C173.576 331.385 173.66 330.795 173.722 330.265C173.822 329.533 173.879 328.795 173.89 328.056C173.852 323.652 177.727 324.373 177.727 324.373C184.194 330.611 191.383 321.12 195.657 324.174C195.657 324.174 197.49 325.47 202.562 329.958C207.633 334.447 216.226 337.37 223.537 340.354C232.982 344.19 235.682 348.118 236.227 350.819C236.515 352.012 236.351 353.269 235.767 354.348Z" fill="#EF3D1B"/>
<path d="M235.767 354.348L172.348 354.87C171.823 353.77 171.531 352.574 171.489 351.356L236.258 350.819C236.537 352.016 236.362 353.273 235.767 354.348Z" fill="#88001C"/>
<path d="M178.816 354.816H176.936C178.136 353.423 179.047 351.806 179.617 350.059C180.187 348.311 180.405 346.468 180.258 344.635C179.906 338.375 176.108 334.178 173.476 331.999C173.576 331.37 173.66 330.779 173.722 330.25C176.553 332.375 181.34 337.048 181.77 344.551C182.047 348.216 180.998 351.859 178.816 354.816Z" fill="#88001C"/>
<path d="M201.549 333.71C201.292 333.715 201.043 333.624 200.849 333.457C200.655 333.289 200.529 333.056 200.496 332.802C200.463 332.548 200.525 332.29 200.669 332.079C200.814 331.867 201.031 331.716 201.28 331.654L205.239 330.634C205.508 330.564 205.793 330.605 206.032 330.746C206.27 330.887 206.444 331.117 206.513 331.386C206.582 331.654 206.542 331.939 206.401 332.178C206.26 332.417 206.029 332.59 205.761 332.659L201.802 333.68C201.719 333.697 201.634 333.708 201.549 333.71Z" fill="white"/>
<path d="M197.912 330.672C197.682 330.672 197.457 330.598 197.273 330.459C197.089 330.321 196.955 330.126 196.892 329.905C196.857 329.771 196.85 329.631 196.87 329.494C196.89 329.357 196.937 329.226 197.009 329.107C197.08 328.989 197.174 328.886 197.286 328.804C197.398 328.722 197.524 328.663 197.659 328.631L201.61 327.611C201.879 327.542 202.164 327.582 202.403 327.723C202.641 327.864 202.815 328.094 202.884 328.363C202.953 328.631 202.913 328.916 202.772 329.155C202.631 329.394 202.4 329.567 202.132 329.636L198.181 330.657C198.092 330.67 198.002 330.675 197.912 330.672Z" fill="white"/>
<path d="M205.531 335.981C205.3 335.982 205.076 335.907 204.892 335.769C204.708 335.63 204.574 335.436 204.51 335.214C204.476 335.081 204.469 334.941 204.489 334.805C204.509 334.669 204.556 334.538 204.628 334.42C204.699 334.302 204.793 334.199 204.905 334.118C205.017 334.037 205.143 333.979 205.277 333.948L209.236 332.928C209.505 332.859 209.79 332.901 210.028 333.043C210.266 333.184 210.438 333.415 210.506 333.683C210.574 333.952 210.533 334.237 210.391 334.475C210.249 334.713 210.019 334.885 209.75 334.953L205.799 335.966C205.711 335.984 205.62 335.989 205.531 335.981Z" fill="white"/>
<path d="M209.513 338.16C209.256 338.164 209.007 338.074 208.813 337.907C208.619 337.739 208.493 337.506 208.46 337.252C208.427 336.998 208.488 336.74 208.633 336.528C208.778 336.316 208.995 336.165 209.244 336.104L213.195 335.083C213.466 335.018 213.751 335.062 213.989 335.206C214.228 335.349 214.4 335.581 214.469 335.851C214.503 335.985 214.51 336.124 214.49 336.261C214.47 336.398 214.423 336.529 214.352 336.648C214.28 336.766 214.186 336.87 214.075 336.951C213.963 337.033 213.836 337.092 213.702 337.124L209.75 338.145C209.672 338.16 209.592 338.165 209.513 338.16Z" fill="white"/>
<path d="M213.847 340.17C213.591 340.174 213.342 340.084 213.148 339.917C212.954 339.749 212.828 339.516 212.795 339.262C212.762 339.007 212.823 338.75 212.968 338.538C213.112 338.326 213.33 338.175 213.579 338.114L217.53 337.101C217.665 337.059 217.807 337.044 217.948 337.059C218.089 337.073 218.225 337.116 218.349 337.184C218.472 337.253 218.581 337.346 218.667 337.458C218.754 337.57 218.817 337.699 218.852 337.836C218.888 337.973 218.895 338.115 218.873 338.255C218.852 338.395 218.802 338.529 218.727 338.649C218.653 338.769 218.554 338.873 218.438 338.953C218.322 339.034 218.19 339.09 218.052 339.119L214.101 340.139C214.018 340.161 213.933 340.171 213.847 340.17Z" fill="white"/>
<path d="M218.543 341.881C218.287 341.883 218.039 341.792 217.847 341.624C217.654 341.456 217.53 341.223 217.498 340.969C217.466 340.715 217.528 340.459 217.672 340.248C217.817 340.037 218.034 339.886 218.282 339.825L222.233 338.804C222.367 338.77 222.507 338.763 222.643 338.783C222.78 338.803 222.912 338.85 223.03 338.921C223.149 338.993 223.252 339.087 223.334 339.199C223.416 339.31 223.474 339.437 223.507 339.572C223.572 339.842 223.528 340.127 223.384 340.366C223.241 340.604 223.009 340.776 222.739 340.845L218.781 341.858C218.703 341.875 218.623 341.883 218.543 341.881Z" fill="white"/>
<path d="M167.592 193.692C167.592 193.692 222.317 188.675 225.44 213.195C228.563 237.716 200.122 313.31 200.122 313.31L178.317 314.929L178.739 273.606C179.246 250.536 178.739 237.861 184.271 226.345L138.821 230.795C138.821 230.795 135.606 202.469 167.592 193.692Z" fill="#10DD8E"/>
<path d="M183.243 308.1C183.166 308.108 183.089 308.108 183.013 308.1C182.902 308.093 182.795 308.063 182.696 308.013C182.597 307.963 182.51 307.894 182.438 307.809C182.367 307.725 182.313 307.627 182.28 307.522C182.247 307.416 182.235 307.305 182.246 307.195C182.246 306.888 185.207 276.391 185.069 254.909C184.954 237.263 192.611 223.583 195.58 218.949C190.531 219.717 181.969 220.108 181.555 220.123C181.346 220.114 181.148 220.026 181 219.878C180.853 219.73 180.766 219.531 180.757 219.322C180.748 219.113 180.818 218.908 180.953 218.749C181.088 218.589 181.278 218.485 181.486 218.458C181.601 218.458 193.094 217.975 197.191 216.924C197.358 216.88 197.534 216.889 197.696 216.951C197.857 217.013 197.994 217.124 198.089 217.269C198.188 217.409 198.241 217.577 198.241 217.748C198.241 217.92 198.188 218.088 198.089 218.228C190.746 229.07 186.801 241.853 186.757 254.947C186.895 276.514 183.949 307.118 183.926 307.402C183.899 307.575 183.819 307.736 183.697 307.861C183.574 307.987 183.416 308.07 183.243 308.1Z" fill="#053D3A"/>
<path d="M202.354 307.885H202.239L178.854 308.906C178.746 308.91 178.637 308.893 178.535 308.856C178.432 308.818 178.339 308.761 178.258 308.687C178.178 308.614 178.113 308.525 178.068 308.426C178.022 308.327 177.996 308.221 177.991 308.112C177.987 308.003 178.004 307.894 178.041 307.792C178.079 307.69 178.136 307.596 178.21 307.516C178.283 307.436 178.372 307.371 178.471 307.325C178.57 307.279 178.677 307.253 178.785 307.249L202.163 306.221C202.378 306.212 202.589 306.287 202.75 306.43C202.912 306.573 203.012 306.773 203.029 306.988C203.052 307.195 202.995 307.403 202.869 307.57C202.744 307.737 202.56 307.85 202.354 307.885Z" fill="#053D3A"/>
<path d="M276.153 277.979L294.467 291.551L306.021 278.048L287.616 259.942L276.153 277.979Z" fill="#FD9772"/>
<path d="M351.947 260.625L314.138 311.53C312.941 311.291 311.807 310.805 310.809 310.103C306.267 307.226 300.413 300.743 296.584 296.853C296.139 296.393 295.717 295.978 295.326 295.602C294.803 295.081 294.25 294.592 293.669 294.137C290.132 291.513 293.063 288.828 293.063 288.828C301.947 287.431 298.702 275.969 303.712 274.412C303.712 274.412 305.852 273.721 312.497 272.379C319.141 271.036 326.636 265.949 333.434 261.921C342.203 256.704 346.945 256.911 349.431 258.085C350.555 258.591 351.451 259.496 351.947 260.625Z" fill="#EF3D1B"/>
<path d="M351.947 260.625L314.138 311.53C312.941 311.291 311.807 310.805 310.809 310.103L349.431 258.101C350.552 258.603 351.448 259.502 351.947 260.625Z" fill="#88001C"/>
<path d="M317.997 306.351L316.87 307.886C316.477 306.089 315.733 304.387 314.679 302.88C313.626 301.372 312.284 300.088 310.732 299.101C305.523 295.61 299.891 296.109 296.569 296.891C296.124 296.431 295.702 296.017 295.311 295.641C298.717 294.667 305.331 293.661 311.576 297.843C314.659 299.826 316.936 302.842 317.997 306.351Z" fill="#88001C"/>
<path d="M314.86 275.478C314.709 275.688 314.487 275.834 314.235 275.889C313.983 275.944 313.719 275.904 313.495 275.776C313.271 275.648 313.102 275.442 313.021 275.197C312.94 274.952 312.953 274.686 313.057 274.45L314.591 270.683C314.629 270.541 314.697 270.408 314.791 270.294C314.884 270.18 315 270.088 315.131 270.022C315.263 269.956 315.407 269.919 315.554 269.912C315.701 269.906 315.848 269.931 315.985 269.985C316.121 270.04 316.245 270.123 316.347 270.228C316.45 270.334 316.529 270.46 316.579 270.598C316.629 270.737 316.65 270.884 316.639 271.031C316.628 271.178 316.587 271.321 316.517 271.45L314.982 275.217C314.952 275.308 314.91 275.396 314.86 275.478Z" fill="white"/>
<path d="M310.241 276.552C310.091 276.762 309.868 276.908 309.616 276.963C309.364 277.018 309.1 276.978 308.876 276.85C308.652 276.722 308.484 276.516 308.403 276.271C308.322 276.026 308.334 275.76 308.438 275.524L309.972 271.757C310.025 271.631 310.103 271.516 310.2 271.419C310.297 271.323 310.412 271.246 310.539 271.194C310.666 271.142 310.802 271.116 310.939 271.116C311.076 271.117 311.212 271.144 311.338 271.197C311.464 271.25 311.579 271.327 311.676 271.424C311.772 271.522 311.849 271.637 311.901 271.764C311.953 271.891 311.979 272.026 311.979 272.163C311.978 272.301 311.951 272.436 311.898 272.563L310.364 276.33C310.33 276.408 310.289 276.482 310.241 276.552Z" fill="white"/>
<path d="M319.072 273.667C318.931 273.854 318.734 273.989 318.509 274.051C318.284 274.114 318.045 274.1 317.829 274.013C317.701 273.96 317.586 273.882 317.488 273.784C317.391 273.687 317.314 273.57 317.262 273.443C317.21 273.315 317.184 273.178 317.185 273.04C317.186 272.903 317.214 272.766 317.269 272.639L318.803 268.872C318.929 268.654 319.13 268.488 319.368 268.405C319.606 268.322 319.867 268.327 320.101 268.42C320.336 268.513 320.529 268.688 320.646 268.912C320.762 269.136 320.795 269.394 320.736 269.639L319.202 273.407C319.173 273.5 319.129 273.588 319.072 273.667Z" fill="white"/>
<path d="M323.23 271.826C323.08 272.036 322.857 272.182 322.605 272.237C322.353 272.292 322.089 272.252 321.865 272.124C321.641 271.996 321.473 271.79 321.392 271.545C321.311 271.3 321.323 271.034 321.427 270.798L322.961 267.031C323.068 266.776 323.272 266.573 323.528 266.468C323.784 266.363 324.072 266.364 324.327 266.471C324.582 266.578 324.785 266.782 324.89 267.038C324.995 267.294 324.994 267.581 324.887 267.837L323.353 271.604C323.322 271.683 323.281 271.758 323.23 271.826Z" fill="white"/>
<path d="M327.427 269.563C327.276 269.773 327.054 269.919 326.802 269.974C326.55 270.029 326.286 269.989 326.062 269.861C325.838 269.733 325.669 269.527 325.588 269.282C325.507 269.037 325.52 268.771 325.624 268.535L327.158 264.768C327.196 264.626 327.264 264.493 327.358 264.379C327.451 264.265 327.567 264.173 327.698 264.107C327.83 264.041 327.974 264.004 328.121 263.997C328.268 263.991 328.415 264.016 328.552 264.07C328.688 264.125 328.812 264.208 328.914 264.313C329.017 264.419 329.096 264.545 329.146 264.683C329.196 264.822 329.217 264.969 329.206 265.116C329.195 265.263 329.154 265.406 329.084 265.535L327.549 269.302C327.521 269.394 327.479 269.482 327.427 269.563Z" fill="white"/>
<path d="M331.623 266.839C331.483 267.026 331.285 267.161 331.06 267.223C330.836 267.286 330.597 267.272 330.38 267.185C330.254 267.132 330.139 267.054 330.042 266.957C329.946 266.86 329.869 266.745 329.817 266.618C329.765 266.491 329.739 266.355 329.739 266.218C329.74 266.081 329.767 265.945 329.82 265.819L331.355 262.052C331.407 261.925 331.484 261.809 331.581 261.712C331.678 261.614 331.793 261.537 331.92 261.484C332.047 261.432 332.183 261.404 332.32 261.404C332.457 261.404 332.593 261.431 332.72 261.484C332.976 261.592 333.179 261.798 333.284 262.055C333.389 262.313 333.388 262.601 333.28 262.857L331.746 266.624C331.714 266.701 331.673 266.773 331.623 266.839Z" fill="white"/>
<path d="M84.1948 225.363C84.6247 232.52 86.2211 239.559 88.9208 246.201C89.4639 247.495 90.0734 248.76 90.7468 249.991C95.2274 258.216 102.754 265.167 115.39 264.491C145.15 262.896 191.636 227.021 191.636 227.021C202.124 239.25 223.353 253.543 245.066 264.714C266.778 275.885 284.501 285.513 284.501 285.513L299.791 269.179C299.791 269.179 223.284 188.844 198.173 186.665C173.062 184.486 84.1948 225.363 84.1948 225.363Z" fill="#10DD8E"/>
<path d="M220.422 251.188C220.262 251.221 220.095 251.202 219.947 251.134C204.526 244.436 193.861 231.654 191.314 228.348C185.568 233.979 166.479 245.319 165.635 245.817C165.445 245.927 165.22 245.958 165.008 245.904C164.795 245.849 164.613 245.713 164.5 245.526C164.443 245.432 164.406 245.329 164.39 245.221C164.374 245.113 164.38 245.002 164.407 244.897C164.434 244.791 164.482 244.692 164.548 244.605C164.614 244.518 164.697 244.445 164.791 244.39C165.006 244.26 186.273 231.631 190.762 226.522C190.846 226.429 190.949 226.357 191.065 226.309C191.181 226.262 191.305 226.241 191.43 226.247C191.555 226.254 191.677 226.288 191.787 226.347C191.897 226.407 191.992 226.49 192.066 226.591C192.173 226.744 203.321 242.104 220.607 249.607C220.808 249.695 220.966 249.859 221.047 250.063C221.127 250.267 221.124 250.495 221.036 250.697C220.984 250.824 220.9 250.936 220.793 251.021C220.685 251.107 220.558 251.165 220.422 251.188Z" fill="#053D3A"/>
<path d="M279.544 282.567C279.372 282.602 279.193 282.581 279.033 282.508C278.873 282.434 278.741 282.311 278.655 282.158C278.57 282.004 278.535 281.827 278.557 281.652C278.579 281.477 278.656 281.314 278.777 281.186L294.252 264.231C294.326 264.15 294.414 264.085 294.513 264.038C294.612 263.992 294.719 263.966 294.828 263.961C294.937 263.956 295.046 263.972 295.148 264.009C295.251 264.046 295.345 264.103 295.426 264.177C295.506 264.25 295.572 264.339 295.618 264.438C295.664 264.537 295.691 264.644 295.696 264.753C295.701 264.862 295.684 264.971 295.647 265.073C295.61 265.176 295.553 265.27 295.48 265.351L280.012 282.306C279.89 282.443 279.725 282.535 279.544 282.567Z" fill="#053D3A"/>
<path d="M88.9208 246.201C89.4639 247.495 90.0734 248.76 90.7468 249.991C92.8658 251.574 95.1883 252.864 97.6518 253.827C103.575 256.182 113.579 258.054 127.627 253.643C158.669 243.876 189.266 222.348 194.145 218.819C196.769 222.317 209.413 238.467 225.601 246.799C243.577 256.006 281.654 278.393 282.038 278.616C282.209 278.715 282.41 278.751 282.606 278.716C282.723 278.696 282.835 278.651 282.933 278.584C283.032 278.516 283.114 278.427 283.173 278.324C283.23 278.23 283.267 278.126 283.283 278.018C283.299 277.909 283.294 277.798 283.267 277.692C283.239 277.585 283.191 277.486 283.125 277.398C283.059 277.31 282.977 277.237 282.882 277.181C282.498 276.959 244.383 254.579 226.361 245.326C208.553 236.181 195.104 217.369 194.966 217.185C194.903 217.093 194.823 217.016 194.729 216.956C194.635 216.897 194.531 216.857 194.421 216.839C194.2 216.808 193.975 216.863 193.792 216.993C193.47 217.246 160.526 241.544 127.09 252.055C113.564 256.305 103.981 254.548 98.3269 252.323C95.8737 251.374 93.5671 250.083 91.4757 248.487C90.6433 247.876 89.8724 247.184 89.174 246.423C89.1072 246.331 89.0207 246.255 88.9208 246.201Z" fill="#053D3A"/>
<path d="M41.1077 129.453C41.1077 129.453 30.7655 185.667 41.4606 196.378C48.7108 203.643 57.1963 199.83 61.0017 182.706C66.3723 158.608 67.0321 134.218 67.0321 134.218L41.1077 129.453Z" fill="#FD9772"/>
<path d="M106.107 181.816C95.7491 181.049 83.182 180.435 77.7194 179.315C69.6789 177.665 58.2627 175.709 49.4013 176.722C47.33 176.963 45.3567 177.737 43.6739 178.969C41.9911 180.2 40.6563 181.847 39.8 183.748C38.9436 185.65 38.5948 187.741 38.7877 189.817C38.9806 191.893 39.7085 193.884 40.9005 195.595C42.3744 197.7 44.2804 199.466 46.4912 200.776C48.7019 202.086 51.1666 202.909 53.7208 203.191C69.0652 205.323 94.4295 201.61 107.426 198.702C109.551 193.316 109.244 186.703 106.107 181.816Z" fill="#FD9772"/>
<path d="M101.772 180.059C101.772 180.059 116.349 177.757 119.717 181.256C123.085 184.754 123.929 186.626 123.929 186.626L101.772 180.059Z" fill="#C84D48"/>
<path d="M93.1022 186.066C94.2122 183.909 95.9523 182.14 98.0913 180.994C100.23 179.848 102.667 179.381 105.079 179.652C109.789 180.136 116.717 181.187 122.134 183.289C130.573 186.619 137.578 194.866 136.044 197.099C134.509 199.332 128.901 190.416 124.374 190.11C124.374 190.11 136.711 198.119 136.09 201.257C135.414 204.641 127.704 195.288 122.794 194.352C122.794 194.352 134.125 202.508 132.921 204.096C131.057 206.551 126.545 200.153 121.62 199.6C121.62 199.6 129.806 204.572 128.862 206.85C127.919 209.129 117.615 200.306 111.861 201.142C106.107 201.979 101.373 203.444 97.1301 200.283C94.0229 197.974 89.995 192.242 93.1022 186.066Z" fill="#FD9772"/>
<path d="M61.8303 176.883C61.7402 176.993 61.6162 177.072 61.4774 177.105C55.3396 178.532 49.2632 182.476 49.2018 182.545C49.0599 182.635 48.888 182.667 48.7231 182.632C48.5582 182.598 48.4133 182.5 48.3195 182.36C48.2736 182.29 48.242 182.212 48.2264 182.13C48.2108 182.048 48.2115 181.963 48.2286 181.881C48.2457 181.799 48.2788 181.722 48.326 181.652C48.3732 181.583 48.4336 181.524 48.5037 181.478C48.7568 181.309 54.8179 177.343 61.1935 175.862C61.3224 175.833 61.4573 175.845 61.5793 175.896C61.7013 175.946 61.8045 176.034 61.8745 176.146C61.9445 176.258 61.9779 176.39 61.9699 176.522C61.962 176.653 61.9132 176.78 61.8303 176.883Z" fill="#C84D48"/>
<path d="M60.526 177.22C60.4336 177.328 60.3084 177.402 60.1697 177.431C60.031 177.46 59.8866 177.442 59.7588 177.381C57.2193 176.039 52.8538 177.289 52.8538 177.305C52.7716 177.335 52.684 177.349 52.5965 177.344C52.5089 177.339 52.4232 177.317 52.3449 177.277C52.2665 177.238 52.1971 177.183 52.1411 177.115C52.085 177.048 52.0435 176.969 52.0192 176.885C51.9948 176.801 51.9881 176.712 51.9995 176.625C52.0108 176.539 52.04 176.455 52.0853 176.38C52.1305 176.305 52.1908 176.24 52.2623 176.189C52.3338 176.138 52.415 176.103 52.5009 176.085C52.6927 176.023 57.3804 174.673 60.3802 176.253C60.5303 176.333 60.6427 176.469 60.693 176.632C60.7433 176.794 60.7274 176.97 60.6488 177.121L60.526 177.22Z" fill="#C84D48"/>
<path d="M35.6451 135.161C35.6451 135.161 54.4036 143.294 71.1443 141.122C71.1443 141.122 72.9013 136.281 74.7656 129.722C74.9344 129.162 75.0878 128.594 75.249 128.011C76.0699 125.011 76.8831 121.743 77.5506 118.451C77.6427 117.976 77.7424 117.508 77.8345 117.032C78.5229 113.553 78.9384 110.026 79.0774 106.483C79.3919 92.734 72.4946 84.6474 63.6793 82.0542C63.6793 82.0542 60.572 83.5886 56.2986 88.192C55.9841 88.5295 55.6695 88.8826 55.3473 89.2508C52.7109 92.3206 50.3731 95.6345 48.3656 99.1479C48.1277 99.5468 47.8976 99.9612 47.6597 100.383C45.7633 103.822 44.0849 107.376 42.6344 111.024C42.458 111.469 42.2815 111.914 42.105 112.375C40.5376 116.473 39.1829 120.65 38.0464 124.888L37.6552 126.369C36.934 129.123 36.2895 132.062 35.6451 135.161Z" fill="#6359CC"/>
<path d="M55.3396 89.2737C59.5363 93.6775 60.9173 100.46 63.6486 105.853C66.5803 111.613 71.5246 116.096 77.543 118.451L77.9803 118.62C78.8396 118.95 79.2078 117.569 78.3562 117.239L77.8268 117.032C70.3004 113.963 65.8122 107.971 62.9044 100.529C61.2088 96.2016 59.4749 91.5599 56.291 88.2148C55.9764 88.5524 55.6618 88.9054 55.3396 89.2737Z" fill="#8A8EFD"/>
<path d="M42.0974 112.398C42.7956 112.85 43.5091 113.288 44.2149 113.725C47.2913 115.743 50.5697 117.435 53.997 118.773C55.9227 119.472 58.8918 120.638 60.7025 119.004C62.5131 117.369 61.6385 114.638 60.8943 112.804C59.5567 109.787 57.6409 107.06 55.2552 104.779C53.1662 102.662 50.8506 100.781 48.3502 99.1709C48.1124 99.5699 47.8822 99.9842 47.6444 100.406C49.4901 101.606 51.2303 102.962 52.8461 104.457C54.8707 106.261 56.6481 108.325 58.1323 110.595C58.9881 111.881 59.6403 113.291 60.0657 114.776C60.3956 116.111 60.7178 117.96 58.4775 118.382C57.8894 118.407 57.3016 118.324 56.7436 118.137C51.68 117.001 46.9846 113.917 42.6191 111.047C42.4273 111.477 42.2738 111.937 42.0974 112.398Z" fill="#8A8EFD"/>
<path d="M37.6475 126.392C40.1974 128.154 43.0276 129.472 46.0179 130.289C49.9883 131.375 54.1575 131.52 58.1937 130.711C60.8866 130.174 63.4875 129.284 66.1344 128.571C68.7813 127.857 72.7938 126.545 74.5738 129.491C74.6287 129.582 74.7019 129.661 74.7886 129.722C75.341 130.09 76.2233 129.453 75.809 128.763C75.6514 128.493 75.4717 128.236 75.272 127.995C73.2542 125.648 69.9014 126.154 67.032 126.852C62.4287 127.972 58.0172 129.768 53.2221 129.798C48.8385 129.81 44.5251 128.698 40.6934 126.568C39.7792 126.067 38.8977 125.508 38.0541 124.896L37.6475 126.392Z" fill="#8A8EFD"/>
<path d="M71.3975 140.256C71.2671 140.303 71.1256 140.31 70.991 140.277C70.8564 140.243 70.7349 140.17 70.6418 140.067C70.5488 139.964 70.4886 139.836 70.4687 139.699C70.4489 139.562 70.4705 139.422 70.5306 139.297C70.6226 139.12 79.5607 120.883 79.0621 106.789C79.0579 106.698 79.0721 106.608 79.1036 106.522C79.1351 106.437 79.1833 106.358 79.2455 106.292C79.3077 106.226 79.3826 106.172 79.4657 106.135C79.5488 106.098 79.6385 106.078 79.7295 106.076C79.8202 106.073 79.9106 106.088 79.9956 106.119C80.0805 106.151 80.1584 106.2 80.2246 106.262C80.2909 106.324 80.3443 106.398 80.3818 106.481C80.4193 106.563 80.4401 106.653 80.4431 106.743C80.9571 121.183 72.1494 139.158 71.7735 139.91C71.7369 139.99 71.6848 140.061 71.6202 140.121C71.5557 140.18 71.48 140.226 71.3975 140.256Z" fill="#341E82"/>
<path d="M79.438 116.848C79.2845 116.9 79.1174 116.898 78.9654 116.841C78.8135 116.784 78.6861 116.676 78.6053 116.535C78.5245 116.394 78.4952 116.23 78.5226 116.07C78.5499 115.91 78.6322 115.764 78.7552 115.658C78.7935 115.658 82.1923 112.858 83.5963 110.288C83.6848 110.127 83.8336 110.008 84.0098 109.957C84.1861 109.906 84.3754 109.927 84.5362 110.015C84.6969 110.104 84.8159 110.253 84.867 110.429C84.918 110.605 84.897 110.795 84.8085 110.955C83.2741 113.748 79.7756 116.602 79.6298 116.717C79.5735 116.771 79.5087 116.815 79.438 116.848Z" fill="#341E82"/>
<path d="M85.4376 36.5273C85.4376 36.5273 74.2209 39.6882 77.0596 46.1865C79.039 50.7208 85.4376 48.964 85.4376 48.964C85.4376 48.964 77.6657 55.654 83.5119 57.8866C89.3581 60.1192 94.6826 54.7795 94.6826 54.7795C94.6826 54.7795 97.2912 36.8496 85.4376 36.5273Z" fill="#EF3D1B"/>
<path d="M82.0082 31.9318C82.0082 31.9318 73.5688 21.3825 76.5993 16.1577C79.6298 10.933 86.0054 11.9611 86.0054 11.9611C86.0054 11.9611 83.3969 4.21213 88.9515 1.21997C96.3245 -2.76958 100.843 4.52673 100.843 4.52673C102.177 2.98719 103.944 1.88482 105.913 1.36345C107.882 0.842076 109.963 0.925816 111.884 1.60358C117.07 3.36819 117.952 6.70552 117.952 6.70552C117.952 6.70552 131.762 -3.20691 137.578 5.80025C141.146 11.3396 133.888 20.8071 133.888 20.8071C133.888 20.8071 141.514 21.4592 140.793 28.9703C140.025 36.9187 130.251 39.4581 130.251 39.4581C130.251 39.4581 131.248 48.6649 122.801 48.2506C119.403 48.0665 91.9514 30.3053 82.0082 31.9318Z" fill="#EF3D1B"/>
<path d="M79.9674 72.4258C83.3048 76.3539 88.5602 77.5967 92.1969 78.97C97.8436 81.1029 104.649 80.1286 109.406 77.896L110.526 69.257L110.748 67.5001L111.186 64.1551L91.913 47.7979L90.8005 46.8466L90.0333 46.2097L89.6651 46.931L89.2431 47.7672L89.3045 48.1431C86.7496 56.314 83.8572 66.779 79.9674 72.4258Z" fill="#FD9772"/>
<path d="M109.636 76.0854C101.473 73.0165 97.7823 65.0681 96.3322 60.741C100.061 64.6154 104.772 67.4157 109.321 67.5461C109.797 67.5734 110.273 67.5734 110.748 67.5461L109.636 76.0854Z" fill="#272737"/>
<path d="M101.242 100.659C88.3761 99.1249 79.7602 72.7633 79.4073 71.6278C79.342 71.4233 79.3602 71.2013 79.4579 71.0101C79.5556 70.8189 79.725 70.6742 79.929 70.6074C80.1346 70.5418 80.3577 70.5598 80.5501 70.6574C80.7425 70.755 80.8887 70.9244 80.9571 71.129C81.0415 71.3976 89.596 97.6519 101.427 99.0483H101.826C102.647 99.1303 103.477 99.0166 104.246 98.7166C105.016 98.4165 105.703 97.9387 106.252 97.322C112.275 90.9158 109.521 69.7559 109.49 69.541C109.472 69.4333 109.475 69.323 109.5 69.2166C109.526 69.1103 109.572 69.01 109.637 68.922C109.702 68.8339 109.783 68.76 109.877 68.7043C109.972 68.6486 110.076 68.6124 110.184 68.5979C110.293 68.5835 110.403 68.5911 110.508 68.6202C110.613 68.6493 110.712 68.6993 110.797 68.7673C110.883 68.8352 110.954 68.9198 111.006 69.0158C111.058 69.1118 111.091 69.2174 111.101 69.3262C111.224 70.2315 113.986 91.4681 107.442 98.4345C106.726 99.227 105.835 99.8417 104.84 100.229C103.845 100.617 102.774 100.767 101.71 100.667C101.557 100.736 101.396 100.682 101.242 100.659Z" fill="white"/>
<path d="M110.748 67.5C110.288 67.5384 109.812 67.5461 109.321 67.5384C100.414 67.2776 90.9079 56.7973 89.3198 48.12C89.3198 47.9973 89.2738 47.8669 89.2584 47.7441C89.2124 47.4526 89.1664 47.1688 89.1433 46.8772H89.0206C83.3355 45.4579 78.1951 38.3073 80.5811 33.5352C81.8624 30.9496 83.65 30.3435 85.1845 30.4663C84.7919 28.1018 84.671 25.7003 84.8239 23.3083C85.5527 14.8688 93.3554 3.80538 109.191 8.97645C125.026 14.1475 128.586 26.6839 126.277 34.4865C124.957 38.9364 123.898 43.486 123.208 46.5779C122.985 47.6137 122.809 48.4884 122.679 49.1405C122.51 49.9461 122.425 50.414 122.425 50.414C122.556 57.4264 119.249 66.7865 110.748 67.5Z" fill="#FD9772"/>
<path d="M106.061 33.6732C105.806 33.5689 105.582 33.4027 105.408 33.1898C105.266 33.0201 105.159 32.824 105.093 32.6125C105.027 32.401 105.003 32.1784 105.024 31.9578C105.045 31.7373 105.109 31.523 105.213 31.3275C105.317 31.132 105.459 30.9594 105.631 30.8192C105.8 30.6811 109.851 27.3895 114.17 29.8677C114.362 29.978 114.529 30.125 114.664 30.3002C114.799 30.4753 114.897 30.6753 114.955 30.8887C115.012 31.1021 115.027 31.3246 114.998 31.5437C114.97 31.7628 114.898 31.9741 114.788 32.1656C114.677 32.357 114.53 32.5249 114.355 32.6595C114.18 32.7941 113.98 32.8929 113.767 32.9502C113.553 33.0076 113.331 33.0223 113.112 32.9937C112.893 32.965 112.681 32.8935 112.49 32.7831C110.188 31.4558 107.802 33.3893 107.779 33.4123C107.544 33.6083 107.259 33.7363 106.956 33.7822C106.653 33.8282 106.344 33.7906 106.061 33.6732Z" fill="#272737"/>
<path d="M123.239 37.2025C123.007 37.1086 122.799 36.963 122.631 36.7769C122.464 36.5908 122.341 36.3691 122.272 36.1285C121.865 34.7551 119.564 34.2641 118.965 34.2027C118.542 34.1337 118.16 33.9058 117.899 33.5657C117.637 33.2255 117.515 32.7986 117.557 32.3716C117.599 31.9446 117.802 31.5495 118.125 31.2668C118.448 30.9842 118.866 30.8351 119.295 30.8499C121.182 31.034 124.604 32.1543 125.502 35.1694C125.626 35.5977 125.577 36.0577 125.364 36.4497C125.152 36.8417 124.793 37.1343 124.366 37.2639C123.995 37.3755 123.596 37.3537 123.239 37.2025Z" fill="#272737"/>
<path d="M121.006 41.7368C120.707 42.857 119.993 43.6319 119.41 43.4784C118.827 43.325 118.597 42.2892 118.896 41.1768C119.195 40.0643 119.909 39.2741 120.492 39.4352C121.075 39.5963 121.305 40.6167 121.006 41.7368Z" fill="#272737"/>
<path d="M116.993 39.8343C116.937 39.8043 116.894 39.7552 116.871 39.6961C116.853 39.6595 116.843 39.6197 116.841 39.579C116.839 39.5384 116.846 39.498 116.86 39.4599C116.874 39.4219 116.896 39.3871 116.924 39.3578C116.953 39.3285 116.987 39.3052 117.024 39.2895C117.147 39.2281 120.208 37.8931 122.303 40.0567C122.359 40.1153 122.391 40.1939 122.391 40.2755C122.391 40.3571 122.359 40.4354 122.303 40.494C122.245 40.5503 122.168 40.5817 122.088 40.5817C122.007 40.5817 121.93 40.5503 121.873 40.494C120.07 38.6604 117.27 39.8726 117.27 39.8879C117.223 39.901 117.173 39.903 117.125 39.8937C117.077 39.8844 117.032 39.8641 116.993 39.8343Z" fill="#272737"/>
<path d="M124.566 36.8419C123.538 36.5181 122.448 36.4426 121.385 36.6214C120.323 36.8002 119.317 37.2283 118.452 37.8706C117.587 38.5129 116.886 39.351 116.407 40.3165C115.928 41.2819 115.685 42.3471 115.697 43.4247L116.809 43.954C116.739 43.1781 116.822 42.3959 117.055 41.6524C117.447 40.4001 118.258 39.3208 119.352 38.5953C120.446 37.8698 121.755 37.542 123.062 37.6672C124.368 37.7923 125.592 38.3626 126.528 39.2825C127.464 40.2024 128.055 41.416 128.203 42.72C128.351 44.024 128.046 45.3394 127.34 46.4454C126.633 47.5515 125.568 48.3811 124.323 48.7954C123.078 49.2097 121.728 49.1834 120.5 48.721C119.271 48.2587 118.239 47.3883 117.577 46.2557L116.594 46.7084C117.433 48.2169 118.82 49.3436 120.469 49.8539C122.198 50.3972 124.073 50.2312 125.68 49.3924C127.287 48.5535 128.495 47.1107 129.039 45.3811C129.582 43.6516 129.416 41.777 128.577 40.1698C127.738 38.5626 126.295 37.3544 124.566 36.8111V36.8419Z" fill="white"/>
<path d="M101.158 39.0287C101.561 37.7429 102.337 36.6055 103.387 35.7607C104.437 34.9158 105.714 34.4012 107.056 34.282C108.398 34.1629 109.746 34.4446 110.928 35.0914C112.11 35.7382 113.074 36.721 113.698 37.9157C114.322 39.1103 114.577 40.463 114.432 41.8027C114.286 43.1425 113.747 44.4091 112.882 45.4423C112.017 46.4755 110.865 47.2289 109.571 47.6073C108.278 47.9856 106.901 47.9718 105.616 47.5677C103.895 47.0226 102.46 45.8183 101.624 44.2181C100.789 42.6179 100.621 40.7522 101.158 39.0287ZM102.194 39.3508C101.853 40.4319 101.841 41.5897 102.158 42.6778C102.476 43.766 103.109 44.7356 103.977 45.4641C104.846 46.1925 105.911 46.647 107.037 46.7702C108.164 46.8933 109.302 46.6796 110.307 46.156C111.313 45.6324 112.14 44.8225 112.685 43.8287C113.23 42.8348 113.468 41.7016 113.369 40.5725C113.27 39.4433 112.839 38.3689 112.129 37.485C111.419 36.6012 110.464 35.9476 109.383 35.6069C107.932 35.1546 106.361 35.2953 105.014 35.9984C103.666 36.7015 102.652 37.9097 102.194 39.3585V39.3508Z" fill="white"/>
<path d="M127.589 45.6112C127.673 45.6361 127.762 45.6408 127.849 45.6248C127.936 45.6088 128.017 45.5727 128.087 45.5192C128.145 45.4756 128.193 45.421 128.229 45.3585C128.265 45.2959 128.288 45.2267 128.296 45.1551C128.305 45.0835 128.299 45.011 128.279 44.9417C128.259 44.8725 128.225 44.8079 128.179 44.752C127.225 43.6945 125.969 42.9554 124.581 42.6344C124.444 42.6026 124.299 42.6253 124.178 42.6978C124.057 42.7702 123.969 42.8869 123.932 43.0231C123.896 43.1593 123.913 43.3043 123.981 43.4279C124.049 43.5515 124.163 43.6438 124.297 43.6854C125.469 43.9471 126.537 44.5505 127.366 45.4194C127.422 45.502 127.499 45.5682 127.589 45.6112Z" fill="white"/>
<path d="M102.585 36.7114C98.2809 34.1873 94.9128 34.0032 92.9411 34.264V35.3688C94.7287 35.1156 97.8973 35.223 102.033 37.6704C102.155 37.7249 102.294 37.7322 102.421 37.6909C102.549 37.6496 102.657 37.5626 102.725 37.4466C102.792 37.3306 102.814 37.1937 102.787 37.0622C102.76 36.9308 102.685 36.8142 102.577 36.7345L102.585 36.7114Z" fill="white"/>
<path d="M85.1538 30.428C85.1538 30.428 88.7904 30.428 90.8082 32.7297C92.826 35.0313 92.2045 40.5707 95.1737 41.1691C98.1428 41.7675 95.3732 27.359 97.1224 25.5177C98.8717 23.6764 107.419 26.7989 110.395 23.6073C113.372 20.4157 116.533 20.7303 119.303 24.2058C122.072 27.6813 129.277 31.3102 129.077 26.5074C128.878 21.7046 118.758 7.9791 108.968 6.79758C99.1786 5.61606 88.8211 6.79759 85.3072 16.3955C81.7934 25.9934 85.1538 30.428 85.1538 30.428Z" fill="#EF3D1B"/>
<path d="M93.3937 46.7696C92.9746 47.203 92.4705 47.5452 91.913 47.7747C91.0888 48.0964 90.1994 48.2148 89.3198 48.1199C89.3198 47.9972 89.2738 47.8668 89.2584 47.744C89.2124 47.4525 89.174 47.161 89.1433 46.8771H89.0206C89.2388 46.9126 89.4593 46.933 89.6804 46.9384C90.0555 46.9606 90.4319 46.9349 90.8005 46.8618C91.4489 46.7344 92.0446 46.4166 92.5114 45.9488C92.6262 45.8404 92.7783 45.7802 92.9362 45.781C93.0941 45.7818 93.2456 45.8437 93.3593 45.9533C93.4729 46.063 93.5398 46.2121 93.5463 46.3699C93.5527 46.5277 93.498 46.6818 93.3937 46.8004V46.7696Z" fill="#C84D48"/>
<path d="M111.07 56.4136C110.576 56.2028 110.165 55.833 109.904 55.3626C109.874 55.3151 109.854 55.2617 109.846 55.206C109.838 55.1504 109.842 55.0936 109.857 55.0395C109.873 54.9854 109.9 54.9352 109.936 54.8921C109.972 54.849 110.017 54.8141 110.067 54.7896C110.118 54.7651 110.173 54.7516 110.23 54.7499C110.286 54.7483 110.342 54.7586 110.394 54.7801C110.446 54.8016 110.492 54.8338 110.531 54.8747C110.57 54.9156 110.599 54.9641 110.618 55.0172C110.782 55.2902 111.023 55.5088 111.311 55.6453C111.599 55.7817 111.921 55.8301 112.237 55.7844C112.294 55.7632 112.356 55.7555 112.417 55.762C112.478 55.7684 112.536 55.7888 112.588 55.8215C112.64 55.8543 112.683 55.8985 112.715 55.9508C112.747 56.003 112.767 56.0621 112.772 56.1231C112.778 56.1841 112.769 56.2456 112.747 56.3027C112.725 56.3599 112.69 56.4111 112.645 56.4526C112.6 56.494 112.546 56.5245 112.487 56.5417C112.428 56.5589 112.366 56.5623 112.306 56.5517C111.889 56.6083 111.465 56.5609 111.07 56.4136Z" fill="#C84D48"/>
<path d="M88.4605 42.5041C88.3437 42.4576 88.2446 42.3754 88.1771 42.2694C88.1096 42.1633 88.0772 42.0388 88.0846 41.9133C88.261 37.5708 83.7191 34.6093 83.673 34.5863C83.5368 34.4969 83.4412 34.3575 83.4067 34.1982C83.3723 34.0389 83.4018 33.8724 83.4889 33.7346C83.5318 33.6666 83.5878 33.6079 83.6536 33.5617C83.7194 33.5156 83.7938 33.483 83.8723 33.4658C83.9509 33.4487 84.032 33.4474 84.1111 33.4619C84.1902 33.4764 84.2655 33.5065 84.3328 33.5505C84.5477 33.6886 89.5116 36.9109 89.3044 41.9899C89.3015 42.0702 89.2826 42.1491 89.2489 42.222C89.2152 42.2949 89.1673 42.3605 89.108 42.4147C89.0488 42.469 88.9793 42.511 88.9037 42.5382C88.8281 42.5653 88.7479 42.5771 88.6676 42.573C88.5942 42.5661 88.5234 42.5426 88.4605 42.5041Z" fill="#C84D48"/>
<path d="M83.8572 38.9748C83.7846 38.9414 83.7174 38.8975 83.6577 38.8445C83.5429 38.7294 83.4785 38.5734 83.4785 38.4108C83.4785 38.2483 83.5429 38.0925 83.6577 37.9774C84.1888 37.4882 84.8375 37.145 85.5407 36.9809C86.2439 36.8169 86.9775 36.8377 87.6702 37.0414C87.7473 37.0626 87.8195 37.0988 87.8826 37.1478C87.9457 37.1969 87.9985 37.2578 88.0381 37.3273C88.0776 37.3967 88.1031 37.4733 88.113 37.5526C88.123 37.6319 88.1172 37.7125 88.0961 37.7895C88.0749 37.8666 88.0388 37.9386 87.9897 38.0018C87.9407 38.0649 87.8797 38.1177 87.8102 38.1572C87.7408 38.1968 87.6642 38.2224 87.5849 38.2323C87.5056 38.2423 87.4251 38.2365 87.348 38.2153C86.863 38.0741 86.3503 38.0571 85.857 38.1657C85.3637 38.2742 84.9055 38.505 84.5246 38.8368C84.4401 38.9241 84.3312 38.9839 84.2122 39.0085C84.0931 39.0332 83.9694 39.0214 83.8572 38.9748Z" fill="#C84D48"/>
<path d="M114.408 48.1967C114.265 48.1397 114.15 48.0298 114.086 47.8899C114.018 47.7424 114.011 47.5739 114.067 47.4215C114.123 47.269 114.238 47.145 114.385 47.0766L118.098 45.3504L115.405 43.8849C115.327 43.8426 115.259 43.7836 115.206 43.712C115.153 43.6404 115.116 43.5581 115.098 43.4707L113.48 35.7985C113.456 35.6444 113.493 35.4871 113.581 35.3587C113.669 35.2304 113.803 35.1405 113.956 35.1074C114.108 35.0742 114.267 35.1001 114.401 35.18C114.535 35.2599 114.633 35.3878 114.676 35.5376L116.211 42.903L119.725 44.821C119.825 44.8732 119.909 44.9527 119.966 45.0505C120.023 45.1483 120.051 45.2603 120.047 45.3734C120.043 45.4866 120.008 45.5964 119.945 45.6911C119.883 45.7857 119.796 45.8616 119.694 45.9104L114.876 48.1507C114.806 48.1908 114.727 48.2158 114.647 48.2237C114.566 48.2316 114.485 48.2224 114.408 48.1967Z" fill="#C84D48"/>
<path d="M113.871 39.9031C113.955 39.9301 114.045 39.9357 114.132 39.9196C114.219 39.9036 114.3 39.8664 114.37 39.8112C114.51 39.6865 114.674 39.5924 114.853 39.5353C115.032 39.4781 115.22 39.459 115.407 39.4793C115.593 39.4995 115.774 39.5588 115.936 39.6529C116.098 39.747 116.239 39.8742 116.349 40.026C116.391 40.0889 116.447 40.1421 116.511 40.1824C116.575 40.2227 116.647 40.249 116.723 40.2598C116.798 40.2706 116.874 40.2657 116.947 40.2452C117.02 40.2247 117.088 40.189 117.147 40.1406C117.205 40.0923 117.253 40.0325 117.287 39.9646C117.321 39.8967 117.341 39.8224 117.344 39.7465C117.348 39.6707 117.336 39.595 117.308 39.5242C117.281 39.4534 117.239 39.3891 117.185 39.3354C116.986 39.0748 116.735 38.8576 116.449 38.6967C116.163 38.5358 115.847 38.4346 115.52 38.3994C115.194 38.3643 114.864 38.3959 114.55 38.4921C114.236 38.5884 113.945 38.7474 113.694 38.9595C113.637 39.0036 113.59 39.0587 113.555 39.1215C113.52 39.1843 113.497 39.2537 113.49 39.3253C113.482 39.3969 113.488 39.4693 113.509 39.5383C113.53 39.6072 113.564 39.6713 113.61 39.7267C113.678 39.8099 113.768 39.8713 113.871 39.9031Z" fill="white"/>
<path d="M112.298 54.304H112.237C111.461 53.9995 110.774 53.5059 110.238 52.8681C109.702 52.2302 109.334 51.4684 109.168 50.652C109.155 50.4966 109.203 50.3423 109.3 50.2204C109.397 50.0985 109.537 50.0181 109.691 49.9957C109.845 49.9732 110.003 50.0103 110.13 50.0994C110.258 50.1886 110.348 50.323 110.38 50.4755C110.518 51.0778 110.799 51.6378 111.2 52.108C111.601 52.5781 112.109 52.9446 112.682 53.1762H112.728C115.881 54.9638 116.441 53.5598 116.034 53.1762C115.781 52.946 116.694 53.0688 116.878 53.3526C116.923 53.4201 116.954 53.4956 116.969 53.575C116.984 53.6543 116.983 53.736 116.967 53.8151C116.951 53.8942 116.919 53.9693 116.873 54.0361C116.828 54.1029 116.77 54.1601 116.702 54.2043C116.026 54.5616 115.276 54.7566 114.512 54.7739C113.747 54.7912 112.989 54.6303 112.298 54.304Z" fill="#C84D48"/>
<path d="M111.216 39.297C110.917 40.4094 110.204 41.192 109.62 41.0386C109.037 40.8851 108.815 39.8494 109.114 38.7369C109.413 37.6244 110.127 36.8418 110.702 36.9953C111.278 37.1487 111.516 38.1768 111.216 39.297Z" fill="#272737"/>
<path d="M106.651 37.686C106.594 37.6561 106.545 37.6141 106.506 37.5631C106.485 37.5284 106.471 37.49 106.465 37.45C106.459 37.4099 106.461 37.3691 106.471 37.3299C106.481 37.2907 106.499 37.2538 106.523 37.2215C106.548 37.1891 106.578 37.1619 106.613 37.1413C106.728 37.0646 109.597 35.3535 111.937 37.2025C111.995 37.2544 112.032 37.3263 112.039 37.4037C112.046 37.4812 112.023 37.5583 111.975 37.6197C111.927 37.6811 111.858 37.722 111.781 37.7343C111.705 37.7466 111.626 37.7294 111.561 37.686C109.544 36.0902 106.958 37.6476 106.958 37.686C106.911 37.7122 106.858 37.7259 106.805 37.7259C106.751 37.7259 106.698 37.7122 106.651 37.686Z" fill="#272737"/>
<path d="M193.527 184.817L109.772 203.001C109.536 203.053 109.386 203.285 109.437 203.521L111.647 213.696C111.698 213.932 111.931 214.082 112.167 214.03L195.921 195.845C196.157 195.794 196.307 195.561 196.256 195.325L194.047 185.151C193.996 184.915 193.763 184.765 193.527 184.817Z" fill="#272737"/>
<path d="M205.078 193.892C206.627 193.556 208.021 192.718 209.045 191.508C210.069 190.298 210.665 188.785 210.74 187.202L213.702 124.504C213.743 123.611 213.579 122.72 213.221 121.901C212.864 121.081 212.323 120.354 211.64 119.777C210.957 119.199 210.151 118.786 209.283 118.57C208.415 118.353 207.51 118.339 206.635 118.528L168.75 126.752C167.501 127.021 166.374 127.691 165.543 128.661C164.711 129.631 164.221 130.847 164.147 132.123L159.812 203.705L205.078 193.892Z" fill="#272737"/>
<path d="M194.882 158.968C194.69 163.08 191.705 167.162 188.207 168.09C184.708 169.019 182.069 166.441 182.238 162.329C182.407 158.216 185.414 154.134 188.913 153.206C192.411 152.278 195.104 154.863 194.882 158.968Z" fill="#FDC864"/>
<path d="M187.585 159.505C187.547 160.326 187.263 161.04 186.964 161.139C186.665 161.239 186.442 160.618 186.481 159.797C186.519 158.976 186.795 158.262 187.102 158.163C187.409 158.063 187.624 158.684 187.585 159.505Z" fill="#272737"/>
<path d="M190.884 158.63C190.846 159.451 190.562 160.165 190.263 160.265C189.964 160.364 189.741 159.743 189.78 158.922C189.818 158.101 190.102 157.387 190.401 157.288C190.7 157.188 190.923 157.802 190.884 158.63Z" fill="#272737"/>
<path d="M188.445 164.254C185.729 164.983 185.253 161.953 185.245 161.914C185.239 161.827 185.257 161.74 185.298 161.663C185.339 161.585 185.4 161.521 185.476 161.477C185.505 161.456 185.54 161.443 185.576 161.441C185.613 161.438 185.649 161.446 185.682 161.462C185.714 161.479 185.741 161.504 185.76 161.535C185.779 161.566 185.79 161.601 185.79 161.638C185.79 161.745 186.204 164.216 188.475 163.61C190.746 163.004 191.391 160.257 191.414 160.142C191.428 160.058 191.468 159.981 191.529 159.922C191.589 159.862 191.667 159.824 191.751 159.812C191.897 159.812 191.982 159.958 191.943 160.134C191.936 160.173 191.161 163.533 188.445 164.254Z" fill="#272737"/>
<path d="M164.124 132.108L159.85 203.114L155.523 204.058L159.797 133.044C159.872 131.769 160.363 130.553 161.194 129.583C162.025 128.613 163.151 127.943 164.4 127.673L168.727 126.737C167.478 127.005 166.351 127.676 165.52 128.646C164.688 129.616 164.198 130.832 164.124 132.108Z" fill="#272737"/>
<path d="M160.265 198.672C160.405 198.646 160.533 198.574 160.628 198.467C160.723 198.36 160.778 198.224 160.786 198.081L164.753 132.146C164.758 132.063 164.747 131.981 164.72 131.902C164.693 131.824 164.651 131.752 164.596 131.69C164.541 131.628 164.474 131.578 164.4 131.541C164.326 131.505 164.245 131.484 164.162 131.479C163.995 131.469 163.831 131.525 163.706 131.636C163.581 131.747 163.505 131.903 163.495 132.069L159.528 198.004C159.518 198.172 159.574 198.337 159.684 198.464C159.795 198.59 159.951 198.668 160.119 198.679L160.265 198.672Z" fill="#5F5F77"/>
</g>
<defs>
<clipPath id="clip0_48:160">
<rect width="578.43" height="364" fill="white"/>
</clipPath>
</defs>
</svg>
