<svg width="82" height="81" viewBox="0 0 82 81" fill="none" xmlns="http://www.w3.org/2000/svg">
<g clip-path="url(#clip0_155:1400)">
<path d="M43.9129 81.0027H1.63351C1.39119 81.0022 1.15202 80.9484 0.932949 80.8451C0.71388 80.7419 0.520345 80.5916 0.366172 80.4052C0.211999 80.2188 0.100926 80.0008 0.0409582 79.7667C-0.0190097 79.5326 -0.0263959 79.2882 0.0192415 79.0509L8.21433 36.6758C5.12139 33.7697 2.97502 30.0044 2.05337 25.8677C1.13172 21.7311 1.4773 17.4138 3.04523 13.4753C4.61315 9.53672 7.33111 6.1584 10.8471 3.77811C14.3632 1.39782 18.5152 0.125244 22.765 0.125244C27.0149 0.125244 31.1667 1.39782 34.6828 3.77811C38.1988 6.1584 40.9169 9.53672 42.4848 13.4753C44.0527 17.4138 44.3983 21.7311 43.4767 25.8677C42.555 30.0044 40.4086 33.7697 37.3157 36.6758L45.5135 79.0509C45.5592 79.2884 45.5517 79.5331 45.4916 79.7674C45.4315 80.0017 45.3202 80.2199 45.1657 80.4063C45.0113 80.5928 44.8173 80.7429 44.5979 80.846C44.3785 80.9491 44.1389 81.0026 43.8964 81.0027H43.9129ZM3.63774 77.7178H41.9198L33.9224 36.3829C33.8684 36.0985 33.8907 35.8049 33.9872 35.5318C34.0836 35.2588 34.2507 35.016 34.4715 34.8281C37.2469 32.4488 39.2253 29.2794 40.1407 25.7459C41.0562 22.2124 40.8648 18.4842 39.5923 15.0623C38.3199 11.6405 36.0273 8.68903 33.0228 6.60474C30.0183 4.52046 26.4458 3.40319 22.7857 3.40319C19.1255 3.40319 15.5529 4.52046 12.5484 6.60474C9.54389 8.68903 7.25133 11.6405 5.97885 15.0623C4.70638 18.4842 4.51499 22.2124 5.43044 25.7459C6.34589 29.2794 8.32429 32.4488 11.0997 34.8281C11.3205 35.016 11.4876 35.2588 11.584 35.5318C11.6805 35.8049 11.7028 36.0985 11.6488 36.3829L3.63774 77.7178Z" fill="#021B1E"/>
<path d="M66.1509 80.373C63.0161 80.373 59.9518 79.4461 57.3454 77.7095C54.7389 75.9729 52.7074 73.5047 51.5079 70.6169C50.3084 67.7291 49.9948 64.5515 50.6065 61.4859C51.2183 58.4203 52.7281 55.6045 54.9449 53.3945C57.1617 51.1845 59.986 49.6796 63.0606 49.0702C66.1353 48.4607 69.3222 48.7741 72.2182 49.9706C75.1142 51.1671 77.5893 53.193 79.3305 55.7922C81.0717 58.3914 82.0007 61.447 82.0002 64.5727C81.9958 68.7623 80.3246 72.7791 77.3531 75.7413C74.3817 78.7036 70.3528 80.3694 66.1509 80.373ZM66.1509 52.0518C63.6673 52.0518 61.2395 52.7861 59.1744 54.1619C57.1093 55.5377 55.4997 57.4933 54.5493 59.7812C53.5989 62.0691 53.3503 64.5866 53.8348 67.0154C54.3193 69.4442 55.5153 71.6752 57.2715 73.4263C59.0277 75.1774 61.2652 76.3699 63.7011 76.853C66.137 77.3361 68.6619 77.0882 70.9565 76.1405C73.2511 75.1929 75.2124 73.588 76.5922 71.529C77.9721 69.4699 78.7085 67.0491 78.7085 64.5727C78.7056 61.2526 77.3817 58.0692 75.0274 55.7213C72.6731 53.3734 69.4808 52.0527 66.1509 52.049V52.0518Z" fill="#021B1E"/>
<path d="M66.1506 74.2577C64.2289 74.2577 62.3504 73.6896 60.7526 72.6251C59.1548 71.5606 57.9096 70.0475 57.1742 68.2773C56.4388 66.5071 56.2464 64.5593 56.6212 62.68C56.9961 60.8008 57.9215 59.0747 59.2803 57.7198C60.6391 56.365 62.3703 55.4423 64.255 55.0685C66.1398 54.6947 68.0934 54.8865 69.8688 55.6198C71.6442 56.353 73.1615 57.5947 74.2292 59.1878C75.2968 60.781 75.8666 62.654 75.8666 64.57C75.863 67.1382 74.8382 69.6002 73.0169 71.4162C71.1956 73.2322 68.7263 74.2541 66.1506 74.2577ZM66.1506 58.1645C64.88 58.1645 63.638 58.5402 62.5815 59.244C61.5251 59.9479 60.7016 60.9482 60.2154 62.1187C59.7291 63.2892 59.6019 64.5771 59.8498 65.8197C60.0977 67.0622 60.7096 68.2036 61.608 69.0994C62.5065 69.9953 63.6511 70.6053 64.8973 70.8525C66.1435 71.0996 67.4352 70.9727 68.6091 70.4879C69.783 70.0031 70.7863 69.1821 71.4922 68.1287C72.1981 67.0753 72.5749 65.8369 72.5749 64.57C72.5735 62.8716 71.8961 61.2431 70.6916 60.0422C69.4872 58.8412 67.8539 58.1659 66.1506 58.1645Z" fill="#021B1E"/>
<path d="M65.0334 16.9117H55.2898C54.8529 16.9117 54.4341 16.7386 54.1252 16.4306C53.8163 16.1226 53.6426 15.7048 53.6426 15.2692V8.74328C53.6426 8.30767 53.8163 7.8899 54.1252 7.58188C54.4341 7.27386 54.8529 7.10083 55.2898 7.10083H65.0334C65.4702 7.10083 65.8892 7.27386 66.1981 7.58188C66.5071 7.8899 66.6806 8.30767 66.6806 8.74328C66.6806 9.17888 66.5071 9.59665 66.1981 9.90467C65.8892 10.2127 65.4702 10.3857 65.0334 10.3857H56.9371V13.6268H65.0334C65.4702 13.6268 65.8892 13.7998 66.1981 14.1078C66.5071 14.4158 66.6806 14.8336 66.6806 15.2692C66.6806 15.7048 66.5071 16.1226 66.1981 16.4306C65.8892 16.7386 65.4702 16.9117 65.0334 16.9117Z" fill="#021B1E"/>
<path d="M65.0334 30.2293H55.2898C54.8529 30.2293 54.4341 30.0562 54.1252 29.7482C53.8163 29.4402 53.6426 29.0224 53.6426 28.5868V22.0663C53.6426 21.6307 53.8163 21.2129 54.1252 20.9049C54.4341 20.5969 54.8529 20.4238 55.2898 20.4238H65.0334C65.4702 20.4238 65.8892 20.5969 66.1981 20.9049C66.5071 21.2129 66.6806 21.6307 66.6806 22.0663C66.6806 22.5019 66.5071 22.9197 66.1981 23.2277C65.8892 23.5357 65.4702 23.7087 65.0334 23.7087H56.9371V26.9526H65.0334C65.4702 26.9526 65.8892 27.1256 66.1981 27.4336C66.5071 27.7417 66.6806 28.1594 66.6806 28.595C66.6806 29.0306 66.5071 29.4483 66.1981 29.7564C65.8892 30.0644 65.4702 30.2375 65.0334 30.2375V30.2293Z" fill="#021B1E"/>
<path d="M69.9753 52.5719C69.5384 52.5719 69.1194 52.3989 68.8105 52.0909C68.5015 51.7829 68.328 51.3651 68.328 50.9295V5.46113C68.3606 5.15571 68.3285 4.84685 68.2336 4.55463C68.1387 4.26242 67.9831 3.99336 67.7772 3.76496C67.5712 3.53655 67.3194 3.35393 67.038 3.2289C66.7566 3.10387 66.4521 3.03923 66.144 3.03923C65.836 3.03923 65.5314 3.10387 65.25 3.2289C64.9686 3.35393 64.7168 3.53655 64.5108 3.76496C64.3049 3.99336 64.1494 4.26242 64.0545 4.55463C63.9596 4.84685 63.9274 5.15571 63.96 5.46113V8.74603C63.96 9.18163 63.7865 9.59934 63.4776 9.90736C63.1686 10.2154 62.7496 10.3885 62.3128 10.3885C61.8759 10.3885 61.4569 10.2154 61.148 9.90736C60.8391 9.59934 60.6655 9.18163 60.6655 8.74603V5.46113C60.6655 4.01348 61.2423 2.62507 62.2689 1.60142C63.2956 0.577776 64.688 0.00268555 66.1399 0.00268555C67.5917 0.00268555 68.9843 0.577776 70.0109 1.60142C71.0376 2.62507 71.6143 4.01348 71.6143 5.46113V50.9322C71.6136 51.366 71.4408 51.7818 71.1337 52.089C70.8267 52.3961 70.4102 52.5698 69.9753 52.5719Z" fill="#021B1E"/>
<path d="M62.3211 52.5747C61.8842 52.5747 61.4652 52.4017 61.1563 52.0936C60.8474 51.7856 60.6738 51.3678 60.6738 50.9322V28.5868C60.6738 28.1512 60.8474 27.7334 61.1563 27.4254C61.4652 27.1174 61.8842 26.9443 62.3211 26.9443C62.758 26.9443 63.177 27.1174 63.4859 27.4254C63.7948 27.7334 63.9683 28.1512 63.9683 28.5868V50.9322C63.9683 51.3678 63.7948 51.7856 63.4859 52.0936C63.177 52.4017 62.758 52.5747 62.3211 52.5747Z" fill="#021B1E"/>
<path d="M62.3211 23.7087C61.8842 23.7087 61.4652 23.5357 61.1563 23.2276C60.8474 22.9196 60.6738 22.5019 60.6738 22.0663V15.2775C60.6738 14.8419 60.8474 14.4241 61.1563 14.1161C61.4652 13.808 61.8842 13.635 62.3211 13.635C62.758 13.635 63.177 13.808 63.4859 14.1161C63.7948 14.4241 63.9683 14.8419 63.9683 15.2775V22.0663C63.9683 22.5019 63.7948 22.9196 63.4859 23.2276C63.177 23.5357 62.758 23.7087 62.3211 23.7087Z" fill="#021B1E"/>
<path d="M30.5839 40.6203C30.2026 40.618 29.8339 40.484 29.5406 40.2409C29.2474 39.9979 29.0477 39.661 28.9758 39.2876C28.9039 38.9142 28.9642 38.5275 29.1464 38.1935C29.3285 37.8594 29.621 37.5987 29.9744 37.4558C31.6065 36.845 33.1226 35.9619 34.4577 34.8443C34.6163 34.6819 34.8069 34.5541 35.0175 34.4688C35.2281 34.3834 35.4542 34.3425 35.6815 34.3485C35.9087 34.3545 36.1323 34.4074 36.338 34.5037C36.5438 34.6001 36.7273 34.7379 36.8771 34.9084C37.0268 35.0789 37.1394 35.2785 37.2081 35.4946C37.2767 35.7107 37.2998 35.9386 37.2758 36.164C37.2517 36.3894 37.181 36.6075 37.0684 36.8043C36.9557 37.0012 36.8034 37.1727 36.621 37.308C35.0076 38.6742 33.1708 39.7539 31.1907 40.4998C30.9977 40.5772 30.7919 40.618 30.5839 40.6203Z" fill="#021B1E"/>
<path d="M22.7786 42.2163C17.48 42.2163 12.5657 40.4752 8.93629 37.3162C8.64383 37.0208 8.47445 36.6259 8.46215 36.211C8.44984 35.7961 8.59549 35.3919 8.86994 35.0797C9.14439 34.7676 9.52725 34.5707 9.94143 34.5285C10.3556 34.4864 10.7704 34.6021 11.1025 34.8526C14.1224 37.4914 18.2762 38.9423 22.7786 38.9423C23.1026 38.9423 23.4238 38.9423 23.745 38.9177C23.9614 38.906 24.1779 38.9369 24.3822 39.0086C24.5865 39.0804 24.7747 39.1916 24.936 39.3358C25.0972 39.4801 25.2284 39.6546 25.322 39.8494C25.4156 40.0442 25.4698 40.2555 25.4816 40.4712C25.4933 40.6869 25.4622 40.9027 25.3903 41.1065C25.3183 41.3102 25.2068 41.4978 25.0621 41.6586C24.9174 41.8193 24.7424 41.9502 24.5471 42.0435C24.3517 42.1368 24.1398 42.1909 23.9235 42.2026C23.5446 42.2053 23.163 42.2163 22.7786 42.2163Z" fill="#021B1E"/>
<path d="M34.5211 73.0258H11.0368C10.7988 73.0252 10.5637 72.9733 10.3478 72.8734C10.1318 72.7736 9.94016 72.6282 9.78595 72.4474C9.63174 72.2666 9.51859 72.0546 9.45444 71.826C9.39029 71.5974 9.37667 71.3577 9.41436 71.1233L12.8488 49.8591C12.9311 49.4412 13.1731 49.0715 13.5236 48.828C13.8741 48.5845 14.3058 48.4863 14.7276 48.5542C15.1493 48.622 15.5281 48.8505 15.784 49.1915C16.04 49.5326 16.153 49.9594 16.0993 50.3819L12.9696 69.7436H32.5883L29.4586 50.3819C29.4049 49.9594 29.518 49.5326 29.774 49.1915C30.0299 48.8505 30.4087 48.622 30.8305 48.5542C31.2522 48.4863 31.6839 48.5845 32.0344 48.828C32.3849 49.0715 32.6268 49.4412 32.7091 49.8591L36.1437 71.1233C36.1814 71.3577 36.1676 71.5974 36.1034 71.826C36.0393 72.0546 35.9263 72.2666 35.7721 72.4474C35.6179 72.6282 35.4262 72.7736 35.2102 72.8734C34.9943 72.9733 34.7591 73.0252 34.5211 73.0258Z" fill="#021B1E"/>
<path d="M22.7788 34.7678C20.1305 34.7684 17.5416 33.9858 15.3393 32.5192C13.1371 31.0526 11.4205 28.9677 10.4067 26.5283C9.39287 24.0889 9.12735 21.4045 9.64367 18.8146C10.16 16.2247 11.4349 13.8457 13.3073 11.9783C15.1798 10.111 17.5655 8.83921 20.1628 8.32386C22.7602 7.80851 25.4526 8.07276 27.8993 9.08313C30.3461 10.0935 32.4373 11.8046 33.9087 14.0001C35.38 16.1956 36.1655 18.7769 36.1655 21.4175C36.1618 24.9566 34.7504 28.3498 32.2408 30.8526C29.7312 33.3555 26.3283 34.7635 22.7788 34.7678ZM22.7788 11.3521C20.7814 11.3515 18.8288 11.9416 17.1678 13.0477C15.5069 14.1538 14.2122 15.7262 13.4476 17.566C12.683 19.4059 12.4828 21.4305 12.8723 23.3838C13.2619 25.3371 14.2236 27.1313 15.636 28.5395C17.0483 29.9478 18.8478 30.9067 20.8068 31.2951C22.7658 31.6835 24.7963 31.4839 26.6415 30.7215C28.4867 29.9591 30.0637 28.6682 31.173 27.0121C32.2824 25.356 32.8742 23.409 32.8736 21.4175C32.87 18.749 31.8053 16.191 29.9129 14.3041C28.0206 12.4173 25.455 11.3557 22.7788 11.3521Z" fill="#021B1E"/>
</g>
<defs>
<clipPath id="clip0_155:1400">
<rect width="82" height="81" fill="white"/>
</clipPath>
</defs>
</svg>
