<svg width="94" height="96" viewBox="0 0 94 96" fill="none" xmlns="http://www.w3.org/2000/svg">
<g clip-path="url(#clip0_155:1423)">
<path d="M35.521 25.4036C35.1434 25.4026 34.7752 25.2874 34.4653 25.0733C34.1553 24.8591 33.9185 24.5563 33.7864 24.2051C33.6542 23.8539 33.6331 23.4711 33.7257 23.1077C33.8183 22.7443 34.0203 22.4174 34.3047 22.1709C39.0356 18.1076 44.7479 15.3335 50.8827 14.12C57.0174 12.9064 63.3644 13.295 69.3025 15.2478C69.7522 15.4151 70.1192 15.749 70.3262 16.1793C70.5333 16.6096 70.5644 17.1028 70.413 17.5553C70.2616 18.0079 69.9394 18.3846 69.5142 18.6064C69.089 18.8282 68.5938 18.8777 68.1326 18.7447C62.8044 16.9951 57.11 16.6491 51.6068 17.7404C46.1035 18.8317 40.9799 21.3229 36.7374 24.9703C36.3972 25.2547 35.9656 25.4084 35.521 25.4036Z" fill="#021B1E"/>
<path d="M57.9158 85.0698C51.989 85.0655 46.1544 83.6127 40.927 80.8396C35.6996 78.0664 31.2402 74.0582 27.9423 69.1688C24.6444 64.2794 22.6095 58.6592 22.0172 52.8041C21.4249 46.9491 22.2933 41.0393 24.546 35.5964C24.7432 35.1586 25.1043 34.8144 25.5529 34.6367C26.0015 34.459 26.5021 34.4617 26.9487 34.6444C27.3952 34.8271 27.7525 35.1754 27.9447 35.6153C28.1369 36.0551 28.149 36.552 27.9783 37.0006C25.7487 42.3788 25.0307 48.2569 25.9009 54.0084C26.7712 59.7598 29.197 65.169 32.9198 69.6594C36.6426 74.1497 41.5229 77.553 47.0404 79.5063C52.5579 81.4596 58.5058 81.8898 64.2502 80.751C69.9946 79.6122 75.32 76.947 79.6589 73.0397C83.9979 69.1324 87.1875 64.1293 88.8881 58.5638C90.5886 52.9983 90.7362 47.0789 89.315 41.4367C87.8939 35.7945 84.9574 30.6408 80.8185 26.5252C80.4905 26.1757 80.3119 25.7134 80.3204 25.2357C80.3289 24.7581 80.5238 24.3024 80.864 23.9646C81.2042 23.6267 81.6633 23.4333 82.1444 23.4248C82.6254 23.4164 83.091 23.5937 83.443 23.9194C88.4889 28.929 91.9253 35.3117 93.3175 42.2604C94.7097 49.2092 93.9952 56.4118 91.2644 62.9573C88.5336 69.5029 83.9092 75.0974 77.9759 79.0334C72.0426 82.9694 65.0671 85.0701 57.9313 85.0698H57.9158Z" fill="#021B1E"/>
<path d="M42.1313 32.8861C41.7533 32.8852 41.3846 32.7698 41.0744 32.5552C40.7642 32.3407 40.5274 32.0373 40.3955 31.6856C40.2636 31.3339 40.243 30.9505 40.3364 30.5868C40.4298 30.2231 40.6327 29.8964 40.9181 29.6503C44.3187 26.7451 48.4162 24.7595 52.8152 23.8854C57.2141 23.0112 61.7658 23.278 66.0306 24.66C66.2733 24.7258 66.5 24.84 66.6969 24.9955C66.8939 25.1511 67.0569 25.3447 67.1761 25.5647C67.2954 25.7846 67.3684 26.0264 67.3906 26.2753C67.4129 26.5241 67.384 26.7748 67.3057 27.0123C67.2274 27.2497 67.1013 27.4688 66.9351 27.6564C66.7689 27.844 66.566 27.9961 66.3388 28.1034C66.1116 28.2107 65.8647 28.2711 65.6133 28.2808C65.3619 28.2905 65.1111 28.2494 64.8761 28.16C61.2187 26.9765 57.3158 26.7487 53.5439 27.4985C49.772 28.2482 46.2581 29.9503 43.3414 32.4405C43.0047 32.7279 42.5754 32.886 42.1313 32.8861Z" fill="#021B1E"/>
<path d="M57.9157 75.1197C53.9883 75.1183 50.1119 74.236 46.5761 72.5387C43.0403 70.8413 39.9365 68.3728 37.4963 65.3174C35.0561 62.262 33.3426 58.6987 32.4839 54.8937C31.6252 51.0886 31.6433 47.1401 32.5371 43.343C32.5811 43.0965 32.6752 42.8614 32.8138 42.6521C32.9523 42.4428 33.1324 42.2637 33.3429 42.1258C33.5535 41.9879 33.7901 41.894 34.0384 41.8499C34.2867 41.8058 34.5414 41.8124 34.787 41.8692C35.0327 41.9261 35.2641 42.032 35.4672 42.1806C35.6702 42.3292 35.8407 42.5172 35.9681 42.7333C36.0955 42.9495 36.1773 43.1891 36.2084 43.4376C36.2395 43.6862 36.2192 43.9384 36.1489 44.1789C35.4309 47.2243 35.3697 50.386 35.9691 53.4566C36.5685 56.5271 37.815 59.4371 39.6268 61.9957C41.4387 64.5543 43.7749 66.7036 46.4823 68.3027C49.1896 69.9017 52.207 70.9144 55.3362 71.2741C58.4655 71.6339 61.636 71.3326 64.6398 70.3901C67.6435 69.4477 70.4127 67.8853 72.7654 65.8055C75.1182 63.7257 77.0015 61.1754 78.2917 58.3221C79.582 55.4688 80.25 52.3768 80.252 49.2491C80.2748 44.2234 78.5595 39.3421 75.3929 35.4211C75.1086 35.0371 74.9851 34.5586 75.0484 34.0861C75.1116 33.6136 75.3568 33.1838 75.7323 32.8868C76.1079 32.5899 76.5847 32.4489 77.0626 32.4934C77.5406 32.538 77.9827 32.7646 78.296 33.1257C81.985 37.6934 83.9851 43.3789 83.9628 49.2337C83.9587 56.0936 81.214 62.6718 76.3308 67.5248C71.4476 72.3777 64.8249 75.1091 57.9157 75.1197Z" fill="#021B1E"/>
<path d="M57.9161 61.341C54.898 61.3429 51.9867 60.2321 49.7466 58.224C47.5065 56.2158 46.0973 53.4534 45.792 50.4722C45.4867 47.491 46.3072 44.5034 48.0944 42.0888C49.8816 39.6741 52.5082 38.0043 55.4649 37.4031C55.9395 37.324 56.4264 37.4309 56.8232 37.7013C57.22 37.9716 57.4955 38.3844 57.5918 38.8525C57.6881 39.3206 57.5976 39.8075 57.3394 40.2107C57.0812 40.6139 56.6755 40.9018 56.2077 41.0138C54.5437 41.3564 53.0222 42.1887 51.8415 43.4023C50.6608 44.6159 49.8756 46.1545 49.5884 47.8176C49.3011 49.4806 49.5251 51.191 50.2311 52.7258C50.9371 54.2606 52.0923 55.5487 53.5463 56.4223C55.0003 57.2958 56.6855 57.7142 58.3825 57.623C60.0794 57.5318 61.7094 56.9351 63.0599 55.9108C64.4104 54.8866 65.4188 53.4822 65.9537 51.8807C66.4887 50.2791 66.5254 48.5547 66.059 46.9322C65.9807 46.6963 65.9511 46.4471 65.9722 46.1996C65.9933 45.9521 66.0646 45.7113 66.1817 45.4918C66.2989 45.2723 66.4594 45.0787 66.6539 44.9223C66.8483 44.766 67.0725 44.6503 67.313 44.5821C67.5536 44.514 67.8056 44.4948 68.0538 44.5257C68.3021 44.5566 68.5415 44.637 68.7576 44.7621C68.9738 44.8872 69.1622 45.0543 69.3117 45.2535C69.4612 45.4527 69.5686 45.6798 69.6275 45.9212C70.1445 47.7211 70.2339 49.6157 69.8887 51.4557C69.5435 53.2958 68.7731 55.0313 67.638 56.5258C66.503 58.0202 65.0343 59.2329 63.3473 60.0684C61.6604 60.9039 59.8013 61.3395 57.9161 61.341Z" fill="#021B1E"/>
<path d="M79.1502 18.8429C78.7237 18.8417 78.3104 18.6947 77.9801 18.4266C77.6498 18.1586 77.4226 17.7858 77.3366 17.3709C76.8947 15.2679 76.8773 13.0987 77.2853 10.9889C77.6933 8.87904 78.5186 6.87047 79.7135 5.0794L82.5299 0.832656C82.7165 0.556809 82.9736 0.33518 83.2749 0.190471C83.5762 0.0457613 83.9109 -0.0168054 84.2445 0.00914352C84.5794 0.0376748 84.9003 0.155953 85.1728 0.351317C85.4453 0.546681 85.6593 0.811762 85.792 1.11841C86.2333 2.18121 86.9851 3.08848 87.9504 3.72324C88.9157 4.358 90.0504 4.6912 91.2082 4.67991C91.5449 4.68042 91.8755 4.76901 92.1667 4.93679C92.458 5.10456 92.6995 5.34563 92.867 5.63561C93.029 5.92929 93.1074 6.26117 93.0938 6.59574C93.0802 6.93031 92.975 7.25491 92.7897 7.53464L89.9702 11.7845C88.7847 13.5818 87.2518 15.1279 85.4604 16.3332C83.6691 17.5384 81.6548 18.3789 79.534 18.806C79.4078 18.8322 79.2791 18.8446 79.1502 18.8429ZM84.0526 5.23305L82.8146 7.10139C81.3257 9.3297 80.5907 11.971 80.7162 14.6422C83.2379 13.7039 85.3923 11.9912 86.8659 9.75325L88.1039 7.88491C86.5427 7.36877 85.1456 6.45428 84.0526 5.23305Z" fill="#021B1E"/>
<path d="M42.6143 42.541C42.2125 42.541 41.8215 42.4117 41.5001 42.1723L15.6696 22.8715C15.3044 22.5685 15.0703 22.1378 15.0157 21.6685C14.9611 21.1991 15.09 20.7268 15.376 20.3491C15.6619 19.9713 16.0829 19.717 16.5522 19.6386C17.0215 19.5602 17.5033 19.6637 17.898 19.9277L43.7315 39.2285C44.041 39.4616 44.2691 39.7852 44.3836 40.1537C44.4982 40.5222 44.4934 40.9171 44.37 41.2828C44.2467 41.6485 44.011 41.9666 43.696 42.1923C43.3811 42.4181 43.0027 42.54 42.6143 42.541Z" fill="#021B1E"/>
<path d="M14.7039 23.3877C11.1411 23.3882 7.67562 22.2337 4.83414 20.0997L0.739524 17.0268C0.472083 16.8263 0.264231 16.5578 0.138063 16.2496C0.0118947 15.9414 -0.0278549 15.605 0.0229089 15.2761C0.0736727 14.9472 0.213053 14.6381 0.426402 14.3815C0.63975 14.125 0.919112 13.9305 1.23475 13.8187C2.33462 13.4554 3.29777 12.7696 3.99724 11.8519C4.6967 10.9341 5.09962 9.82748 5.15293 8.67781C5.16882 8.34326 5.27617 8.01932 5.46349 7.74079C5.6508 7.46225 5.91101 7.23967 6.21614 7.09688C6.52128 6.95408 6.85981 6.8965 7.19541 6.93033C7.53101 6.96416 7.85102 7.08809 8.12102 7.28886L12.2125 10.3464C13.9461 11.6341 15.4052 13.2504 16.5054 15.1018C17.6057 16.9532 18.3251 19.0029 18.6222 21.1322C18.6902 21.6158 18.5621 22.1065 18.2662 22.4965C17.9703 22.8865 17.5307 23.144 17.0437 23.2126C16.2689 23.3257 15.487 23.3843 14.7039 23.3877ZM5.26129 15.81L7.0625 17.1559C9.21054 18.7684 11.8196 19.6605 14.5121 19.7034C13.7241 17.1464 12.1373 14.9047 9.98109 13.3025L8.18291 11.9596C7.56687 13.4758 6.55914 14.8038 5.26129 15.81Z" fill="#021B1E"/>
<path d="M57.6465 51.2556C57.284 51.2553 56.9297 51.1484 56.6283 50.9483C56.2171 50.6793 55.9303 50.2592 55.8311 49.7803C55.7318 49.3015 55.8282 48.8031 56.099 48.3947L77.6028 15.982C77.7288 15.7633 77.8986 15.5726 78.1017 15.4216C78.3048 15.2706 78.5368 15.1625 78.7836 15.1041C79.0304 15.0456 79.2867 15.038 79.5366 15.0816C79.7864 15.1253 80.0246 15.2193 80.2365 15.3579C80.4483 15.4965 80.6293 15.6768 80.7683 15.8876C80.9072 16.0983 81.0013 16.3351 81.0445 16.5833C81.0877 16.8316 81.0792 17.086 81.0196 17.3308C80.96 17.5757 80.8505 17.8058 80.6978 18.007L59.194 50.4229C59.0255 50.6779 58.796 50.8875 58.5259 51.0328C58.2559 51.1781 57.9537 51.2547 57.6465 51.2556Z" fill="#021B1E"/>
<path d="M32.0237 96C30.9364 95.998 29.8722 95.6873 28.9569 95.1045C28.0416 94.5217 27.3132 93.691 26.8578 92.7107C26.4023 91.7303 26.2387 90.6411 26.3863 89.5715C26.5339 88.5018 26.9865 87.4964 27.6908 86.6738L36.9168 75.9187C37.0696 75.7193 37.2617 75.5528 37.4814 75.4295C37.7011 75.3062 37.9438 75.2287 38.1947 75.2017C38.4456 75.1746 38.6993 75.1987 38.9405 75.2723C39.1818 75.3459 39.4054 75.4675 39.5977 75.6298C39.79 75.792 39.947 75.9915 40.059 76.2161C40.171 76.4406 40.2358 76.6854 40.2493 76.9356C40.2629 77.1858 40.2249 77.4361 40.1378 77.6712C40.0507 77.9064 39.9162 78.1215 39.7425 78.3033L30.5165 89.0584C30.2702 89.3461 30.112 89.6977 30.0605 90.0718C30.009 90.4459 30.0664 90.8268 30.2259 91.1695C30.3853 91.5123 30.6402 91.8026 30.9604 92.0062C31.2806 92.2099 31.6528 92.3182 32.033 92.3187C32.3105 92.3182 32.5848 92.2603 32.8384 92.1487C33.0921 92.0371 33.3195 91.8741 33.5062 91.6704L44.4036 79.7783C44.7399 79.4375 45.1962 79.2394 45.6766 79.2258C46.157 79.2121 46.624 79.3839 46.9795 79.705C47.335 80.0261 47.5512 80.4716 47.5828 80.9477C47.6143 81.4238 47.4588 81.8935 47.1488 82.2581L36.2514 94.1501C35.7151 94.7334 35.062 95.1992 34.3341 95.5178C33.6061 95.8363 32.8193 96.0005 32.0237 96Z" fill="#021B1E"/>
<path d="M83.8238 96C83.0302 96.0006 82.2452 95.837 81.5189 95.5195C80.7926 95.2021 80.1409 94.7378 79.6054 94.1563L68.7081 82.2643C68.3981 81.8997 68.2425 81.43 68.274 80.9539C68.3056 80.4777 68.5218 80.0323 68.8773 79.7112C69.2328 79.3901 69.6998 79.2183 70.1802 79.232C70.6606 79.2456 71.1169 79.4436 71.4532 79.7844L82.3506 91.6765C82.537 91.8806 82.7644 92.0437 83.0181 92.1554C83.2719 92.2671 83.5462 92.3248 83.8238 92.3249C84.204 92.3252 84.5764 92.2174 84.8968 92.0141C85.2172 91.8109 85.4723 91.5208 85.6319 91.1781C85.7914 90.8354 85.8488 90.4545 85.7971 90.0805C85.7454 89.7065 85.5869 89.355 85.3403 89.0677L76.1143 78.3126C75.9406 78.1308 75.8061 77.9157 75.7189 77.6805C75.6318 77.4454 75.5938 77.1951 75.6074 76.9449C75.621 76.6947 75.6858 76.4498 75.7978 76.2253C75.9099 76.0008 76.0668 75.8013 76.2591 75.639C76.4514 75.4768 76.675 75.3552 76.9162 75.2816C77.1574 75.2079 77.4112 75.1839 77.6621 75.211C77.913 75.238 78.1557 75.3155 78.3754 75.4388C78.5951 75.5621 78.7872 75.7286 78.9399 75.928L88.166 86.6831C88.8703 87.5057 89.3229 88.5111 89.4705 89.5807C89.6181 90.6504 89.4545 91.7396 88.9991 92.7199C88.5436 93.7003 87.8152 94.5308 86.8999 95.1136C85.9846 95.6965 84.9204 96.0072 83.8331 96.0093L83.8238 96Z" fill="#021B1E"/>
<path d="M92.1462 96H23.7012C23.2087 96 22.7364 95.8057 22.3881 95.46C22.0399 95.1142 21.8442 94.6452 21.8442 94.1562C21.8442 93.6672 22.0399 93.1983 22.3881 92.8526C22.7364 92.5068 23.2087 92.3125 23.7012 92.3125H92.1462C92.6387 92.3125 93.111 92.5068 93.4592 92.8526C93.8075 93.1983 94.0032 93.6672 94.0032 94.1562C94.0032 94.6452 93.8075 95.1142 93.4592 95.46C93.111 95.8057 92.6387 96 92.1462 96Z" fill="#021B1E"/>
</g>
<defs>
<clipPath id="clip0_155:1423">
<rect width="94" height="96" fill="white"/>
</clipPath>
</defs>
</svg>
