<svg width="107" height="81" viewBox="0 0 107 81" fill="none" xmlns="http://www.w3.org/2000/svg">
<g clip-path="url(#clip0_155:1413)">
<path d="M17.5181 80.9999H1.978C1.63125 80.999 1.29091 80.9069 0.990962 80.733C0.691017 80.5591 0.442003 80.3094 0.269033 80.009C0.0960619 79.7086 0.00513727 79.368 0.00537155 79.0214C0.00560582 78.6748 0.0971047 78.3342 0.270481 78.0341L25.1496 35.402C25.5462 34.7216 26.1273 34.1672 26.8257 33.8028C27.5241 33.4383 28.3113 33.2788 29.0965 33.3426C29.8817 33.4063 30.6328 33.6907 31.2632 34.163C31.8936 34.6353 32.3777 35.2761 32.6593 36.0116L36.1601 45.1398C36.2689 45.385 36.3267 45.6497 36.3299 45.9179C36.3331 46.1861 36.2817 46.4521 36.1788 46.6998C36.0759 46.9475 35.9236 47.1716 35.7313 47.3586C35.539 47.5457 35.3106 47.6917 35.0601 47.7877C34.8095 47.8837 34.5422 47.9277 34.2741 47.9171C34.006 47.9066 33.7428 47.8416 33.5006 47.7261C33.2585 47.6107 33.0424 47.4472 32.8655 47.2456C32.6885 47.044 32.5543 46.8086 32.4713 46.5535L28.9703 37.4253C28.9576 37.3836 28.9319 37.347 28.8969 37.3209C28.8619 37.2948 28.8195 37.2806 28.7758 37.2803C28.7327 37.2727 28.6884 37.2795 28.6496 37.2998C28.6108 37.3201 28.5799 37.3527 28.5616 37.3924L5.41638 77.0553H17.5181C18.0427 77.0553 18.5458 77.2636 18.9167 77.6344C19.2876 78.0052 19.496 78.5082 19.496 79.0326C19.496 79.5569 19.2876 80.0599 18.9167 80.4307C18.5458 80.8015 18.0427 81.0098 17.5181 81.0098V80.9999Z" fill="#021B1E"/>
<path d="M73.6521 80.9999H17.5182C17.1807 80.9994 16.8489 80.9127 16.5545 80.7479C16.26 80.5831 16.0127 80.3458 15.8359 80.0584C15.6592 79.7711 15.559 79.4433 15.5447 79.1063C15.5305 78.7692 15.6026 78.4342 15.7545 78.1329L41.9094 26.4715C42.2536 25.7926 42.7794 25.2222 43.4283 24.8238C44.0771 24.4253 44.8237 24.2144 45.5852 24.2144C46.3467 24.2144 47.0931 24.4253 47.742 24.8238C48.3908 25.2222 48.9166 25.7926 49.2608 26.4715L75.4158 78.1329C75.5676 78.4342 75.6399 78.7692 75.6257 79.1063C75.6114 79.4433 75.5111 79.7711 75.3343 80.0584C75.1576 80.3458 74.9102 80.5831 74.6158 80.7479C74.3213 80.9127 73.9895 80.9994 73.6521 80.9999ZM20.7323 77.0455H70.4379L45.7335 28.2511C45.6972 28.1819 45.4698 28.1819 45.4368 28.2511L20.7323 77.0455Z" fill="#021B1E"/>
<path d="M45.3544 28.1819C44.8298 28.1819 44.3267 27.9736 43.9558 27.6028C43.5848 27.232 43.3765 26.7291 43.3765 26.2047V1.97722C43.3765 1.45283 43.5848 0.949902 43.9558 0.579102C44.3267 0.208302 44.8298 0 45.3544 0C45.879 0 46.3821 0.208302 46.753 0.579102C47.124 0.949902 47.3323 1.45283 47.3323 1.97722V26.2047C47.3323 26.7291 47.124 27.232 46.753 27.6028C46.3821 27.9736 45.879 28.1819 45.3544 28.1819Z" fill="#021B1E"/>
<path d="M55.8276 15.6628H45.3544C44.8298 15.6628 44.3267 15.4545 43.9558 15.0837C43.5848 14.7129 43.3765 14.21 43.3765 13.6856V4.18181C43.3765 3.65742 43.5848 3.15449 43.9558 2.78369C44.3267 2.41289 44.8298 2.20459 45.3544 2.20459H55.8342C56.1698 2.20504 56.4998 2.29077 56.7931 2.45383C57.0863 2.61689 57.3333 2.85188 57.5107 3.13664C57.688 3.4214 57.79 3.74661 57.807 4.08164C57.824 4.41667 57.7554 4.75051 57.6077 5.05175L55.699 8.93039L57.6077 12.8123C57.7554 13.1136 57.824 13.4474 57.807 13.7824C57.79 14.1175 57.688 14.4427 57.5107 14.7274C57.3333 15.0122 57.0863 15.2472 56.7931 15.4103C56.4998 15.5733 56.1698 15.6591 55.8342 15.6596L55.8276 15.6628ZM47.3257 11.7084H52.6531L51.7167 9.80371C51.5834 9.53246 51.5142 9.23428 51.5142 8.93208C51.5142 8.62989 51.5834 8.3317 51.7167 8.06045L52.6531 6.15573H47.3323L47.3257 11.7084Z" fill="#021B1E"/>
<path d="M105.022 81.0001H73.6484C73.1238 81.0001 72.6207 80.7918 72.2497 80.421C71.8788 80.0502 71.6704 79.5473 71.6704 79.0229C71.6704 78.4985 71.8788 77.9957 72.2497 77.6249C72.6207 77.2541 73.1238 77.0457 73.6484 77.0457H101.903L79.4174 29.4211C79.3861 29.3461 79.3327 29.2824 79.2645 29.2383C79.1962 29.1941 79.1162 29.1717 79.0349 29.174C78.9552 29.1734 78.877 29.1947 78.8084 29.2354C78.7399 29.276 78.6838 29.3345 78.646 29.4047L71.4594 43.1035C71.3016 43.4027 71.0696 43.6564 70.7856 43.8404C70.5016 44.0244 70.1752 44.1324 69.8375 44.1543C69.4998 44.1761 69.1621 44.1109 68.8568 43.965C68.5514 43.8191 68.2887 43.5974 68.0936 43.321L61.9918 34.6179L56.6809 43.2221C56.5521 43.4576 56.3767 43.6645 56.1655 43.83C55.9542 43.9956 55.7114 44.1165 55.4519 44.1852C55.1924 44.254 54.9215 44.2692 54.6559 44.23C54.3903 44.1907 54.1355 44.0978 53.9069 43.9569C53.6784 43.816 53.481 43.6302 53.3267 43.4106C53.1723 43.191 53.0645 42.9422 53.0094 42.6796C52.9543 42.4169 52.9532 42.1457 53.0063 41.8827C53.0595 41.6196 53.1657 41.3701 53.3185 41.1493L59.2523 31.5434C59.5285 31.0948 59.912 30.7219 60.3683 30.4583C60.8245 30.1947 61.3391 30.0487 61.8659 30.0333C62.3926 30.0179 62.9149 30.1337 63.3857 30.3703C63.8565 30.6069 64.2611 30.9568 64.563 31.3885L69.4782 38.3945L75.1548 27.5692C75.5338 26.8478 76.1065 26.2463 76.8084 25.8322C77.5104 25.4181 78.3139 25.2077 79.1288 25.2248C79.9437 25.242 80.7378 25.4858 81.4217 25.9291C82.1057 26.3723 82.6525 26.9973 83.0008 27.7339L106.818 78.1761C106.96 78.4771 107.023 78.8089 107.002 79.1409C106.981 79.4728 106.877 79.7941 106.699 80.075C106.52 80.3559 106.274 80.5873 105.983 80.7479C105.692 80.9085 105.364 80.9929 105.032 80.9935L105.022 81.0001Z" fill="#021B1E"/>
<path d="M67.6158 69.0872C67.4581 69.0865 67.301 69.0677 67.1477 69.0312C66.8953 68.9698 66.6574 68.8593 66.4478 68.7059C66.2381 68.5526 66.0608 68.3595 65.9258 68.1376C65.7908 67.9158 65.7008 67.6695 65.661 67.4129C65.6212 67.1563 65.6325 66.8944 65.694 66.6421L69.8279 49.7006L67.817 42.7507C67.7282 42.497 67.6921 42.2279 67.7109 41.9598C67.7297 41.6917 67.803 41.4302 67.9263 41.1914C68.0495 40.9525 68.2203 40.7413 68.428 40.5707C68.6357 40.4 68.876 40.2734 69.1343 40.1987C69.3926 40.124 69.6633 40.1028 69.9301 40.1362C70.1969 40.1697 70.454 40.2571 70.6858 40.3933C70.9177 40.5294 71.1192 40.7114 71.2784 40.928C71.4375 41.1447 71.5508 41.3915 71.6112 41.6533L73.7706 49.1107C73.8654 49.4415 73.8721 49.7914 73.7902 50.1257L69.5345 67.5911C69.4272 68.0186 69.1801 68.398 68.8325 68.669C68.4849 68.9401 68.0566 69.0872 67.6158 69.0872Z" fill="#021B1E"/>
<path d="M40.851 55.092C40.5734 55.0914 40.299 55.0324 40.0457 54.9189C39.7924 54.8053 39.5658 54.6398 39.3807 54.4329L32.847 47.16C32.5365 46.7654 32.3879 46.2674 32.4312 45.7672C32.4745 45.267 32.7065 44.802 33.0802 44.4666C33.4539 44.1312 33.9414 43.9504 34.4436 43.961C34.9457 43.9717 35.4251 44.1728 35.7843 44.5237L40.7653 50.0633L46.5541 42.8333C46.8542 42.459 47.2801 42.2065 47.7525 42.1229C48.225 42.0392 48.7118 42.13 49.1222 42.3785L60.4689 49.2691C60.9005 49.5491 61.206 49.9861 61.3206 50.4875C61.4352 50.9889 61.3498 51.5152 61.0825 51.9547C60.8153 52.3942 60.3873 52.7123 59.8893 52.8416C59.3913 52.9708 58.8625 52.9009 58.4152 52.6469L48.5551 46.6558L42.3872 54.3505C42.2077 54.5739 41.9817 54.7556 41.725 54.883C41.4683 55.0105 41.1871 55.0807 40.9006 55.0887L40.851 55.092Z" fill="#021B1E"/>
<path d="M28.1265 60.0514C27.7419 60.0517 27.3655 59.94 27.0435 59.7299C26.7215 59.5198 26.4678 59.2203 26.3134 58.8683L23.9364 53.454L17.5741 55.0325C17.3189 55.1049 17.0518 55.1252 16.7886 55.0923C16.5253 55.0594 16.2715 54.9739 16.042 54.8409C15.8125 54.7079 15.612 54.5301 15.4527 54.3181C15.2934 54.1061 15.1783 53.8642 15.1144 53.6068C15.0504 53.3495 15.0391 53.0819 15.0807 52.82C15.1224 52.5581 15.2162 52.3073 15.3568 52.0825C15.4974 51.8576 15.6818 51.6633 15.8991 51.5111C16.1163 51.3589 16.3619 51.252 16.6213 51.1967L24.5991 49.2195C25.0513 49.1079 25.5283 49.1594 25.9462 49.365C26.3641 49.5706 26.6962 49.917 26.8837 50.3432L29.933 57.2799C30.1433 57.7598 30.1544 58.3035 29.964 58.7916C29.7737 59.2797 29.3973 59.6724 28.9176 59.8833C28.6687 59.9946 28.3991 60.0519 28.1265 60.0514Z" fill="#021B1E"/>
<path d="M71.8718 51.6218C71.4401 51.6174 71.0217 51.4719 70.6805 51.2076C70.3393 50.9433 70.094 50.5747 69.9819 50.158C69.8698 49.7412 69.8971 49.2993 70.0598 48.8996C70.2225 48.4999 70.5116 48.1644 70.8828 47.9442L79.0286 43.1461C79.2754 43.0017 79.5505 42.9125 79.8351 42.8847C80.1196 42.8568 80.4068 42.8909 80.6769 42.9847L91.3149 46.7249C91.5657 46.8068 91.7975 46.9379 91.9968 47.1107C92.196 47.2835 92.3587 47.4944 92.4752 47.7309C92.5917 47.9675 92.6598 48.2249 92.6753 48.4882C92.6908 48.7514 92.6534 49.0151 92.5655 49.2636C92.4775 49.5122 92.3407 49.7406 92.1631 49.9356C91.9855 50.1305 91.7707 50.288 91.5313 50.3988C91.2919 50.5095 91.0329 50.5712 90.7693 50.5803C90.5057 50.5895 90.2428 50.5458 89.9963 50.4519L80.2252 47.0083L72.874 51.3417C72.5709 51.5228 72.2249 51.6195 71.8718 51.6218Z" fill="#021B1E"/>
</g>
<defs>
<clipPath id="clip0_155:1413">
<rect width="107" height="81" fill="white"/>
</clipPath>
</defs>
</svg>
