<svg width="86" height="87" viewBox="0 0 86 87" fill="none" xmlns="http://www.w3.org/2000/svg">
<path d="M42.683 45.1937C38.8314 45.1937 35.4686 42.7411 33.0359 38.0847C31.3652 34.7937 30.5119 31.1405 30.5501 27.4411V27.0737C30.5456 25.6001 30.932 24.1522 31.6689 22.881C32.4058 21.6097 33.4661 20.5617 34.7396 19.8461C37.2475 18.409 40.072 17.6318 42.9539 17.5857C46.5513 17.5857 49.7242 19.1708 51.7519 20.4988C52.8944 21.2478 53.8323 22.2753 54.4794 23.487C55.1266 24.6986 55.4623 26.0554 55.4555 27.4326C55.4968 31.161 54.6337 34.8428 52.9418 38.1553C50.4532 42.8654 47.0149 45.3152 42.9706 45.1796L42.683 45.1937ZM42.9623 20.9819C40.6471 21.0261 38.3794 21.6545 36.3651 22.8101C35.6169 23.234 34.9947 23.8532 34.5634 24.6031C34.1321 25.353 33.9074 26.2062 33.9129 27.0737V27.4411C33.8748 30.5877 34.5938 33.6966 36.0076 36.4996C37.8901 40.0965 40.2279 41.8681 42.9651 41.8031C45.7916 41.8794 48.1098 40.1078 49.9867 36.5674C51.4236 33.7472 52.1553 30.6137 52.1178 27.4411C52.1223 26.6291 51.9253 25.829 51.5446 25.1142C51.164 24.3993 50.612 23.7926 49.9393 23.3498C48.2774 22.2704 45.7274 20.9819 42.9483 20.9819H42.9623Z" fill="#021B1E"/>
<path d="M63.784 65.2973H22.2155C21.9916 65.2974 21.7699 65.2521 21.5637 65.1641C21.3574 65.0761 21.1706 64.9471 21.0144 64.7849C20.8582 64.6227 20.7357 64.4304 20.6541 64.2195C20.5726 64.0085 20.5337 63.7832 20.5397 63.5568C20.7799 54.4898 26.4608 47.3865 33.4769 47.3865H52.5198C59.5331 47.3865 65.214 54.4898 65.4542 63.5568C65.4602 63.7832 65.4213 64.0085 65.3397 64.2195C65.2582 64.4304 65.1357 64.6227 64.9795 64.7849C64.8233 64.9471 64.6365 65.0761 64.4302 65.1641C64.2239 65.2521 64.0023 65.2974 63.7784 65.2973H63.784ZM24.0198 61.9067H61.9797C61.2033 55.6256 57.1981 50.7714 52.5226 50.7714H33.4797C28.8042 50.7742 24.799 55.6284 24.0114 61.9095L24.0198 61.9067Z" fill="#021B1E"/>
<path d="M33.564 65.2972C33.1195 65.2972 32.6933 65.1186 32.379 64.8007C32.0647 64.4828 31.8882 64.0516 31.8882 63.6019V59.6462C31.8882 59.1966 32.0647 58.7654 32.379 58.4475C32.6933 58.1295 33.1195 57.9509 33.564 57.9509C34.0085 57.9509 34.4347 58.1295 34.749 58.4475C35.0633 58.7654 35.2398 59.1966 35.2398 59.6462V63.6019C35.2398 64.0516 35.0633 64.4828 34.749 64.8007C34.4347 65.1186 34.0085 65.2972 33.564 65.2972Z" fill="#021B1E"/>
<path d="M52.4361 65.2972C51.9916 65.2972 51.5654 65.1186 51.2511 64.8007C50.9368 64.4828 50.7603 64.0516 50.7603 63.6019V59.6462C50.7603 59.1966 50.9368 58.7654 51.2511 58.4475C51.5654 58.1295 51.9916 57.9509 52.4361 57.9509C52.8805 57.9509 53.3068 58.1295 53.6211 58.4475C53.9353 58.7654 54.1119 59.1966 54.1119 59.6462V63.6019C54.1119 64.0516 53.9353 64.4828 53.6211 64.8007C53.3068 65.1186 52.8805 65.2972 52.4361 65.2972Z" fill="#021B1E"/>
<path d="M61.6699 10.0981H15.7945C15.35 10.0981 14.9238 9.91952 14.6095 9.60159C14.2952 9.28366 14.1187 8.85244 14.1187 8.40282C14.1187 7.9532 14.2952 7.52205 14.6095 7.20412C14.9238 6.88619 15.35 6.70752 15.7945 6.70752H61.6699C62.1143 6.70752 62.5406 6.88619 62.8549 7.20412C63.1691 7.52205 63.3457 7.9532 63.3457 8.40282C63.3457 8.85244 63.1691 9.28366 62.8549 9.60159C62.5406 9.91952 62.1143 10.0981 61.6699 10.0981Z" fill="#021B1E"/>
<path d="M55.6115 16.8117C55.2808 16.8108 54.9578 16.7111 54.6831 16.5249C54.4084 16.3388 54.1943 16.0745 54.0677 15.7655C53.9411 15.4565 53.9076 15.1165 53.9716 14.7883C54.0356 14.4601 54.1941 14.1584 54.4272 13.9212L59.8764 8.40582L54.4272 2.89051C54.1386 2.56785 53.9837 2.1452 53.9945 1.71016C54.0054 1.27511 54.1811 0.861003 54.4855 0.553466C54.7898 0.24593 55.1995 0.068561 55.6296 0.0581071C56.0596 0.0476531 56.4771 0.204853 56.7957 0.497246L63.4291 7.20781C63.743 7.52568 63.9193 7.95656 63.9193 8.40582C63.9193 8.85507 63.743 9.28596 63.4291 9.60383L56.7957 16.3144C56.4817 16.6324 56.0558 16.8113 55.6115 16.8117Z" fill="#021B1E"/>
<path d="M77.6905 64.0795C77.246 64.0795 76.8198 63.9009 76.5055 63.583C76.1912 63.265 76.0146 62.8338 76.0146 62.3842V15.9753C76.0146 15.5257 76.1912 15.0945 76.5055 14.7766C76.8198 14.4586 77.246 14.28 77.6905 14.28C78.1349 14.28 78.5612 14.4586 78.8755 14.7766C79.1897 15.0945 79.3663 15.5257 79.3663 15.9753V62.3842C79.3663 62.8338 79.1897 63.265 78.8755 63.583C78.5612 63.9009 78.1349 64.0795 77.6905 64.0795Z" fill="#021B1E"/>
<path d="M77.6907 64.6614C77.2468 64.6618 76.8209 64.484 76.5065 64.167L69.8731 57.4536C69.7049 57.2993 69.5695 57.112 69.4751 56.9032C69.3807 56.6943 69.3292 56.4683 69.3237 56.2387C69.3183 56.0091 69.359 55.7808 69.4434 55.5676C69.5278 55.3544 69.6541 55.1608 69.8148 54.9985C69.9754 54.8362 70.1669 54.7086 70.3777 54.6235C70.5886 54.5383 70.8143 54.4974 71.0413 54.5032C71.2682 54.509 71.4916 54.5613 71.6979 54.6571C71.9043 54.7529 72.0892 54.8901 72.2415 55.0604L77.6907 60.5729L83.1427 55.0604C83.4613 54.768 83.8789 54.6107 84.309 54.6212C84.739 54.6316 85.1486 54.809 85.453 55.1165C85.7573 55.4241 85.9332 55.8383 85.944 56.2733C85.9549 56.7083 85.7999 57.1309 85.5112 57.4536L78.875 64.167C78.5606 64.484 78.1346 64.6618 77.6907 64.6614Z" fill="#021B1E"/>
<path d="M70.208 80.2866H24.3326C23.8881 80.2866 23.4619 80.108 23.1476 79.7901C22.8334 79.4721 22.6567 79.0409 22.6567 78.5913C22.6567 78.1417 22.8334 77.7105 23.1476 77.3925C23.4619 77.0746 23.8881 76.896 24.3326 76.896H70.208C70.6524 76.896 71.0787 77.0746 71.393 77.3925C71.7072 77.7105 71.8838 78.1417 71.8838 78.5913C71.8838 79.0409 71.7072 79.4721 71.393 79.7901C71.0787 80.108 70.6524 80.2866 70.208 80.2866Z" fill="#021B1E"/>
<path d="M30.3907 86.9999C29.9464 86.9995 29.5204 86.8206 29.2064 86.5026L22.5702 79.792C22.2564 79.4742 22.0801 79.0433 22.0801 78.594C22.0801 78.1448 22.2564 77.7139 22.5702 77.396L29.2064 70.6855C29.3588 70.5152 29.5437 70.378 29.7501 70.2822C29.9564 70.1864 30.1798 70.134 30.4067 70.1282C30.6337 70.1224 30.8594 70.1634 31.0703 70.2485C31.2811 70.3337 31.4726 70.4613 31.6332 70.6236C31.7938 70.7859 31.9202 70.9795 32.0046 71.1927C32.089 71.4059 32.1297 71.6342 32.1243 71.8637C32.1188 72.0933 32.0673 72.3194 31.9729 72.5282C31.8784 72.7371 31.7431 72.9243 31.5749 73.0787L26.1229 78.594L31.5749 84.1094C31.808 84.3467 31.9666 84.6483 32.0306 84.9765C32.0946 85.3047 32.0612 85.6447 31.9346 85.9537C31.808 86.2627 31.5938 86.5269 31.3191 86.7131C31.0444 86.8992 30.7213 86.9991 30.3907 86.9999Z" fill="#021B1E"/>
<path d="M8.30912 72.717C7.86466 72.717 7.4384 72.5384 7.12413 72.2205C6.80985 71.9026 6.6333 71.4714 6.6333 71.0217V24.6157C6.6333 24.1661 6.80985 23.7349 7.12413 23.4169C7.4384 23.099 7.86466 22.9204 8.30912 22.9204C8.75357 22.9204 9.17983 23.099 9.49411 23.4169C9.80838 23.7349 9.98493 24.1661 9.98493 24.6157V71.0217C9.98493 71.4714 9.80838 71.9026 9.49411 72.2205C9.17983 72.5384 8.75357 72.717 8.30912 72.717Z" fill="#021B1E"/>
<path d="M14.9453 32.4366C14.501 32.4362 14.0751 32.2573 13.7611 31.9393L8.3091 26.4267L2.85991 31.9393C2.5413 32.2317 2.12373 32.3889 1.69368 32.3785C1.26362 32.368 0.854028 32.1907 0.549668 31.8831C0.245307 31.5756 0.0694794 31.1614 0.0586382 30.7264C0.047797 30.2913 0.202778 29.8687 0.491434 29.5461L7.12487 22.8327C7.43908 22.5152 7.86501 22.3369 8.3091 22.3369C8.7532 22.3369 9.17913 22.5152 9.49334 22.8327L16.1296 29.5461C16.3627 29.7833 16.5212 30.085 16.5852 30.4132C16.6492 30.7414 16.6158 31.0814 16.4892 31.3904C16.3626 31.6994 16.1484 31.9636 15.8737 32.1498C15.599 32.336 15.276 32.4357 14.9453 32.4366Z" fill="#021B1E"/>
</svg>
