<svg id="Capa_1" data-name="Capa 1" xmlns="http://www.w3.org/2000/svg" xmlns:xlink="http://www.w3.org/1999/xlink" viewBox="0 0 556.53 563.48"><defs><style>.cls-1{fill:#f4f4f4;}.cls-2{fill:url(#Degradado_sin_nombre);}.cls-3{fill:#fcfdfe;}.cls-4{fill:#fdc864;}.cls-5{fill:#beb8f2;}.cls-6{fill:#97a6b7;}.cls-7{fill:url(#Degradado_sin_nombre_2);}.cls-8{fill:url(#Degradado_sin_nombre_3);}.cls-9{fill:#fff;}.cls-10{fill:#faa600;}.cls-11{fill:#9d3060;}.cls-12{fill:url(#Degradado_sin_nombre_4);}.cls-13{fill:#f4f7fa;}.cls-14{fill:#d8dee8;}.cls-15{fill:url(#Degradado_sin_nombre_5);}.cls-16{fill:url(#Degradado_sin_nombre_6);}.cls-17{fill:url(#Degradado_sin_nombre_7);}.cls-18{fill:url(#Degradado_sin_nombre_8);}.cls-19{fill:#fc78ac;}.cls-20,.cls-21,.cls-29,.cls-31{isolation:isolate;}.cls-20{opacity:0.29;fill:url(#Degradado_sin_nombre_9);}.cls-21{fill:#374142;opacity:0.22;}.cls-22{fill:#021b1e;}.cls-23{fill:#10dd8e;}.cls-24{fill:#893976;}.cls-25{fill:url(#Degradado_sin_nombre_10);}.cls-26{fill:url(#Degradado_sin_nombre_11);}.cls-27{fill:url(#Degradado_sin_nombre_12);}.cls-28,.cls-29,.cls-31{opacity:0.3;}.cls-29{fill:url(#Degradado_sin_nombre_13);}.cls-30{fill:url(#Degradado_sin_nombre_14);}.cls-31{fill:url(#Degradado_sin_nombre_15);}.cls-32{fill:url(#Degradado_sin_nombre_16);}</style><linearGradient id="Degradado_sin_nombre" x1="12.53" y1="310.06" x2="667.7" y2="325.86" gradientTransform="matrix(1, 0, 0, -1, 0, 543)" gradientUnits="userSpaceOnUse"><stop offset="0" stop-color="#ffc444"/><stop offset="1" stop-color="#f36f56"/></linearGradient><linearGradient id="Degradado_sin_nombre_2" x1="272.36" y1="89.6" x2="270.83" y2="31.89" gradientTransform="matrix(1, 0, 0, -1, 0, 543)" gradientUnits="userSpaceOnUse"><stop offset="0" stop-color="#444b8c"/><stop offset="1" stop-color="#26264f"/></linearGradient><linearGradient id="Degradado_sin_nombre_3" x1="165049.64" y1="-911532.89" x2="106723.67" y2="-588734.9" xlink:href="#Degradado_sin_nombre_2"/><linearGradient id="Degradado_sin_nombre_4" x1="-536826" y1="112.83" x2="-150167" y2="112.83" gradientTransform="matrix(1, 0, 0, -1, 0, 543)" gradientUnits="userSpaceOnUse"><stop offset="0"/><stop offset="1" stop-color="#26264f"/></linearGradient><linearGradient id="Degradado_sin_nombre_5" x1="480.07" y1="220.35" x2="473.22" y2="220.35" gradientTransform="matrix(1, 0, 0, -1, 0, 543)" gradientUnits="userSpaceOnUse"><stop offset="0" stop-color="#ff9085"/><stop offset="1" stop-color="#fb6fbb"/></linearGradient><linearGradient id="Degradado_sin_nombre_6" x1="-5950.7" y1="201.84" x2="-5874.72" y2="201.84" xlink:href="#Degradado_sin_nombre_5"/><linearGradient id="Degradado_sin_nombre_7" x1="-6128.36" y1="213.54" x2="-6051.13" y2="213.54" xlink:href="#Degradado_sin_nombre_5"/><linearGradient id="Degradado_sin_nombre_8" x1="-6525.1" y1="200.92" x2="-6445.46" y2="200.92" xlink:href="#Degradado_sin_nombre_5"/><linearGradient id="Degradado_sin_nombre_9" x1="227.81" y1="404.63" x2="168.71" y2="404.63" gradientTransform="matrix(1, 0, 0, -1, 0, 543)" gradientUnits="userSpaceOnUse"><stop offset="0" stop-color="#fb6fbb"/><stop offset="1" stop-color="#ff9085"/></linearGradient><linearGradient id="Degradado_sin_nombre_10" x1="90369.59" y1="-24105.98" x2="86303.09" y2="-23006.58" xlink:href="#Degradado_sin_nombre"/><linearGradient id="Degradado_sin_nombre_11" x1="136168.99" y1="-32414.33" x2="129774.99" y2="-30877.73" xlink:href="#Degradado_sin_nombre_2"/><linearGradient id="Degradado_sin_nombre_12" x1="97885.04" y1="-26176.74" x2="93788.35" y2="-25069.14" xlink:href="#Degradado_sin_nombre"/><linearGradient id="Degradado_sin_nombre_13" x1="186.55" y1="276.38" x2="180.39" y2="222.65" gradientTransform="matrix(1, 0, 0, -1, 0, 543)" gradientUnits="userSpaceOnUse"><stop offset="0" stop-color="#ab316d"/><stop offset="1" stop-color="#792d3d"/></linearGradient><linearGradient id="Degradado_sin_nombre_14" x1="-15323.2" y1="-111804.96" x2="-15908.2" y2="-116049.96" xlink:href="#Degradado_sin_nombre_2"/><linearGradient id="Degradado_sin_nombre_15" x1="-51014.23" y1="-6738.22" x2="-70140.13" y2="-9359.22" xlink:href="#Degradado_sin_nombre_2"/><linearGradient id="Degradado_sin_nombre_16" x1="-1932.1" y1="13.35" x2="-1978.03" y2="7.05" xlink:href="#Degradado_sin_nombre_2"/></defs><path class="cls-1" d="M369.86,50c47.4-21.81,124-14.78,160.85,41,36.15,54.71-46.58,116-21.83,240.87,13.32,67.17,37.67,90.54,22.81,131.89C516.36,506.45,470.88,536,430,546.35c-84.26,21.34-121-46.12-215.68-22.77-32.57,8-43.68,19.83-77.93,19.92-8.2,0-72.07.27-105.46-37-51.8-57.81,33.84-134.36,17.58-311.76-2.72-29.65-8.35-62.84,10-97.44C83.9,49.35,137.37,33,158,26.26,208.08,9.83,284.41,7.48,304.84,42.7,311.47,54.09,341.05,63.26,369.86,50Z"/><path class="cls-2" d="M343,269.65c2.21-3,4.38-11.38,4.07-13.81-2.24-16.15-4.49-46.66-17.6-57.87-2.24-1.91-13.33,5.66-16.56,5.11-8.24,3.11-10.91,4.7-20.2,3.82-27.43-2.62-29.51-58.81-71.31-36-30.63,16.74-41.87,44.93-76.64,6.52s-131.1-74.18-143-9.91c-6.82,36.9,46.93,44.47,59.1,78.54,11.58,32.38,38.93,40.56,75,29.82S170,287.6,184.48,314.74c17.44,32.6,59.45-2,77.5-19.66C276.48,280.88,323.08,254.5,343,269.65Z"/><path class="cls-3" d="M339,228.26l-.27-.74C224.71,269.2,98.28,238.79.55,146.19l-.55.58c46.32,43.89,101.19,74.92,158.76,89.76C219.21,252.13,281.55,249.26,339,228.26Z"/><path class="cls-3" d="M190.13,329.12c14.43-29.87,50.84-68,81.16-85.07l-.39-.69c-30.44,17.11-67,55.42-81.48,85.42Z"/><path class="cls-3" d="M316.52,236.19l-.06-.79c-18,1.27-36-6.63-53.45-23.46-12.8-12.34-25-29.1-36.24-49.84l-.7.38c11.31,20.8,23.55,37.63,36.39,50C280.06,229.48,298.24,237.47,316.52,236.19Z"/><path class="cls-3" d="M150.65,234.09v-.78c-34.12.63-63.26,21.56-81.7,39l.54.58C87.81,255.54,116.78,234.71,150.65,234.09Z"/><path class="cls-3" d="M78.37,204.51l.5-.58c-29.55-24.57-38.59-63.85-41.34-85.08l-.78.1C39.51,140.24,48.61,179.74,78.37,204.51Z"/><path class="cls-4" d="M314.38,423.81q27.81-17.54,55-36.41c.45.14-12.16-45.8-42.67-59.32-59.9-25.83-50.08-77.17-52.62-103.89-2.22-38.25-24.46-70.85-58.11-56.61-37.65,15.1-71.53-43.19-89.56-101.89C119.51,36.21,79.19,14.58,50.23,18.4,20.37,21.63,1.84,50.28,17.89,108c15.7,68.08,78.36,85.62,109.28,109.55,30.4,23.48,2.64,65.63,46.05,79.17,37.1,12.66,78,15.45,79.42,51.35C253.56,383.77,267.5,407.13,314.38,423.81Z"/><path class="cls-5" d="M343,414.17c-.16-.39-59.32-82.63-131.21-156.37-10.84-12.28-22.14-24.51-33.07-36.34C117.92,155.59,60.45,93.37,51.19,0L49.88.13c9.31,93.8,66.93,156.18,127.94,222.22,10.92,11.82,22.22,24.05,33.08,36.33,72.23,74.18,130.66,155.52,131,156.07Z"/><path class="cls-5" d="M122.81,160.24l.54-1.2c-33-14.75-75.17-37.8-97.82-50.2-18.33-10-18.38-10-18.94-9.63l.35.55-.05.64c.84.2,8.42,4.34,18,9.59C47.57,122.39,89.76,145.47,122.81,160.24Z"/><path class="cls-5" d="M101.48,129.29c-7.87-30-4.54-53.54-.35-68,4.55-15.75,11.31-25,12.34-25.75l-.28-.42.14-.81c-.39-.07-.69.17-1.11.63-6.06,6.58-25.84,41.91-12,94.67Z"/><path class="cls-5" d="M255.75,307.49l1.12-.67c-31.52-53-16.63-122.12-8.77-149.37a18.12,18.12,0,0,0,.58-2.16l-1.29-.14.65.07-.65-.08c0,.16-.26,1-.54,2a267,267,0,0,0-10.24,58.08C234.47,251.45,240.9,282.51,255.75,307.49Z"/><path class="cls-5" d="M143.32,276l-.31-.58.06.64-.67-.4.2-.76c.77-.45,52-19.82,92.77,8l-.73,1.08C194.29,256.42,143.78,275.76,143.32,276Zm-.31-.58-.06-.65Z"/><path class="cls-5" d="M333.19,400.81c-5.46-11.18-10-32.35-.54-69.76.53-2.13.53-2.13.35-2.42l-1.1.7.55-.35h-.65c0,.15-.2.9-.42,1.74-9.54,37.8-4.92,59.28.63,70.66Z"/><path class="cls-5" d="M317.45,382.23l1-.84c-14.88-17.67-49.77-20-69.25-19.75H248L248,363h1.25C268.46,362.74,303,365,317.45,382.23Z"/><path class="cls-6" d="M218.93,509.21a24,24,0,0,0,15.94-18.07l11.85-58.57,101.36,3.59,12.48,61c1.74,8.54-5.24,17.12-13.3,20.26L304.85,534a55.23,55.23,0,0,1-24.8,3.59L190.43,530a5.58,5.58,0,0,1-3.39-1.57A5.51,5.51,0,0,1,185.4,525c-.3-2.64-2.14-5.6.36-6.43Z"/><path class="cls-7" d="M217.93,505.65a23.82,23.82,0,0,0,15.92-17.85L245.69,430l98.89,3.55L357,493.77a17.64,17.64,0,0,1-10.92,20l-42.36,16.36A55.8,55.8,0,0,1,279,533.69l-89.56-7.55a5.52,5.52,0,0,1-1.26-10.74Z"/><path class="cls-8" d="M56.05,391.85V129.22A10.38,10.38,0,0,1,65.94,119l451.78-18.14c6.88-.27,12.52,4.47,12.52,10.55V401.68Z"/><path class="cls-9" d="M516.28,151.83V378.55c0,5.66-5.24,10.14-11.63,10L75.87,376.32a9.58,9.58,0,0,1-9.3-9.45V164.68Z"/><path class="cls-10" d="M66.59,164.68V141.45a9.47,9.47,0,0,1,9.1-9.32l429.18-16c6.25-.23,11.38,4.1,11.38,9.65v26Z"/><path class="cls-11" d="M484.9,134.18a3.61,3.61,0,0,0,4,3.4,4,4,0,0,0,4-3.66,3.63,3.63,0,0,0-4-3.4A3.93,3.93,0,0,0,484.9,134.18Z"/><path class="cls-11" d="M467.77,134.74a3.58,3.58,0,0,0,3.93,3.39,3.91,3.91,0,0,0,3.94-3.64,3.59,3.59,0,0,0-3.94-3.39A3.88,3.88,0,0,0,467.77,134.74Z"/><path class="cls-11" d="M450.84,135.3a3.57,3.57,0,0,0,3.89,3.36,3.86,3.86,0,0,0,3.89-3.62,3.56,3.56,0,0,0-3.89-3.36A3.86,3.86,0,0,0,450.84,135.3Z"/><path class="cls-12" d="M530.25,401.68v58c0,6.08-5.64,10.81-12.52,10.52L66,451.08a10.38,10.38,0,0,1-9.89-10.21V390.16Z"/><path class="cls-13" d="M80.8,366.63l415.62,11.18a5.71,5.71,0,0,0,2.16-.36,5.58,5.58,0,0,0,1.86-1.17,5.68,5.68,0,0,0,1.26-1.8,5.59,5.59,0,0,0,.46-2.14V167.28a5.49,5.49,0,0,0-1.72-3.92,5.37,5.37,0,0,0-1.86-1.15,5.5,5.5,0,0,0-2.16-.34L80.8,173.38a5.36,5.36,0,0,0-5.14,5.39V361.32a5.29,5.29,0,0,0,5.14,5.31Z"/><path class="cls-14" d="M414,187.45l75-1.57V174.51l-75,1.71Z"/><path class="cls-14" d="M414,203.05l75-1.37V190.3l-75,1.51Z"/><path class="cls-14" d="M414,297l75-.15V215l-75,1.2Z"/><path class="cls-14" d="M474.11,359.65l13.16.17.1,0a.15.15,0,0,0,.09-.06.16.16,0,0,0,.06-.08.23.23,0,0,0,0-.11v-2.9a.25.25,0,0,0-.09-.19.24.24,0,0,0-.19-.08l-13.16-.15a.18.18,0,0,0-.1,0l-.09.05a.24.24,0,0,0-.06.09.19.19,0,0,0,0,.1v2.91a.27.27,0,0,0,.28.25Z"/><path class="cls-14" d="M434.81,365.63l52.46.74h.1l.09-.06a.15.15,0,0,0,.06-.09.17.17,0,0,0,0-.1v-2.9a.25.25,0,0,0-.09-.2.27.27,0,0,0-.19-.08l-52.46-.69-.11,0a.35.35,0,0,0-.14.14.38.38,0,0,0,0,.1v2.89a.28.28,0,0,0,.28.24Z"/><path class="cls-14" d="M488.07,320.08a2.38,2.38,0,0,1,1.24,2.29,2.49,2.49,0,0,1-1.87,1.81c-1.05.28-1.4-.35-2.55-.26-1.75.13-3.09,1.74-3.66,3s-.12,1.48-.48,2.85c-.63,2.41-2.59,3.88-4.47,5.3-1.57,1.16-4,2.6-4.39,2.17-.15-.15,0-.5.07-.71.33-.83,1.09-1,2.12-1.8.74-.55,1.66-1.25,1.51-1.81s-1.32-.89-2.19-.66a2.83,2.83,0,0,0-1.58,1.42c-.2.33-.16.76-.34.77s-.27-.15-.33-.3c-.16-.39.12-.76.23-1.05.23-.68-.33-1.43-.88-2.16-.93-1.24-1.48-1.25-2.91-2.69-1-1-1.45-1.46-1.51-2.16a3,3,0,0,1,1.17-2.23c.88-.72,2.37-1.21,3-.69s0,1.35.64,2a2,2,0,0,0,1.91.39,2,2,0,0,0,1-.64,2,2,0,0,0,.47-1.1,1.67,1.67,0,0,0-.07-.67,1.44,1.44,0,0,0-.35-.58c-.13-.13-.46-.39-1.55-.44-1.54-.06-1.86.41-2.78.22-.77-.17-1.7-.74-1.69-1.31s1.3-.72,2.78-2.19c.58-.58,1.05-1.05,1-1.68-.05-.89-1.07-1.59-1.27-1.74-.8-.55-1.51-1-1.51-1-.2-.13-.49-.31-.45-.48s.18-.18.45-.26a3.86,3.86,0,0,1,1.55-.08c1.05.22,1.38.69,2.65,1.34a10.23,10.23,0,0,0,2.56.94c1.35.29,1.81.06,2.48.52s.44.83,1.1,1.52a5.93,5.93,0,0,0,2.84,1.34,15.18,15.18,0,0,0,2.91.52C486.9,320,487.3,319.65,488.07,320.08Z"/><path class="cls-14" d="M466.17,314.28c1.42.35,2.65.66,2.9,1.46a1.28,1.28,0,0,1,0,.7,1.38,1.38,0,0,1-.37.6c-.75.58-1.88-.36-2.69.17-.44.28-.27.65-.77,2.71a5.29,5.29,0,0,1-1.17,2.63c-.29.33-.72.8-1.13.73-.62-.12-.39-1.28-1.37-2.12-.34-.29-.4-.18-2-.9a5.08,5.08,0,0,1-1.54-.82c-.54-.91.9-2,.31-3.1-.1-.2-.12-.1-.86-.94s-.83-1.13-.81-1.2c.09-.32.73-.34,2.35-.52,2.71-.29,2.91-.44,3.73-.26.53.11.67.23,1.82.51C465.47,314.14,465.57,314.12,466.17,314.28Z"/><path class="cls-14" d="M469.76,337.21a2.79,2.79,0,0,1,.7.83,2.68,2.68,0,0,1,.31,1c.16.94-.13,1.55-.69,3.1a20.73,20.73,0,0,0-1,3.36c-.08.83.08,1,.72,4.23.49,2.42.54,3.06.1,3.49a2.17,2.17,0,0,1-2.1.4c-.06-.17.27-.15.5-.42.51-.61.14-1.63,0-1.9-.37-1.06-1.09-1.51-2.27-2.56a12.75,12.75,0,0,1-3-3.26,5.76,5.76,0,0,1-.81-3.62,5.37,5.37,0,0,1,1.13-2.66,6.12,6.12,0,0,1,3.23-2.09C467.53,336.93,468.8,336.54,469.76,337.21Z"/><path class="cls-14" d="M456.27,331.15a12.48,12.48,0,0,1,1.31,2.91c.2.84.39,2.74-.63,3.48s-2-.24-3.31.5a3.39,3.39,0,0,0-1.3,1.62c-.77,1.46-.41,2.27-.73,4.16-.15.88-.63,3.69-1.85,3.89-1,.15-2.12-1.58-2.3-1.87a9.34,9.34,0,0,1-1-3.14c-.48-2.11-.31-2.4-.82-3-.65-.77-1.44-.86-1.61-1.59a1.64,1.64,0,0,1,0-.7,1.71,1.71,0,0,1,.32-.63c.67-1.1,1.61-1,2.25-2,.36-.61.46-1.35.31-1.41s-.5.37-.67.58c-.55.66-.49.9-.82,1.24a2.48,2.48,0,0,1-.88.46,2.62,2.62,0,0,1-1,.09c-.53-.07-1.46-.35-1.58-.92s.35-.89.86-1.44.72-.64.67-.73-.42,0-1.39.34-1.59.5-1.66.54c-.36.2-.66.45-1.66,2s-1.38,2.36-1.62,2.29-.09-.25-.18-1a4.43,4.43,0,0,0-.48-2.06,1.65,1.65,0,0,0-.59-.52,1.66,1.66,0,0,0-.76-.21c-.33,0-.73.53-1.52,1.49s-1,1.28-1.56,1.53a1.41,1.41,0,0,1-.56.21,1.35,1.35,0,0,1-.6-.05,1.15,1.15,0,0,1-.44-.64,1.14,1.14,0,0,1,0-.77c.22-.58.82-.65.8-1s-1.27-.87-1.38-.9c-.81-.22-1,0-1.43-.23a1.92,1.92,0,0,1-.65-.91,2,2,0,0,1-.06-1.13c.16-.76.7-1,.53-1.36s-.58-.18-1.42-.39a3.51,3.51,0,0,1-2.09-1.08,2.86,2.86,0,0,1-.44-1.53,5.16,5.16,0,0,1,0-1.36c.09-1,.33-1.07.22-1.36-.24-.64-1.4-.47-3.6-1.07-1.26-.35-2.17-.76-2.26-.58s1.36.77,1.46,1.83c.07.8-.66,1.6-1,1.53s-.07-.7-.53-1.62a2.64,2.64,0,0,0-1-1.19c-.66-.4-1.05-.12-1.64-.55s-.35-.62-.75-1c-.9-.81-2.42-.24-2.52-.58s1.09-1.16,2.61-1.35c1.35-.17,1.56.38,3.09.39a15.93,15.93,0,0,0,4-1,10.73,10.73,0,0,1,2.91-.68c.75,0,.77.07,1.56,0a5,5,0,0,0,2.84-.84c.68-.55.48-.87,1-1.2.9-.52,2.13-.09,3.17.3a16.49,16.49,0,0,1,3.23,1.74c1.54,1,2,1.47,2.9,1.37.64-.07.76-.38,1.48-.38s.76.21,1.93.69,1.75.68,2.2.58c.77-.14.8-.64,1.63-.94a4.36,4.36,0,0,1,2.75.21c1.27.37,2.51.74,3.12,1.74s0,2.05.76,2.54,1.21-.12,1.75.3.46,1.78.36,2.45c-.21,1.32-.72,1.65-.54,2.58a4.09,4.09,0,0,0,.64,1.33Z"/><path class="cls-14" d="M444,342.23c.31,0,.85,1.17.72,2.33,0,.07-.12.95-.41,1s-.55-.7-.58-.77a2.6,2.6,0,0,1-.14-1.2C443.61,343.37,443.68,342.26,444,342.23Z"/><path class="cls-14" d="M432.57,339.38c0,.05-.06.14-.32.33a5,5,0,0,1-1.55.93c-.48.16-1.67.44-1.92,0-.17-.26.07-.78.45-1s.69,0,1.65-.07S432.51,339.25,432.57,339.38Z"/><path class="cls-14" d="M429.23,337.14c.19,0,.14.4.53,1.19.18.37.28.47.22.58a.89.89,0,0,1-.61.28,1,1,0,0,1-.63-.2c-.35-.31-.19-.87-.14-1.07C428.71,337.57,429,337.1,429.23,337.14Z"/><path class="cls-14" d="M425.22,340.22a2.2,2.2,0,0,1-1,.71c-.22.1-1.82.76-2.23.25a.76.76,0,0,1-.08-.39.72.72,0,0,1,.13-.38c.2-.32.58-.4,1.16-.54,1.75-.44,2.17-.65,2.33-.46S425.3,340.11,425.22,340.22Z"/><path class="cls-14" d="M428.2,335.64c.21.06.19,1-.18,1.7-.2.38-.55.82-.71.77s-.09-.72,0-1.17C427.55,336.3,428,335.58,428.2,335.64Z"/><path class="cls-14" d="M426.51,331.33c0-.22-.58-.17-1.29-.58a4.34,4.34,0,0,1-1.65-1.8c-.08-.17-.16-.39-.22-.38a2,2,0,0,0,0,1,3.19,3.19,0,0,0,.55,1.18,3.09,3.09,0,0,0,1,.83,1.62,1.62,0,0,0,.72.17C426,331.73,426.51,331.52,426.51,331.33Z"/><path class="cls-14" d="M428,343.82c1,.81,1.51.67,1.65,1.12s-.5.74-.62,1.78c-.08.66.13,1-.05,1.11s-.7-.71-1.74-1a2.85,2.85,0,0,0-2.05.16c-.51.28-.44.58-1.29,1.26-.53.45-.81.68-1.16.63-.58-.07-.87-.83-1.07-1.29a3.57,3.57,0,0,1-.26-2.32c.11-.45.19-.34,1.74-2.41.43-.58.58-.82,1-1a2.44,2.44,0,0,1,1.78.14,4.86,4.86,0,0,1,1.11.86C427.68,343.44,427.64,343.5,428,343.82Z"/><path class="cls-15" d="M476.3,327.08a7.89,7.89,0,0,0,3.11-3.53c.32-.77,1.26-3,.07-4.34a3.63,3.63,0,0,0-2.44-.95,4,4,0,0,0-3,.67c-1.55,1.39-.44,4.29-.22,4.87a7.76,7.76,0,0,0,2.49,3.28Z"/><path class="cls-13" d="M474.89,321.47a1.78,1.78,0,0,0,.55,1.25,1.75,1.75,0,0,0,1.28.49,1.82,1.82,0,0,0,.69-.11,1.76,1.76,0,0,0,.59-.38,1.64,1.64,0,0,0,.4-.57,1.57,1.57,0,0,0,.15-.68,1.81,1.81,0,0,0-.15-.68,1.9,1.9,0,0,0-.4-.57,1.73,1.73,0,0,0-.59-.37,1.65,1.65,0,0,0-.69-.12,1.62,1.62,0,0,0-.69.12,1.76,1.76,0,0,0-1,.94,1.64,1.64,0,0,0-.15.68Z"/><path class="cls-16" d="M426.82,345.53a7.63,7.63,0,0,0,3-3.48c.31-.76,1.23-3,.07-4.28a3.59,3.59,0,0,0-2.37-.94,3.8,3.8,0,0,0-2.91.65c-1.51,1.36-.42,4.22-.2,4.79a7.54,7.54,0,0,0,2.39,3.26Z"/><path class="cls-13" d="M425.42,340a1.75,1.75,0,0,0,.13.68,1.79,1.79,0,0,0,1.65,1.07,1.81,1.81,0,0,0,1.23-.48,1.75,1.75,0,0,0,.55-1.21,1.72,1.72,0,0,0-.14-.68,1.7,1.7,0,0,0-.39-.57,1.77,1.77,0,0,0-.58-.38,1.89,1.89,0,0,0-.67-.12,1.77,1.77,0,0,0-1.24.48,1.7,1.7,0,0,0-.54,1.21Z"/><path class="cls-17" d="M438,333.84a7.67,7.67,0,0,0,3-3.48c.32-.76,1.24-3,.07-4.29a3.53,3.53,0,0,0-2.39-.95,3.92,3.92,0,0,0-2.94.67c-1.52,1.37-.43,4.24-.21,4.81a7.57,7.57,0,0,0,2.43,3.24Z"/><path class="cls-13" d="M436.6,328.29a1.71,1.71,0,0,0,.14.67,1.85,1.85,0,0,0,.4.56,1.81,1.81,0,0,0,.57.37,1.77,1.77,0,0,0,.68.11,1.7,1.7,0,0,0,1.25-.48A1.53,1.53,0,0,0,440,329a1.72,1.72,0,0,0,.15-.67,1.8,1.8,0,0,0-.14-.68,1.7,1.7,0,0,0-.39-.57,1.6,1.6,0,0,0-.58-.37,1.58,1.58,0,0,0-.68-.12,1.6,1.6,0,0,0-.68.12,1.69,1.69,0,0,0-.58.37,1.61,1.61,0,0,0-.39.57,1.71,1.71,0,0,0-.14.67Z"/><path class="cls-18" d="M465.05,346.48a7.78,7.78,0,0,0,3.09-3.48c.32-.77,1.25-3,.07-4.33a3.68,3.68,0,0,0-2.42-.95,4,4,0,0,0-3,.65c-1.54,1.38-.43,4.27-.21,4.85a7.65,7.65,0,0,0,2.47,3.26Z"/><path class="cls-13" d="M463.65,340.88a1.78,1.78,0,0,0,1.82,1.74,1.64,1.64,0,0,0,1.26-.47,1.69,1.69,0,0,0,.4-.56,1.56,1.56,0,0,0,.15-.67,1.8,1.8,0,0,0-.55-1.25,1.84,1.84,0,0,0-1.26-.5,1.79,1.79,0,0,0-.69.11,1.94,1.94,0,0,0-.58.36,1.64,1.64,0,0,0-.4.57,1.56,1.56,0,0,0-.15.67Z"/><path class="cls-13" d="M412.75,282.58l77.76-.35v-3.05l-77.76.4Z"/><path class="cls-19" d="M478.38,293.64s5.54-3.56,4.3-6.19-3.4-1.59-4.53-.78c-1.92-1.14-2.72-.72-3.62-.25S472.38,289.92,478.38,293.64Z"/><path class="cls-13" d="M418.22,293.87l50.25-.14v-7.6l-50.25.2Z"/><path class="cls-14" d="M92.68,358H401.59V174.51H92.68Z"/><path class="cls-20" d="M225.81,167.26a2.17,2.17,0,0,0,1-.24,1.71,1.71,0,0,0,.93-1.06,1.7,1.7,0,0,0,.06-.71,1.68,1.68,0,0,0-.24-.68l-55.1-54.19a2.18,2.18,0,0,0-2.74-.67,1.8,1.8,0,0,0-.59.43,1.7,1.7,0,0,0-.35.63,1.75,1.75,0,0,0-.06.72,1.7,1.7,0,0,0,.25.68l55.09,54.18a2.15,2.15,0,0,0,.76.68,2.28,2.28,0,0,0,1,.23Z"/><path class="cls-21" d="M292.32,143.57a139.25,139.25,0,0,1,100.5,27.3l50.85-70.22a2.19,2.19,0,0,1,1.28-.81,2.24,2.24,0,0,1,1.5.23,1.85,1.85,0,0,1,.56.45,1.72,1.72,0,0,1,.32.65,1.74,1.74,0,0,1,0,.72,1.83,1.83,0,0,1-.28.66L395.9,173.24c33,26.29,54.71,67.61,54.71,116.47,0,91-75.53,156.17-158.28,146.67C219.21,428,165.88,362.92,165.88,290.19S219.21,152.21,292.32,143.57Z"/><path class="cls-22" d="M146.15,290.19c0,72.73,53.32,137.81,126.45,146.21,82.75,9.5,158.29-55.63,158.29-146.67S355.36,133.8,272.61,143.57C199.47,152.2,146.15,217.46,146.15,290.19Z"/><path class="cls-9" d="M134.7,292.51c0,72.73,53.32,137.81,126.45,146.21,82.74,9.5,158.28-55.63,158.28-146.67S343.89,136.12,261.15,145.89C188,154.53,134.7,219.78,134.7,292.51Z"/><path class="cls-23" d="M155.89,292.47c0-60.44,45-114,105.26-119.8,66.7-6.45,126.42,46.84,126.42,119.43S327.85,418.18,261.15,411.94C200.85,406.3,155.89,352.92,155.89,292.47Zm12.65,0c0,53.18,39.8,99.68,92.61,104,57.65,4.68,108.6-41.92,108.6-104.29s-50.95-108.81-108.6-104c-52.81,4.47-92.61,51.09-92.61,104.28Z"/><path class="cls-23" d="M190.82,292.42c0-40.39,30.55-75.18,70.33-77.7,42.45-2.69,79.19,32,79.19,77.46s-36.73,80.26-79.19,77.71C221.37,367.5,190.82,332.81,190.82,292.42Zm13.42,0c0,32.68,24.88,60.45,56.91,62,33.73,1.61,62.56-26.24,62.56-62.15s-28.82-63.68-62.56-62c-32,1.59-56.91,29.44-56.91,62.12Z"/><path class="cls-23" d="M230.89,292.35c0,17.42,13.38,31.83,30.24,32.24,17.36.42,31.78-14,31.78-32.34S278.48,259.54,261.13,260C244.25,260.48,230.89,275,230.89,292.35Z"/><path class="cls-24" d="M210.24,177a2.21,2.21,0,0,0,.88-.19,1.68,1.68,0,0,0,1-1,1.92,1.92,0,0,0,.11-.71,1.7,1.7,0,0,0-.19-.7L172.5,110.48a2.12,2.12,0,0,0-1.19-.91,2.18,2.18,0,0,0-1.51.09,2,2,0,0,0-.6.4,1.65,1.65,0,0,0-.38.6,1.68,1.68,0,0,0,.07,1.41L208.43,176a2.13,2.13,0,0,0,.77.75,2,2,0,0,0,1,.26Z"/><path class="cls-24" d="M357.92,183.06a2.21,2.21,0,0,0,.84-.17,2.06,2.06,0,0,0,.71-.49l87.46-79.64a1.86,1.86,0,0,0,.37-.62,1.71,1.71,0,0,0,.07-.71,1.53,1.53,0,0,0-.23-.68,1.62,1.62,0,0,0-.49-.52,2.19,2.19,0,0,0-2.83.24l-87.45,79.65a1.59,1.59,0,0,0-.37.61,1.56,1.56,0,0,0-.08.71,1.6,1.6,0,0,0,.72,1.2,2.18,2.18,0,0,0,1.28.42Z"/><path class="cls-25" d="M73.24,247.61c-.15-.11,27.79,3,27.79,3l-11.29-18c-3.8-6-29.43-7-35.65-6.5l-.31,2.21Z"/><path class="cls-26" d="M194.08,284.89,254.94,293c.51.06.66-1.06.17-1.2l-59.68-16.49Z"/><path class="cls-27" d="M70.16,263.89c-.17,0,27.91,7.69,27.91,7.69l-15.6,12.54c-5.23,4.21-29.68-5.08-35.43-8l.31-2.21Z"/><path class="cls-23" d="M73.34,264.53c-.16,0,27.78,7.66,27.78,7.66L85.59,284.7c-5.24,4.2-11.55,5-17.13,2.24L47,276.15Z"/><path class="cls-23" d="M75.74,247.53c-.15-.11,28.33,3.76,28.33,3.76l-11.24-18c-3.77-6-9.51-9.34-15.55-8.89l-23.2,1.7Z"/><path class="cls-23" d="M169.83,290.92l16.44,3.15c5.78,1.11,11.37-4.74,12.55-13.05s-2.51-16-8.27-17.29l-16.38-3.54Z"/><g class="cls-28"><path class="cls-29" d="M183.38,282.73c5.91-1.51,10.94-5.23,15.08-9.65a21.23,21.23,0,0,1,.36,7.94h0c-1.17,8.31-6.77,14.16-12.55,13.05l-16.44-3.15,1.28-9a19.2,19.2,0,0,0,12.27.84Z"/></g><path class="cls-30" d="M67.6,263.05l102.23,27.87c6.4,1.16,10.76-29.56,4.34-30.72l-104.33-13Z"/><g class="cls-28"><path class="cls-31" d="M99.75,266.24c20.51,2.68,24.38-3.36,42.3,2,16.52,4.93,24.11,13.31,33.37,14.88-1.36,4.74-3.35,8.21-5.59,7.81L67.6,263l.87-6.16a104.94,104.94,0,0,0,31.28,9.36Z"/></g><path class="cls-32" d="M66.71,254.77c-.62,4.42-.23,8.18.87,8.4s2.5-3.18,3.12-7.59.24-8.16-.86-8.39S67.33,250.35,66.71,254.77Z"/></svg>