<svg width="467" height="442" viewBox="0 0 467 442" fill="none" xmlns="http://www.w3.org/2000/svg">
<g clip-path="url(#clip0_89:916)">
<path d="M170.642 46.9137L175.361 48.0583L189.144 36.1991L191.423 26.7896C191.423 26.7896 198.816 28.1002 194.984 40.224C191.152 52.3478 192.828 49.4554 192.828 49.4554C192.828 49.4554 208.311 53.2587 209.278 54.9142C209.974 56.1451 206.672 71.5984 204.817 79.9804C203.881 84.1961 200.357 87.4765 196.192 87.5257C195.612 87.5384 195.032 87.4784 194.467 87.3472C190.604 86.4117 171.609 78.5035 171.609 78.5035L163.458 76.528L170.642 46.9137Z" fill="#ECECEC"/>
<path d="M157.747 41.061L152.837 74.0293L160.926 75.9802L168.578 44.372L157.747 41.061Z" fill="#ECECEC"/>
<path d="M228.229 19.0411L231.31 17.9951L234.84 6.33901L232.745 0.184776C232.745 0.184776 237.409 -1.72932 239.596 6.5112C241.783 14.7517 241.685 12.4933 241.685 12.4933C241.685 12.4933 251.814 9.08977 252.953 9.68057C253.785 10.1114 257.488 20.0505 259.453 25.4601C260.439 28.1865 259.626 31.3067 257.297 32.8452C256.973 33.06 256.623 33.2336 256.256 33.3621C253.736 34.2237 240.145 36.5624 240.145 36.5624L234.815 38.4087L228.229 19.0411Z" fill="#E1E1E1"/>
<path d="M218.828 20.3582L227.909 40.7718L233.189 38.9748L226.147 18.3396L218.828 20.3582Z" fill="#E1E1E1"/>
<path d="M327.422 388.123L310.337 437.055H318.877L348.776 388.123H327.422Z" fill="#ECECEC"/>
<path d="M425.419 388.123L442.504 437.055H433.958L404.065 388.123H425.419Z" fill="#ECECEC"/>
<path d="M466.045 253.019H329.554V389.36H466.045V253.019Z" fill="#ECECEC"/>
<path d="M423.281 253.019H286.79V389.36H423.281V253.019Z" fill="#F5F5F5"/>
<path d="M413.91 380.59H296.173V262.983H413.91V380.59ZM297.214 379.55H412.869V264.054H297.214V379.55Z" fill="#E1E1E1"/>
<path d="M297.374 300.019C316.677 300.579 336.066 300.075 355.381 300.081C374.695 300.087 394.059 300.37 413.387 300.044C413.458 300.044 413.528 300.015 413.578 299.964C413.629 299.914 413.658 299.845 413.658 299.773C413.658 299.701 413.629 299.632 413.578 299.582C413.528 299.531 413.458 299.502 413.387 299.502C394.059 299.176 374.708 299.459 355.381 299.465C336.053 299.471 316.677 298.967 297.374 299.527C297.309 299.527 297.246 299.553 297.2 299.599C297.154 299.645 297.128 299.708 297.128 299.773C297.128 299.838 297.154 299.901 297.2 299.947C297.246 299.993 297.309 300.019 297.374 300.019Z" fill="#E1E1E1"/>
<path d="M358.362 282.621C358.364 283.279 358.169 283.922 357.804 284.47C357.439 285.017 356.92 285.444 356.312 285.696C355.703 285.949 355.034 286.015 354.388 285.887C353.742 285.759 353.149 285.442 352.683 284.977C352.217 284.512 351.9 283.919 351.772 283.274C351.644 282.629 351.71 281.96 351.963 281.353C352.215 280.745 352.643 280.226 353.191 279.861C353.739 279.497 354.383 279.302 355.042 279.304C355.922 279.304 356.767 279.653 357.39 280.276C358.012 280.898 358.362 281.741 358.362 282.621Z" fill="#ECECEC"/>
<path d="M310.504 335.874C310.504 336.53 310.309 337.171 309.944 337.717C309.579 338.262 309.06 338.687 308.454 338.938C307.847 339.189 307.179 339.255 306.535 339.127C305.891 338.999 305.299 338.683 304.835 338.219C304.37 337.755 304.054 337.164 303.926 336.521C303.798 335.877 303.863 335.21 304.115 334.604C304.366 333.998 304.792 333.48 305.338 333.116C305.884 332.751 306.526 332.557 307.183 332.557C308.064 332.557 308.908 332.906 309.531 333.528C310.154 334.15 310.504 334.994 310.504 335.874Z" fill="#ECECEC"/>
<path d="M417.478 217.614L431.74 254.059L422.875 254.022L415.765 231.621L417.478 217.614Z" fill="#E1E1E1"/>
<path d="M368.762 183.932L363.864 253.776L414.483 254.828L420.182 183.932H368.762Z" fill="#ECECEC"/>
<path d="M373.827 189.557L369.748 247.69L407.38 249.45L412.635 189.212L373.827 189.557Z" fill="#FAFAFA"/>
<path d="M382.089 197.779L379.033 238.637H399.795L403.455 197.779H382.089Z" fill="#E1E1E1"/>
<path d="M111.274 10.6038H21.884V103.687H111.274V10.6038Z" fill="#E1E1E1"/>
<path d="M105.224 10.6038H15.834V103.687H105.224V10.6038Z" fill="#ECECEC"/>
<path d="M93.2041 23.1152H27.8479V91.1688H93.2041V23.1152Z" fill="#FAFAFA"/>
<path d="M27.8541 91.6243C27.3695 92.2917 26.8206 92.9101 26.2152 93.4705C25.1678 94.5598 23.6954 96.0494 22.0565 97.6679C20.4177 99.2865 18.9021 100.745 17.7931 101.76C17.2322 102.352 16.613 102.886 15.9448 103.354C16.4205 102.683 16.9656 102.065 17.5713 101.508C18.6186 100.413 20.0911 98.9293 21.7423 97.3046C23.3935 95.6799 24.9029 94.2277 26.0119 93.2061C26.5708 92.6179 27.188 92.0878 27.8541 91.6243Z" fill="#E1E1E1"/>
<path d="M93.2102 91.458C93.8783 91.9398 94.4974 92.4863 95.0585 93.0891C96.1552 94.1353 97.6462 95.6061 99.2665 97.2492C100.887 98.8924 102.347 100.4 103.364 101.508C103.954 102.07 104.489 102.689 104.959 103.354C104.292 102.874 103.673 102.33 103.111 101.73C102.014 100.677 100.523 99.2064 98.903 97.5633C97.2826 95.9201 95.8225 94.406 94.7998 93.2983C94.2084 92.7408 93.6757 92.1241 93.2102 91.458Z" fill="#E1E1E1"/>
<path d="M93.0317 23.2998C93.5131 22.6317 94.06 22.0132 94.6644 21.4535C95.7117 20.3581 97.1842 18.875 98.8292 17.2564C100.474 15.6379 101.978 14.1794 103.087 13.1639C103.648 12.5728 104.267 12.0389 104.935 11.5701C104.454 12.237 103.909 12.8553 103.308 13.4163C102.255 14.5056 100.782 15.9947 99.1373 17.6194C97.4923 19.2442 95.9767 20.6966 94.8677 21.7183C94.3093 22.3045 93.6943 22.8341 93.0317 23.2998Z" fill="#E1E1E1"/>
<path d="M27.6753 23.466C27.0064 22.9851 26.3872 22.4388 25.8269 21.8351C24.7303 20.7889 23.2455 19.3182 21.6252 17.675C20.0048 16.0318 18.5446 14.5241 17.5281 13.4163C16.9354 12.8561 16.4008 12.2375 15.9324 11.5701C16.6012 12.0486 17.2204 12.5927 17.7807 13.1946C18.8773 14.2408 20.3683 15.7178 21.9948 17.361C23.6213 19.0042 25.0753 20.5182 26.0981 21.626C26.6831 22.1861 27.2114 22.8023 27.6753 23.466Z" fill="#E1E1E1"/>
<path d="M93.0316 91.1749C93.0316 91.1749 93.0316 91.0579 93.0316 90.8425C93.0316 90.6272 93.0316 90.3009 93.0316 89.8948C93.0316 89.0516 93.0316 87.8208 93.0316 86.2022C93.0316 82.9836 93.0316 78.2942 92.9761 72.3369C92.9761 60.4161 92.9084 43.4119 92.8653 23.103L93.0809 23.3184H27.9095L28.1498 23.0723C28.1498 48.0524 28.1498 71.4197 28.1498 91.1256L27.9403 90.9165L75.1461 91.0274L88.3923 91.0826H91.8979H92.8037C93.007 91.0826 93.1179 91.0826 93.1179 91.0826H92.7728H91.8918H88.4293L75.2201 91.1379L27.8849 91.2488H27.6692V91.0334C27.6692 71.3398 27.6692 47.9537 27.6692 22.9798V22.7336H27.9218L93.0932 22.7706H93.3088V22.9798C93.2596 43.3811 93.2225 60.41 93.1979 72.3615C93.1979 78.3003 93.1548 82.9715 93.1425 86.1779C93.1425 87.7595 93.1425 88.9718 93.1425 89.8088C93.1425 90.2027 93.1425 90.5104 93.1425 90.732C93.1425 90.9535 93.0316 91.1749 93.0316 91.1749Z" fill="#E1E1E1"/>
<path d="M45.0989 51.5479C45.0989 51.5479 43.7003 68.3981 61.9678 68.3981C61.9678 59.4067 54.5745 52.3048 45.0989 51.5479Z" fill="#ECECEC"/>
<path d="M78.5286 51.5603C78.5286 51.5603 61.6597 50.1632 61.6597 68.4105C70.6609 68.4105 77.7646 60.9947 78.5286 51.5603Z" fill="#ECECEC"/>
<path d="M61.1606 42.3413C61.1606 42.3413 47.3784 54.6928 61.9123 68.3982C68.6709 61.2409 68.1287 50.0279 61.1606 42.3413Z" fill="#E1E1E1"/>
<path d="M467 439.123C467 439.271 365.651 439.394 240.662 439.394C115.673 439.394 14.2998 439.271 14.2998 439.123C14.2998 438.976 115.624 438.852 240.662 438.852C365.7 438.852 467 438.976 467 439.123Z" fill="#1A2E35"/>
<path d="M82.6933 223.584C67.8328 200.881 70.0015 168.442 87.7453 147.886C93.2532 141.511 100.955 135.972 109.352 136.692C117.977 137.424 124.884 144.791 127.496 153.007C130.109 161.223 129.209 170.122 127.669 178.608C125.519 190.486 121.914 202.641 113.665 211.46C105.415 220.279 93.2964 229.344 82.6933 223.559" fill="#10DD8E"/>
<path d="M90.9246 332.87C85.3242 319.823 89.3843 303.33 100.394 294.339C103.807 291.551 108.28 289.415 112.537 290.523C116.906 291.68 119.801 296.105 120.405 300.573C121.009 305.041 119.734 309.546 118.175 313.78C115.988 319.706 113.03 325.639 107.978 329.437C102.926 333.234 95.8596 336.821 90.9246 332.87Z" fill="#10DD8E"/>
<path d="M55.0735 325.073C59.1582 304.942 48.5427 282.732 30.2999 273.261C24.6379 270.319 17.6636 268.577 11.9585 271.414C6.11786 274.338 3.33313 281.458 3.77673 287.969C4.22032 294.48 7.36858 300.487 10.8311 306.026C15.6736 313.78 21.619 321.319 29.8933 325.221C38.1675 329.123 49.239 332.101 55.0735 325.061" fill="#10DD8E"/>
<path d="M57.655 270.645C64.771 247.708 52.7261 219.903 32.5981 206.745C26.3569 202.659 18.4277 199.816 11.4843 202.468C4.34979 205.188 0.246475 213.14 0.0185168 220.765C-0.209441 228.39 2.73554 235.75 6.11179 242.594C10.8373 252.182 16.8628 261.672 26.0305 267.149C35.1981 272.626 50.0584 278.147 57.655 270.645Z" fill="#10DD8E"/>
<path d="M71.9363 382.744C71.82 382.384 71.7436 382.013 71.7083 381.637C71.579 380.8 71.4249 379.741 71.2278 378.436C71.1292 377.729 71.0244 376.959 70.9074 376.122C70.7903 375.285 70.5685 374.368 70.3837 373.396C70.0079 371.439 69.6197 369.205 68.979 366.78L68.0548 362.952C67.6646 361.64 67.2539 360.275 66.8226 358.86C66.0525 356.016 64.925 353.075 63.8653 349.936C58.8606 336.441 52.0192 323.699 43.5339 312.069C41.5007 309.454 39.6709 306.881 37.7179 304.684L34.9639 301.422L32.29 298.536C30.6204 296.69 28.9692 295.108 27.5399 293.711L25.556 291.766L23.8063 290.222L21.4035 288.055C21.1096 287.815 20.8412 287.544 20.6025 287.249C20.9345 287.433 21.2446 287.654 21.5267 287.907L24.0527 289.938L25.901 291.422L27.9465 293.317C29.4128 294.677 31.1071 296.209 32.8198 298.062L35.5554 300.924L38.3648 304.167C40.3548 306.364 42.2216 308.931 44.2856 311.552C52.9142 323.193 59.8063 336.023 64.7463 349.641C65.7937 352.804 66.9027 355.795 67.6358 358.651C68.0466 360.074 68.4327 361.451 68.7941 362.78L69.6628 366.639C70.2789 369.1 70.6055 371.341 70.932 373.316C71.0861 374.295 71.2401 375.211 71.3756 376.067L71.6159 378.399C71.7391 379.716 71.8377 380.787 71.9116 381.624C71.9677 381.995 71.976 382.371 71.9363 382.744Z" fill="#1A2E35"/>
<path d="M71.4125 386.868C71.3925 386.714 71.3925 386.559 71.4125 386.406C71.4433 386.049 71.4741 385.612 71.5111 385.077C71.6281 383.846 71.7822 382.135 71.9855 379.981C72.0902 378.873 72.2134 377.643 72.3428 376.289C72.4722 374.935 72.4845 373.47 72.5646 371.894C72.6816 368.743 72.9835 365.162 72.8726 361.192C72.8726 359.206 72.8726 357.13 72.8726 354.964C72.8726 352.798 72.6509 350.551 72.54 348.225C72.3798 343.554 71.7452 338.612 71.1845 333.393C68.2824 310.781 61.7522 288.783 51.845 268.245C49.4669 263.568 47.3044 259.069 44.8831 255.075C43.7063 253.062 42.6528 251.062 41.4884 249.241L38.1183 243.997C36.042 240.612 33.8056 237.769 32.0127 235.196C31.0886 233.916 30.2568 232.704 29.4374 231.633L27.1208 228.747L23.9479 224.734L23.1408 223.669C23.0387 223.555 22.9537 223.426 22.8882 223.288C22.8882 223.288 23.0114 223.386 23.2147 223.608C23.4181 223.829 23.7446 224.223 24.0958 224.605L27.4166 228.513L29.8009 231.35C30.645 232.408 31.5013 233.609 32.4501 234.87C34.2984 237.424 36.5718 240.243 38.6912 243.621L42.1291 248.84C43.3121 250.687 44.3841 252.662 45.5855 254.668C48.0499 258.669 50.2432 263.167 52.6522 267.851C62.6945 288.442 69.2563 310.551 72.0717 333.283C72.6139 338.52 73.2238 343.493 73.347 348.176C73.4394 350.521 73.6243 352.773 73.6243 354.946C73.6243 357.118 73.6243 359.204 73.6243 361.198C73.6921 365.18 73.3409 368.774 73.1684 371.931C73.0637 373.507 73.002 375.009 72.8665 376.326C72.7309 377.643 72.5584 378.892 72.4229 380.018C72.1456 382.16 71.93 383.858 71.7698 385.101C71.6898 385.631 71.6281 386.061 71.5727 386.418C71.5428 386.576 71.4887 386.727 71.4125 386.868Z" fill="#1A2E35"/>
<path d="M110.104 164.134C110.056 164.282 109.992 164.424 109.913 164.558L109.297 165.752C108.681 166.854 107.83 168.368 106.758 170.282C106.21 171.266 105.526 172.331 104.91 173.55L102.926 177.544C102.205 178.978 101.441 180.51 100.634 182.128C99.8272 183.747 99.1187 185.544 98.2993 187.384C97.4798 189.224 96.6112 191.144 95.7918 193.181C94.9723 195.219 94.1714 197.366 93.3273 199.576L92.0335 202.948L90.8013 206.475C89.9799 208.871 89.1584 211.332 88.3369 213.86C85.1825 224.039 82.1759 235.369 79.7115 247.4C77.2471 259.432 75.5589 271.045 74.2959 281.624C73.2116 292.222 72.4106 301.792 72.1888 309.848C71.9855 313.872 71.9424 317.516 71.9301 320.716C71.9178 323.916 71.8685 326.679 71.9301 328.932C71.9917 331.184 71.9855 332.858 72.004 334.126C72.004 334.667 72.004 335.111 72.004 335.474C72.0161 335.628 72.0036 335.784 71.967 335.935C71.9282 335.786 71.9075 335.634 71.9054 335.48L71.813 334.132C71.7514 332.864 71.6672 331.133 71.5604 328.938C71.4248 326.686 71.3818 323.928 71.3818 320.716C71.3818 317.503 71.3386 313.86 71.4988 309.823C71.6282 301.749 72.3614 292.154 73.3964 281.513C74.6286 270.904 76.3044 259.278 78.7503 247.191C81.1963 235.104 84.2952 223.768 87.5051 213.577C88.3718 211.053 89.2159 208.592 90.0374 206.192C90.4502 204.992 90.8568 203.816 91.2696 202.653C91.6824 201.49 92.1567 200.388 92.5941 199.28L95.1202 192.886C95.9643 190.855 96.8822 188.941 97.6955 187.095C98.5088 185.249 99.2974 183.489 100.098 181.858L102.464 177.291L104.528 173.322C105.187 172.091 105.865 171.057 106.438 170.085L109.143 165.641L109.864 164.497C110.007 164.25 110.087 164.13 110.104 164.134Z" fill="#1A2E35"/>
<path d="M105.052 303.441C104.598 304.404 104.068 305.33 103.468 306.21C102.384 307.946 100.893 310.518 99.1556 313.719C97.4182 316.919 95.459 320.839 93.5244 325.258C89.3562 334.883 86.2572 344.935 84.2829 355.235C83.3957 359.98 82.7734 364.294 82.4345 367.937C82.0957 371.581 81.8493 374.528 81.7692 376.553C81.7668 377.619 81.6803 378.683 81.5104 379.735C81.3865 378.677 81.3474 377.611 81.3934 376.547C81.3564 374.492 81.4673 371.519 81.7507 367.851C82.0341 364.183 82.5762 359.851 83.4203 355.05C85.3163 344.662 88.4499 334.539 92.7543 324.895C94.5088 320.961 96.4602 317.118 98.6011 313.38C100.449 310.198 102.027 307.675 103.216 305.995C103.759 305.096 104.373 304.242 105.052 303.441Z" fill="#1A2E35"/>
<path d="M42.7515 372.522H108.028L100.129 439.123H50.8779L42.7515 372.522Z" fill="#375A64"/>
<path d="M45.1296 431.935L50.6746 439.123H100.129L105.834 432.163L45.1296 431.935Z" fill="#1A2E35"/>
<path d="M105.489 392.111C105.489 392.382 91.935 392.597 75.2324 392.597C58.5298 392.597 44.9756 392.382 44.9756 392.111C44.9756 391.84 58.5298 391.625 75.2324 391.625C91.935 391.625 105.489 391.847 105.489 392.111Z" fill="#FAFAFA"/>
<path d="M105.489 396.548C105.489 396.813 91.935 397.034 75.2324 397.034C58.5298 397.034 44.9756 396.813 44.9756 396.548C44.9756 396.284 58.5298 396.062 75.2324 396.062C91.935 396.062 105.489 396.277 105.489 396.548Z" fill="#FAFAFA"/>
<path d="M104.67 400.838C104.67 401.108 91.6023 401.324 75.4789 401.324C59.3555 401.324 46.2817 401.108 46.2817 400.838C46.2817 400.567 59.3493 400.352 75.4789 400.352C91.6084 400.352 104.67 400.573 104.67 400.838Z" fill="#FAFAFA"/>
<path d="M319.129 116.112L328.321 99.9322C322.636 90.7176 320.607 79.7125 322.633 69.0795C324.659 58.4466 330.593 48.955 339.269 42.4706C347.945 35.9861 358.735 32.9777 369.519 34.0367C380.303 35.0958 390.3 40.1456 397.546 48.1936C404.791 56.2416 408.761 66.7058 408.676 77.5293C408.59 88.3527 404.454 98.7528 397.081 106.685C389.709 114.617 379.633 119.508 368.833 120.396C358.034 121.284 347.293 118.105 338.721 111.484L319.129 116.112Z" fill="#FAFAFA"/>
<path d="M319.129 116.112L338.703 111.367L338.629 111.582L338.013 110.77L338.832 111.386C341.577 113.486 344.559 115.257 347.716 116.666C351.471 118.327 355.444 119.444 359.514 119.983C361.76 120.288 364.028 120.395 366.292 120.303C367.462 120.229 368.651 120.198 369.853 120.094L373.475 119.534C384.263 117.391 393.83 111.231 400.239 102.302C403.798 97.3668 406.26 91.7285 407.46 85.7653C408.687 79.4612 408.51 72.9646 406.942 66.7364C405.32 60.2318 402.174 54.2055 397.762 49.1539L396.012 47.2337C395.439 46.5875 394.78 46.0522 394.127 45.4613C393.474 44.8705 392.895 44.2613 392.186 43.7689L390.135 42.2304C389.459 41.7148 388.749 41.2458 388.009 40.827L385.834 39.5102L383.561 38.4023C382.82 38.015 382.054 37.6759 381.269 37.3869C375.175 34.9763 368.616 33.9646 362.078 34.4267C355.892 34.8419 349.872 36.6088 344.445 39.6025C334.692 45.0146 327.388 53.9543 324.033 64.5825C322.693 69.1097 322.049 73.8138 322.123 78.5341C322.229 82.6339 322.919 86.698 324.175 90.6027C325.233 93.8503 326.663 96.9646 328.438 99.8834L328.481 99.9447L328.444 100.013C322.499 110.302 319.603 115.33 319.135 116.131C319.591 115.324 322.419 110.259 328.216 99.8834V100.019C326.42 97.0914 324.973 93.9642 323.904 90.701C322.614 86.7704 321.899 82.6749 321.778 78.5404C321.684 73.7782 322.32 69.0297 323.663 64.4596C327.022 53.708 334.386 44.6553 344.235 39.1716C349.701 36.1306 355.769 34.326 362.01 33.8852C368.627 33.4127 375.266 34.4328 381.435 36.8701C382.232 37.1643 383.01 37.5075 383.764 37.8978L386.062 39.0177L388.262 40.3531C389.015 40.7722 389.736 41.2475 390.418 41.7748L392.501 43.3257C393.209 43.8303 393.801 44.4706 394.46 45.0367C395.119 45.6029 395.785 46.1814 396.37 46.8337L398.138 48.7786C402.61 53.892 405.795 59.998 407.429 66.5889C409.02 72.8915 409.194 79.4676 407.94 85.8455C406.723 91.88 404.225 97.5837 400.615 102.573C394.119 111.597 384.426 117.81 373.506 119.946L369.84 120.494C368.608 120.598 367.425 120.629 366.248 120.691C363.955 120.78 361.658 120.665 359.385 120.346C355.282 119.789 351.279 118.647 347.5 116.955C344.328 115.523 341.335 113.721 338.585 111.588L338.777 111.398L338.906 111.564L338.703 111.613L319.129 116.112Z" fill="#1A2E35"/>
<path d="M346.447 75.9371C346.447 71.1737 350.144 67.6472 355.226 67.6472C360.309 67.6472 364.012 71.1491 364.012 75.9371C364.012 80.7251 360.272 84.233 355.226 84.233C350.181 84.233 346.447 80.7005 346.447 75.9371ZM360.254 75.9371C360.232 74.9489 359.919 73.9891 359.353 73.1779C358.788 72.3668 357.995 71.7405 357.075 71.3773C356.154 71.0142 355.147 70.9302 354.179 71.1363C353.212 71.3424 352.326 71.8292 351.634 72.5357C350.942 73.2423 350.474 74.137 350.289 75.108C350.104 76.079 350.21 77.0831 350.593 77.9943C350.977 78.9055 351.621 79.6833 352.445 80.2303C353.269 80.7774 354.237 81.0694 355.226 81.0696C355.9 81.0837 356.569 80.9598 357.193 80.7054C357.817 80.451 358.381 80.0716 358.853 79.5906C359.324 79.1096 359.691 78.5371 359.932 77.9087C360.173 77.2803 360.283 76.6094 360.254 75.9371Z" fill="#1A2E35"/>
<path d="M372.668 77.6542L370.506 79.9004V83.9559H366.809V67.918H370.506V75.4079L377.622 67.918H381.75L375.096 75.0693L382.138 83.9559H377.825L372.668 77.6542Z" fill="#1A2E35"/>
<path d="M289.223 141.726C286.482 148.533 286.568 162.65 291.121 168.38C293.499 171.389 296.727 173.783 298.422 177.23C300.634 181.747 299.691 187.372 296.912 191.563C294.134 195.754 289.778 198.684 285.206 200.751C280.087 203.053 273.833 204.327 269.058 201.367C265.411 199.114 263.513 194.905 262.318 190.781C259.047 179.248 260.236 166.817 263.63 155.321C267.025 143.824 272.545 133.079 278.029 122.414" fill="#1A2E35"/>
<path d="M304.417 237.271L328.833 222.384C328.833 222.384 310.35 186.689 307.497 185.415C304.644 184.141 267.284 178.615 267.284 178.615C255.898 196.493 241.648 192.086 227.287 180.159C225.999 180.412 203.4 185.563 197.492 186.314C191.583 187.064 174.622 214.149 174.622 214.149L193.918 247.856L195.379 282.775C195.379 282.775 196.432 307.607 192.347 320.427L294.621 323.744C293.499 318.419 292.711 313.03 292.261 307.607C291.885 303.299 290.696 298.942 291.589 293.366C294.436 275.673 304.417 237.271 304.417 237.271Z" fill="#10DD8E"/>
<path d="M186.568 196.874C188.102 202.019 201.17 209.632 205.729 206.789C207.177 205.884 208.422 204.524 210.103 204.198C212.204 203.791 214.201 205.121 216.234 205.797C220.996 207.367 227.12 205.613 230.558 209.263C232.246 211.053 233.324 214.118 235.789 214.05C236.682 214.05 237.489 213.546 238.352 213.336C241.118 212.653 243.798 214.758 246.638 214.961C248.129 214.976 249.61 214.726 251.013 214.223L271.424 208.247C272.903 207.81 274.566 207.225 275.189 205.816C272.741 206.586 270.102 206.474 267.728 205.502C266.391 204.942 265.146 204.111 263.729 203.822C260.125 203.09 256.847 205.958 253.255 206.795C249.485 207.681 245.597 206.272 241.981 204.881L223.498 197.779C218.396 195.815 213.166 193.784 209.112 190.129C207.824 188.966 202.951 191.403 201.466 190.566C199.981 189.729 196.451 186.682 196.451 186.682C196.13 186.455 193.308 188.984 192.082 190.314C190.733 191.748 186.568 196.874 186.568 196.874Z" fill="#10DD8E"/>
<path d="M195.379 282.793C199.913 280.873 207.701 277.87 212.549 276.953C216.117 276.175 219.79 275.992 223.417 276.411C225.223 276.676 227.083 277.162 228.833 276.645C230.484 276.159 231.759 274.848 233.306 274.091C237.73 271.913 243.028 274.627 247.914 273.987C249.143 273.905 250.297 273.367 251.148 272.479C251.925 271.537 252.023 269.974 251.087 269.186C250.512 268.786 249.828 268.571 249.127 268.571C246.794 268.415 244.451 268.444 242.122 268.657L238.364 268.897C236.804 269.081 235.225 269.01 233.688 268.688C232.178 268.282 230.854 267.408 229.424 266.774C224.409 264.571 218.643 265.543 213.215 266.319C210.51 266.7 207.725 267.014 205.064 266.399C204.164 266.103 203.226 265.941 202.279 265.918C200.689 266.017 199.346 267.186 197.775 267.451C196.204 267.716 196.106 264.7 194.608 264.374L195.379 282.793Z" fill="#10DD8E"/>
<path d="M294.99 236.003C294.426 236.37 293.8 236.633 293.142 236.778C290.191 237.191 288.385 232.002 285.558 232.95C284.461 233.319 283.759 234.575 282.607 234.704C281.313 234.852 280.376 233.541 279.193 233.018C277.074 232.076 274.751 233.763 272.416 233.947C269.81 234.15 266.766 232.526 264.826 234.273C264.068 234.956 263.593 236.083 262.645 236.347C261.696 236.612 260.796 235.947 259.872 235.67C257.05 234.827 254.444 237.547 251.542 238.052C248.234 238.618 244.285 236.391 241.765 238.6C240.872 239.388 240.323 240.655 239.177 240.981C238.031 241.308 237.015 240.625 235.912 240.625C233.374 240.625 231.032 243.966 228.895 242.6C229.122 243.831 230.392 244.582 231.618 244.729C232.858 244.779 234.099 244.675 235.314 244.422C242.511 243.536 249.824 248.213 256.804 246.268C258.726 245.726 260.501 244.693 262.521 244.551C266.218 244.28 269.625 247.167 273.353 247.013C276.261 246.902 278.959 244.957 281.849 245.289C284.831 245.628 286.981 248.231 289.686 249.517C292.926 251.056 296.721 250.607 300.276 250.133L301.299 249.887C302.876 245.259 304.281 240.581 304.872 235.732C303.314 235.022 301.613 234.677 299.9 234.723C298.187 234.77 296.508 235.208 294.99 236.003Z" fill="#10DD8E"/>
<path d="M286.605 298.271C285.188 298.271 283.919 299.09 282.717 299.847C281.516 300.604 280.185 301.354 278.774 301.201C276.217 300.924 273.919 297.785 271.683 299.053C271.122 299.482 270.599 299.958 270.118 300.475C268.547 301.748 266.064 301.391 264.573 302.758C263.803 303.459 263.384 304.561 262.435 305.004C260.655 305.835 258.967 303.773 257.174 302.973C254.358 301.712 251.161 303.669 248.074 303.589C246.509 303.589 244.858 303.022 243.435 303.669C242.709 304.101 242.021 304.593 241.377 305.139C239.023 306.715 235.832 305.983 233.22 304.936C230.607 303.89 227.835 302.561 225.056 303.09C224.286 303.244 223.405 303.706 223.424 304.512C223.451 304.818 223.559 305.111 223.738 305.361C225.389 308.069 228.537 309.46 231.587 310.34C234.926 311.306 238.457 311.872 241.445 313.675C243.33 314.82 245.314 316.512 247.445 315.928C249.121 315.472 250.156 313.718 251.758 313.097C254.056 312.21 256.773 313.817 259.047 312.869C259.804 312.555 260.433 311.977 261.209 311.694C263.218 310.967 265.46 312.432 267.543 311.958C268.288 311.792 268.991 311.373 269.755 311.38C271.738 311.38 273.032 314.112 274.998 313.841C276.23 313.681 277.037 312.401 278.238 312.174C279.834 311.884 281.639 313.491 282.927 312.512C283.216 312.291 283.457 311.946 283.82 311.897C284.332 311.848 284.646 312.408 284.954 312.82C286.352 314.666 290.647 313.478 292.815 312.635L291.404 300.191C291.435 298.634 288.028 298.271 286.605 298.271Z" fill="#10DD8E"/>
<g opacity="0.3">
<path opacity="0.3" d="M198.847 197.317C196.906 203.434 196.143 210.13 198.077 216.254C198.97 219.085 200.412 221.712 201.651 224.414C205.87 233.681 207.664 243.867 206.863 254.016C206.797 254.359 206.84 254.714 206.986 255.031C207.399 255.702 208.428 255.456 209.148 255.13L213.763 253.025C215.759 254.65 216.061 257.863 218.273 259.18C220.614 260.57 223.559 259.019 225.759 257.413C230.601 253.875 235.197 249.745 238.007 244.446C239.935 240.809 240.946 236.766 241.931 232.753C242.806 229.227 243.681 225.7 244.223 222.106C246.33 207.876 243.237 193.364 235.512 181.224" fill="#10DD8E"/>
</g>
<path d="M296.654 202.801C296.75 202.971 296.825 203.153 296.875 203.342C297.023 203.761 297.202 204.29 297.424 204.93L299.334 210.814L302.094 219.552C303.275 223.12 304.155 226.78 304.725 230.495C305.167 234.247 304.982 238.047 304.176 241.739C303.528 244.737 302.65 247.681 301.552 250.545C300.634 253.007 299.802 254.939 299.217 256.275C298.933 256.89 298.705 257.401 298.527 257.807C298.456 257.992 298.362 258.168 298.249 258.33C298.283 258.135 298.341 257.945 298.422 257.764C298.582 257.352 298.779 256.829 299.038 256.195C299.562 254.835 300.338 252.871 301.213 250.416C302.242 247.553 303.066 244.62 303.677 241.64C304.445 237.999 304.616 234.258 304.182 230.562C303.612 226.878 302.753 223.244 301.613 219.694C300.615 216.414 299.722 213.441 298.958 210.924L297.214 204.998C297.036 204.339 296.888 203.804 296.765 203.373C296.705 203.187 296.668 202.995 296.654 202.801Z" fill="#10DD8E"/>
<g opacity="0.3">
<path opacity="0.3" d="M305.661 233.566C307.287 228.642 306.801 223.189 305.156 218.26C303.511 213.33 300.788 208.844 297.917 204.511C299.346 214.358 303.868 223.62 304.755 233.535" fill="#10DD8E"/>
</g>
<g opacity="0.3">
<path opacity="0.3" d="M222.5 296.604C226.732 290.652 232.905 286.252 239.596 283.31C246.287 280.369 253.502 278.805 260.735 277.772C263.606 277.359 266.717 277.064 269.225 278.516C271.732 279.969 272.921 283.889 270.74 285.79C269.644 286.744 268.079 286.911 266.625 287.021C256.601 287.741 246.016 287.778 237.354 292.868C233.928 294.88 230.885 297.65 227.102 298.862C225.383 299.416 222.845 299.108 222.672 297.317" fill="#10DD8E"/>
</g>
<path d="M273.587 276.417C273.384 276.46 273.177 276.479 272.971 276.473L271.233 276.51H270.001L268.51 276.608C267.45 276.688 266.23 276.725 264.9 276.928L262.805 277.187C262.084 277.291 261.332 277.445 260.556 277.581C258.991 277.827 257.359 278.258 255.627 278.664C251.906 279.664 248.26 280.925 244.716 282.436C241.185 283.984 237.75 285.746 234.433 287.711C232.918 288.646 231.47 289.514 230.17 290.412C228.87 291.311 227.65 292.142 226.566 292.929C225.481 293.717 224.514 294.468 223.664 295.114C222.814 295.76 222.099 296.345 221.514 296.819L220.164 297.908C220.011 298.042 219.843 298.16 219.665 298.259C219.79 298.097 219.932 297.951 220.09 297.822L221.378 296.659C221.939 296.154 222.61 295.545 223.473 294.88C224.335 294.215 225.241 293.415 226.338 292.622C227.434 291.828 228.599 290.923 229.917 290.043C231.236 289.163 232.659 288.234 234.175 287.286C237.497 285.281 240.946 283.495 244.5 281.938C248.069 280.418 251.745 279.161 255.498 278.178C257.248 277.784 258.893 277.365 260.47 277.137C261.258 277.014 262.01 276.867 262.743 276.774L264.85 276.547C266.193 276.368 267.419 276.356 268.491 276.301C269.027 276.301 269.526 276.251 269.989 276.251H271.221L272.958 276.313C273.171 276.322 273.382 276.357 273.587 276.417Z" fill="#10DD8E"/>
<g opacity="0.3">
<path opacity="0.3" d="M189.088 221.011C186.439 224.703 186.137 229.627 187.24 234.027C188.343 238.427 190.665 242.385 192.969 246.28C193.28 242.38 192.979 238.456 192.076 234.649C190.986 230.089 189.026 225.651 189.033 220.962" fill="#10DD8E"/>
</g>
<path d="M263.292 80.3314C263.353 77.0081 267.149 74.657 270.426 75.2108C273.704 75.7647 276.267 78.4295 277.819 81.3651C279.372 84.3007 280.087 87.5933 281.245 90.7073C284.325 99.0832 290.487 106.198 292.748 114.85C294.319 120.925 293.826 127.399 292.181 133.455C290.536 139.51 287.782 145.203 284.787 150.736C282.995 154.084 281.091 157.413 279.939 161.025C278.787 164.638 278.38 168.626 279.6 172.22C279.836 172.682 279.889 173.216 279.748 173.716C279.421 174.429 278.411 174.46 277.653 174.263C273.827 173.285 271.178 169.531 270.525 165.647C269.872 161.764 270.87 157.776 272.262 154.09C273.655 150.403 275.454 146.846 276.482 143.043C278.737 134.71 277.172 125.897 276.778 117.275C276.563 112.419 276.717 107.502 275.749 102.739C274.782 97.9754 272.509 93.2305 268.473 90.5042C266.902 89.4457 265.091 88.7011 263.766 87.3471C262.442 85.9932 261.776 83.6915 262.978 82.2206" fill="#1A2E35"/>
<path d="M266.711 176.824C266.711 176.824 266.6 171.789 266.606 171.845C266.612 171.9 281.528 169.008 284.165 149.413C285.484 139.671 284.615 123.768 283.488 110.776C282.471 99.0833 274.363 84.9285 262.713 86.4055L226.467 96.474C222.925 96.9356 221.76 99.9633 221.914 103.52L221.662 105.201L224.681 161.063L225.716 170.393C226.252 181.009 235.487 192.228 246.891 192.548C257.888 193.108 266.865 188.584 266.711 176.824Z" fill="#FFBF9D"/>
<path d="M276.815 123.38C276.837 124.032 276.604 124.667 276.164 125.15C275.724 125.633 275.114 125.925 274.461 125.965C274.143 125.998 273.821 125.967 273.515 125.873C273.209 125.78 272.925 125.627 272.679 125.422C272.433 125.217 272.231 124.965 272.084 124.681C271.938 124.397 271.849 124.086 271.825 123.768C271.801 123.115 272.034 122.479 272.474 121.996C272.914 121.513 273.525 121.221 274.178 121.183C274.496 121.15 274.818 121.181 275.124 121.274C275.43 121.367 275.715 121.521 275.961 121.726C276.206 121.93 276.409 122.182 276.555 122.466C276.702 122.751 276.79 123.061 276.815 123.38Z" fill="#1A2E35"/>
<path d="M280.13 119.669C279.822 120.008 277.893 118.647 275.201 118.715C272.509 118.783 270.562 120.18 270.272 119.86C270.124 119.718 270.426 119.121 271.276 118.475C272.423 117.639 273.8 117.176 275.219 117.152C276.623 117.112 278.002 117.522 279.156 118.321C279.982 118.937 280.278 119.521 280.13 119.669Z" fill="#1A2E35"/>
<path d="M253.884 124.715C253.582 125.048 251.647 123.688 248.955 123.762C246.262 123.835 244.315 125.226 244.026 124.9C243.884 124.759 244.18 124.162 245.03 123.515C246.178 122.678 247.558 122.218 248.979 122.198C250.38 122.161 251.756 122.568 252.91 123.362C253.736 123.983 254.031 124.562 253.884 124.715Z" fill="#1A2E35"/>
<path d="M263.988 140.009C263.988 139.861 265.645 139.529 268.35 139.116C269.04 139.03 269.687 138.876 269.792 138.408C269.896 137.941 269.637 137.178 269.286 136.378L267.124 131.19C264.117 123.804 261.924 117.712 262.226 117.595C262.528 117.478 265.202 123.374 268.208 130.765C268.929 132.611 269.625 134.322 270.284 135.984C270.562 136.759 271.03 137.639 270.703 138.679C270.609 138.924 270.46 139.144 270.268 139.323C270.076 139.503 269.845 139.636 269.594 139.713C269.216 139.824 268.824 139.886 268.43 139.898C265.701 140.113 264.006 140.162 263.988 140.009Z" fill="#1A2E35"/>
<path d="M266.606 171.845C257.408 172.202 248.29 170.003 240.268 165.494C240.268 165.494 247.199 179.113 266.711 176.823L266.606 171.845Z" fill="#FF9A6C"/>
<path d="M253.785 117.896C253.477 118.61 250.809 118.1 247.624 118.284C244.439 118.469 241.833 119.171 241.463 118.487C241.297 118.161 241.783 117.503 242.855 116.856C244.285 116.076 245.874 115.629 247.501 115.552C249.129 115.474 250.753 115.766 252.251 116.407C253.372 116.967 253.921 117.583 253.785 117.896Z" fill="#1A2E35"/>
<path d="M279.717 111.367C279.175 111.983 276.957 111.41 274.314 111.441C271.671 111.472 269.446 111.964 268.917 111.336C268.682 111.035 269.021 110.413 269.982 109.81C271.312 109.056 272.821 108.673 274.351 108.702C275.864 108.682 277.354 109.072 278.663 109.829C279.637 110.438 279.957 111.059 279.717 111.367Z" fill="#1A2E35"/>
<path d="M261.973 145.665C261.569 145.157 261.06 144.744 260.48 144.453C259.9 144.162 259.264 144 258.615 143.979C257.877 144 257.152 144.175 256.485 144.493C255.819 144.811 255.227 145.264 254.746 145.825L254.679 145.892C254.636 145.942 254.58 145.985 254.537 146.034H254.592C254.22 146.436 253.989 146.948 253.933 147.493C253.92 148.105 254.06 148.71 254.34 149.255C254.619 149.799 255.03 150.266 255.535 150.613C256.309 151.204 257.247 151.542 258.221 151.58C259.195 151.619 260.157 151.356 260.975 150.828C261.766 150.254 262.308 149.402 262.493 148.443C262.679 147.485 262.493 146.491 261.973 145.665Z" fill="#FF9A6C"/>
<path d="M254.98 143.055C255.134 143.055 255.257 143.671 255.689 144.563C256.212 145.712 257.075 146.674 258.16 147.321C259.246 147.967 260.503 148.268 261.764 148.182C262.749 148.145 263.365 147.954 263.433 148.096C263.501 148.237 262.953 148.662 261.862 148.908C260.414 149.216 258.903 148.966 257.631 148.208C256.359 147.451 255.422 146.241 255.005 144.821C254.709 143.744 254.851 143.055 254.98 143.055Z" fill="#1A2E35"/>
<path d="M267.167 86.7194C266.81 88.6641 267.857 90.6334 269.286 91.9935C270.716 93.3536 272.521 94.2522 274.215 95.2984C279.427 98.5417 281.996 105.637 284.436 111.262C288.749 103.108 282.126 92.5227 276.679 86.147C275.744 84.9513 274.587 83.9463 273.272 83.1867C272.612 82.8133 271.876 82.596 271.118 82.5512C270.361 82.5064 269.604 82.6353 268.904 82.9283" fill="#1A2E35"/>
<path d="M284.43 151.862C284.483 151.615 284.559 151.374 284.658 151.142C284.843 150.631 285.089 149.954 285.397 149.117C286.013 147.339 286.876 144.772 287.652 141.51C289.688 133.012 290.172 124.216 289.082 115.546C288.537 110.778 287.403 106.096 285.705 101.606C284.327 97.9428 282.095 94.66 279.193 92.0304C277.221 90.2765 274.876 88.9911 272.336 88.2703C271.395 88.0433 270.443 87.8645 269.483 87.7348C269.733 87.7105 269.985 87.7105 270.235 87.7348C270.959 87.7858 271.678 87.8948 272.385 88.0608C274.995 88.7243 277.413 89.9889 279.446 91.7534C282.064 93.9135 284.485 97.2922 286.167 101.434C287.911 105.954 289.071 110.678 289.618 115.49C291.111 126.887 289.73 138.475 285.601 149.203C285.249 150.077 284.954 150.742 284.757 151.197C284.673 151.43 284.563 151.653 284.43 151.862Z" fill="#375A64"/>
<path d="M286.186 165.912C286.144 165.841 286.113 165.764 286.093 165.684L285.865 164.995C285.615 164.095 285.464 163.171 285.416 162.238C285.237 159.813 285.835 156.225 287.757 152.317C289.679 148.409 292.975 144.378 296.191 139.701C297.913 137.283 299.29 134.638 300.282 131.842C301.261 128.818 301.636 125.631 301.385 122.463C301.142 119.293 300.269 116.203 298.816 113.373C297.4 110.764 295.659 108.345 293.635 106.173C289.815 101.963 285.983 98.4554 283.481 94.886C281.391 92.1572 279.92 89.0074 279.168 85.6546C278.897 84.425 278.816 83.1607 278.928 81.9065C278.981 83.1472 279.132 84.3818 279.378 85.599C280.201 88.8972 281.713 91.9844 283.814 94.6582C286.334 98.16 290.16 101.612 294.035 105.84C296.096 108.036 297.868 110.484 299.309 113.127C300.804 116.017 301.703 119.177 301.952 122.42C302.209 125.66 301.822 128.919 300.812 132.008C299.8 134.856 298.394 137.549 296.635 140.009C293.357 144.704 289.993 148.625 288.127 152.514C286.26 156.404 285.539 159.862 285.662 162.25C285.712 163.485 285.887 164.712 286.186 165.912Z" fill="#1A2E35"/>
<path d="M264.049 76.4908C260.71 74.1153 256.397 73.5861 252.3 73.6415C241.26 73.8015 230.053 78.017 222.666 86.2144C216.443 93.1195 207.263 106.413 205.501 115.54C201.262 137.75 215.316 143.972 203.869 178.651C201.805 184.898 199.198 191.003 197.929 197.459C197.477 199.761 197.271 202.104 197.313 204.45C195.976 208.512 196.796 213.195 198.453 217.232C200.4 221.977 203.382 226.242 205.23 231.018C207.078 235.793 211.194 243.628 208.459 247.96C212.321 246.933 212.457 242.901 215.519 240.335C216.423 243.78 216.396 247.403 215.439 250.834C220.237 250.503 224.794 248.612 228.414 245.449C235.567 239.16 237.81 229.067 238.888 219.602C241.278 198.942 238.943 179.137 233.46 159.075L233.38 159.173C229.394 146.342 221.846 134.495 228.624 131.67C240.434 126.746 229.652 121.564 234.168 109.164C235.573 105.293 237.144 101.194 240.447 98.7384C244.39 95.8089 249.719 95.9566 254.617 95.6612C259.515 95.3658 265.091 94.1103 267.389 89.7778L267.691 87.1808C269.366 83.5068 267.364 78.8602 264.049 76.4908Z" fill="#1A2E35"/>
<path d="M210.75 158.607C211.078 158.358 211.369 158.064 211.613 157.733C212.206 156.706 212.439 155.51 212.272 154.336C211.946 151.259 210.387 147.018 208.36 141.855C207.21 139.039 206.325 136.121 205.717 133.141C205.012 129.672 205.274 126.076 206.475 122.746C207.851 119.073 210.324 115.91 213.56 113.687C216.881 111.287 221.421 110.93 224.2 107.674C227.059 104.597 228.34 100.542 229.572 96.7752C230.152 94.8874 230.85 93.0375 231.661 91.2364C233.963 86.3081 237.635 82.1447 242.239 79.242C243.579 78.3734 245.03 77.6883 246.552 77.2049C247.969 76.7708 249.453 76.5955 250.933 76.6877C253.448 76.8912 255.914 77.5026 258.233 78.4973C259.999 79.1825 261.726 79.9608 263.409 80.8295C264.489 81.3772 265.427 82.1671 266.15 83.1374C266.397 83.4765 266.585 83.8555 266.705 84.2576C266.519 83.8937 266.313 83.5402 266.089 83.199C265.342 82.2778 264.402 81.532 263.335 81.0143C261.967 80.3004 260.193 79.5866 258.147 78.7804C255.852 77.8279 253.418 77.2501 250.939 77.0694C249.505 76.9954 248.07 77.1768 246.7 77.6049C245.219 78.0903 243.808 78.7689 242.504 79.6233C239.594 81.4925 237.049 83.8763 234.994 86.6577C233.888 88.158 232.936 89.7662 232.154 91.4579C231.36 93.2407 230.675 95.0701 230.102 96.9354C228.87 100.69 227.588 104.825 224.619 108.013C223.145 109.564 221.328 110.748 219.314 111.472C217.41 112.139 215.587 113.018 213.88 114.093C210.731 116.253 208.319 119.324 206.968 122.894C205.785 126.138 205.515 129.643 206.185 133.03C206.771 135.988 207.627 138.887 208.742 141.689C210.726 146.865 212.235 151.154 212.506 154.293C212.657 155.505 212.38 156.733 211.724 157.764C211.538 158.019 211.311 158.242 211.052 158.422C210.96 158.496 210.858 158.559 210.75 158.607Z" fill="#375A64"/>
<path d="M227.958 133.375C227.656 129.227 223.072 126.55 219.511 128.71C217.558 129.898 216.092 132.224 216.369 136.63C217.102 148.379 228.759 145.215 228.759 144.877C228.759 144.662 228.315 138.237 227.958 133.375Z" fill="#FFBF9D"/>
<path d="M224.89 140.655C224.834 140.618 224.693 140.809 224.354 140.987C223.881 141.228 223.333 141.274 222.826 141.117C221.557 140.735 220.362 138.833 220.195 136.716C220.102 135.711 220.234 134.697 220.583 133.75C220.671 133.376 220.849 133.03 221.102 132.74C221.354 132.451 221.673 132.227 222.031 132.088C222.26 132.012 222.509 132.019 222.734 132.106C222.959 132.194 223.146 132.357 223.263 132.568C223.442 132.888 223.387 133.128 223.448 133.147C223.51 133.165 223.689 132.931 223.565 132.451C223.478 132.166 223.298 131.917 223.054 131.743C222.714 131.521 222.301 131.44 221.902 131.516C221.002 131.639 220.238 132.519 219.875 133.473C219.441 134.522 219.268 135.66 219.37 136.79C219.598 139.153 220.947 141.295 222.678 141.677C222.998 141.748 223.331 141.747 223.65 141.674C223.97 141.6 224.27 141.456 224.526 141.252C224.884 140.969 224.933 140.674 224.89 140.655Z" fill="#FF9A6C"/>
<path d="M229.369 148.668C229.4 148.668 229.455 148.902 229.369 149.32C229.194 149.91 228.817 150.42 228.303 150.76C227.918 151.017 227.478 151.178 227.018 151.231C226.558 151.283 226.093 151.225 225.66 151.062C225.132 150.872 224.651 150.571 224.251 150.178C223.851 149.785 223.541 149.309 223.343 148.785C222.995 147.85 222.907 146.838 223.087 145.856C223.267 144.875 223.709 143.96 224.366 143.209C225.414 142.071 226.461 141.978 226.442 142.046C225.768 142.409 225.163 142.888 224.656 143.461C224.151 144.108 223.801 144.862 223.633 145.665C223.421 146.637 223.496 147.651 223.849 148.582C224.019 149.038 224.283 149.453 224.625 149.8C224.967 150.147 225.378 150.417 225.833 150.594C226.197 150.744 226.592 150.807 226.985 150.78C227.378 150.752 227.76 150.634 228.1 150.434C228.569 150.158 228.943 149.746 229.172 149.253C229.307 148.896 229.326 148.668 229.369 148.668Z" fill="white"/>
<path d="M264.875 88.5165C264.129 87.7308 263.303 87.0255 262.411 86.4118C259.845 84.8902 256.846 84.2604 253.884 84.6208C251.851 84.8255 249.876 85.4188 248.068 86.3686C246.002 87.5012 244.13 88.9554 242.523 90.6765C240.746 92.5794 239.171 94.6605 237.822 96.8864C236.393 99.188 235.099 101.686 233.75 104.24C232.4 106.794 231.063 109.287 229.548 111.577C228.11 113.789 226.43 115.835 224.539 117.675C222.752 119.435 220.965 121.005 219.425 122.599C217.968 124.036 216.714 125.666 215.698 127.442C213.905 130.753 213.708 133.966 214.207 135.984C214.466 137.041 214.904 138.046 215.5 138.957C215.303 138.748 215.126 138.521 214.971 138.28C214.534 137.585 214.208 136.828 214.003 136.033C213.424 133.978 213.566 130.673 215.359 127.264C216.37 125.438 217.63 123.762 219.105 122.285C220.639 120.66 222.419 119.072 224.188 117.312C226.05 115.489 227.703 113.464 229.116 111.275C230.607 109.016 231.938 106.536 233.281 103.982C234.624 101.428 235.937 98.9171 237.384 96.597C238.757 94.3453 240.361 92.2435 242.172 90.3258C243.824 88.5954 245.744 87.141 247.858 86.0179C249.723 85.058 251.757 84.4687 253.847 84.2825C256.883 83.9464 259.943 84.6492 262.528 86.2763C263.208 86.7351 263.829 87.2768 264.376 87.8888C264.558 88.0849 264.725 88.2948 264.875 88.5165Z" fill="#375A64"/>
<path d="M176.242 215.7L178.43 205.151L158.308 195.982L157.79 197.705C154.913 207.262 140.576 253.345 139.708 256.785C136.467 269.574 137.188 294.88 142.301 299.619C146.374 303.398 154.223 306.198 159.41 305.619C164.598 305.041 178.892 286.664 178.892 286.664L192.015 244.692L176.242 215.7Z" fill="#FFBF9D"/>
<path d="M177.13 209.423C177.119 209.698 177.086 209.972 177.031 210.241C176.933 210.82 176.803 211.595 176.643 212.567C176.267 214.635 175.75 217.534 175.103 221.091C174.456 224.648 173.704 228.974 173.051 233.762C172.301 238.941 171.889 244.163 171.819 249.394C171.776 254.626 172.367 259.844 173.581 264.934C174.721 269.611 175.768 273.913 175.657 277.624C175.679 280.554 174.933 283.44 173.495 285.994C172.978 286.931 172.293 287.765 171.474 288.455C172.171 287.664 172.79 286.806 173.322 285.895C174.665 283.35 175.341 280.507 175.288 277.63C175.343 273.981 174.277 269.74 173.107 265.051C171.847 259.93 171.227 254.673 171.258 249.401C171.315 244.144 171.726 238.896 172.49 233.695C173.174 228.901 173.975 224.617 174.665 221.023C175.355 217.429 175.959 214.592 176.372 212.53C176.575 211.57 176.742 210.801 176.865 210.229C176.93 209.953 177.019 209.683 177.13 209.423Z" fill="#FF9A6C"/>
<path d="M197.929 187.698L194.036 183.39V178.264L189.988 172.466L181.929 173.759L179.465 173.962L181.104 162.201C181.104 162.201 181.861 159.229 184.732 153.493C187.603 147.757 182.976 145.123 182.976 145.123L174.351 160.232L171.474 170.269L170.242 162.072C170.242 162.072 171.696 154.108 171.474 150.009C171.252 145.911 167.161 146.495 167.161 146.495L163.877 164.534V173.586L161.006 168.257C161.006 168.257 160.39 163.752 159.983 159.641C159.577 155.53 156.287 156.773 156.287 156.773V170.091L159.983 182.399C159.983 182.399 157.556 198.271 157.143 198.886L176.144 212.186C176.144 212.186 180.29 209.047 181.116 208.838C181.941 208.628 192.206 201.053 192.206 201.053L199.383 193.471C199.383 193.471 200.616 192.646 200.616 191.828C200.616 191.009 197.929 187.698 197.929 187.698ZM188.072 192.622L183.968 190.775L181.713 185.236L183.383 182.196L183.999 181.131L184.751 180.608L187.486 181.131C187.486 181.131 188.718 185.027 188.509 186.873C188.3 188.72 190.77 190.566 190.77 190.566L188.072 192.622Z" fill="#FFBF9D"/>
<path d="M184.732 180.615C184.732 180.682 184.356 180.713 183.79 180.541C183.064 180.283 182.424 179.83 181.941 179.23C181.444 178.635 181.126 177.912 181.023 177.143C180.962 176.528 181.066 176.196 181.134 176.202C181.202 176.208 181.288 177.624 182.366 178.885C183.445 180.147 184.769 180.467 184.732 180.615Z" fill="#FF9A6C"/>
<path d="M195.292 191.243C195.138 191.243 195.231 189.889 195.292 188.252C195.354 186.615 195.397 185.28 195.545 185.273C195.693 185.267 195.908 186.603 195.835 188.277C195.761 189.951 195.434 191.267 195.292 191.243Z" fill="#FF9A6C"/>
<path d="M188.965 198.991C188.915 199.034 188.441 198.653 187.856 197.865C187.048 196.812 186.667 195.494 186.79 194.173C186.855 193.77 187.03 193.393 187.295 193.083C187.535 192.819 187.782 192.585 188.022 192.363C188.445 191.983 188.892 191.629 189.359 191.305C190.142 190.738 190.708 190.486 190.752 190.566C190.395 190.944 190.007 191.292 189.593 191.606C189.236 191.914 188.811 192.295 188.361 192.732C188.139 192.948 187.905 193.182 187.69 193.434C187.494 193.673 187.366 193.96 187.32 194.265C187.242 194.907 187.307 195.559 187.511 196.173C187.671 196.692 187.892 197.189 188.17 197.656C188.48 198.072 188.746 198.52 188.965 198.991Z" fill="#FF9A6C"/>
<path d="M194.048 182.873C194.177 182.873 194.165 184.996 192.674 187.101C192.318 187.603 191.838 188.006 191.281 188.27C190.807 188.479 190.277 188.529 189.772 188.412C188.891 188.184 188.657 187.581 188.725 187.575C189.064 187.796 189.443 187.95 189.84 188.03C190.263 188.082 190.692 188.007 191.072 187.815C191.541 187.566 191.944 187.209 192.249 186.775C193.61 184.849 193.881 182.818 194.048 182.873Z" fill="#FF9A6C"/>
<path d="M188.509 186.584C188.386 186.584 188.09 184.781 187.511 182.559C187.268 181.602 187.089 180.629 186.975 179.648C186.901 178.891 186.975 178.417 187.024 178.417C187.073 178.417 187.184 178.867 187.357 179.593C187.597 180.608 187.813 181.495 188.041 182.442C188.62 184.664 188.688 186.584 188.509 186.584Z" fill="#FF9A6C"/>
<path d="M195.292 192.461C195.292 192.584 193 192.301 190.647 190.824C190.07 190.488 189.557 190.053 189.131 189.538C188.786 189.105 188.548 188.597 188.435 188.055C188.292 187.57 188.318 187.052 188.509 186.584C188.601 186.584 188.558 187.15 188.805 187.957C189.182 188.998 189.942 189.856 190.93 190.357C193.198 191.784 195.341 192.289 195.292 192.461Z" fill="#FF9A6C"/>
<path d="M178.411 197.022C178.257 197.114 176.932 194.025 173.858 191.428C170.784 188.831 167.568 187.938 167.635 187.772C168.362 187.827 169.074 188.01 169.736 188.314C171.368 188.961 172.881 189.874 174.215 191.015C175.548 192.158 176.679 193.516 177.561 195.034C177.963 195.639 178.251 196.313 178.411 197.022Z" fill="#FF9A6C"/>
<path d="M171.505 177.894C171.505 178.054 170.001 178.178 168.27 178.787C166.539 179.396 165.264 180.208 165.19 180.079C165.116 179.95 166.28 178.898 168.116 178.276C169.952 177.654 171.511 177.747 171.505 177.894Z" fill="#FF9A6C"/>
<path d="M204.479 406.389C204.479 406.389 143.62 423.215 141.18 424.07C137.483 425.362 138.1 438.779 143.829 438.569C146.534 438.471 190.579 440.207 196.143 439.862C201.706 439.517 216.684 433.603 216.684 433.603L204.479 406.389Z" fill="#375A64"/>
<path d="M179.126 429.603C178.818 429.646 178.405 426.427 176.446 423.073C174.487 419.719 171.948 417.725 172.133 417.479C172.318 417.232 175.263 418.956 177.321 422.568C179.378 426.181 179.378 429.603 179.126 429.603Z" fill="#1A2E35"/>
<path d="M185.472 426.71C185.17 426.759 184.554 423.885 182.933 420.71C181.313 417.534 179.403 415.313 179.619 415.103C179.834 414.894 182.163 416.894 183.845 420.254C185.527 423.615 185.73 426.692 185.472 426.71Z" fill="#1A2E35"/>
<path d="M191.423 425.116C191.115 425.116 191.349 422.039 190 418.691C188.651 415.343 186.47 413.232 186.685 413.011C186.808 412.777 189.538 414.66 190.949 418.322C192.36 421.984 191.67 425.202 191.423 425.116Z" fill="#1A2E35"/>
<path d="M190.339 417.294C190.234 417.325 189.692 415.626 189.692 412.771C189.71 410.106 190.226 407.467 191.214 404.992C191.401 404.418 191.737 403.904 192.187 403.502C192.492 403.27 192.868 403.154 193.251 403.173C193.633 403.192 193.996 403.346 194.276 403.607C194.747 404.061 195.036 404.672 195.089 405.324C195.152 405.857 195.178 406.394 195.169 406.93C195.151 407.934 195.026 408.933 194.793 409.909C194.391 411.534 193.769 413.097 192.945 414.555C191.522 417.017 190.296 418.285 190.209 418.211C190.123 418.137 191.09 416.703 192.304 414.223C193.015 412.784 193.55 411.266 193.9 409.7C194.091 408.787 194.191 407.857 194.196 406.924C194.196 405.989 194.196 404.825 193.635 404.376C193.531 404.269 193.392 404.204 193.244 404.191C193.096 404.179 192.948 404.22 192.828 404.309C192.521 404.6 192.292 404.964 192.162 405.367C191.797 406.241 191.488 407.137 191.238 408.05C190.815 409.602 190.544 411.191 190.431 412.795C190.228 415.522 190.505 417.239 190.339 417.294Z" fill="#1A2E35"/>
<path d="M190.419 416.679C190.419 416.568 191.861 416.064 194.344 416.064C195.798 416.061 197.246 416.238 198.656 416.593C199.517 416.779 200.346 417.085 201.121 417.504C201.623 417.754 202.029 418.161 202.278 418.663C202.527 419.165 202.605 419.735 202.501 420.285C202.362 420.809 202.086 421.286 201.7 421.667C201.314 422.048 200.833 422.319 200.307 422.452C199.412 422.679 198.474 422.679 197.578 422.452C196.137 422.093 194.789 421.432 193.623 420.513C191.67 418.981 190.721 417.811 190.795 417.731C190.869 417.651 192.027 418.599 194.036 419.922C195.167 420.691 196.434 421.238 197.769 421.535C198.512 421.703 199.285 421.693 200.024 421.504C200.377 421.414 200.699 421.233 200.96 420.979C201.221 420.725 201.41 420.408 201.509 420.058C201.567 419.715 201.509 419.363 201.345 419.057C201.181 418.751 200.92 418.508 200.603 418.365C199.909 417.984 199.167 417.694 198.397 417.504C197.058 417.125 195.683 416.886 194.294 416.79C191.965 416.568 190.444 416.808 190.419 416.679Z" fill="#1A2E35"/>
<path d="M169.786 430.218C169.484 430.181 169.786 427.584 168.553 424.734C167.321 421.885 165.387 420.211 165.578 419.971C165.676 419.725 168.221 421.165 169.496 424.347C170.771 427.529 170.02 430.341 169.786 430.218Z" fill="#1A2E35"/>
<path d="M212.241 433.043C211.492 433.485 210.702 433.854 209.882 434.144C207.673 434.997 205.409 435.698 203.105 436.243C197.282 437.708 188.99 438.539 179.871 438.44C170.753 438.342 162.534 437.929 156.57 437.689L149.522 437.314C148.655 437.309 147.79 437.218 146.941 437.043C147.799 436.911 148.668 436.87 149.534 436.92L156.595 436.969L179.878 437.425C188.953 437.523 197.128 436.809 202.944 435.541C208.76 434.274 212.167 432.852 212.241 433.043Z" fill="#1A2E35"/>
<path d="M214.041 434.428C213.954 434.563 212.291 433.591 209.481 432.36C206.672 431.129 202.538 429.744 197.96 430.452C193.383 431.16 190.123 434.231 188.01 436.366C185.897 438.502 184.622 440.059 184.498 439.942C184.375 439.825 185.447 438.249 187.48 435.874C188.676 434.468 190.03 433.204 191.516 432.107C193.368 430.732 195.523 429.819 197.8 429.443C202.729 428.698 207.041 430.335 209.783 431.708C212.525 433.08 214.102 434.323 214.041 434.428Z" fill="#1A2E35"/>
<path d="M152.984 437.056C152.874 436.982 153.397 436.175 153.878 434.76C154.522 432.927 154.675 430.957 154.322 429.046C153.969 427.135 153.121 425.35 151.863 423.867C150.908 422.71 150.132 422.144 150.212 422.021C150.292 421.898 151.167 422.341 152.294 423.455C153.766 424.935 154.756 426.824 155.135 428.875C155.514 430.926 155.265 433.043 154.42 434.951C153.767 436.416 153.058 437.111 152.984 437.056Z" fill="#1A2E35"/>
<path d="M198.551 320.519L187.616 347.431C187.616 347.431 133.269 327.565 101.454 333.35C89.3595 335.554 76.409 362.965 94.0604 380.572C111.256 397.748 142.012 422.033 199.704 429.892C201.145 430.089 224.779 435.16 223.319 434.988C221.859 434.815 256.453 440.28 256.453 440.28L264.573 409.614L329.011 419.713C366.988 417.122 385.576 376.559 362.706 363.5C341.37 351.321 301.256 350.342 301.256 350.342L291.398 323.51L198.551 320.519Z" fill="#1A2E35"/>
<path d="M257.71 441.394C257.882 440.354 258.326 437.56 259.275 431.831C259.792 428.753 260.421 425.061 261.234 420.753C261.64 418.611 262.102 416.328 262.645 413.922C262.922 412.691 263.218 411.46 263.569 410.229C263.747 409.614 263.938 408.998 264.185 408.334C264.389 407.649 264.72 407.008 265.158 406.444L265.257 406.906C251.542 402.044 234.396 395.619 216.117 387.92C204.879 383.144 194.282 378.326 184.954 373.304C180.5 370.987 176.227 368.34 172.17 365.383C168.375 362.589 164.998 359.795 161.832 357.383C155.566 352.459 149.879 349.247 145.622 347.887C144.694 347.555 143.748 347.275 142.788 347.05C142.09 346.852 141.38 346.7 140.662 346.594L139.35 346.354C139.198 346.332 139.047 346.297 138.9 346.25C139.053 346.245 139.206 346.255 139.356 346.28L140.687 346.453C141.41 346.536 142.127 346.67 142.831 346.853C143.806 347.053 144.766 347.314 145.708 347.634C148.308 348.469 150.809 349.581 153.169 350.952C156.293 352.755 159.288 354.772 162.134 356.989C165.325 359.407 168.72 362.177 172.509 364.94C176.559 367.857 180.82 370.472 185.256 372.762C194.571 377.735 205.162 382.535 216.388 387.298C234.649 394.991 251.764 401.453 265.442 406.376L265.824 406.518L265.54 406.844C265.166 407.35 264.88 407.917 264.696 408.518C264.468 409.134 264.277 409.749 264.08 410.365C263.723 411.595 263.421 412.826 263.138 414.02C262.577 416.414 262.102 418.691 261.671 420.827C260.821 425.104 260.149 428.827 259.589 431.873L258.276 438.926C258.116 439.732 257.987 440.348 257.888 440.772C257.842 440.983 257.783 441.191 257.71 441.394Z" fill="#375A64"/>
<path d="M350.181 367.199C350.063 367.208 349.944 367.197 349.829 367.168L348.825 367.008C347.944 366.891 346.663 366.565 344.981 366.392C340.244 365.763 335.457 365.592 330.687 365.882C323.606 366.329 316.589 367.485 309.74 369.334C305.877 370.368 301.86 371.58 297.744 373.027C293.629 374.473 289.433 376.104 285.132 377.808C280.932 379.466 276.639 380.88 272.274 382.043C268.06 383.206 263.938 384.117 259.995 384.88C252.109 386.412 244.938 387.341 238.919 388.092C232.899 388.843 228.014 389.323 224.643 389.662L220.756 390.043L219.746 390.129C219.629 390.146 219.511 390.146 219.394 390.129C219.504 390.09 219.617 390.065 219.733 390.056L220.737 389.908L224.613 389.397L238.857 387.606C244.864 386.812 252.017 385.815 259.872 384.252C263.797 383.477 267.882 382.56 272.096 381.39C276.433 380.227 280.699 378.816 284.874 377.162C289.186 375.452 293.388 373.808 297.522 372.387C301.656 370.965 305.698 369.759 309.579 368.737C316.466 366.913 323.523 365.801 330.638 365.42C335.437 365.169 340.25 365.412 344.999 366.146C346.687 366.349 347.963 366.725 348.838 366.885L349.829 367.112C349.949 367.13 350.067 367.159 350.181 367.199Z" fill="#375A64"/>
<path d="M250.902 356.164C250.945 356.619 248.018 357.352 243.194 357.801C230.569 358.828 217.863 357.469 205.741 353.795C201.121 352.33 198.422 350.995 198.558 350.558C198.859 349.591 210.264 352.625 224.65 354.115C239.036 355.604 250.809 355.136 250.902 356.164Z" fill="#1A2E35"/>
<path d="M301.841 350.779C301.15 351.026 300.438 351.216 299.715 351.345C299.025 351.487 298.188 351.703 297.251 351.992C296.315 352.281 295.187 352.564 293.998 352.989C291.197 353.925 288.449 355.014 285.767 356.251C282.754 357.678 279.507 359.383 276.205 361.358C270.586 364.781 265.196 368.566 260.069 372.688C258.092 374.264 256.514 375.562 255.43 376.473C254.889 376.972 254.308 377.425 253.693 377.827C254.167 377.265 254.689 376.744 255.251 376.27C256.286 375.298 257.814 373.938 259.761 372.307C264.82 368.053 270.198 364.193 275.848 360.762C278.974 358.897 282.197 357.198 285.502 355.672C288.217 354.449 291.005 353.397 293.85 352.521C295.083 352.121 296.173 351.856 297.153 351.616C297.987 351.394 298.832 351.216 299.685 351.081C300.394 350.92 301.115 350.819 301.841 350.779Z" fill="#375A64"/>
<path d="M241.426 377.827C241.426 377.901 239.917 377.587 237.612 376.738C234.629 375.601 231.716 374.288 228.888 372.805L220.435 368.38C218.273 367.254 216.918 366.589 216.961 366.497C217.004 366.405 218.421 366.922 220.657 367.943C222.894 368.965 225.894 370.491 229.209 372.19C232.523 373.888 235.555 375.341 237.797 376.282C240.04 377.224 241.457 377.723 241.426 377.827Z" fill="#375A64"/>
<path d="M247.304 322.094C247.408 322.094 247.224 324.556 247.02 328.556C246.817 332.556 246.638 338.046 246.731 344.133C246.823 350.219 247.18 355.715 247.507 359.684C247.833 363.654 248.123 366.103 247.994 366.128C247.815 365.578 247.698 365.011 247.643 364.435C247.464 363.34 247.248 361.74 247.026 359.758C246.571 355.789 246.139 350.268 246.041 344.151C245.942 338.034 246.207 332.495 246.54 328.507C246.706 326.513 246.872 324.907 247.02 323.805C247.058 323.227 247.153 322.654 247.304 322.094Z" fill="#375A64"/>
<path d="M253.354 332.655C253.391 332.71 253.126 332.864 252.787 333.27C252.325 333.83 252.03 334.508 251.937 335.227C251.862 335.745 251.898 336.273 252.042 336.776C252.186 337.279 252.436 337.745 252.775 338.144C253.24 338.558 253.809 338.836 254.421 338.951C255.033 339.066 255.664 339.012 256.248 338.796C256.831 338.58 257.345 338.209 257.734 337.723C258.123 337.238 258.372 336.656 258.455 336.04C258.453 335.517 258.338 335.001 258.119 334.527C257.9 334.052 257.582 333.63 257.186 333.289C256.65 332.798 255.982 332.473 255.264 332.353C254.753 332.273 254.451 332.353 254.438 332.261C254.694 332.116 254.989 332.054 255.282 332.083C256.093 332.109 256.872 332.401 257.5 332.913C257.985 333.283 258.379 333.757 258.655 334.301C258.93 334.844 259.079 335.443 259.09 336.052C259.021 336.804 258.74 337.52 258.281 338.12C257.821 338.719 257.202 339.176 256.494 339.439C255.786 339.702 255.017 339.76 254.278 339.606C253.538 339.452 252.857 339.093 252.313 338.569C251.923 338.099 251.645 337.547 251.499 336.955C251.352 336.362 251.342 335.744 251.469 335.147C251.612 334.352 252.012 333.626 252.608 333.08C253.027 332.698 253.342 332.624 253.354 332.655Z" fill="#375A64"/>
<path d="M264.93 408.771C264.93 408.771 326.689 418.15 329.19 418.71C332.942 419.54 333.922 432.797 328.29 433.258C325.629 433.48 282.563 440.36 277.055 440.674C271.547 440.988 254.26 436.465 254.26 436.465L264.93 408.771Z" fill="#375A64"/>
<path d="M292.563 428.581C292.871 428.581 292.895 425.381 294.411 421.855C295.927 418.328 298.194 416.07 297.978 415.854C297.763 415.639 295.076 417.67 293.481 421.461C291.885 425.252 292.316 428.636 292.563 428.581Z" fill="#1A2E35"/>
<path d="M285.989 426.526C286.291 426.526 286.556 423.646 287.775 420.341C288.995 417.036 290.61 414.617 290.369 414.439C290.129 414.26 288.084 416.5 286.827 419.977C285.57 423.455 285.736 426.526 285.989 426.526Z" fill="#1A2E35"/>
<path d="M279.957 425.64C280.259 425.584 279.668 422.63 280.573 419.159C281.479 415.688 283.395 413.38 283.161 413.189C282.927 412.999 280.555 415.14 279.6 418.907C278.645 422.673 279.723 425.75 279.957 425.64Z" fill="#1A2E35"/>
<path d="M280.068 417.799C280.179 417.799 280.512 416.082 280.179 413.276C279.97 411.637 279.571 410.028 278.99 408.482C278.645 407.564 278.233 406.674 277.758 405.817C277.509 405.275 277.12 404.81 276.63 404.469C276.303 404.276 275.919 404.205 275.545 404.268C275.17 404.331 274.83 404.524 274.585 404.814C274.17 405.314 273.951 405.949 273.969 406.598C273.971 407.13 274.008 407.66 274.08 408.186C274.21 409.169 274.451 410.133 274.8 411.06C275.388 412.613 276.19 414.076 277.185 415.405C278.867 417.664 280.222 418.759 280.302 418.679C280.382 418.599 279.261 417.301 277.776 414.987C276.905 413.66 276.199 412.232 275.675 410.734C275.374 409.862 275.167 408.961 275.059 408.045C274.973 407.122 274.825 405.977 275.312 405.472C275.397 405.35 275.525 405.266 275.671 405.236C275.817 405.206 275.968 405.233 276.094 405.312C276.429 405.563 276.695 405.893 276.871 406.272C277.337 407.087 277.749 407.932 278.103 408.802C278.702 410.276 279.156 411.805 279.458 413.368C280 416.064 279.926 417.793 280.068 417.799Z" fill="#1A2E35"/>
<path d="M279.945 417.202C279.945 417.085 278.46 416.765 276.014 417.036C274.585 417.209 273.183 417.554 271.837 418.063C271.006 418.35 270.22 418.751 269.502 419.257C269.038 419.561 268.686 420.008 268.501 420.531C268.317 421.054 268.309 421.622 268.479 422.15C268.681 422.643 269.01 423.075 269.433 423.399C269.857 423.723 270.359 423.93 270.888 423.996C271.795 424.11 272.715 423.997 273.568 423.67C274.942 423.147 276.187 422.337 277.222 421.294C278.959 419.565 279.754 418.303 279.686 418.217C279.618 418.131 278.553 419.22 276.76 420.753C275.746 421.66 274.569 422.365 273.291 422.833C272.579 423.087 271.816 423.168 271.067 423.067C270.712 423.022 270.374 422.885 270.089 422.669C269.804 422.453 269.58 422.165 269.44 421.836C269.344 421.506 269.36 421.153 269.485 420.833C269.609 420.512 269.836 420.242 270.13 420.063C270.77 419.607 271.466 419.235 272.201 418.956C273.471 418.427 274.792 418.031 276.144 417.774C278.448 417.294 279.939 417.362 279.945 417.202Z" fill="#1A2E35"/>
<path d="M301.823 428.119C302.118 428.052 301.521 425.535 302.359 422.581C303.196 419.626 304.94 417.768 304.724 417.559C304.509 417.35 302.26 419.042 301.385 422.316C300.51 425.59 301.595 428.255 301.823 428.119Z" fill="#1A2E35"/>
<path d="M260.439 435.868C261.23 436.222 262.056 436.495 262.903 436.68C265.172 437.255 267.478 437.677 269.804 437.942C275.694 438.699 283.974 438.557 292.883 437.369C301.792 436.182 309.857 434.828 315.679 433.892L322.579 432.68C323.431 432.576 324.269 432.384 325.081 432.107C324.224 432.082 323.367 432.144 322.524 432.292L315.593 433.172L292.797 436.354C283.894 437.517 275.755 437.782 269.915 437.216C264.074 436.649 260.488 435.671 260.439 435.868Z" fill="#1A2E35"/>
<path d="M258.837 437.437C258.936 437.566 260.458 436.415 263.07 434.877C265.682 433.338 269.588 431.492 274.16 431.646C278.731 431.8 282.305 434.434 284.633 436.286C286.962 438.139 288.392 439.505 288.503 439.363C288.613 439.222 287.375 437.812 285.095 435.72C283.755 434.48 282.277 433.396 280.69 432.489C278.705 431.364 276.478 430.731 274.197 430.643C269.268 430.477 265.239 432.594 262.7 434.274C260.162 435.954 258.763 437.351 258.837 437.437Z" fill="#1A2E35"/>
<path d="M300.307 253.832C300.067 255.352 299.266 296.462 301.724 300.228C305.593 306.155 318.051 316.771 325.801 313.866C338.37 309.158 341.204 282.597 340.988 287.526L331.032 203.588H311.884L310.288 233.689L304.706 237.092C304.328 240.593 303.612 244.049 302.568 247.413L300.307 253.832Z" fill="#FFBF9D"/>
<path d="M311.884 203.588C311.884 203.588 304.232 196.037 304.232 194.357C304.232 192.677 301.25 191.748 301.25 191.748L296.395 189.323C296.395 189.323 293.228 186.344 293.974 184.664C294.374 183.702 295.1 182.912 296.025 182.43C296.025 182.43 296.272 178.325 299.321 177.212C299.321 177.212 296.457 174.042 299.321 171.802C302.186 169.562 302.864 170.509 302.864 170.509C302.864 170.509 302.55 168.091 304.226 167.9C305.901 167.709 317.903 164.737 317.903 164.737C317.903 164.737 321.205 166.411 322.703 167.9C324.2 169.389 324.939 170.325 324.939 170.325C324.939 170.325 327.175 167.531 327.927 164.737C328.679 161.943 329.776 153.554 338.185 153.924V155.973C336.536 158.46 335.395 161.248 334.827 164.177C333.706 169.396 331.655 180.935 331.655 180.935L331.038 203.595L311.884 203.588Z" fill="#FFBF9D"/>
<path d="M304.509 287.317C304.43 287.041 304.375 286.759 304.342 286.474C304.262 285.914 304.096 285.095 304.016 284.012C303.712 281 303.669 277.967 303.886 274.947C304.216 270.472 304.815 266.02 305.679 261.617C306.591 256.644 307.823 251.216 308.76 245.474C310.547 233.953 310.775 223.368 311.07 215.737C311.206 211.958 311.311 208.881 311.391 206.69C311.446 205.662 311.483 204.844 311.514 204.228C311.518 203.942 311.545 203.655 311.594 203.373C311.629 203.659 311.64 203.947 311.625 204.234C311.625 204.85 311.625 205.668 311.625 206.696C311.594 208.887 311.538 211.964 311.477 215.749C311.28 223.38 311.113 233.99 309.32 245.554C308.396 251.333 307.152 256.749 306.24 261.709C305.357 266.091 304.721 270.518 304.336 274.971C304.087 277.973 304.073 280.989 304.293 283.993C304.342 285.058 304.472 285.877 304.521 286.455C304.542 286.742 304.538 287.03 304.509 287.317Z" fill="#FF9A6C"/>
<path d="M317.872 169.278C317.872 169.352 317.041 169.328 315.71 169.5C314.379 169.672 312.518 169.869 310.473 170.054C306.376 170.429 303.043 170.608 303.03 170.46C303.018 170.312 306.326 169.888 310.424 169.519C312.469 169.334 314.33 169.192 315.679 169.119C317.028 169.045 317.885 169.205 317.872 169.278Z" fill="#FF9A6C"/>
<path d="M314.348 178.233C313.626 178.273 312.903 178.248 312.186 178.159C310.861 178.079 309.025 178.042 306.986 177.999C305.238 177.978 303.493 177.846 301.761 177.605C301.032 177.546 300.318 177.367 299.648 177.076C300.372 177.065 301.095 177.114 301.81 177.224C303.129 177.34 304.965 177.408 306.998 177.457C308.744 177.474 310.488 177.581 312.223 177.777C312.951 177.817 313.668 177.971 314.348 178.233Z" fill="#FF9A6C"/>
<path d="M311.588 185.464C310.845 185.468 310.104 185.379 309.382 185.2C308.033 184.972 306.172 184.621 304.127 184.196C302.082 183.772 300.233 183.365 298.902 183.039C298.171 182.916 297.455 182.71 296.771 182.424C297.516 182.419 298.259 182.505 298.982 182.682C300.332 182.91 302.192 183.261 304.238 183.686C306.283 184.11 308.125 184.516 309.456 184.843C310.19 184.96 310.906 185.169 311.588 185.464Z" fill="#FF9A6C"/>
</g>
<defs>
<clipPath id="clip0_89:916">
<rect width="467" height="441.394" fill="white"/>
</clipPath>
</defs>
</svg>
