<svg id="Capa_1" data-name="Capa 1" xmlns="http://www.w3.org/2000/svg" xmlns:xlink="http://www.w3.org/1999/xlink" viewBox="0 0 53 49"><defs><style>.cls-1{fill:url(#Degradado_sin_nombre_3);}.cls-2{fill:url(#Degradado_sin_nombre_3-2);}.cls-3{fill:url(#Degradado_sin_nombre_3-3);}.cls-4{fill:url(#Degradado_sin_nombre_3-4);}.cls-5{fill:url(#Degradado_sin_nombre_3-5);}.cls-6{fill:url(#Degradado_sin_nombre_3-6);}.cls-7{fill:url(#Degradado_sin_nombre_3-7);}.cls-8{fill:url(#Degradado_sin_nombre_3-8);}.cls-9{fill:url(#Degradado_sin_nombre_3-9);}</style><linearGradient id="Degradado_sin_nombre_3" x1="-27.81" y1="16.56" x2="64.82" y2="16.56" gradientUnits="userSpaceOnUse"><stop offset="0" stop-color="#1e8271"/><stop offset="0.12" stop-color="#208977"/><stop offset="0.3" stop-color="#269c86"/><stop offset="0.51" stop-color="#30bb9f"/><stop offset="0.56" stop-color="#33c3a6"/><stop offset="0.71" stop-color="#25907f"/><stop offset="0.82" stop-color="#1c7067"/><stop offset="0.89" stop-color="#19645e"/></linearGradient><linearGradient id="Degradado_sin_nombre_3-2" x1="-27.81" y1="13.23" x2="64.82" y2="13.23" xlink:href="#Degradado_sin_nombre_3"/><linearGradient id="Degradado_sin_nombre_3-3" x1="-27.81" y1="13.18" x2="64.82" y2="13.18" xlink:href="#Degradado_sin_nombre_3"/><linearGradient id="Degradado_sin_nombre_3-4" x1="-27.81" y1="27.64" x2="64.82" y2="27.64" xlink:href="#Degradado_sin_nombre_3"/><linearGradient id="Degradado_sin_nombre_3-5" x1="-27.81" y1="33.61" x2="64.82" y2="33.61" xlink:href="#Degradado_sin_nombre_3"/><linearGradient id="Degradado_sin_nombre_3-6" x1="-27.81" y1="21.02" x2="64.82" y2="21.02" xlink:href="#Degradado_sin_nombre_3"/><linearGradient id="Degradado_sin_nombre_3-7" x1="-27.81" y1="13.21" x2="64.82" y2="13.21" xlink:href="#Degradado_sin_nombre_3"/><linearGradient id="Degradado_sin_nombre_3-8" x1="-27.81" y1="13.55" x2="64.82" y2="13.55" xlink:href="#Degradado_sin_nombre_3"/><linearGradient id="Degradado_sin_nombre_3-9" x1="-27.81" y1="39.06" x2="64.82" y2="39.06" xlink:href="#Degradado_sin_nombre_3"/></defs><path class="cls-1" d="M23.1,21.16a3.7,3.7,0,0,0,1.38-1.31,3.39,3.39,0,0,0,.5-1.77V8.44a3.42,3.42,0,0,0-.43-1.68l-9.1,4.87a3.08,3.08,0,0,1,.39,1.94,3,3,0,0,1-.39,1.22,3.14,3.14,0,0,1-.88,1,3.36,3.36,0,0,1-1.5.64v10a3.66,3.66,0,0,0,1.25-.44l8.78-4.78Z"/><path class="cls-2" d="M14.7,13.46a2,2,0,0,0-.45-1.55,2.19,2.19,0,0,0-.65-.52,2.25,2.25,0,0,0-1.69-.17,2.16,2.16,0,0,0-.78.37,2.23,2.23,0,0,0-.56.63,2.11,2.11,0,0,0-.25.77,2,2,0,0,0,.45,1.54,2.31,2.31,0,0,0,1.48.81h.38a2.31,2.31,0,0,0,1.24-.5,2.06,2.06,0,0,0,.83-1.41Z"/><path class="cls-3" d="M9.19,12.82a3.19,3.19,0,0,1,1.26-2.13,3.29,3.29,0,0,1,1.16-.56A3.62,3.62,0,0,1,12.92,10a3.48,3.48,0,0,1,1.83.79.65.65,0,0,1,.18-.15l9-4.8a3.6,3.6,0,0,0-.74-.54L14.45.48a3.88,3.88,0,0,0-3.74,0L1.94,5.26A3.78,3.78,0,0,0,.54,6.58,3.48,3.48,0,0,0,0,8.37V18a3.29,3.29,0,0,0,.49,1.77A3.65,3.65,0,0,0,1.9,21.11l8.68,4.81a3.76,3.76,0,0,0,1.35.44v-10a3.42,3.42,0,0,1-2.12-1.26A3,3,0,0,1,9.19,12.82Z"/><path class="cls-4" d="M24,31.1a3.59,3.59,0,0,1,1.18-.57,3.65,3.65,0,0,1,2.57.31,3.2,3.2,0,0,1,1,.81,3.35,3.35,0,0,1,.52.92l8-4.27a4.39,4.39,0,0,0-.5-.34l-8.76-4.81a3.88,3.88,0,0,0-3.74,0l-8.75,4.73a3.37,3.37,0,0,0-.68.49l8.09,4.24A3.15,3.15,0,0,1,24,31.1Z"/><path class="cls-5" d="M25.74,35.7a2.32,2.32,0,0,0,.87-.07,2.18,2.18,0,0,0,.78-.38,2.07,2.07,0,0,0,.56-.62,1.93,1.93,0,0,0,.25-.78,2.05,2.05,0,0,0-.45-1.55,2.23,2.23,0,0,0-.65-.53,2.13,2.13,0,0,0-.82-.26H26a2.24,2.24,0,0,0-1.35.45A2,2,0,0,0,24,33a1.87,1.87,0,0,0,0,1.17,2.05,2.05,0,0,0,.66,1,2.34,2.34,0,0,0,1.14.52Z"/><path class="cls-6" d="M37.36,15.76a3.37,3.37,0,0,1-.35-.29l-8.75,4.82A3.59,3.59,0,0,0,29.5,21.4l8.73,4.86a3.64,3.64,0,0,0,.73.31V16.41a3.37,3.37,0,0,1-1.6-.61Z"/><path class="cls-7" d="M41.53,12.87a2.09,2.09,0,0,0-.9-1.36,2.19,2.19,0,0,0-1.32-.38H39a2.13,2.13,0,0,0-.81.29,2.22,2.22,0,0,0-.62.56,2,2,0,0,0,.53,2.93,2.18,2.18,0,0,0,.78.34,2.28,2.28,0,0,0,2.3-.85,2,2,0,0,0,.37-1.56Z"/><path class="cls-8" d="M50.81,5.7,42.08.84a3.88,3.88,0,0,0-3.74,0L29.57,5.6a3.73,3.73,0,0,0-1.38,1.32,3.39,3.39,0,0,0-.5,1.77v9.64a3.35,3.35,0,0,0,.15,1l8.55-4.71a3.06,3.06,0,0,1,.33-3.3,3.2,3.2,0,0,1,1-.83,3.38,3.38,0,0,1,1.24-.42,3.67,3.67,0,0,1,1.32.08,3.32,3.32,0,0,1,1.18.53,3.17,3.17,0,0,1,.87.92,2.9,2.9,0,0,1,.42,1.16A3,3,0,0,1,42.18,15a3.48,3.48,0,0,1-2,1.33v10.4A3.72,3.72,0,0,0,42,26.26l8.77-4.78a3.7,3.7,0,0,0,1.38-1.31,3.42,3.42,0,0,0,.5-1.78V8.76A3.34,3.34,0,0,0,52.19,7a3.7,3.7,0,0,0-1.37-1.32Z"/><path class="cls-9" d="M37.83,29.2l-8.48,4.53a1.22,1.22,0,0,1,0,.27,3,3,0,0,1-1.09,2,3.59,3.59,0,0,1-2.23.81h-.41a3.44,3.44,0,0,1-1.25-.39,3.2,3.2,0,0,1-1-.81,3.09,3.09,0,0,1-.7-1.85L14,29.2a3.32,3.32,0,0,0-.48,1.73v9.64A3.37,3.37,0,0,0,14,42.34a3.77,3.77,0,0,0,1.37,1.32l8.73,4.86a3.88,3.88,0,0,0,3.74,0l8.77-4.78A3.76,3.76,0,0,0,38,42.43a3.35,3.35,0,0,0,.48-1.73V31.06a3.33,3.33,0,0,0-.59-1.93l-.1.06Z"/></svg>