<svg width="61" height="25" viewBox="0 0 61 25" fill="none" xmlns="http://www.w3.org/2000/svg">
<path d="M15.0103 19H17.9173V7.066H15.0103V11.741H10.4883V7.066H7.58134V19H10.4883V14.087H15.0103V19ZM27.3259 7.066H20.0159V19H27.3259V16.671H22.9229V14.053H26.8159V11.809H22.9229V9.395H27.3259V7.066ZM34.7892 6.93C31.2192 6.93 28.7202 9.446 28.7202 13.016C28.7202 16.586 31.2362 19.085 34.8062 19.085C37.9512 19.085 39.9402 17.028 40.5522 14.971V12.268H34.2282V14.41H37.9172C37.4752 15.753 36.4722 16.518 35.0272 16.518C32.9362 16.518 31.6782 15.226 31.6782 13.016C31.6782 10.942 32.9192 9.616 34.7892 9.616C35.8772 9.616 36.6932 10.041 37.1352 10.84H40.3482C39.7192 8.392 37.6452 6.93 34.7892 6.93ZM53.9094 12.999C53.9094 9.412 51.2064 6.896 47.8064 6.896C44.4234 6.896 41.6694 9.412 41.6694 12.999C41.6694 16.586 44.4234 19.119 47.8064 19.119C51.1894 19.119 53.9094 16.586 53.9094 12.999ZM44.6444 12.999C44.6444 10.874 45.8684 9.531 47.8064 9.531C49.7104 9.531 50.9514 10.874 50.9514 12.999C50.9514 15.09 49.7104 16.467 47.8064 16.467C45.8684 16.467 44.6444 15.09 44.6444 12.999Z" fill="white"/>
<path d="M15.0103 19H17.9173V7.066H15.0103V11.741H10.4883V7.066H7.58134V19H10.4883V14.087H15.0103V19ZM27.3259 7.066H20.0159V19H27.3259V16.671H22.9229V14.053H26.8159V11.809H22.9229V9.395H27.3259V7.066ZM34.7892 6.93C31.2192 6.93 28.7202 9.446 28.7202 13.016C28.7202 16.586 31.2362 19.085 34.8062 19.085C37.9512 19.085 39.9402 17.028 40.5522 14.971V12.268H34.2282V14.41H37.9172C37.4752 15.753 36.4722 16.518 35.0272 16.518C32.9362 16.518 31.6782 15.226 31.6782 13.016C31.6782 10.942 32.9192 9.616 34.7892 9.616C35.8772 9.616 36.6932 10.041 37.1352 10.84H40.3482C39.7192 8.392 37.6452 6.93 34.7892 6.93ZM53.9094 12.999C53.9094 9.412 51.2064 6.896 47.8064 6.896C44.4234 6.896 41.6694 9.412 41.6694 12.999C41.6694 16.586 44.4234 19.119 47.8064 19.119C51.1894 19.119 53.9094 16.586 53.9094 12.999ZM44.6444 12.999C44.6444 10.874 45.8684 9.531 47.8064 9.531C49.7104 9.531 50.9514 10.874 50.9514 12.999C50.9514 15.09 49.7104 16.467 47.8064 16.467C45.8684 16.467 44.6444 15.09 44.6444 12.999Z" fill="white"/>
<line x1="19" y1="24.5" x2="42" y2="24.5" stroke="#B2C9C6"/>
</svg>
