<svg width="643" height="308" viewBox="0 0 643 308" fill="none" xmlns="http://www.w3.org/2000/svg">
<path d="M279.124 -332.384C313.512 -379.959 392.441 -415.395 459.422 -381.096C525.086 -347.465 477.889 -241.696 571.173 -132.997C621.35 -74.5378 658.132 -65.0895 666.423 -16.3511C674.977 33.9192 646.744 88.0229 612.43 120.732C541.654 188.217 468.402 142.399 388.491 217.632C361.02 243.51 356.65 261.212 323.141 280.233C315.106 284.766 252.655 320.33 199.341 302.269C116.621 274.252 158.227 151.898 44.2383 -12.9638C25.1829 -40.5135 1.32302 -69.922 0.153231 -113.96C-1.47218 -174.973 41.889 -220.542 58.3349 -238.543C98.3686 -282.341 171.871 -326.839 211.361 -303.614C224.156 -296.127 258.206 -303.48 279.124 -332.384Z" fill="#F4F4F4" fill-opacity="0.1"/>
</svg>
