<svg width="120" height="126" viewBox="0 0 120 126" fill="none" xmlns="http://www.w3.org/2000/svg">
<g clip-path="url(#clip0_131_360)">
<path d="M57.0901 76.6969H28.5552C27.9045 76.6969 27.2804 76.4391 26.8203 75.9803C26.3601 75.5215 26.1016 74.8991 26.1016 74.2503V73.2146C26.1525 69.4649 24.8011 65.8306 22.3109 63.0204C18.7143 59.0646 16.3455 54.1536 15.4913 48.8825C14.6371 43.6114 15.3342 38.2063 17.4982 33.3222C19.6622 28.4382 23.2001 24.2848 27.6834 21.3652C32.1668 18.4456 37.4032 16.8851 42.7579 16.8729C48.1126 16.8607 53.3558 18.3972 57.8525 21.2963C62.3492 24.1954 65.9062 28.3327 68.0927 33.2069C70.2791 38.081 71.001 43.4827 70.171 48.7576C69.341 54.0326 66.9947 58.9545 63.4163 62.9267C60.8541 65.8709 59.4735 69.6553 59.5397 73.553V74.2666C59.5354 74.9119 59.2755 75.5295 58.8167 75.9847C58.3579 76.4398 57.7373 76.6958 57.0901 76.6969ZM30.9639 71.8036H54.7021C54.9978 67.3017 56.7809 63.0244 59.7727 59.64C62.719 56.3701 64.6511 52.3183 65.3346 47.9756C66.0181 43.6328 65.4237 39.1856 63.6236 35.1729C61.8235 31.1602 58.895 27.7543 55.1928 25.3678C51.4907 22.9813 47.1738 21.7167 42.7655 21.7274C38.3571 21.738 34.0464 23.0233 30.3558 25.4276C26.6653 27.8319 23.7532 31.252 21.9726 35.2734C20.192 39.2947 19.6194 43.7447 20.3239 48.0841C21.0285 52.4234 22.98 56.4659 25.9421 59.7216C28.9474 63.0643 30.7252 67.3257 30.9842 71.8077L30.9639 71.8036Z" fill="#FAFAFA"/>
<path d="M56.2357 87.3194H29.4142C27.3535 87.3194 25.3773 86.5031 23.9202 85.0502C22.4631 83.5972 21.6445 81.6266 21.6445 79.5718C21.6445 77.517 22.4631 75.5464 23.9202 74.0934C25.3773 72.6405 27.3535 71.8242 29.4142 71.8242H56.2357C58.2963 71.8242 60.2726 72.6405 61.7297 74.0934C63.1868 75.5464 64.0053 77.517 64.0053 79.5718C64.0053 81.6266 63.1868 83.5972 61.7297 85.0502C60.2726 86.5031 58.2963 87.3194 56.2357 87.3194ZM29.4142 76.697C28.6517 76.697 27.9204 76.999 27.3813 77.5366C26.8422 78.0742 26.5393 78.8034 26.5393 79.5636C26.5393 80.3239 26.8422 81.053 27.3813 81.5906C27.9204 82.1282 28.6517 82.4302 29.4142 82.4302H56.2357C56.9981 82.4302 57.7294 82.1282 58.2686 81.5906C58.8077 81.053 59.1104 80.3239 59.1104 79.5636C59.1104 78.8034 58.8077 78.0742 58.2686 77.5366C57.7294 76.999 56.9981 76.697 56.2357 76.697H29.4142Z" fill="#FAFAFA"/>
<path d="M56.2357 97.9417H29.4142C27.3535 97.9417 25.3773 97.1254 23.9202 95.6725C22.4631 94.2195 21.6445 92.2489 21.6445 90.1941C21.6445 88.1393 22.4631 86.1687 23.9202 84.7157C25.3773 83.2628 27.3535 82.4465 29.4142 82.4465H56.2357C58.2963 82.4465 60.2726 83.2628 61.7297 84.7157C63.1868 86.1687 64.0053 88.1393 64.0053 90.1941C64.0053 92.2489 63.1868 94.2195 61.7297 95.6725C60.2726 97.1254 58.2963 97.9417 56.2357 97.9417ZM29.4142 87.3397C28.6517 87.3397 27.9204 87.6418 27.3813 88.1794C26.8422 88.717 26.5393 89.4461 26.5393 90.2064C26.5393 90.9666 26.8422 91.6957 27.3813 92.2333C27.9204 92.7709 28.6517 93.073 29.4142 93.073H56.2357C56.9981 93.073 57.7294 92.7709 58.2686 92.2333C58.8077 91.6957 59.1104 90.9666 59.1104 90.2064C59.1104 89.4461 58.8077 88.717 58.2686 88.1794C57.7294 87.6418 56.9981 87.3397 56.2357 87.3397H29.4142Z" fill="#FAFAFA"/>
<path d="M82.2191 126H41.6779C41.0272 126 40.4031 125.742 39.943 125.283C39.4829 124.825 39.2244 124.202 39.2244 123.553V104.967C39.2198 104.646 39.2788 104.327 39.3979 104.028C39.517 103.73 39.6938 103.458 39.9184 103.227C40.372 102.762 40.9925 102.495 41.6432 102.486C42.2939 102.477 42.9217 102.726 43.3883 103.178C43.855 103.63 44.1223 104.249 44.1315 104.898C44.1315 105.306 44.1315 105.714 44.1315 106.146V121.111H79.7696V107.805C79.768 107.463 79.8384 107.124 79.9762 106.811C80.1141 106.498 80.3165 106.217 80.57 105.986C80.8236 105.755 81.1228 105.58 81.4484 105.472C81.774 105.364 82.1188 105.326 82.4603 105.359L97.2187 106.786C98.1602 107.015 99.1415 107.027 100.088 106.82C101.035 106.614 101.922 106.195 102.682 105.595C103.401 105.018 103.982 104.287 104.38 103.457C104.777 102.626 104.983 101.716 104.98 100.796V86.8502C104.98 86.2013 105.239 85.579 105.699 85.1202C106.159 84.6614 106.783 84.4036 107.434 84.4036H112.361C112.853 84.4026 113.336 84.2685 113.758 84.0157C114.18 83.7628 114.525 83.4006 114.757 82.9677C114.989 82.5347 115.099 82.0472 115.076 81.5569C115.052 81.0666 114.895 80.5918 114.622 80.1832L110.533 74.0382C107.865 70.055 106.442 65.372 106.444 60.5819V57.4257C106.444 45.3436 100.874 34.3584 91.5508 28.0339C84.7066 23.4037 76.4878 21.2297 68.2419 21.8684C67.9197 21.8952 67.5954 21.8584 67.2875 21.7602C66.9795 21.662 66.6939 21.5043 66.447 21.296C66.2002 21.0878 65.9971 20.8331 65.849 20.5465C65.7009 20.2599 65.6107 19.947 65.5839 19.6257C65.557 19.3044 65.594 18.9811 65.6925 18.674C65.791 18.3669 65.9491 18.0822 66.1579 17.8361C66.3668 17.5899 66.6223 17.3872 66.9097 17.2395C67.1971 17.0919 67.5108 17.002 67.833 16.9752C77.1146 16.246 86.3706 18.6705 94.0944 23.8543C104.939 31.1941 111.31 43.7044 111.31 57.4054V60.5615C111.307 64.3938 112.446 68.1407 114.582 71.3265L118.691 77.4716C119.459 78.6164 119.9 79.9476 119.968 81.323C120.036 82.6984 119.727 84.0664 119.076 85.2807C118.425 86.495 117.455 87.51 116.27 88.2174C115.085 88.9247 113.73 89.2979 112.349 89.2968H109.85V100.8C109.85 102.436 109.486 104.052 108.784 105.53C108.082 107.009 107.06 108.314 105.791 109.351C104.522 110.389 103.038 111.132 101.446 111.528C99.8538 111.924 98.1936 111.963 96.5847 111.642L84.64 110.488V123.537C84.6443 124.183 84.3923 124.805 83.9387 125.266C83.4852 125.728 82.867 125.991 82.2191 126Z" fill="#FAFAFA"/>
<path d="M107.814 126H4.26119C3.61046 126 2.98637 125.742 2.52624 125.284C2.0661 124.825 1.80762 124.202 1.80762 123.554C1.80762 122.905 2.0661 122.282 2.52624 121.824C2.98637 121.365 3.61046 121.107 4.26119 121.107H107.814C108.465 121.107 109.089 121.365 109.549 121.824C110.009 122.282 110.268 122.905 110.268 123.554C110.268 124.202 110.009 124.825 109.549 125.284C109.089 125.742 108.465 126 107.814 126Z" fill="#FAFAFA"/>
<path d="M39.8421 56.6879C39.4375 56.6823 39.0404 56.5792 38.6844 56.3875C38.3284 56.1958 38.0241 55.9212 37.7974 55.587L30.6901 44.8137C30.4859 44.5469 30.339 44.241 30.2584 43.915C30.1778 43.5891 30.1653 43.2501 30.2217 42.9191C30.2781 42.5882 30.4024 42.2723 30.5865 41.9913C30.7706 41.7102 31.0107 41.47 31.2919 41.2855C31.5732 41.1009 31.8895 40.9761 32.2212 40.9187C32.5529 40.8613 32.8928 40.8726 33.22 40.9519C33.5471 41.0311 33.8544 41.1768 34.1227 41.3795C34.391 41.5823 34.6145 41.838 34.7794 42.1307L40.0711 50.1433L51.7417 36.0998C51.9417 35.8362 52.1932 35.6158 52.4809 35.4518C52.7686 35.2878 53.0866 35.1836 53.4158 35.1455C53.745 35.1074 54.0785 35.1362 54.3962 35.2301C54.7139 35.324 55.0092 35.4811 55.2644 35.692C55.5195 35.9029 55.7292 36.1631 55.8807 36.457C56.0323 36.7509 56.1226 37.0723 56.1461 37.4019C56.1696 37.7315 56.126 38.0625 56.0177 38.3749C55.9095 38.6872 55.7389 38.9744 55.5163 39.2192L41.7272 55.803C41.4973 56.0794 41.2092 56.302 40.8834 56.4549C40.5576 56.6078 40.2022 56.6874 39.8421 56.6879Z" fill="#FAFAFA"/>
<path d="M43.1826 12.1107C42.5318 12.1107 41.9078 11.8529 41.4476 11.3941C40.9875 10.9353 40.729 10.3129 40.729 9.66406V2.4466C40.729 1.79772 40.9875 1.17541 41.4476 0.716579C41.9078 0.257752 42.5318 0 43.1826 0C43.8333 0 44.4574 0.257752 44.9175 0.716579C45.3777 1.17541 45.6362 1.79772 45.6362 2.4466V9.66406C45.6362 10.3129 45.3777 10.9353 44.9175 11.3941C44.4574 11.8529 43.8333 12.1107 43.1826 12.1107Z" fill="#FAFAFA"/>
<path d="M76.0279 37.7267C75.4144 37.7192 74.8261 37.4828 74.3788 37.064C73.9315 36.6453 73.6577 36.0746 73.6115 35.4645C73.5653 34.8544 73.75 34.2492 74.1292 33.7682C74.5084 33.2872 75.0545 32.9654 75.6599 32.8661L82.8283 31.7774C83.154 31.7118 83.4897 31.7129 83.8149 31.7806C84.1401 31.8482 84.4482 31.981 84.7204 32.1709C84.9926 32.3608 85.2233 32.6037 85.3985 32.8852C85.5737 33.1666 85.6896 33.4806 85.7395 33.8081C85.7894 34.1357 85.7721 34.4699 85.6886 34.7905C85.6051 35.1112 85.4573 35.4115 85.2539 35.6735C85.0505 35.9354 84.796 36.1534 84.5056 36.3143C84.2152 36.4752 83.895 36.5756 83.5645 36.6095L76.4001 37.6982C76.277 37.7176 76.1525 37.7272 76.0279 37.7267Z" fill="#FAFAFA"/>
<path d="M9.62204 37.7267C9.49743 37.7272 9.37313 37.7176 9.25005 37.6981L2.08143 36.6094C1.46239 36.486 0.914877 36.1293 0.552741 35.6137C0.190605 35.0981 0.0417041 34.4632 0.137024 33.8409C0.232344 33.2186 0.564713 32.6569 1.0647 32.2725C1.56469 31.8882 2.19385 31.7109 2.82161 31.7774L9.99024 32.8661C10.5956 32.9654 11.1417 33.2872 11.5209 33.7682C11.9001 34.2492 12.0849 34.8544 12.0387 35.4645C11.9925 36.0745 11.7186 36.6452 11.2713 37.064C10.824 37.4827 10.2355 37.7192 9.62204 37.7267Z" fill="#FAFAFA"/>
</g>
<defs>
<clipPath id="clip0_131_360">
<rect width="120" height="126" fill="white"/>
</clipPath>
</defs>
</svg>
