<svg width="224" height="332" viewBox="0 0 224 332" fill="none" xmlns="http://www.w3.org/2000/svg">
<g clip-path="url(#clip0_131_297)">
<path d="M91.1799 -15.8841C65.5056 -33.2701 30.5198 -40.2367 5.80755 -2.82067C-10.3035 21.5287 -2.1437 57.1963 21.7816 76.9433C50.8725 100.949 81.5191 95.8428 108.607 63.2591C127.237 40.8098 123.286 5.85472 91.1799 -15.8841Z" fill="#10DD8E"/>
<path d="M25.9748 71.3092C4.50872 53.6 -1.73215 22.1927 12.0632 1.31714C20.5431 -11.521 31.0223 -19.2516 43.2118 -21.6731C56.5892 -24.3419 72.1364 -20.2634 86.9592 -10.2276C100.826 -0.837515 109.56 12.0927 111.56 26.19C112.425 32.0862 112.03 38.0993 110.402 43.833C108.773 49.5668 105.948 54.8911 102.112 59.455C95.1102 67.8824 87.8418 74.169 80.3811 78.3459C62.5744 88.3231 43.8495 86.0638 25.9748 71.3092ZM85.1261 -7.5143C79.0001 -11.7665 72.2454 -15.0333 65.1075 -17.1961C57.65 -19.3601 50.4961 -19.7899 43.8414 -18.4665C32.5479 -16.2252 22.7689 -8.96688 14.7873 3.11014C1.8836 22.6349 7.83922 52.0968 28.0618 68.7909C39.9888 78.608 52.1666 82.6125 64.3016 80.6393C76.4366 78.6661 88.3501 70.8555 99.5807 57.3451C103.123 53.1308 105.732 48.2145 107.236 42.9201C108.74 37.6256 109.106 32.0733 108.309 26.6285C106.439 13.4541 98.1701 1.34 85.1124 -7.5388L85.1261 -7.5143Z" fill="#30262A"/>
<path d="M62.9077 63.4468L62.1767 59.6139C62.0669 58.9601 61.7191 58.3702 61.2002 57.9576C60.6813 57.545 60.028 57.339 59.366 57.3792C56.3855 57.6293 53.3847 57.3232 50.5166 56.4765C49.9015 56.2612 49.3807 55.8386 49.0436 55.281C48.7065 54.7235 48.5742 54.066 48.6694 53.4213L48.7891 52.4865C48.8218 52.1134 48.9361 51.7521 49.124 51.4281C49.312 51.1041 49.5689 50.8254 49.8766 50.6117C50.1843 50.3981 50.5351 50.2546 50.9044 50.1917C51.2737 50.1287 51.6523 50.1479 52.0132 50.2476C55.1792 51.176 58.5211 51.3374 61.7626 50.7186C67.5561 49.5801 69.4437 44.8677 68.4729 39.7309C67.5301 34.7874 65.1297 32.5962 58.5386 31.1041C49.481 29.1691 40.4128 26.6696 38.9277 18.848C37.6277 12.0316 40.2535 4.35911 49.8611 2.12169C51.004 1.85141 51.4872 0.359676 51.2573 -0.869414L50.4556 -5.07252C50.3014 -5.7668 50.4283 -6.49405 50.8086 -7.09534C51.1889 -7.69663 51.7917 -8.12316 52.4853 -8.28178C52.8309 -8.33984 53.1846 -8.32883 53.5259 -8.24939C53.8671 -8.16995 54.1892 -8.02367 54.4735 -7.81898C54.7578 -7.61428 54.9986 -7.35523 55.1821 -7.05685C55.3656 -6.75846 55.4881 -6.42657 55.5425 -6.08051L56.2077 -2.58054C56.3107 -1.93485 56.6471 -1.34943 57.1531 -0.935264C57.659 -0.521093 58.2994 -0.306965 58.953 -0.333338C61.1941 -0.516696 63.4501 -0.333176 65.6318 0.209891C66.2863 0.403137 66.8478 0.828385 67.2111 1.4059C67.5743 1.98341 67.7145 2.67359 67.6052 3.3472L67.4703 4.22617C67.43 4.58501 67.3139 4.93125 67.1298 5.242C66.9457 5.55276 66.6978 5.82092 66.4024 6.02883C66.107 6.23674 65.7708 6.37971 65.4162 6.44815C65.0615 6.51659 64.6964 6.509 64.3449 6.42591C61.6427 5.76472 58.8269 5.71369 56.102 6.27643C49.7802 7.53394 48.1955 12.1411 48.8747 15.7378C49.7643 20.4139 54.2581 19.9547 62.0308 21.8057C71.2333 23.8846 77.5583 28.1609 79.7654 35.98C82.1123 44.3072 78.5679 51.2004 68.6085 54.9203C68.0684 55.1837 67.635 55.6245 67.3808 56.169C67.1267 56.7134 67.0672 57.3285 67.2123 57.9114L68.0612 62.3854C68.2153 63.08 68.0889 63.8074 67.7094 64.4095C67.33 65.0116 66.7281 65.4397 66.0348 65.6007L65.9675 65.6384C65.6225 65.6959 65.2695 65.6849 64.9289 65.6059C64.5882 65.5268 64.2666 65.3814 63.9823 65.1778C63.6981 64.9742 63.4568 64.7164 63.2724 64.4193C63.088 64.1223 62.9641 63.7919 62.9077 63.4468Z" fill="#30262A"/>
<path d="M84.0052 200.19C65.5122 167.158 31.1351 140.215 -16.2915 166.767C-47.1747 184.057 -57.8502 227.032 -42.569 261.621C-23.9892 303.667 12.2395 315.208 59.6647 295.173C92.2758 281.343 107.115 241.468 84.0052 200.19Z" fill="#10DD8E"/>
<path d="M54.625 287.478C13.0764 305.059 -18.7138 294.567 -34.9031 257.94C-48.6156 226.899 -38.211 189.572 -11.7038 174.731C7.33049 164.075 25.384 162.436 41.9571 169.869C58.8153 177.423 69.9316 192.555 76.2946 203.921C86.3048 221.801 88.7267 240.643 83.126 256.987C79.1178 268.854 70.833 278.806 59.8869 284.901C58.1815 285.856 56.4249 286.716 54.625 287.478ZM-31.2636 256.328C-23.6518 273.542 -12.5288 284.637 1.80564 289.306C16.14 293.975 33.4151 292.137 53.0729 283.815C59.2051 281.268 64.7226 277.44 69.2557 272.588C73.7888 267.736 77.2328 261.972 79.3571 255.683C84.5939 240.426 82.2627 222.722 72.8175 205.851C44.3929 155.08 5.58632 169.575 -9.77574 178.175C-34.5249 192.063 -44.1722 227.111 -31.2636 256.328Z" fill="#30262A"/>
<path d="M45.0981 266.828L42.1881 263.067C41.717 262.414 41.0191 261.962 40.2312 261.798C39.4434 261.634 38.6226 261.771 37.9299 262.181C34.8651 264.115 31.4613 265.451 27.899 266.117C27.1129 266.228 26.3132 266.059 25.6386 265.642C24.964 265.224 24.4574 264.582 24.2068 263.83L23.8234 262.743C23.6544 262.319 23.5798 261.863 23.6048 261.408C23.6298 260.952 23.7538 260.508 23.9681 260.105C24.1824 259.702 24.482 259.35 24.8459 259.075C25.2098 258.799 25.6294 258.606 26.0754 258.509C30.0059 257.762 33.6993 256.08 36.8432 253.606C42.4834 249.106 41.9204 242.946 38.059 237.901C34.3343 233.028 30.5361 231.973 22.624 234.009C11.7984 236.928 0.640696 239.254 -5.23499 231.544C-10.3706 224.826 -11.7418 214.997 -2.61842 207.214C-1.52791 206.29 -1.80975 204.351 -2.74999 203.174L-5.91581 199.041C-6.46038 198.364 -6.72024 197.502 -6.64037 196.637C-6.56049 195.773 -6.14713 194.973 -5.48782 194.407C-5.14907 194.151 -4.76241 193.965 -4.35076 193.862C-3.93911 193.758 -3.51085 193.738 -3.09141 193.803C-2.67197 193.868 -2.26993 194.016 -1.90903 194.24C-1.54814 194.463 -1.23575 194.756 -0.990478 195.102L1.64738 198.551C2.10778 199.195 2.79095 199.647 3.56494 199.817C4.33892 199.988 5.14885 199.866 5.83824 199.474C8.14709 198.031 10.678 196.977 13.3294 196.357C14.1459 196.201 14.9913 196.352 15.7031 196.781C16.415 197.21 16.9432 197.886 17.1866 198.681L17.5338 199.732C17.6886 200.143 17.7548 200.583 17.7281 201.022C17.7014 201.46 17.5824 201.889 17.3789 202.279C17.1754 202.669 16.892 203.011 16.5471 203.284C16.2023 203.557 15.8037 203.755 15.3775 203.863C12.0944 204.649 9.02945 206.162 6.40867 208.29C0.296156 213.166 1.09281 219.083 3.79701 222.607C7.31445 227.21 11.9423 224.233 21.2949 221.914C32.3327 219.101 41.5255 220.229 48.1921 227.528C55.3154 235.326 55.2414 244.8 46.5506 254.39C45.5797 255.455 45.7419 257.253 46.6855 258.436L50.0491 262.835C50.5937 263.512 50.8535 264.374 50.7737 265.239C50.6938 266.104 50.2804 266.904 49.6211 267.47L49.5354 267.518C48.8539 268.011 48.0055 268.215 47.1745 268.086C46.3436 267.957 45.5973 267.505 45.0981 266.828Z" fill="#30262A"/>
<g clip-path="url(#clip1_131_297)">
<path d="M143.561 106.229C126.413 94.6168 103.045 89.9637 86.5398 114.954C75.7791 131.217 81.2291 155.04 97.2091 168.229C116.639 184.263 137.108 180.853 155.201 159.09C167.644 144.095 165.005 120.749 143.561 106.229Z" fill="#10DD8E"/>
<path d="M100.01 164.466C85.6724 152.638 81.504 131.661 90.7181 117.718C96.3819 109.143 103.381 103.98 111.523 102.362C120.457 100.58 130.842 103.304 140.742 110.007C150.003 116.279 155.837 124.915 157.173 134.331C157.751 138.269 157.487 142.285 156.399 146.115C155.312 149.944 153.425 153.5 150.863 156.549C146.186 162.178 141.331 166.376 136.348 169.166C124.455 175.83 111.948 174.321 100.01 164.466ZM139.518 111.819C135.426 108.979 130.914 106.797 126.147 105.353C121.166 103.907 116.388 103.62 111.943 104.504C104.4 106.001 97.8685 110.849 92.5375 118.915C83.919 131.956 87.8968 151.634 101.404 162.784C109.37 169.341 117.504 172.016 125.609 170.698C133.714 169.38 141.671 164.163 149.172 155.14C151.538 152.325 153.28 149.041 154.285 145.505C155.29 141.969 155.534 138.26 155.001 134.624C153.753 125.824 148.23 117.733 139.508 111.803L139.518 111.819Z" fill="#30262A"/>
<path d="M124.678 159.215L124.19 156.655C124.116 156.218 123.884 155.824 123.537 155.549C123.191 155.273 122.754 155.135 122.312 155.162C120.322 155.329 118.317 155.125 116.402 154.559C115.991 154.416 115.643 154.133 115.418 153.761C115.193 153.389 115.104 152.949 115.168 152.519L115.248 151.894C115.27 151.645 115.346 151.404 115.472 151.188C115.597 150.971 115.769 150.785 115.974 150.642C116.18 150.5 116.414 150.404 116.661 150.362C116.907 150.32 117.16 150.332 117.401 150.399C119.516 151.019 121.748 151.127 123.913 150.714C127.783 149.953 129.043 146.806 128.395 143.375C127.765 140.073 126.162 138.61 121.76 137.613C115.71 136.321 109.653 134.651 108.661 129.427C107.793 124.874 109.547 119.75 115.964 118.255C116.727 118.075 117.05 117.078 116.896 116.257L116.361 113.45C116.258 112.986 116.343 112.501 116.597 112.099C116.851 111.698 117.253 111.413 117.717 111.307C117.947 111.268 118.184 111.275 118.412 111.328C118.64 111.381 118.855 111.479 119.045 111.616C119.234 111.753 119.395 111.926 119.518 112.125C119.64 112.324 119.722 112.546 119.759 112.777L120.203 115.115C120.272 115.546 120.496 115.937 120.834 116.213C121.172 116.49 121.6 116.633 122.036 116.616C123.533 116.493 125.04 116.616 126.497 116.978C126.934 117.107 127.309 117.391 127.552 117.777C127.795 118.163 127.888 118.624 127.815 119.074L127.725 119.661C127.698 119.901 127.621 120.132 127.498 120.339C127.375 120.547 127.209 120.726 127.012 120.865C126.815 121.004 126.59 121.099 126.353 121.145C126.116 121.191 125.872 121.186 125.638 121.13C123.833 120.688 121.952 120.654 120.132 121.03C115.91 121.87 114.851 124.947 115.305 127.35C115.899 130.473 118.901 130.166 124.092 131.402C130.239 132.791 134.463 135.647 135.937 140.87C137.505 146.431 135.137 151.035 128.485 153.52C128.125 153.696 127.835 153.99 127.665 154.354C127.496 154.718 127.456 155.128 127.553 155.518L128.12 158.506C128.223 158.97 128.138 159.456 127.885 159.858C127.632 160.26 127.23 160.546 126.766 160.654L126.721 160.679C126.491 160.717 126.255 160.71 126.028 160.657C125.8 160.604 125.585 160.507 125.396 160.371C125.206 160.235 125.045 160.063 124.921 159.865C124.798 159.666 124.715 159.445 124.678 159.215Z" fill="#30262A"/>
</g>
</g>
<defs>
<clipPath id="clip0_131_297">
<rect width="260.487" height="294.551" fill="white" transform="translate(-148 74.2495) rotate(-29.2424)"/>
</clipPath>
<clipPath id="clip1_131_297">
<rect width="173.982" height="196.734" fill="white" transform="translate(-16.1897 166.43) rotate(-29.2424)"/>
</clipPath>
</defs>
</svg>
