<svg width="289" height="145" viewBox="0 0 289 145" fill="none" xmlns="http://www.w3.org/2000/svg">
<g clip-path="url(#clip0_131_310)">
<path d="M225.274 31.1814C258.006 25.3154 295.327 33.7285 303.199 81.0816C308.34 111.942 284.784 143.327 252.723 152.264C213.765 163.13 185.976 144.807 173.67 101.106C165.207 71.0402 184.342 38.5142 225.274 31.1814Z" fill="#FCCA00"/>
<path d="M194.699 128.186C189.225 120.863 184.844 111.522 181.665 100.233C179.902 94.0943 179.46 87.6509 180.369 81.3268C181.277 75.0026 183.515 68.9411 186.935 63.5412C195.048 50.6023 209.252 41.7303 226.92 38.5605C245.828 35.1772 262.833 37.9802 274.763 46.3781C285.643 54.0504 292.53 66.1794 295.236 82.4373C299.632 108.884 279.81 136.924 251.056 144.947C227.106 151.621 207.773 145.68 194.699 128.186ZM227.537 42.0108C210.851 44.9998 197.485 53.3107 189.932 65.428C186.772 70.4125 184.704 76.009 183.865 81.8484C183.026 87.6878 183.435 93.6374 185.065 99.3047C190.163 117.432 198.366 130.266 209.448 137.468C220.531 144.67 234.188 146.046 250.11 141.621C277.196 134.066 295.884 107.802 291.784 83.0572C289.234 67.7615 282.832 56.3951 272.746 49.2829C266.805 45.1035 259.618 42.4092 251.37 41.2861C243.435 40.3017 235.393 40.5625 227.535 42.059L227.537 42.0108Z" fill="#30262A"/>
<path d="M201.675 98.9147L205.623 97.5768C206.303 97.3685 206.883 96.9164 207.251 96.3073C207.619 95.6983 207.749 94.9752 207.616 94.2766C206.926 91.1467 206.832 87.9139 207.339 84.7479C207.481 84.0637 207.856 83.4499 208.401 83.0119C208.946 82.5739 209.626 82.3392 210.325 82.3479L211.335 82.343C211.736 82.3263 212.135 82.3975 212.505 82.5518C212.875 82.7061 213.207 82.9397 213.477 83.2361C213.747 83.5325 213.948 83.8844 214.067 84.2672C214.186 84.6499 214.22 85.0543 214.166 85.4516C213.62 88.9472 213.913 92.5216 215.021 95.8798C217.041 101.874 222.319 103.219 227.639 101.456C232.767 99.7614 234.763 96.8911 235.428 89.6783C236.224 79.7885 237.608 69.8063 245.717 67.1128C252.781 64.7684 261.298 66.478 265.025 76.3638C265.466 77.5443 267.13 77.8483 268.4 77.4244L272.75 75.9832C273.467 75.7233 274.257 75.7557 274.95 76.0735C275.642 76.3913 276.182 76.9688 276.451 77.6814C276.561 78.041 276.598 78.4189 276.561 78.7931C276.523 79.1674 276.412 79.5306 276.234 79.8618C276.056 80.1931 275.813 80.4858 275.521 80.7232C275.229 80.9605 274.893 81.1378 274.532 81.2447L270.909 82.4521C270.239 82.6515 269.664 83.0898 269.295 83.6839C268.926 84.278 268.787 84.9866 268.905 85.6756C269.413 88.0306 269.533 90.453 269.261 92.8475C269.149 93.5723 268.777 94.2316 268.213 94.7013C267.649 95.171 266.933 95.4187 266.2 95.3978L265.243 95.3728C264.856 95.3799 264.473 95.3052 264.118 95.1536C263.763 95.002 263.444 94.7769 263.182 94.4932C262.921 94.2096 262.722 93.8737 262.6 93.5076C262.477 93.1415 262.434 92.7536 262.472 92.3694C262.8 89.403 262.459 86.4014 261.475 83.5853C259.259 77.0532 254.141 76.0104 250.411 77.2508C245.565 78.8567 246.681 83.5658 245.805 92.0801C244.854 102.114 241.208 109.472 233.211 112.917C224.686 116.587 216.869 113.792 211.522 103.748C211.168 103.208 210.638 102.807 210.023 102.613C209.407 102.419 208.743 102.443 208.142 102.681L203.538 104.247C202.821 104.509 202.03 104.477 201.337 104.159C200.644 103.841 200.105 103.263 199.837 102.549L199.783 102.476C199.563 101.754 199.639 100.973 199.993 100.306C200.348 99.6382 200.952 99.138 201.675 98.9147Z" fill="#30262A"/>
</g>
<defs>
<clipPath id="clip0_131_310">
<rect width="279" height="316" fill="white" transform="translate(253.113) rotate(53.2247)"/>
</clipPath>
</defs>
</svg>
