<svg width="237" height="316" viewBox="0 0 237 316" fill="none" xmlns="http://www.w3.org/2000/svg">
<g clip-path="url(#clip0_89:169)">
<path d="M8.30935 40.9665C23.2071 11.2362 52.2889 -13.6206 94.9311 8.42331C122.728 22.7808 133.764 60.4383 121.729 91.4697C107.109 129.18 75.7962 140.469 33.4244 124.163C4.27506 112.942 -10.3222 78.1425 8.30935 40.9665Z" fill="#10DD8E"/>
<path d="M67.7048 123.532C58.5618 123.532 48.4571 121.448 37.5111 117.236C31.5391 114.973 26.1136 111.469 21.5919 106.956C17.0701 102.442 13.5545 97.0206 11.2766 91.0486C5.7698 76.8039 7.16725 60.115 15.2059 44.0653C23.8154 26.895 36.2415 14.9517 50.1099 10.4241C62.7689 6.30263 76.6073 8.04742 91.2496 15.6135C115.065 27.9253 125.658 60.5888 114.87 88.4238C105.877 111.603 89.5443 123.532 67.7048 123.532ZM18.3386 45.637C10.7432 60.7917 9.39847 76.4731 14.5822 89.7776C16.683 95.2928 19.9279 100.299 24.1029 104.467C28.2779 108.635 33.2882 111.87 38.8033 113.957C56.3755 120.726 71.5662 121.839 83.9697 117.274C96.3733 112.709 105.652 102.593 111.639 87.1903C121.804 60.9722 111.955 30.2793 89.6795 18.7497C75.9012 11.6348 62.9642 9.95778 51.2293 13.7784C44.3251 16.0347 37.8642 20.1787 32.0268 26.1127C26.4874 31.8797 21.8818 38.4773 18.3762 45.6672L18.3386 45.637Z" fill="#30262A"/>
<path d="M48.4347 100.42L49.7269 96.4561C49.9673 95.7864 49.9523 95.0514 49.6847 94.3921C49.4171 93.7328 48.9157 93.1957 48.2769 92.8837C45.3563 91.563 42.7107 89.7029 40.4787 87.4009C40.0154 86.8779 39.7485 86.2097 39.7238 85.5111C39.6991 84.8125 39.9182 84.1273 40.3435 83.5728L40.9445 82.7605C41.1711 82.4295 41.4672 82.1522 41.8124 81.9482C42.1575 81.7441 42.5432 81.6184 42.9421 81.5797C43.3411 81.5409 43.7436 81.5901 44.1215 81.724C44.4993 81.8578 44.8433 82.073 45.1291 82.3543C47.6021 84.8845 50.6407 86.7895 53.9941 87.9122C60.0043 89.8827 64.2415 86.4607 66.0145 81.1434C67.7274 76.0216 66.6229 72.7049 61.2438 67.8539C53.7987 61.2957 46.6316 54.211 49.3287 46.1034C51.6801 39.0412 58.1486 33.2426 68.2983 36.1758C69.5078 36.5293 70.7475 35.3786 71.1682 34.1075L72.6181 29.7604C72.8391 29.0306 73.3381 28.4171 74.0073 28.0526C74.6765 27.6881 75.462 27.6018 76.1942 27.8124C76.5478 27.94 76.8728 28.1363 77.1502 28.3903C77.4277 28.6442 77.6521 28.9506 77.8106 29.2918C77.9692 29.633 78.0586 30.0023 78.0739 30.3783C78.0892 30.7543 78.0299 31.1298 77.8996 31.4827L76.6976 35.1077C76.4558 35.7642 76.4631 36.4866 76.7178 37.1381C76.9726 37.7896 77.4572 38.3248 78.0799 38.6425C80.2699 39.6462 82.2821 41.0002 84.0375 42.6512C84.5512 43.1746 84.856 43.868 84.8948 44.6007C84.9335 45.3334 84.7034 46.0551 84.2478 46.6298L83.6543 47.3819C83.4288 47.6955 83.1396 47.9578 82.8056 48.1515C82.4716 48.3451 82.1005 48.4657 81.7166 48.5055C81.3326 48.5453 80.9446 48.5034 80.5781 48.3823C80.2116 48.2612 79.8748 48.0638 79.5899 47.8032C77.4103 45.7644 74.8021 44.2404 71.957 43.3431C65.3984 41.2072 61.4993 44.682 60.2597 48.4124C58.6445 53.2559 63.0845 55.1812 69.3802 60.9799C76.8478 67.7487 80.5591 75.0741 78.5306 83.5427C76.367 92.5678 69.4478 97.1555 58.2012 95.4256C57.5571 95.386 56.9189 95.5701 56.3947 95.9469C55.8704 96.3238 55.4921 96.8702 55.3238 97.4939L53.8213 102.119C53.6019 102.85 53.1032 103.465 52.4335 103.83C51.7639 104.195 50.9774 104.28 50.2452 104.067H50.155C49.4447 103.811 48.8648 103.283 48.5424 102.599C48.2199 101.916 48.1812 101.132 48.4347 100.42Z" fill="#30262A"/>
<path d="M128.062 239.474C128.062 198.861 146.093 155.623 204.316 155.623C242.225 155.623 274.688 190.22 278.504 230.652C283.14 279.749 255.32 309.539 200.515 315.639C162.801 319.783 128.062 290.226 128.062 239.474Z" fill="#10DD8E"/>
<path d="M194.925 306.14C181.504 306.172 168.554 301.195 158.601 292.181C144.815 279.824 137.22 260.909 137.22 238.925C137.22 224.959 139.699 204.961 151.494 189.054C163.101 173.411 180.794 165.483 204.196 165.483C236.734 165.483 265.988 194.973 269.406 231.224C273.448 273.988 249.227 300.469 201.198 305.787C199.115 306.02 197.021 306.138 194.925 306.14ZM204.196 169.748C185.339 169.748 141.487 176.517 141.487 238.94C141.487 259.698 148.572 277.478 161.441 289.022C166.721 293.793 172.957 297.379 179.734 299.541C186.51 301.703 193.669 302.392 200.733 301.56C223.451 299.048 240.55 291.738 251.519 279.832C262.487 267.926 267.062 251.741 265.169 231.638C261.946 197.508 234.592 169.748 204.196 169.748Z" fill="#30262A"/>
<path d="M203.888 281.471L203.136 276.425C203.035 275.568 202.618 274.779 201.966 274.214C201.314 273.649 200.475 273.349 199.613 273.371C195.736 273.574 191.856 273.038 188.179 271.792C187.386 271.486 186.726 270.911 186.314 270.167C185.902 269.423 185.764 268.558 185.925 267.723L186.135 266.505C186.199 266.019 186.368 265.554 186.63 265.14C186.891 264.727 187.24 264.375 187.651 264.11C188.061 263.844 188.525 263.671 189.009 263.603C189.494 263.535 189.987 263.573 190.455 263.714C194.519 265.075 198.851 265.436 203.084 264.767C210.717 263.511 213.406 257.45 212.437 250.703C211.506 244.19 208.508 241.212 200.049 238.971C188.404 236.037 176.759 232.367 175.302 222.063C174.017 213.083 177.879 203.171 190.477 200.666C191.98 200.366 192.731 198.41 192.468 196.808L191.717 191.28C191.56 190.362 191.766 189.419 192.292 188.651C192.818 187.883 193.623 187.351 194.534 187.166C194.985 187.107 195.443 187.137 195.881 187.257C196.32 187.376 196.73 187.582 197.089 187.862C197.447 188.142 197.746 188.491 197.967 188.888C198.189 189.285 198.33 189.723 198.381 190.175L199.042 194.785C199.135 195.628 199.536 196.406 200.169 196.97C200.802 197.534 201.621 197.844 202.468 197.839C205.383 197.701 208.302 198.041 211.107 198.846C211.95 199.131 212.658 199.716 213.097 200.49C213.536 201.264 213.676 202.173 213.489 203.043L213.271 204.216C213.198 204.682 213.029 205.128 212.773 205.524C212.517 205.92 212.181 206.259 211.787 206.517C211.392 206.775 210.948 206.947 210.483 207.022C210.018 207.098 209.542 207.074 209.087 206.954C205.608 205.965 201.952 205.772 198.388 206.39C190.124 207.751 187.78 213.708 188.457 218.423C189.336 224.583 195.218 224.222 205.18 226.945C216.96 230.096 224.961 235.97 227.372 246.296C229.949 257.329 224.931 266.159 211.784 270.581C210.326 271.077 209.53 272.837 209.793 274.439L210.634 280.321C210.792 281.239 210.585 282.184 210.06 282.953C209.534 283.722 208.729 284.256 207.817 284.442H207.704C207.258 284.5 206.806 284.469 206.372 284.351C205.938 284.232 205.532 284.029 205.177 283.753C204.823 283.477 204.526 283.133 204.305 282.742C204.083 282.35 203.942 281.918 203.888 281.471Z" fill="#30262A"/>
</g>
<defs>
<clipPath id="clip0_89:169">
<rect width="279" height="316" fill="white"/>
</clipPath>
</defs>
</svg>
