<svg width="86" height="86" viewBox="0 0 86 86" fill="none" xmlns="http://www.w3.org/2000/svg">
<g clip-path="url(#clip0_131_359)">
<path d="M43.0335 85.9971C19.3045 85.9971 0 66.7099 0 42.9986C0 42.5358 0.183994 42.0918 0.511524 41.7646C0.839055 41.4373 1.28329 41.2534 1.74649 41.2534C2.20969 41.2534 2.65392 41.4373 2.98145 41.7646C3.30898 42.0918 3.49298 42.5358 3.49298 42.9986C3.49298 64.7873 21.2315 82.5125 43.0364 82.5125C50.9846 82.5428 58.7554 80.1665 65.3253 75.6965C71.8952 71.2266 76.9559 64.8727 79.8407 57.472C80.0212 57.0575 80.3557 56.729 80.7737 56.556C81.1916 56.3829 81.6605 56.3787 82.0815 56.5442C82.5026 56.7097 82.8429 57.032 83.0308 57.4433C83.2188 57.8545 83.2397 58.3226 83.0892 58.7489C79.9494 66.803 74.4416 73.7176 67.2912 78.5817C60.1408 83.4459 51.6835 86.0312 43.0335 85.9971Z" fill="#0CEDB0"/>
<path d="M84.1892 67.8298C83.8256 67.8295 83.4712 67.7159 83.1753 67.5047C82.8795 67.2936 82.657 66.9953 82.5388 66.6517L80.3964 60.3837L74.3158 62.7106C73.8884 62.854 73.4221 62.8268 73.0143 62.6345C72.6066 62.4423 72.2892 62.1 72.1282 61.6792C71.9673 61.2584 71.9755 60.7917 72.151 60.3768C72.3265 59.9618 72.6558 59.6307 73.0699 59.4528L80.8389 56.4889C81.0578 56.4057 81.2912 56.3673 81.5253 56.376C81.7594 56.3847 81.9893 56.4403 82.2014 56.5396C82.4135 56.639 82.6034 56.78 82.7599 56.9541C82.9164 57.1283 83.0362 57.3322 83.1122 57.5536L85.8425 65.532C85.9318 65.7946 85.9572 66.0747 85.9165 66.349C85.8759 66.6234 85.7704 66.8841 85.6087 67.1096C85.4471 67.335 85.2341 67.5188 84.9872 67.6456C84.7403 67.7723 84.4668 67.8384 84.1892 67.8385V67.8298Z" fill="#0CEDB0"/>
<path d="M67.2455 55.0492H17.1562C14.6807 55.0364 12.2896 54.1482 10.4068 52.5421C8.52394 50.9359 7.27093 48.7156 6.86988 46.2745C6.46883 43.8334 6.94566 41.3293 8.21578 39.2059C9.48589 37.0825 11.4673 35.4771 13.8088 34.6741C14.9431 34.2832 16.137 34.0932 17.3367 34.1127C17.2349 32.9855 17.3006 31.8495 17.5317 30.7416C17.8861 29.0088 18.6324 27.3799 19.7134 25.9795C20.7944 24.5791 22.1816 23.4443 23.7689 22.6618C25.3561 21.8792 27.1015 21.4697 28.8714 21.4646C30.6413 21.4595 32.389 21.8589 33.9807 22.6323C35.0319 21.0151 36.5157 19.7246 38.2637 18.9074C40.0116 18.0901 41.9539 17.7788 43.87 18.0086C45.7861 18.2385 47.5993 19.0004 49.104 20.2079C50.6087 21.4153 51.7446 23.02 52.3829 24.8399C53.2794 24.3387 54.2534 23.9908 55.2646 23.8103C56.6527 23.5442 58.0804 23.563 59.461 23.8655C60.8416 24.168 62.1462 24.7479 63.2955 25.57C64.3249 26.2994 65.1924 27.2334 65.8436 28.3135C66.4947 29.3936 66.9155 30.5966 67.0796 31.8469C67.1775 32.5985 67.1854 33.3592 67.1029 34.1127C67.9241 34.0966 68.7442 34.1806 69.545 34.3628C72.0596 34.9288 74.2772 36.4011 75.7739 38.4981C77.2705 40.595 77.9412 43.1697 77.6577 45.7297C77.3742 48.2897 76.1564 50.6556 74.2372 52.3748C72.3179 54.0941 69.8318 55.0462 67.2543 55.0492H67.2455ZM17.1591 37.5973C16.4022 37.5987 15.6508 37.7255 14.9353 37.9725C13.717 38.384 12.6352 39.1219 11.8078 40.1056C10.9804 41.0894 10.4391 42.2812 10.243 43.5513C10.0953 44.5441 10.1636 45.5572 10.4432 46.5213C10.7229 47.4854 11.2073 48.3779 11.8635 49.1379C12.5196 49.898 13.3321 50.5076 14.2455 50.9254C15.1589 51.3432 16.1517 51.5592 17.1562 51.5588H67.2455C68.2476 51.5569 69.2375 51.3396 70.1482 50.9217C71.0588 50.5038 71.8688 49.895 72.5232 49.1367C73.1776 48.3784 73.6611 47.4883 73.9408 46.5267C74.2206 45.5652 74.29 44.5548 74.1444 43.564C73.9989 42.5733 73.6417 41.6255 73.0972 40.7849C72.5527 39.9443 71.8336 39.2306 70.9887 38.6922C70.1438 38.1538 69.1929 37.8033 68.2005 37.6646C67.2081 37.5259 66.1974 37.6021 65.237 37.8881C64.9172 37.9834 64.5768 37.9851 64.256 37.8931C63.9353 37.8011 63.6476 37.6191 63.4271 37.3687C63.2066 37.1184 63.0625 36.8102 63.0118 36.4806C62.9612 36.151 63.0061 35.8138 63.1413 35.5089C63.596 34.5006 63.7584 33.3849 63.6099 32.289C63.5061 31.5115 63.2429 30.7639 62.8367 30.0927C62.4305 29.4216 61.8901 28.8414 61.2492 28.3885C60.4856 27.8427 59.6187 27.458 58.7013 27.258C57.784 27.058 56.8355 27.0468 55.9137 27.225C54.4321 27.5159 53.3726 28.1558 52.6769 29.2087C52.4696 29.521 52.1672 29.7583 51.8144 29.8856C51.4617 30.0128 51.0774 30.0232 50.7183 29.9152C50.3592 29.8072 50.0443 29.5866 49.8204 29.286C49.5965 28.9853 49.4754 28.6207 49.475 28.246C49.4757 26.6975 48.9501 25.1947 47.9841 23.9839C47.0182 22.773 45.6693 21.926 44.1585 21.5815C42.6477 21.2371 41.0646 21.4156 39.6687 22.088C38.2728 22.7603 37.1468 23.8865 36.4753 25.282C36.339 25.5676 36.1436 25.821 35.9019 26.0254C35.6602 26.2298 35.3779 26.3806 35.0735 26.4678C34.7691 26.5549 34.4497 26.5765 34.1364 26.531C33.823 26.4856 33.5229 26.3742 33.256 26.2041C31.8389 25.3078 30.179 24.8715 28.504 24.9551C26.829 25.0387 25.2209 25.638 23.9002 26.6709C22.5795 27.7039 21.611 29.1198 21.1275 30.7245C20.6439 32.3292 20.669 34.0441 21.1994 35.6339C21.2985 35.9347 21.3137 36.2567 21.2437 36.5655C21.1736 36.8743 21.0207 37.1583 20.8015 37.3869C20.5823 37.6156 20.3049 37.7803 19.9991 37.8635C19.6933 37.9467 19.3707 37.9451 19.0657 37.859C18.4453 37.6848 17.8036 37.5977 17.1591 37.6002V37.5973Z" fill="#0CEDB0"/>
<path d="M39.7472 37.1812C39.0884 37.1769 38.4343 37.0699 37.8086 36.8641C37.5813 36.8021 37.3689 36.6947 37.1843 36.5485C36.9996 36.4023 36.8465 36.2202 36.7341 36.0133C36.6216 35.8064 36.5523 35.5789 36.5302 35.3445C36.5081 35.1101 36.5336 34.8736 36.6054 34.6494C36.6771 34.4251 36.7935 34.2177 36.9476 34.0396C37.1017 33.8614 37.2902 33.7163 37.5018 33.6129C37.7135 33.5094 37.9439 33.4499 38.1792 33.4378C38.4145 33.4257 38.6499 33.4613 38.871 33.5425C40.6554 34.1242 41.2579 32.9171 41.3598 32.6699C41.4403 32.4478 41.5652 32.2443 41.7267 32.0718C41.8883 31.8994 42.0832 31.7615 42.2996 31.6665C42.5161 31.5715 42.7496 31.5215 42.986 31.5194C43.2225 31.5172 43.4568 31.5631 43.675 31.6541C43.8931 31.7452 44.0905 31.8795 44.2551 32.049C44.4198 32.2186 44.5482 32.4197 44.6328 32.6404C44.7173 32.861 44.7562 33.0964 44.747 33.3325C44.7377 33.5686 44.6806 33.8003 44.5791 34.0137C44.1674 34.9526 43.4916 35.7519 42.6338 36.3142C41.776 36.8766 40.7731 37.1778 39.7472 37.1812Z" fill="#0CEDB0"/>
<path d="M54.4701 46.1748C54.0363 46.1399 51.7077 45.8636 50.4648 43.9991C49.9205 43.1847 49.4082 41.7827 50.0456 39.7147C50.1965 39.2911 50.5052 38.9421 50.9072 38.7403C51.3093 38.5386 51.7737 38.4996 52.2038 38.6316C52.6339 38.7636 52.9964 39.0564 53.2158 39.4489C53.4351 39.8414 53.4945 40.3034 53.3814 40.7385C53.2533 41.1574 53.1457 41.7246 53.364 42.0591C53.6202 42.4546 54.3449 42.6611 54.6535 42.696C55.1167 42.7203 55.5512 42.9275 55.8616 43.2719C56.1719 43.6164 56.3326 44.07 56.3083 44.5328C56.284 44.9957 56.0766 45.4299 55.7319 45.74C55.3872 46.0501 54.9333 46.2107 54.4701 46.1864V46.1748Z" fill="#0CEDB0"/>
<path d="M26.0693 45.7908C25.703 45.7892 25.3465 45.6726 25.0502 45.4574C24.7539 45.2422 24.5328 44.9393 24.4182 44.5916C24.3036 44.2439 24.3013 43.8691 24.4117 43.52C24.522 43.171 24.7394 42.8655 25.0331 42.6467C26.8203 41.329 26.3546 37.9201 26.3488 37.8852C26.296 37.4378 26.4184 36.9874 26.6904 36.6281C26.9623 36.2689 27.3628 36.0286 27.8079 35.9576C28.2531 35.8866 28.7085 35.9903 29.0789 36.2471C29.4492 36.5039 29.7059 36.8939 29.7952 37.3355C29.8301 37.5594 30.6393 42.8619 27.1027 45.4535C26.8029 45.6729 26.4409 45.7911 26.0693 45.7908Z" fill="#0CEDB0"/>
<path d="M43.9621 48.1032H36.7782C36.315 48.1032 35.8708 47.9193 35.5433 47.592C35.2157 47.2647 35.0317 46.8208 35.0317 46.358C35.0317 45.8951 35.2157 45.4512 35.5433 45.1239C35.8708 44.7967 36.315 44.6128 36.7782 44.6128H43.9621C44.4253 44.6128 44.8695 44.7967 45.1971 45.1239C45.5246 45.4512 45.7086 45.8951 45.7086 46.358C45.7086 46.8208 45.5246 47.2647 45.1971 47.592C44.8695 47.9193 44.4253 48.1032 43.9621 48.1032Z" fill="#0CEDB0"/>
<path d="M84.2564 44.7439C83.7932 44.7439 83.349 44.56 83.0215 44.2327C82.6939 43.9054 82.5099 43.4615 82.5099 42.9987C82.5099 21.2129 64.7714 3.48759 42.9694 3.48759C35.0211 3.45649 27.2499 5.83216 20.6795 10.3016C14.109 14.7711 9.04764 21.1246 6.16219 28.5253C5.97653 28.9317 5.64197 29.2516 5.22734 29.4189C4.81271 29.5862 4.3496 29.5882 3.93353 29.4245C3.51746 29.2608 3.18012 28.9439 2.99093 28.539C2.80174 28.1342 2.77516 27.6722 2.91666 27.2483C6.05416 19.1933 11.5611 12.2777 18.7114 7.41327C25.8617 2.54889 34.3194 -0.035775 42.9694 0.00012482C66.6955 0.00012482 86 19.2874 86 42.9987C86 43.461 85.8165 43.9045 85.4896 44.2317C85.1627 44.5589 84.7191 44.7431 84.2564 44.7439Z" fill="#0CEDB0"/>
<path d="M4.53797 29.6303C4.17439 29.6301 3.81995 29.5164 3.52409 29.3052C3.22823 29.0941 3.00565 28.7959 2.88749 28.4523L0.160093 20.4768C0.0725553 20.2571 0.0305637 20.022 0.0367247 19.7857C0.0428858 19.5493 0.0970469 19.3167 0.19591 19.1019C0.294773 18.8871 0.436285 18.6946 0.611852 18.5361C0.787419 18.3776 0.993392 18.2564 1.21725 18.1799C1.44111 18.1033 1.67818 18.0731 1.91411 18.0909C2.15005 18.1087 2.37991 18.1742 2.58973 18.2835C2.79955 18.3927 2.98496 18.5434 3.13472 18.7265C3.28448 18.9095 3.39545 19.121 3.46091 19.3482L5.60622 25.6135L11.6869 23.2866C11.9035 23.192 12.137 23.1423 12.3734 23.1406C12.6097 23.1389 12.844 23.1852 13.0619 23.2765C13.2799 23.3679 13.477 23.5025 13.6414 23.6723C13.8057 23.842 13.9338 24.0433 14.018 24.264C14.1022 24.4847 14.1408 24.7202 14.1312 24.9562C14.1217 25.1922 14.0643 25.4238 13.9625 25.637C13.8608 25.8502 13.7168 26.0405 13.5393 26.1964C13.3618 26.3524 13.1544 26.4707 12.9298 26.5442L5.16377 29.5256C4.96331 29.5984 4.75123 29.6339 4.53797 29.6303Z" fill="#0CEDB0"/>
<path d="M64.2269 62.6989H23.6967C23.2335 62.6989 22.7892 62.515 22.4617 62.1877C22.1342 61.8605 21.9502 61.4165 21.9502 60.9537C21.9502 60.4908 22.1342 60.0469 22.4617 59.7196C22.7892 59.3924 23.2335 59.2085 23.6967 59.2085H64.2269C64.6901 59.2085 65.1343 59.3924 65.4618 59.7196C65.7893 60.0469 65.9733 60.4908 65.9733 60.9537C65.9733 61.4165 65.7893 61.8605 65.4618 62.1877C65.1343 62.515 64.6901 62.6989 64.2269 62.6989Z" fill="#0CEDB0"/>
<path d="M35.2206 31.4745C34.9416 31.475 34.6665 31.4088 34.4183 31.2813C34.1702 31.1537 33.9562 30.9686 33.7944 30.7415C31.7335 27.8328 33.2122 24.0517 33.285 23.8859C33.4711 23.4776 33.8074 23.1567 34.2241 22.9897C34.6408 22.8227 35.1058 22.8224 35.5226 22.989C35.9395 23.1555 36.2761 23.4761 36.4627 23.8841C36.6493 24.2921 36.6715 24.7563 36.5247 25.1802C36.5247 25.2006 35.7009 27.3966 36.6411 28.7258C36.8246 28.9867 36.933 29.2927 36.9547 29.6108C36.9764 29.9288 36.9104 30.2468 36.764 30.5301C36.6176 30.8134 36.3964 31.0511 36.1243 31.2176C35.8522 31.3841 35.5397 31.4729 35.2206 31.4745Z" fill="#0CEDB0"/>
<path d="M61.9801 40.8928C61.7416 40.8928 61.5057 40.8433 61.2873 40.7474C60.8636 40.5628 60.5304 40.2179 60.3607 39.7883C60.191 39.3587 60.1987 38.8793 60.382 38.4553C61.4183 36.0673 63.6655 34.8195 63.9187 34.6741C64.324 34.4827 64.7874 34.4545 65.2129 34.595C65.6385 34.7356 65.9937 35.0343 66.205 35.4293C66.4163 35.8243 66.4676 36.2854 66.3481 36.7171C66.2287 37.1488 65.9477 37.5181 65.5633 37.7485C65.5313 37.766 64.1399 38.5455 63.581 39.8311C63.4473 40.1451 63.2243 40.413 62.9398 40.6017C62.6553 40.7904 62.3216 40.8916 61.9801 40.8928Z" fill="#0CEDB0"/>
</g>
<defs>
<clipPath id="clip0_131_359">
<rect width="86" height="86" fill="white"/>
</clipPath>
</defs>
</svg>
