<svg id="Capa_1" data-name="Capa 1" xmlns="http://www.w3.org/2000/svg" xmlns:xlink="http://www.w3.org/1999/xlink" viewBox="0 0 120 263"><defs><style>.cls-1{fill:none;}.cls-2{fill:#faa600;}.cls-3{fill:#b0a3a3;}.cls-4{fill:url(#Degradado_sin_nombre);}.cls-5{fill:url(#Degradado_sin_nombre_2);}.cls-6{fill:#ffc444;}.cls-7{fill:#ffe6b8;}.cls-8{fill:#1a2e35;}</style><radialGradient id="Degradado_sin_nombre" cx="-235.27" cy="550.79" r="1" gradientTransform="matrix(137.87, 0, 0, -137.68, 32487.25, 75999.5)" gradientUnits="userSpaceOnUse"><stop offset="0" stop-color="#fff"/><stop offset="1" stop-color="#c4bbbb"/></radialGradient><linearGradient id="Degradado_sin_nombre_2" x1="5.73" y1="61.48" x2="116.97" y2="61.48" gradientTransform="matrix(1, 0, 0, -1, 0, 263.89)" gradientUnits="userSpaceOnUse"><stop offset="0" stop-color="#c4bbbb"/><stop offset="1" stop-color="#fff"/></linearGradient></defs><rect class="cls-1" x="1.65" width="119.4" height="262.02"/><path class="cls-2" d="M46.36,0h30a44.68,44.68,0,0,1,44.7,44.65V174.57a27.86,27.86,0,0,1-17.2,25.72,28.08,28.08,0,0,1-10.67,2.11H29.52A27.84,27.84,0,0,1,1.65,174.57V44.65A44.68,44.68,0,0,1,46.36,0Z"/><path class="cls-3" d="M61.35,262A59.62,59.62,0,1,0,1.65,202.4,59.66,59.66,0,0,0,61.35,262Z"/><path class="cls-4" d="M61.35,262A59.62,59.62,0,1,0,1.65,202.4,59.66,59.66,0,0,0,61.35,262Z"/><path class="cls-5" d="M100.68,241.68a55.58,55.58,0,1,0-78.66,0A55.49,55.49,0,0,0,100.68,241.68Z"/><path class="cls-6" d="M53.49,119h17.1V48.8H53.49Z"/><path class="cls-7" d="M53.49,119h-1v1h1Zm17.1,0v1h1v-1Zm0-70.2h1v-1h-1Zm-17.1,0v-1h-1v1Zm0,71.2h17.1v-2H53.49Zm18.1-1V48.8h-2V119Zm-1-71.2H53.49v2h17.1Zm-18.1,1V119h2V48.8Z"/><rect class="cls-1" x="27.35" y="169.47" width="68" height="55"/><path class="cls-8" d="M42.61,224.47a1.3,1.3,0,0,1-.94-.4,1.37,1.37,0,0,1-.39-1V214a1.39,1.39,0,0,1,.39-1,1.32,1.32,0,0,1,1.87,0l0,0a1.39,1.39,0,0,1,.39,1v9.12a1.33,1.33,0,0,1-.39,1A1.29,1.29,0,0,1,42.61,224.47Z"/><path class="cls-8" d="M64.35,224.47a1.3,1.3,0,0,1-.94-.4,1.37,1.37,0,0,1-.39-1V214a1.39,1.39,0,0,1,.39-1,1.32,1.32,0,0,1,1.87,0l0,0a1.39,1.39,0,0,1,.39,1v9.12a1.33,1.33,0,0,1-.39,1A1.29,1.29,0,0,1,64.35,224.47Z"/><path class="cls-8" d="M53.2,205.37c-3.27,0-6.12-2.08-8.19-6a19.56,19.56,0,0,1-2.11-9.07V190a7,7,0,0,1,3.53-6.11,14.58,14.58,0,0,1,7-1.91,14.12,14.12,0,0,1,7.48,2.48,7,7,0,0,1,2.3,2.52A7.2,7.2,0,0,1,64,190.3a19.73,19.73,0,0,1-2.15,9.14c-2.12,4-5.06,6.06-8.47,6Zm.22-20.75a11.91,11.91,0,0,0-5.7,1.58,4.25,4.25,0,0,0-2.15,3.74v.31a16.91,16.91,0,0,0,1.78,7.81c1.64,3.12,3.68,4.7,6.06,4.6,2.45.07,4.47-1.46,6.09-4.54a16.79,16.79,0,0,0,1.85-7.87,4.36,4.36,0,0,0-.5-2,4.28,4.28,0,0,0-1.41-1.55,11.5,11.5,0,0,0-6-2Z"/><path class="cls-8" d="M74.5,224.47H32.43a1.3,1.3,0,0,1-1-.4,1.37,1.37,0,0,1-.39-1v-4.53c.31-10.14,6.6-18.07,14.31-18.07h3a1.37,1.37,0,0,1,1,.39,5.24,5.24,0,0,0,4.07,1.79,5.3,5.3,0,0,0,4.15-1.79,1.33,1.33,0,0,1,.94-.39h3c7.74,0,14,7.92,14.29,18v4.61a1.31,1.31,0,0,1-.11.52,1.09,1.09,0,0,1-.29.44,1.42,1.42,0,0,1-.43.29A1.34,1.34,0,0,1,74.5,224.47Zm-40.74-2.7h39.4v-3.23c-.22-8.45-5.43-15.36-11.62-15.36H59.05a7.77,7.77,0,0,1-5.63,2.18,7.69,7.69,0,0,1-5.54-2.18H45.35c-6.18,0-11.39,6.91-11.62,15.39Z"/><path class="cls-8" d="M76.35,208a1.31,1.31,0,0,1-.95-.4,1.37,1.37,0,0,1,0-1.92,1.4,1.4,0,0,1,.93-.39A16.17,16.17,0,0,0,84.57,203a16.34,16.34,0,0,0,6-6.13,16.72,16.72,0,0,0-.22-16.65,16.54,16.54,0,0,0-6.12-6,16.19,16.19,0,0,0-16.44.33,16.54,16.54,0,0,0-5.87,6.25,1.39,1.39,0,0,1-.79.62,1.34,1.34,0,0,1-1-.12,1.3,1.3,0,0,1-.63-.78,1.38,1.38,0,0,1,.07-1,19.06,19.06,0,0,1,6.83-7.26,18.79,18.79,0,0,1,19.13-.39,19.1,19.1,0,0,1,7.11,7,19.42,19.42,0,0,1,.19,19.37,19.13,19.13,0,0,1-7,7.12A18.81,18.81,0,0,1,76.35,208Z"/><path class="cls-8" d="M76.35,179a1.31,1.31,0,0,1-.95-.4,1.37,1.37,0,0,1-.39-1v-2.16a1.39,1.39,0,0,1,.39-1,1.32,1.32,0,0,1,1.87,0l0,0a1.39,1.39,0,0,1,.39,1v2.2a1.37,1.37,0,0,1-.39,1A1.3,1.3,0,0,1,76.35,179Z"/><path class="cls-8" d="M84,182.26a1.32,1.32,0,0,1-.74-.23,1.26,1.26,0,0,1-.49-.6,1.39,1.39,0,0,1-.08-.78,1.34,1.34,0,0,1,.37-.69l1.52-1.49a1.3,1.3,0,0,1,.92-.34,1.27,1.27,0,0,1,.91,2.2L85,181.87A1.33,1.33,0,0,1,84,182.26Z"/><path class="cls-8" d="M89.35,190.08H87.23a1.34,1.34,0,0,1-.94-.4,1.37,1.37,0,0,1-.39-1,1.35,1.35,0,0,1,1.33-1.35h2.12a1.31,1.31,0,0,1,1,.4,1.36,1.36,0,0,1,.39,1,1.37,1.37,0,0,1-.39,1A1.31,1.31,0,0,1,89.35,190.08Z"/><path class="cls-8" d="M85.57,199.47a1.31,1.31,0,0,1-.95-.4l-1.52-1.6a1.25,1.25,0,0,1-.31-.44,1.33,1.33,0,0,1-.13-.53,1.39,1.39,0,0,1,.1-.53,1.7,1.7,0,0,1,.29-.46,1.3,1.3,0,0,1,1-.39,1.21,1.21,0,0,1,.53.12,1.51,1.51,0,0,1,.43.32l1.52,1.54a1.32,1.32,0,0,1,.36.69,1.39,1.39,0,0,1-.07.78,1.34,1.34,0,0,1-.49.61A1.26,1.26,0,0,1,85.57,199.47Z"/><path class="cls-8" d="M76.35,203.3a1.34,1.34,0,0,1-.95-.39,1.39,1.39,0,0,1-.39-1v-2.14a1.39,1.39,0,0,1,.39-1,1.34,1.34,0,0,1,1.89,0,1.39,1.39,0,0,1,.39,1V202a1.39,1.39,0,0,1-.39,1A1.3,1.3,0,0,1,76.35,203.3Z"/><path class="cls-8" d="M67.09,199.47a1.32,1.32,0,0,1-.74-.23,1.34,1.34,0,0,1-.49-.61,1.36,1.36,0,0,1,.28-1.47l1.53-1.54a1.28,1.28,0,0,1,.93-.36,1.35,1.35,0,0,1,.92.39,1.33,1.33,0,0,1,.39.94,1.3,1.3,0,0,1-.36.94L68,199.07A1.27,1.27,0,0,1,67.09,199.47Z"/><path class="cls-8" d="M64.75,190.08H63.41a1.34,1.34,0,0,1-.94-.4,1.36,1.36,0,0,1-.4-1,1.37,1.37,0,0,1,1.34-1.35h1.34a1.31,1.31,0,0,1,.94.4,1.36,1.36,0,0,1,.39,1,1.37,1.37,0,0,1-.39,1A1.34,1.34,0,0,1,64.75,190.08Z"/><path class="cls-8" d="M68.61,182.26a1.33,1.33,0,0,1-.94-.39l-1.53-1.54a1.4,1.4,0,0,1-.31-.44,1.18,1.18,0,0,1-.12-.53,1.43,1.43,0,0,1,.09-.54,1.36,1.36,0,0,1,1.28-.85,1.33,1.33,0,0,1,.52.13,1.13,1.13,0,0,1,.43.32L69.55,180a1.34,1.34,0,0,1,.37.69,1.39,1.39,0,0,1-.08.78,1.26,1.26,0,0,1-.49.6A1.32,1.32,0,0,1,68.61,182.26Z"/><path class="cls-8" d="M81.35,190.08h-5a1.31,1.31,0,0,1-.95-.4,1.37,1.37,0,0,1-.39-1V184a1.39,1.39,0,0,1,.39-1,1.32,1.32,0,0,1,1.87,0l0,0a1.39,1.39,0,0,1,.39,1v3.41h3.67a1.31,1.31,0,0,1,.94.4,1.36,1.36,0,0,1,.39.95,1.37,1.37,0,0,1-.39,1A1.3,1.3,0,0,1,81.35,190.08Z"/><path class="cls-8" d="M87.35,224.47H28.69a1.31,1.31,0,0,1-1-.4,1.37,1.37,0,0,1-.39-1,1.34,1.34,0,0,1,1.39-1.39H87.35a1.37,1.37,0,0,1,1,.39,1.39,1.39,0,0,1,.39,1,1.33,1.33,0,0,1-.39,1A1.29,1.29,0,0,1,87.35,224.47Z"/></svg>