<svg width="120" height="263" viewBox="0 0 120 263" fill="none" xmlns="http://www.w3.org/2000/svg">
<g clip-path="url(#clip0_89:694)">
<path d="M44.7685 0.975098H74.7637C86.6198 0.976255 97.9899 5.68044 106.373 14.0529C114.756 22.4254 119.466 33.7804 119.466 45.6202V175.548C119.466 179.203 118.745 182.822 117.344 186.199C115.944 189.575 113.891 192.644 111.303 195.228C108.715 197.813 105.642 199.863 102.261 201.261C98.8794 202.66 95.2553 203.38 91.5953 203.38H27.9325C20.5408 203.38 13.4518 200.448 8.22509 195.228C2.99836 190.009 0.0620117 182.929 0.0620117 175.548V45.6202C0.0620117 33.7796 4.77214 22.4239 13.1562 14.0513C21.5403 5.67877 32.9116 0.975098 44.7685 0.975098V0.975098Z" fill="#10DD8E"/>
<g style="mix-blend-mode:multiply">
<g style="mix-blend-mode:multiply">
<path d="M59.7639 263C92.7363 263 119.466 236.307 119.466 203.38C119.466 170.453 92.7363 143.76 59.7639 143.76C26.7914 143.76 0.0620117 170.453 0.0620117 203.38C0.0620117 236.307 26.7914 263 59.7639 263Z" fill="#B0A3A3"/>
</g>
</g>
<path d="M59.7639 263C92.7363 263 119.466 236.307 119.466 203.38C119.466 170.453 92.7363 143.76 59.7639 143.76C26.7914 143.76 0.0620117 170.453 0.0620117 203.38C0.0620117 236.307 26.7914 263 59.7639 263Z" fill="url(#paint0_radial_89:694)"/>
<path d="M99.0894 242.657C120.81 220.967 120.81 185.799 99.0895 164.109C77.3691 142.418 42.1533 142.418 20.4329 164.109C-1.28745 185.799 -1.28741 220.967 20.433 242.657C42.1534 264.348 77.369 264.348 99.0894 242.657Z" fill="url(#paint1_linear_89:694)"/>
<path d="M21.9617 120H39.0617V49.8H21.9617V120ZM49.4539 120H66.5539V49.8H49.4539V120ZM76.9461 120H94.0461V49.8H76.9461V120Z" fill="#7FDBBB"/>
<path d="M21.9617 120H20.9617V121H21.9617V120ZM39.0617 120V121H40.0617V120H39.0617ZM39.0617 49.8H40.0617V48.8H39.0617V49.8ZM21.9617 49.8V48.8H20.9617V49.8H21.9617ZM21.9617 121H39.0617V119H21.9617V121ZM40.0617 120V49.8H38.0617V120H40.0617ZM39.0617 48.8H21.9617V50.8H39.0617V48.8ZM20.9617 49.8V120H22.9617V49.8H20.9617ZM49.4539 120H48.4539V121H49.4539V120ZM66.5539 120V121H67.5539V120H66.5539ZM66.5539 49.8H67.5539V48.8H66.5539V49.8ZM49.4539 49.8V48.8H48.4539V49.8H49.4539ZM49.4539 121H66.5539V119H49.4539V121ZM67.5539 120V49.8H65.5539V120H67.5539ZM66.5539 48.8H49.4539V50.8H66.5539V48.8ZM48.4539 49.8V120H50.4539V49.8H48.4539ZM76.9461 120H75.9461V121H76.9461V120ZM94.0461 120V121H95.0461V120H94.0461ZM94.0461 49.8H95.0461V48.8H94.0461V49.8ZM76.9461 49.8V48.8H75.9461V49.8H76.9461ZM76.9461 121H94.0461V119H76.9461V121ZM95.0461 120V49.8H93.0461V120H95.0461ZM94.0461 48.8H76.9461V50.8H94.0461V48.8ZM75.9461 49.8V120H77.9461V49.8H75.9461Z" fill="#0EA78C"/>
<g clip-path="url(#clip1_89:694)">
<path d="M59.5245 233.998C42.1417 233.998 28 219.869 28 202.499C28 202.16 28.1348 201.835 28.3747 201.595C28.6147 201.355 28.9401 201.22 29.2794 201.22C29.6187 201.22 29.9442 201.355 30.1841 201.595C30.424 201.835 30.5588 202.16 30.5588 202.499C30.5588 218.46 43.5533 231.445 59.5267 231.445C65.3492 231.467 71.0418 229.727 75.8546 226.452C80.6674 223.178 84.3747 218.523 86.488 213.102C86.6202 212.798 86.8652 212.557 87.1714 212.43C87.4776 212.304 87.8211 212.301 88.1295 212.422C88.4379 212.543 88.6872 212.779 88.8249 213.08C88.9626 213.382 88.9779 213.725 88.8676 214.037C86.5676 219.937 82.5328 225.002 77.2947 228.566C72.0566 232.129 65.8611 234.023 59.5245 233.998Z" fill="#021B1E"/>
<path d="M89.6738 220.689C89.4075 220.689 89.1478 220.606 88.9311 220.451C88.7143 220.296 88.5513 220.078 88.4648 219.826L86.8954 215.234L82.4409 216.939C82.1279 217.044 81.7862 217.024 81.4876 216.883C81.1889 216.742 80.9563 216.492 80.8384 216.183C80.7206 215.875 80.7265 215.533 80.8551 215.229C80.9837 214.925 81.2249 214.683 81.5283 214.552L87.2195 212.381C87.3798 212.32 87.5508 212.292 87.7223 212.298C87.8938 212.305 88.0622 212.346 88.2176 212.418C88.373 212.491 88.5121 212.594 88.6267 212.722C88.7414 212.85 88.8291 212.999 88.8848 213.161L90.885 219.006C90.9504 219.198 90.9689 219.403 90.9391 219.604C90.9094 219.805 90.8321 219.996 90.7137 220.161C90.5953 220.327 90.4392 220.461 90.2584 220.554C90.0775 220.647 89.8771 220.695 89.6738 220.695V220.689Z" fill="#021B1E"/>
<path d="M77.2612 211.327H40.5679C38.7544 211.317 37.0028 210.667 35.6235 209.49C34.2443 208.313 33.3264 206.687 33.0326 204.899C32.7388 203.11 33.0881 201.276 34.0185 199.721C34.9489 198.165 36.4004 196.989 38.1157 196.401C38.9467 196.114 39.8213 195.975 40.7001 195.989C40.6255 195.164 40.6737 194.332 40.843 193.52C41.1026 192.251 41.6493 191.057 42.4412 190.031C43.2331 189.006 44.2493 188.174 45.4121 187.601C46.5748 187.028 47.8534 186.728 49.15 186.724C50.4465 186.72 51.7268 187.013 52.8928 187.579C53.6629 186.395 54.7498 185.449 56.0303 184.851C57.3108 184.252 58.7336 184.024 60.1373 184.192C61.5409 184.361 62.8693 184.919 63.9715 185.803C65.0738 186.688 65.9059 187.863 66.3735 189.197C67.0302 188.829 67.7437 188.575 68.4845 188.442C69.5014 188.247 70.5473 188.261 71.5586 188.483C72.57 188.704 73.5257 189.129 74.3676 189.731C75.1217 190.266 75.7572 190.95 76.2342 191.741C76.7112 192.533 77.0195 193.414 77.1397 194.33C77.2114 194.88 77.2172 195.438 77.1568 195.989C77.7583 195.978 78.3591 196.039 78.9458 196.173C80.7878 196.587 82.4124 197.666 83.5087 199.202C84.6051 200.738 85.0964 202.624 84.8887 204.5C84.681 206.375 83.789 208.108 82.383 209.368C80.9771 210.627 79.1559 211.325 77.2676 211.327H77.2612ZM40.57 198.542C40.0155 198.543 39.4651 198.636 38.941 198.817C38.0485 199.118 37.256 199.659 36.6499 200.38C36.0438 201.1 35.6472 201.973 35.5036 202.904C35.3954 203.631 35.4454 204.373 35.6503 205.079C35.8551 205.786 36.21 206.44 36.6907 206.996C37.1713 207.553 37.7665 208 38.4356 208.306C39.1047 208.612 39.832 208.77 40.5679 208.77H77.2612C77.9953 208.768 78.7205 208.609 79.3876 208.303C80.0547 207.997 80.6481 207.551 81.1275 206.995C81.6068 206.44 81.961 205.788 82.1659 205.083C82.3708 204.379 82.4217 203.639 82.3151 202.913C82.2085 202.187 81.9468 201.493 81.5479 200.877C81.1491 200.261 80.6223 199.739 80.0033 199.344C79.3844 198.95 78.6878 198.693 77.9608 198.591C77.2338 198.49 76.4934 198.546 75.7899 198.755C75.5556 198.825 75.3062 198.826 75.0713 198.759C74.8363 198.691 74.6256 198.558 74.4641 198.375C74.3025 198.191 74.1969 197.966 74.1598 197.724C74.1227 197.483 74.1556 197.236 74.2546 197.012C74.5878 196.274 74.7067 195.456 74.5979 194.654C74.5219 194.084 74.329 193.536 74.0315 193.045C73.7339 192.553 73.338 192.128 72.8686 191.796C72.3092 191.396 71.6741 191.115 71.0021 190.968C70.3301 190.821 69.6353 190.813 68.96 190.944C67.8747 191.157 67.0985 191.626 66.5889 192.397C66.437 192.626 66.2155 192.8 65.9571 192.893C65.6987 192.986 65.4171 192.994 65.1541 192.915C64.891 192.835 64.6604 192.674 64.4963 192.454C64.3323 192.233 64.2436 191.966 64.2433 191.692C64.2438 190.557 63.8587 189.457 63.1511 188.57C62.4435 187.683 61.4554 187.062 60.3486 186.81C59.2419 186.557 58.0822 186.688 57.0596 187.181C56.037 187.673 55.2122 188.498 54.7203 189.521C54.6204 189.73 54.4772 189.915 54.3002 190.065C54.1232 190.215 53.9163 190.325 53.6934 190.389C53.4704 190.453 53.2364 190.469 53.0069 190.435C52.7773 190.402 52.5575 190.321 52.3619 190.196C51.3238 189.539 50.1079 189.22 48.8808 189.281C47.6538 189.342 46.4757 189.781 45.5083 190.538C44.5408 191.295 43.8313 192.332 43.4771 193.507C43.1229 194.683 43.1413 195.939 43.5298 197.104C43.6023 197.324 43.6135 197.56 43.5622 197.786C43.5108 198.013 43.3989 198.221 43.2383 198.388C43.0777 198.556 42.8745 198.676 42.6505 198.737C42.4265 198.798 42.1901 198.797 41.9667 198.734C41.5122 198.606 41.0422 198.542 40.57 198.544V198.542Z" fill="#021B1E"/>
<path d="M57.1172 198.238C56.6346 198.234 56.1554 198.156 55.697 198.005C55.5305 197.96 55.375 197.881 55.2397 197.774C55.1044 197.667 54.9922 197.534 54.9099 197.382C54.8275 197.23 54.7767 197.064 54.7605 196.892C54.7443 196.72 54.7631 196.547 54.8156 196.383C54.8682 196.219 54.9535 196.067 55.0663 195.936C55.1792 195.806 55.3173 195.699 55.4723 195.624C55.6274 195.548 55.7962 195.504 55.9686 195.495C56.1409 195.486 56.3133 195.513 56.4754 195.572C57.7825 195.998 58.2239 195.114 58.2985 194.933C58.3575 194.77 58.4489 194.621 58.5673 194.495C58.6856 194.368 58.8284 194.267 58.987 194.198C59.1456 194.128 59.3167 194.091 59.4898 194.09C59.663 194.088 59.8347 194.122 59.9945 194.189C60.1543 194.255 60.2989 194.354 60.4195 194.478C60.5401 194.602 60.6342 194.749 60.6962 194.911C60.7581 195.073 60.7866 195.245 60.7798 195.418C60.7731 195.591 60.7312 195.761 60.6568 195.917C60.3552 196.605 59.8602 197.19 59.2318 197.602C58.6034 198.014 57.8687 198.235 57.1172 198.238Z" fill="#021B1E"/>
<path d="M67.9025 204.826C67.5848 204.8 65.879 204.598 64.9684 203.232C64.5697 202.635 64.1944 201.608 64.6614 200.093C64.7719 199.783 64.998 199.527 65.2926 199.38C65.5871 199.232 65.9273 199.203 66.2424 199.3C66.5574 199.397 66.823 199.611 66.9837 199.899C67.1444 200.186 67.1879 200.525 67.1051 200.843C67.0112 201.15 66.9324 201.566 67.0923 201.811C67.2799 202.101 67.8109 202.252 68.0369 202.277C68.3762 202.295 68.6946 202.447 68.9219 202.699C69.1493 202.952 69.267 203.284 69.2492 203.623C69.2313 203.962 69.0794 204.28 68.8269 204.507C68.5744 204.735 68.2419 204.852 67.9025 204.834V204.826Z" fill="#021B1E"/>
<path d="M47.0972 204.544C46.8289 204.543 46.5677 204.458 46.3507 204.3C46.1336 204.142 45.9716 203.921 45.8877 203.666C45.8038 203.411 45.8021 203.137 45.8829 202.881C45.9637 202.625 46.123 202.401 46.3381 202.241C47.6474 201.276 47.3062 198.779 47.3019 198.753C47.2633 198.425 47.353 198.095 47.5522 197.832C47.7514 197.569 48.0448 197.393 48.3709 197.341C48.697 197.289 49.0306 197.365 49.3019 197.553C49.5732 197.741 49.7613 198.027 49.8266 198.35C49.8522 198.514 50.445 202.399 47.8542 204.297C47.6346 204.458 47.3695 204.545 47.0972 204.544Z" fill="#021B1E"/>
<path d="M60.2049 206.239H54.9422C54.6029 206.239 54.2775 206.104 54.0376 205.864C53.7976 205.624 53.6628 205.299 53.6628 204.96C53.6628 204.621 53.7976 204.296 54.0376 204.056C54.2775 203.816 54.6029 203.682 54.9422 203.682H60.2049C60.5442 203.682 60.8696 203.816 61.1095 204.056C61.3495 204.296 61.4843 204.621 61.4843 204.96C61.4843 205.299 61.3495 205.624 61.1095 205.864C60.8696 206.104 60.5442 206.239 60.2049 206.239Z" fill="#021B1E"/>
<path d="M89.7227 203.777C89.3833 203.777 89.0579 203.643 88.818 203.403C88.578 203.163 88.4433 202.838 88.4433 202.499C88.4433 186.54 75.4488 173.555 59.4775 173.555C53.6549 173.532 47.9621 175.272 43.1488 178.546C38.3356 181.821 34.6278 186.475 32.5141 191.896C32.3781 192.194 32.133 192.428 31.8293 192.551C31.5255 192.674 31.1863 192.675 30.8815 192.555C30.5767 192.435 30.3295 192.203 30.191 191.906C30.0524 191.61 30.0329 191.271 30.1366 190.961C32.435 185.06 36.4691 179.994 41.7071 176.431C46.9451 172.867 53.1409 170.974 59.4775 171C76.8582 171 90.9999 185.129 90.9999 202.499C90.9999 202.838 90.8655 203.163 90.626 203.402C90.3865 203.642 90.0616 203.777 89.7227 203.777Z" fill="#021B1E"/>
<path d="M31.3242 192.706C31.0579 192.706 30.7982 192.623 30.5815 192.468C30.3648 192.313 30.2017 192.095 30.1152 191.843L28.1172 186C28.053 185.84 28.0223 185.667 28.0268 185.494C28.0313 185.321 28.071 185.151 28.1434 184.993C28.2158 184.836 28.3195 184.695 28.4481 184.579C28.5767 184.463 28.7276 184.374 28.8916 184.318C29.0556 184.262 29.2293 184.24 29.4021 184.253C29.5749 184.266 29.7433 184.314 29.897 184.394C30.0507 184.474 30.1866 184.584 30.2963 184.718C30.406 184.852 30.4873 185.007 30.5352 185.174L32.1068 189.763L36.5612 188.059C36.7199 187.99 36.891 187.953 37.0641 187.952C37.2372 187.951 37.4088 187.984 37.5685 188.051C37.7282 188.118 37.8726 188.217 37.993 188.341C38.1134 188.466 38.2072 188.613 38.2689 188.775C38.3306 188.937 38.3588 189.109 38.3518 189.282C38.3448 189.455 38.3028 189.624 38.2283 189.781C38.1537 189.937 38.0483 190.076 37.9182 190.19C37.7882 190.305 37.6363 190.391 37.4717 190.445L31.7827 192.629C31.6358 192.683 31.4804 192.709 31.3242 192.706Z" fill="#021B1E"/>
<path d="M75.05 216.93H45.3592C45.0199 216.93 44.6945 216.796 44.4546 216.556C44.2146 216.316 44.0798 215.991 44.0798 215.652C44.0798 215.313 44.2146 214.988 44.4546 214.748C44.6945 214.508 45.0199 214.374 45.3592 214.374H75.05C75.3893 214.374 75.7147 214.508 75.9546 214.748C76.1946 214.988 76.3294 215.313 76.3294 215.652C76.3294 215.991 76.1946 216.316 75.9546 216.556C75.7147 216.796 75.3893 216.93 75.05 216.93Z" fill="#021B1E"/>
<path d="M53.8014 194.057C53.597 194.057 53.3954 194.009 53.2136 193.915C53.0319 193.822 52.8751 193.686 52.7566 193.52C51.2469 191.389 52.3301 188.619 52.3834 188.498C52.5198 188.199 52.7661 187.964 53.0714 187.841C53.3766 187.719 53.7172 187.719 54.0226 187.841C54.3279 187.963 54.5746 188.198 54.7113 188.497C54.848 188.795 54.8642 189.136 54.7567 189.446C54.7567 189.461 54.1532 191.07 54.8419 192.043C54.9763 192.235 55.0558 192.459 55.0717 192.692C55.0876 192.925 55.0392 193.158 54.932 193.365C54.8248 193.573 54.6627 193.747 54.4634 193.869C54.264 193.991 54.0351 194.056 53.8014 194.057Z" fill="#021B1E"/>
<path d="M73.404 200.956C73.2293 200.956 73.0565 200.92 72.8966 200.85C72.5862 200.714 72.3421 200.462 72.2178 200.147C72.0934 199.832 72.0991 199.481 72.2334 199.171C72.9925 197.421 74.6387 196.507 74.8242 196.401C75.1211 196.26 75.4605 196.24 75.7723 196.343C76.0841 196.446 76.3442 196.664 76.499 196.954C76.6538 197.243 76.6914 197.581 76.6039 197.897C76.5164 198.213 76.3105 198.484 76.0289 198.653C76.0055 198.666 74.9862 199.237 74.5768 200.178C74.4788 200.408 74.3155 200.605 74.1071 200.743C73.8986 200.881 73.6542 200.955 73.404 200.956Z" fill="#021B1E"/>
</g>
</g>
<defs>
<radialGradient id="paint0_radial_89:694" cx="0" cy="0" r="1" gradientUnits="userSpaceOnUse" gradientTransform="translate(50.0671 169.239) scale(137.866 137.677)">
<stop stop-color="white"/>
<stop offset="1" stop-color="#C4BBBB"/>
</radialGradient>
<linearGradient id="paint1_linear_89:694" x1="4.1419" y1="203.38" x2="115.383" y2="203.38" gradientUnits="userSpaceOnUse">
<stop stop-color="#C4BBBB"/>
<stop offset="1" stop-color="white"/>
</linearGradient>
<clipPath id="clip0_89:694">
<rect width="119.404" height="262.025" fill="white" transform="translate(0.0620117 0.975098)"/>
</clipPath>
<clipPath id="clip1_89:694">
<rect width="63" height="63" fill="white" transform="translate(28 171)"/>
</clipPath>
</defs>
</svg>
