<svg width="120" height="263" viewBox="0 0 120 263" fill="none" xmlns="http://www.w3.org/2000/svg">
<g clip-path="url(#clip0_89:693)">
<path d="M44.7375 0H74.7327C86.5888 0.00115782 97.9589 4.70534 106.342 13.0778C114.725 21.4503 119.435 32.8053 119.435 44.6451V174.573C119.435 178.228 118.714 181.847 117.313 185.224C115.913 188.6 113.86 191.669 111.272 194.253C108.684 196.837 105.611 198.888 102.23 200.286C98.8484 201.685 95.2243 202.405 91.5642 202.405H27.9015C20.5098 202.405 13.4208 199.473 8.19408 194.253C2.96735 189.033 0.0310059 181.954 0.0310059 174.573V44.6451C0.0310059 32.8045 4.74114 21.4488 13.1252 13.0763C21.5093 4.70367 32.8806 0 44.7375 0V0Z" fill="black"/>
<g style="mix-blend-mode:multiply">
<g style="mix-blend-mode:multiply">
<path d="M59.7329 262.025C92.7053 262.025 119.435 235.332 119.435 202.405C119.435 169.478 92.7053 142.785 59.7329 142.785C26.7604 142.785 0.0310059 169.478 0.0310059 202.405C0.0310059 235.332 26.7604 262.025 59.7329 262.025Z" fill="#B0A3A3"/>
</g>
</g>
<path d="M59.7329 262.025C92.7053 262.025 119.435 235.332 119.435 202.405C119.435 169.478 92.7053 142.785 59.7329 142.785C26.7604 142.785 0.0310059 169.478 0.0310059 202.405C0.0310059 235.332 26.7604 262.025 59.7329 262.025Z" fill="url(#paint0_radial_89:693)"/>
<path d="M99.0584 241.682C120.779 219.992 120.779 184.824 99.0585 163.134C77.3381 141.443 42.1223 141.443 20.4019 163.134C-1.31846 184.824 -1.31842 219.992 20.402 241.682C42.1224 263.373 77.338 263.373 99.0584 241.682Z" fill="url(#paint1_linear_89:693)"/>
<path d="M35.7078 119H52.8078V48.8H35.7078V119ZM63.2 119H80.3V48.8H63.2V119Z" fill="#5F5F75"/>
<path d="M35.7078 119H34.7078V120H35.7078V119ZM52.8078 119V120H53.8078V119H52.8078ZM52.8078 48.8H53.8078V47.8H52.8078V48.8ZM35.7078 48.8V47.8H34.7078V48.8H35.7078ZM35.7078 120H52.8078V118H35.7078V120ZM53.8078 119V48.8H51.8078V119H53.8078ZM52.8078 47.8H35.7078V49.8H52.8078V47.8ZM34.7078 48.8V119H36.7078V48.8H34.7078ZM63.2 119H62.2V120H63.2V119ZM80.3 119V120H81.3V119H80.3ZM80.3 48.8H81.3V47.8H80.3V48.8ZM63.2 48.8V47.8H62.2V48.8H63.2ZM63.2 120H80.3V118H63.2V120ZM81.3 119V48.8H79.3V119H81.3ZM80.3 47.8H63.2V49.8H80.3V47.8ZM62.2 48.8V119H64.2V48.8H62.2Z" fill="#C4BBBB"/>
<g clip-path="url(#clip1_89:693)">
<path d="M65.6534 231H43.8038C43.504 231 43.2166 230.88 43.0046 230.667C42.7927 230.454 42.6736 230.165 42.6736 229.864V222.879C42.6736 217.588 41.4625 212.274 39.0722 207.112C36.1263 200.741 34.205 190.474 38.4808 182.511C38.6294 182.258 38.8697 182.072 39.1514 181.994C39.433 181.915 39.734 181.949 39.9912 182.089C40.2483 182.228 40.4417 182.463 40.5306 182.743C40.6195 183.023 40.597 183.327 40.4679 183.59C36.8383 190.351 38.1794 199.794 41.1197 206.155C43.6493 211.628 44.932 217.255 44.932 222.879V228.729H64.657L65.6119 221.478C65.6318 221.328 65.6811 221.184 65.7571 221.053C65.8331 220.923 65.9342 220.809 66.0546 220.718C66.1749 220.628 66.312 220.562 66.4579 220.525C66.6038 220.489 66.7554 220.482 66.9041 220.505L73.928 221.601C74.6244 221.71 75.3359 221.666 76.0138 221.472C76.6917 221.278 77.3198 220.939 77.855 220.478C78.3902 220.017 78.8199 219.445 79.1145 218.802C79.4091 218.158 79.5617 217.458 79.5618 216.749V210.132C79.5618 209.831 79.6809 209.542 79.8928 209.329C80.1048 209.116 80.3922 208.996 80.692 208.996H84.412C84.4673 208.997 84.5218 208.983 84.5697 208.956C84.6175 208.928 84.6569 208.887 84.6833 208.839C84.7125 208.791 84.728 208.737 84.728 208.681C84.728 208.626 84.7125 208.571 84.6833 208.524L81.8937 203.572C80.5611 201.203 79.8609 198.529 79.8613 195.807C79.8613 195.415 79.8613 195.023 79.8311 194.635C79.3621 185.524 72.8619 177.704 63.6323 175.176C58.1699 173.678 53.1049 174.027 48.5636 176.204C48.4289 176.278 48.2805 176.324 48.1277 176.338C47.9748 176.353 47.8206 176.336 47.6746 176.288C47.5285 176.241 47.3935 176.164 47.278 176.062C47.1624 175.961 47.0687 175.837 47.0024 175.697C46.9362 175.558 46.8988 175.407 46.8927 175.253C46.8866 175.098 46.9118 174.944 46.9667 174.8C47.0217 174.656 47.1053 174.525 47.2124 174.414C47.3195 174.304 47.4479 174.216 47.5898 174.157C52.6322 171.735 58.2283 171.341 64.2237 172.985C74.3951 175.773 81.564 184.425 82.082 194.518C82.1046 194.946 82.1159 195.376 82.1159 195.807C82.1182 198.13 82.717 200.414 83.8545 202.436L86.6459 207.388C86.8676 207.782 86.9827 208.227 86.9798 208.679C86.977 209.131 86.8562 209.575 86.6296 209.966C86.403 210.356 86.0784 210.681 85.6883 210.906C85.2982 211.131 84.8562 211.25 84.4064 211.249H81.8146V216.732C81.8148 217.768 81.592 218.792 81.1614 219.734C80.7308 220.675 80.1026 221.512 79.32 222.186C78.5375 222.86 77.619 223.356 76.6278 223.639C75.6365 223.923 74.596 223.987 73.5776 223.828L67.6933 222.91L66.7609 229.994C66.7293 230.269 66.5996 230.522 66.3957 230.707C66.1919 230.892 65.928 230.996 65.6534 231Z" fill="#FAA600"/>
<path d="M66.7402 222.771C66.6259 222.772 66.5121 222.755 66.403 222.72L59.7916 220.637C59.5199 220.536 59.2971 220.334 59.1693 220.073C59.0414 219.811 59.0182 219.511 59.1045 219.233C59.1908 218.955 59.38 218.72 59.633 218.579C59.886 218.437 60.1835 218.398 60.4641 218.47L67.0755 220.554C67.3308 220.636 67.5485 220.808 67.6897 221.037C67.8308 221.267 67.8862 221.539 67.8459 221.806C67.8056 222.073 67.6721 222.316 67.4696 222.493C67.267 222.67 67.0085 222.769 66.7402 222.771Z" fill="#FAA600"/>
<path d="M85.8679 231H37.1677C36.868 231 36.5805 230.88 36.3686 230.667C36.1567 230.454 36.0376 230.165 36.0376 229.864C36.0376 229.562 36.1567 229.273 36.3686 229.06C36.5805 228.847 36.868 228.727 37.1677 228.727H85.8679C86.1676 228.727 86.4551 228.847 86.667 229.06C86.879 229.273 86.998 229.562 86.998 229.864C86.998 230.165 86.879 230.454 86.667 230.667C86.4551 230.88 86.1676 231 85.8679 231Z" fill="#FAA600"/>
<path d="M56.9474 207.71C54.0155 207.71 51.1494 206.836 48.7117 205.198C46.2739 203.56 44.3739 201.233 43.2519 198.509C42.13 195.786 41.8364 192.789 42.4084 189.898C42.9804 187.007 44.3922 184.351 46.4653 182.266C48.5385 180.182 51.1798 178.763 54.0554 178.188C56.9309 177.612 59.9115 177.908 62.6202 179.036C65.3289 180.164 67.644 182.074 69.2729 184.525C70.9018 186.976 71.7712 189.858 71.7712 192.805C71.7667 196.757 70.2035 200.545 67.4244 203.339C64.6454 206.134 60.8775 207.705 56.9474 207.71ZM56.9474 180.172C54.4622 180.172 52.0328 180.913 49.9664 182.301C47.9 183.689 46.2895 185.662 45.3384 187.971C44.3874 190.279 44.1385 192.819 44.6234 195.27C45.1082 197.721 46.305 199.972 48.0623 201.739C49.8196 203.506 52.0585 204.709 54.496 205.196C56.9334 205.684 59.4599 205.434 61.7559 204.477C64.052 203.521 66.0144 201.902 67.3951 199.824C68.7758 197.747 69.5128 195.304 69.5128 192.805C69.5088 189.456 68.1836 186.245 65.828 183.877C63.4724 181.508 60.2787 180.176 56.9474 180.172Z" fill="#FAA600"/>
<path d="M56.9474 202.79C54.9833 202.79 53.0634 202.204 51.4304 201.107C49.7974 200.01 48.5246 198.451 47.773 196.626C47.0214 194.802 46.8247 192.794 47.2079 190.858C47.5911 188.921 48.5368 187.142 49.9256 185.746C51.3144 184.349 53.0838 183.398 55.0101 183.013C56.9364 182.628 58.933 182.826 60.7475 183.581C62.562 184.337 64.1129 185.617 65.2041 187.259C66.2952 188.9 66.8776 190.831 66.8776 192.806C66.8746 195.453 65.8274 197.99 63.9658 199.862C62.1042 201.734 59.5801 202.787 56.9474 202.79ZM56.9474 185.092C55.43 185.092 53.9467 185.544 52.6851 186.392C51.4235 187.24 50.4402 188.444 49.8595 189.854C49.2788 191.263 49.1269 192.814 49.4229 194.31C49.7189 195.807 50.4496 197.181 51.5225 198.26C52.5955 199.339 53.9625 200.073 55.4507 200.371C56.9389 200.668 58.4814 200.516 59.8833 199.932C61.2851 199.348 62.4833 198.359 63.3263 197.091C64.1693 195.822 64.6192 194.331 64.6192 192.806C64.6192 190.759 63.8112 188.796 62.3727 187.349C60.9341 185.901 58.9828 185.086 56.9474 185.084V185.092Z" fill="#FAA600"/>
<path d="M56.9474 197.722C55.9788 197.722 55.0319 197.433 54.2266 196.892C53.4212 196.351 52.7935 195.582 52.4228 194.682C52.0522 193.782 51.9552 192.792 52.1442 191.837C52.3331 190.882 52.7996 190.005 53.4845 189.316C54.1694 188.627 55.042 188.158 55.992 187.968C56.942 187.778 57.9266 187.876 58.8215 188.249C59.7164 188.621 60.4812 189.252 61.0194 190.062C61.5575 190.872 61.8447 191.824 61.8447 192.798C61.8447 194.104 61.3288 195.356 60.4103 196.279C59.4919 197.203 58.2462 197.722 56.9474 197.722ZM56.9474 190.16C56.4258 190.16 55.916 190.315 55.4823 190.606C55.0487 190.898 54.7107 191.312 54.5111 191.796C54.3115 192.281 54.2593 192.814 54.361 193.328C54.4628 193.843 54.714 194.315 55.0828 194.686C55.4515 195.057 55.9214 195.309 56.4329 195.411C56.9445 195.514 57.4747 195.461 57.9565 195.261C58.4384 195.06 58.8502 194.72 59.14 194.284C59.4298 193.848 59.5844 193.335 59.5844 192.811C59.5844 192.108 59.3066 191.433 58.812 190.936C58.3175 190.439 57.6468 190.16 56.9474 190.16Z" fill="#FAA600"/>
<path d="M56.9473 193.942C56.6477 193.941 56.3604 193.822 56.1487 193.608L37.6612 175.021C37.4616 174.805 37.3529 174.52 37.3581 174.226C37.3633 173.932 37.4819 173.651 37.689 173.442C37.896 173.234 38.1754 173.115 38.4681 173.11C38.7609 173.105 39.0443 173.214 39.2585 173.415L57.7459 192.002C57.9038 192.161 58.0113 192.364 58.0548 192.584C58.0983 192.804 58.0759 193.033 57.9905 193.24C57.905 193.448 57.7603 193.625 57.5746 193.75C57.389 193.875 57.1707 193.942 56.9473 193.942Z" fill="#FAA600"/>
</g>
</g>
<defs>
<radialGradient id="paint0_radial_89:693" cx="0" cy="0" r="1" gradientUnits="userSpaceOnUse" gradientTransform="translate(50.0361 168.264) scale(137.866 137.677)">
<stop stop-color="white"/>
<stop offset="1" stop-color="#C4BBBB"/>
</radialGradient>
<linearGradient id="paint1_linear_89:693" x1="4.1109" y1="202.405" x2="115.352" y2="202.405" gradientUnits="userSpaceOnUse">
<stop stop-color="#C4BBBB"/>
<stop offset="1" stop-color="white"/>
</linearGradient>
<clipPath id="clip0_89:693">
<rect width="119.404" height="262.025" fill="white" transform="translate(0.0310059)"/>
</clipPath>
<clipPath id="clip1_89:693">
<rect width="51" height="59" fill="white" transform="translate(36 172)"/>
</clipPath>
</defs>
</svg>
