<svg width="120" height="263" viewBox="0 0 120 263" fill="none" xmlns="http://www.w3.org/2000/svg">
<g clip-path="url(#clip0_286:2)">
<path d="M44.7064 0.975098H74.7016C86.5578 0.976255 97.9279 5.68044 106.311 14.0529C114.694 22.4254 119.404 33.7804 119.404 45.6202V175.548C119.404 179.203 118.683 182.822 117.282 186.199C115.882 189.575 113.829 192.644 111.241 195.228C108.653 197.813 105.58 199.863 102.199 201.261C98.8174 202.66 95.1932 203.38 91.5332 203.38H27.8705C20.4788 203.38 13.3898 200.448 8.16308 195.228C2.93635 190.009 0 182.929 0 175.548V45.6202C0 33.7796 4.71013 22.4239 13.0942 14.0513C21.4783 5.67877 32.8496 0.975098 44.7064 0.975098V0.975098Z" fill="#FAA600"/>
<g style="mix-blend-mode:multiply">
<g style="mix-blend-mode:multiply">
<path d="M59.7019 263C92.6743 263 119.404 236.307 119.404 203.38C119.404 170.453 92.6743 143.76 59.7019 143.76C26.7294 143.76 0 170.453 0 203.38C0 236.307 26.7294 263 59.7019 263Z" fill="#B0A3A3"/>
</g>
</g>
<path d="M59.7019 263C92.6743 263 119.404 236.307 119.404 203.38C119.404 170.453 92.6743 143.76 59.7019 143.76C26.7294 143.76 0 170.453 0 203.38C0 236.307 26.7294 263 59.7019 263Z" fill="url(#paint0_radial_286:2)"/>
<path d="M99.0274 242.657C120.748 220.967 120.748 185.799 99.0275 164.109C77.3071 142.418 42.0913 142.418 20.3709 164.109C-1.34946 185.799 -1.34942 220.967 20.371 242.657C42.0914 264.348 77.307 264.348 99.0274 242.657Z" fill="url(#paint1_linear_286:2)"/>
<path d="M59.4766 102.8L42.0766 49.8H23.8766L48.7766 120H70.1766L95.0766 49.8H76.9766L59.4766 102.8Z" fill="#FFC444"/>
<path d="M59.4766 102.8L58.5265 103.112L59.4738 105.998L60.4261 103.114L59.4766 102.8ZM42.0766 49.8L43.0267 49.4881L42.8008 48.8H42.0766V49.8ZM23.8766 49.8V48.8H22.4608L22.9341 50.1343L23.8766 49.8ZM48.7766 120L47.8341 120.334L48.0702 121H48.7766V120ZM70.1766 120V121H70.8829L71.119 120.334L70.1766 120ZM95.0766 49.8L96.019 50.1343L96.4923 48.8H95.0766V49.8ZM76.9766 49.8V48.8H76.2537L76.027 49.4865L76.9766 49.8ZM60.4267 102.488L43.0267 49.4881L41.1265 50.1119L58.5265 103.112L60.4267 102.488ZM42.0766 48.8H23.8766V50.8H42.0766V48.8ZM22.9341 50.1343L47.8341 120.334L49.719 119.666L24.819 49.4657L22.9341 50.1343ZM48.7766 121H70.1766V119H48.7766V121ZM71.119 120.334L96.019 50.1343L94.1341 49.4657L69.2341 119.666L71.119 120.334ZM95.0766 48.8H76.9766V50.8H95.0766V48.8ZM76.027 49.4865L58.527 102.486L60.4261 103.114L77.9261 50.1135L76.027 49.4865Z" fill="#FFE6B8"/>
<g clip-path="url(#clip1_286:2)">
<path d="M60.0673 238H44.0989C43.7536 238 43.4226 237.861 43.1784 237.615C42.9343 237.368 42.7971 237.033 42.7971 236.684V212.594C42.1584 212.86 41.4648 212.962 40.7774 212.893C40.0901 212.823 39.4303 212.584 38.8564 212.196C38.2824 211.807 37.812 211.282 37.4867 210.666C37.1614 210.05 36.9912 209.363 36.9912 208.665V195.313C36.9941 192.593 38.0646 189.986 39.9678 188.063C41.8709 186.139 44.4514 185.058 47.1429 185.055H58.6961C60.1917 185.053 61.6691 185.386 63.022 186.031C64.3748 186.675 65.5694 187.615 66.5197 188.782L75.6495 200.601C76.3445 201.46 76.687 202.556 76.6064 203.662C76.5258 204.769 76.0282 205.802 75.2161 206.548C74.4041 207.295 73.3394 207.698 72.2418 207.675C71.1441 207.652 70.097 207.204 69.3163 206.424L61.3691 197.609V236.684C61.3691 237.033 61.2319 237.368 60.9878 237.615C60.7437 237.861 60.4125 238 60.0673 238V238ZM45.3985 235.369H58.7655V194.217C58.7675 193.953 58.8484 193.695 58.9974 193.478C59.1465 193.26 59.3568 193.093 59.6011 192.999C59.8454 192.904 60.1122 192.886 60.3668 192.947C60.6214 193.008 60.852 193.145 61.0284 193.34L71.1888 204.602C71.5053 204.891 71.918 205.047 72.3441 205.041C72.7702 205.034 73.1781 204.865 73.4859 204.568C73.7938 204.27 73.9788 203.865 74.0038 203.436C74.0288 203.006 73.892 202.582 73.6209 202.25L64.4933 190.431C63.7862 189.571 62.8999 188.879 61.8978 188.405C60.8957 187.932 59.8024 187.687 58.6961 187.69H47.1429C45.1409 187.693 43.2218 188.498 41.8064 189.929C40.391 191.359 39.5949 193.299 39.5926 195.322V208.674C39.5847 208.891 39.6202 209.109 39.6972 209.312C39.7741 209.515 39.8909 209.701 40.0405 209.858C40.1901 210.015 40.3693 210.139 40.5677 210.225C40.766 210.31 40.9793 210.354 41.1948 210.354C41.4104 210.354 41.6237 210.31 41.8221 210.225C42.0204 210.139 42.1997 210.015 42.3493 209.858C42.4988 209.701 42.6156 209.515 42.6925 209.312C42.7695 209.109 42.805 208.891 42.7971 208.674V195.839C42.7971 195.49 42.9343 195.156 43.1784 194.909C43.4226 194.662 43.7536 194.524 44.0989 194.524C44.4441 194.524 44.7752 194.662 45.0194 194.909C45.2635 195.156 45.4007 195.49 45.4007 195.839L45.3985 235.369Z" fill="#021B1E"/>
<path d="M52.0918 238C51.7466 238 51.4154 237.861 51.1713 237.615C50.9272 237.368 50.79 237.033 50.79 236.685V215.571C50.79 215.222 50.9272 214.888 51.1713 214.641C51.4154 214.394 51.7466 214.256 52.0918 214.256C52.4371 214.256 52.7682 214.394 53.0123 214.641C53.2564 214.888 53.3936 215.222 53.3936 215.571V236.691C53.3919 237.039 53.254 237.372 53.01 237.617C52.7661 237.862 52.4359 238 52.0918 238V238Z" fill="#021B1E"/>
<path d="M44.1076 206.771H38.2996C37.9543 206.771 37.6232 206.632 37.3791 206.385C37.1349 206.139 36.9978 205.804 36.9978 205.455C36.9978 205.106 37.1349 204.772 37.3791 204.525C37.6232 204.278 37.9543 204.14 38.2996 204.14H44.1076C44.4529 204.14 44.784 204.278 45.0281 204.525C45.2723 204.772 45.4094 205.106 45.4094 205.455C45.4094 205.804 45.2723 206.139 45.0281 206.385C44.784 206.632 44.4529 206.771 44.1076 206.771V206.771Z" fill="#021B1E"/>
<path d="M52.0919 182.404C50.5844 182.404 49.1108 181.952 47.8574 181.106C46.604 180.26 45.6271 179.057 45.0502 177.65C44.4733 176.242 44.3223 174.694 44.6164 173.199C44.9105 171.705 45.6365 170.333 46.7024 169.256C47.7683 168.179 49.1264 167.445 50.6049 167.148C52.0834 166.851 53.6159 167.003 55.0086 167.586C56.4013 168.169 57.5917 169.156 58.4292 170.423C59.2667 171.69 59.7138 173.179 59.7138 174.702C59.7115 176.744 58.9077 178.702 57.4788 180.146C56.0499 181.59 54.1126 182.402 52.0919 182.404V182.404ZM52.0919 169.629C51.0989 169.629 50.1282 169.926 49.3026 170.484C48.477 171.041 47.8335 171.834 47.4535 172.761C47.0735 173.688 46.9741 174.708 47.1678 175.692C47.3616 176.676 47.8397 177.58 48.5418 178.289C49.2439 178.999 50.1385 179.482 51.1124 179.678C52.0863 179.874 53.0957 179.773 54.0131 179.389C54.9305 179.005 55.7146 178.355 56.2663 177.521C56.8179 176.686 57.1123 175.705 57.1123 174.702C57.1106 173.357 56.5812 172.068 55.64 171.117C54.6988 170.166 53.4228 169.63 52.0919 169.629V169.629Z" fill="#021B1E"/>
<path d="M91.6983 230.48H66.6023C66.2571 230.48 65.9259 230.341 65.6818 230.095C65.4377 229.848 65.3005 229.513 65.3005 229.164C65.3005 228.816 65.4377 228.481 65.6818 228.234C65.9259 227.988 66.2571 227.849 66.6023 227.849H90.3987V174.314H66.6023C66.2571 174.314 65.9259 174.175 65.6818 173.929C65.4377 173.682 65.3005 173.347 65.3005 172.999C65.3005 172.65 65.4377 172.315 65.6818 172.068C65.9259 171.822 66.2571 171.683 66.6023 171.683H91.6983C92.0435 171.683 92.3746 171.822 92.6188 172.068C92.8629 172.315 93 172.65 93 172.999V229.164C93 229.513 92.8629 229.848 92.6188 230.095C92.3746 230.341 92.0435 230.48 91.6983 230.48Z" fill="#021B1E"/>
<path d="M85.8012 204.999H81.1582C80.813 204.999 80.4818 204.861 80.2377 204.614C79.9936 204.367 79.8564 204.033 79.8564 203.684C79.8564 203.335 79.9936 203 80.2377 202.754C80.4818 202.507 80.813 202.368 81.1582 202.368H85.8012C86.1465 202.368 86.4775 202.507 86.7217 202.754C86.9658 203 87.103 203.335 87.103 203.684C87.103 204.033 86.9658 204.367 86.7217 204.614C86.4775 204.861 86.1465 204.999 85.8012 204.999V204.999Z" fill="#021B1E"/>
<path d="M83.4797 238H38.2996C37.9543 238 37.6232 237.861 37.3791 237.615C37.1349 237.368 36.9978 237.033 36.9978 236.685C36.9978 236.336 37.1349 236.001 37.3791 235.754C37.6232 235.508 37.9543 235.369 38.2996 235.369H83.4797C83.8249 235.369 84.1561 235.508 84.4002 235.754C84.6443 236.001 84.7815 236.336 84.7815 236.685C84.7815 237.033 84.6443 237.368 84.4002 237.615C84.1561 237.861 83.8249 238 83.4797 238Z" fill="#021B1E"/>
<path d="M85.6363 192.509C85.2911 192.509 84.9599 192.37 84.7158 192.124C84.4717 191.877 84.3345 191.542 84.3345 191.194V179.949H76.6758C76.3305 179.949 75.9994 179.81 75.7553 179.563C75.5112 179.317 75.374 178.982 75.374 178.633C75.374 178.284 75.5112 177.95 75.7553 177.703C75.9994 177.456 76.3305 177.318 76.6758 177.318H85.6341C85.9794 177.318 86.3105 177.456 86.5546 177.703C86.7987 177.95 86.9359 178.284 86.9359 178.633V191.191C86.9362 191.364 86.9028 191.535 86.8377 191.695C86.7725 191.855 86.6768 192 86.5561 192.122C86.4354 192.245 86.2921 192.342 86.1343 192.408C85.9765 192.474 85.8073 192.509 85.6363 192.509V192.509Z" fill="#021B1E"/>
</g>
</g>
<defs>
<radialGradient id="paint0_radial_286:2" cx="0" cy="0" r="1" gradientUnits="userSpaceOnUse" gradientTransform="translate(50.0051 169.239) scale(137.866 137.677)">
<stop stop-color="white"/>
<stop offset="1" stop-color="#C4BBBB"/>
</radialGradient>
<linearGradient id="paint1_linear_286:2" x1="4.07989" y1="203.38" x2="115.321" y2="203.38" gradientUnits="userSpaceOnUse">
<stop stop-color="#C4BBBB"/>
<stop offset="1" stop-color="white"/>
</linearGradient>
<clipPath id="clip0_286:2">
<rect width="119.404" height="262.025" fill="white" transform="translate(0 0.975098)"/>
</clipPath>
<clipPath id="clip1_286:2">
<rect width="56" height="71" fill="white" transform="translate(37 167)"/>
</clipPath>
</defs>
</svg>
