<svg width="120" height="263" viewBox="0 0 120 263" fill="none" xmlns="http://www.w3.org/2000/svg">
<g clip-path="url(#clip0_89:695)">
<path d="M44.7064 0H74.7016C86.5578 0.00115782 97.9279 4.70534 106.311 13.0778C114.694 21.4503 119.404 32.8053 119.404 44.6451V174.573C119.404 178.228 118.683 181.847 117.282 185.224C115.882 188.6 113.829 191.669 111.241 194.253C108.653 196.837 105.58 198.888 102.199 200.286C98.8174 201.685 95.1932 202.405 91.5332 202.405H27.8705C20.4788 202.405 13.3898 199.473 8.16308 194.253C2.93635 189.033 0 181.954 0 174.573V44.6451C0 32.8045 4.71013 21.4488 13.0942 13.0763C21.4783 4.70367 32.8496 0 44.7064 0V0Z" fill="black"/>
<g style="mix-blend-mode:multiply">
<g style="mix-blend-mode:multiply">
<path d="M59.7019 262.025C92.6743 262.025 119.404 235.332 119.404 202.405C119.404 169.478 92.6743 142.785 59.7019 142.785C26.7294 142.785 0 169.478 0 202.405C0 235.332 26.7294 262.025 59.7019 262.025Z" fill="#B0A3A3"/>
</g>
</g>
<path d="M59.7019 262.025C92.6743 262.025 119.404 235.332 119.404 202.405C119.404 169.478 92.6743 142.785 59.7019 142.785C26.7294 142.785 0 169.478 0 202.405C0 235.332 26.7294 262.025 59.7019 262.025Z" fill="url(#paint0_radial_89:695)"/>
<path d="M99.0274 241.682C120.748 219.992 120.748 184.824 99.0275 163.134C77.3071 141.443 42.0913 141.443 20.3709 163.134C-1.34946 184.824 -1.34942 219.992 20.371 241.682C42.0914 263.373 77.307 263.373 99.0274 241.682Z" fill="url(#paint1_linear_89:695)"/>
<path d="M16.3372 124H33.4372V53.8H16.3372V124ZM74.1294 106.8L56.7294 53.8H38.5294L63.4294 124H84.8294L109.729 53.8H91.6294L74.1294 106.8Z" fill="#5F5F75"/>
<path d="M16.3372 124H15.3372V125H16.3372V124ZM33.4372 124V125H34.4372V124H33.4372ZM33.4372 53.8H34.4372V52.8H33.4372V53.8ZM16.3372 53.8V52.8H15.3372V53.8H16.3372ZM16.3372 125H33.4372V123H16.3372V125ZM34.4372 124V53.8H32.4372V124H34.4372ZM33.4372 52.8H16.3372V54.8H33.4372V52.8ZM15.3372 53.8V124H17.3372V53.8H15.3372ZM74.1294 106.8L73.1793 107.112L74.1267 109.998L75.079 107.114L74.1294 106.8ZM56.7294 53.8L57.6795 53.4881L57.4536 52.8H56.7294V53.8ZM38.5294 53.8V52.8H37.1137L37.5869 54.1343L38.5294 53.8ZM63.4294 124L62.4869 124.334L62.7231 125H63.4294V124ZM84.8294 124V125H85.5357L85.7719 124.334L84.8294 124ZM109.729 53.8L110.672 54.1343L111.145 52.8H109.729V53.8ZM91.6294 53.8V52.8H90.9065L90.6798 53.4865L91.6294 53.8ZM75.0795 106.488L57.6795 53.4881L55.7793 54.1119L73.1793 107.112L75.0795 106.488ZM56.7294 52.8H38.5294V54.8H56.7294V52.8ZM37.5869 54.1343L62.4869 124.334L64.3719 123.666L39.4719 53.4657L37.5869 54.1343ZM63.4294 125H84.8294V123H63.4294V125ZM85.7719 124.334L110.672 54.1343L108.787 53.4657L83.8869 123.666L85.7719 124.334ZM109.729 52.8H91.6294V54.8H109.729V52.8ZM90.6798 53.4865L73.1798 106.486L75.079 107.114L92.579 54.1135L90.6798 53.4865Z" fill="#C4BBBB"/>
<g clip-path="url(#clip1_89:695)">
<path d="M60.158 211.225C59.8466 211.225 59.5474 211.104 59.3237 210.888L48.1531 200.09C43.0169 195.131 41.4042 187.876 43.9393 181.149C46.3963 174.636 52.2007 170.383 59.0876 170.026C59.8068 169.99 60.5273 169.99 61.2465 170.026C68.1353 170.375 73.9397 174.636 76.3968 181.149C78.9318 187.874 77.3172 195.129 72.183 200.09L61.0024 210.888C60.7762 211.107 60.4729 211.228 60.158 211.225ZM60.158 172.391C59.8359 172.391 59.5178 172.391 59.1996 172.414C53.2812 172.714 48.2911 176.384 46.1763 181.985C43.9753 187.804 45.3759 194.081 49.8118 198.365L60.158 208.358L70.5043 198.365C74.9422 194.081 76.3347 187.798 74.1398 181.985C72.0249 176.376 67.0349 172.706 61.1164 172.414C60.7983 172.399 60.4802 172.391 60.158 172.391Z" fill="#FAA600"/>
<path d="M60.158 184.477C59.8396 184.477 59.5343 184.351 59.3091 184.126C59.084 183.902 58.9575 183.598 58.9575 183.28V176.29C58.9575 175.973 59.084 175.669 59.3091 175.444C59.5343 175.22 59.8396 175.094 60.158 175.094C60.4764 175.094 60.7818 175.22 61.0069 175.444C61.232 175.669 61.3585 175.973 61.3585 176.29V183.282C61.358 183.599 61.2313 183.903 61.0062 184.127C60.7811 184.351 60.4761 184.477 60.158 184.477V184.477Z" fill="#FAA600"/>
<path d="M71.2726 188.56H64.2537C63.9353 188.56 63.63 188.434 63.4048 188.21C63.1797 187.985 63.0532 187.681 63.0532 187.364C63.0532 187.046 63.1797 186.742 63.4048 186.518C63.63 186.294 63.9353 186.167 64.2537 186.167H71.2726C71.591 186.167 71.8964 186.294 72.1215 186.518C72.3467 186.742 72.4731 187.046 72.4731 187.364C72.4731 187.681 72.3467 187.985 72.1215 188.21C71.8964 188.434 71.591 188.56 71.2726 188.56Z" fill="#FAA600"/>
<path d="M60.158 199.633C59.8396 199.633 59.5343 199.507 59.3091 199.283C59.084 199.059 58.9575 198.754 58.9575 198.437V191.443C58.9575 191.126 59.084 190.821 59.3091 190.597C59.5343 190.373 59.8396 190.247 60.158 190.247C60.4764 190.247 60.7818 190.373 61.0069 190.597C61.232 190.821 61.3585 191.126 61.3585 191.443V198.437C61.3585 198.754 61.232 199.059 61.0069 199.283C60.7818 199.507 60.4764 199.633 60.158 199.633Z" fill="#FAA600"/>
<path d="M56.0624 188.56H49.0455C48.7271 188.56 48.4217 188.434 48.1966 188.21C47.9714 187.985 47.845 187.681 47.845 187.364C47.845 187.046 47.9714 186.742 48.1966 186.518C48.4217 186.294 48.7271 186.167 49.0455 186.167H56.0624C56.3808 186.167 56.6861 186.294 56.9113 186.518C57.1364 186.742 57.2629 187.046 57.2629 187.364C57.2629 187.681 57.1364 187.985 56.9113 188.21C56.6861 188.434 56.3808 188.56 56.0624 188.56Z" fill="#FAA600"/>
<path d="M60.1581 199.633C57.7228 199.633 55.3422 198.914 53.3173 197.565C51.2924 196.217 49.7142 194.301 48.7823 192.059C47.8503 189.817 47.6065 187.35 48.0816 184.97C48.5567 182.59 49.7294 180.404 51.4514 178.688C53.1734 176.972 55.3674 175.803 57.7559 175.33C60.1444 174.856 62.6202 175.099 64.8701 176.028C67.12 176.957 69.0431 178.529 70.3961 180.547C71.749 182.565 72.4712 184.937 72.4712 187.364C72.4675 190.617 71.169 193.735 68.8607 196.036C66.5523 198.336 63.4226 199.63 60.1581 199.633V199.633ZM60.1581 177.485C58.1972 177.485 56.2804 178.064 54.6501 179.149C53.0197 180.235 51.749 181.778 50.9986 183.583C50.2482 185.388 50.0519 187.375 50.4345 189.291C50.817 191.207 51.7612 192.968 53.1477 194.349C54.5342 195.731 56.3008 196.672 58.2239 197.053C60.1471 197.434 62.1405 197.239 63.952 196.491C65.7636 195.743 67.312 194.477 68.4013 192.852C69.4907 191.228 70.0722 189.318 70.0722 187.364C70.069 184.745 69.0234 182.234 67.1649 180.382C65.3063 178.53 62.7865 177.488 60.1581 177.485Z" fill="#FAA600"/>
<path d="M60.1581 195.185C58.6056 195.185 57.0878 194.727 55.7968 193.868C54.5057 193.009 53.4993 191.787 52.9049 190.358C52.3105 188.929 52.1548 187.356 52.4575 185.839C52.7601 184.321 53.5075 182.928 54.6051 181.834C55.7028 180.739 57.1014 179.994 58.6241 179.692C60.1468 179.39 61.725 179.545 63.1594 180.137C64.5938 180.729 65.8198 181.732 66.6824 183.018C67.545 184.304 68.0054 185.816 68.0054 187.364C68.0033 189.437 67.1759 191.425 65.7048 192.891C64.2336 194.357 62.2389 195.182 60.1581 195.185ZM60.1581 181.934C59.0801 181.934 58.0263 182.253 57.1299 182.85C56.2336 183.447 55.535 184.295 55.1225 185.288C54.7101 186.28 54.6023 187.372 54.8127 188.426C55.0232 189.479 55.5425 190.447 56.3049 191.207C57.0674 191.966 58.0387 192.483 59.0961 192.692C60.1534 192.902 61.2494 192.794 62.2452 192.383C63.2411 191.971 64.0922 191.275 64.6908 190.381C65.2895 189.488 65.6088 188.438 65.6084 187.364C65.6068 185.924 65.0321 184.543 64.0103 183.525C62.9885 182.507 61.6031 181.934 60.1581 181.933V181.934Z" fill="#FAA600"/>
<path d="M79.1659 234H49.5136C49.1952 234 48.8898 233.874 48.6647 233.65C48.4396 233.425 48.3131 233.121 48.3131 232.804C48.3131 232.486 48.4396 232.182 48.6647 231.958C48.8898 231.733 49.1952 231.607 49.5136 231.607H79.1659C80.3153 231.606 81.4172 231.15 82.23 230.34C83.0428 229.53 83.5001 228.432 83.5017 227.287V226.571C83.5006 225.426 83.0435 224.327 82.2306 223.517C81.4177 222.707 80.3155 222.252 79.1659 222.251H39.6395C37.8737 222.22 36.1905 221.5 34.9525 220.245C33.7145 218.99 33.0208 217.3 33.0208 215.541C33.0208 213.781 33.7145 212.091 34.9525 210.836C36.1905 209.581 37.8737 208.861 39.6395 208.831H67.7611C68.0795 208.831 68.3849 208.957 68.61 209.181C68.8352 209.405 68.9616 209.71 68.9616 210.027C68.9616 210.344 68.8352 210.648 68.61 210.873C68.3849 211.097 68.0795 211.223 67.7611 211.223H39.6395C38.5059 211.247 37.427 211.713 36.634 212.521C35.8409 213.328 35.3968 214.413 35.3968 215.543C35.3968 216.672 35.8409 217.757 36.634 218.565C37.427 219.372 38.5059 219.838 39.6395 219.862H79.1659C80.9514 219.864 82.6632 220.572 83.9258 221.83C85.1883 223.088 85.8985 224.794 85.9007 226.573V227.289C85.8991 229.068 85.189 230.774 83.9264 232.033C82.6637 233.291 80.9516 233.998 79.1659 234V234Z" fill="#FAA600"/>
</g>
</g>
<defs>
<radialGradient id="paint0_radial_89:695" cx="0" cy="0" r="1" gradientUnits="userSpaceOnUse" gradientTransform="translate(50.0051 168.264) scale(137.866 137.677)">
<stop stop-color="white"/>
<stop offset="1" stop-color="#C4BBBB"/>
</radialGradient>
<linearGradient id="paint1_linear_89:695" x1="4.07989" y1="202.405" x2="115.321" y2="202.405" gradientUnits="userSpaceOnUse">
<stop stop-color="#C4BBBB"/>
<stop offset="1" stop-color="white"/>
</linearGradient>
<clipPath id="clip0_89:695">
<rect width="119.404" height="262.025" fill="white"/>
</clipPath>
<clipPath id="clip1_89:695">
<rect width="53" height="64" fill="white" transform="translate(32.9067 170)"/>
</clipPath>
</defs>
</svg>
